<svg width="60" height="60" viewBox="0 0 60 60" fill="none" xmlns="http://www.w3.org/2000/svg">
<g id="cash" clip-path="url(#clip0_1295_1913)">
<g id="Group 24411">
<path id="Subtract" d="M59.2327 22.4009L58.873 24.2972L50.1622 10.7261L49.7756 12.7644L58.4865 26.3353L58.1936 27.8791L49.4829 14.3081L49.0963 16.3463L57.8071 29.9172L57.1746 33.252L48.4638 19.6809L48.0772 21.7192L56.788 35.2901L56.1555 38.6249L47.4447 25.0538L47.0581 27.0921L55.6796 40.5238C54.8057 43.2731 53.1818 45.7658 50.9423 47.7673C48.2147 50.205 44.704 51.7979 40.8798 52.3329C40.7287 52.3541 40.59 52.4173 40.4824 52.5139C40.3748 52.6104 40.3034 52.7358 40.2779 52.8731L39.8089 55.3459C39.6072 56.4178 39.0585 57.3995 38.2323 58.1664C37.4061 58.9334 36.3395 59.4513 35.1676 59.6545C33.9957 59.8576 32.7712 59.737 31.649 59.3078C30.5269 58.8786 29.5577 58.1602 28.864 57.2435C28.7469 57.0888 28.638 56.9279 28.5382 56.7641C28.304 57.1192 27.954 57.3969 27.5348 57.5602C27.1155 57.7235 26.6469 57.7647 26.1913 57.6783C25.7356 57.5919 25.3146 57.382 24.9843 57.0765C24.654 56.771 24.43 56.3844 24.3421 55.9682C23.3963 56.6857 22.2189 57.1105 20.9717 57.1844C19.7246 57.2583 18.4687 56.9776 17.3765 56.3808C16.2842 55.7841 15.4092 54.9005 14.8715 53.8515C14.3339 52.8024 14.1599 51.6392 14.3734 50.5216L14.8424 48.0489C14.869 47.9117 14.8485 47.7689 14.7837 47.6397C14.719 47.5104 14.613 47.4008 14.4801 47.3257C11.1175 45.4276 8.43382 42.6598 6.78826 39.3927C5.14269 36.1255 4.61366 32.5147 5.27193 29.0434L8.36181 12.7524C9.1368 8.66627 11.6741 5.08782 15.4156 2.80421C19.157 0.520605 23.7962 -0.281089 28.3124 0.575491L45.1264 3.76455C49.6426 4.62113 53.666 7.06582 56.3114 10.5608C58.9569 14.0558 60.0077 18.3148 59.2327 22.4009Z" fill="url(#paint0_linear_1295_1913)"/>
<path id="Vector" d="M55.2077 21.436L52.335 36.582C51.7228 39.8094 50.0497 42.7558 47.5397 45.027C45.0297 47.2983 41.8023 48.7862 38.2894 49.2917C38.1506 49.3118 38.0231 49.3708 37.9241 49.4608C37.8251 49.5508 37.7593 49.6674 37.7355 49.7951L37.2995 52.0941C37.113 53.092 36.6072 54.0069 35.8463 54.7226C35.0854 55.4383 34.1037 55.9226 33.0258 56.1139C31.9479 56.3053 30.8223 56.1951 29.792 55.7974C28.7616 55.3996 27.8729 54.7323 27.2386 53.88C27.1314 53.7366 27.0317 53.5873 26.9404 53.4352C26.7246 53.7657 26.4027 54.0246 26.0173 54.1773C25.6319 54.33 25.2015 54.3692 24.7833 54.2899C24.3651 54.2106 23.9789 54.0164 23.6762 53.7332C23.3735 53.4501 23.1687 53.0913 23.0889 52.7047C22.2186 53.3712 21.1373 53.7667 19.9933 53.8369C18.8492 53.9071 17.6982 53.6487 16.6979 53.097C15.6976 52.5454 14.8969 51.7274 14.4055 50.7552C13.914 49.7829 13.7558 48.7039 13.9526 47.6659L14.3886 45.3669C14.4133 45.2394 14.3948 45.1068 14.3356 44.9868C14.2764 44.8668 14.1793 44.7652 14.0575 44.6957C10.9736 42.939 8.51525 40.3728 7.01121 37.3401C5.50716 34.3075 5.02917 30.9531 5.64118 27.7257L8.51389 12.5797C9.23442 8.78076 11.5722 5.44978 15.0129 3.3195C18.4536 1.18923 22.7155 0.434158 26.8609 1.2204L42.2942 4.14761C46.4396 4.93386 50.129 7.19701 52.5508 10.4392C54.9725 13.6814 55.9282 17.637 55.2077 21.436Z" fill="url(#paint1_linear_1295_1913)"/>
<path id="Vector_2" d="M23.4543 33.6436L23.4544 33.6435C23.8081 33.1745 24.407 32.9995 24.9877 33.1096C25.5685 33.2197 26.0617 33.6019 26.2191 34.1679L26.2191 34.168L27.255 37.8886C27.496 38.7801 26.6674 39.6852 25.5147 39.4666L22.162 38.8307C21.5999 38.7241 21.1952 38.3788 21.0055 37.9741C20.8174 37.5726 20.8377 37.1122 21.1274 36.7273C21.1274 36.7273 21.1275 36.7272 21.1275 36.7272L23.4543 33.6436Z" fill="#A4D790" stroke="url(#paint2_linear_1295_1913)" stroke-width="0.745203"/>
<g id="Group 9110">
<g id="Group 9112">
<path id="Vector_3" d="M44.3891 9.00171C49.2523 9.92409 52.4462 14.3409 51.597 18.8183L48.5196 35.0437C47.6704 39.5211 43.081 42.4617 38.2178 41.5393C33.3546 40.6169 30.1607 36.2001 31.0099 31.7227L34.0873 15.4973C34.9365 11.0199 39.5259 8.07932 44.3891 9.00171Z" fill="url(#paint3_linear_1295_1913)" stroke="url(#paint4_linear_1295_1913)" stroke-width="0.883204"/>
<path id="$" d="M40.256 35.4884L40.1905 35.8338L39.8451 35.7683L38.5027 35.5137L38.1573 35.4482L38.2228 35.1028L38.5055 33.612C37.4847 33.3455 36.5971 32.9866 35.8477 32.5314C34.8584 31.9326 34.1307 31.1863 33.6876 30.2864C33.2412 29.3795 33.1302 28.3625 33.3348 27.2522L33.3348 27.2522L33.3357 27.2473C33.4636 26.6046 33.6879 26.0241 34.0118 25.5098C34.3338 24.9888 34.7659 24.5507 35.3023 24.1953C35.8414 23.8335 36.489 23.5618 37.2374 23.3737C37.989 23.1849 38.8581 23.0873 39.8408 23.0765C39.841 23.0765 39.8411 23.0765 39.8413 23.0765L40.5055 23.0676L40.8954 21.0117C40.7235 21.0383 40.5791 21.0857 40.4594 21.1497L40.4571 21.1509C40.1326 21.3213 39.9077 21.6017 39.7885 22.03L39.7018 22.3414L39.3843 22.2812L35.0296 21.4552L34.6823 21.3894L34.75 21.0425C34.9651 19.9399 35.441 19.0162 36.1839 18.2867C36.9199 17.5534 37.8578 17.0634 38.982 16.8081C39.8205 16.6177 40.7335 16.5749 41.7181 16.674L41.997 15.2036L42.0625 14.8582L42.4079 14.9237L43.7504 15.1783L44.0958 15.2439L44.0302 15.5893L43.7518 17.0576C44.7034 17.3236 45.5518 17.6982 46.2936 18.1843L46.2942 18.1847C47.2778 18.8319 48.0107 19.6214 48.4764 20.5566L48.4766 20.557C48.9425 21.4956 49.0661 22.5116 48.8556 23.5911C48.6085 24.9239 47.9449 25.9207 46.8558 26.5368L46.8538 26.5379C45.7958 27.127 44.4667 27.4227 42.8862 27.4475L42.8858 27.4475L41.7781 27.4637L41.3555 29.6914C41.5048 29.6842 41.646 29.667 41.7792 29.6402C42.1673 29.5599 42.4732 29.3987 42.7115 29.1636C42.9486 28.9296 43.1275 28.6063 43.2348 28.1739L43.3149 27.8513L43.6415 27.9132L47.9635 28.733L48.3103 28.7988L48.2431 29.1453C47.9753 30.5266 47.442 31.6345 46.6216 32.4389L46.6198 32.4406C45.8024 33.2307 44.7764 33.7295 43.5571 33.9448L43.5566 33.9449C42.6311 34.1066 41.6246 34.1217 40.5393 33.9948L40.256 35.4884ZM39.3288 29.2712L39.6446 27.6066C39.2812 27.6773 39.0543 27.7778 38.9256 27.8819L38.9257 27.882L38.9171 27.8886C38.788 27.9865 38.7103 28.1074 38.6754 28.2636C38.6473 28.4405 38.6763 28.6045 38.7676 28.7678C38.8591 28.9316 39.0234 29.0959 39.2911 29.25C39.3034 29.2572 39.316 29.2642 39.3288 29.2712ZM42.9317 21.3814L42.6375 22.9321C42.7754 22.9008 42.8939 22.8645 42.9942 22.8242C43.1622 22.7522 43.2738 22.6711 43.3458 22.5899C43.4113 22.5056 43.4555 22.4017 43.473 22.2682L43.4728 22.2682L43.4748 22.2566C43.5013 22.096 43.4784 21.9515 43.4061 21.8114C43.3386 21.6805 43.2054 21.5401 42.9684 21.4026L42.9684 21.4026L42.9655 21.4009C42.9544 21.3943 42.9432 21.3878 42.9317 21.3814Z" fill="#87FF55" stroke="url(#paint5_linear_1295_1913)" stroke-width="0.703125"/>
</g>
<g id="Group 9111">
<path id="Vector_4" d="M16.9754 3.38324C21.8385 4.30562 25.0325 8.72242 24.1833 13.1998L21.1058 29.4253C20.2566 33.9027 15.6672 36.8432 10.8041 35.9208C5.94088 34.9984 2.74693 30.5816 3.59614 26.1042L6.67358 9.8788C7.5228 5.4014 12.1122 2.46086 16.9754 3.38324Z" fill="url(#paint6_linear_1295_1913)" stroke="url(#paint7_linear_1295_1913)" stroke-width="0.883204"/>
<path id="$_2" d="M12.6159 29.6595L12.5504 30.0049L12.205 29.9394L10.8626 29.6848L10.5172 29.6192L10.5827 29.2738L10.8655 27.783C9.84457 27.5165 8.95702 27.1577 8.2076 26.7024C7.21834 26.1037 6.49058 25.3574 6.04757 24.4575C5.60112 23.5506 5.4901 22.5336 5.69471 21.4233L5.69467 21.4233L5.69565 21.4183C5.82354 20.7757 6.04781 20.1951 6.37167 19.6809C6.69368 19.1598 7.12584 18.7217 7.66226 18.3663C8.20136 18.0046 8.84895 17.7328 9.59734 17.5448C10.3489 17.3559 11.218 17.2584 12.2008 17.2475C12.2009 17.2475 12.2011 17.2475 12.2012 17.2475L12.8654 17.2387L13.2553 15.1827C13.0834 15.2094 12.9391 15.2567 12.8193 15.3207L12.817 15.3219C12.4925 15.4923 12.2676 15.7728 12.1484 16.2011L12.0617 16.5124L11.7442 16.4522L7.38948 15.6263L7.04226 15.5604L7.10993 15.2135C7.32504 14.111 7.80087 13.1873 8.54381 12.4578C9.27985 11.7244 10.2177 11.2344 11.342 10.9792C12.1804 10.7888 13.0934 10.746 14.078 10.8451L14.3569 9.37467L14.4224 9.02927L14.7678 9.09478L16.1103 9.34939L16.4557 9.41491L16.3902 9.76031L16.1117 11.2286C17.0633 11.4947 17.9117 11.8692 18.6536 12.3554L18.6541 12.3557C19.6377 13.003 20.3706 13.7924 20.8363 14.7276L20.8365 14.728C21.3024 15.6667 21.426 16.6827 21.2156 17.7621C20.9684 19.0949 20.3048 20.0917 19.2158 20.7078L19.2137 20.709C18.1558 21.2981 16.8266 21.5938 15.2461 21.6186L15.2457 21.6186L14.138 21.6348L13.7154 23.8625C13.8647 23.8553 14.0059 23.838 14.1391 23.8112C14.5272 23.7309 14.8331 23.5697 15.0714 23.3346C15.3086 23.1006 15.4874 22.7774 15.5947 22.345L15.6749 22.0224L16.0014 22.0843L20.3234 22.904L20.6703 22.9698L20.6031 23.3164C20.3352 24.6977 19.8019 25.8055 18.9815 26.61L18.9797 26.6117C18.1623 27.4017 17.1363 27.9006 15.9171 28.1158L15.9165 28.1159C14.991 28.2777 13.9845 28.2928 12.8992 28.1659L12.6159 29.6595ZM11.6888 23.4423L12.0045 21.7776C11.6411 21.8483 11.4142 21.9489 11.2855 22.0529L11.2856 22.0531L11.277 22.0596C11.1479 22.1576 11.0702 22.2784 11.0353 22.4347C11.0072 22.6116 11.0363 22.7755 11.1275 22.9388C11.219 23.1027 11.3833 23.2669 11.651 23.4211C11.6634 23.4282 11.676 23.4353 11.6888 23.4423ZM15.2916 15.5524L14.9975 17.1032C15.1353 17.0718 15.2538 17.0355 15.3542 16.9953C15.5221 16.9232 15.6337 16.8422 15.7058 16.761C15.7712 16.6766 15.8154 16.5728 15.833 16.4393L15.8328 16.4392L15.8347 16.4276C15.8613 16.267 15.8383 16.1226 15.766 15.9825C15.6985 15.8516 15.5653 15.7112 15.3283 15.5737L15.3283 15.5737L15.3254 15.5719C15.3143 15.5654 15.3031 15.5589 15.2916 15.5524Z" fill="#87FF55" stroke="url(#paint8_linear_1295_1913)" stroke-width="0.703125"/>
</g>
</g>
</g>
</g>
<defs>
<linearGradient id="paint0_linear_1295_1913" x1="36.7194" y1="2.17002" x2="26.0628" y2="58.3558" gradientUnits="userSpaceOnUse">
<stop stop-color="#0C5500"/>
<stop offset="1" stop-color="#BFEEAA"/>
</linearGradient>
<linearGradient id="paint1_linear_1295_1913" x1="34.5776" y1="2.68401" x2="24.6688" y2="54.9266" gradientUnits="userSpaceOnUse">
<stop stop-color="#0C5500"/>
<stop offset="1" stop-color="#BFEEAA"/>
</linearGradient>
<linearGradient id="paint2_linear_1295_1913" x1="25.0556" y1="32.7432" x2="23.7712" y2="39.5151" gradientUnits="userSpaceOnUse">
<stop stop-color="#6ADE60"/>
<stop offset="1" stop-color="#265322"/>
</linearGradient>
<linearGradient id="paint3_linear_1295_1913" x1="44.4714" y1="8.56784" x2="38.1355" y2="41.9732" gradientUnits="userSpaceOnUse">
<stop stop-color="#4B961D"/>
<stop offset="1" stop-color="#A4CF8F"/>
</linearGradient>
<linearGradient id="paint4_linear_1295_1913" x1="44.4714" y1="8.56784" x2="38.1355" y2="41.9732" gradientUnits="userSpaceOnUse">
<stop stop-color="#6ADE60"/>
<stop offset="1" stop-color="#265322"/>
</linearGradient>
<linearGradient id="paint5_linear_1295_1913" x1="43.2101" y1="15.4337" x2="39.4359" y2="35.3329" gradientUnits="userSpaceOnUse">
<stop stop-color="#79FF63"/>
<stop offset="1" stop-opacity="0"/>
<stop offset="1" stop-color="#BBEBA4"/>
</linearGradient>
<linearGradient id="paint6_linear_1295_1913" x1="17.0577" y1="2.94937" x2="10.7218" y2="36.3547" gradientUnits="userSpaceOnUse">
<stop stop-color="#4B961D"/>
<stop offset="1" stop-color="#A4CF8F"/>
</linearGradient>
<linearGradient id="paint7_linear_1295_1913" x1="17.0577" y1="2.94937" x2="10.7218" y2="36.3547" gradientUnits="userSpaceOnUse">
<stop stop-color="#6ADE60"/>
<stop offset="1" stop-color="#265322"/>
</linearGradient>
<linearGradient id="paint8_linear_1295_1913" x1="15.57" y1="9.60475" x2="11.7958" y2="29.5039" gradientUnits="userSpaceOnUse">
<stop stop-color="#79FF63"/>
<stop offset="1" stop-opacity="0"/>
<stop offset="1" stop-color="#BBEBA4"/>
</linearGradient>
<clipPath id="clip0_1295_1913">
<rect width="60" height="60" fill="white" transform="matrix(-1 0 0 1 60 0)"/>
</clipPath>
</defs>
</svg>
