<svg width="9" height="12" viewBox="0 0 9 12" fill="none" xmlns="http://www.w3.org/2000/svg">
    <path d="M0.545455 12H7.81818C8.11942 12 8.36364 11.7558 8.36364 11.4545V5.27273C8.36364 4.97149 8.11942 4.72727 7.81818 4.72727H7.27273V3.09091C7.27273 1.38658 5.88615 0 4.18182 0C2.47749 0 1.09091 1.38658 1.09091 3.09091V4.72727H0.545455C0.244218 4.72727 0 4.97149 0 5.27273V11.4545C0 11.7558 0.244218 12 0.545455 12ZM4.72727 8.54494V9.27273C4.72727 9.57396 4.48305 9.81818 4.18182 9.81818C3.88058 9.81818 3.63636 9.57396 3.63636 9.27273V8.54494C3.41571 8.37895 3.27273 8.11498 3.27273 7.81818C3.27273 7.31691 3.68055 6.90909 4.18182 6.90909C4.68309 6.90909 5.09091 7.31691 5.09091 7.81818C5.09091 8.11498 4.94793 8.37895 4.72727 8.54494ZM2.18182 3.09091C2.18182 1.98811 3.07902 1.09091 4.18182 1.09091C5.28462 1.09091 6.18182 1.98811 6.18182 3.09091V4.72727H2.18182V3.09091Z"
          fill="#FFEBFC"/>
</svg>
