<svg width="74" height="77" viewBox="0 0 74 77" fill="none" xmlns="http://www.w3.org/2000/svg">
<g id="Group 9054">
<path id="Vector" d="M6.18846 35.2316L12.0713 51.5531C13.3249 55.0309 15.7124 58.0063 18.9142 60.0813C22.1159 62.1563 25.9794 63.2319 29.9878 63.1643C30.1463 63.1618 30.2989 63.2045 30.4253 63.2868C30.5517 63.3691 30.6457 63.487 30.6948 63.6246L31.5877 66.102C31.9722 67.1779 32.6983 68.1043 33.6737 68.7635C34.6491 69.4227 35.8299 69.7851 37.0662 69.8047C38.3026 69.8242 39.5388 69.5001 40.6179 68.8734C41.6971 68.2466 42.5705 67.3456 43.1274 66.2845C43.2216 66.1059 43.3065 65.922 43.3815 65.7367C43.6806 66.0654 44.0856 66.2954 44.5425 66.3961C44.9994 66.4968 45.4865 66.4633 45.9391 66.3002C46.3916 66.1371 46.7881 65.8521 47.0757 65.483C47.3633 65.114 47.5284 64.6785 47.549 64.2345C48.6378 64.8195 49.914 65.0653 51.2028 64.9383C52.4915 64.8114 53.7299 64.3179 54.7483 63.5255C55.7667 62.733 56.5153 61.6803 56.8916 60.5115C57.268 59.3427 57.2537 58.1149 56.8507 56.9963L55.9577 54.519C55.9077 54.3817 55.9049 54.2309 55.9497 54.0869C55.9945 53.9429 56.0848 53.8126 56.2084 53.7135C59.3382 51.2082 61.627 47.9151 62.7687 44.2745C63.9105 40.634 63.8506 36.8197 62.5972 33.3418L56.7144 17.0203C55.2389 12.9266 52.0419 9.6428 47.8267 7.89133C43.6116 6.13986 38.7235 6.06418 34.2379 7.68095L17.538 13.7002C13.0524 15.317 9.33664 18.4937 7.20819 22.5317C5.07975 26.5696 4.71294 31.1379 6.18846 35.2316Z" fill="black"/>
<path id="Subtract" d="M7.67997 34.682L8.33444 36.4978L14.794 21.7219L15.4975 23.6736L9.03783 38.4493L9.57065 39.9276L16.0302 25.1517L16.7337 27.1034L10.2741 41.8791L11.425 45.0723L17.8846 30.2964L18.588 32.2481L12.1284 47.0238L13.2793 50.2169L19.7389 35.4411L20.4423 37.3928L14.049 52.0169C15.3459 54.5939 17.3429 56.7989 19.8702 58.4219C22.9484 60.3985 26.6665 61.4173 30.5272 61.342C30.6798 61.3392 30.8267 61.3796 30.9482 61.458C31.0697 61.5364 31.16 61.649 31.2068 61.7805L32.0602 64.1483C32.4286 65.1749 33.1253 66.0576 34.0622 66.6846C34.9991 67.3116 36.1341 67.6546 37.3234 67.6703C38.5127 67.6859 39.7028 67.3735 40.7431 66.7726C41.7835 66.1717 42.6272 65.3093 43.1674 64.2945C43.2586 64.1234 43.3408 63.9473 43.4135 63.7697C43.7008 64.0834 44.0902 64.3024 44.53 64.3975C44.9698 64.4926 45.439 64.4593 45.8753 64.3021C46.3116 64.1448 46.6942 63.8711 46.9722 63.5173C47.2501 63.1635 47.4103 62.7464 47.4313 62.3216C48.4786 62.8808 49.7082 63.1144 50.9514 62.9905C52.1946 62.8666 53.3905 62.3912 54.3748 61.6296C55.3592 60.8679 56.0838 59.8573 56.4491 58.7365C56.8145 57.6157 56.8027 56.4397 56.4154 55.3698L55.562 53.0021C55.5142 52.8708 55.5118 52.7266 55.5554 52.5887C55.5989 52.4509 55.6863 52.326 55.8056 52.2308C58.8266 49.8257 61.0397 46.6691 62.1489 43.1831C63.2582 39.6972 63.2107 36.0482 62.0128 32.7242L56.3903 17.1251C54.9801 13.2126 51.9098 10.0794 47.8548 8.415C43.7998 6.75056 39.0922 6.69114 34.7678 8.24981L18.668 14.0528C14.3435 15.6114 10.7565 18.6605 8.6958 22.5293C6.63516 26.398 6.26975 30.7695 7.67997 34.682Z" fill="url(#paint0_linear_1295_1907)"/>
<path id="Vector_2" d="M10.5952 33.3518L15.9208 48.1273C17.0558 51.2757 19.215 53.97 22.1097 55.8498C25.0044 57.7297 28.4965 58.7054 32.119 58.6464C32.2622 58.6442 32.4002 58.683 32.5144 58.7575C32.6287 58.8321 32.7137 58.9388 32.7581 59.0635L33.5665 61.3062C33.9146 62.2802 34.5713 63.119 35.4531 63.7162C36.335 64.3134 37.4023 64.6421 38.5197 64.6605C39.637 64.6789 40.754 64.3862 41.7289 63.8195C42.7038 63.2529 43.4927 62.4379 43.9954 61.4779C44.0804 61.3162 44.157 61.1499 44.2246 60.9821C44.4952 61.2798 44.8613 61.4882 45.2743 61.5796C45.6872 61.671 46.1275 61.641 46.5363 61.4936C46.9452 61.3462 47.3034 61.0885 47.5631 60.7547C47.8228 60.4208 47.9717 60.0267 47.9901 59.6249C48.9745 60.1549 50.1279 60.3781 51.2925 60.264C52.4571 60.1498 53.576 59.7039 54.4959 58.9872C55.4158 58.2705 56.0918 57.3181 56.4312 56.2605C56.7707 55.2028 56.7571 54.0916 56.3922 53.079L55.5839 50.8363C55.5386 50.712 55.5359 50.5755 55.5764 50.4452C55.6168 50.3149 55.6983 50.197 55.81 50.1074C58.637 47.8417 60.7037 44.8624 61.7334 41.568C62.7632 38.2737 62.7069 34.8214 61.5723 31.6729L56.2466 16.8974C54.9109 13.1914 52.0198 10.2175 48.2095 8.62995C44.3992 7.04237 39.9817 6.97113 35.9289 8.43192L20.84 13.8705C16.7872 15.3313 13.4309 18.2044 11.5097 21.8579C9.58839 25.5113 9.25945 29.6458 10.5952 33.3518Z" fill="black"/>
<path id="Vector_3" d="M11.5022 33.0938L16.7296 47.5966C17.8435 50.6869 19.9606 53.3323 22.7977 55.1789C25.6348 57.0256 29.0565 57.9854 32.6051 57.9301C32.7454 57.928 32.8806 57.9661 32.9926 58.0394C33.1046 58.1126 33.188 58.2174 33.2316 58.3397L34.025 60.5411C34.3667 61.4971 35.0105 62.3207 35.8748 62.9073C36.7392 63.494 37.785 63.8172 38.8796 63.836C39.9742 63.8548 41.0682 63.5684 42.0229 63.013C42.9776 62.4576 43.7498 61.6584 44.2416 60.7167C44.3248 60.5581 44.3997 60.3949 44.4659 60.2304C44.7311 60.5227 45.0899 60.7275 45.4946 60.8174C45.8992 60.9074 46.3304 60.8782 46.7309 60.7339C47.1313 60.5896 47.482 60.3369 47.7362 60.0094C47.9904 59.682 48.1361 59.2954 48.1538 58.9011C49.1184 59.4219 50.2485 59.6417 51.3894 59.5305C52.5302 59.4193 53.626 58.9824 54.5267 58.2798C55.4273 57.5771 56.0889 56.6431 56.4207 55.6054C56.7525 54.5678 56.7384 53.4774 56.3803 52.4834L55.5869 50.2821C55.5424 50.1601 55.5398 50.0262 55.5793 49.8983C55.6188 49.7705 55.6986 49.6549 55.8079 49.567C58.5758 47.3456 60.5984 44.4235 61.6049 41.1915C62.6114 37.9594 62.554 34.5717 61.4402 31.4813L56.2129 16.9785C54.9018 13.341 52.0676 10.4207 48.3338 8.86024C44.5999 7.29974 40.2723 7.22682 36.303 8.6575L21.5251 13.984C17.5558 15.4147 14.2698 18.2318 12.3902 21.8156C10.5105 25.3994 10.1911 29.4563 11.5022 33.0938Z" fill="url(#paint1_linear_1295_1907)"/>
<path id="Union" d="M27.5249 40.7861L27.5046 40.7737L27.483 40.7635L20.5424 37.5006C18.5942 36.5848 17.7586 34.2424 18.6886 32.2642C19.6185 30.2861 21.9554 29.4351 23.9035 30.351L27.3061 31.9506L27.7057 32.1385L27.8936 31.7389L29.4885 28.3463C30.4044 26.3982 32.7467 25.5625 34.7249 26.4925C36.7031 27.4225 37.554 29.7593 36.6381 31.7074L33.3302 38.7438L33.3226 38.7601L33.3163 38.7769C33.2781 38.8789 33.2354 38.9803 33.1882 39.0808C33.0248 39.4283 32.8183 39.7406 32.5785 40.0145L32.5784 40.0145L32.576 40.0174C31.4582 41.3163 29.5558 41.7666 27.9084 40.9921C27.7753 40.9296 27.6474 40.8607 27.5249 40.7861Z" fill="url(#paint2_linear_1295_1907)" stroke="black" stroke-width="0.883204"/>
<path id="Union_2" d="M50.1547 32.6295L50.1344 32.6171L50.1128 32.607L43.1722 29.344C41.224 28.4282 40.3884 26.0858 41.3184 24.1077C42.2484 22.1295 44.5852 21.2786 46.5333 22.1944L49.9359 23.794L50.3356 23.9819L50.5234 23.5823L52.1184 20.1897C53.0342 18.2416 55.3766 17.4059 57.3547 18.3359C59.3329 19.2659 60.1838 21.6027 59.268 23.5509L55.96 30.5872L55.9524 30.6035L55.9461 30.6203C55.9079 30.7223 55.8653 30.8237 55.818 30.9242C55.6546 31.2717 55.4481 31.584 55.2083 31.8579L55.2083 31.8579L55.2058 31.8608C54.0881 33.1597 52.1857 33.61 50.5382 32.8355C50.4051 32.773 50.2772 32.7041 50.1547 32.6295Z" fill="url(#paint3_linear_1295_1907)" stroke="black" stroke-width="0.883204"/>
<path id="Vector_4" d="M44.7844 40.1366L44.7843 40.1365C44.3611 39.7292 43.742 39.6509 43.186 39.8513C42.6299 40.0518 42.2031 40.507 42.1371 41.0907L42.1371 41.0908L41.7014 44.9283C41.6041 45.8466 42.5652 46.6096 43.6689 46.2118L46.8792 45.0547C47.4175 44.8607 47.7627 44.4559 47.8861 44.0263C48.0085 43.6002 47.9158 43.1487 47.5689 42.8144C47.5689 42.8144 47.5688 42.8143 47.5688 42.8143L44.7844 40.1366Z" fill="#1C1F20" stroke="#EE9EF0" stroke-width="0.745203"/>
</g>
<defs>
<linearGradient id="paint0_linear_1295_1907" x1="26.7179" y1="11.1513" x2="46.1091" y2="64.9508" gradientUnits="userSpaceOnUse">
<stop stop-color="#FF87E5"/>
<stop offset="1" stop-color="#875889"/>
</linearGradient>
<linearGradient id="paint1_linear_1295_1907" x1="28.9141" y1="11.3207" x2="46.9444" y2="61.3445" gradientUnits="userSpaceOnUse">
<stop stop-color="#FF88E5"/>
<stop offset="1" stop-color="#805584"/>
</linearGradient>
<linearGradient id="paint2_linear_1295_1907" x1="26.1602" y1="27.862" x2="31.0949" y2="41.5527" gradientUnits="userSpaceOnUse">
<stop stop-color="#EDB1EE"/>
<stop offset="1" stop-color="#EB65CD"/>
</linearGradient>
<linearGradient id="paint3_linear_1295_1907" x1="48.7901" y1="19.7055" x2="53.7247" y2="33.3962" gradientUnits="userSpaceOnUse">
<stop stop-color="#EDB1EE"/>
<stop offset="1" stop-color="#EB65CD"/>
</linearGradient>
</defs>
</svg>
