<svg width="168" height="32" viewBox="0 0 168 32" fill="none" xmlns="http://www.w3.org/2000/svg">
<g id="Group 24434">
<g id="Group 24442">
<g id="Stake">
<path d="M61.7758 26.8284V23.0769H66.3498V25.3363L67.8745 26.9563H76.6214L78.2263 25.2511V19.7516L76.6615 18.089H65.9887L61.856 13.7405V5.7684L65.9887 1.37733H78.3467L82.4794 5.7684V9.56261H77.9053V7.2605L76.3405 5.6405H67.9949L66.4301 7.2605V12.2058L67.9949 13.8258H78.6677L82.8004 18.2168V26.7432L78.5874 31.2195H65.9085L61.7758 26.8284Z" fill="url(#paint0_linear_1396_61)"/>
<path d="M88.8245 26.999V14.0816H85.2134V9.98893H88.9048V3.0826H93.3585V9.98893H99.4973V14.0816H93.3585V25.4642L94.9233 27.1269H99.4973V31.2195H92.7967L88.8245 26.999Z" fill="url(#paint1_linear_1396_61)"/>
<path d="M102.717 27.4253V22.3948L106.288 18.6432H116.6V15.4884L115.115 13.911H108.816L107.331 15.4884V16.8526H102.878V14.38L106.97 9.98893H116.961L121.054 14.38V31.2195H116.921V27.9369L113.711 31.2195H106.288L102.717 27.4253ZM113.27 27.4253L116.6 24.0148V22.2242H108.455L107.171 23.5458V26.1463L108.375 27.4253H113.27Z" fill="url(#paint2_linear_1396_61)"/>
<path d="M126.084 0.780487H130.618V18.1316H134.51L139.847 9.98893H144.862L138.161 20.2205L145.263 31.2195H140.248L134.43 22.2242H130.618V31.2195H126.084V0.780487Z" fill="url(#paint3_linear_1396_61)"/>
<path d="M146.842 26.999V14.2521L150.814 9.98893H161.687L165.74 14.2521V22.1816H151.376V25.5921L152.9 27.2121H159.762L161.206 25.6348V24.3558H165.7V27.0842L161.808 31.2195H150.774L146.842 26.999ZM161.206 18.6432V15.7016L159.641 13.9963H152.941L151.376 15.7016V18.6432H161.206Z" fill="url(#paint4_linear_1396_61)"/>
</g>
<path id="Stake (Stroke)" fill-rule="evenodd" clip-rule="evenodd" d="M62.5291 27.146V22.2964H68.6099V25.0188L69.6989 26.1759H77.8105L78.9797 24.9335V20.0691L77.8506 18.8694H67.18L62.6094 14.0603V5.45087L67.1778 0.596843H80.1711L84.7395 5.45087V10.3431H78.6587V7.58395L77.5354 6.42099H69.8135L68.6902 7.58395V11.8823L69.8135 13.0453H80.4921L85.0605 17.8993V27.0607L80.4118 32H67.0976L62.5291 27.146ZM69.5016 13.8258L67.9368 12.2058V7.2605L69.5016 5.6405H77.8473L79.4121 7.2605V9.56262H83.9861V5.7684L79.8534 1.37733H67.4955L63.3628 5.7684V13.7405L67.4955 18.089H78.1682L79.7331 19.7516V25.2511L78.1281 26.9563H69.3812L67.8566 25.3363V23.0769H63.2825V26.8284L67.4152 31.2195H80.0942L84.3071 26.7432V18.2168L80.1744 13.8258H69.5016ZM89.5779 27.3165V14.8621H85.9668V9.20844H89.6581V2.30211H95.6185V9.20844H101.757V14.8621H95.6185V25.1467L96.7476 26.3464H101.757V32H93.9858L89.5779 27.3165ZM96.43 27.1269L94.8652 25.4642V14.0816H101.004V9.98893H94.8652V3.0826H90.4115V9.98893H86.7201V14.0816H90.3312V26.999L94.3034 31.2195H101.004V27.1269H96.43ZM103.471 27.7428V22.0747L107.48 17.8627H117.353V15.8059L116.304 14.6915H110.64L109.591 15.8059V17.6331H103.631V14.0647L108.157 9.20844H118.788L123.314 14.0647V32H117.674V29.804L115.527 32H107.477L103.471 27.7428ZM118.428 27.9369V31.2195H122.56V14.38L118.468 9.98893H108.477L104.384 14.38V16.8526H108.838V15.4884L110.323 13.911H116.622L118.107 15.4884V18.6432H107.795L104.224 22.3948V27.4253L107.795 31.2195H115.218L118.428 27.9369ZM126.838 0H132.878V17.3511H135.618L140.954 9.20844H147.79L140.577 20.2236L148.18 32H141.353L135.535 23.0047H132.878V32H126.838V0ZM132.125 22.2242H135.937L141.755 31.2195H146.77L139.668 20.2205L146.369 9.98893H141.353L136.017 18.1316H132.125V0.780488H127.591V31.2195H132.125V22.2242ZM147.595 27.3142V13.9369L152.001 9.20844H163.51L168 13.9323V22.9621H153.636V25.2746L154.725 26.4316H160.945L161.959 25.3234V23.5753H167.96V27.4018L163.632 32H151.961L147.595 27.3142ZM162.713 25.6348L161.268 27.2121H154.407L152.883 25.5921V22.1816H167.247V14.2521L163.194 9.98893H152.321L148.349 14.2521V26.999L152.281 31.2195H163.315L167.207 27.0842V24.3558H162.713V25.6348ZM117.353 23.6888L114.467 26.6448H110.199L109.431 25.8288V23.8706L110.272 23.0047H117.353V23.6888ZM109.962 22.2242L108.678 23.5458V26.1463L109.881 27.4253H114.776L118.107 24.0148V22.2242H109.962ZM161.959 16.0134L160.825 14.7768H154.771L153.636 16.0134V17.8627H161.959V16.0134ZM162.713 15.7016L161.148 13.9963H154.447L152.883 15.7016V18.6432H162.713V15.7016Z" fill="#123378"/>
</g>
<g id="Group 24441">
<g id="LP">
<path d="M0.717499 2.26713H6.06193V25.6584H19.816V30.2567H0.717499V2.26713Z" fill="url(#paint5_linear_1396_61)"/>
<path d="M22.7455 2.26713H39.997L44.2018 6.58552V16.3819L39.9577 20.7402H28.0899V30.2567H22.7455V2.26713ZM37.5606 16.1819L38.936 14.7825V8.22491L37.5606 6.82543H28.0899V16.1819H37.5606Z" fill="url(#paint6_linear_1396_61)"/>
</g>
<path id="LP (Stroke)" fill-rule="evenodd" clip-rule="evenodd" d="M0 0.780487H7.21625V25.4053H21.4321V32H0V0.780487ZM6.37007 26.2823V1.65744H0.846183V31.123H20.586V26.2823H6.37007ZM22.7676 0.780487H41.7974L46.6368 5.8427V16.8774L41.7568 21.9817H29.9839V32H22.7676V0.780487ZM29.1377 21.1047H41.404L45.7906 16.5165V6.20356L41.4446 1.65744H23.6138V31.123H29.1377V21.1047ZM39.5018 14.4695L38.5758 15.4291H29.9839V7.33308H38.5758L39.5018 8.29265V14.4695ZM40.3479 7.92941V14.8328L38.9263 16.3061H29.1377V6.45612H38.9263L40.3479 7.92941Z" fill="#123378"/>
</g>
</g>
<defs>
<linearGradient id="paint0_linear_1396_61" x1="113.758" y1="0.780487" x2="113.758" y2="31.2195" gradientUnits="userSpaceOnUse">
<stop stop-color="#FB5FCF"/>
<stop offset="1" stop-color="#FB5FCF" stop-opacity="0"/>
</linearGradient>
<linearGradient id="paint1_linear_1396_61" x1="113.758" y1="0.780487" x2="113.758" y2="31.2195" gradientUnits="userSpaceOnUse">
<stop stop-color="#FB5FCF"/>
<stop offset="1" stop-color="#FB5FCF" stop-opacity="0"/>
</linearGradient>
<linearGradient id="paint2_linear_1396_61" x1="113.758" y1="0.780487" x2="113.758" y2="31.2195" gradientUnits="userSpaceOnUse">
<stop stop-color="#FB5FCF"/>
<stop offset="1" stop-color="#FB5FCF" stop-opacity="0"/>
</linearGradient>
<linearGradient id="paint3_linear_1396_61" x1="113.758" y1="0.780487" x2="113.758" y2="31.2195" gradientUnits="userSpaceOnUse">
<stop stop-color="#FB5FCF"/>
<stop offset="1" stop-color="#FB5FCF" stop-opacity="0"/>
</linearGradient>
<linearGradient id="paint4_linear_1396_61" x1="113.758" y1="0.780487" x2="113.758" y2="31.2195" gradientUnits="userSpaceOnUse">
<stop stop-color="#FB5FCF"/>
<stop offset="1" stop-color="#FB5FCF" stop-opacity="0"/>
</linearGradient>
<linearGradient id="paint5_linear_1396_61" x1="21.9053" y1="-8.89539" x2="21.9053" y2="42.752" gradientUnits="userSpaceOnUse">
<stop stop-color="#FB5FCF"/>
<stop offset="1" stop-color="#FB5FCF" stop-opacity="0"/>
</linearGradient>
<linearGradient id="paint6_linear_1396_61" x1="21.9053" y1="-8.89539" x2="21.9053" y2="42.752" gradientUnits="userSpaceOnUse">
<stop stop-color="#FB5FCF"/>
<stop offset="1" stop-color="#FB5FCF" stop-opacity="0"/>
</linearGradient>
</defs>
</svg>
