<svg width="278" height="49" viewBox="0 0 278 49" fill="none" xmlns="http://www.w3.org/2000/svg">
<path d="M0 31.6996V28.5408H3.69923V30.4657L6.06673 32.8841H17.9043L20.3704 30.367V22.618L17.9043 20.1996H4.63637L0.0986461 15.6588V6.23176L4.63637 1.69099H19.1373L23.6751 6.23176V9.43991H20.0252V7.46567L17.559 5.04721H6.26403L3.79787 7.46567V14.4249L6.26403 16.8433H19.5319L24.0696 21.3841V31.6009L19.4333 36.2403H4.53772L0 31.6996Z" fill="url(#paint0_linear_1306_2058)"/>
<path d="M30.4955 6.03433V3.86266L31.9752 2.38197H34.1454L35.6251 3.86266V6.03433L34.1454 7.51502H31.9752L30.4955 6.03433ZM31.2354 11.6609H34.8853V36.2403H31.2354V11.6609Z" fill="url(#paint1_linear_1306_2058)"/>
<path d="M42.7839 11.6609H46.3351V16.8927L51.5634 11.6609H59.1098L63.6475 16.2017V36.2403H59.9976V17.3369L57.5315 14.9185H52.5498L46.4338 21.0386V36.2403H42.7839V11.6609Z" fill="url(#paint2_linear_1306_2058)"/>
<path d="M92.026 11.6609V42.5086L87.5376 47H75.3548L71.5569 43.1996V40.1888H75.2068V42.015L76.9331 43.7425H85.9099L88.3761 41.324V32.1438L83.8384 36.2403H74.8616L70.3239 31.6996V16.2017L74.8616 11.6609H84.1836L88.4747 15.9549V11.6609H92.026ZM88.3761 20.1009L83.1972 14.9185H76.4399L73.9738 17.3369V30.5644L76.4399 32.9828H83.2465L88.3761 28.1953V20.1009Z" fill="url(#paint3_linear_1306_2058)"/>
<path d="M99.6749 1H103.325V36.2403H99.6749V1Z" fill="url(#paint4_linear_1306_2058)"/>
<path d="M110.495 31.6996V16.2017L115.033 11.6609H127.413L132 16.2017V25.0365H114.145V30.5644L116.611 32.9828H125.835L128.301 30.5644V28.6888H131.951V31.6996L127.413 36.2403H115.033L110.495 31.6996ZM128.35 21.8777V17.3369L125.884 14.9185H116.611L114.145 17.3369V21.8777H128.35Z" fill="url(#paint5_linear_1306_2058)"/>
<path fill-rule="evenodd" clip-rule="evenodd" d="M0 32.8112V27.6865H6.45181V30.4373L8.02807 32.0529H18.7349L20.4097 30.3377V23.6898L18.751 22.0577H5.44943L0.0988362 16.6855V6.06682L5.44943 0.694644H21.1156L26.4662 6.06682V11.2411H20.0638V8.45722L18.4051 6.82516H8.20933L6.55065 8.45722V14.2951L8.20933 15.9272H21.5109L26.8615 21.2994V32.712L21.4121 38.1834H5.35059L0 32.8112ZM7.64883 17.3055L5.17792 14.8742V7.87815L7.64883 5.4469H18.9656L21.4365 7.87815V9.86285H25.0934V6.63771L20.547 2.07291H6.01803L1.47156 6.63771V16.1146L6.01803 20.6795H19.3115L21.7824 23.1107V30.9007L19.3115 33.4311H7.45116L5.07909 30.9999V29.0648H1.37273V32.2403L5.9192 36.8051H20.8435L25.4888 32.1411V21.8703L20.9423 17.3055H7.64883ZM30.5543 7.01014V3.68518L32.841 1.38929H36.1526L38.4393 3.68518V7.01014L36.1526 9.30603H32.841L30.5543 7.01014ZM31.2956 10.7174H37.698V38.1834H31.2956V10.7174ZM42.8664 10.7174H49.1699V14.0277L52.4669 10.7174H61.1651L66.5157 16.0895V38.1834H60.1133V18.3807L58.4546 16.7487H54.5925L49.2688 22.0938V38.1834H42.8664V10.7174ZM47.896 21.523L54.0239 15.3704H59.0151L61.486 17.8016V36.8051H65.143V16.6604L60.5965 12.0956H53.0355L47.7972 17.3551V12.0956H44.2391V36.8051H47.896V21.523ZM94.9489 10.7174V43.6774L89.6477 49H76.3042L71.6949 44.3721V39.3963H78.0973V42.0395L79.0228 42.9687H86.8878L88.5465 41.3367V35.7866L85.9005 38.1834H75.8101L70.4595 32.8112V16.0895L75.8101 10.7174H86.2873L88.6453 13.0849V10.7174H94.9489ZM90.0181 16.4124L85.7187 12.0956H76.3787L71.8322 16.6604V32.2403L76.3787 36.8051H85.3728L89.9192 32.6869V41.9157L87.4483 44.347H78.4542L76.7246 42.6104V40.7745H73.0676V43.8012L76.8728 47.6217H89.0791L93.5762 43.1065V12.0956H90.0181V16.4124ZM84.7303 15.3704H77.96L75.4891 17.8016V31.0991L77.96 33.5304H84.7797L89.9192 28.7175V20.5802L84.7303 15.3704ZM88.5465 21.1511L84.1617 16.7487H78.5205L76.8619 18.3807V30.5201L78.5205 32.1521H84.2389L88.5465 28.1183V21.1511ZM99.8671 0H106.27V38.1834H99.8671V0ZM110.708 32.8112V16.0895L116.059 10.7174H129.596L135 16.0852V26.9202H117.111V30.5201L118.769 32.1521H126.89L128.548 30.5201V27.8354H134.951V32.8112L129.6 38.1834H116.059L110.708 32.8112ZM129.921 31.0991L127.45 33.5304H118.209L115.738 31.0991V25.542H133.627V16.6604L129.031 12.0956H116.627L112.081 16.6604V32.2403L116.627 36.8051H129.031L133.578 32.2403V29.2137H129.921V31.0991ZM128.598 18.3807L126.939 16.7487H118.769L117.111 18.3807V20.9882H128.598V18.3807ZM129.97 17.8016L127.499 15.3704H118.209L115.738 17.8016V22.3664H129.97V17.8016ZM31.927 4.25608V6.43924L33.4096 7.92777H35.584L37.0665 6.43924V4.25608L35.584 2.76755H33.4096L31.927 4.25608ZM32.6683 12.0956V36.8051H36.3253V12.0956H32.6683ZM101.24 1.37826V36.8051H104.897V1.37826H101.24Z" fill="#123378"/>
<path d="M137 34.374V29.5672H143.072V32.4622L145.095 34.5378H156.706L158.836 32.3529V25.3067L156.759 23.1765H142.592L137.107 17.605V7.39076L142.592 1.76471H158.996L164.482 7.39076V12.2521H158.41V9.30252L156.333 7.22689H145.255L143.178 9.30252V15.6387L145.255 17.7143H159.422L164.908 23.3403V34.2647L159.315 40H142.486L137 34.374Z" fill="url(#paint6_linear_1306_2058)"/>
<path d="M172.904 34.5924V18.042H168.111V12.7983H173.01V3.94958H178.922V12.7983H187.071V18.042H178.922V32.6261L180.999 34.7563H187.071V40H178.177L172.904 34.5924Z" fill="url(#paint7_linear_1306_2058)"/>
<path d="M191.345 35.1387V28.6933L196.085 23.8866H209.772V19.8445L207.802 17.8235H199.44L197.47 19.8445V21.5924H191.558V18.4244L196.99 12.7983H210.252L215.684 18.4244V40H210.199V35.7941L205.938 40H196.085L191.345 35.1387ZM205.352 35.1387L209.772 30.7689V28.4748H198.961L197.257 30.1681V33.5L198.854 35.1387H205.352Z" fill="url(#paint8_linear_1306_2058)"/>
<path d="M222.362 1H228.38V23.2311H233.546L240.63 12.7983H247.287L238.393 25.9076L247.82 40H241.162L233.44 28.4748H228.38V40H222.362V1Z" fill="url(#paint9_linear_1306_2058)"/>
<path d="M249.915 34.5924V18.2605L255.188 12.7983H269.621L275 18.2605V28.4202H255.933V32.7899L257.957 34.8655H267.064L268.982 32.8445V31.2059H274.947V34.7017L269.781 40H255.134L249.915 34.5924ZM268.982 23.8866V20.1176L266.905 17.9328H258.01L255.933 20.1176V23.8866H268.982Z" fill="url(#paint10_linear_1306_2058)"/>
<path fill-rule="evenodd" clip-rule="evenodd" d="M138 34.7808V28.5672H146.072V32.0554L147.517 33.5378H158.284L159.836 31.9461V25.7136L158.337 24.1765H144.173L138.107 18.0147V6.98393L144.171 0.764706H161.418L167.482 6.98393V13.2521H159.41V9.71694L157.919 8.22689H147.669L146.178 9.71694V15.2242L147.669 16.7143H161.844L167.908 22.9335V34.6715L161.737 41H144.064L138 34.7808ZM147.255 17.7143L145.178 15.6387V9.30252L147.255 7.22689H158.333L160.41 9.30252V12.2521H166.482V7.39076L160.996 1.76471H144.592L139.107 7.39076V17.605L144.592 23.1765H158.759L160.836 25.3067V32.3529L158.706 34.5378H147.095L145.072 32.4622V29.5672H139V34.374L144.486 40H161.315L166.908 34.2647V23.3403L161.422 17.7143H147.255ZM173.904 34.9993V19.042H169.111V11.7983H174.01V2.94958H181.922V11.7983H190.071V19.042H181.922V32.2192L183.421 33.7563H190.071V41H179.755L173.904 34.9993ZM182.999 34.7563L180.922 32.6261V18.042H189.071V12.7983H180.922V3.94958H175.01V12.7983H170.111V18.042H174.904V34.5924L180.177 40H189.071V34.7563H182.999ZM192.345 35.5455V28.2831L197.667 22.8866H210.772V20.2514L209.38 18.8235H201.862L200.47 20.2514V22.5924H192.558V18.0204L198.566 11.7983H212.676L218.684 18.0204V41H211.199V38.1864L208.348 41H197.663L192.345 35.5455ZM212.199 35.7941V40H217.684V18.4244L212.252 12.7983H198.99L193.558 18.4244V21.5924H199.47V19.8445L201.44 17.8235H209.802L211.772 19.8445V23.8866H198.085L193.345 28.6933V35.1387L198.085 40H207.938L212.199 35.7941ZM223.362 0H231.38V22.2311H235.017L242.1 11.7983H251.174L241.599 25.9115L251.692 41H242.629L234.906 29.4748H231.38V41H223.362V0ZM230.38 28.4748H235.44L243.162 40H249.82L240.393 25.9076L249.287 12.7983H242.63L235.546 23.2311H230.38V1H224.362V40H230.38V28.4748ZM250.915 34.9963V17.8566L256.763 11.7983H272.04L278 17.8508V29.4202H258.933V32.3831L260.379 33.8655H268.635L269.982 32.4457V30.2059H277.947V35.1085L272.202 41H256.71L250.915 34.9963ZM270.982 32.8445L269.064 34.8655H259.957L257.933 32.7899V28.4202H277V18.2605L271.621 12.7983H257.188L251.915 18.2605V34.5924L257.134 40H271.781L276.947 34.7017V31.2059H270.982V32.8445ZM210.772 30.3513L206.941 34.1387H201.276L200.257 33.0932V30.5842L201.373 29.4748H210.772V30.3513ZM200.961 28.4748L199.257 30.1681V33.5L200.854 35.1387H207.352L211.772 30.7689V28.4748H200.961ZM269.982 20.5171L268.476 18.9328H260.44L258.933 20.5171V22.8866H269.982V20.5171ZM270.982 20.1176L268.905 17.9328H260.01L257.933 20.1176V23.8866H270.982V20.1176Z" fill="#123378"/>
<defs>
<linearGradient id="paint0_linear_1306_2058" x1="66" y1="1" x2="66" y2="47" gradientUnits="userSpaceOnUse">
<stop stop-color="#FB5FCF"/>
<stop offset="1" stop-color="#FB5FCF" stop-opacity="0"/>
</linearGradient>
<linearGradient id="paint1_linear_1306_2058" x1="66" y1="1" x2="66" y2="47" gradientUnits="userSpaceOnUse">
<stop stop-color="#FB5FCF"/>
<stop offset="1" stop-color="#FB5FCF" stop-opacity="0"/>
</linearGradient>
<linearGradient id="paint2_linear_1306_2058" x1="66" y1="1" x2="66" y2="47" gradientUnits="userSpaceOnUse">
<stop stop-color="#FB5FCF"/>
<stop offset="1" stop-color="#FB5FCF" stop-opacity="0"/>
</linearGradient>
<linearGradient id="paint3_linear_1306_2058" x1="66" y1="1" x2="66" y2="47" gradientUnits="userSpaceOnUse">
<stop stop-color="#FB5FCF"/>
<stop offset="1" stop-color="#FB5FCF" stop-opacity="0"/>
</linearGradient>
<linearGradient id="paint4_linear_1306_2058" x1="66" y1="1" x2="66" y2="47" gradientUnits="userSpaceOnUse">
<stop stop-color="#FB5FCF"/>
<stop offset="1" stop-color="#FB5FCF" stop-opacity="0"/>
</linearGradient>
<linearGradient id="paint5_linear_1306_2058" x1="66" y1="1" x2="66" y2="47" gradientUnits="userSpaceOnUse">
<stop stop-color="#FB5FCF"/>
<stop offset="1" stop-color="#FB5FCF" stop-opacity="0"/>
</linearGradient>
<linearGradient id="paint6_linear_1306_2058" x1="206" y1="1" x2="206" y2="40" gradientUnits="userSpaceOnUse">
<stop stop-color="#FB5FCF"/>
<stop offset="1" stop-color="#FB5FCF" stop-opacity="0"/>
</linearGradient>
<linearGradient id="paint7_linear_1306_2058" x1="206" y1="1" x2="206" y2="40" gradientUnits="userSpaceOnUse">
<stop stop-color="#FB5FCF"/>
<stop offset="1" stop-color="#FB5FCF" stop-opacity="0"/>
</linearGradient>
<linearGradient id="paint8_linear_1306_2058" x1="206" y1="1" x2="206" y2="40" gradientUnits="userSpaceOnUse">
<stop stop-color="#FB5FCF"/>
<stop offset="1" stop-color="#FB5FCF" stop-opacity="0"/>
</linearGradient>
<linearGradient id="paint9_linear_1306_2058" x1="206" y1="1" x2="206" y2="40" gradientUnits="userSpaceOnUse">
<stop stop-color="#FB5FCF"/>
<stop offset="1" stop-color="#FB5FCF" stop-opacity="0"/>
</linearGradient>
<linearGradient id="paint10_linear_1306_2058" x1="206" y1="1" x2="206" y2="40" gradientUnits="userSpaceOnUse">
<stop stop-color="#FB5FCF"/>
<stop offset="1" stop-color="#FB5FCF" stop-opacity="0"/>
</linearGradient>
</defs>
</svg>
