<svg width="16" height="13" viewBox="0 0 16 13" fill="none" xmlns="http://www.w3.org/2000/svg">
    <path fill-rule="evenodd" clip-rule="evenodd"
          d="M15.1591 0H0.522727C0.272341 0 0 0.2605 0 0.5V4C0 4.552 0.468364 5 1.04545 5C1.62255 5 2.09091 4.552 2.09091 4V2H13.5909V4C13.5909 4.552 14.0593 5 14.6364 5C15.2135 5 15.6818 4.552 15.6818 4V0.5C15.6818 0.229 15.4748 0 15.1591 0ZM9.93182 9H8.88636V4.5C8.88636 3.948 8.418 3.5 7.84091 3.5C7.26382 3.5 6.79545 3.948 6.79545 4.5V9H5.75C5.54509 9 5.07307 8.95249 4.86816 9.14999C4.66325 9.34649 4.66325 9.66601 4.86816 9.86301L7.45148 12.8585C7.56073 12.9635 7.70604 13.0085 7.84927 13.001C7.9925 13.0085 8.1373 12.9635 8.24655 12.8585L10.8299 9.86301C11.0348 9.66601 11.0348 9.34649 10.8299 9.14999C10.625 8.95249 10.3003 9 9.93182 9Z"
          fill="#08091A"/>
</svg>
