<svg width="780" height="176" viewBox="0 0 780 176" fill="none" xmlns="http://www.w3.org/2000/svg">
<path fill-rule="evenodd" clip-rule="evenodd" d="M0 0H58.3546V58.8762H0V0ZM0.623003 0.628571V58.2476H57.7316V0.628571H0.623003Z" fill="url(#paint0_linear_1802_630)"/>
<path fill-rule="evenodd" clip-rule="evenodd" d="M0 29.1238H58.3546V88H0V29.1238ZM0.623003 29.7524V87.3714H57.7316V29.7524H0.623003Z" fill="url(#paint1_linear_1802_630)"/>
<path fill-rule="evenodd" clip-rule="evenodd" d="M28.8658 0H87.2204V58.8762H28.8658V0ZM29.4888 0.628571V58.2476H86.5974V0.628571H29.4888Z" fill="url(#paint2_linear_1802_630)"/>
<path fill-rule="evenodd" clip-rule="evenodd" d="M28.8658 29.1238H87.2204V88H28.8658V29.1238ZM29.4888 29.7524V87.3714H86.5974V29.7524H29.4888Z" fill="url(#paint3_linear_1802_630)"/>
<path fill-rule="evenodd" clip-rule="evenodd" d="M86.5974 0H144.952V58.8762H86.5974V0ZM87.2204 0.628571V58.2476H144.329V0.628571H87.2204Z" fill="url(#paint4_linear_1802_630)"/>
<path fill-rule="evenodd" clip-rule="evenodd" d="M86.5974 29.1238H144.952V88H86.5974V29.1238ZM87.2204 29.7524V87.3714H144.329V29.7524H87.2204Z" fill="url(#paint5_linear_1802_630)"/>
<path fill-rule="evenodd" clip-rule="evenodd" d="M115.463 0H173.818V58.8762H115.463V0ZM116.086 0.628571V58.2476H173.195V0.628571H116.086Z" fill="url(#paint6_linear_1802_630)"/>
<path fill-rule="evenodd" clip-rule="evenodd" d="M115.463 29.1238H173.818V88H115.463V29.1238ZM116.086 29.7524V87.3714H173.195V29.7524H116.086Z" fill="url(#paint7_linear_1802_630)"/>
<path fill-rule="evenodd" clip-rule="evenodd" d="M173.195 0H231.55V58.8762H173.195V0ZM173.818 0.628571V58.2476H230.927V0.628571H173.818Z" fill="url(#paint8_linear_1802_630)"/>
<path fill-rule="evenodd" clip-rule="evenodd" d="M173.195 29.1238H231.55V88H173.195V29.1238ZM173.818 29.7524V87.3714H230.927V29.7524H173.818Z" fill="url(#paint9_linear_1802_630)"/>
<path fill-rule="evenodd" clip-rule="evenodd" d="M202.061 0H260.415V58.8762H202.061V0ZM202.684 0.628571V58.2476H259.792V0.628571H202.684Z" fill="url(#paint10_linear_1802_630)"/>
<path fill-rule="evenodd" clip-rule="evenodd" d="M202.061 29.1238H260.415V88H202.061V29.1238ZM202.684 29.7524V87.3714H259.792V29.7524H202.684Z" fill="url(#paint11_linear_1802_630)"/>
<path fill-rule="evenodd" clip-rule="evenodd" d="M259.792 0H318.147V58.8762H259.792V0ZM260.415 0.628571V58.2476H317.524V0.628571H260.415Z" fill="url(#paint12_linear_1802_630)"/>
<path fill-rule="evenodd" clip-rule="evenodd" d="M259.792 29.1238H318.147V88H259.792V29.1238ZM260.415 29.7524V87.3714H317.524V29.7524H260.415Z" fill="url(#paint13_linear_1802_630)"/>
<path fill-rule="evenodd" clip-rule="evenodd" d="M288.658 0H347.013V58.8762H288.658V0ZM289.281 0.628571V58.2476H346.39V0.628571H289.281Z" fill="url(#paint14_linear_1802_630)"/>
<path fill-rule="evenodd" clip-rule="evenodd" d="M288.658 29.1238H347.013V88H288.658V29.1238ZM289.281 29.7524V87.3714H346.39V29.7524H289.281Z" fill="url(#paint15_linear_1802_630)"/>
<path fill-rule="evenodd" clip-rule="evenodd" d="M346.39 0H404.744V58.8762H346.39V0ZM347.013 0.628571V58.2476H404.121V0.628571H347.013Z" fill="url(#paint16_linear_1802_630)"/>
<path fill-rule="evenodd" clip-rule="evenodd" d="M346.39 29.1238H404.744V88H346.39V29.1238ZM347.013 29.7524V87.3714H404.121V29.7524H347.013Z" fill="url(#paint17_linear_1802_630)"/>
<path fill-rule="evenodd" clip-rule="evenodd" d="M375.256 0H433.61V58.8762H375.256V0ZM375.879 0.628571V58.2476H432.987V0.628571H375.879Z" fill="url(#paint18_linear_1802_630)"/>
<path fill-rule="evenodd" clip-rule="evenodd" d="M375.256 29.1238H433.61V88H375.256V29.1238ZM375.879 29.7524V87.3714H432.987V29.7524H375.879Z" fill="url(#paint19_linear_1802_630)"/>
<path fill-rule="evenodd" clip-rule="evenodd" d="M432.987 0H491.342V58.8762H432.987V0ZM433.61 0.628571V58.2476H490.719V0.628571H433.61Z" fill="url(#paint20_linear_1802_630)"/>
<path fill-rule="evenodd" clip-rule="evenodd" d="M432.987 29.1238H491.342V88H432.987V29.1238ZM433.61 29.7524V87.3714H490.719V29.7524H433.61Z" fill="url(#paint21_linear_1802_630)"/>
<path fill-rule="evenodd" clip-rule="evenodd" d="M461.853 0H520.208V58.8762H461.853V0ZM462.476 0.628571V58.2476H519.585V0.628571H462.476Z" fill="url(#paint22_linear_1802_630)"/>
<path fill-rule="evenodd" clip-rule="evenodd" d="M461.853 29.1238H520.208V88H461.853V29.1238ZM462.476 29.7524V87.3714H519.585V29.7524H462.476Z" fill="url(#paint23_linear_1802_630)"/>
<path fill-rule="evenodd" clip-rule="evenodd" d="M519.585 0H577.939V58.8762H519.585V0ZM520.208 0.628571V58.2476H577.316V0.628571H520.208Z" fill="url(#paint24_linear_1802_630)"/>
<path fill-rule="evenodd" clip-rule="evenodd" d="M519.585 29.1238H577.939V88H519.585V29.1238ZM520.208 29.7524V87.3714H577.316V29.7524H520.208Z" fill="url(#paint25_linear_1802_630)"/>
<path fill-rule="evenodd" clip-rule="evenodd" d="M548.45 0H606.805V58.8762H548.45V0ZM549.073 0.628571V58.2476H606.182V0.628571H549.073Z" fill="url(#paint26_linear_1802_630)"/>
<path fill-rule="evenodd" clip-rule="evenodd" d="M548.45 29.1238H606.805V88H548.45V29.1238ZM549.073 29.7524V87.3714H606.182V29.7524H549.073Z" fill="url(#paint27_linear_1802_630)"/>
<path fill-rule="evenodd" clip-rule="evenodd" d="M606.182 0H664.537V58.8762H606.182V0ZM606.805 0.628571V58.2476H663.914V0.628571H606.805Z" fill="url(#paint28_linear_1802_630)"/>
<path fill-rule="evenodd" clip-rule="evenodd" d="M606.182 29.1238H664.537V88H606.182V29.1238ZM606.805 29.7524V87.3714H663.914V29.7524H606.805Z" fill="url(#paint29_linear_1802_630)"/>
<path fill-rule="evenodd" clip-rule="evenodd" d="M635.048 0H693.403V58.8762H635.048V0ZM635.671 0.628571V58.2476H692.78V0.628571H635.671Z" fill="url(#paint30_linear_1802_630)"/>
<path fill-rule="evenodd" clip-rule="evenodd" d="M635.048 29.1238H693.403V88H635.048V29.1238ZM635.671 29.7524V87.3714H692.78V29.7524H635.671Z" fill="url(#paint31_linear_1802_630)"/>
<path fill-rule="evenodd" clip-rule="evenodd" d="M692.78 0H751.134V58.8762H692.78V0ZM693.403 0.628571V58.2476H750.511V0.628571H693.403Z" fill="url(#paint32_linear_1802_630)"/>
<path fill-rule="evenodd" clip-rule="evenodd" d="M692.78 29.1238H751.134V88H692.78V29.1238ZM693.403 29.7524V87.3714H750.511V29.7524H693.403Z" fill="url(#paint33_linear_1802_630)"/>
<path fill-rule="evenodd" clip-rule="evenodd" d="M721.645 0H780V58.8762H721.645V0ZM722.268 0.628571V58.2476H779.377V0.628571H722.268Z" fill="url(#paint34_linear_1802_630)"/>
<path fill-rule="evenodd" clip-rule="evenodd" d="M721.645 29.1238H780V88H721.645V29.1238ZM722.268 29.7524V87.3714H779.377V29.7524H722.268Z" fill="url(#paint35_linear_1802_630)"/>
<path fill-rule="evenodd" clip-rule="evenodd" d="M0 175.5H58.3546V116.624H0V175.5ZM0.623003 174.871V117.252H57.7316V174.871H0.623003Z" fill="url(#paint36_linear_1802_630)"/>
<path fill-rule="evenodd" clip-rule="evenodd" d="M0 146.376H58.3546V87.5H0V146.376ZM0.623003 145.748V88.1286H57.7316V145.748H0.623003Z" fill="url(#paint37_linear_1802_630)"/>
<path fill-rule="evenodd" clip-rule="evenodd" d="M28.8658 175.5H87.2204V116.624H28.8658V175.5ZM29.4888 174.871V117.252H86.5974V174.871H29.4888Z" fill="url(#paint38_linear_1802_630)"/>
<path fill-rule="evenodd" clip-rule="evenodd" d="M28.8658 146.376H87.2204V87.5H28.8658V146.376ZM29.4888 145.748V88.1286H86.5974V145.748H29.4888Z" fill="url(#paint39_linear_1802_630)"/>
<path fill-rule="evenodd" clip-rule="evenodd" d="M86.5974 175.5H144.952V116.624H86.5974V175.5ZM87.2204 174.871V117.252H144.329V174.871H87.2204Z" fill="url(#paint40_linear_1802_630)"/>
<path fill-rule="evenodd" clip-rule="evenodd" d="M86.5974 146.376H144.952V87.5H86.5974V146.376ZM87.2204 145.748V88.1286H144.329V145.748H87.2204Z" fill="url(#paint41_linear_1802_630)"/>
<path fill-rule="evenodd" clip-rule="evenodd" d="M115.463 175.5H173.818V116.624H115.463V175.5ZM116.086 174.871V117.252H173.195V174.871H116.086Z" fill="url(#paint42_linear_1802_630)"/>
<path fill-rule="evenodd" clip-rule="evenodd" d="M115.463 146.376H173.818V87.5H115.463V146.376ZM116.086 145.748V88.1286H173.195V145.748H116.086Z" fill="url(#paint43_linear_1802_630)"/>
<path fill-rule="evenodd" clip-rule="evenodd" d="M173.195 175.5H231.55V116.624H173.195V175.5ZM173.818 174.871V117.252H230.927V174.871H173.818Z" fill="url(#paint44_linear_1802_630)"/>
<path fill-rule="evenodd" clip-rule="evenodd" d="M173.195 146.376H231.55V87.5H173.195V146.376ZM173.818 145.748V88.1286H230.927V145.748H173.818Z" fill="url(#paint45_linear_1802_630)"/>
<path fill-rule="evenodd" clip-rule="evenodd" d="M202.061 175.5H260.415V116.624H202.061V175.5ZM202.684 174.871V117.252H259.792V174.871H202.684Z" fill="url(#paint46_linear_1802_630)"/>
<path fill-rule="evenodd" clip-rule="evenodd" d="M202.061 146.376H260.415V87.5H202.061V146.376ZM202.684 145.748V88.1286H259.792V145.748H202.684Z" fill="url(#paint47_linear_1802_630)"/>
<path fill-rule="evenodd" clip-rule="evenodd" d="M259.792 175.5H318.147V116.624H259.792V175.5ZM260.415 174.871V117.252H317.524V174.871H260.415Z" fill="url(#paint48_linear_1802_630)"/>
<path fill-rule="evenodd" clip-rule="evenodd" d="M259.792 146.376H318.147V87.5H259.792V146.376ZM260.415 145.748V88.1286H317.524V145.748H260.415Z" fill="url(#paint49_linear_1802_630)"/>
<path fill-rule="evenodd" clip-rule="evenodd" d="M288.658 175.5H347.013V116.624H288.658V175.5ZM289.281 174.871V117.252H346.39V174.871H289.281Z" fill="url(#paint50_linear_1802_630)"/>
<path fill-rule="evenodd" clip-rule="evenodd" d="M288.658 146.376H347.013V87.5H288.658V146.376ZM289.281 145.748V88.1286H346.39V145.748H289.281Z" fill="url(#paint51_linear_1802_630)"/>
<path fill-rule="evenodd" clip-rule="evenodd" d="M346.39 175.5H404.744V116.624H346.39V175.5ZM347.013 174.871V117.252H404.121V174.871H347.013Z" fill="url(#paint52_linear_1802_630)"/>
<path fill-rule="evenodd" clip-rule="evenodd" d="M346.39 146.376H404.744V87.5H346.39V146.376ZM347.013 145.748V88.1286H404.121V145.748H347.013Z" fill="url(#paint53_linear_1802_630)"/>
<path fill-rule="evenodd" clip-rule="evenodd" d="M375.256 175.5H433.61V116.624H375.256V175.5ZM375.879 174.871V117.252H432.987V174.871H375.879Z" fill="url(#paint54_linear_1802_630)"/>
<path fill-rule="evenodd" clip-rule="evenodd" d="M375.256 146.376H433.61V87.5H375.256V146.376ZM375.879 145.748V88.1286H432.987V145.748H375.879Z" fill="url(#paint55_linear_1802_630)"/>
<path fill-rule="evenodd" clip-rule="evenodd" d="M432.987 175.5H491.342V116.624H432.987V175.5ZM433.61 174.871V117.252H490.719V174.871H433.61Z" fill="url(#paint56_linear_1802_630)"/>
<path fill-rule="evenodd" clip-rule="evenodd" d="M432.987 146.376H491.342V87.5H432.987V146.376ZM433.61 145.748V88.1286H490.719V145.748H433.61Z" fill="url(#paint57_linear_1802_630)"/>
<path fill-rule="evenodd" clip-rule="evenodd" d="M461.853 175.5H520.208V116.624H461.853V175.5ZM462.476 174.871V117.252H519.585V174.871H462.476Z" fill="url(#paint58_linear_1802_630)"/>
<path fill-rule="evenodd" clip-rule="evenodd" d="M461.853 146.376H520.208V87.5H461.853V146.376ZM462.476 145.748V88.1286H519.585V145.748H462.476Z" fill="url(#paint59_linear_1802_630)"/>
<path fill-rule="evenodd" clip-rule="evenodd" d="M519.585 175.5H577.939V116.624H519.585V175.5ZM520.208 174.871V117.252H577.316V174.871H520.208Z" fill="url(#paint60_linear_1802_630)"/>
<path fill-rule="evenodd" clip-rule="evenodd" d="M519.585 146.376H577.939V87.5H519.585V146.376ZM520.208 145.748V88.1286H577.316V145.748H520.208Z" fill="url(#paint61_linear_1802_630)"/>
<path fill-rule="evenodd" clip-rule="evenodd" d="M548.45 175.5H606.805V116.624H548.45V175.5ZM549.073 174.871V117.252H606.182V174.871H549.073Z" fill="url(#paint62_linear_1802_630)"/>
<path fill-rule="evenodd" clip-rule="evenodd" d="M548.45 146.376H606.805V87.5H548.45V146.376ZM549.073 145.748V88.1286H606.182V145.748H549.073Z" fill="url(#paint63_linear_1802_630)"/>
<path fill-rule="evenodd" clip-rule="evenodd" d="M606.182 175.5H664.537V116.624H606.182V175.5ZM606.805 174.871V117.252H663.914V174.871H606.805Z" fill="url(#paint64_linear_1802_630)"/>
<path fill-rule="evenodd" clip-rule="evenodd" d="M606.182 146.376H664.537V87.5H606.182V146.376ZM606.805 145.748V88.1286H663.914V145.748H606.805Z" fill="url(#paint65_linear_1802_630)"/>
<path fill-rule="evenodd" clip-rule="evenodd" d="M635.048 175.5H693.403V116.624H635.048V175.5ZM635.671 174.871V117.252H692.78V174.871H635.671Z" fill="url(#paint66_linear_1802_630)"/>
<path fill-rule="evenodd" clip-rule="evenodd" d="M635.048 146.376H693.403V87.5H635.048V146.376ZM635.671 145.748V88.1286H692.78V145.748H635.671Z" fill="url(#paint67_linear_1802_630)"/>
<path fill-rule="evenodd" clip-rule="evenodd" d="M692.78 175.5H751.134V116.624H692.78V175.5ZM693.403 174.871V117.252H750.511V174.871H693.403Z" fill="url(#paint68_linear_1802_630)"/>
<path fill-rule="evenodd" clip-rule="evenodd" d="M692.78 146.376H751.134V87.5H692.78V146.376ZM693.403 145.748V88.1286H750.511V145.748H693.403Z" fill="url(#paint69_linear_1802_630)"/>
<path fill-rule="evenodd" clip-rule="evenodd" d="M721.645 175.5H780V116.624H721.645V175.5ZM722.268 174.871V117.252H779.377V174.871H722.268Z" fill="url(#paint70_linear_1802_630)"/>
<path fill-rule="evenodd" clip-rule="evenodd" d="M721.645 146.376H780V87.5H721.645V146.376ZM722.268 145.748V88.1286H779.377V145.748H722.268Z" fill="url(#paint71_linear_1802_630)"/>
<defs>
<linearGradient id="paint0_linear_1802_630" x1="390" y1="0" x2="390" y2="88" gradientUnits="userSpaceOnUse">
<stop stop-color="#EDB1EE"/>
<stop offset="1" stop-color="#9AB5D5"/>
</linearGradient>
<linearGradient id="paint1_linear_1802_630" x1="390" y1="0" x2="390" y2="88" gradientUnits="userSpaceOnUse">
<stop stop-color="#EDB1EE"/>
<stop offset="1" stop-color="#9AB5D5"/>
</linearGradient>
<linearGradient id="paint2_linear_1802_630" x1="390" y1="0" x2="390" y2="88" gradientUnits="userSpaceOnUse">
<stop stop-color="#EDB1EE"/>
<stop offset="1" stop-color="#9AB5D5"/>
</linearGradient>
<linearGradient id="paint3_linear_1802_630" x1="390" y1="0" x2="390" y2="88" gradientUnits="userSpaceOnUse">
<stop stop-color="#EDB1EE"/>
<stop offset="1" stop-color="#9AB5D5"/>
</linearGradient>
<linearGradient id="paint4_linear_1802_630" x1="390" y1="0" x2="390" y2="88" gradientUnits="userSpaceOnUse">
<stop stop-color="#EDB1EE"/>
<stop offset="1" stop-color="#9AB5D5"/>
</linearGradient>
<linearGradient id="paint5_linear_1802_630" x1="390" y1="0" x2="390" y2="88" gradientUnits="userSpaceOnUse">
<stop stop-color="#EDB1EE"/>
<stop offset="1" stop-color="#9AB5D5"/>
</linearGradient>
<linearGradient id="paint6_linear_1802_630" x1="390" y1="0" x2="390" y2="88" gradientUnits="userSpaceOnUse">
<stop stop-color="#EDB1EE"/>
<stop offset="1" stop-color="#9AB5D5"/>
</linearGradient>
<linearGradient id="paint7_linear_1802_630" x1="390" y1="0" x2="390" y2="88" gradientUnits="userSpaceOnUse">
<stop stop-color="#EDB1EE"/>
<stop offset="1" stop-color="#9AB5D5"/>
</linearGradient>
<linearGradient id="paint8_linear_1802_630" x1="390" y1="0" x2="390" y2="88" gradientUnits="userSpaceOnUse">
<stop stop-color="#EDB1EE"/>
<stop offset="1" stop-color="#9AB5D5"/>
</linearGradient>
<linearGradient id="paint9_linear_1802_630" x1="390" y1="0" x2="390" y2="88" gradientUnits="userSpaceOnUse">
<stop stop-color="#EDB1EE"/>
<stop offset="1" stop-color="#9AB5D5"/>
</linearGradient>
<linearGradient id="paint10_linear_1802_630" x1="390" y1="0" x2="390" y2="88" gradientUnits="userSpaceOnUse">
<stop stop-color="#EDB1EE"/>
<stop offset="1" stop-color="#9AB5D5"/>
</linearGradient>
<linearGradient id="paint11_linear_1802_630" x1="390" y1="0" x2="390" y2="88" gradientUnits="userSpaceOnUse">
<stop stop-color="#EDB1EE"/>
<stop offset="1" stop-color="#9AB5D5"/>
</linearGradient>
<linearGradient id="paint12_linear_1802_630" x1="390" y1="0" x2="390" y2="88" gradientUnits="userSpaceOnUse">
<stop stop-color="#EDB1EE"/>
<stop offset="1" stop-color="#9AB5D5"/>
</linearGradient>
<linearGradient id="paint13_linear_1802_630" x1="390" y1="0" x2="390" y2="88" gradientUnits="userSpaceOnUse">
<stop stop-color="#EDB1EE"/>
<stop offset="1" stop-color="#9AB5D5"/>
</linearGradient>
<linearGradient id="paint14_linear_1802_630" x1="390" y1="0" x2="390" y2="88" gradientUnits="userSpaceOnUse">
<stop stop-color="#EDB1EE"/>
<stop offset="1" stop-color="#9AB5D5"/>
</linearGradient>
<linearGradient id="paint15_linear_1802_630" x1="390" y1="0" x2="390" y2="88" gradientUnits="userSpaceOnUse">
<stop stop-color="#EDB1EE"/>
<stop offset="1" stop-color="#9AB5D5"/>
</linearGradient>
<linearGradient id="paint16_linear_1802_630" x1="390" y1="0" x2="390" y2="88" gradientUnits="userSpaceOnUse">
<stop stop-color="#EDB1EE"/>
<stop offset="1" stop-color="#9AB5D5"/>
</linearGradient>
<linearGradient id="paint17_linear_1802_630" x1="390" y1="0" x2="390" y2="88" gradientUnits="userSpaceOnUse">
<stop stop-color="#EDB1EE"/>
<stop offset="1" stop-color="#9AB5D5"/>
</linearGradient>
<linearGradient id="paint18_linear_1802_630" x1="390" y1="0" x2="390" y2="88" gradientUnits="userSpaceOnUse">
<stop stop-color="#EDB1EE"/>
<stop offset="1" stop-color="#9AB5D5"/>
</linearGradient>
<linearGradient id="paint19_linear_1802_630" x1="390" y1="0" x2="390" y2="88" gradientUnits="userSpaceOnUse">
<stop stop-color="#EDB1EE"/>
<stop offset="1" stop-color="#9AB5D5"/>
</linearGradient>
<linearGradient id="paint20_linear_1802_630" x1="390" y1="0" x2="390" y2="88" gradientUnits="userSpaceOnUse">
<stop stop-color="#EDB1EE"/>
<stop offset="1" stop-color="#9AB5D5"/>
</linearGradient>
<linearGradient id="paint21_linear_1802_630" x1="390" y1="0" x2="390" y2="88" gradientUnits="userSpaceOnUse">
<stop stop-color="#EDB1EE"/>
<stop offset="1" stop-color="#9AB5D5"/>
</linearGradient>
<linearGradient id="paint22_linear_1802_630" x1="390" y1="0" x2="390" y2="88" gradientUnits="userSpaceOnUse">
<stop stop-color="#EDB1EE"/>
<stop offset="1" stop-color="#9AB5D5"/>
</linearGradient>
<linearGradient id="paint23_linear_1802_630" x1="390" y1="0" x2="390" y2="88" gradientUnits="userSpaceOnUse">
<stop stop-color="#EDB1EE"/>
<stop offset="1" stop-color="#9AB5D5"/>
</linearGradient>
<linearGradient id="paint24_linear_1802_630" x1="390" y1="0" x2="390" y2="88" gradientUnits="userSpaceOnUse">
<stop stop-color="#EDB1EE"/>
<stop offset="1" stop-color="#9AB5D5"/>
</linearGradient>
<linearGradient id="paint25_linear_1802_630" x1="390" y1="0" x2="390" y2="88" gradientUnits="userSpaceOnUse">
<stop stop-color="#EDB1EE"/>
<stop offset="1" stop-color="#9AB5D5"/>
</linearGradient>
<linearGradient id="paint26_linear_1802_630" x1="390" y1="0" x2="390" y2="88" gradientUnits="userSpaceOnUse">
<stop stop-color="#EDB1EE"/>
<stop offset="1" stop-color="#9AB5D5"/>
</linearGradient>
<linearGradient id="paint27_linear_1802_630" x1="390" y1="0" x2="390" y2="88" gradientUnits="userSpaceOnUse">
<stop stop-color="#EDB1EE"/>
<stop offset="1" stop-color="#9AB5D5"/>
</linearGradient>
<linearGradient id="paint28_linear_1802_630" x1="390" y1="0" x2="390" y2="88" gradientUnits="userSpaceOnUse">
<stop stop-color="#EDB1EE"/>
<stop offset="1" stop-color="#9AB5D5"/>
</linearGradient>
<linearGradient id="paint29_linear_1802_630" x1="390" y1="0" x2="390" y2="88" gradientUnits="userSpaceOnUse">
<stop stop-color="#EDB1EE"/>
<stop offset="1" stop-color="#9AB5D5"/>
</linearGradient>
<linearGradient id="paint30_linear_1802_630" x1="390" y1="0" x2="390" y2="88" gradientUnits="userSpaceOnUse">
<stop stop-color="#EDB1EE"/>
<stop offset="1" stop-color="#9AB5D5"/>
</linearGradient>
<linearGradient id="paint31_linear_1802_630" x1="390" y1="0" x2="390" y2="88" gradientUnits="userSpaceOnUse">
<stop stop-color="#EDB1EE"/>
<stop offset="1" stop-color="#9AB5D5"/>
</linearGradient>
<linearGradient id="paint32_linear_1802_630" x1="390" y1="0" x2="390" y2="88" gradientUnits="userSpaceOnUse">
<stop stop-color="#EDB1EE"/>
<stop offset="1" stop-color="#9AB5D5"/>
</linearGradient>
<linearGradient id="paint33_linear_1802_630" x1="390" y1="0" x2="390" y2="88" gradientUnits="userSpaceOnUse">
<stop stop-color="#EDB1EE"/>
<stop offset="1" stop-color="#9AB5D5"/>
</linearGradient>
<linearGradient id="paint34_linear_1802_630" x1="390" y1="0" x2="390" y2="88" gradientUnits="userSpaceOnUse">
<stop stop-color="#EDB1EE"/>
<stop offset="1" stop-color="#9AB5D5"/>
</linearGradient>
<linearGradient id="paint35_linear_1802_630" x1="390" y1="0" x2="390" y2="88" gradientUnits="userSpaceOnUse">
<stop stop-color="#EDB1EE"/>
<stop offset="1" stop-color="#9AB5D5"/>
</linearGradient>
<linearGradient id="paint36_linear_1802_630" x1="390" y1="175.5" x2="390" y2="87.5" gradientUnits="userSpaceOnUse">
<stop stop-color="#EDB1EE"/>
<stop offset="1" stop-color="#9AB5D5"/>
</linearGradient>
<linearGradient id="paint37_linear_1802_630" x1="390" y1="175.5" x2="390" y2="87.5" gradientUnits="userSpaceOnUse">
<stop stop-color="#EDB1EE"/>
<stop offset="1" stop-color="#9AB5D5"/>
</linearGradient>
<linearGradient id="paint38_linear_1802_630" x1="390" y1="175.5" x2="390" y2="87.5" gradientUnits="userSpaceOnUse">
<stop stop-color="#EDB1EE"/>
<stop offset="1" stop-color="#9AB5D5"/>
</linearGradient>
<linearGradient id="paint39_linear_1802_630" x1="390" y1="175.5" x2="390" y2="87.5" gradientUnits="userSpaceOnUse">
<stop stop-color="#EDB1EE"/>
<stop offset="1" stop-color="#9AB5D5"/>
</linearGradient>
<linearGradient id="paint40_linear_1802_630" x1="390" y1="175.5" x2="390" y2="87.5" gradientUnits="userSpaceOnUse">
<stop stop-color="#EDB1EE"/>
<stop offset="1" stop-color="#9AB5D5"/>
</linearGradient>
<linearGradient id="paint41_linear_1802_630" x1="390" y1="175.5" x2="390" y2="87.5" gradientUnits="userSpaceOnUse">
<stop stop-color="#EDB1EE"/>
<stop offset="1" stop-color="#9AB5D5"/>
</linearGradient>
<linearGradient id="paint42_linear_1802_630" x1="390" y1="175.5" x2="390" y2="87.5" gradientUnits="userSpaceOnUse">
<stop stop-color="#EDB1EE"/>
<stop offset="1" stop-color="#9AB5D5"/>
</linearGradient>
<linearGradient id="paint43_linear_1802_630" x1="390" y1="175.5" x2="390" y2="87.5" gradientUnits="userSpaceOnUse">
<stop stop-color="#EDB1EE"/>
<stop offset="1" stop-color="#9AB5D5"/>
</linearGradient>
<linearGradient id="paint44_linear_1802_630" x1="390" y1="175.5" x2="390" y2="87.5" gradientUnits="userSpaceOnUse">
<stop stop-color="#EDB1EE"/>
<stop offset="1" stop-color="#9AB5D5"/>
</linearGradient>
<linearGradient id="paint45_linear_1802_630" x1="390" y1="175.5" x2="390" y2="87.5" gradientUnits="userSpaceOnUse">
<stop stop-color="#EDB1EE"/>
<stop offset="1" stop-color="#9AB5D5"/>
</linearGradient>
<linearGradient id="paint46_linear_1802_630" x1="390" y1="175.5" x2="390" y2="87.5" gradientUnits="userSpaceOnUse">
<stop stop-color="#EDB1EE"/>
<stop offset="1" stop-color="#9AB5D5"/>
</linearGradient>
<linearGradient id="paint47_linear_1802_630" x1="390" y1="175.5" x2="390" y2="87.5" gradientUnits="userSpaceOnUse">
<stop stop-color="#EDB1EE"/>
<stop offset="1" stop-color="#9AB5D5"/>
</linearGradient>
<linearGradient id="paint48_linear_1802_630" x1="390" y1="175.5" x2="390" y2="87.5" gradientUnits="userSpaceOnUse">
<stop stop-color="#EDB1EE"/>
<stop offset="1" stop-color="#9AB5D5"/>
</linearGradient>
<linearGradient id="paint49_linear_1802_630" x1="390" y1="175.5" x2="390" y2="87.5" gradientUnits="userSpaceOnUse">
<stop stop-color="#EDB1EE"/>
<stop offset="1" stop-color="#9AB5D5"/>
</linearGradient>
<linearGradient id="paint50_linear_1802_630" x1="390" y1="175.5" x2="390" y2="87.5" gradientUnits="userSpaceOnUse">
<stop stop-color="#EDB1EE"/>
<stop offset="1" stop-color="#9AB5D5"/>
</linearGradient>
<linearGradient id="paint51_linear_1802_630" x1="390" y1="175.5" x2="390" y2="87.5" gradientUnits="userSpaceOnUse">
<stop stop-color="#EDB1EE"/>
<stop offset="1" stop-color="#9AB5D5"/>
</linearGradient>
<linearGradient id="paint52_linear_1802_630" x1="390" y1="175.5" x2="390" y2="87.5" gradientUnits="userSpaceOnUse">
<stop stop-color="#EDB1EE"/>
<stop offset="1" stop-color="#9AB5D5"/>
</linearGradient>
<linearGradient id="paint53_linear_1802_630" x1="390" y1="175.5" x2="390" y2="87.5" gradientUnits="userSpaceOnUse">
<stop stop-color="#EDB1EE"/>
<stop offset="1" stop-color="#9AB5D5"/>
</linearGradient>
<linearGradient id="paint54_linear_1802_630" x1="390" y1="175.5" x2="390" y2="87.5" gradientUnits="userSpaceOnUse">
<stop stop-color="#EDB1EE"/>
<stop offset="1" stop-color="#9AB5D5"/>
</linearGradient>
<linearGradient id="paint55_linear_1802_630" x1="390" y1="175.5" x2="390" y2="87.5" gradientUnits="userSpaceOnUse">
<stop stop-color="#EDB1EE"/>
<stop offset="1" stop-color="#9AB5D5"/>
</linearGradient>
<linearGradient id="paint56_linear_1802_630" x1="390" y1="175.5" x2="390" y2="87.5" gradientUnits="userSpaceOnUse">
<stop stop-color="#EDB1EE"/>
<stop offset="1" stop-color="#9AB5D5"/>
</linearGradient>
<linearGradient id="paint57_linear_1802_630" x1="390" y1="175.5" x2="390" y2="87.5" gradientUnits="userSpaceOnUse">
<stop stop-color="#EDB1EE"/>
<stop offset="1" stop-color="#9AB5D5"/>
</linearGradient>
<linearGradient id="paint58_linear_1802_630" x1="390" y1="175.5" x2="390" y2="87.5" gradientUnits="userSpaceOnUse">
<stop stop-color="#EDB1EE"/>
<stop offset="1" stop-color="#9AB5D5"/>
</linearGradient>
<linearGradient id="paint59_linear_1802_630" x1="390" y1="175.5" x2="390" y2="87.5" gradientUnits="userSpaceOnUse">
<stop stop-color="#EDB1EE"/>
<stop offset="1" stop-color="#9AB5D5"/>
</linearGradient>
<linearGradient id="paint60_linear_1802_630" x1="390" y1="175.5" x2="390" y2="87.5" gradientUnits="userSpaceOnUse">
<stop stop-color="#EDB1EE"/>
<stop offset="1" stop-color="#9AB5D5"/>
</linearGradient>
<linearGradient id="paint61_linear_1802_630" x1="390" y1="175.5" x2="390" y2="87.5" gradientUnits="userSpaceOnUse">
<stop stop-color="#EDB1EE"/>
<stop offset="1" stop-color="#9AB5D5"/>
</linearGradient>
<linearGradient id="paint62_linear_1802_630" x1="390" y1="175.5" x2="390" y2="87.5" gradientUnits="userSpaceOnUse">
<stop stop-color="#EDB1EE"/>
<stop offset="1" stop-color="#9AB5D5"/>
</linearGradient>
<linearGradient id="paint63_linear_1802_630" x1="390" y1="175.5" x2="390" y2="87.5" gradientUnits="userSpaceOnUse">
<stop stop-color="#EDB1EE"/>
<stop offset="1" stop-color="#9AB5D5"/>
</linearGradient>
<linearGradient id="paint64_linear_1802_630" x1="390" y1="175.5" x2="390" y2="87.5" gradientUnits="userSpaceOnUse">
<stop stop-color="#EDB1EE"/>
<stop offset="1" stop-color="#9AB5D5"/>
</linearGradient>
<linearGradient id="paint65_linear_1802_630" x1="390" y1="175.5" x2="390" y2="87.5" gradientUnits="userSpaceOnUse">
<stop stop-color="#EDB1EE"/>
<stop offset="1" stop-color="#9AB5D5"/>
</linearGradient>
<linearGradient id="paint66_linear_1802_630" x1="390" y1="175.5" x2="390" y2="87.5" gradientUnits="userSpaceOnUse">
<stop stop-color="#EDB1EE"/>
<stop offset="1" stop-color="#9AB5D5"/>
</linearGradient>
<linearGradient id="paint67_linear_1802_630" x1="390" y1="175.5" x2="390" y2="87.5" gradientUnits="userSpaceOnUse">
<stop stop-color="#EDB1EE"/>
<stop offset="1" stop-color="#9AB5D5"/>
</linearGradient>
<linearGradient id="paint68_linear_1802_630" x1="390" y1="175.5" x2="390" y2="87.5" gradientUnits="userSpaceOnUse">
<stop stop-color="#EDB1EE"/>
<stop offset="1" stop-color="#9AB5D5"/>
</linearGradient>
<linearGradient id="paint69_linear_1802_630" x1="390" y1="175.5" x2="390" y2="87.5" gradientUnits="userSpaceOnUse">
<stop stop-color="#EDB1EE"/>
<stop offset="1" stop-color="#9AB5D5"/>
</linearGradient>
<linearGradient id="paint70_linear_1802_630" x1="390" y1="175.5" x2="390" y2="87.5" gradientUnits="userSpaceOnUse">
<stop stop-color="#EDB1EE"/>
<stop offset="1" stop-color="#9AB5D5"/>
</linearGradient>
<linearGradient id="paint71_linear_1802_630" x1="390" y1="175.5" x2="390" y2="87.5" gradientUnits="userSpaceOnUse">
<stop stop-color="#EDB1EE"/>
<stop offset="1" stop-color="#9AB5D5"/>
</linearGradient>
</defs>
</svg>
