
<svg xmlns="http://www.w3.org/2000/svg" version="1.1" xmlns:xlink="http://www.w3.org/1999/xlink" preserveAspectRatio="none" x="0px" y="0px" width="350px" height="350px" viewBox="0 0 350 350">
<defs>
<filter id="Filter_1" x="-20%" y="-20%" width="140%" height="140%" color-interpolation-filters="sRGB">
<feColorMatrix in="SourceGraphic" type="matrix" values="1 0 0 0 0 0 1 0 0 0 0 0 1 0 0 0 0 0 0.4 0" result="result1"/>
</filter>

<g id="dead_0_Layer3_0_MEMBER_0_MEMBER_0_FILL">
<path fill="#8A518C" stroke="none" d="
M 860.8 953.85
Q 860.55 953.85 860.55 954.15
L 860.8 954.15 860.8 953.85 Z"/>
</g>

<g id="dead_0_Layer3_0_MEMBER_1_MEMBER_0_FILL">
<path fill="#8A518C" stroke="none" d="
M 860.8 953.85
Q 860.55 953.85 860.55 954.15
L 860.8 954.15 860.8 953.85 Z"/>
</g>

<g id="dead_0_Layer3_0_MEMBER_2_MEMBER_0_FILL">
<path fill="#E89FED" stroke="none" d="
M 1080 794.35
L 1073.25 800.05
Q 1063.05 823.75 1049.7 838 1026.25 863.75 1031.55 863.5 1062.45 830.8 1080 794.35
M 947.15 454.95
L 943.45 452.7
Q 783.65 353 557.7 353 332.05 353 172.25 452.7 12.5 552.45 12.5 693.3 12.5 809.45 121.15 897.55 125.75 898.25 131.9 899.75 111.25 882.85 92.2 863.45 97.55 863.75 73.7 837.95 60.55 823.6 50.5 800.35
L 43.45 794.3
Q 20.55 746.75 20.55 693.3 20.55 554 176.3 455.25 231.45 501.2 168.2 532.4 104.95 563.55 80.1 606 55.3 648.85 51.85 679.6 48.3 710.55 60.6 751.3 72.85 792.4 158.8 792.1 244.75 791.8 251.3 856.45 258.05 921.35 303.05 938 349.5 956 439.6 969.85 530.5 983.8 690.2 968.6 849.85 953.4 857.35 866.65 864.85 780.35 958.25 789.85 1052 799.4 1063.5 723.9 1066.95 695.45 1063.85 673.85 1060.8 652.45 1039.3 608.2 1017.85 564.45 955.2 532.7 892.45 501.15 947.15 454.95 Z"/>
</g>

<g id="dead_0_Layer3_0_MEMBER_2_MEMBER_1_FILL">
<path fill="#873E7F" stroke="none" d="
M 947.15 455
Q 892.5 501.2 955.2 532.75 1017.8 564.4 1039.3 608.25 1060.8 652.4 1063.85 673.9 1066.95 695.75 1063.5 723.9 1052 799.35 958.25 789.9 864.85 780.3 857.35 866.65 849.85 953.45 690.2 968.65 530.15 983.8 439.6 969.9 349.15 955.95 303.05 938.05 257.95 921.35 251.3 856.45 244.75 791.8 158.8 792.1 72.85 792.4 60.6 751.35 48.3 710.55 51.85 679.65
L 51.85 679.6
Q 55.3 648.85 80.1 606 104.85 563.65 168.2 532.4 231.45 501.2 176.3 455.3 20.55 554.1 20.55 693.35 20.55 746.8 43.45 794.35
L 50.5 800.4
Q 60.7 823.8 73.7 838 97.65 863.8 92.2 863.5 111.25 882.9 131.9 899.8 125.2 898.15 121.15 897.55 222.7 970.55 325.95 1002.4 377 1018.15 434.95 1025.35 493.05 1033.65 557.7 1033.95
L 566.1 1033.95
Q 630.75 1033.65 688.85 1025.35 746.8 1018.15 797.85 1002.4 901.05 970.5 1002.65 897.9 998.65 898.25 991.55 899.8 1012.9 882.55 1031.55 863.5 1026.2 863.75 1049.75 838 1063.05 823.7 1073.25 800.05
L 1080 794.3
Q 1103.2 746.75 1103.2 693.3 1103.2 554.15 947.15 455 Z"/>
</g>

<g id="dead_0_Layer2_0_MEMBER_0_FILL">
<path fill="#0163AF" stroke="none" d="
M 716.9 640.65
Q 708.35 634.8 698.2 636.7 688 638.6 682.15 647.15 676.25 655.7 678.2 665.9 680.1 676.05 688.6 681.9
L 766.9 735.55 682.6 776.4
Q 673.3 780.9 669.9 790.7 666.5 800.45 671 809.8 674.2 816.4 680.4 820.2 686.45 823.9 693.55 823.9 699.25 823.9 704.4 821.4
L 814.4 768.1 916.2 837.85
Q 922.6 842.25 930.3 842.25 936.4 842.25 941.8 839.45 947.35 836.6 950.95 831.4 956.8 822.85 954.9 812.7 953 802.5 944.45 796.65
L 866.2 743 950.5 702.15
Q 959.8 697.6 963.2 687.85 966.6 678.05 962.1 668.75 957.55 659.45 947.8 656.05 938 652.65 928.7 657.15
L 818.7 710.45 716.9 640.65 Z"/>
</g>

<g id="dead_0_Layer2_0_MEMBER_3_FILL">
<path fill="#0163AF" stroke="none" d="
M 196.65 657.15
Q 187.35 652.65 177.55 656.05 167.8 659.45 163.25 668.75 158.75 678.05 162.15 687.85 165.55 697.6 174.85 702.15
L 259.15 743 180.85 796.65
Q 172.35 802.5 170.45 812.7 168.5 822.85 174.4 831.4 178 836.6 183.55 839.45 188.95 842.25 195.05 842.25 202.75 842.25 209.15 837.85
L 310.95 768.1 420.95 821.4
Q 426.1 823.9 431.8 823.9 438.9 823.9 444.95 820.2 451.15 816.4 454.35 809.8 458.85 800.45 455.45 790.7 452.05 780.9 442.75 776.4
L 358.45 735.55 436.75 681.9
Q 445.3 676.05 447.2 665.9 449.1 655.7 443.2 647.15 437.35 638.6 427.2 636.7 417 634.8 408.45 640.65
L 306.65 710.45 196.65 657.15 Z"/>
</g>

<g id="dead_0_Layer1_0_MEMBER_0_FILL">
<path fill="#0163AF" stroke="none" d="
M 554.9 892.95
Q 547.05 893.25 546.85 893.25 526.55 892.55 492.1 886.85 456.45 880.9 443.75 880.25 428.35 879.45 408.75 881.2 383.25 883.5 360.05 889.6 296.3 906.4 267.4 946.7 260.1 956.9 255.75 974.45 251.5 991.6 251.5 1009.75 251.55 1028.8 256.4 1042.55 261.75 1057.75 272 1062.85 279.05 1066.4 288.05 1067.5 297.85 1068.75 307.05 1066.65 329.65 1061.45 338.4 1039.3 346.95 1017.7 371.7 1015.45 381.25 1014.6 396.6 1016.2 405.6 1017.15 425.25 1019.7 479.65 1025.95 540.35 1026.6
L 540.35 1026.65 568.5 1026.75 568.5 1026.7
Q 629.55 1026.6 683.65 1020.9 693.65 1019.85 712.3 1017.65 727.7 1016.2 737.25 1017.15 761.95 1019.65 770.3 1041.3 778.85 1063.55 801.4 1068.95 810.55 1071.15 820.4 1070 829.4 1069 836.5 1065.5 846.8 1060.45 852.3 1045.3 857.25 1031.65 857.45 1012.55 857.65 994.45 853.55 977.25 849.4 959.65 842.15 949.35
L 842.15 949.4
Q 813.65 908.8 750 891.45 726.85 885.1 701.4 882.6 681.85 880.65 666.4 881.3 653.75 881.85 618 887.45 583.5 892.85 563.15 893.35 560.45 893.25 555.15 892.95
L 555.15 892.9 554.9 892.9 554.9 892.95 Z"/>
</g>

<g id="dead_0_Layer1_0_MEMBER_1_FILL">
<path fill="#05104D" stroke="none" d="
M 536.9 965.75
Q 514.8 964.8 487.85 961.9 481.3 961.2 455 957.85 449.7 957.1 438.95 955.1 427.85 953 422.2 952.2 404.95 949.55 390.95 951.65 367.95 953.9 353.8 959.3 335.6 966.25 322.95 981 312.35 993.3 305.9 1011.15 305.6 1011.95 305.85 1012.75 306.15 1013.6 306.85 1014.05 307.7 1014.6 308.7 1014.4 309.7 1014.15 310.25 1013.3 320.15 997.65 330.7 988.7 342.35 978.65 357.65 974.6 370 971.3 388.15 971.35
L 394.6 971.2
Q 406.7 971.05 423.3 973.5 432.75 974.9 452.25 978.05 482.95 982.3 502.35 984.4 529.95 987.35 552.85 988.15 611.95 990.25 663.05 976.6 666.75 975.65 674.65 973.5 681.65 971.7 686.3 971 719.75 965.75 748.7 972.75 786.05 981.75 793.95 1008.9 794.8 1011.8 797.7 1011.25 800.65 1010.75 800.45 1007.7 799.15 991.95 787.6 979.2 777.55 968.05 761.5 961.05 739.9 951.9 714.3 950.15 689.15 948.35 665.9 954.05 626.25 963.85 585.9 965.7 562.9 966.95 536.9 965.75 Z"/>
</g>

<g id="dead_0_Layer1_0_MEMBER_2_FILL">
<path fill="#009DFF" stroke="none" d="
M 554.45 901.7
Q 539 902.15 519.75 900.05 511.4 899.15 485.05 895.4 398.95 881.15 335.5 909.25 316.95 917.55 302.25 929.6 286.3 942.75 276.7 958.95 275.25 961.4 275.7 964.25 276.2 967.15 278.45 969 281 971.05 284.25 970.7 287.5 970.35 289.5 967.75 297.7 957.7 307.4 950.25 344.95 921.3 411.3 918.45 427.55 917.6 445.85 919.55 460.5 921.1 480.2 924.95 503.8 929.45 517.2 931.3 538.15 934.15 554.85 933.95 567.65 933.9 582.9 932.5 594.35 931.45 610.8 929.25 628.9 926.8 637.15 925.85 651.75 924.15 663.5 923.5 713 921.4 748.4 929.8 794.3 940.65 821.6 969.7
L 821.6 969.65
Q 824.15 972.3 827.45 972.45 830.45 972.55 832.9 970.65 835.4 968.7 836 965.8 836.75 962.55 834.8 959.45 818.25 934.15 788.2 917.7 761.95 903.4 728.45 897.25 697.7 891.6 662.35 892.55 644.05 892.9 608.3 897.1 572.3 901.35 554.45 901.7 Z"/>
</g>

<g id="dead_0_Layer1_0_MEMBER_3_FILL">
<path fill="#843D7E" stroke="none" d="
M 528.9 982.1
Q 514.05 981.35 489.8 975
L 468.55 968.8 462.65 986.1
Q 454.4 1014.65 457.85 1042.7 460.7 1065.7 470.3 1082.95 482.35 1104.55 508.15 1117.95 531.15 1129.9 560.05 1133 567.3 1133.7 570.55 1133.7 574.3 1133.7 580.7 1132.85 607.5 1129.55 628.75 1117.65 652.6 1104.3 663.75 1082.95 672.75 1065.7 675.45 1042.7 678.65 1014.65 670.9 986.1
L 665.35 968.8
Q 656.75 971.85 645.4 975 622.65 981.35 608.7 982.1 583.7 984.1 570.05 985 540.6 982.9 528.9 982.1 Z"/>
</g>

<g id="dead_0_Layer1_0_MEMBER_4_FILL">
<path fill="#E89FED" stroke="none" d="
M 482.15 1008.3
Q 480.15 1011.9 479 1017.4 475.7 1032.4 478.95 1047.1 481.25 1057.35 488.4 1072.55 495.6 1087.85 510.2 1098 521.9 1106.15 538.85 1111.3 548.5 1114.3 560.05 1114.95
L 571.3 1114.95
Q 582.85 1114.3 592.5 1111.3 609.5 1106.15 621.15 1098 635.75 1087.85 642.95 1072.55 650.15 1057.25 652.4 1047.05 655.65 1032.4 652.35 1017.4
L 652.3 1017.4
Q 651.15 1011.9 649.15 1008.3
L 647.4 1005.8
Q 635.25 1011.1 623.4 1013.55 612.65 1015.75 584.25 1019.05 575.55 1020.1 565.65 1020.65 555.7 1020.1 547.05 1019.05 518.65 1015.75 507.9 1013.55 496.05 1011.1 483.9 1005.8
L 482.15 1008.3 Z"/>
</g>

<g id="dead_0_Layer0_0_FILL">
<path fill="#873E7F" stroke="none" d="
M 756.35 89.55
Q 747.2 92.5 740.2 97.65 732.35 103.4 728.25 111.15 723.65 119.85 722.35 128.8 720.95 138.35 723.5 147.35 748.2 234.45 764.8 323.05 766.3 330.95 772.9 339.15 779 346.8 786.4 351.15 794.2 355.7 804.1 357.1 814.4 358.55 822.65 355.85 831.75 352.9 838.8 347.8 846.6 342.05 850.7 334.3 855.25 325.7 856.3 316.65 857.35 308.1 855.45 298.05 838.65 208.9 814.15 122.35 811.75 113.75 806 106.3 800.25 98.75 792.55 94.25 784.8 89.7 774.9 88.3 764.65 86.9 756.35 89.55 Z"/>
</g>

<g id="dead_0_Layer0_1_FILL">
<path fill="#000000" fill-opacity="0.4" stroke="none" d="
M 968.1 491.5
Q 954.65 486.15 937.5 482.75 925.85 480.4 905.95 477.85 847.15 470.4 775.75 473.7 745.9 475.05 707 478.9 696.5 479.9 638.45 486.2 607.8 489.5 570.7 492.25 544.3 494.25 502.8 496.75 454.6 499.6 417.25 505.55 405.95 507.35 383.25 512.05 360.75 516.75 349.2 518.55 332.45 520.3 317.4 519.15 309.25 517.65 301.6 515.1 295.0904296875 511.8693359375 289.3 507.75
L 288.9 507.45
Q 278.366796875 499.7611328125 269.75 494.25 257.6 486.45 246.15 480.8 241.95 478.75 228.2 475.9 214.5 473.05 199.7 471.2 161.7 466.35 162.3 472.7 173.2 533.75 210.65 604.55 222.95 627.8 236.1 648.2 246.35 664.1 248.55 666.05 261.65 681.9 273.1 693.9 286.75 708.2 300.2 719.35 338.35 750.95 386.1 764.25 434.2 777.65 483.5 770.1 523.35 764 572.65 737.95 585.8 731 614.15 714.55 640.95 699.05 655.6 691.5 703.75 666.65 749.75 661.1 772.85 658.3 805.45 658.05 824.05 657.9 861.25 658.05 892.2 657.75 911.75 656.35 940.75 654.2 962.8 648.85 1019.15 635.1 1042.4 597.15 1062.2 564.8 1059.2 534.75 1058.15 524.35 1054.5 515.5 1051.9 509.15 1049.15 505.9
L 1049.1 505.9
Q 1043.8 499.6 1033 497.1 1025.05 495.3 1011.15 495.1 995.4 495.25 988 494.9 975.25 494.35 968.1 491.5 Z"/>
</g>

<g id="Chepe_dead_svg_Assets_Layer_1__Path__24_0_Layer0_0_FILL">
<path fill="#000000" stroke="none" d="
M 117.2 41.6
Q 116.55 32.05 113.05 24.95 105.15 8.95 90.85 2.8 76.3 -3.4 62.4 3.75 42.55 14 27.6 34.45 13.3 54.05 6.4 78.95 -0.25 102.85 0 131 0.25 156.45 6.05 184.1 7.8 192.5 12 199.8 16.35 207.25 22.45 212.15 28.45 216.95 36.1 219.1 44.1 221.3 50.7 219.7 58.2 217.9 64.1 213.8 70.65 209.2 74.2 202.35 78.1 194.9 79.45 187 80.95 178.4 79.2 170.2 76.35 156.3 75 143.75 74.45 130.15 75.9 117.75 77.55 109.6 80.3 102.05 83.15 96.35 86.45 91.3 89.35 87.85 92.9 84.8 94.7 83.6 97.45 82.2 103.6 79 108.55 72.45 113.45 66.05 115.6 58.5 117.8 50.75 117.2 41.6 Z"/>
</g>

<g id="dead_0_Layer0_3_MEMBER_0_MEMBER_0_MEMBER_0_FILL">
<path fill="#0163AF" stroke="none" d="
M 195 214.55
Q 194.8 209.2 195.1 205.95 173.65 245.65 157.85 301.45 137.5 373.25 146.5 426.55 155.35 479.45 186.25 506.9 216.95 534.45 225.55 540.35 234.3 545.95 254.3 554.9
L 253 553.25
Q 244.6 544.05 239.8 530.8 236 520.15 233.7 504.2 233.55 503 230.4 474.95 228.35 456.65 225.5 444.5 223.45 435.7 217.75 424.45 210.55 411.35 206.9 404.6 200.35 392.55 197.35 383.6 193.25 371.5 193.4 359.85
L 195 214.55
M 197.15 201.95
L 197.8 200.9
Q 205.45 190 207.75 184.4 202.25 192.65 197.15 201.95
M 820.35 100.7
Q 821.55 103.45 823.25 108.85
L 872.35 245.6
Q 915.1 364.8 879.3 447.8
L 878.6 449.8
Q 894.6 434.95 900.95 426.65 907.25 418.2 927.2 382.2 947.35 346.25 938.5 293.25 929.5 239.85 886.8 178.75 853.4 131 820.35 100.7
M 816.15 96.8
L 817.1 97.6
Q 809.3 90.55 801.35 84.55 805.55 89.2 816.15 96.8 Z"/>
</g>

<g id="dead_0_Layer0_3_MEMBER_0_MEMBER_0_MEMBER_1_FILL">
<path fill="#009DFF" stroke="none" d="
M 817.1 97.6
L 816.15 96.8
Q 805.5 89.15 801.35 84.5 734.45 37.9 643.05 23.05 598.7 16.1 506.75 27.25 504.75 27 493.4 28.3 489.4 28.65 486.9 29.75 484.45 29.45 480.35 30.55 469.45 32.9 467.35 33.85 376.7 53.45 337.2 74.55 255.55 118.5 207.75 184.4 205.35 190.15 197.8 200.85
L 197.15 201.9
Q 196.05 203.35 195.25 205.6 194.9 198.6 195.1 205.95 194.8 209.2 195 214.55 194.95 220.7 187.5 259.95 180 308.15 179.4 359.45 179.25 376.65 182.75 388.85 185.65 398.75 191.95 408.15 195.7 413.75 204.55 424.9 212.75 435.95 218.05 446.7 222.1 454.95 226.4 471.5 226.7 472.5 233.9 502.6 243.5 542.85 253 553.2 251.25 547.95 296.2 543.2 457.95 550.2 570.4 525.8 684.5 512.1 835.2 452.5 879.15 442.3 879.3 447.8 915.1 364.8 872.3 245.6
L 872.35 245.6
Q 827.05 119.35 823.25 108.85 821.55 103.45 820.35 100.7 817.95 92.85 820.1 100.45 818.55 98.5 817.1 97.6
M 779.15 91.8
Q 785.85 90.45 792.05 92.15 798.7 93.95 804.3 99.05 808.65 103.05 809.8 107.9 811.05 113.25 808 118
L 807.85 118.5
Q 810.15 133.95 813.6 165 817.35 192.25 824.2 210.5 835.9 241.7 840.65 261.1 847.6 289.3 846.4 313.7 846.25 316.6 844.75 319.15
L 845.05 320.9
Q 845.9 326.6 842.55 331.35 839.2 336.15 833.55 337.1 827.95 338.05 823.1 334.6 818.2 331.15 817.35 325.55 816.75 322.1 816.15 319.25
L 815 314.75
Q 813.7 311 813.1 309.6 811.05 306.9 810.6 303.65
L 810.55 303.4 810.35 302.9
Q 807.8 297.25 804.55 291.5 802.5 287.8 801 285.3
L 797.85 280.15
Q 792.55 271.85 783.65 259.4 770.75 241.35 768.95 238.8 751.75 213.95 744.15 195.05 736.65 176.4 736.35 159.8 735.2 145.7 737.8 133.15 743.15 107.4 757.65 97.3 767.5 90.5 779.15 91.8 Z"/>
</g>

<g id="dead_0_Layer0_3_MEMBER_3_FILL">
<path fill="#009DFF" stroke="none" d="
M 525.05 75.55
Q 519.95 76.85 506.75 77.9
L 482.25 79.9
Q 474.15 80.55 469.15 81.9 465.9 83 461.25 85.65 458.65 85.8 456.1 86.85 451.3 88.75 448.05 93 446.75 94.55 445.8 96.95 444.9 97.95 443.65 99.6 441.1 103.3 440.3 107.4
L 440.25 107.95
Q 442.55 110.1 446.85 111.65 449.3 112.65 452.3 113.25 462.05 115.3 476.15 114.6 485.9 114.15 496.95 112.45
L 502.8 111.5
Q 530.9 106.1 545.25 97.65 550.75 94.2 553.5 90.7
L 553.5 90.5
Q 553.35 83.7 548.5 78.75 544.15 74.1 537.9 73.6 535.15 73.45 531.45 74.15
L 525.05 75.55 Z"/>
</g>

<g id="dead_0_Layer0_3_MEMBER_4_FILL">
<path fill="#0163AF" stroke="none" d="
M 561.2 65.15
L 561.2 65.2
Q 556.6 66.9 540.6 77.65 545.7 83.9 538.3 90.7 530.95 97.7 517.3 103.3
L 504.05 108.95 486.55 115.7
Q 472.7 120.95 462.75 121 452.6 121.1 452 113.2 433 116.3 428.5 118.35 423.9 120.25 432.1 130.7 440.1 141.05 457.05 140.8 473.9 140.45 483.35 137.8 490.85 135.9 506.45 129.7
L 506.55 129.7 511.55 127.7 511.5 127.6 512.6 127.25 512.7 127.2
Q 527.4 121.35 535 117.2 543.9 112.35 556.05 101.05 568.55 89.7 567.2 76.55 565.95 63.5 561.2 65.15 Z"/>
</g>

<g id="dead_0_Layer0_3_MEMBER_6_MEMBER_0_MEMBER_0_FILL">
<path fill="#05104D" stroke="none" d="
M 338.65 237.6
L 338.7 237.65
Q 330.55 237.75 322.75 243.95
L 322.25 244.15
Q 314.2 250.9 311.4 259.35 309.75 265.45 311.05 270.55 311.75 273.1 312.95 274.7 317.2 280.9 325.45 280.65 332.65 280.8 339.6 276.25 340.8 275.5 342.1 274.3 350.25 267.95 352.65 258.85 354.7 252.1 353 247.1 352.45 245.6 351.2 243.8 347.15 237.6 338.65 237.6 Z"/>
</g>

<g id="dead_0_Layer0_3_MEMBER_6_MEMBER_0_MEMBER_1_FILL">
<path fill="#05104D" stroke="none" d="
M 708.7 96.5
L 708.2 96.7
Q 698.2 97.3 692.15 102.6 685.75 108.25 686.9 115.55 687.05 117.35 687.75 119.25 689.95 124.2 695.9 127.75 703.75 132.95 714 132.2 715.4 132.25 717.15 132 725.35 130.8 730.65 125.85 734.7 122.5 735.75 118.1 733.95 113.1 732.75 107.8
L 731.9 104.8 731.95 104.8
Q 729.8 102.5 726.95 100.6 719.1 96.2 708.7 96.5 Z"/>
</g>

<g id="dead_0_Layer0_4_FILL">
<path fill="#009DFF" stroke="none" d="
M 813.6 579.35
Q 823.45 578.45 834.05 577.55 844.35 576.05 857.5 577.2 870.5 578.3 877.7 577.2 883.5 576.35 888.45 575.55 894.1 574.9 921.7 572.7 919.9 567.55 929.05 554.4 934.1 547.25 935.55 544.65 938.5 539.45 938.05 536.3 934.55 536.5 931.55 538.65 928.5 540.85 922.45 541.1 913.45 541.5 900.55 540.7 885.7 539.6 877.8 539.15 848.3 537.55 823.7 542.25 816.15 543.55 800.4 544.65
L 786.1 545.55 785.8 545.6
Q 781.75 546.45 741.3 555.75 732.7 558.15 729.75 558.85 724.05 560.1 721.65 559.65
L 652.9 579.7
Q 626.45 590.3 597.85 602.3 540.65 626.25 529.95 633.15 503.95 649.8 498.1 652.85 491.95 656.1 464.25 663.3 461.85 663.85 458.45 661.3 458.1 661.05 451.85 655.45 442.35 647 434.45 648.8 429.25 649.15 421.8 653.55 414.45 657.85 412 657.95 409.25 658.05 404.8 654.8 402.4 653.05 396.25 647.55 384.15 636.7 378.4 636.3 372.65 635.9 362.45 626.8 351 616.65 343.8 614.3 321.75 600.35 313.7 587.75 290.35 551.15 259.35 533.45 252.25 529.35 238.55 523.3 228.5 518.9 225.55 516 231.8 522.6 272 586.35 312.35 650.3 313.65 651.7 323.8 662.9 332.2 668.25 340.85 673.65 347.4 676.75 353.4 679.6 367.85 685.8 381.3 691.55 405.6 698.25 429.85 704.95 474.8 700.75 519.9 696.6 541.35 684.95 586 660.65 655.45 621.55 716.1 595 775.55 584.5 794.2 581.15 813.6 579.35 Z"/>
</g>

<g id="dead_0_Layer0_6_FILL">
<path fill="#009DFF" stroke="none" d="
M 922.35 486.65
Q 941.2 489.7 967.05 492.65 985.55 495.45 995.45 502.2 1007.1 510.15 1018.8 530.3 1074.95 493.3 1080.15 489.75 1084.15 487.1 1087.45 465.8 1090.55 446 1089.6 443.1 1088.85 440.85 1086.8 438.4 1084.15 435.25 1080.05 432.8 1079.2 432.25 1077.35 432.1 1075 432 1073.7 431.9
L 1074.05 432.85
Q 1075.3 438.7 1075.1 441.5 1074.45 448.4 1036.95 445.15 1027.35 444.3 999 441.2 971.85 438.2 956.15 436.9 903.95 432.65 878.6 437.95 845 445 850.2 469.35 887.7 481.05 922.35 486.65 Z"/>
</g>

<g id="dead_0_Layer0_7_FILL">
<path fill="#009DFF" stroke="none" d="
M 1057.85 464.95
Q 1060.35 467.15 1065.25 467.5 1063.45 462.65 1053.85 453.7 1054.2 461.7 1057.85 464.95 Z"/>
</g>

<g id="dead_0_Layer0_8_FILL">
<path fill="#0163AF" stroke="none" d="
M 843.35 446.8
L 843.35 446.85
Q 809.55 462.25 750.05 481.35 702.7 496.55 656.1 508.95 639.15 513.4 617.1 516.55 615.95 516.7 575.55 521.75 536.95 526.35 524.9 527.95 480.8 534.5 439.35 538 392.5 542 359.65 541.1 331.45 539.9 319.65 538.85 301 537.25 286.4 533.75 255.45 526.4 210.15 501 208.5 500.1 213.7 503.85 221.6 509.55 224.5 512.6 257.35 547.4 281.15 570.4 305.55 594 336.7 621 367.8 647.95 399.85 657.9 410.95 661.4 423.1 663.05 429.8 663.95 439.75 664.8 470 668.15 540.9 645.15 546 643.5 572.95 624.8 601.1 605.3 601.35 605.2 636.4 587.9 663.2 578.8 685.5 571.2 732.45 559.6 752.2 554.7 785.4 549.8 818 544.95 843.45 543 866.75 541.2 889.75 541.4 901.8 541.55 916.8 541.9 916.45 540.35 905.9 524.85 894.75 508.5 882.3 491.5 847.8 444.4 843.35 446.8 Z"/>
</g>

<g id="dead_0_Layer0_9_FILL">
<path fill="#0163AF" stroke="none" d="
M 993.55 384.5
Q 983.35 383.1 978.55 382.45 970.15 381.3 964.95 380.1 950.75 376.85 943.1 369.3 943.9 383.5 900.2 414.55 884.3 425.9 867.1 436.1 851.6 445.3 845.55 447.5 860.65 455 905.7 463.4 933.2 468.5 968.15 473.25 985.9 475.2 995.8 480.6 1004 485.05 1019.85 499.95
L 1033.3 493.75
Q 1048.8 485.7 1059.15 476.35 1092.25 446.55 1061.25 415.65
L 1061.3 415.65
Q 1045.55 400.6 1026.45 392.9 1012.85 387.4 993.55 384.5 Z"/>
</g>

<g id="dead_0_Layer0_13_FILL">
<path fill="#009DFF" stroke="none" d="
M 877.7 58.4
Q 870.1 55.75 860.35 54.2 849.15 52.75 843.45 51.95 823.55 49.2 806.75 52.6 788 56.35 780.5 66.65
L 802.85 107
Q 823.8 144.7 836.55 218.35 842.9 255.15 845.1 284.4
L 845.1 284.45 868.65 195.55
Q 871.3 189.1 873.5 177.4 875.85 163.8 877.2 157.05 880.2 142.65 884.4 131.95 889.45 119.05 897.45 108.15
L 917.55 85.45
Q 897.75 65.4 877.7 58.4 Z"/>
</g>

<path id="dead_0_Layer3_0_MEMBER_3_1_STROKES" stroke="#843D7E" stroke-width="19" stroke-linejoin="miter" stroke-linecap="round" stroke-miterlimit="10" fill="none" d="
M 293.45 845.1
Q 293 853.4 296.3 863.25 298.4 869.5 303.75 880.45
L 313.65 900.85"/>

<path id="dead_0_Layer3_0_MEMBER_4_1_STROKES" stroke="#843D7E" stroke-width="19" stroke-linejoin="miter" stroke-linecap="round" stroke-miterlimit="10" fill="none" d="
M 334 856.45
L 353.55 883.6"/>

<path id="dead_0_Layer3_1_MEMBER_0_1_STROKES" stroke="#05104D" stroke-width="25" stroke-linejoin="round" stroke-linecap="round" fill="none" d="
M 1103.2 694.6
Q 1103.2 748.2 1080.15 795.65 1062.6 832 1031.55 864.75 959 938.95 851.65 982.65 722.05 1035.25 557.7 1035.25 428.05 1035.25 325.95 1003.7 222.7 971.85 121.15 899 12.5 810.8 12.5 694.6 12.5 553.8 172.25 454.05 180.9 448.65 196.7 444.25 205.65 441.7 223.85 437.1 239.15 432.7 247.2 427.1 257.6 419.95 260.15 408.75 271 360.9 296.35 328.9 320.4 298.55 358.95 280.7 394.55 264.2 445.6 257.1 490.5 250.85 554 251.15 625 251.45 684.25 264.85 739.8 277.35 780.25 300.25 819 322.15 839.35 350.85 859.45 379.2 858.75 410.15 858.5 421.25 867.9 428.2 875.25 433.65 890.8 437.9 899.75 440.3 918.8 444.65 935.15 448.85 943.45 454.05
L 947.35 456.45
Q 1103.2 555.45 1103.2 694.6 Z"/>

<path id="dead_0_Layer2_0_MEMBER_0_1_STROKES" stroke="#05104D" stroke-width="22" stroke-linejoin="miter" stroke-linecap="butt" stroke-miterlimit="10" fill="none" d="
M 962.1 668.75
Q 957.55 659.45 947.8 656.05 938 652.65 928.7 657.15
L 818.7 710.45 716.9 640.65
Q 708.35 634.8 698.2 636.7 688 638.6 682.15 647.15 676.25 655.7 678.2 665.9 680.1 676.05 688.6 681.9
L 766.9 735.55 682.6 776.4
Q 673.3 780.9 669.9 790.7 666.5 800.45 671 809.8 674.2 816.4 680.4 820.2 686.45 823.9 693.55 823.9 699.25 823.9 704.4 821.4
L 814.4 768.1 916.2 837.85
Q 922.6 842.25 930.3 842.25 936.4 842.25 941.8 839.45 947.35 836.6 950.95 831.4 956.8 822.85 954.9 812.7 953 802.5 944.45 796.65
L 866.2 743 950.5 702.15
Q 959.8 697.6 963.2 687.85 966.6 678.05 962.1 668.75 Z"/>

<path id="dead_0_Layer2_0_MEMBER_1_1_STROKES" stroke="#009DFF" stroke-width="15" stroke-linejoin="miter" stroke-linecap="round" stroke-miterlimit="10" fill="none" d="
M 706.55 653.35
L 934.15 809.35"/>

<path id="dead_0_Layer2_0_MEMBER_2_1_STROKES" stroke="#009DFF" stroke-width="15" stroke-linejoin="miter" stroke-linecap="round" stroke-miterlimit="10" fill="none" d="
M 943.35 671.75
L 697.3 791"/>

<path id="dead_0_Layer2_0_MEMBER_3_1_STROKES" stroke="#05104D" stroke-width="22" stroke-linejoin="miter" stroke-linecap="butt" stroke-miterlimit="10" fill="none" d="
M 163.25 668.75
Q 167.8 659.45 177.55 656.05 187.35 652.65 196.65 657.15
L 306.65 710.45 408.45 640.65
Q 417 634.8 427.2 636.7 437.35 638.6 443.2 647.15 449.1 655.7 447.2 665.9 445.3 676.05 436.75 681.9
L 358.45 735.55 442.75 776.4
Q 452.05 780.9 455.45 790.7 458.85 800.45 454.35 809.8 451.15 816.4 444.95 820.2 438.9 823.9 431.8 823.9 426.1 823.9 420.95 821.4
L 310.95 768.1 209.15 837.85
Q 202.75 842.25 195.05 842.25 188.95 842.25 183.55 839.45 178 836.6 174.4 831.4 168.5 822.85 170.45 812.7 172.35 802.5 180.85 796.65
L 259.15 743 174.85 702.15
Q 165.55 697.6 162.15 687.85 158.75 678.05 163.25 668.75 Z"/>

<path id="dead_0_Layer2_0_MEMBER_4_1_STROKES" stroke="#009DFF" stroke-width="15" stroke-linejoin="miter" stroke-linecap="round" stroke-miterlimit="10" fill="none" d="
M 418.8 653.35
L 191.2 809.35"/>

<path id="dead_0_Layer2_0_MEMBER_5_1_STROKES" stroke="#009DFF" stroke-width="15" stroke-linejoin="miter" stroke-linecap="round" stroke-miterlimit="10" fill="none" d="
M 181.95 671.75
L 428.05 791"/>

<path id="dead_0_Layer1_0_MEMBER_0_1_STROKES" stroke="#05104D" stroke-width="24" stroke-linejoin="miter" stroke-linecap="butt" stroke-miterlimit="10" fill="none" d="
M 842.15 949.4
Q 813.65 908.8 750 891.45 726.85 885.1 701.4 882.6 681.85 880.65 666.4 881.3 653.75 881.85 618 887.45 583.5 892.85 563.15 893.35 560.45 893.25 555.15 892.95
L 555.15 892.9 554.9 892.9 554.9 892.95
Q 547.05 893.25 546.85 893.25 526.55 892.55 492.1 886.85 456.45 880.9 443.75 880.25 428.35 879.45 408.75 881.2 383.25 883.5 360.05 889.6 296.3 906.4 267.4 946.7 260.1 956.9 255.75 974.45 251.5 991.6 251.5 1009.75 251.55 1028.8 256.4 1042.55 261.75 1057.75 272 1062.85 279.05 1066.4 288.05 1067.5 297.85 1068.75 307.05 1066.65 329.65 1061.45 338.4 1039.3 346.95 1017.7 371.7 1015.45 381.25 1014.6 396.6 1016.2 405.6 1017.15 425.25 1019.7 479.65 1025.95 540.35 1026.6
L 540.35 1026.65 568.5 1026.75 568.5 1026.7
Q 629.55 1026.6 683.65 1020.9 693.65 1019.85 712.3 1017.65 727.7 1016.2 737.25 1017.15 761.95 1019.65 770.3 1041.3 778.85 1063.55 801.4 1068.95 810.55 1071.15 820.4 1070 829.4 1069 836.5 1065.5 846.8 1060.45 852.3 1045.3 857.25 1031.65 857.45 1012.55 857.65 994.45 853.55 977.25 849.4 959.65 842.15 949.35
L 842.15 949.4 Z"/>

<path id="dead_0_Layer1_0_MEMBER_3_1_STROKES" stroke="#05104D" stroke-width="21" stroke-linejoin="round" stroke-linecap="round" fill="none" d="
M 670.9 986.1
L 665.35 968.8
Q 656.75 971.85 645.4 975 622.65 981.35 608.7 982.1 583.7 984.1 570.05 985 540.6 982.9 528.9 982.1 514.05 981.35 489.8 975
L 468.55 968.8 462.65 986.1
Q 454.4 1014.65 457.85 1042.7 460.7 1065.7 470.3 1082.95 482.35 1104.55 508.15 1117.95 531.15 1129.9 560.05 1133 567.3 1133.7 570.55 1133.7 574.3 1133.7 580.7 1132.85 607.5 1129.55 628.75 1117.65 652.6 1104.3 663.75 1082.95 672.75 1065.7 675.45 1042.7 678.65 1014.65 670.9 986.1 Z"/>

<path id="dead_0_Layer0_3_MEMBER_0_MEMBER_0_MEMBER_2_1_STROKES" stroke="#05104D" stroke-width="4" stroke-linejoin="round" stroke-linecap="round" fill="none" d="
M 254.3 554.9
L 253 553.25"/>

<path id="dead_0_Layer0_3_MEMBER_1_MEMBER_0_MEMBER_0_MEMBER_0_1_STROKES" stroke="#0163AF" stroke-width="20" stroke-linejoin="round" stroke-linecap="round" fill="none" d="
M 849.25 142.35
Q 868.9 153.4 879.7 162.4 889.7 170.75 896.65 181.3 900.9 187.75 909.9 205.35 920.35 225.7 929.35 240.8"/>

<path id="dead_0_Layer0_3_MEMBER_1_MEMBER_0_MEMBER_0_MEMBER_1_1_STROKES" stroke="#0163AF" stroke-width="20" stroke-linejoin="round" stroke-linecap="round" fill="none" d="
M 536.8 82.85
Q 572.5 75.1 605.6 72.55 641 69.8 673.95 72.9 718.3 77.05 752.9 95.4"/>

<path id="dead_0_Layer0_3_MEMBER_1_MEMBER_0_MEMBER_1_MEMBER_0_1_STROKES" stroke="#0163AF" stroke-width="20" stroke-linejoin="round" stroke-linecap="round" fill="none" d="
M 425.95 126.3
Q 196.15 261.55 236.1 512.6"/>

<path id="dead_0_Layer0_3_MEMBER_2_MEMBER_0_1_STROKES" stroke="#05104D" stroke-width="30" stroke-linejoin="round" stroke-linecap="round" fill="none" d="
M 815.3 92.25
Q 807.05 84.85 799.55 79.15 732.8 32.55 641.25 17.7 596.9 10.75 504.95 21.9 502.95 21.65 491.6 22.95 487.6 23.3 485.1 24.4 482.5 24.15 478.5 25.2 467.65 27.5 465.55 28.5 374.9 48.1 335.4 69.2 253.9 113.05 205.9 179.05 203.5 184.8 195.95 195.5
L 195.35 196.55"/>

<path id="dead_0_Layer0_3_MEMBER_2_MEMBER_1_1_STROKES" stroke="#05104D" stroke-width="30" stroke-linejoin="round" stroke-linecap="round" fill="none" d="
M 877.5 442.45
L 876.8 444.45
Q 893 429.3 899.15 421.3 905.45 412.85 925.4 376.85 945.55 340.9 936.7 287.9 927.7 234.65 885 173.4 851.75 125.85 818.55 95.35"/>

<path id="dead_0_Layer0_3_MEMBER_2_MEMBER_2_1_STROKES" stroke="#05104D" stroke-width="30" stroke-linejoin="round" stroke-linecap="round" fill="none" d="
M 252.45 549.55
Q 232.3 540.55 223.75 534.95 215.15 529.1 184.45 501.5 153.6 474.15 144.65 421.2 135.7 367.7 156.05 296.05 171.9 240.1 193.3 200.55"/>

<path id="dead_0_Layer0_3_MEMBER_5_1_STROKES" stroke="#05104D" stroke-width="26" stroke-linejoin="round" stroke-linecap="round" fill="none" d="
M 551.45 69.4
Q 543.95 59.7 526.6 59.4 510.55 59.1 489.85 66.5
L 482.95 69.05
M 438.65 114.5
Q 437.35 102.25 449.75 90.15 460.95 79 481.2 69.95"/>

<path id="dead_0_Layer0_5_1_STROKES" stroke="#05104D" stroke-width="30" stroke-linejoin="round" stroke-linecap="round" fill="none" d="
M 707.7 604.35
Q 671.85 612.2 652.25 620.05 637.2 626.05 623.5 635.95 615.45 641.95 610.95 645.3 602.7 651.4 595.25 656.25 573.55 670.3 541.3 684.95 519.9 696.6 474.8 700.8 429.65 704.95 405.55 698.3 381.8 691.75 367.8 685.8 353.8 679.8 347.4 676.75 340.55 673.5 332.2 668.25 323.6 662.8 313.65 651.7 305.5 642.8 290.8 627.3 261.8 591.1 223.45 547.4 179.25 497.1 173.15 489.75"/>

<path id="dead_0_Layer0_10_1_STROKES" stroke="#05104D" stroke-width="30" stroke-linejoin="round" stroke-linecap="round" fill="none" d="
M 1066.55 408.15
Q 1022.55 403.1 998.15 396.9 967.95 389.2 949.8 375.9"/>

<path id="dead_0_Layer0_11_1_STROKES" stroke="#05104D" stroke-width="30" stroke-linejoin="round" stroke-linecap="round" fill="none" d="
M 1014.45 548.4
Q 1039.6 538.55 1060.55 519.6 1067.95 512.95 1076.05 503.95 1080.6 498.95 1088.15 490.25 1092.9 484.95 1091.75 467.2 1089.4 447.75 1088.85 442.25 1081.75 429.15 1078.35 424.25 1075.6 420.35 1065 407.85"/>

<path id="dead_0_Layer0_12_1_STROKES" stroke="#05104D" stroke-width="30" stroke-linejoin="round" stroke-linecap="round" fill="none" d="
M 707.7 604.35
Q 708.55 604.25 728.55 600.3 753.65 595.6 778.55 591.85 859.55 579.8 922.3 580.65"/>

<path id="dead_0_Layer0_13_1_STROKES" stroke="#05104D" stroke-width="30" stroke-linejoin="miter" stroke-linecap="butt" stroke-miterlimit="10" fill="none" d="
M 845.1 284.45
L 868.65 195.55
Q 871.3 189.1 873.5 177.4 875.85 163.8 877.2 157.05 880.2 142.65 884.4 131.95 889.45 119.05 897.45 108.15
L 917.55 85.45
Q 897.75 65.4 877.7 58.4 870.1 55.75 860.35 54.2 849.15 52.75 843.45 51.95 823.55 49.2 806.75 52.6 788 56.35 780.5 66.65
L 802.85 107
Q 823.8 144.7 836.55 218.35 842.9 255.15 845.1 284.4
L 845.1 284.45 Z"/>

<path id="dead_0_Layer0_14_1_STROKES" stroke="#05104D" stroke-width="30" stroke-linejoin="miter" stroke-linecap="round" stroke-miterlimit="4" fill="none" d="
M 925.7 580.3
Q 931.75 560.05 931.9 539 931.9 536.6 931.4 535.55 923.9 527.85 915.25 518.5 897.85 499.65 890.75 488.05 901 493.85 914.65 495.25 916.5 495.45 926.85 496.15 934.7 496.7 940.3 497.55 968.6 501.95 985.05 510.2 1007.55 521.5 1009.9 540.55"/>

<path id="dead_0_Layer0_15_1_STROKES" stroke="#05104D" stroke-width="25" stroke-linejoin="bevel" stroke-linecap="butt" fill="none" d="
M 797.35 97
Q 792.8 92.4 785.75 91.15 779.05 90 772.55 92.25 761 96.25 752.55 109.1 742.7 124.1 741.35 144.2 740.15 162.5 746.1 181.5 751.1 197.45 761.6 215.5 768 226.55 782.1 247.1 793.7 264.05 815.85 313.2 826.15 336 829.4 342.6 835.45 354.8 837.45 354.65"/>

<path id="dead_0_Layer0_16_1_STROKES" stroke="#0163AF" stroke-width="19" stroke-linejoin="miter" stroke-linecap="round" stroke-miterlimit="10" fill="none" d="
M 854.6 382.15
Q 851.7 385.85 850.15 387.6 847.6 390.55 845.25 392.55 839.15 397.7 832.7 398.2 828.15 398.6 823.9 396.5 819.65 394.4 817.15 390.6 815.4 387.9 814.4 384.1 813.75 381.6 813.05 377.05"/>

<path id="dead_0_Layer0_17_1_STROKES" stroke="#0163AF" stroke-width="19" stroke-linejoin="miter" stroke-linecap="round" stroke-miterlimit="10" fill="none" d="
M 789.7 342.7
Q 775.6 310.45 758.4 278.75"/>

<path id="dead_0_Layer0_18_1_STROKES" stroke="#0163AF" stroke-width="19" stroke-linejoin="miter" stroke-linecap="round" stroke-miterlimit="10" fill="none" d="
M 355.25 472.6
Q 355.95 482.45 358.5 494.5 360.05 501.95 363.7 516.1 365.35 522.4 366.5 525.45 368.35 530.5 371 533.9 371.7 534.75 373.05 536.35 374.2 537.85 374.7 539.1 375.5 540.95 375.5 545.05 375.35 556.1 374.1 566.6"/>

<path id="dead_0_Layer0_19_1_STROKES" stroke="#0163AF" stroke-width="19" stroke-linejoin="miter" stroke-linecap="round" stroke-miterlimit="10" fill="none" d="
M 364.3 309
Q 360.9 319.35 359.55 324.9 357.35 333.85 357.25 341.25 357.1 350.65 359.95 359.45"/>

<path id="dead_0_Layer0_20_1_STROKES" stroke="#0163AF" stroke-width="19" stroke-linejoin="miter" stroke-linecap="round" stroke-miterlimit="10" fill="none" d="
M 377 115.7
Q 374.35 118.55 369.4 120.7 363.5 122.9 360.65 124.05 352.95 127.2 344.65 133.45 339.55 137.3 330.35 145.6"/>

<path id="dead_0_Layer0_21_1_STROKES" stroke="#0163AF" stroke-width="19" stroke-linejoin="miter" stroke-linecap="round" stroke-miterlimit="10" fill="none" d="
M 865.85 328.9
Q 871.9 321.85 874.3 314.9 875.6 311.2 876.65 304.15 881.45 272.65 880.55 240.65"/>

<path id="dead_0_Layer0_22_1_STROKES" stroke="#0163AF" stroke-width="19" stroke-linejoin="miter" stroke-linecap="round" stroke-miterlimit="10" fill="none" d="
M 581 111.9
Q 577.6 119.95 570.45 125.6 563.25 131.2 554.65 132.6"/>

<path id="dead_0_Layer0_23_1_STROKES" stroke="#0163AF" stroke-width="19" stroke-linejoin="miter" stroke-linecap="round" stroke-miterlimit="10" fill="none" d="
M 414.2 409.7
Q 416.25 446.4 424.95 482.35 433.65 518.3 448.65 551.85"/>

<path id="dead_0_Layer0_24_1_STROKES" stroke="#843D7E" stroke-width="19" stroke-linejoin="miter" stroke-linecap="round" stroke-miterlimit="10" fill="none" d="
M 866.55 900.65
Q 847.15 879.75 822.85 864.3 798.55 848.85 771.45 840.2"/>

<path id="dead_0_Layer0_25_1_STROKES" stroke="#843D7E" stroke-width="19" stroke-linejoin="miter" stroke-linecap="round" stroke-miterlimit="10" fill="none" d="
M 632.2 843.05
Q 626.3 841.35 618.4 842.55 614.7 843.1 604.25 845.85 595.4 848.15 590.4 848.4 583 848.75 577.5 845.7"/>

<path id="dead_0_Layer0_26_1_STROKES" stroke="#843D7E" stroke-width="19" stroke-linejoin="miter" stroke-linecap="round" stroke-miterlimit="10" fill="none" d="
M 1023.7 655.75
Q 1029.2 665.3 1030.6 676.5 1032.05 687.65 1029.1 698.3"/>

<path id="dead_0_Layer0_27_1_STROKES" stroke="#843D7E" stroke-width="19" stroke-linejoin="miter" stroke-linecap="round" stroke-miterlimit="10" fill="none" d="
M 1005.85 745.5
Q 1002.25 776.65 988 804.3"/>

<path id="dead_0_Layer0_28_1_STROKES" stroke="#843D7E" stroke-width="19" stroke-linejoin="miter" stroke-linecap="round" stroke-miterlimit="10" fill="none" d="
M 120.75 648.8
Q 112.4 672.1 108.75 687.6 104.75 704.65 104.6 719.4 104.45 734.1 108.05 751.2 111.35 766.45 119.05 789.9"/>
</defs>

<g transform="matrix( 0.18304443359375, 0, 0, 0.18304443359375, 74.1,133.6) ">
<g transform="matrix( 1, 0, 0, 1, 0,0) ">
<use xlink:href="#dead_0_Layer3_0_MEMBER_0_MEMBER_0_FILL"/>
</g>

<g transform="matrix( 1, 0, 0, 1, 0,0) ">
<use xlink:href="#dead_0_Layer3_0_MEMBER_1_MEMBER_0_FILL"/>
</g>

<g transform="matrix( 1, 0, 0, 1, 0,0) ">
<use xlink:href="#dead_0_Layer3_0_MEMBER_2_MEMBER_0_FILL"/>
</g>

<g transform="matrix( 1, 0, 0, 1, 0,0) ">
<use xlink:href="#dead_0_Layer3_0_MEMBER_2_MEMBER_1_FILL"/>
</g>

<g transform="matrix( 1, 0, 0, 1, 0,0) ">
<use xlink:href="#dead_0_Layer3_0_MEMBER_3_1_STROKES"/>
</g>

<g transform="matrix( 1, 0, 0, 1, 0,0) ">
<use xlink:href="#dead_0_Layer3_0_MEMBER_4_1_STROKES"/>
</g>

<g transform="matrix( 1, 0, 0, 1, 0,0) ">
<use xlink:href="#dead_0_Layer3_1_MEMBER_0_1_STROKES"/>
</g>

<g transform="matrix( 1, 0, 0, 1, 0,0) ">
<use xlink:href="#dead_0_Layer2_0_MEMBER_0_FILL"/>

<use xlink:href="#dead_0_Layer2_0_MEMBER_0_1_STROKES"/>
</g>

<g transform="matrix( 1, 0, 0, 1, 0,0) ">
<use xlink:href="#dead_0_Layer2_0_MEMBER_1_1_STROKES"/>
</g>

<g transform="matrix( 1, 0, 0, 1, 0,0) ">
<use xlink:href="#dead_0_Layer2_0_MEMBER_2_1_STROKES"/>
</g>

<g transform="matrix( 1, 0, 0, 1, 0,0) ">
<use xlink:href="#dead_0_Layer2_0_MEMBER_3_FILL"/>

<use xlink:href="#dead_0_Layer2_0_MEMBER_3_1_STROKES"/>
</g>

<g transform="matrix( 1, 0, 0, 1, 0,0) ">
<use xlink:href="#dead_0_Layer2_0_MEMBER_4_1_STROKES"/>
</g>

<g transform="matrix( 1, 0, 0, 1, 0,0) ">
<use xlink:href="#dead_0_Layer2_0_MEMBER_5_1_STROKES"/>
</g>

<g transform="matrix( 1, 0, 0, 1, 0,0) ">
<use xlink:href="#dead_0_Layer1_0_MEMBER_0_FILL"/>

<use xlink:href="#dead_0_Layer1_0_MEMBER_0_1_STROKES"/>
</g>

<g transform="matrix( 1, 0, 0, 1, 0,0) ">
<use xlink:href="#dead_0_Layer1_0_MEMBER_1_FILL"/>
</g>

<g transform="matrix( 1, 0, 0, 1, 0,0) ">
<use xlink:href="#dead_0_Layer1_0_MEMBER_2_FILL"/>
</g>

<g transform="matrix( 1, 0, 0, 1, 0,0) ">
<use xlink:href="#dead_0_Layer1_0_MEMBER_3_FILL"/>

<use xlink:href="#dead_0_Layer1_0_MEMBER_3_1_STROKES"/>
</g>

<g transform="matrix( 1, 0, 0, 1, 0,0) ">
<use xlink:href="#dead_0_Layer1_0_MEMBER_4_FILL"/>
</g>

<g transform="matrix( 1, 0, 0, 1, 0,0) ">
<use xlink:href="#dead_0_Layer0_0_FILL"/>
</g>

<g transform="matrix( 1, 0, 0, 1, 0,0) ">
<use xlink:href="#dead_0_Layer0_1_FILL"/>
</g>

<g transform="matrix( 1, 0, 0, 1, 708.4,50.7) ">
<g transform="matrix( 1, 0, 0, 1, 0,0) ">
<use filter="url(#Filter_1)" xlink:href="#Chepe_dead_svg_Assets_Layer_1__Path__24_0_Layer0_0_FILL"/>
</g>
</g>

<g transform="matrix( 1, 0, 0, 1, 0,0) ">
<use xlink:href="#dead_0_Layer0_3_MEMBER_0_MEMBER_0_MEMBER_0_FILL"/>
</g>

<g transform="matrix( 1, 0, 0, 1, 0,0) ">
<use xlink:href="#dead_0_Layer0_3_MEMBER_0_MEMBER_0_MEMBER_1_FILL"/>
</g>

<g transform="matrix( 1, 0, 0, 1, 0,0) ">
<use xlink:href="#dead_0_Layer0_3_MEMBER_0_MEMBER_0_MEMBER_2_1_STROKES"/>
</g>

<g transform="matrix( 1, 0, 0, 1, 0,0) ">
<use xlink:href="#dead_0_Layer0_3_MEMBER_1_MEMBER_0_MEMBER_0_MEMBER_0_1_STROKES"/>
</g>

<g transform="matrix( 1, 0, 0, 1, 0,0) ">
<use xlink:href="#dead_0_Layer0_3_MEMBER_1_MEMBER_0_MEMBER_0_MEMBER_1_1_STROKES"/>
</g>

<g transform="matrix( 1, 0, 0, 1, 0,0) ">
<use xlink:href="#dead_0_Layer0_3_MEMBER_1_MEMBER_0_MEMBER_1_MEMBER_0_1_STROKES"/>
</g>

<g transform="matrix( 1, 0, 0, 1, 0,0) ">
<use xlink:href="#dead_0_Layer0_3_MEMBER_2_MEMBER_0_1_STROKES"/>
</g>

<g transform="matrix( 1, 0, 0, 1, 0,0) ">
<use xlink:href="#dead_0_Layer0_3_MEMBER_2_MEMBER_1_1_STROKES"/>
</g>

<g transform="matrix( 1, 0, 0, 1, 0,0) ">
<use xlink:href="#dead_0_Layer0_3_MEMBER_2_MEMBER_2_1_STROKES"/>
</g>

<g transform="matrix( 1, 0, 0, 1, 0,0) ">
<use xlink:href="#dead_0_Layer0_3_MEMBER_3_FILL"/>
</g>

<g transform="matrix( 1, 0, 0, 1, 0,0) ">
<use xlink:href="#dead_0_Layer0_3_MEMBER_4_FILL"/>
</g>

<g transform="matrix( 1, 0, 0, 1, 0,0) ">
<use xlink:href="#dead_0_Layer0_3_MEMBER_5_1_STROKES"/>
</g>

<g transform="matrix( 1, 0, 0, 1, 0,0) ">
<use xlink:href="#dead_0_Layer0_3_MEMBER_6_MEMBER_0_MEMBER_0_FILL"/>
</g>

<g transform="matrix( 1, 0, 0, 1, 0,0) ">
<use xlink:href="#dead_0_Layer0_3_MEMBER_6_MEMBER_0_MEMBER_1_FILL"/>
</g>

<g transform="matrix( 1, 0, 0, 1, 0,0) ">
<use xlink:href="#dead_0_Layer0_4_FILL"/>
</g>

<g transform="matrix( 1, 0, 0, 1, 0,0) ">
<use xlink:href="#dead_0_Layer0_5_1_STROKES"/>
</g>

<g transform="matrix( 1, 0, 0, 1, 0,0) ">
<use xlink:href="#dead_0_Layer0_6_FILL"/>
</g>

<g transform="matrix( 1, 0, 0, 1, 0,0) ">
<use xlink:href="#dead_0_Layer0_7_FILL"/>
</g>

<g transform="matrix( 1, 0, 0, 1, 0,0) ">
<use xlink:href="#dead_0_Layer0_8_FILL"/>
</g>

<g transform="matrix( 1, 0, 0, 1, 0,0) ">
<use xlink:href="#dead_0_Layer0_9_FILL"/>
</g>

<g transform="matrix( 1, 0, 0, 1, 0,0) ">
<use xlink:href="#dead_0_Layer0_10_1_STROKES"/>
</g>

<g transform="matrix( 1, 0, 0, 1, 0,0) ">
<use xlink:href="#dead_0_Layer0_11_1_STROKES"/>
</g>

<g transform="matrix( 1, 0, 0, 1, 0,0) ">
<use xlink:href="#dead_0_Layer0_12_1_STROKES"/>
</g>

<g transform="matrix( 1, 0, 0, 1, 0,0) ">
<use xlink:href="#dead_0_Layer0_13_FILL"/>

<use xlink:href="#dead_0_Layer0_13_1_STROKES"/>
</g>

<g transform="matrix( 1, 0, 0, 1, 0,0) ">
<use xlink:href="#dead_0_Layer0_14_1_STROKES"/>
</g>

<g transform="matrix( 1, 0, 0, 1, 0,0) ">
<use xlink:href="#dead_0_Layer0_15_1_STROKES"/>
</g>

<g transform="matrix( 1, 0, 0, 1, 0,0) ">
<use xlink:href="#dead_0_Layer0_16_1_STROKES"/>
</g>

<g transform="matrix( 1, 0, 0, 1, 0,0) ">
<use xlink:href="#dead_0_Layer0_17_1_STROKES"/>
</g>

<g transform="matrix( 1, 0, 0, 1, 0,0) ">
<use xlink:href="#dead_0_Layer0_18_1_STROKES"/>
</g>

<g transform="matrix( 1, 0, 0, 1, 0,0) ">
<use xlink:href="#dead_0_Layer0_19_1_STROKES"/>
</g>

<g transform="matrix( 1, 0, 0, 1, 0,0) ">
<use xlink:href="#dead_0_Layer0_20_1_STROKES"/>
</g>

<g transform="matrix( 1, 0, 0, 1, 0,0) ">
<use xlink:href="#dead_0_Layer0_21_1_STROKES"/>
</g>

<g transform="matrix( 1, 0, 0, 1, 0,0) ">
<use xlink:href="#dead_0_Layer0_22_1_STROKES"/>
</g>

<g transform="matrix( 1, 0, 0, 1, 0,0) ">
<use xlink:href="#dead_0_Layer0_23_1_STROKES"/>
</g>

<g transform="matrix( 1, 0, 0, 1, 0,0) ">
<use xlink:href="#dead_0_Layer0_24_1_STROKES"/>
</g>

<g transform="matrix( 1, 0, 0, 1, 0,0) ">
<use xlink:href="#dead_0_Layer0_25_1_STROKES"/>
</g>

<g transform="matrix( 1, 0, 0, 1, 0,0) ">
<use xlink:href="#dead_0_Layer0_26_1_STROKES"/>
</g>

<g transform="matrix( 1, 0, 0, 1, 0,0) ">
<use xlink:href="#dead_0_Layer0_27_1_STROKES"/>
</g>

<g transform="matrix( 1, 0, 0, 1, 0,0) ">
<use xlink:href="#dead_0_Layer0_28_1_STROKES"/>
</g>
</g>
</svg>
