<svg width="26" height="22" viewBox="0 0 26 22" fill="none" xmlns="http://www.w3.org/2000/svg">
<path fill-rule="evenodd" clip-rule="evenodd" d="M25.136 0.241333H1.74388C1.34371 0.241333 0.908447 0.660528 0.908447 1.04593V6.67811C0.908447 7.56639 1.65699 8.28731 2.57931 8.28731C3.50163 8.28731 4.25017 7.56639 4.25017 6.67811V3.45972H22.6297V6.67811C22.6297 7.56639 23.3782 8.28731 24.3005 8.28731C25.2228 8.28731 25.9714 7.56639 25.9714 6.67811V1.04593C25.9714 0.609839 25.6406 0.241333 25.136 0.241333ZM16.7816 14.7241H15.1108V7.48271C15.1108 6.59444 14.3622 5.87352 13.4399 5.87352C12.5176 5.87352 11.7691 6.59444 11.7691 7.48271V14.7241H10.0982C9.7707 14.7241 9.01631 14.6476 8.68882 14.9655C8.36133 15.2817 8.36133 15.7958 8.68882 16.1128L12.8175 20.9332C12.9921 21.1021 13.2244 21.1746 13.4533 21.1625C13.6822 21.1746 13.9136 21.1021 14.0882 20.9332L18.2169 16.1128C18.5444 15.7958 18.5444 15.2817 18.2169 14.9655C17.8894 14.6476 17.3706 14.7241 16.7816 14.7241Z" fill="white"/>
</svg>
