<svg width="14" height="14" viewBox="0 0 14 14" fill="none" xmlns="http://www.w3.org/2000/svg">
<path d="M7 0C3.13425 0 0 3.13425 0 7C0 10.8657 3.13425 14 7 14C10.8657 14 14 10.8657 14 7C14 3.13425 10.8657 0 7 0ZM6.21192 3.78758C6.16525 3.32033 6.53275 2.91667 7 2.91667C7.46725 2.91667 7.83475 3.32033 7.78808 3.78758L7.32083 8.46008C7.30392 8.62458 7.16567 8.75 7 8.75C6.83433 8.75 6.69608 8.62458 6.67917 8.4595L6.21192 3.78758ZM7 11.2292C6.5975 11.2292 6.27083 10.9025 6.27083 10.5C6.27083 10.0975 6.5975 9.77083 7 9.77083C7.4025 9.77083 7.72917 10.0975 7.72917 10.5C7.72917 10.9025 7.4025 11.2292 7 11.2292Z" fill="#FF5B5B"/>
</svg>
