<svg width="1280" height="388" viewBox="0 0 1280 388" fill="none" xmlns="http://www.w3.org/2000/svg">
    <rect width="1280" height="452.211" rx="8" fill="#16182C"/>
    <g opacity="0.3">
        <path d="M21.6451 249.136C-0.857959 255.165 -21.6414 249.864 -25.0384 237.186C-28.3929 224.667 -13.0872 209.525 9.41589 203.496C31.7605 197.508 52.7448 202.926 56.0994 215.445C59.4964 228.123 43.9897 243.148 21.6451 249.136ZM-9.66882 240.031C-7.30006 241.265 -4.38235 242.012 -1.43354 242.241C4.39051 243.058 11.6605 242.299 19.2672 240.261C26.7154 238.265 33.3909 235.288 38.1845 231.625C40.4653 229.995 42.6187 227.889 44.0533 225.637C45.4454 223.225 46.5092 220.223 45.6175 216.895C44.7682 213.725 42.3456 211.657 39.9344 210.265C37.5656 209.031 34.6479 208.284 31.8151 207.854C25.8751 207.238 18.5626 207.839 11.1144 209.834C3.50773 211.873 -3.12535 215.009 -7.80292 218.47C-10.1997 220.301 -12.3531 222.407 -13.7877 224.66C-15.1798 227.071 -16.0851 230.031 -15.2359 233.201C-14.3442 236.528 -12.08 238.639 -9.66882 240.031ZM-10.1648 231.842C-11.6509 226.295 -1.63083 218.685 12.4732 214.906C26.4187 211.169 39.0602 212.707 40.5463 218.254C42.075 223.959 31.8539 231.453 17.9084 235.19C3.80437 238.969 -8.63611 237.547 -10.1648 231.842ZM-21.514 250.339C-18.8169 252.164 -15.6869 253.703 -12.2088 254.64L-9.49124 264.782C-15.2956 262.77 -19.0936 259.372 -20.2826 254.935L-21.514 250.339ZM-3.6558 266.276L-6.3734 256.133C-1.38417 257.005 4.11157 257.231 10.0713 256.653L12.7889 266.795C6.6707 267.415 1.17496 267.189 -3.6558 266.276ZM18.0299 266.07L15.3123 255.928C17.7743 255.608 20.3523 255.087 23.0464 254.365C25.5819 253.686 28.075 252.848 30.5256 251.851L33.2432 261.994C30.7926 262.99 28.257 263.669 25.7215 264.349C23.0275 265.071 20.4919 265.75 18.0299 266.07ZM38.1445 260.001L35.4269 249.859C40.7186 247.422 45.3651 244.478 49.4088 241.187L52.1689 251.487C48.2412 254.578 43.5947 257.522 38.1445 260.001ZM56.4332 247.118L53.7156 236.975C56.101 234.468 58.0421 231.57 59.6238 228.598L60.8552 233.194C62.0441 237.631 60.2957 242.516 56.4332 247.118Z" fill="#AAAAAA"/>
        <path d="M20.4367 77.9135C12.0302 73.06 7.46875 65.3746 10.2031 60.6386C12.9033 55.9617 21.8739 56.0101 30.2804 60.8636C38.6278 65.683 43.2142 73.4617 40.514 78.1386C37.7796 82.8746 28.784 82.7328 20.4367 77.9135ZM13.893 66.0053C14.2275 67.0666 14.8671 68.1463 15.6684 69.0826C17.1435 71.0393 19.5091 72.9576 22.3508 74.5982C25.1332 76.2047 27.9773 77.2942 30.4686 77.6275C31.6209 77.8192 32.8758 77.8332 33.9622 77.5922C35.0827 77.2919 36.2808 76.7207 36.9986 75.4775C37.6822 74.2934 37.5778 72.9702 37.2776 71.8497C36.9432 70.7883 36.3036 69.7086 35.5956 68.7473C34.0271 66.8156 31.6957 64.8381 28.9133 63.2317C26.0716 61.591 23.1933 60.5607 20.7954 60.2024C19.5497 60.0358 18.2949 60.0217 17.2085 60.2628C16.0879 60.563 14.949 61.1684 14.2654 62.3525C13.5477 63.5957 13.5928 64.8847 13.893 66.0053ZM16.1599 63.4462C17.3561 61.3742 22.5506 62.0841 27.8195 65.1261C33.0292 68.1339 36.3004 72.3117 35.1042 74.3837C33.8737 76.5149 28.6542 75.7116 23.4445 72.7038C18.1756 69.6618 14.9294 65.5774 16.1599 63.4462ZM7.36621 65.5522C7.62313 66.8846 8.09183 68.2603 8.84067 69.5609L6.65317 73.3498C5.53571 71.047 5.41797 68.9267 6.375 67.2691L7.36621 65.5522ZM7.93237 75.5091L10.1199 71.7203C11.3332 73.4469 12.8858 75.1327 14.8119 76.7183L12.6244 80.5072C10.6391 78.8874 9.08646 77.2016 7.93237 75.5091ZM14.3822 81.8378L16.5697 78.0489C17.3893 78.68 18.3023 79.2861 19.3088 79.8671C20.256 80.414 21.2374 80.9017 22.2529 81.3301L20.0654 85.119C19.0499 84.6905 18.1027 84.1437 17.1554 83.5968C16.149 83.0157 15.2018 82.4689 14.3822 81.8378ZM22.0966 85.976L24.2841 82.1871C26.5612 83.0282 28.7974 83.5299 30.9586 83.7515L28.7369 87.5996C26.6691 87.353 24.4329 86.8512 22.0966 85.976ZM31.2808 87.5685L33.4683 83.7797C34.9099 83.7437 36.3356 83.4617 37.6771 83.0522L36.6859 84.7691C35.7289 86.4267 33.7746 87.3507 31.2808 87.5685Z" fill="#AAAAAA"/>
        <path d="M148.823 16.5678C137.571 19.5826 127.179 16.9318 125.481 10.593C123.804 4.3333 131.456 -3.23741 142.708 -6.25225C153.88 -9.24585 164.372 -6.5371 166.05 -0.277448C167.748 6.06144 159.995 13.5741 148.823 16.5678ZM133.166 12.0157C134.35 12.6326 135.809 13.006 137.283 13.1205C140.195 13.5292 143.83 13.1496 147.634 12.1305C151.358 11.1327 154.695 9.64383 157.092 7.81266C158.233 6.99755 159.309 5.94472 160.027 4.81835C160.723 3.61274 161.255 2.11142 160.809 0.447463C160.384 -1.13726 159.173 -2.17149 157.967 -2.86755C156.783 -3.48437 155.324 -3.8578 153.908 -4.07275C150.938 -4.38096 147.281 -4.08067 143.557 -3.0828C139.754 -2.0637 136.437 -0.495639 134.099 1.23506C132.9 2.15065 131.823 3.20347 131.106 4.32984C130.41 5.53545 129.957 7.01554 130.382 8.60026C130.828 10.2642 131.96 11.3197 133.166 12.0157ZM132.918 7.92086C132.175 5.1476 137.185 1.34233 144.237 -0.547247C151.209 -2.4156 157.53 -1.6464 158.273 1.12686C159.037 3.97936 153.927 7.72662 146.954 9.59497C139.902 11.4846 133.682 10.7734 132.918 7.92086ZM127.243 17.1695C128.592 18.0821 130.157 18.8517 131.896 19.3199L133.254 24.391C130.352 23.3852 128.453 21.686 127.859 19.4674L127.243 17.1695ZM136.172 25.1379L134.813 20.0667C137.308 20.5023 140.056 20.6153 143.036 20.3264L144.394 25.3975C141.335 25.7076 138.587 25.5947 136.172 25.1379ZM147.015 25.035L145.656 19.9639C146.887 19.8039 148.176 19.5435 149.523 19.1825C150.791 18.8428 152.038 18.4239 153.263 17.9257L154.622 22.9968C153.396 23.495 152.129 23.8347 150.861 24.1744C149.514 24.5353 148.246 24.875 147.015 25.035ZM157.072 22.0005L155.713 16.9294C158.359 15.7109 160.683 14.2391 162.704 12.5933L164.084 17.7437C162.121 19.289 159.797 20.7608 157.072 22.0005ZM166.217 15.5588L164.858 10.4877C166.051 9.23393 167.021 7.78493 167.812 6.29915L168.428 8.597C169.022 10.8156 168.148 13.2579 166.217 15.5588Z" fill="#AAAAAA"/>
        <path d="M148.823 16.5678C137.571 19.5826 127.179 16.9318 125.481 10.593C123.804 4.3333 131.456 -3.23741 142.708 -6.25225C153.88 -9.24585 164.372 -6.5371 166.05 -0.277448C167.748 6.06144 159.995 13.5741 148.823 16.5678ZM133.166 12.0157C134.35 12.6326 135.809 13.006 137.283 13.1205C140.195 13.5292 143.83 13.1496 147.634 12.1305C151.358 11.1327 154.695 9.64383 157.092 7.81266C158.233 6.99755 159.309 5.94472 160.027 4.81835C160.723 3.61274 161.255 2.11142 160.809 0.447463C160.384 -1.13726 159.173 -2.17149 157.967 -2.86755C156.783 -3.48437 155.324 -3.8578 153.908 -4.07275C150.938 -4.38096 147.281 -4.08067 143.557 -3.0828C139.754 -2.0637 136.437 -0.495639 134.099 1.23506C132.9 2.15065 131.823 3.20347 131.106 4.32984C130.41 5.53545 129.957 7.01554 130.382 8.60026C130.828 10.2642 131.96 11.3197 133.166 12.0157ZM132.918 7.92086C132.175 5.1476 137.185 1.34233 144.237 -0.547247C151.209 -2.4156 157.53 -1.6464 158.273 1.12686C159.037 3.97936 153.927 7.72662 146.954 9.59497C139.902 11.4846 133.682 10.7734 132.918 7.92086ZM127.243 17.1695C128.592 18.0821 130.157 18.8517 131.896 19.3199L133.254 24.391C130.352 23.3852 128.453 21.686 127.859 19.4674L127.243 17.1695ZM136.172 25.1379L134.813 20.0667C137.308 20.5023 140.056 20.6153 143.036 20.3264L144.394 25.3975C141.335 25.7076 138.587 25.5947 136.172 25.1379ZM147.015 25.035L145.656 19.9639C146.887 19.8039 148.176 19.5435 149.523 19.1825C150.791 18.8428 152.038 18.4239 153.263 17.9257L154.622 22.9968C153.396 23.495 152.129 23.8347 150.861 24.1744C149.514 24.5353 148.246 24.875 147.015 25.035ZM157.072 22.0005L155.713 16.9294C158.359 15.7109 160.683 14.2391 162.704 12.5933L164.084 17.7437C162.121 19.289 159.797 20.7608 157.072 22.0005ZM166.217 15.5588L164.858 10.4877C166.051 9.23393 167.021 7.78493 167.812 6.29915L168.428 8.597C169.022 10.8156 168.148 13.2579 166.217 15.5588Z" fill="#AAAAAA"/>
        <path d="M1247.63 128.701C1240.13 130.711 1233.21 128.943 1232.07 124.717C1230.96 120.544 1236.06 115.497 1243.56 113.487C1251.01 111.492 1258 113.297 1259.12 117.471C1260.25 121.696 1255.08 126.705 1247.63 128.701ZM1237.2 125.666C1237.99 126.077 1238.96 126.326 1239.94 126.402C1241.88 126.675 1244.31 126.422 1246.84 125.742C1249.32 125.077 1251.55 124.085 1253.15 122.864C1253.91 122.321 1254.63 121.619 1255.1 120.868C1255.57 120.064 1255.92 119.063 1255.63 117.954C1255.34 116.897 1254.53 116.208 1253.73 115.744C1252.94 115.333 1251.97 115.084 1251.02 114.94C1249.04 114.735 1246.61 114.935 1244.12 115.6C1241.59 116.28 1239.38 117.325 1237.82 118.479C1237.02 119.089 1236.3 119.791 1235.82 120.542C1235.36 121.346 1235.06 122.332 1235.34 123.389C1235.64 124.498 1236.39 125.202 1237.2 125.666ZM1237.03 122.936C1236.54 121.087 1239.88 118.55 1244.58 117.291C1249.23 116.045 1253.44 116.558 1253.94 118.407C1254.44 120.308 1251.04 122.807 1246.39 124.052C1241.69 125.312 1237.54 124.838 1237.03 122.936ZM1233.25 129.102C1234.15 129.71 1235.19 130.223 1236.35 130.535L1237.26 133.916C1235.32 133.246 1234.06 132.113 1233.66 130.634L1233.25 129.102ZM1239.2 134.414L1238.3 131.033C1239.96 131.324 1241.79 131.399 1243.78 131.206L1244.68 134.587C1242.64 134.794 1240.81 134.719 1239.2 134.414ZM1246.43 134.346L1245.52 130.965C1246.34 130.858 1247.2 130.684 1248.1 130.444C1248.95 130.217 1249.78 129.938 1250.59 129.606L1251.5 132.987C1250.68 133.319 1249.84 133.545 1248.99 133.772C1248.1 134.012 1247.25 134.239 1246.43 134.346ZM1253.13 132.322L1252.23 128.942C1253.99 128.129 1255.54 127.148 1256.89 126.051L1257.81 129.485C1256.5 130.515 1254.95 131.496 1253.13 132.322ZM1259.23 128.028L1258.32 124.647C1259.12 123.811 1259.77 122.845 1260.29 121.855L1260.7 123.387C1261.1 124.866 1260.52 126.494 1259.23 128.028Z" fill="#AAAAAA"/>
        <path d="M1270 54.5C1254.47 54.5 1242 47.5 1242 38.75C1242 30.1094 1254.47 23 1270 23C1285.42 23 1298 30.1094 1298 38.75C1298 47.5 1285.42 54.5 1270 54.5ZM1251.41 43.2344C1252.72 44.4375 1254.47 45.4219 1256.33 46.0781C1259.94 47.6094 1264.75 48.375 1270 48.375C1275.14 48.375 1279.95 47.6094 1283.67 46.0781C1285.42 45.4219 1287.17 44.4375 1288.48 43.2344C1289.8 41.9219 1291 40.1719 1291 37.875C1291 35.6875 1289.8 33.9375 1288.48 32.625C1287.17 31.4219 1285.42 30.4375 1283.67 29.6719C1279.95 28.25 1275.14 27.375 1270 27.375C1264.75 27.375 1259.94 28.25 1256.33 29.6719C1254.47 30.4375 1252.72 31.4219 1251.41 32.625C1250.09 33.9375 1249 35.6875 1249 37.875C1249 40.1719 1250.09 41.9219 1251.41 43.2344ZM1252.5 37.875C1252.5 34.0469 1260.27 30.875 1270 30.875C1279.62 30.875 1287.5 34.0469 1287.5 37.875C1287.5 41.8125 1279.62 44.875 1270 44.875C1260.27 44.875 1252.5 41.8125 1252.5 37.875ZM1242 47.8281C1243.42 49.4688 1245.17 51 1247.25 52.2031V59.2031C1243.86 56.9062 1242 54.0625 1242 51V47.8281ZM1250.75 61.1719V54.1719C1253.81 55.5938 1257.31 56.6875 1261.25 57.3438V64.3438C1257.2 63.6875 1253.7 62.5938 1250.75 61.1719ZM1264.75 64.7812V57.7812C1266.39 58 1268.14 58.1094 1270 58.1094C1271.75 58.1094 1273.5 58 1275.25 57.7812V64.7812C1273.5 65 1271.75 65 1270 65C1268.14 65 1266.39 65 1264.75 64.7812ZM1278.75 64.3438V57.3438C1282.58 56.6875 1286.08 55.5938 1289.25 54.1719V61.2812C1286.19 62.5938 1282.69 63.6875 1278.75 64.3438ZM1292.75 59.2031V52.2031C1294.72 51 1296.47 49.4688 1298 47.8281V51C1298 54.0625 1296.03 56.9062 1292.75 59.2031Z" fill="#AAAAAA"/>
        <path d="M1222.5 236.438C1212.79 236.438 1205 232.062 1205 226.594C1205 221.193 1212.79 216.75 1222.5 216.75C1232.14 216.75 1240 221.193 1240 226.594C1240 232.062 1232.14 236.438 1222.5 236.438ZM1210.88 229.396C1211.7 230.148 1212.79 230.764 1213.96 231.174C1216.21 232.131 1219.22 232.609 1222.5 232.609C1225.71 232.609 1228.72 232.131 1231.04 231.174C1232.14 230.764 1233.23 230.148 1234.05 229.396C1234.87 228.576 1235.62 227.482 1235.62 226.047C1235.62 224.68 1234.87 223.586 1234.05 222.766C1233.23 222.014 1232.14 221.398 1231.04 220.92C1228.72 220.031 1225.71 219.484 1222.5 219.484C1219.22 219.484 1216.21 220.031 1213.96 220.92C1212.79 221.398 1211.7 222.014 1210.88 222.766C1210.06 223.586 1209.38 224.68 1209.38 226.047C1209.38 227.482 1210.06 228.576 1210.88 229.396ZM1211.56 226.047C1211.56 223.654 1216.42 221.672 1222.5 221.672C1228.52 221.672 1233.44 223.654 1233.44 226.047C1233.44 228.508 1228.52 230.422 1222.5 230.422C1216.42 230.422 1211.56 228.508 1211.56 226.047ZM1205 232.268C1205.89 233.293 1206.98 234.25 1208.28 235.002V239.377C1206.16 237.941 1205 236.164 1205 234.25V232.268ZM1210.47 240.607V236.232C1212.38 237.121 1214.57 237.805 1217.03 238.215V242.59C1214.5 242.18 1212.31 241.496 1210.47 240.607ZM1219.22 242.863V238.488C1220.24 238.625 1221.34 238.693 1222.5 238.693C1223.59 238.693 1224.69 238.625 1225.78 238.488V242.863C1224.69 243 1223.59 243 1222.5 243C1221.34 243 1220.24 243 1219.22 242.863ZM1227.97 242.59V238.215C1230.36 237.805 1232.55 237.121 1234.53 236.232V240.676C1232.62 241.496 1230.43 242.18 1227.97 242.59ZM1236.72 239.377V235.002C1237.95 234.25 1239.04 233.293 1240 232.268V234.25C1240 236.164 1238.77 237.941 1236.72 239.377Z" fill="#AAAAAA"/>
        <path d="M1270.76 365.956C1243.01 351.991 1227.03 328.274 1234.9 312.643C1242.67 297.206 1271.33 295.717 1299.08 309.681C1326.63 323.548 1342.71 347.558 1334.94 362.995C1327.07 378.626 1298.31 379.822 1270.76 365.956ZM1247.67 329.111C1248.93 332.441 1251.17 335.773 1253.9 338.617C1258.98 344.598 1266.88 350.293 1276.26 355.014C1285.45 359.636 1294.73 362.595 1302.75 363.203C1306.47 363.604 1310.48 363.419 1313.91 362.45C1317.43 361.285 1321.16 359.241 1323.22 355.137C1325.19 351.23 1324.61 347.021 1323.45 343.496C1322.18 340.167 1319.94 336.835 1317.5 333.894C1312.14 328.01 1304.33 322.119 1295.15 317.497C1285.77 312.777 1276.38 310.013 1268.66 309.308C1264.65 309.004 1260.63 309.189 1257.21 310.158C1253.68 311.323 1250.16 313.465 1248.19 317.373C1246.12 321.477 1246.5 325.587 1247.67 329.111ZM1254.44 320.52C1257.88 313.682 1274.61 314.997 1292 323.75C1309.19 332.404 1320.41 345.152 1316.97 351.99C1313.43 359.025 1296.61 357.415 1279.41 348.761C1262.02 340.008 1250.9 327.555 1254.44 320.52ZM1226.73 328.861C1227.8 333.07 1229.55 337.379 1232.18 341.397L1225.88 353.902C1221.89 346.75 1221.13 339.998 1223.88 334.527L1226.73 328.861ZM1230.37 360.567L1236.66 348.061C1240.85 353.355 1246.12 358.456 1252.57 363.169L1246.27 375.674C1239.63 370.863 1234.36 365.762 1230.37 360.567ZM1252.13 379.603L1258.43 367.097C1261.16 368.963 1264.19 370.732 1267.51 372.404C1270.64 373.977 1273.86 375.356 1277.18 376.538L1270.89 389.044C1267.57 387.861 1264.44 386.287 1261.32 384.714C1257.99 383.042 1254.87 381.469 1252.13 379.603ZM1277.54 391.409L1283.83 378.904C1291.26 381.173 1298.5 382.366 1305.44 382.678L1299.05 395.379C1292.4 394.97 1285.16 393.777 1277.54 391.409ZM1307.17 394.813L1313.46 382.308C1318.06 381.929 1322.57 380.767 1326.78 379.213L1323.92 384.879C1321.17 390.35 1315.1 393.66 1307.17 394.813Z" fill="#AAAAAA"/>
    </g>
</svg>
