<svg width="416" height="192" viewBox="0 0 416 192" fill="none" xmlns="http://www.w3.org/2000/svg">
    <g clip-path="url(#clip0_44_46)">
        <mask id="mask0_44_46" style="mask-type:luminance" maskUnits="userSpaceOnUse" x="0" y="0" width="416"
              height="192">
            <path d="M408 0H8C3.58172 0 0 3.58172 0 8V184C0 188.418 3.58172 192 8 192H408C412.418 192 416 188.418 416 184V8C416 3.58172 412.418 0 408 0Z"
                  fill="white"/>
        </mask>
        <g mask="url(#mask0_44_46)">
            <path d="M408 0H8C3.58172 0 0 3.58172 0 8V184C0 188.418 3.58172 192 8 192H408C412.418 192 416 188.418 416 184V8C416 3.58172 412.418 0 408 0Z"
                  fill="#16182C"/>
            <g style="mix-blend-mode:luminosity" opacity="0.2">
                <path d="M315.356 59.7011C312.485 71.219 300.818 78.2285 289.297 75.3563C277.781 72.4847 270.771 60.8184 273.644 49.3013C276.515 37.7821 288.182 30.7718 299.699 33.6434C311.219 36.5149 318.228 48.1826 315.356 59.7011Z"
                      fill="#F7931A"/>
                <path d="M303.98 51.4371C304.408 48.5763 302.23 47.0384 299.251 46.0124L300.217 42.1371L297.858 41.5492L296.917 45.3224C296.297 45.1679 295.66 45.0221 295.027 44.8777L295.975 41.0796L293.617 40.4917L292.65 44.3657C292.136 44.2488 291.632 44.1332 291.143 44.0116L291.146 43.9995L287.892 43.1872L287.265 45.7067C287.265 45.7067 289.015 46.1078 288.978 46.1327C289.934 46.3712 290.106 47.0034 290.078 47.5047L288.977 51.9195C289.043 51.9363 289.128 51.9605 289.222 51.9981C289.144 51.9786 289.06 51.9571 288.973 51.9363L287.43 58.1209C287.313 58.4111 287.017 58.8465 286.349 58.6812C286.372 58.7155 284.634 58.2532 284.634 58.2532L283.463 60.9535L286.533 61.7187C287.104 61.8618 287.664 62.0116 288.215 62.1527L287.239 66.0724L289.595 66.6603L290.562 62.7823C291.206 62.957 291.831 63.1182 292.442 63.2701L291.479 67.1299L293.838 67.7178L294.814 63.8055C298.837 64.5668 301.862 64.2597 303.135 60.6215C304.162 57.6922 303.084 56.0025 300.968 54.9006C302.509 54.5452 303.67 53.5313 303.98 51.4371ZM298.59 58.995C297.861 61.9243 292.928 60.3407 291.329 59.9436L292.624 54.7508C294.223 55.1498 299.352 55.94 298.59 58.995ZM299.319 51.3948C298.654 54.0594 294.549 52.7056 293.217 52.3737L294.391 47.6639C295.723 47.9958 300.012 48.6153 299.319 51.3948Z"
                      fill="white"/>
                <path d="M345.641 4.90293C344.038 11.3315 337.526 15.2438 331.096 13.6407C324.669 12.038 320.756 5.52655 322.359 -0.901636C323.962 -7.33095 330.473 -11.2436 336.902 -9.64092C343.331 -8.03819 347.244 -1.52601 345.641 4.90293Z"
                      fill="#F7931A"/>
                <path d="M339.291 0.290225C339.53 -1.30651 338.314 -2.16488 336.652 -2.7375L337.191 -4.90048L335.874 -5.2286L335.349 -3.12262C335.003 -3.20887 334.648 -3.29024 334.294 -3.37087L334.823 -5.49073L333.507 -5.81885L332.967 -3.65662C332.681 -3.72187 332.4 -3.78636 332.127 -3.85424L332.128 -3.86099L330.312 -4.31437L329.962 -2.90813C329.962 -2.90813 330.939 -2.68426 330.918 -2.67038C331.451 -2.53726 331.548 -2.18439 331.532 -1.90464L330.917 0.559466C330.954 0.568842 331.002 0.582343 331.054 0.603343C331.01 0.592468 330.964 0.580465 330.915 0.56884L330.054 4.02068C329.989 4.18268 329.823 4.42567 329.451 4.33342C329.464 4.35255 328.494 4.09455 328.494 4.09455L327.84 5.60167L329.553 6.02878C329.872 6.10866 330.185 6.19228 330.492 6.27103L329.947 8.45876L331.262 8.78688L331.802 6.6224C332.161 6.7199 332.51 6.80991 332.852 6.89466L332.314 9.04901L333.63 9.37713L334.175 7.19353C336.421 7.6184 338.109 7.44702 338.82 5.41641C339.393 3.78143 338.791 2.83832 337.61 2.22333C338.47 2.02495 339.118 1.45909 339.291 0.290225ZM336.283 4.50855C335.876 6.14354 333.123 5.25966 332.23 5.03804L332.953 2.13969C333.846 2.36244 336.708 2.80344 336.283 4.50855ZM336.69 0.266593C336.319 1.75383 334.027 0.998211 333.284 0.812963L333.939 -1.81576C334.683 -1.63051 337.077 -1.28477 336.69 0.266593Z"
                      fill="white"/>
                <path d="M283.536 5.24961C281.466 13.5532 273.055 18.6066 264.749 16.5359C256.447 14.4657 251.393 6.05512 253.464 -2.24796C255.534 -10.5525 263.945 -15.6064 272.248 -13.5362C280.553 -11.466 285.606 -3.05443 283.536 5.24961Z"
                      fill="#F7931A"/>
                <path d="M275.334 -0.708241C275.643 -2.77069 274.073 -3.87941 271.925 -4.61905L272.622 -7.4129L270.921 -7.83672L270.243 -5.1165C269.796 -5.2279 269.336 -5.33301 268.88 -5.43715L269.563 -8.1753L267.863 -8.59912L267.166 -5.80625C266.796 -5.89053 266.433 -5.97383 266.08 -6.0615L266.082 -6.07022L263.736 -6.65583L263.284 -4.83944C263.284 -4.83944 264.546 -4.55027 264.519 -4.53235C265.208 -4.3604 265.332 -3.90461 265.312 -3.54327L264.518 -0.360469C264.566 -0.34836 264.627 -0.33092 264.695 -0.303796C264.638 -0.317843 264.578 -0.333347 264.515 -0.348363L263.403 4.11027C263.319 4.31952 263.105 4.63339 262.624 4.51423C262.641 4.53893 261.387 4.20569 261.387 4.20569L260.543 6.15238L262.756 6.70407C263.168 6.80724 263.572 6.91525 263.969 7.01697L263.265 9.84279L264.964 10.2666L265.661 7.47083C266.125 7.59676 266.576 7.71302 267.016 7.82249L266.322 10.6052L268.023 11.029L268.726 8.20853C271.627 8.75732 273.808 8.53596 274.726 5.91309C275.465 3.80124 274.689 2.58305 273.163 1.78869C274.274 1.53246 275.111 0.801541 275.334 -0.708241ZM271.448 4.74044C270.923 6.85229 267.367 5.71062 266.214 5.42436L267.148 1.68066C268.301 1.96838 271.998 2.53801 271.448 4.74044ZM271.974 -0.738765C271.495 1.18225 268.535 0.206242 267.575 -0.0330372L268.422 -3.42846C269.382 -3.18918 272.474 -2.7426 271.974 -0.738765Z"
                      fill="white"/>
                <path d="M393.536 33.2496C391.466 41.5532 383.055 46.6066 374.749 44.5359C366.447 42.4657 361.393 34.0551 363.464 25.7521C365.534 17.4475 373.945 12.3936 382.248 14.4638C390.553 16.534 395.606 24.9456 393.536 33.2496Z"
                      fill="#F7931A"/>
                <path d="M385.334 27.2918C385.643 25.2293 384.073 24.1206 381.925 23.381L382.622 20.5871L380.921 20.1633L380.243 22.8835C379.796 22.7721 379.336 22.667 378.88 22.5629L379.563 19.8247L377.863 19.4009L377.166 22.1938C376.796 22.1095 376.433 22.0262 376.08 21.9385L376.082 21.9298L373.736 21.3442L373.284 23.1606C373.284 23.1606 374.546 23.4497 374.519 23.4676C375.208 23.6396 375.332 24.0954 375.312 24.4567L374.518 27.6395C374.566 27.6516 374.627 27.6691 374.695 27.6962C374.638 27.6822 374.578 27.6667 374.515 27.6516L373.403 32.1103C373.319 32.3195 373.105 32.6334 372.624 32.5142C372.641 32.5389 371.387 32.2057 371.387 32.2057L370.543 34.1524L372.756 34.7041C373.168 34.8072 373.572 34.9152 373.969 35.017L373.265 37.8428L374.964 38.2666L375.661 35.4708C376.125 35.5968 376.576 35.713 377.016 35.8225L376.322 38.6052L378.023 39.029L378.726 36.2085C381.627 36.7573 383.808 36.536 384.726 33.9131C385.465 31.8012 384.689 30.5831 383.163 29.7887C384.274 29.5325 385.111 28.8015 385.334 27.2918ZM381.448 32.7404C380.923 34.8523 377.367 33.7106 376.214 33.4244L377.148 29.6807C378.301 29.9684 381.998 30.538 381.448 32.7404ZM381.974 27.2612C381.495 29.1822 378.535 28.2062 377.575 27.967L378.422 24.5715C379.382 24.8108 382.474 25.2574 381.974 27.2612Z"
                      fill="white"/>
                <path d="M345.641 4.90293C344.038 11.3315 337.526 15.2438 331.096 13.6407C324.669 12.038 320.756 5.52655 322.359 -0.901636C323.962 -7.33095 330.473 -11.2436 336.902 -9.64092C343.331 -8.03819 347.244 -1.52601 345.641 4.90293Z"
                      fill="#F7931A"/>
                <path d="M339.291 0.290225C339.53 -1.30651 338.314 -2.16488 336.652 -2.7375L337.191 -4.90048L335.874 -5.2286L335.349 -3.12262C335.003 -3.20887 334.648 -3.29024 334.294 -3.37087L334.823 -5.49073L333.507 -5.81885L332.967 -3.65662C332.681 -3.72187 332.4 -3.78636 332.127 -3.85424L332.128 -3.86099L330.312 -4.31437L329.962 -2.90813C329.962 -2.90813 330.939 -2.68426 330.918 -2.67038C331.451 -2.53726 331.548 -2.18439 331.532 -1.90464L330.917 0.559466C330.954 0.568842 331.002 0.582343 331.054 0.603343C331.01 0.592468 330.964 0.580465 330.915 0.56884L330.054 4.02068C329.989 4.18268 329.823 4.42567 329.451 4.33342C329.464 4.35255 328.494 4.09455 328.494 4.09455L327.84 5.60167L329.553 6.02878C329.872 6.10866 330.185 6.19228 330.492 6.27103L329.947 8.45876L331.262 8.78688L331.802 6.6224C332.161 6.7199 332.51 6.80991 332.852 6.89466L332.314 9.04901L333.63 9.37713L334.175 7.19353C336.421 7.6184 338.109 7.44702 338.82 5.41641C339.393 3.78143 338.791 2.83832 337.61 2.22333C338.47 2.02495 339.118 1.45909 339.291 0.290225ZM336.283 4.50855C335.876 6.14354 333.123 5.25966 332.23 5.03804L332.953 2.13969C333.846 2.36244 336.708 2.80344 336.283 4.50855ZM336.69 0.266593C336.319 1.75383 334.027 0.998211 333.284 0.812963L333.939 -1.81576C334.683 -1.63051 337.077 -1.28477 336.69 0.266593Z"
                      fill="white"/>
                <path d="M355.746 56.5563C354.61 61.1098 349.998 63.8811 345.443 62.7455C340.89 61.6103 338.119 56.998 339.255 52.4447C340.389 47.8906 345.002 45.1191 349.555 46.2544C354.11 47.3896 356.881 52.0024 355.746 56.5563Z"
                      fill="#F7931A"/>
                <path d="M351.248 53.2892C351.417 52.1582 350.556 51.5501 349.379 51.1445L349.761 49.6124L348.828 49.38L348.456 50.8717C348.211 50.8106 347.959 50.753 347.709 50.6959L348.083 49.1943L347.151 48.9619L346.769 50.4935C346.566 50.4473 346.367 50.4016 346.173 50.3535L346.174 50.3487L344.888 50.0276L344.64 51.0237C344.64 51.0237 345.332 51.1823 345.317 51.1921C345.695 51.2864 345.763 51.5363 345.752 51.7345L345.317 53.4799C345.343 53.4865 345.376 53.4961 345.414 53.511C345.383 53.5033 345.349 53.4948 345.315 53.4865L344.705 55.9316C344.659 56.0463 344.542 56.2185 344.278 56.1531C344.287 56.1667 343.6 55.9839 343.6 55.9839L343.137 57.0514L344.35 57.354C344.576 57.4106 344.798 57.4698 345.015 57.5256L344.629 59.0752L345.561 59.3076L345.943 57.7745C346.198 57.8435 346.445 57.9073 346.687 57.9673L346.306 59.4933L347.238 59.7257L347.624 58.179C349.215 58.48 350.411 58.3586 350.914 56.9202C351.32 55.7621 350.894 55.0941 350.057 54.6585C350.667 54.5179 351.126 54.1171 351.248 53.2892ZM349.117 56.2772C348.829 57.4353 346.879 56.8092 346.246 56.6522L346.759 54.5992C347.391 54.757 349.418 55.0694 349.117 56.2772ZM349.406 53.2724C349.143 54.3259 347.519 53.7907 346.993 53.6594L347.457 51.7974C347.984 51.9287 349.679 52.1736 349.406 53.2724Z"
                      fill="white"/>
            </g>
        </g>
    </g>
    <defs>
        <clipPath id="clip0_44_46">
            <rect width="416" height="192" fill="white"/>
        </clipPath>
    </defs>
</svg>
