<svg width="384" height="129" viewBox="0 0 384 129" fill="none" xmlns="http://www.w3.org/2000/svg">
    <rect width="384" height="129" rx="6" fill="#22263F"/>
    <g filter="url(#filter0_f_0_1)">
        <path d="M137.57 -77.6154C151.484 -75.2199 162.257 -58.7173 157.207 -42.2148C152.157 -25.7122 131.286 -9.47583 129.041 10.2208C126.909 29.9174 143.292 52.808 143.517 67.1812C143.629 81.5544 127.47 87.144 112.097 90.0719C96.6115 92.9998 81.7993 93.1329 64.4062 92.2013C47.1253 91.1366 27.3756 89.1403 14.0222 77.1626C0.556565 65.0519 -6.40069 42.9597 -4.94191 22.3315C-3.48313 1.83641 6.39168 -17.1948 18.9596 -28.507C31.5276 -39.8192 46.6764 -43.4125 58.9077 -46.7397C71.0268 -50.0668 80.1161 -52.9947 93.2451 -60.4475C106.374 -67.9002 123.543 -79.8779 137.57 -77.6154Z" fill="#F0A7EB"/>
    </g>
    <defs>
        <filter id="filter0_f_0_1" x="-155.133" y="-227.895" width="463.605" height="470.609" filterUnits="userSpaceOnUse" color-interpolation-filters="sRGB">
            <feFlood flood-opacity="0" result="BackgroundImageFix"/>
            <feBlend mode="normal" in="SourceGraphic" in2="BackgroundImageFix" result="shape"/>
            <feGaussianBlur stdDeviation="75" result="effect1_foregroundBlur_0_1"/>
        </filter>
    </defs>
</svg>
