
<svg xmlns="http://www.w3.org/2000/svg" version="1.1" xmlns:xlink="http://www.w3.org/1999/xlink" preserveAspectRatio="none" x="0px" y="0px" width="800px" height="330px" viewBox="0 0 800 330">
<defs>
<linearGradient id="Gradient_1" gradientUnits="userSpaceOnUse" x1="144.5" y1="110.75" x2="127.30000000000001" y2="189.55" spreadMethod="pad">
<stop  offset="41.1764705882353%" stop-color="#E57EEC"/>

<stop  offset="85.09803921568627%" stop-color="#FFFBF1"/>
</linearGradient>

<linearGradient id="Gradient_2" gradientUnits="userSpaceOnUse" x1="74.2" y1="96.41250000000001" x2="74.2" y2="192.1875" spreadMethod="pad">
<stop  offset="41.1764705882353%" stop-color="#E57EEC"/>

<stop  offset="85.09803921568627%" stop-color="#FFFBF1"/>
</linearGradient>

<linearGradient id="Gradient_3" gradientUnits="userSpaceOnUse" x1="278" y1="105.69999999999999" x2="273.5" y2="189.5" spreadMethod="pad">
<stop  offset="45.88235294117647%" stop-color="#E57EEC"/>

<stop  offset="73.33333333333333%" stop-color="#FFF8E5"/>
</linearGradient>

<linearGradient id="Gradient_4" gradientUnits="userSpaceOnUse" x1="194.0625" y1="96.32499999999999" x2="185.7375" y2="199.375" spreadMethod="pad">
<stop  offset="45.88235294117647%" stop-color="#E57EEC"/>

<stop  offset="73.33333333333333%" stop-color="#FFF8E5"/>
</linearGradient>
</defs>

<g id="Layer_2"/>

<g id="Layer_3">
<g>
<g>
<g>
<path fill="#000C4E" stroke="none" d="
M 796.5 82.3
Q 795.85 75.65 793.45 70.9 786.95 58.2 765.5 51.75 726.45 39.9 678.5 44.9 673.45 45.4 653.9 48.35 627.3 52.3 614.5 56.35 613.55 56.55 612.65 56.95 611.3 55.5 604.65 46.5 598.05 37.4 583.75 29.65 569.45 21.9 549.75 18.6 529.95 15.25 516.95 14.75 503.85 14.25 481.85 15.25 459.75 16.2 451.35 17 443 17.7 432.05 19.4 403.1 23.95 384.3 37.3 378.5 41.35 373.3 46.6 372.85 46.5 372.35 46.5 365.45 46.25 362 46.15 351.95 45.6 346.85 45.5 342.3 45.25 338.5 45.5 335.7 45.4 333.1 45.5 331.1 36.25 325.55 28.9 317.6 17.6 304.45 13.25 291.25 8.85 276.1 8.35 260.85 7.75 250.55 8.25 240.1 8.7 225.95 10.05 211.5 11.3 203.65 13.65 195.75 16 185.65 23.85 175.6 31.6 168.1 54.6 166.35 60.15 164.65 67.55 163.9 55.25 160 46.6 155.9 38.1 148.05 31.35 140.5 25.2 130.95 21.55 115.65 15.85 78.05 17.25 40.4 18.65 28.85 25.1 17.25 31.5 12.4 39.85 7.45 48.2 5.5 58.8 3.5 69.35 3.8 81.25 4.1 93.1 5.7 104.4 7.2 115.65 9.05 126.8 10.85 137.95 13.65 150.8 16.45 163.65 22.6 186.9 28.65 210 32.1 222.85 35.55 235.65 44.8 257.95 55.5 284.35 66.7 298.3 74.3 307.75 83.8 313.9 94.15 320.5 105.1 322.1 115.3 323.6 133.65 322.2 148.15 320.8 164.95 310.45 181.75 300.05 197.7 281.4 213.65 262.7 225.55 247.95 225.4 248.15 225.4 248.55 224.15 253.75 224.7 264.45 225.05 275.05 232.7 286.55 240.2 298.15 250.9 302.7 261.6 307.4 283.15 311.3 304.7 315.15 324.85 311.65 332.85 310.35 340 307.75 345.6 315.85 355.4 318.7 365.1 321.4 377.4 322.65 389.55 323.7 410.1 324.6 430.7 325.45 470.8 321.05 510.9 316.6 539.6 300.7 563.3 287.45 563.65 283.35 567.3 288.8 572.05 293.6 580.75 302.3 591.9 307.15 608.1 314.15 637.05 313.9 663.45 313.55 690.1 309.2 717.65 304.65 735.45 296.05 755.9 286.1 770.55 269 779.65 258.15 783.2 247.95 786.5 238.45 786.3 223.55 786.05 207.35 780.75 198.5 775.55 189.35 763.15 182.85 762.55 182.45 761.9 182.2 762.3 180.95 762.8 179.65 764.75 173.75 765.4 171.75 766.85 166.35 767.35 157.85 770.55 155.75 773.75 153.05 789.35 139.4 794.25 118.15 796.25 109.75 796.75 94.35 797 86.75 796.5 82.3 Z"/>
</g>
</g>
</g>
</g>

<g id="Layer_1"/>

<g id="VIBE_logo_text_png_svg">
<g transform="matrix( 2.2781982421875, 0, 0, 2.2781982421875, -6.05,-180.4) ">
<g>
<g>
<path fill="#05104D" stroke="none" d="
M 313.9 99.4
L 314.6 99.45
Q 314.6 99.4 314.6 99.35 314.2 99.35 313.9 99.4 Z"/>
</g>
</g>
</g>

<g transform="matrix( 2.461029052734375, 0, 0, 2.461029052734375, -14.65,-193.2) ">
<g>
<g>
<path fill="url(#Gradient_1)" stroke="none" d="
M 137.05 110.95
Q 130.55 111.05 129.65 115.25 126.35 130.8 120.7 149 115 167.35 113.35 174.15 111.6 180.85 116.6 185.7 120.65 189.85 132.5 189.85 138.2 189.85 141.7 188.85 145.2 187.95 145.25 185.15 145.4 182.5 144.4 181.1 143.4 179.65 142.7 179.15 142 178.6 141.15 177 140.3 175.5 142.4 170 144.45 164.55 150.25 145.3 156.05 126 156.75 116.3 157.05 112.05 150.25 111.45 143.5 110.85 137.05 110.95 Z"/>

<path fill="url(#Gradient_2)" stroke="none" d="
M 96.75 95.9
Q 94.3 96.45 92 98.5 89.65 100.55 89.2 103.1 88.4 107.6 85.25 116.4 81.55 126.7 78.6 132.65 76.15 138.7 69.5 149.45 63.85 158.5 62 160.65 57.95 144.55 57.25 129.85 57.2 128.9 57.4 111.45 57.4 104.55 55.05 102.5 52.35 100.15 43 100.15 34.25 100.15 29.15 101.45 23.6 102.95 23.25 108.6 22.9 114.25 27.95 138.4 33 162.55 37.55 174 42.1 185.4 45.3 189.95 47.15 192.7 49.55 193.55 51.3 194.15 55.3 194.15 62.8 194.15 76.25 179.65 93.9 160.65 115.45 122.2 119.9 113.3 122.65 106.9 124.25 103.1 124.6 102.3 124.95 101.3 124.95 100.65 124.95 94.6 107.55 94.6 99.2 95.4 96.75 95.9 Z"/>

<path fill="url(#Gradient_3)" stroke="none" d="
M 309.6 112.1
Q 309 111.85 308.2 111.75 307.5 111.55 307.4 111.6
L 307.35 111.6
Q 301.3 110.15 294.8 110.4
L 294.75 110.4
Q 287.5 110.65 282.55 111.2
L 282.55 111.15
Q 277.05 111.65 267.5 113.25 256.6 115.2 256.85 122.65
L 256.85 122.7
Q 256.8 128.3 255.5 132.2 255.45 132.25 255.45 132.35
L 248.75 158.65
Q 245.8 165.7 245.1 173.15 244.35 181.2 248.25 185.5
L 248.25 185.55
Q 251.95 189.95 264.3 190.5 264.35 190.5 264.45 190.5 272.6 190.4 277.3 189.85
L 277.35 189.85
Q 281.85 189.25 290.2 187.2 299 184.95 303.3 181.25
L 303.4 181.25
Q 307.75 177.5 309.25 174.65
L 309.25 174.6
Q 310.9 171.5 310.75 168.85 310.55 165.1 307.15 164.25
L 307.1 164.25
Q 304.7 163.55 302.4 163.5 300.2 163.3 294.25 165.05 288.65 166.6 285.7 167.7 275.5 171.15 269.25 169.9 267.45 169.4 267.3 167.15 267.1 163.9 269.25 158.3 286.4 156.05 290.8 155.2 296.05 154.3 299.55 151.65 299.6 151.55 299.75 151.5 301.25 150 301.85 147.75
L 301.85 147.8
Q 303.15 143.2 300.75 140.9 300.5 140.7 300.35 140.55 296.7 138.1 287.35 138.8
L 273.25 139.8 275.65 130.1
Q 277.15 129.6 281.25 128.9 285.5 128.05 294.8 127.55 293 131.9 298.3 133.05 303.55 134.2 307.9 130.75 312.2 127.3 313.4 120.65 314.6 113.95 309.6 112.1 Z"/>

<path fill="url(#Gradient_4)" stroke="none" d="
M 240 107.4
Q 236.6 104.5 230.9 102.55 217.6 98 191.4 101.75 178.6 103.4 174.8 105.45 171 107.45 169.5 112.2 167.95 116.95 165.8 129.7 163.55 142.5 158.95 160.5 154.35 178.5 153.45 181 152.55 183.5 152.15 187.6 151.85 191.75 155.3 192.3 175.15 194 193.15 192 211.1 189.95 223.35 182.5 235.6 174.95 237 165.7 238.4 156.5 235 150.75 231.6 145 225.25 141.9
L 226 141.5
Q 230.1 140.75 238.05 133.5 239.1 132.55 240 131.5 245.85 124.95 245.1 116.7 244.6 111.2 240 107.4
M 203.35 116.95
Q 210.8 115.95 217.35 116.9 223.9 117.75 222.55 121.75 221.3 125.7 210.2 130.75 199.1 135.75 183.9 135.9 185.9 125.15 186.65 122.2 186.75 121.85 187.25 120.45 187.6 120.1 191.8 119 195.95 117.9 203.35 116.95
M 195.8 170.75
Q 185.1 172 176.2 171.9 176.35 168.4 177.95 163.1 179.55 157.7 180.15 156.95 180.8 156.15 184.95 155.4 189.1 154.65 199.7 153.6 210.3 152.5 213.95 156.95 217.55 161.4 212.05 165.45 206.5 169.45 195.8 170.75 Z"/>
</g>
</g>
</g>

<g transform="matrix( 2.461029052734375, 0, 0, 2.461029052734375, -14.65,-193.2) ">
<g>
<g>
<path fill="#FFFFFF" stroke="none" d="
M 137.05 110.95
Q 130.55 111.05 129.65 115.25 126.35 130.8 120.7 149 115 167.35 113.35 174.15 111.6 180.85 116.6 185.7 116.65 185.75 116.8 185.9 114.8 182.15 116 177.5 117.7 170.7 123.35 152.45 128.95 134.25 132.25 118.7 133.25 114.4 139.7 114.35 146.15 114.25 152.9 114.8 155.25 115.05 156.75 115.7 156.5 112 150.25 111.45 143.5 110.85 137.05 110.95
M 55.05 102.5
Q 52.35 100.15 43 100.15 34.25 100.15 29.15 101.45 23.6 102.95 23.25 108.6 22.9 114.25 27.95 138.4 33 162.55 37.55 174 42.1 185.4 45.3 189.95 46.5 191.75 47.9 192.7 47.75 192.5 47.6 192.3 44.4 187.7 39.9 176.3 35.3 164.9 30.25 140.75 25.2 116.55 25.6 110.9 25.9 105.25 31.45 103.8 36.55 102.45 45.3 102.45 53.05 102.45 56.2 104.05 55.75 103.1 55.05 102.5
M 96.75 95.9
Q 94.3 96.45 92 98.5 89.65 100.55 89.2 103 88.4 107.6 85.25 116.4 81.55 126.7 78.6 132.65 76.15 138.7 69.5 149.45 65.45 155.95 61.95 160.65 62.75 162.55 62.25 164.95 66.15 160.8 71.8 151.75 78.5 141 80.95 134.95 83.85 129 87.55 118.7 90.7 109.9 91.5 105.4 91.95 102.85 94.3 100.85 96.65 98.75 99.1 98.25 101.55 97.75 109.85 96.95 120.55 96.95 124.7 99.2 122.75 94.6 107.55 94.6 99.2 95.4 96.75 95.9
M 269.75 170.05
Q 270.35 171.9 272 172.4 278.2 173.65 288.45 170.2 291.4 169.1 297 167.55 302.9 165.8 305.15 165.95 307.4 166 309.8 166.7
L 309.85 166.7
Q 310.15 166.75 310.35 166.9 309.55 164.9 307.15 164.25
L 307.1 164.25
Q 304.7 163.55 302.4 163.5 300.2 163.3 294.25 165.05 288.65 166.6 285.7 167.7 276.1 170.95 269.75 170.05
M 300.35 140.55
Q 296.7 138.1 287.35 138.8
L 273.3 139.8 272.6 142.55 290.05 141.3
Q 297.95 140.7 301.75 142.4 301.4 141.55 300.75 140.9 300.5 140.7 300.35 140.55
M 309.9 112.2
Q 308.15 111.5 307.55 111.35 306.9 111.15 304.35 110.75 301.75 110.25 294.8 110.4
L 294.75 110.4
Q 287.5 110.65 282.55 111.2
L 282.55 111.15
Q 277.05 111.65 267.5 113.25 256.6 115.2 256.85 122.65
L 256.85 122.7
Q 256.8 128.3 255.5 132.2 255.45 132.25 255.45 132.35
L 248.75 158.65
Q 245.8 165.7 245.1 173.15 244.35 181.2 248.25 185.5
L 248.25 185.55
Q 249.15 186.55 250.55 187.4 247.2 183.15 247.85 175.65 248.55 168.2 251.5 161.15
L 258.1 134.85
Q 258.1 134.7 258.2 134.65 259.55 130.75 259.6 125.2
L 259.6 125.15
Q 259.3 117.7 270.25 115.75 279.8 114.1 285.3 113.65
L 285.3 113.7
Q 290.2 113.15 297.45 112.9
L 297.5 112.9
Q 304.05 112.65 309.75 113.5 311.7 113.75 312.7 114.55 311.6 112.85 309.9 112.2
M 175.8 174.25
Q 187.4 174.35 198.15 173.1 208.8 171.8 214.4 167.75 219.9 163.75 216.3 159.3 215.55 158.35 214.45 157.65 217.15 161.75 212.05 165.45 206.5 169.45 195.8 170.75 186.6 171.85 176.35 172 176.65 172.95 175.8 174.25
M 240 107.35
Q 236.6 104.5 230.9 102.55 217.6 98 191.4 101.75 178.6 103.4 174.8 105.45 171 107.45 169.5 112.2 167.95 116.95 165.8 129.7 163.55 142.5 158.95 160.5 154.35 178.5 153.45 181 152.55 183.5 152.15 187.6 151.9 191.3 154.65 192.15 154.4 191.2 154.5 189.95 154.85 185.8 155.8 183.3 156.65 180.8 161.3 162.8 165.85 144.8 168.1 132 170.25 119.25 171.8 114.55 173.3 109.75 177.1 107.75 180.9 105.75 193.75 104.05 219.95 100.3 233.2 104.85 237.15 106.25 240 108 241.2 108.75 242.25 109.55 241.25 108.4 240 107.35
M 222.55 121.75
Q 221.3 125.7 210.2 130.75 200.1 135.3 183.95 135.9
L 183.6 138.35
Q 201.4 138.1 212.55 133.05 223.6 128 224.9 124.05 225.85 121.2 222.75 119.95 222.9 120.75 222.55 121.75 Z"/>
</g>
</g>
</g>
</g>

<g id="Layer_4"/>
</svg>
