<svg width="32" height="14" viewBox="0 0 32 14" fill="none" xmlns="http://www.w3.org/2000/svg">
<path d="M7.11361 2.79574V12.3635C7.11759 12.6323 7.02116 12.8927 6.84361 13.0925C6.70897 13.2043 6.55362 13.2876 6.38669 13.3377C6.21977 13.3878 6.04464 13.4036 5.87161 13.3841C5.01961 13.3841 4.59361 13.0439 4.59361 12.3635V2.79574H1.55361C1.41311 2.81002 1.27135 2.78734 1.14205 2.72987C1.01276 2.67239 0.900315 2.58208 0.815609 2.4677C0.674434 2.23798 0.599609 1.97283 0.599609 1.70228C0.599609 1.43172 0.674434 1.16657 0.815609 0.936856C0.896091 0.827498 1.00227 0.740221 1.12451 0.682936C1.24675 0.625652 1.38118 0.600167 1.51561 0.608812H10.3326C10.4646 0.601163 10.5964 0.627199 10.7159 0.684512C10.8354 0.741825 10.9388 0.828587 11.0166 0.936856C11.174 1.15983 11.256 1.42828 11.2506 1.70228C11.2564 1.97362 11.1811 2.2404 11.0346 2.4677C10.9499 2.58208 10.8375 2.67239 10.7082 2.72987C10.5789 2.78734 10.4371 2.81002 10.2966 2.79574H7.11361ZM23.7166 13.2565C23.0566 13.2565 22.7266 12.9346 22.7266 12.2906V1.52004C22.7222 1.39907 22.7423 1.27846 22.7857 1.16564C22.829 1.05282 22.8947 0.950142 22.9786 0.863952C23.1825 0.685021 23.4472 0.59351 23.7166 0.608812H30.3926C30.532 0.598153 30.6721 0.618755 30.8028 0.669156C30.9334 0.719556 31.0515 0.798525 31.1486 0.900412C31.3274 1.12711 31.4171 1.41267 31.4006 1.70228C31.4115 1.97995 31.3359 2.25407 31.1846 2.48593C31.0967 2.59554 30.9832 2.68126 30.8543 2.73535C30.7255 2.78944 30.5854 2.81019 30.4466 2.79574H25.1916V5.76429H29.9596C30.0923 5.75523 30.2252 5.77865 30.347 5.83258C30.4689 5.88651 30.5761 5.96935 30.6596 6.07411C30.833 6.29667 30.9223 6.5745 30.9116 6.85774C30.9225 7.13542 30.8469 7.40954 30.6956 7.64139C30.6077 7.75101 30.4942 7.83673 30.3653 7.89082C30.2365 7.9449 30.0964 7.96566 29.9576 7.95121H25.1916V11.0676H30.5536C30.676 11.0609 30.798 11.0858 30.9082 11.14C31.0184 11.1942 31.1132 11.2759 31.1836 11.3774C31.3381 11.6078 31.4139 11.883 31.3996 12.161C31.4105 12.4387 31.3349 12.7128 31.1836 12.9447C31.0929 13.0559 30.9763 13.1425 30.8444 13.197C30.7125 13.2514 30.5693 13.2718 30.4276 13.2565H23.7166Z" fill="#009DFF"/>
<path d="M1.51782 0.609619C1.38339 0.600973 1.24896 0.626458 1.12672 0.683743C1.00448 0.741028 0.898304 0.828305 0.817822 0.937663C0.676647 1.16738 0.601822 1.43253 0.601822 1.70308C0.601822 1.97364 0.676647 2.23879 0.817822 2.4685C0.902528 2.58289 1.01497 2.6732 1.14427 2.73067C1.27356 2.78814 1.41532 2.81083 1.55582 2.79655H4.59482V12.3643C4.59482 13.0447 5.02082 13.3849 5.87282 13.3849C6.04586 13.4044 6.22098 13.3886 6.38791 13.3385C6.55483 13.2884 6.71018 13.2051 6.84482 13.0933C7.02237 12.8935 7.1188 12.6331 7.11482 12.3643V2.79655H10.2998C10.4403 2.81083 10.5821 2.78814 10.7114 2.73067C10.8407 2.6732 10.9531 2.58289 11.0378 2.4685C11.1843 2.24121 11.2596 1.97442 11.2538 1.70308C11.2593 1.42909 11.1772 1.16064 11.0198 0.937663C10.942 0.829394 10.8387 0.742632 10.7191 0.685319C10.5996 0.628006 10.4678 0.601969 10.3358 0.609619H1.51782ZM23.7178 0.609619C23.4484 0.594316 23.1837 0.685828 22.9798 0.864759C22.8959 0.950948 22.8302 1.05362 22.7869 1.16645C22.7435 1.27927 22.7234 1.39987 22.7278 1.52085V12.2914C22.7278 12.9354 23.0578 13.2573 23.7178 13.2573H30.4278C30.5693 13.2729 30.7124 13.2527 30.8443 13.1987C30.9762 13.1446 31.0929 13.0583 31.1838 12.9475C31.3351 12.7157 31.4107 12.4415 31.3998 12.1639C31.4142 11.8858 31.3383 11.6106 31.1838 11.3802C31.1134 11.2787 31.0186 11.197 30.9084 11.1428C30.7982 11.0886 30.6762 11.0637 30.5538 11.0704H25.1928V7.95404H29.9618C30.1006 7.96849 30.2407 7.94775 30.3695 7.89366C30.4984 7.83957 30.6119 7.75384 30.6998 7.64422C30.8511 7.41237 30.9267 7.13826 30.9158 6.86059C30.9265 6.57734 30.8372 6.2995 30.6638 6.07694C30.5803 5.97218 30.4731 5.88934 30.3512 5.83541C30.2294 5.78148 30.0965 5.75806 29.9638 5.76712H25.1928V2.79655H30.4468C30.5856 2.811 30.7257 2.79025 30.8545 2.73616C30.9834 2.68207 31.0969 2.59635 31.1848 2.48673C31.3361 2.25488 31.4117 1.98076 31.4008 1.70308C31.4173 1.41348 31.3276 1.12791 31.1488 0.901218C31.0517 0.799331 30.9336 0.720363 30.803 0.669963C30.6723 0.619562 30.5323 0.59896 30.3928 0.609619H23.7178ZM1.51682 0.00214909H10.3338C10.561 -0.00653324 10.7868 0.0418997 10.9909 0.143137C11.1951 0.244373 11.3713 0.395258 11.5038 0.58229C11.7351 0.90859 11.8568 1.30149 11.8508 1.70308C11.8569 2.09449 11.7464 2.47868 11.5338 2.80566C11.3964 3.00528 11.2102 3.16537 10.9934 3.27026C10.7765 3.37515 10.5365 3.42125 10.2968 3.40403H7.71382V12.3643C7.71674 12.7809 7.56711 13.1838 7.29382 13.4953L7.28182 13.5084C7.0934 13.6843 6.87066 13.8182 6.62797 13.9016C6.38529 13.9849 6.12804 14.0159 5.87282 13.9924C5.39896 14.0216 4.92952 13.8855 4.54282 13.6066C4.36145 13.4578 4.21731 13.2677 4.12209 13.0518C4.02687 12.836 3.98327 12.6004 3.99482 12.3643V3.40403H1.55382C1.31411 3.42125 1.0741 3.37515 0.857264 3.27026C0.64043 3.16537 0.454208 3.00528 0.316822 2.80566C0.109897 2.47608 0 2.09362 0 1.70308C0 1.31255 0.109897 0.930089 0.316822 0.600504L0.329822 0.58229C0.465028 0.393679 0.644321 0.241956 0.851648 0.140711C1.05897 0.0394661 1.28686 -0.00813835 1.51682 0.00214909ZM23.7168 0.00214909H30.3928C30.6179 -0.00987019 30.8428 0.0286347 31.0515 0.114927C31.2602 0.201219 31.4474 0.333159 31.5998 0.50129C31.8755 0.837963 32.018 1.26617 31.9998 1.70308C32.0113 2.10633 31.8972 2.50301 31.6738 2.83704C31.5326 3.02831 31.3461 3.18052 31.1315 3.27961C30.9169 3.37869 30.6811 3.42149 30.4458 3.40403H25.7918V5.15762H29.9608C30.1843 5.14714 30.407 5.19061 30.6106 5.28444C30.8142 5.37826 30.9929 5.51977 31.1318 5.69726C31.39 6.02689 31.5252 6.43803 31.5138 6.85855C31.5253 7.26179 31.4112 7.65849 31.1878 7.99252C31.0466 8.18379 30.8601 8.33598 30.6455 8.43507C30.4309 8.53416 30.1951 8.57695 29.9598 8.5595H25.7918V10.4609H30.5548C30.7719 10.4534 30.9875 10.5006 31.1821 10.5983C31.3768 10.6961 31.5443 10.8412 31.6698 11.0208C31.8997 11.3546 32.0158 11.7552 32.0008 12.1618C32.0123 12.5651 31.8982 12.9618 31.6748 13.2958C31.5308 13.4885 31.3412 13.6415 31.1234 13.7406C30.9057 13.8397 30.6668 13.8817 30.4288 13.8628H23.7168C23.5057 13.8852 23.2923 13.8603 23.0917 13.7897C22.8912 13.7191 22.7085 13.6046 22.5567 13.4543C22.4049 13.3041 22.2876 13.1218 22.2133 12.9205C22.139 12.7191 22.1095 12.5037 22.1268 12.2894V1.52085C22.1227 1.32013 22.1585 1.12062 22.232 0.934171C22.3055 0.747723 22.4153 0.578136 22.5548 0.435478L22.5698 0.421311C22.8836 0.135672 23.2952 -0.0147155 23.7168 0.00214909Z" fill="#0C0C0C"/>
<path d="M16.1713 2.70526C15.7862 2.68617 15.4039 2.78117 15.0713 2.97863C14.7734 3.18092 14.5065 3.42653 14.2793 3.70759C14.0873 3.92628 13.9013 4.13282 13.7213 4.32722C13.636 4.41829 13.5324 4.48981 13.4175 4.53697C13.3027 4.58412 13.1791 4.60581 13.0553 4.60059C12.7767 4.60367 12.5047 4.51403 12.2813 4.34545C12.1704 4.24568 12.0836 4.12154 12.0274 3.98255C11.9713 3.84356 11.9473 3.69341 11.9573 3.54358C11.9549 3.34786 11.998 3.1543 12.0833 2.97863C12.1709 2.79046 12.2796 2.61312 12.4073 2.45012C12.5823 2.22241 12.7749 2.00912 12.9833 1.81226C13.2266 1.58246 13.499 1.38635 13.7933 1.22908C14.1406 1.03759 14.5101 0.890677 14.8933 0.791701C15.3567 0.66449 15.8352 0.603146 16.3153 0.609449C16.8575 0.60468 17.3972 0.6846 17.9153 0.846375C18.3784 0.976595 18.8082 1.20661 19.1753 1.52068C19.5392 1.82973 19.8234 2.22377 20.0033 2.66881C20.217 3.18091 20.3212 3.73296 20.3093 4.28875C20.3134 4.74469 20.2528 5.19887 20.1293 5.63735C20.012 6.03211 19.8488 6.41139 19.6433 6.76726C19.4455 7.11579 19.2165 7.44521 18.9593 7.75138C18.7073 8.06727 18.4373 8.37708 18.1493 8.68082C17.7293 9.13035 17.3153 9.56166 16.9073 9.97475C16.4993 10.3757 16.0733 10.7705 15.6293 11.1593H19.7693C20.3213 11.1593 20.5973 11.4935 20.5973 12.1617C20.6082 12.4394 20.5326 12.7135 20.3813 12.9453C20.2903 13.0568 20.1735 13.1437 20.0412 13.1981C19.9089 13.2525 19.7653 13.2728 19.6233 13.2572H13.0393C12.905 13.2705 12.7695 13.251 12.6442 13.2003C12.5189 13.1495 12.4074 13.069 12.3193 12.9656C12.1773 12.7773 12.1013 12.5464 12.1033 12.3095C12.1371 12.0535 12.2214 11.807 12.3513 11.5847C12.4812 11.3624 12.6539 11.1688 12.8593 11.0156C13.4593 10.4445 14.0053 9.92211 14.4973 9.44828C14.9893 8.9623 15.4633 8.46415 15.9193 7.95387C16.2673 7.56508 16.5613 7.2249 16.8013 6.93331C17.0269 6.67722 17.2316 6.40295 17.4133 6.11321C17.5717 5.8785 17.6932 5.62028 17.7733 5.34779C17.8596 5.06454 17.9021 4.76945 17.8993 4.47302C17.9142 4.23778 17.882 4.00191 17.8047 3.77957C17.7274 3.55722 17.6065 3.35299 17.4493 3.1791C17.2803 3.01474 17.0795 2.88773 16.8595 2.80616C16.6395 2.72459 16.4051 2.69023 16.1713 2.70526Z" fill="#E89FED"/>
<path d="M16.315 0.608873C15.835 0.60257 15.3564 0.663913 14.893 0.791124C14.5098 0.8901 14.1403 1.03702 13.793 1.2285C13.4987 1.38578 13.2264 1.58189 12.983 1.81168C12.7747 2.00854 12.5821 2.22183 12.407 2.44954C12.2793 2.61254 12.1706 2.78988 12.083 2.97805C11.9977 3.15373 11.9546 3.34728 11.957 3.54301C11.947 3.69283 11.971 3.84298 12.0272 3.98197C12.0833 4.12096 12.1702 4.2451 12.281 4.34487C12.5044 4.51346 12.7764 4.6031 13.055 4.60001C13.1789 4.60524 13.3024 4.58354 13.4173 4.53639C13.5322 4.48924 13.6357 4.41771 13.721 4.32664C13.901 4.13225 14.087 3.92571 14.279 3.70701C14.5062 3.42596 14.7731 3.18034 15.071 2.97805C15.4036 2.78059 15.7859 2.68559 16.171 2.70468C16.4048 2.68966 16.6392 2.72401 16.8592 2.80558C17.0792 2.88715 17.2801 3.01416 17.449 3.17852C17.6062 3.35241 17.7271 3.55665 17.8044 3.77899C17.8817 4.00133 17.9139 4.23721 17.899 4.47245C17.9019 4.76888 17.8594 5.06396 17.773 5.34722C17.6929 5.61971 17.5715 5.87793 17.413 6.11264C17.2313 6.40237 17.0267 6.67664 16.801 6.93273C16.561 7.22432 16.267 7.5645 15.919 7.95329C15.463 8.46357 14.989 8.96172 14.497 9.4477C14.005 9.92019 13.459 10.4426 12.859 11.015C12.6537 11.1682 12.4809 11.3618 12.351 11.5841C12.2211 11.8064 12.1368 12.0529 12.103 12.3089C12.101 12.5458 12.177 12.7767 12.319 12.965C12.4072 13.0685 12.5186 13.149 12.6439 13.1997C12.7692 13.2505 12.9047 13.27 13.039 13.2566H19.623C19.7645 13.2721 19.9076 13.252 20.0395 13.1979C20.1714 13.1439 20.2881 13.0576 20.379 12.9468C20.5303 12.7149 20.6059 12.4408 20.595 12.1631C20.595 11.4949 20.319 11.1608 19.767 11.1608H15.627C16.071 10.772 16.497 10.3771 16.905 9.9762C17.313 9.56311 17.727 9.1318 18.147 8.68227C18.435 8.37853 18.705 8.06871 18.957 7.75282C19.2143 7.44666 19.4432 7.11724 19.641 6.76871C19.8465 6.41283 20.0097 6.03355 20.127 5.6388C20.2505 5.20032 20.3111 4.74614 20.307 4.2902C20.319 3.73441 20.2147 3.18236 20.001 2.67026C19.8211 2.22522 19.5369 1.83118 19.173 1.52212C18.8059 1.20806 18.3761 0.978042 17.913 0.847822C17.3949 0.686048 16.8552 0.606127 16.313 0.610897M16.313 0.00342688C16.9151 -0.00114991 17.5144 0.0876197 18.09 0.266662C18.6311 0.421257 19.1334 0.691204 19.563 1.05841C19.9971 1.42793 20.337 1.89777 20.554 2.42827C20.8004 3.01745 20.9217 3.65251 20.91 4.29222C20.9151 4.80551 20.8478 5.31691 20.71 5.81092C20.579 6.25221 20.3971 6.67633 20.168 7.07447C19.9534 7.45213 19.7054 7.8093 19.427 8.14161C19.167 8.46763 18.884 8.79162 18.587 9.10447C18.168 9.55299 17.746 9.99241 17.336 10.4075L17.33 10.4136L17.185 10.5543H19.774C19.9779 10.5461 20.1811 10.5836 20.3691 10.664C20.5571 10.7444 20.7253 10.8658 20.8616 11.0195C20.998 11.1732 21.0992 11.3555 21.158 11.5534C21.2169 11.7512 21.2319 11.9598 21.202 12.1641C21.2135 12.5674 21.0994 12.9641 20.876 13.2981C20.732 13.4908 20.5424 13.6438 20.3246 13.7429C20.1069 13.8419 19.868 13.884 19.63 13.8651H13.039C12.8112 13.8811 12.5829 13.8408 12.3739 13.7477C12.1648 13.6546 11.9813 13.5114 11.839 13.3305C11.6186 13.0373 11.5004 12.6784 11.503 12.3099C11.5325 11.9691 11.6321 11.6383 11.7953 11.3387C11.9586 11.0392 12.1819 10.7775 12.451 10.5705C13.043 10.0066 13.593 9.48111 14.081 9.01133C14.569 8.54155 15.03 8.04441 15.474 7.54729C15.815 7.1666 16.106 6.82946 16.34 6.54496L16.349 6.53382C16.5527 6.30261 16.7377 6.05509 16.902 5.79371L16.913 5.7765C17.0367 5.59392 17.1318 5.39312 17.195 5.18117L17.2 5.16396C17.2681 4.94035 17.3019 4.70745 17.3 4.47345C17.3137 4.31811 17.2964 4.16157 17.2494 4.01307C17.2023 3.86457 17.1264 3.72712 17.026 3.6088L17.018 3.60071C16.9043 3.49651 16.7705 3.4172 16.6251 3.36772C16.4797 3.31825 16.3258 3.29968 16.173 3.31317C15.9052 3.29683 15.6382 3.35756 15.403 3.48833C15.155 3.65725 14.9327 3.86189 14.743 4.0958L14.732 4.10896C14.537 4.33069 14.346 4.54332 14.163 4.74075C14.022 4.89197 13.8513 5.01154 13.6618 5.09177C13.4723 5.17199 13.2683 5.21107 13.063 5.20648C12.6562 5.20999 12.2594 5.0788 11.933 4.83287L11.905 4.81061C11.7257 4.65463 11.5838 4.45929 11.4903 4.23946C11.3967 4.01963 11.3538 3.78109 11.365 3.54199C11.3627 3.25473 11.4264 2.97086 11.551 2.71278C11.657 2.48633 11.7878 2.27271 11.941 2.07594C12.135 1.82309 12.3483 1.58612 12.579 1.36722C12.86 1.10152 13.1744 0.874453 13.514 0.691896C13.9016 0.478215 14.3137 0.313641 14.741 0.201869C15.2541 0.0623717 15.7838 -0.00507985 16.315 0.00140306L16.313 0.00342688Z" fill="#0C0C0C"/>
</svg>
