<svg width="25" height="30" viewBox="0 0 25 30" fill="none" xmlns="http://www.w3.org/2000/svg">
<path d="M2.87798 4.46882C2.82013 4.41097 2.75264 4.38205 2.67551 4.38205H1.01235C0.732752 4.38205 0.491715 4.48328 0.289244 4.68576V4.70022C0.0964147 4.89305 0 5.12926 0 5.40887V28.8232C0 29.1028 0.0964147 29.3438 0.289244 29.5463C0.491715 29.7488 0.732752 29.85 1.01235 29.85H18.7864C19.066 29.85 19.3022 29.7488 19.4951 29.5463H19.5095C19.7023 29.3438 19.7988 29.1028 19.7988 28.8232V27.1022C19.7988 27.025 19.7698 26.9576 19.712 26.8997C19.6541 26.8419 19.5866 26.8129 19.5095 26.8129H18.0488C17.9717 26.8129 17.9042 26.8419 17.8464 26.8997C17.7885 26.9576 17.7596 27.025 17.7596 27.1022V27.8108H2.02471V6.42122H2.67551C2.75264 6.42122 2.82013 6.3923 2.87798 6.33445C2.93583 6.2766 2.96475 6.20911 2.96475 6.13198V4.67129C2.96475 4.59416 2.93583 4.52667 2.87798 4.46882Z" fill="url(#paint0_linear_2677_544)"/>
<path d="M24.4267 7.92529C24.4263 7.64392 24.325 7.40288 24.123 7.20218L17.239 0.303707C17.0383 0.10165 16.7972 0.000414282 16.5159 0H5.64028C5.35891 0.000414282 5.11787 0.10165 4.91717 0.303707C4.72502 0.49213 4.62861 0.728345 4.62793 1.01235V24.4411C4.6291 24.7195 4.72069 24.9557 4.90271 25.1498C4.91262 25.1596 4.91717 25.1642 4.91717 25.1642C5.12081 25.3559 5.36185 25.4523 5.64028 25.4535H23.3999C23.6783 25.4523 23.9145 25.3559 24.1085 25.1642H24.123C24.325 24.9635 24.4263 24.7225 24.4267 24.4411V7.92529ZM17.5282 3.47093L20.9558 6.89847H17.5282V3.47093ZM15.5035 7.92529C15.5058 8.20858 15.6023 8.4448 15.7928 8.63394C15.9935 8.83599 16.2345 8.93723 16.5159 8.93764H22.3875V23.4288H6.65264V2.03917H15.5035V7.92529Z" fill="url(#paint1_linear_2677_544)"/>
<path d="M19.9145 20.0446C20.1067 19.8562 20.2031 19.62 20.2038 19.336C20.2026 19.0575 20.1062 18.8165 19.9145 18.6129C19.7138 18.4108 19.4728 18.3096 19.1914 18.3092H9.24142C8.96004 18.3096 8.71901 18.4108 8.51831 18.6129C8.31625 18.8136 8.21501 19.0546 8.2146 19.336C8.21599 19.6188 8.31723 19.855 8.51831 20.0446C8.7224 20.2467 8.96343 20.3479 9.24142 20.3483H19.1914C19.4728 20.3479 19.7138 20.2467 19.9145 20.0446ZM19.9145 14.9105C19.9145 14.9105 19.9094 14.9055 19.9001 14.8961C19.706 14.7141 19.4698 14.6225 19.1914 14.6213H9.24142C8.96298 14.6225 8.72195 14.7141 8.51831 14.8961V14.9105C8.31625 15.1112 8.21501 15.3523 8.2146 15.6336C8.21501 15.915 8.31625 16.1561 8.51831 16.3568C8.72195 16.5484 8.96298 16.6448 9.24142 16.646H19.1914C19.4698 16.6448 19.706 16.5484 19.9001 16.3568C19.9094 16.3569 19.9143 16.3521 19.9145 16.3423C20.1062 16.1483 20.2026 15.912 20.2038 15.6336C20.2026 15.3552 20.1062 15.1142 19.9145 14.9105ZM19.9145 11.1648C19.7138 10.9628 19.4728 10.8615 19.1914 10.8611H9.24142C8.96343 10.8615 8.7224 10.9579 8.51831 11.1504V11.1648C8.31723 11.3544 8.21599 11.5906 8.2146 11.8735C8.21501 12.1548 8.31625 12.3959 8.51831 12.5966C8.71901 12.7986 8.96004 12.8999 9.24142 12.9003H19.1914C19.4728 12.8999 19.7138 12.7986 19.9145 12.5966V12.5821C20.1062 12.3881 20.2026 12.1519 20.2038 11.8735C20.2014 11.5902 20.105 11.354 19.9145 11.1648Z" fill="url(#paint2_linear_2677_544)"/>
<defs>
<linearGradient id="paint0_linear_2677_544" x1="9.89215" y1="29.5463" x2="9.89215" y2="4.67129" gradientUnits="userSpaceOnUse">
<stop stop-color="#9BC4FA"/>
<stop offset="0.180392" stop-color="#6CAEF8"/>
<stop offset="0.396078" stop-color="#6682EE"/>
<stop offset="0.615686" stop-color="#8475EA"/>
<stop offset="0.807843" stop-color="#D573C8"/>
<stop offset="1" stop-color="#FAA0F9"/>
</linearGradient>
<linearGradient id="paint1_linear_2677_544" x1="14.5201" y1="25.1642" x2="14.5201" y2="0.289244" gradientUnits="userSpaceOnUse">
<stop stop-color="#9BC4FA"/>
<stop offset="0.180392" stop-color="#6CAEF8"/>
<stop offset="0.396078" stop-color="#6682EE"/>
<stop offset="0.615686" stop-color="#8475EA"/>
<stop offset="0.807843" stop-color="#D573C8"/>
<stop offset="1" stop-color="#FAA0F9"/>
</linearGradient>
<linearGradient id="paint2_linear_2677_544" x1="14.202" y1="19.7228" x2="14.202" y2="8.79663" gradientUnits="userSpaceOnUse">
<stop stop-color="#9BC4FA"/>
<stop offset="0.180392" stop-color="#6CAEF8"/>
<stop offset="0.396078" stop-color="#6682EE"/>
<stop offset="0.615686" stop-color="#8475EA"/>
<stop offset="0.807843" stop-color="#D573C8"/>
<stop offset="1" stop-color="#FAA0F9"/>
</linearGradient>
</defs>
</svg>
