<svg width="44" height="17" viewBox="0 0 44 17" fill="none" xmlns="http://www.w3.org/2000/svg">
<path d="M37.3374 0.148397C36.9933 0.0858372 36.7118 0.0858334 36.399 0.0858334C35.1165 -0.00800617 33.7715 0.0232775 32.3639 0.148397C30.9563 0.304796 29.8928 0.461188 29.1733 0.648867C28.6729 0.742706 28.2037 0.899121 27.7658 1.05552C27.5781 1.14936 27.234 1.27446 26.7648 1.43086C26.0141 1.0555 25.4198 0.83655 24.9506 0.71143C24.5127 0.586311 24.0747 0.523755 23.6994 0.461195C23.3553 0.398636 22.9487 0.36736 22.4169 0.36736C22.3856 0.36736 22.3544 0.36736 22.3231 0.36736C22.2918 0.36736 22.2605 0.36736 22.2292 0.36736H22.1354C22.0415 0.36736 21.9477 0.36736 21.8539 0.36736H21.76C21.7288 0.36736 21.6975 0.36736 21.6662 0.36736C21.6349 0.36736 21.6349 0.36736 21.6036 0.36736C21.0719 0.36736 20.634 0.398636 20.3524 0.461195C19.9458 0.492475 19.5392 0.617595 19.1325 0.773994C19.1012 0.773994 18.8823 0.836553 18.5069 0.930393C18.1316 1.05551 17.6624 1.2119 17.0993 1.43086C16.7553 1.24318 16.3799 1.11808 16.0358 0.992957C15.6605 0.836557 15.2538 0.711434 14.8159 0.617595C14.0965 0.429915 13.0017 0.273524 11.5941 0.117125C10.2491 -0.00799472 8.9353 -0.0392784 7.62155 0.0545612H7.59026C7.49642 0.0545612 7.43387 0.0545612 7.37131 0.0545612C6.6206 0.117121 5.71348 0.210953 4.71253 0.398632C4.61869 0.398632 4.52483 0.429915 4.46227 0.461195C4.43099 0.461195 4.43101 0.461195 4.39973 0.461195C3.89925 0.586315 3.39877 0.711438 2.83574 0.836557C1.8035 1.11808 1.11534 1.33703 0.833817 1.49343C0.36462 1.68111 0.0831088 2.15031 0.0205491 2.96358C-0.0107307 3.30766 -0.0107383 3.58918 0.0518214 3.74558C0.0518214 3.77686 0.0518137 3.77686 0.0830936 3.80814C-0.010746 4.37118 0.521023 4.99678 1.67838 5.68493C1.70966 5.71621 1.74093 5.71622 1.80348 5.7475C1.83476 5.77878 1.89732 5.81005 1.95988 5.84133L1.92861 6.84229C1.92861 7.49917 1.95989 8.12476 2.02245 8.71908C2.05373 9.03188 2.085 9.40723 2.11628 9.84515C2.2414 11.6594 3.0234 13.2547 4.46227 14.5997C5.9637 16.0698 7.8405 16.8206 10.0614 16.8518L11.3751 16.7893C11.4064 16.7893 11.4064 16.7893 11.4377 16.7893C12.5638 16.7267 13.4709 16.5703 14.1903 16.2888C15.1287 15.9447 16.1297 15.3191 17.2557 14.3495V14.2869C18.4756 13.2547 19.2264 11.7532 19.5079 9.81388C19.5079 9.7826 19.5079 9.7513 19.5079 9.72002V9.68875C19.5704 9.18827 19.633 8.78164 19.6956 8.50012L19.7269 8.43756C19.7269 8.31244 19.7581 8.09348 19.8207 7.81196L19.9145 7.2802C20.0396 6.84228 20.2586 6.4982 20.5401 6.1854C20.5401 6.1854 20.5401 6.15413 20.5714 6.15413C20.5714 6.12285 20.5714 6.09156 20.5714 6.029C20.634 5.99772 20.7278 5.96645 20.8216 5.93517C20.978 5.84133 21.1657 5.84134 21.3221 5.9039C22.2292 5.9039 22.6984 5.9039 22.7923 5.9039C23.0738 5.9039 23.2615 5.93516 23.4179 6.029C23.4179 6.09156 23.4179 6.12284 23.4179 6.1854C23.4804 6.24796 23.5743 6.37309 23.6994 6.56076C24.1373 7.40532 24.3875 8.24987 24.4501 9.09442C24.4501 9.21954 24.4501 9.31338 24.4501 9.40722C24.4501 9.50106 24.4814 9.62618 24.5127 9.72002C24.5127 9.78258 24.5439 9.84514 24.5752 9.93898C24.8567 11.8471 25.5762 13.3172 26.7961 14.3182V14.3807C27.8909 15.3191 28.9231 15.976 29.8615 16.3201C30.5809 16.6016 31.4881 16.758 32.6141 16.8206C32.6454 16.8206 32.6454 16.8206 32.6767 16.8206L33.9905 16.8831C36.2113 16.8518 38.0881 16.0698 39.6208 14.631C41.0597 13.2859 41.8417 11.7219 41.9981 9.90771C42.0294 9.43851 42.0606 9.06315 42.0919 8.75035C42.1232 8.15604 42.1545 7.53044 42.1545 6.87356V5.8726C42.5924 5.59109 42.8426 5.43469 42.9365 5.37213C43.5934 4.87166 43.9374 4.43374 43.9687 4.05838V3.99581C43.9687 3.96453 43.9687 3.93326 43.9687 3.90198C44 3.77686 44 3.65174 44 3.52662C44 3.49534 44 3.46405 44 3.46405C43.9687 2.36926 43.7185 1.71239 43.218 1.55599C42.9365 1.39959 42.2483 1.18064 41.1848 0.899121C40.5905 0.742722 40.0275 0.617598 39.4957 0.523759C39.4331 0.492479 39.4019 0.461195 39.3706 0.461195C38.6512 0.336076 37.9943 0.242229 37.4312 0.179669C37.4 0.148389 37.4 0.148397 37.3374 0.148397ZM38.9014 3.02615C38.964 3.02615 38.9952 3.02615 38.9952 3.02615C39.4957 3.11999 39.9962 3.2451 40.5592 3.37022C40.5905 3.4015 40.6218 3.40151 40.6531 3.40151C40.7469 3.43279 40.8407 3.46406 40.9659 3.49534C40.872 3.52662 40.7469 3.58918 40.6218 3.68302C40.5905 3.7143 40.5279 3.74558 40.4654 3.74558C40.4028 3.77686 40.309 3.80815 40.2151 3.87071H40.1526L40.1213 3.90198C39.9336 4.0271 39.7772 4.1835 39.6521 4.37118V4.43374C39.5583 4.62142 39.4957 4.8091 39.4957 5.05934V6.811C39.4957 7.40532 39.4644 7.96836 39.4019 8.50012L39.4332 8.46883C39.4019 8.75035 39.3393 9.1257 39.308 9.56362V9.59491C39.2142 10.7523 38.7137 11.7845 37.8066 12.6916C36.7431 13.6613 35.4606 14.1618 33.8966 14.2243L32.7393 14.1931C31.926 14.1305 31.2378 14.0054 30.7373 13.7864C30.0492 13.5362 29.2985 13.0357 28.4852 12.3788C28.3601 12.285 28.2662 12.1599 28.1724 12.0347C27.9847 11.9096 27.8283 11.7845 27.6719 11.6281C27.5468 11.503 27.3904 11.284 27.2027 11.0025C26.8899 10.502 26.671 9.93899 26.5459 9.37595C26.452 8.84419 26.3894 8.43756 26.3582 8.18732L26.1392 7.21763V7.18636C25.9828 6.74844 25.8264 6.40437 25.67 6.09157C25.4823 5.65365 25.2321 5.24701 24.9506 4.90294C24.5127 4.62142 24.1999 4.43373 23.9496 4.30861C23.6994 4.18349 23.4804 4.12094 23.2615 4.05838C22.9487 3.96454 22.5107 3.93326 21.9477 3.96454C21.6036 3.96454 21.3534 3.96453 21.197 3.99581C20.5088 4.08965 19.8207 4.46502 19.1951 5.05934C18.9449 5.2783 18.6946 5.59108 18.4131 5.96644C18.3818 6.12284 18.288 6.27924 18.1941 6.43564C17.8501 7.02995 17.506 7.93707 17.1619 9.09442C17.0368 9.46978 16.9742 9.65747 16.9742 9.68875C16.9429 9.81387 16.8804 9.9077 16.8178 10.0328C16.5989 11.0025 16.1609 11.7845 15.5353 12.3788C14.7221 13.067 13.9713 13.5362 13.2832 13.7864C12.7514 14.0054 12.0946 14.1305 11.3126 14.1931L10.1239 14.2243C8.6225 14.193 7.34002 13.6613 6.30779 12.6916C5.36939 11.7845 4.83765 10.7523 4.71253 9.59491V9.56362C4.68125 9.15698 4.68124 8.81292 4.64996 8.50012V8.46883C4.61868 7.96835 4.5874 7.40532 4.5874 6.811L4.61867 5.05934C4.61867 4.8091 4.55612 4.59013 4.431 4.40245V4.46501C4.33716 4.24605 4.21203 4.05837 3.99307 3.93325C3.96179 3.90197 3.89924 3.8707 3.8054 3.80814C3.71156 3.77686 3.52388 3.65174 3.21108 3.49534C3.30492 3.43278 3.39876 3.4015 3.52388 3.33894C4.05563 3.21383 4.52484 3.08871 4.99403 3.02615C5.05659 3.02615 5.08787 3.02613 5.15043 2.99485H5.213C6.12011 2.80718 6.93339 2.71334 7.62155 2.65078H7.65282C7.71538 2.65078 7.74666 2.65079 7.80922 2.61951H7.87178C9.02914 2.55695 10.2178 2.58823 11.4377 2.71335C12.6889 2.86975 13.6273 3.02613 14.3154 3.15125C14.5969 3.21381 14.8785 3.30767 15.1913 3.40151C15.2226 3.43279 15.2538 3.46405 15.3164 3.46405C15.5353 3.52661 15.7856 3.62045 16.0045 3.77685C16.0671 3.80813 16.1297 3.83943 16.1922 3.87071C16.3799 4.02711 16.5363 4.12094 16.6927 4.21478C17.0055 3.99582 17.4121 3.74557 17.8813 3.52662C18.3818 3.18254 18.8823 2.90102 19.4766 2.68206C20.3524 2.33798 21.2283 2.18158 22.1354 2.21286C22.5733 2.24414 22.9799 2.27542 23.3866 2.36926C25.0757 2.65078 26.452 3.21381 27.5468 4.08965C27.7345 4.02709 27.9222 3.93326 28.1098 3.80814C28.1411 3.77686 28.1724 3.77686 28.2037 3.74558C28.3914 3.62046 28.6103 3.52661 28.798 3.46405C29.1421 3.30765 29.4862 3.18254 29.8302 3.11998H29.8615C30.5184 2.99486 31.4881 2.83846 32.7705 2.68206C33.9904 2.55694 35.1791 2.52566 36.3052 2.58822H36.3364C36.5554 2.6195 36.8056 2.65078 37.1184 2.68206H37.1497C37.6502 2.80718 38.2445 2.90103 38.9014 3.02615Z" fill="url(#paint0_linear_2677_536)"/>
<defs>
<linearGradient id="paint0_linear_2677_536" x1="21.9978" y1="16.7775" x2="21.9978" y2="-0.0275467" gradientUnits="userSpaceOnUse">
<stop stop-color="#9BC4FA"/>
<stop offset="0.1804" stop-color="#6CAEF8"/>
<stop offset="0.3961" stop-color="#6682EE"/>
<stop offset="0.6157" stop-color="#8475EA"/>
<stop offset="0.8078" stop-color="#D573C8"/>
<stop offset="1" stop-color="#FAA0F9"/>
</linearGradient>
</defs>
</svg>
