<svg width="35" height="32" viewBox="0 0 35 32" fill="none" xmlns="http://www.w3.org/2000/svg">
<path d="M1.10471 16.4203C0.814855 17.0097 0.582971 17.6522 0.409058 18.3478H0.394566C0.0757249 20.0097 -0.0498793 21.8986 0.0177536 24.0145L0.0467392 24.4783H6.97428C6.97428 24.401 6.97911 24.3333 6.98877 24.2754C7.0564 23.7536 7.14336 23.2754 7.24964 22.8406H1.7279C1.7279 21.1691 1.89215 19.6812 2.22065 18.3768C2.45254 17.6522 2.77138 17 3.17717 16.4203C3.66027 15.7246 4.26413 15.1401 4.98877 14.6667C6.20616 15.6039 7.82452 16.0966 9.84384 16.1449C10.8777 16.1642 11.8728 16.058 12.8293 15.8261C12.9066 15.7681 12.9888 15.7198 13.0757 15.6812C12.8438 15.3913 12.6361 15.0918 12.4525 14.7826C12.3366 14.599 12.2303 14.4106 12.1337 14.2174C11.4091 14.372 10.6603 14.4396 9.88732 14.4203C8.07089 14.3816 6.66027 13.9034 5.65544 12.9855L5.17717 12.5652L4.66993 12.8551C3.07572 13.6763 1.88732 14.8647 1.10471 16.4203Z" fill="url(#paint0_linear_2677_554)"/>
<path d="M9.68447 4.17392V5.63769H8.2207V7.04348H9.68447V8.49276H11.0903V7.04348H12.5395V5.63769H11.0903V4.17392H9.68447Z" fill="url(#paint1_linear_2677_554)"/>
<path d="M13.438 2.78261C13.8245 2.35749 14.2641 1.97585 14.7569 1.63768C13.5298 0.545894 12.0806 0 10.4091 0C8.59263 0 7.04191 0.642512 5.75688 1.92754C4.47186 3.2029 3.82935 4.74879 3.82935 6.56522C3.82935 8.38164 4.47186 9.93237 5.75688 11.2174C7.04191 12.4928 8.59263 13.1304 10.4091 13.1304C10.8342 13.1304 11.2496 13.0966 11.6554 13.029C11.4719 12.4976 11.3366 11.942 11.2496 11.3623C10.9694 11.401 10.6892 11.4203 10.4091 11.4203C9.06606 11.4203 7.92113 10.9469 6.97427 10C6.01775 9.04348 5.53949 7.89855 5.53949 6.56522C5.53949 5.22222 6.01775 4.08213 6.97427 3.14493C7.92113 2.18841 9.06606 1.71015 10.4091 1.71015C11.5588 1.71015 12.5685 2.06763 13.438 2.78261Z" fill="url(#paint2_linear_2677_554)"/>
<path d="M27.4961 17.3043L27.0613 17.5507C25.1096 18.7778 22.955 19.3671 20.5975 19.3188C18.3077 19.2705 16.5299 18.6667 15.2642 17.5072L14.6555 16.971L14.0178 17.3333C12.0082 18.3768 10.5106 19.8792 9.52507 21.8406C9.15792 22.5845 8.86324 23.3913 8.64102 24.2609H8.62652C8.22073 26.3575 8.06131 28.744 8.14826 31.4203L8.17725 32H34.4091L34.3512 31.2609C34.1772 28.6135 33.8632 26.2802 33.4091 24.2609H33.3946C33.1241 23.372 32.8101 22.5652 32.4526 21.8406C31.3705 19.6763 29.8729 18.2077 27.9599 17.4348L27.4961 17.3043ZM20.5396 21.4927C23.1676 21.5411 25.5782 20.9372 27.7715 19.6812C28.641 20.1449 29.385 20.8647 30.0033 21.8406C30.4478 22.5362 30.8294 23.3575 31.1483 24.3043H31.1628C31.5686 25.9082 31.8729 27.7874 32.0758 29.942H10.3077C10.3077 27.8357 10.5154 25.9565 10.9309 24.3043C11.2207 23.3865 11.6217 22.5652 12.1338 21.8406C12.7425 20.9613 13.5058 20.2222 14.4236 19.6232C15.9599 20.8116 17.9985 21.4348 20.5396 21.4927Z" fill="url(#paint3_linear_2677_554)"/>
<path d="M27.1191 3.55073C25.496 1.92755 23.5394 1.11595 21.2496 1.11595C18.9597 1.11595 17.008 1.92755 15.3945 3.55073C13.7713 5.16426 12.9597 7.11595 12.9597 9.40581C12.9597 11.6957 13.7713 13.6522 15.3945 15.2754C17.008 16.8889 18.9597 17.6957 21.2496 17.6957C23.5394 17.6957 25.496 16.8889 27.1191 15.2754C28.7327 13.6522 29.5394 11.6957 29.5394 9.40581C29.5394 7.11595 28.7327 5.16426 27.1191 3.55073ZM25.5829 5.08697C26.781 6.27537 27.38 7.71499 27.38 9.40581C27.38 11.087 26.781 12.5314 25.5829 13.7391C24.3848 14.9275 22.9404 15.5217 21.2496 15.5217C19.5588 15.5217 18.1191 14.9275 16.9307 13.7391C15.723 12.5314 15.1191 11.087 15.1191 9.40581C15.1191 7.71499 15.723 6.27537 16.9307 5.08697C18.1191 3.87924 19.5588 3.27537 21.2496 3.27537C22.9404 3.27537 24.3848 3.87924 25.5829 5.08697Z" fill="url(#paint4_linear_2677_554)"/>
<path d="M21.8729 4.78261H20.6555C20.5782 4.78261 20.5154 4.80676 20.4671 4.85507C20.4091 4.90338 20.3801 4.96135 20.3801 5.02898V5.73913C19.839 5.86473 19.4091 6.10628 19.0902 6.46377C18.7617 6.82126 18.5975 7.21256 18.5975 7.63768C18.5975 8.18841 18.7473 8.62319 19.0468 8.94203C19.3559 9.26087 19.8294 9.48792 20.4671 9.62319L20.8874 9.72464C21.3125 9.81159 21.6313 9.87923 21.8439 9.92754C22.0468 9.98551 22.1965 10.0435 22.2931 10.1014C22.4091 10.1787 22.4671 10.2705 22.4671 10.3768C22.4671 10.7053 22.0806 10.8696 21.3076 10.8696C21.0758 10.8696 20.8777 10.8357 20.7134 10.7681C20.5492 10.6908 20.4284 10.6087 20.3511 10.5217C20.2738 10.4348 20.2207 10.3768 20.1917 10.3478C20.0951 10.2609 19.9743 10.2174 19.8294 10.2174H18.612C18.5637 10.2174 18.5202 10.2415 18.4816 10.2899C18.4429 10.3285 18.4236 10.3768 18.4236 10.4348C18.4236 10.6957 18.5057 10.9469 18.67 11.1884C18.8342 11.4493 19.0709 11.6715 19.3801 11.8551C19.67 12.0483 20.0033 12.1884 20.3801 12.2754V12.971C20.3801 13.029 20.4091 13.087 20.4671 13.1449C20.5154 13.1932 20.5782 13.2174 20.6555 13.2174H21.8729C21.9405 13.2174 21.9985 13.1932 22.0468 13.1449C22.0951 13.087 22.1192 13.029 22.1192 12.971V12.3043C22.7569 12.1981 23.2593 11.9662 23.6265 11.6087C24.013 11.2705 24.2062 10.8454 24.2062 10.3333C24.2062 9.76329 24.0419 9.32367 23.7134 9.01449C23.3753 8.71498 22.8535 8.49275 22.1482 8.34783C21.5975 8.23188 21.2159 8.14976 21.0033 8.10145C20.7714 8.03382 20.6023 7.97101 20.496 7.91304C20.3801 7.83575 20.3221 7.7343 20.3221 7.6087C20.3221 7.42512 20.4139 7.30435 20.5975 7.24638C20.7617 7.16908 20.984 7.13043 21.2642 7.13043C21.4574 7.13043 21.6217 7.15459 21.7569 7.2029C21.9115 7.27053 22.0226 7.33333 22.0902 7.3913C22.1675 7.4686 22.211 7.51208 22.2207 7.52174C22.269 7.57971 22.327 7.61836 22.3946 7.63768C22.4332 7.66667 22.496 7.68116 22.583 7.68116H23.8149C23.8535 7.68116 23.9018 7.66183 23.9598 7.62319C23.9985 7.58454 24.0178 7.53623 24.0178 7.47826C23.9985 7.25604 23.9067 7.02899 23.7424 6.7971C23.5878 6.55556 23.3656 6.34299 23.0758 6.15942C22.7956 5.96618 22.4767 5.82609 22.1192 5.73913V5.02898C22.1192 4.96135 22.0951 4.90338 22.0468 4.85507C21.9985 4.80676 21.9405 4.78261 21.8729 4.78261Z" fill="url(#paint5_linear_2677_554)"/>
<defs>
<linearGradient id="paint0_linear_2677_554" x1="6.53949" y1="24.4783" x2="6.53949" y2="12.5652" gradientUnits="userSpaceOnUse">
<stop stop-color="#9BC4FA"/>
<stop offset="0.180392" stop-color="#6CAEF8"/>
<stop offset="0.396078" stop-color="#6682EE"/>
<stop offset="0.615686" stop-color="#8475EA"/>
<stop offset="0.807843" stop-color="#D573C8"/>
<stop offset="1" stop-color="#FAA0F9"/>
</linearGradient>
<linearGradient id="paint1_linear_2677_554" x1="10.3801" y1="8.49276" x2="10.3801" y2="4.17392" gradientUnits="userSpaceOnUse">
<stop stop-color="#9BC4FA"/>
<stop offset="0.180392" stop-color="#6CAEF8"/>
<stop offset="0.396078" stop-color="#6682EE"/>
<stop offset="0.615686" stop-color="#8475EA"/>
<stop offset="0.807843" stop-color="#D573C8"/>
<stop offset="1" stop-color="#FAA0F9"/>
</linearGradient>
<linearGradient id="paint2_linear_2677_554" x1="9.29311" y1="13.1304" x2="9.29311" y2="0" gradientUnits="userSpaceOnUse">
<stop stop-color="#9BC4FA"/>
<stop offset="0.180392" stop-color="#6CAEF8"/>
<stop offset="0.396078" stop-color="#6682EE"/>
<stop offset="0.615686" stop-color="#8475EA"/>
<stop offset="0.807843" stop-color="#D573C8"/>
<stop offset="1" stop-color="#FAA0F9"/>
</linearGradient>
<linearGradient id="paint3_linear_2677_554" x1="21.2642" y1="32.0072" x2="21.2642" y2="16.9783" gradientUnits="userSpaceOnUse">
<stop stop-color="#9BC4FA"/>
<stop offset="0.180392" stop-color="#6CAEF8"/>
<stop offset="0.396078" stop-color="#6682EE"/>
<stop offset="0.615686" stop-color="#8475EA"/>
<stop offset="0.807843" stop-color="#D573C8"/>
<stop offset="1" stop-color="#FAA0F9"/>
</linearGradient>
<linearGradient id="paint4_linear_2677_554" x1="21.2496" y1="17.6957" x2="21.2496" y2="1.11595" gradientUnits="userSpaceOnUse">
<stop stop-color="#9BC4FA"/>
<stop offset="0.180392" stop-color="#6CAEF8"/>
<stop offset="0.396078" stop-color="#6682EE"/>
<stop offset="0.615686" stop-color="#8475EA"/>
<stop offset="0.807843" stop-color="#D573C8"/>
<stop offset="1" stop-color="#FAA0F9"/>
</linearGradient>
<linearGradient id="paint5_linear_2677_554" x1="21.2931" y1="13.1993" x2="21.2931" y2="4.77174" gradientUnits="userSpaceOnUse">
<stop stop-color="#9BC4FA"/>
<stop offset="0.180392" stop-color="#6CAEF8"/>
<stop offset="0.396078" stop-color="#6682EE"/>
<stop offset="0.615686" stop-color="#8475EA"/>
<stop offset="0.807843" stop-color="#D573C8"/>
<stop offset="1" stop-color="#FAA0F9"/>
</linearGradient>
</defs>
</svg>
