<svg width="25" height="24" viewBox="0 0 25 24" fill="none" xmlns="http://www.w3.org/2000/svg">
<path d="M21.1341 8.95317L20.717 7.9643C22.1454 4.73577 22.0507 4.63983 21.7733 4.35977L19.9485 2.57694L19.7674 2.42435H19.556C19.4445 2.42435 19.1117 2.42435 16.3379 3.68248L15.317 3.27085C13.9975 0 13.8622 0 13.4758 0H10.9016C10.5157 0 10.3657 -0.00043189 9.14196 3.28251L8.12545 3.69522C6.25092 2.90371 5.15157 2.50302 4.85489 2.50302L4.61154 2.51058L2.64877 4.43498C2.35093 4.71504 2.247 4.81379 3.75733 7.99237L3.34175 8.97779C0 10.2697 0 10.395 0 10.7903V13.3143C0 13.7102 0 13.8498 3.35298 15.0509L3.76849 16.0345C2.34028 19.2614 2.43623 19.3582 2.71369 19.6356L4.53848 21.4206L4.72001 21.5767H4.93241C5.04217 21.5767 5.37088 21.5767 8.14863 20.3159L9.16773 20.7304C10.4874 24.0008 10.6229 24 11.0102 24H13.5848C13.9785 24 14.1181 24 15.3455 20.7187L16.3672 20.3056C18.2396 21.0973 19.3364 21.4993 19.6312 21.4993L19.8762 21.4924L21.854 19.5562C22.1354 19.2722 22.2339 19.174 20.732 16.0086L21.1447 15.0224C24.4913 13.7292 24.4913 13.5935 24.4913 13.2071V10.6859C24.4909 10.2887 24.4909 10.15 21.1341 8.95317ZM12.245 16.1988C9.88439 16.1988 7.96221 14.314 7.96221 11.998C7.96221 9.68379 9.88446 7.80077 12.245 7.80077C14.6044 7.80077 16.5225 9.68423 16.5225 11.998C16.5221 14.314 14.604 16.1988 12.245 16.1988Z" fill="url(#paint0_linear_3885_1332)"/>
<defs>
<linearGradient id="paint0_linear_3885_1332" x1="12.5766" y1="24.8223" x2="12.5766" y2="0.992889" gradientUnits="userSpaceOnUse">
<stop stop-color="#9BC4FA"/>
<stop offset="0.2" stop-color="#6CAEF8"/>
<stop offset="0.395" stop-color="#6682EE"/>
<stop offset="0.605" stop-color="#8475EA"/>
<stop offset="0.805" stop-color="#D573C8"/>
<stop offset="1" stop-color="#FAA0F9"/>
</linearGradient>
</defs>
</svg>
