<svg width="40" height="36" viewBox="0 0 40 36" fill="none" xmlns="http://www.w3.org/2000/svg">
<path d="M5.67133 2.90596C5.64268 2.91518 5.61404 2.92903 5.58539 2.94748C1.93818 4.74641 0.0763814 6.87283 0 9.32675C0.0763814 11.8083 1.93818 13.9532 5.58539 15.7614C5.61404 15.7614 5.64268 15.7752 5.67133 15.8029C9.61452 17.7125 14.3931 18.6673 20.0072 18.6673C25.6212 18.6673 30.4094 17.7125 34.3716 15.8029C38.0571 13.9763 39.9332 11.8176 40 9.32675C39.9332 6.85438 38.0571 4.71411 34.3716 2.90596C30.4094 0.968653 25.6212 0 20.0072 0C14.3931 0 9.61452 0.968653 5.67133 2.90596ZM8.1203 4.78791C8.1394 4.77868 8.16327 4.76947 8.19191 4.76024C11.4381 3.38568 15.3718 2.69839 19.9928 2.69839C24.6139 2.69839 28.5571 3.38568 31.8224 4.76024C34.8586 6.04255 36.4053 7.56011 36.4626 9.31291C36.4053 11.0749 34.8586 12.6017 31.8224 13.8933C28.5571 15.2494 24.6139 15.9274 19.9928 15.9274C15.3718 15.9274 11.4381 15.2494 8.19191 13.8933C8.16327 13.8748 8.1394 13.8656 8.1203 13.8656C5.11278 12.5833 3.58039 11.0657 3.5231 9.31291C3.58039 7.56934 5.11278 6.061 8.1203 4.78791Z" fill="url(#paint0_linear_2594_1570)"/>
<path d="M3.56054 17.4294C3.57009 17.2265 3.59396 17.0235 3.63214 16.8206C2.64879 16.2487 1.79431 15.626 1.06873 14.9526C0.486352 15.8197 0.338374 17.0789 0.624789 18.7301C0.920751 20.3721 2.59627 22.1018 5.65137 23.9191C7.83767 24.9707 10.2817 25.7363 12.9836 26.216C15.0458 26.5758 17.2655 26.7649 19.6427 26.7833C19.7573 26.7833 19.8766 26.7833 20.0008 26.7833H20.3731V24.0436C20.2585 24.0436 20.144 24.0436 20.0294 24.0436H19.9864C19.8719 24.0436 19.7573 24.0436 19.6427 24.0436C17.7906 24.062 15.7809 23.896 13.6137 23.5455C11.6374 23.2041 9.83302 22.6922 8.20046 22.0095C5.16446 20.7181 3.61782 19.1914 3.56054 17.4294Z" fill="url(#paint1_linear_2594_1570)"/>
<path d="M39.391 18.7301C39.6774 17.0789 39.5294 15.8197 38.9471 14.9526C38.2215 15.626 37.367 16.2487 36.3836 16.8206C36.4218 17.0235 36.4457 17.2265 36.4552 17.4294C36.398 19.1914 34.8513 20.7181 31.8153 22.0095C28.6457 23.3287 24.8316 24.0067 20.373 24.0436V26.7833C25.8245 26.7372 30.4883 25.7825 34.3644 23.9191C37.4195 22.1018 39.095 20.3721 39.391 18.7301Z" fill="url(#paint2_linear_2594_1570)"/>
<path d="M3.56054 25.6604C3.57009 25.4574 3.59396 25.2545 3.63214 25.0515C2.64879 24.4796 1.79431 23.8569 1.06873 23.1835C0.486352 24.0507 0.338374 25.3098 0.624789 26.9611C0.920751 28.6031 2.59627 30.3327 5.65137 32.15C7.83767 33.2016 10.2817 33.9673 12.9836 34.447C15.0458 34.8067 17.2655 34.9958 19.6427 35.0143C19.7573 35.0143 19.8766 35.0143 20.0008 35.0143H20.3731V32.2746C20.2585 32.2746 20.144 32.2746 20.0294 32.2746H19.9864C19.8719 32.2746 19.7573 32.2746 19.6427 32.2746C17.7906 32.293 15.7809 32.127 13.6137 31.7764C11.6374 31.4351 9.83302 30.9231 8.20046 30.2405C5.16446 28.949 3.61782 27.4223 3.56054 25.6604Z" fill="url(#paint3_linear_2594_1570)"/>
<path d="M39.391 26.9611C39.6774 25.3098 39.5294 24.0507 38.9471 23.1835C38.2215 23.8569 37.367 24.4796 36.3836 25.0515C36.4218 25.2545 36.4457 25.4574 36.4552 25.6604C36.398 27.4223 34.8513 28.949 31.8153 30.2405C28.6457 31.5596 24.8316 32.2377 20.373 32.2746V35.0143C25.8245 34.9682 30.4883 34.0134 34.3644 32.15C37.4195 30.3327 39.095 28.6031 39.391 26.9611Z" fill="url(#paint4_linear_2594_1570)"/>
<defs>
<linearGradient id="paint0_linear_2594_1570" x1="19.9499" y1="17.5465" x2="19.9499" y2="0.66422" gradientUnits="userSpaceOnUse">
<stop stop-color="#9BC4FA"/>
<stop offset="0.180392" stop-color="#6CAEF8"/>
<stop offset="0.478431" stop-color="#8475EA"/>
<stop offset="0.768627" stop-color="#D573C8"/>
<stop offset="1" stop-color="#E592E4"/>
</linearGradient>
<linearGradient id="paint1_linear_2594_1570" x1="19.9864" y1="25.6625" x2="19.9864" y2="8.78121" gradientUnits="userSpaceOnUse">
<stop stop-color="#9BC4FA"/>
<stop offset="0.180392" stop-color="#6CAEF8"/>
<stop offset="0.478431" stop-color="#8475EA"/>
<stop offset="0.768627" stop-color="#D573C8"/>
<stop offset="1" stop-color="#E592E4"/>
</linearGradient>
<linearGradient id="paint2_linear_2594_1570" x1="19.9434" y1="25.6625" x2="19.9434" y2="8.78121" gradientUnits="userSpaceOnUse">
<stop stop-color="#9BC4FA"/>
<stop offset="0.180392" stop-color="#6CAEF8"/>
<stop offset="0.478431" stop-color="#8475EA"/>
<stop offset="0.768627" stop-color="#D573C8"/>
<stop offset="1" stop-color="#E592E4"/>
</linearGradient>
<linearGradient id="paint3_linear_2594_1570" x1="19.9864" y1="33.8935" x2="19.9864" y2="17.0122" gradientUnits="userSpaceOnUse">
<stop stop-color="#9BC4FA"/>
<stop offset="0.180392" stop-color="#6CAEF8"/>
<stop offset="0.478431" stop-color="#8475EA"/>
<stop offset="0.768627" stop-color="#D573C8"/>
<stop offset="1" stop-color="#E592E4"/>
</linearGradient>
<linearGradient id="paint4_linear_2594_1570" x1="19.9434" y1="33.8935" x2="19.9434" y2="17.0122" gradientUnits="userSpaceOnUse">
<stop stop-color="#9BC4FA"/>
<stop offset="0.180392" stop-color="#6CAEF8"/>
<stop offset="0.478431" stop-color="#8475EA"/>
<stop offset="0.768627" stop-color="#D573C8"/>
<stop offset="1" stop-color="#E592E4"/>
</linearGradient>
</defs>
</svg>
