<svg width="44" height="17" viewBox="0 0 44 17" fill="none" xmlns="http://www.w3.org/2000/svg">
<path d="M43.805 0.886018C43.805 0.708813 43.7459 0.555218 43.6278 0.425268C43.5096 0.295318 43.362 0.230347 43.1848 0.230347H32.2512C32.074 0.230347 31.9204 0.295318 31.7905 0.425268C31.6723 0.555218 31.6133 0.708813 31.6133 0.886018V16.037C31.6133 16.2143 31.6723 16.3678 31.7905 16.4978C31.9204 16.6159 32.074 16.675 32.2512 16.675H43.362C43.5392 16.675 43.6868 16.6159 43.805 16.4978C43.9349 16.3678 43.9999 16.2143 43.9999 16.037V13.5562C43.9999 13.379 43.9349 13.2313 43.805 13.1132C43.6868 12.9832 43.5392 12.9182 43.362 12.9182H35.9548V10.2956H42.6709C42.8481 10.2956 42.9957 10.2306 43.1139 10.1007C43.232 9.97073 43.2911 9.82306 43.2911 9.65767V7.1768C43.2911 6.99959 43.232 6.85192 43.1139 6.73378C42.9957 6.60383 42.8481 6.53884 42.6709 6.53884H35.9548V4.00482H43.1848C43.362 4.00482 43.5096 3.93985 43.6278 3.8099C43.7459 3.67995 43.805 3.53228 43.805 3.36689V0.886018Z" fill="url(#paint0_linear_2594_1561)"/>
<path d="M16.5154 2.88843C16.0311 3.71539 15.7712 4.59551 15.7357 5.52879C15.7357 5.67055 15.7889 5.78869 15.8952 5.8832C15.9897 5.98952 16.1079 6.04269 16.2496 6.04269H19.1381C19.3743 6.04269 19.5693 6.00133 19.7228 5.91863C19.8764 5.84775 19.9946 5.706 20.0773 5.49335C20.219 5.12713 20.3313 4.8495 20.4139 4.66048C20.5085 4.48327 20.7093 4.28836 21.0164 4.07572C21.3236 3.87488 21.7371 3.77445 22.2569 3.77445C23.0366 3.77445 23.5564 3.96939 23.8163 4.35924C24.0998 4.74909 24.2416 5.13894 24.2416 5.52879C24.2416 5.89501 24.1589 6.23762 23.9935 6.55658C23.8281 6.88737 23.4973 7.23585 23.0011 7.60208L15.9661 12.6347C15.5172 12.9655 15.2927 13.4321 15.2927 14.0346V16.0371C15.2927 16.2143 15.3518 16.3678 15.4699 16.4978C15.5999 16.6159 15.7535 16.675 15.9307 16.675H28.335C28.5004 16.675 28.6422 16.6159 28.7603 16.4978C28.8903 16.3678 28.9552 16.2143 28.9552 16.0371V13.5562C28.9552 13.379 28.8903 13.2313 28.7603 13.1132C28.6422 12.9832 28.5004 12.9182 28.335 12.9182H22.4341L25.7124 10.4196C26.7638 9.66357 27.5081 8.89568 27.9452 8.11598C28.3705 7.33627 28.5831 6.47388 28.5831 5.52879C28.5831 4.53644 28.335 3.62678 27.8388 2.79983C27.3427 1.94924 26.6161 1.26996 25.6592 0.761968C24.7141 0.253981 23.5741 0 22.2392 0C20.8452 0 19.6638 0.27171 18.6951 0.815139C17.7263 1.35857 16.9998 2.04966 16.5154 2.88843Z" fill="url(#paint1_linear_2594_1561)"/>
<path d="M13.6802 0.425268C13.5621 0.295318 13.4144 0.230347 13.2372 0.230347H0.620218C0.454826 0.230347 0.307155 0.295318 0.177205 0.425268C0.0590683 0.555218 0 0.708813 0 0.886018V3.36689C0 3.53228 0.0590683 3.67995 0.177205 3.8099C0.307155 3.93985 0.454826 4.00482 0.620218 4.00482H4.76681V16.037C4.76681 16.2143 4.82588 16.3678 4.94402 16.4978C5.06216 16.6159 5.20983 16.675 5.38703 16.675H8.4704C8.63579 16.675 8.78346 16.6159 8.91341 16.4978C9.04336 16.3678 9.10834 16.2143 9.10834 16.037V4.00482H13.2372C13.4144 4.00482 13.5621 3.93985 13.6802 3.8099C13.7984 3.67995 13.8574 3.53228 13.8574 3.36689V0.886018C13.8574 0.708813 13.7984 0.555218 13.6802 0.425268Z" fill="url(#paint2_linear_2594_1561)"/>
<defs>
<linearGradient id="paint0_linear_2594_1561" x1="37.7977" y1="16.675" x2="37.7977" y2="0.230347" gradientUnits="userSpaceOnUse">
<stop stop-color="#9BC4FA"/>
<stop offset="0.180392" stop-color="#6CAEF8"/>
<stop offset="0.396078" stop-color="#6682EE"/>
<stop offset="0.615686" stop-color="#8475EA"/>
<stop offset="0.807843" stop-color="#D573C8"/>
<stop offset="1" stop-color="#FAA0F9"/>
</linearGradient>
<linearGradient id="paint1_linear_2594_1561" x1="22.1151" y1="16.6838" x2="22.1151" y2="0.00885968" gradientUnits="userSpaceOnUse">
<stop stop-color="#9BC4FA"/>
<stop offset="0.180392" stop-color="#6CAEF8"/>
<stop offset="0.396078" stop-color="#6682EE"/>
<stop offset="0.615686" stop-color="#8475EA"/>
<stop offset="0.807843" stop-color="#D573C8"/>
<stop offset="1" stop-color="#FAA0F9"/>
</linearGradient>
<linearGradient id="paint2_linear_2594_1561" x1="6.92871" y1="16.675" x2="6.92871" y2="0.230347" gradientUnits="userSpaceOnUse">
<stop stop-color="#9BC4FA"/>
<stop offset="0.180392" stop-color="#6CAEF8"/>
<stop offset="0.396078" stop-color="#6682EE"/>
<stop offset="0.615686" stop-color="#8475EA"/>
<stop offset="0.807843" stop-color="#D573C8"/>
<stop offset="1" stop-color="#FAA0F9"/>
</linearGradient>
</defs>
</svg>
