<svg width="40" height="38" viewBox="0 0 40 38" fill="none" xmlns="http://www.w3.org/2000/svg">
<path d="M26.772 14.0591C23.5839 14.0591 20.8678 15.1839 18.6236 17.4333C16.3636 19.6828 15.2336 22.4015 15.2336 25.5896C15.2336 28.7776 16.3636 31.499 18.6236 33.7537C20.8678 36.0032 23.5839 37.1279 26.772 37.1279C29.96 37.1279 32.6814 36.0032 34.9361 33.7537C37.1855 31.499 38.3103 28.7776 38.3103 25.5896C38.3103 22.4015 37.1855 19.6828 34.9361 17.4333C32.6814 15.1839 29.96 14.0591 26.772 14.0591ZM20.1573 18.9828L20.1652 18.9749C21.9846 17.1502 24.1869 16.2378 26.772 16.2378C29.357 16.2378 31.5645 17.1528 33.3945 18.9828C35.2192 20.8075 36.1316 23.0098 36.1316 25.5896C36.1316 28.1746 35.2192 30.3821 33.3945 32.2121C31.5645 34.0369 29.357 34.9492 26.772 34.9492C24.1869 34.9492 21.9846 34.0369 20.1652 32.2121H20.1573C18.3273 30.3821 17.4123 28.1746 17.4123 25.5896C17.4123 23.0098 18.3273 20.8075 20.1573 18.9828Z" fill="url(#paint0_linear_2594_1550)"/>
<path d="M1.56387 19.5884C1.53766 19.3734 1.43803 19.2004 1.26499 19.0693C1.09196 18.9382 0.897949 18.8858 0.682966 18.912C0.467982 18.9382 0.294947 19.0378 0.163859 19.2109C0.0327718 19.3839 -0.0196631 19.5779 0.00655437 19.7929C0.808809 26.0169 3.81333 30.4267 9.02012 33.0222L8.3909 34.5402C8.30701 34.7395 8.30439 34.9413 8.38304 35.1458C8.46693 35.3451 8.60851 35.4867 8.80776 35.5706C9.01226 35.6597 9.21413 35.6597 9.41339 35.5706L12.764 34.1706C12.9003 34.1181 13.0104 34.0342 13.0943 33.9189C13.1782 33.8035 13.228 33.675 13.2438 33.5335C13.2647 33.3971 13.2438 33.2608 13.1808 33.1245L11.7572 29.9076C11.6733 29.7136 11.5318 29.5773 11.3325 29.4986C11.1333 29.4199 10.934 29.4226 10.7347 29.5065C10.5407 29.5904 10.3992 29.7293 10.31 29.9233L9.62575 31.5672C4.97477 29.1919 2.28748 25.1989 1.56387 19.5884Z" fill="url(#paint1_linear_2594_1550)"/>
<path d="M8.55621 6.31973L8.56407 6.31186C10.3836 4.48713 12.5858 3.57476 15.1709 3.57476C17.7559 3.57476 19.9634 4.48975 21.7934 6.31973C23.508 8.03435 24.4178 10.0872 24.5226 12.4782C24.5279 12.5621 24.562 12.6329 24.6249 12.6906C24.6826 12.7483 24.7534 12.7771 24.8373 12.7771H26.3867C26.4444 12.7771 26.4995 12.764 26.5519 12.7378C26.5991 12.7063 26.6358 12.6644 26.662 12.6119C26.6882 12.5595 26.7013 12.5071 26.7013 12.4546C26.5965 9.47107 25.4743 6.90962 23.335 4.77028C21.0803 2.52082 18.3589 1.39609 15.1709 1.39609C11.9828 1.39609 9.2667 2.52082 7.02249 4.77028C4.76254 7.01974 3.63257 9.73849 3.63257 12.9265C3.63257 16.1093 4.76254 18.8281 7.02249 21.0828V21.0907C8.78954 22.863 10.8476 23.9379 13.1967 24.3154C13.2806 24.3259 13.3593 24.3049 13.4327 24.2525C13.5008 24.2 13.5428 24.1319 13.5585 24.048L13.7787 22.5693C13.7892 22.4854 13.7709 22.4094 13.7237 22.3412C13.6765 22.2731 13.6136 22.2311 13.5349 22.2154C11.5686 21.7959 9.91165 20.9071 8.56407 19.5491H8.55621C6.72623 17.7191 5.81124 15.5116 5.81124 12.9265C5.81124 10.3467 6.72623 8.14447 8.55621 6.31973Z" fill="url(#paint2_linear_2594_1550)"/>
<path d="M27.2359 1.46687C27.0996 1.5193 26.9895 1.6032 26.9056 1.71856C26.8217 1.83391 26.7719 1.96238 26.7562 2.10395C26.7352 2.24028 26.7562 2.37661 26.8191 2.51295L28.2427 5.72983C28.3266 5.92384 28.4682 6.06017 28.6674 6.13882C28.8667 6.21747 29.0659 6.21485 29.2652 6.13096C29.4592 6.04706 29.6008 5.90811 29.6899 5.7141L30.3742 4.07026C35.0251 6.44557 37.7124 10.4385 38.436 16.049C38.4623 16.264 38.5619 16.437 38.7349 16.5681C38.908 16.6992 39.102 16.7517 39.3169 16.7254C39.5319 16.6992 39.705 16.5996 39.8361 16.4266C39.9671 16.2535 40.0196 16.0595 39.9934 15.8445C39.1911 9.6205 36.1866 5.21072 30.9798 2.61519L31.609 1.0972C31.6929 0.897949 31.6955 0.696073 31.6169 0.491577C31.533 0.292324 31.3914 0.15075 31.1922 0.0668546C30.9877 -0.0222849 30.7858 -0.0222849 30.5865 0.0668546L27.2359 1.46687Z" fill="url(#paint3_linear_2594_1550)"/>
<defs>
<linearGradient id="paint0_linear_2594_1550" x1="26.7641" y1="36.3984" x2="26.7641" y2="14.3403" gradientUnits="userSpaceOnUse">
<stop stop-color="#9BC4FA"/>
<stop offset="0.180392" stop-color="#6CAEF8"/>
<stop offset="0.478431" stop-color="#8475EA"/>
<stop offset="0.768627" stop-color="#D573C8"/>
<stop offset="1" stop-color="#E592E4"/>
</linearGradient>
<linearGradient id="paint1_linear_2594_1550" x1="13.2457" y1="27.2649" x2="-0.00327726" y2="27.2649" gradientUnits="userSpaceOnUse">
<stop stop-color="#9BC4FA"/>
<stop offset="0.180392" stop-color="#6CAEF8"/>
<stop offset="0.396078" stop-color="#6682EE"/>
<stop offset="0.615686" stop-color="#8475EA"/>
<stop offset="0.807843" stop-color="#D573C8"/>
<stop offset="1" stop-color="#FAA0F9"/>
</linearGradient>
<linearGradient id="paint2_linear_2594_1550" x1="15.163" y1="23.7353" x2="15.163" y2="1.67727" gradientUnits="userSpaceOnUse">
<stop stop-color="#9BC4FA"/>
<stop offset="0.180392" stop-color="#6CAEF8"/>
<stop offset="0.478431" stop-color="#8475EA"/>
<stop offset="0.768627" stop-color="#D573C8"/>
<stop offset="1" stop-color="#E592E4"/>
</linearGradient>
<linearGradient id="paint3_linear_2594_1550" x1="26.7385" y1="8.35682" x2="39.9875" y2="8.35682" gradientUnits="userSpaceOnUse">
<stop stop-color="#9BC4FA"/>
<stop offset="0.180392" stop-color="#6CAEF8"/>
<stop offset="0.396078" stop-color="#6682EE"/>
<stop offset="0.615686" stop-color="#8475EA"/>
<stop offset="0.807843" stop-color="#D573C8"/>
<stop offset="1" stop-color="#FAA0F9"/>
</linearGradient>
</defs>
</svg>
