<?xml version="1.0" encoding="utf-8"?>
<!-- Generator: Adobe Illustrator 25.2.3, SVG Export Plug-In . SVG Version: 6.00 Build 0)  -->
<svg version="1.1" id="Layer_1" xmlns="http://www.w3.org/2000/svg" xmlns:xlink="http://www.w3.org/1999/xlink" x="0px" y="0px"
	 width="127px" height="127px" viewBox="0 0 127 127" style="enable-background:new 0 0 127 127;" xml:space="preserve">
<style type="text/css">
	.st0{fill:#1C2951;}
	.st1{fill:#FE0000;}
	.st2{fill:#FDFDFD;}
	.st3{fill:#FDA000;}
	.st4{fill:#FE7900;}
	.st5{fill:#FE8E00;}
	.st6{fill:#F8FBF4;}
</style>
<circle class="st0" cx="63.5" cy="63.5" r="63"/>
<g>
	<circle class="st1" cx="63.5" cy="64.8" r="46.3"/>
	<path class="st2" d="M103.5,74.4c-3.3-0.5-6.8-0.6-10,0.1C76.5,78.8,82.9,86,79.2,75.9c0-0.1-1.4-0.9-1.4-0.9l0,0
		c-0.1-0.2-0.2-0.4-0.4-0.5l0,0c-2.1-3.1-5.3-5.4-8.9-6.3l0,0C68.4,68,68.4,68,68.3,68l0,0c-5-1.4-10.7-0.4-14.8,2.9l0,0
		c-1.4,1.1-2.8,1.8-3.9,3.2l-0.5,0.4c-0.2,0.2-0.3,0.4-0.5,0.6L48,75.7c-1.2,1.7-0.8,3.2-1.6,5.1l0,0c-0.2,0.2-0.2,0.9-0.5,0.6
		c-0.9-0.9-1.8-1.8-2.8-2.6l0,0c-5.4-4.7-13-6-19.9-4.6c-0.3,4.2,2,8.2,4.5,11.4l0,0c2.7,3.3,5.9,6.2,9.3,8.6l0,0
		c2.2,1.6,4.4,3,6.8,4.3c0.2,0.2,0.3,0.3,0.5,0.3l0,0l0,0c0.1,0.1,0.2,0.1,0.3,0.2c0.1,0.1,0.2,0.2,0.3,0.2c1.3,0.8,2.7,1.5,4.2,2.1
		c0,0,0,0,0-0.1l0,0c0,0,0,0,0,0.1c0.2,0.1,0.4,0.2,0.6,0.2c0.1,0.1,0.3,0.2,0.4,0.2l0,0c0,0,0,0-0.1,0.1c0.1,0.1,0.1,0.1,0.2,0.1
		c0.1,0.1,0.2,0.1,0.3,0.1c0.1,0.1,0.2,0.1,0.3,0.1c0.1,0.1,0.2,0.1,0.3,0.1l0,0l0,0l0,0c0.3,0.2,0.6,0.2,0.8,0.3
		c0.2,0.1,0.3,0.1,0.4,0.2c0.4,0.2,0.8,0.3,1.3,0.4C70,108.7,88.7,99,99,86.3l0,0l0,0c0.1-0.1,0.2-0.2,0.2-0.3
		c0.4-0.2,0.6-0.7,0.8-1.1l0,0c0.3-0.4,0.6-0.8,0.8-1.4c0.1-0.1,0.1-0.1,0.1-0.2c0.1-0.2,0.3-0.4,0.3-0.6l0,0
		C102.6,80.4,104.1,76.9,103.5,74.4z M33.9,91.8L33.9,91.8L33.9,91.8L33.9,91.8z M36.5,93.8L36.5,93.8L36.5,93.8L36.5,93.8z
		 M36.5,93.8L36.5,93.8C36.6,93.8,36.6,93.8,36.5,93.8C36.6,93.8,36.6,93.8,36.5,93.8z M46,81.7L46,81.7C46,81.7,46,81.7,46,81.7
		C46,81.8,46,81.7,46,81.7z M46.4,81.5L46.4,81.5L46.4,81.5L46.4,81.5z M47.4,100.4L47.4,100.4L47.4,100.4L47.4,100.4z M48.9,101.1
		C48.9,101.1,48.8,101.1,48.9,101.1L48.9,101.1C48.8,101.1,48.9,101.1,48.9,101.1L48.9,101.1z M53.5,71.2L53.5,71.2L53.5,71.2
		L53.5,71.2L53.5,71.2z M53.7,103L53.7,103L53.7,103L53.7,103z M53.9,103.1L53.9,103.1L53.9,103.1L53.9,103.1z M58.1,103.9
		L58.1,103.9L58.1,103.9C58.2,103.9,58.1,103.9,58.1,103.9z M59.2,104L59.2,104L59.2,104L59.2,104z M59.2,104.2L59.2,104.2
		L59.2,104.2L59.2,104.2L59.2,104.2z M67.9,104.2L67.9,104.2L67.9,104.2L67.9,104.2z M68,104.2L68,104.2L68,104.2L68,104.2L68,104.2
		z M81,100.1C81,100.1,80.9,100.1,81,100.1C80.9,100.1,81,100.1,81,100.1L81,100.1z M98.8,86.8L98.8,86.8L98.8,86.8L98.8,86.8z"/>
	<path class="st3" d="M85.9,24.1C111.4,0.1,102.5,36.6,97.7,51c2.1,5,4.8,10.1,5.4,15.7c0.3,2.5,0.8,5.5,0.6,7.9
		c-7-1.5-14.8,0.2-20.3,4.9c-4.4,4.5-1.7,0.7-6.1-5c-8.9-12.3-26.4-7-30.8,6.5c-0.2,0.3-0.3,1.1-0.7,0.6c-5.6-6.4-14.4-8.7-22.6-7.1
		c-0.2-8.1,2.9-16,6-23.2c-3.5-10.1-7.6-24.4-3.2-34.6c4.2-3,11.9,5.2,15.1,7.8c11.7,13,4.3,4.3,23.4,4.9
		C83.3,29.6,74.2,36.7,85.9,24.1z"/>
	<path class="st4" d="M39.8,36.2c-1,0.9-2,1.8-2.9,2.7c-0.6,0.7-1.3,1.3-1.8,2c-0.7,0.8-1.4,1.7-2.1,2.6c-0.6,0.8-1.1,1.6-1.7,2.4
		c-0.1,0.1-0.1,0.2-0.2,0.2c-0.1,0-0.1-0.1-0.1-0.2c-0.3-0.9-0.6-1.8-0.9-2.8c-0.3-0.9-0.6-1.8-0.8-2.8c-0.3-1-0.5-2-0.8-3
		c-0.1-0.5-0.3-0.9-0.3-1.4c-0.2-0.8-0.3-1.6-0.5-2.4c-0.1-0.6-0.2-1.2-0.3-1.8c-0.1-0.4-0.1-0.8-0.2-1.2c-0.1-1.1-0.2-2.3-0.1-3.4
		c0-0.6,0.1-1.1,0.2-1.7c0.1-0.5,0-0.5,0.6-0.4c0.9,0.1,1.8,0.4,2.6,0.7c1.2,0.5,2.3,1.2,3.3,2c0.9,0.7,1.7,1.6,2.4,2.5
		c0.4,0.5,0.8,1,1.2,1.5c0.4,0.5,0.7,1,1.1,1.5c0.3,0.5,0.6,1,0.9,1.5c0.2,0.4,0.4,0.8,0.6,1.2C40,36.1,39.9,36.1,39.8,36.2z"/>
	<path class="st4" d="M98.9,25c0.1,0.4,0.2,0.8,0.2,1.2c0.1,0.5,0.1,0.9,0.1,1.4c0,0.7-0.1,1.4-0.1,2.1c0,0.5-0.1,0.9-0.1,1.4
		c-0.1,0.9-0.2,1.8-0.4,2.7c-0.2,0.8-0.3,1.7-0.5,2.6c-0.2,0.9-0.4,1.7-0.7,2.6c-0.3,1.3-0.7,2.5-1.1,3.8c-0.2,0.5-0.3,1.1-0.5,1.5
		c-0.2,0.6-0.4,1.1-0.6,1.6c-0.1,0.2-0.2,0.2-0.2,0.1c-0.4-0.6-0.8-1.3-1.3-1.9c-0.3-0.4-0.5-0.7-0.8-1.1c-0.4-0.5-0.7-0.9-1.1-1.4
		c-0.5-0.7-1.1-1.3-1.7-2c-0.6-0.7-1.3-1.3-1.9-2c-0.5-0.5-1.1-1-1.7-1.5c-0.3-0.2-0.3-0.2-0.1-0.5c0.5-1.1,1.2-2.1,1.8-3.1
		c0.6-0.9,1.3-1.8,2-2.7c0.4-0.5,0.9-1,1.4-1.5c0.6-0.6,1.3-1.2,2-1.6c0.6-0.4,1.2-0.8,1.8-1c0.8-0.3,1.5-0.6,2.4-0.7
		c0.3-0.1,0.6-0.2,0.9-0.2C98.8,25,98.9,24.9,98.9,25z"/>
	<path d="M52.7,67.5c-1.5-0.1-3.1-0.3-4.6-0.6c-2-0.5-4-1.1-5.9-2c-1-0.5-2-1.1-2.8-1.8c-0.4-0.4-0.7-0.7-0.7-1.3
		c-0.1-1.1-0.1-2.2,0.2-3.3c0-0.1,0.1-0.2,0.1-0.3c0.4-1,0.3-0.9,1.4-0.8c1.6,0.2,3.1,0.9,4.5,1.6c2.3,1.2,4.6,2.5,6.8,4
		c1,0.7,1.9,1.5,2.6,2.5c0.3,0.4,0.4,0.8,0.5,1.3c0.1,0.4-0.1,0.5-0.4,0.6C53.8,67.5,53.3,67.5,52.7,67.5z"/>
	<path d="M88.9,60.3c0,0.6-0.1,1.2-0.1,1.8c0,0.2-0.1,0.3-0.2,0.4c-0.7,0.8-1.5,1.4-2.4,1.9c-2.2,1.2-4.5,2-7,2.5
		c-1.1,0.3-2.2,0.4-3.3,0.5c-0.7,0.1-1.4,0.1-2.1-0.1c-0.1-0.1-0.3-0.1-0.4-0.2c-0.2-0.1-0.3-0.3-0.3-0.6c0.2-0.8,0.5-1.4,1-2
		c0.8-1,1.8-1.7,2.9-2.4c1.9-1.2,3.8-2.4,5.8-3.4c1.3-0.6,2.5-1.2,3.9-1.5c0.4-0.1,0.8-0.1,1.3-0.1c0.2,0,0.3,0.1,0.3,0.2
		c0.4,0.7,0.5,1.5,0.5,2.4C88.9,59.9,88.9,60.1,88.9,60.3z"/>
	<path class="st5" d="M98.9,25c-0.5,0.1-1,0.2-1.5,0.3c-0.5,0.1-1.1,0.3-1.6,0.5c-0.2,0.1-0.5,0.2-0.7,0.3c-0.3,0.1-0.5,0.3-0.8,0.4
		c-0.5,0.3-1,0.6-1.5,1c-0.6,0.4-1.1,0.9-1.6,1.4c-0.5,0.4-0.8,0.9-1.3,1.4c-0.3,0.4-0.6,0.8-0.9,1.2c-0.2,0.3-0.4,0.6-0.6,0.9
		c-0.4,0.5-0.7,1.2-1.1,1.7c-0.3,0.5-0.6,1.1-0.9,1.6c-0.1,0.2-0.2,0.4,0.1,0.5c-0.2,0-0.2-0.1-0.3-0.2c-0.3-0.3-0.7-0.6-1-0.8
		c-0.6-0.4-1.1-0.8-1.7-1.2c-0.3-0.2-0.5-0.3-0.7-0.5c-0.2-0.1-0.3-0.2-0.5-0.3c-0.1-0.1-0.1-0.2-0.1-0.2c0.2-0.3,0.4-0.5,0.6-0.7
		c0.2-0.2,0.4-0.5,0.6-0.6c0.3-0.2,0.4-0.5,0.7-0.7c0.3-0.2,0.4-0.4,0.6-0.6c0.3-0.3,0.7-0.6,1-0.9c0.5-0.4,0.9-0.9,1.4-1.3
		c0.4-0.3,0.7-0.6,1.1-0.9c0.3-0.2,0.5-0.4,0.7-0.6c0.6-0.5,1.3-1,2-1.5c0.6-0.4,1.3-0.9,2-1.3c0.5-0.3,1.1-0.6,1.6-0.9
		c0.5-0.3,1-0.5,1.5-0.7c0.4-0.2,0.9-0.3,1.3-0.5c0.2-0.1,0.2,0.1,0.3,0.2c0.2,0.5,0.4,0.9,0.6,1.4c0.2,0.5,0.2,0.9,0.4,1.4
		C98.9,24.8,98.9,24.9,98.9,25z"/>
	<path class="st5" d="M39.8,36.2c0.2-0.2,0.2-0.3-0.1-0.6c-0.2-0.3-0.3-0.5-0.4-0.8c0-0.1-0.1-0.1-0.2-0.2c-0.3-0.5-0.6-1.1-0.9-1.6
		c-0.2-0.4-0.5-0.7-0.7-1c-0.3-0.5-0.6-0.9-0.9-1.3c-0.5-0.6-0.9-1.2-1.5-1.7c-0.4-0.3-0.6-0.7-1.1-1c-0.4-0.3-0.8-0.7-1.2-0.9
		c-0.4-0.3-0.8-0.5-1.2-0.8c-0.2-0.1-0.4-0.2-0.6-0.3c-0.7-0.3-1.5-0.6-2.3-0.8c-0.4-0.1-0.8-0.2-1.2-0.2c-0.2,0-0.3,0.1-0.3,0.3
		c0,0.1,0,0.1-0.1,0.2c-0.1-0.3,0.1-0.5,0.1-0.7c0.2-0.7,0.3-1.4,0.6-2.1c0.1-0.3,0.3-0.5,0.4-0.8c0.1-0.2,0.2-0.2,0.3-0.2
		c0.7,0.3,1.3,0.5,2,0.8c0.4,0.2,0.9,0.4,1.3,0.7c0.4,0.2,0.8,0.4,1.2,0.6c0.6,0.4,1.2,0.7,1.7,1.1c0.4,0.3,0.8,0.6,1.2,0.9
		c0.6,0.5,1.2,0.9,1.8,1.4c0.5,0.4,0.9,0.8,1.4,1.2c0.3,0.2,0.6,0.5,0.8,0.7c0.3,0.3,0.7,0.6,1,0.9c0.3,0.3,0.6,0.6,0.9,0.9
		c0.6,0.6,1.2,1.2,1.8,1.8c0.2,0.1,0.2,0.2,0,0.3c-0.4,0.3-0.7,0.5-1.1,0.7c-0.3,0.2-0.6,0.4-0.9,0.7c-0.4,0.3-0.8,0.6-1.2,0.9
		c-0.2,0.2-0.4,0.4-0.7,0.6C39.9,36.1,39.9,36.2,39.8,36.2z"/>
	<path class="st6" d="M50.1,50.6c-0.2-0.3-0.5-0.7-0.6-0.9c-0.3-0.3-0.7-0.8-1.1-1.1s-0.8-0.6-1.3-0.8c-1.2-0.5-2.4-0.5-3.6,0.1
		c-0.9,0.4-1.8,1.1-2.4,2c-0.1,0.1-0.1,0.1-0.1,0.2c-0.8,1.3-0.8,2.8,0.1,4.1c0.3,0.4,0.6,0.7,1.1,0.7c0.5,0.1,1.1,0.1,1.6,0.2
		c1.1,0.1,2.2,0,3.2-0.1c0.7-0.1,1.5-0.2,2.2-0.5c0.4-0.2,0.7-0.3,0.9-0.7C50.7,52.6,50.6,51.6,50.1,50.6z"/>
	<path class="st6" d="M76.4,53.6c0.2,0.4,0.6,0.6,0.9,0.7c0.7,0.3,1.5,0.4,2.2,0.5c1.1,0.1,2.2,0.2,3.2,0.1c0.5,0,1.1-0.1,1.6-0.2
		c0.5-0.1,0.8-0.4,1.1-0.7c0.9-1.2,0.9-2.8,0.1-4.1c-0.1-0.1-0.1-0.1-0.1-0.2c-0.6-0.9-1.4-1.5-2.4-2c-1.2-0.5-2.4-0.6-3.6-0.1
		c-0.5,0.2-0.9,0.5-1.3,0.8c-0.4,0.3-0.8,0.8-1.1,1.1c-0.2,0.2-0.5,0.6-0.6,0.9C76,51.6,75.9,52.6,76.4,53.6z"/>
	<path d="M72.1,94.2c-0.2-0.3-0.4-0.6-0.5-0.9c-0.1-0.1-0.1-0.2-0.1-0.3c0-1.2,0-2.4,0-3.6c0-0.2,0-0.3-0.3-0.2
		c-2.8,0.5-5.7,0.7-8.6,0.5c-1.4-0.1-2.8-0.2-4.3-0.5c-0.2-0.1-0.3,0-0.3,0.2c0.1,1.2,0.1,2.5,0.1,3.7c0,0.5-0.3,0.7-0.5,1.1
		c-0.1,0.1-0.1-0.1-0.2-0.1c-0.4-0.5-0.6-1.1-0.8-1.7c-0.2-0.5-0.3-1-0.4-1.5c-0.1-0.2-0.1-0.2-0.2-0.2c-0.1,0-0.2,0-0.2,0
		c-0.5,0.1-0.5,0.1-0.6-0.5c-0.1-0.4-0.2-0.8-0.2-1.3c0-0.2-0.1-0.3-0.2-0.4c-0.2-0.2-0.4-0.4-0.7-0.6c-0.2-0.1-0.1-0.3-0.1-0.4
		c0.1-0.1,0.2-0.1,0.3-0.1c1.1,0,2.1,0,3.1,0c0.2,0,0.3,0.1,0.3,0.3c0,0.2,0.1,0.2,0.2,0.2c1.5,0.1,3,0.1,4.5,0.1
		c0.2,0,0.3-0.1,0.3-0.2c0.2-0.3,0.4-0.6,0.6-0.9c0.2-0.3,0.3-0.4,0.6-0.3c0.2,0.1,0.2-0.1,0.2-0.2c0-0.9,0-1.7,0-2.6
		c0-0.2-0.1-0.3-0.2-0.3c-1.3-0.5-2.5-1.2-3.6-2.1c-0.8-0.7-1.4-1.5-1.7-2.5c-0.1-0.3-0.1-0.5-0.1-0.7c0-0.7,0-1.5,0-2.2
		c0-1.3,0.9-2.2,2.2-2.2c2.4,0,4.9,0,7.3,0c0.9,0,2.3,1.1,2.3,2.4c0,0.7,0,1.4-0.1,2.1c-0.1,1.6-0.7,2.8-1.9,3.8
		c-0.7,0.6-1.6,1.1-2.5,1.4c-0.2,0.1-0.2,0.1-0.2,0.3c0,0.9,0,1.8,0,2.7c0,0.2,0.1,0.2,0.2,0.2c0.3-0.1,0.5,0.1,0.6,0.3
		c0.2,0.3,0.4,0.6,0.6,0.9c0.1,0.1,0.2,0.2,0.3,0.2c1.3,0,2.5,0,3.8,0.1c0.2,0,0.3-0.2,0.4-0.3c0.1-0.2,0.2-0.2,0.4-0.2
		c0.9,0,1.9,0,2.8,0c0.3,0,0.3,0.1,0.2,0.3c-0.3,0.9-0.5,1.8-0.7,2.7c-0.1,0.2-0.1,0.3-0.3,0.3c-0.7,0-0.7,0-0.9,0.6
		C72.8,92.3,72.5,93.2,72.1,94.2z"/>
	<path d="M64.3,90.5c1.2,0,2.4,0,3.6,0c0.2,0,0.3,0.1,0.3,0.3c0,0.6,0,0.6-0.5,0.9c-0.5,0.3-0.5,0.3-0.9-0.1
		c-0.5-0.4-0.5-0.4-0.9,0.1c-0.3,0.3-0.5,0.6-0.7,0.8c-0.3,0.3-0.8,0.3-1.1-0.1c-0.2-0.3-0.4-0.7-0.6-1c-0.1-0.2-0.2-0.2-0.4-0.2
		c-0.6,0-0.6,0-0.8,0.5C62.1,92,62,92,61.8,91.9c-0.4-0.1-0.7-0.3-1.1-0.5c-0.2-0.1-0.2-0.2-0.2-0.3c0-0.6,0-0.6,0.6-0.6
		C62.2,90.5,63.3,90.5,64.3,90.5L64.3,90.5z"/>
</g>
</svg>
