<?xml version="1.0" encoding="utf-8"?>
<!-- Generator: Adobe Illustrator 27.4.0, SVG Export Plug-In . SVG Version: 6.00 Build 0)  -->
<svg version="1.1" id="Layer_1" xmlns="http://www.w3.org/2000/svg" xmlns:xlink="http://www.w3.org/1999/xlink" x="0px" y="0px"
	 viewBox="0 0 128 128" style="enable-background:new 0 0 128 128;" xml:space="preserve">
<style type="text/css">
	.st0{fill-rule:evenodd;clip-rule:evenodd;fill:#289631;}
	.st1{fill:#40AE46;}
	.st2{fill:#006D01;}
	.st3{fill:#010701;}
	.st4{fill:#289631;}
	.st5{fill:#FDFEFE;}
	.st6{fill:#2B9A34;}
</style>
<g id="楕円形_1_のコピー_8">
	<g>
		<circle class="st0" cx="64" cy="64" r="63.5"/>
	</g>
</g>
<g id="uGJbZR_00000093156724869590338140000003412933892641507747_">
	<g>
		<path class="st1" d="M74.6,27.1c0.6-0.8,1.4-0.4,1.9-0.1c1.5,0.6,3,1.3,4.1,2.6c0.6,0.7,1.2,1.5,1.7,2.3c0.6,0.8,1.1,1.7,1.6,2.6
			c0.4,0.7,0.8,1.3,1,2.1c0.2,0.6,0.8,0.8,1.2,1.1c1.4,1,2.8,2,3.7,3.6c0.6,1.1,1.8,1.7,2.8,2.4c0.3,0.2,0.6,0.4,0.8,0.6
			c0.9,0.8,0.9,1,0.3,2c-0.3,0.4-0.3,0.8-0.2,1.2c0.2,1.4,0.2,2.9,0.1,4.3c-0.2,1.5-0.8,2.9-2,3.9c-0.4,0.3-0.4,0.6,0,0.9
			c0.8,0.8,1.4,1.8,1.9,2.8c0.4,0.8,1.1,1.5,1.5,2.3c0.7,1.3,0.7,2.4-0.3,3.6c-0.4,0.5-0.9,1-1.3,1.6c-0.4,0.5-0.4,1.2,0,1.8
			c0.4,0.6,0.4,1,0,1.6c-0.6,0.9-1.1,1.7-1.8,2.5c-0.1,0.2-0.2,0.4,0,0.6c0.9,0.8,0.3,1.6,0,2.3c-0.5,1.1-1,2.1-1.8,3
			c-0.4,0.4,0,1.3,0.6,1.5c1.6,0.6,2.9,1.6,4.2,2.7c1.5,1.2,2.6,2.9,3.8,4.4c1.4,1.8,2.4,3.9,3.4,6c0.4,0.7,0.4,1.6,0.9,2.2
			c0.1,0.1,0.1,0.3,0,0.5c-0.6,1-1.2,1.9-2.3,2.6c-1.5,0.9-3,1.5-4.6,2c-0.2,0.1-0.5,0.1-0.7,0.1c-0.7,0-1,0.3-1,1
			c-0.4,0.1-0.9-0.2-1.3,0.1c-0.3,0-0.6,0-0.9,0c0-0.1-0.1-0.1-0.1,0c-1.3,0-2.6,0-3.9,0c0-0.1-0.1-0.1-0.1,0c-0.5,0-1.1,0-1.6,0
			c0-1.1-0.1-1.2-1.1-1.2c-2.3,0-4.3-0.8-6.1-2.2c-0.9-0.7-1.9-1.2-2.9-1.8c-0.4-0.2-0.8-0.5-0.7-1.1c1.4,0.9,2.9,1.8,4.3,2.8
			c1.5,1.1,3.2,1.7,5.1,1.7c1.2,0,2.5,0,3.7,0.2c0.1,0,0.1,0.1,0.2,0.1c1.6,0,3.1,0.3,4.7,0c2.6-0.5,5.1-1.2,7.4-2.7
			c1-0.7,1.5-1.6,1.3-2.4c-0.6-1.6-1.1-3.2-2.1-4.7c-0.3-0.5-0.8-1-0.9-1.5c-0.2-0.8-0.7-1.3-1.1-1.9c-0.3-0.4-0.7-0.7-1-1.1
			c-1.8-2.5-4.2-4.4-7-5.7c-1.2-0.6-1.4-1.3-0.4-2.2c0.1-0.1,0.2-0.2,0.3-0.3c1-1.1,1.8-2.3,1.3-3.7c-0.4-1.3,0.4-1.8,1-2.6
			c0.1-0.1,0.2-0.2,0.3-0.3c0.5-0.8,0.9-1.7,0.3-2.5c-0.6-0.8-0.4-1.3,0.2-1.9c0.2-0.2,0.5-0.5,0.7-0.7c1.5-1.4,2.1-2.8,0.6-4.8
			c-0.3-0.4-0.9-0.8-1-1.3c-0.3-1.3-1.1-2.2-2-3.1c-0.4-0.5-0.9-0.7,0-1.2c0.3-0.1,0.4-0.4,0.6-0.7c0.9-1.2,1.6-2.5,1.3-4.1
			c-0.2-1-0.3-1.9-0.1-2.8c0.2-0.7,0-1.5,0.6-2.1c0.3-0.3,0.1-0.7-0.1-1c-0.7-1.1-1.9-1.5-2.9-2.2c-0.3-0.2-0.5-0.5-0.7-0.8
			c-0.8-1.3-1.7-2.4-2.9-3.3c-1-0.7-2.4-1.1-2.5-2.7c0,0,0,0,0-0.1c-1.1-1.9-2.1-3.7-3.5-5.4C79.2,28.6,77.1,27.4,74.6,27.1z"/>
		<path class="st2" d="M92.9,102c0.4-0.3,0.9-0.1,1.3-0.1c0.1,0,0.2,0.1,0.3,0.1C93.9,102,93.4,102,92.9,102z"/>
		<path class="st2" d="M87.8,102c0-0.1,0.1-0.1,0.1,0C87.9,102,87.9,102,87.8,102z"/>
		<path class="st2" d="M91.9,102c0-0.1,0.1-0.1,0.1,0C92,102,91.9,102,91.9,102z"/>
		<path class="st3" d="M88.6,100.5c-1.2-0.1-2.5-0.1-3.7-0.2c-1.9-0.1-3.6-0.7-5.1-1.7c-1.4-1-2.9-1.9-4.3-2.8c0,0-0.1-0.1-0.1-0.1
			c-0.1-0.2-0.2-0.4-0.2-0.5c0-0.2,0-0.5-0.3-0.6c-0.3-0.1-0.4,0.2-0.5,0.4c-0.3,0.4-0.5,0.9-1,1.1c-1.7,0.9-3.4,1.6-5.3,1.7
			c-2.1,0.2-4.2,0.2-6.2,0.2c-2.6,0-5.2-0.1-7.8,0.5c0,0-0.1,0-0.1,0c-3,0-6-0.1-9.1-0.4c-2.2-0.3-4.4-0.7-6.5-1.3
			c-2.2-0.6-4.1-1.6-6.1-2.7c-0.8-0.4-1.7-0.9-2.4-1.5c-2.2-2.1-3.3-4.7-3.9-7.6c-0.1-0.6,0.1-1.1-0.3-1.7c0-2.4,0.6-4.8,0.7-7.2
			c0-0.4,0-0.8,0-1.2c0.1-0.9,0.4-1.8,0.3-2.7c0.4-1.2,0.5-2.4,0.7-3.6c0.4-2.2,0.6-4.3,1.3-6.5c0.6-1.9,1.1-3.8,2-5.5
			c1.4-2.9,2.9-5.8,4.4-8.6c0.8-1.6,1.6-3.1,2.5-4.7c1.5-2.6,3.3-4.9,5.3-7.1c0.8-0.9,1.7-1.8,2.3-2.9c0.7-1.2,1.5-2.3,2.2-3.4
			c0.5-0.5,1-1,1.5-1.4c0.8-0.5,1.6-1,2.5-1.4c1-0.5,2.2-0.3,3.3-0.4c0.9-0.3,1.9-0.1,2.9-0.1c0.5,0.1,1,0.1,1.6,0.2
			c1.5,0.1,3,0.5,4.3,1.5c0.7,0.6,1.3,1.1,1.9,1.8c0.2,0.2,0.4,0.4,0.7,0.2c0.8-0.5,1.6-1,2.3-1.7c0.6-0.7,1.4-1.2,2.3-1.3
			c0.2,0,0.4,0.1,0.5-0.1c0.1,0,0.2,0,0.3,0c0.1,0,0.1,0,0.2,0c0.3,0.2,0.6,0.1,1,0.1c0.1,0,0.2,0,0.3,0c0.3,0,0.6,0,1,0
			c0.3,0,0.6,0,0.9,0c2.5,0.3,4.6,1.4,6.2,3.4c1.3,1.7,2.4,3.5,3.5,5.4c0,0,0,0,0,0.1c0.1,1.6,1.5,2,2.5,2.7c1.2,0.9,2.1,2,2.9,3.3
			c0.2,0.3,0.4,0.6,0.7,0.8c1,0.7,2.2,1.2,2.9,2.2c0.2,0.3,0.4,0.7,0.1,1c-0.6,0.6-0.4,1.4-0.6,2.1c-0.2,0.9-0.1,1.9,0.1,2.8
			c0.3,1.6-0.4,2.9-1.3,4.1c-0.2,0.2-0.3,0.6-0.6,0.7c-0.8,0.5-0.4,0.7,0,1.2c0.9,0.9,1.7,1.8,2,3.1c0.1,0.5,0.6,0.9,1,1.3
			c1.5,2,0.9,3.4-0.6,4.8c-0.2,0.2-0.5,0.5-0.7,0.7c-0.6,0.6-0.8,1.1-0.2,1.9c0.6,0.8,0.2,1.7-0.3,2.5c-0.1,0.1-0.2,0.2-0.3,0.3
			c-0.6,0.8-1.4,1.3-1,2.6c0.4,1.4-0.3,2.7-1.3,3.7c-0.1,0.1-0.2,0.2-0.3,0.3c-0.9,0.9-0.8,1.7,0.4,2.2c2.8,1.3,5.1,3.2,7,5.7
			c0.3,0.4,0.7,0.7,1,1.1c0.5,0.6,1,1.1,1.1,1.9c0.1,0.5,0.6,1,0.9,1.5c1,1.4,1.6,3,2.1,4.7c0.3,0.8-0.2,1.8-1.3,2.4
			c-2.2,1.5-4.8,2.2-7.4,2.7c-1.6,0.3-3.1,0-4.7,0C88.7,100.5,88.6,100.5,88.6,100.5z M56.8,53.2L56.8,53.2c0.4,0.5,0.8,0.9,1.3,1.2
			c0.2,0.1,0.3,0.2,0.5,0.3c1.7,0.9,3.5,1.2,5.5,1.1c1.5,0.2,3,0.4,4.5,0.4l0.1,0l0.1,0c0.1,0,0.2,0,0.3,0c0.2,0,0.5,0,0.7,0
			c0.2,0,0.3,0,0.5,0c0.2,0,0.4,0,0.6,0c0.3,0.1,0.5,0.1,0.8,0.2c1.4,0.1,2.4-0.5,3.4-1.3c0.3-0.2,0.5-0.5,0.3-0.9
			c-0.2-0.4-0.6-0.3-0.9-0.2c-0.9,0.3-1.9,0.5-2.7,0.9c-0.5,0.2-1,0.3-1.6,0.3c-1.9,0.1-3.7-0.2-5.6-0.6c-0.9-0.5-1.9-0.7-2.8-1
			c-1.5-0.4-3-0.9-4.2-2.1c-0.6-0.6-1.3-1-2.2-1.2c-0.8-0.2-1.5-0.6-2.3-0.9c-0.8-0.3-1.5-1.1-2.5-0.5c-0.2,0.1-0.4,0-0.6-0.1
			c-0.7-0.7-0.7-1.5-0.3-2.4c0.8-0.8,1.6-1.6,2.4-2.5c1-1.1,2.4-1.5,3.8-1.9c0.1,0,0.2,0,0.3-0.1c0.1,0,0.1,0,0.2,0c0,0,0.1,0,0.1,0
			c0.1,0.1,0.2,0.1,0.3,0c0.1,0,0.2,0,0.3,0c0.1,0.1,0.2,0.1,0.3,0c0.1,0,0.2,0,0.3,0c0.1,0,0.2,0,0.3,0c1.2,0,2.4,0,3.6-0.1
			c3-0.1,6-0.1,9,0c0.7,0,1.4,0.1,2,0.6c0.3,0.2,0.5,0.4,0.7,0.6c0.1,0.1,0.4,0.4,0.6,0.2c0.2-0.2-0.1-0.3-0.1-0.5
			c-0.1-0.3-0.2-0.6-0.4-0.8c-0.9-1.5-1.8-3.1-3-4.4c-1.7-1.6-3.4-3.2-6-3c-0.1,0-0.3,0-0.4,0c-2.1-0.3-4.2-0.5-6.4-0.1
			c-1.9,0.3-3.6,0.9-4.9,2.3c-0.4,0.4-0.8,0.7-1.3,1c-0.4-0.1-1,0-0.5-0.7c0.6-0.3,1.2-0.5,1.5-1.2c0.3,0,0.4-0.3,0.6-0.4
			c0.5-0.5,1.1-0.9,1.7-1.1c1.4-0.5,2.8-0.9,4.4-0.9c1.5,0.1,3.1-0.1,4.6,0.1c0.6,0.1,1.1,0.1,1.7,0.2c0.7,0.2,0.9,0,0.7-0.7
			c-0.3-1-0.8-1.9-1.4-2.7c-1.4-1.7-3.1-2.8-5.4-2.8c-1.4-0.4-2.9-0.3-4.4-0.3c-0.7,0-1.3,0.1-1.9,0.3c-0.5,0.1-0.9,0.1-1.4,0.3
			c-2.3,0.8-3.9,2.4-5,4.6c-1.2,2.3-3,4.1-4.6,6c-0.4,0.4-0.8,0.8-1.1,1.3c-1.2,1.8-2.4,3.5-3.4,5.4c-0.6,1.1-1.2,2.2-1.8,3.4
			c-0.8,1.7-1.6,3.4-2.5,5c-1,1.8-1.8,3.6-2.6,5.5c-0.7,1.6-1.1,3.4-1.7,5.1c-0.3,1.1-0.1,2.3-0.4,3.4c-0.2,0.2-0.1,0.4-0.1,0.6
			c-0.3,0.8-0.2,1.7-0.4,2.5c-0.3,1.3-0.4,2.6-0.6,3.8c0.1,1-0.4,2-0.2,3c0,0.3-0.2,0.6,0,0.9c-0.4,0.8-0.2,1.6-0.4,2.4
			c-0.6,1.4-0.3,2.7,0.1,4c0,0.8,0.3,1.6,0.6,2.3c0.6,1.9,1.5,3.6,3,4.9c1.3,1.1,2.8,1.8,4.3,2.5c1.1,0.5,2.2,1,3.4,1.3
			c1.8,0.5,3.5,0.9,5.4,1.2c2.3,0.4,4.5,0.3,6.8,0.5c1.1,0.1,2.3,0.1,3.4,0c0.1,0,0.3,0,0.4,0c0.1,0,0.1-0.1,0.2-0.1
			c1.6,0,3.1-0.3,4.7-0.3c1.8,0,3.5-0.1,5.3-0.1c0.1,0.1,0.1,0,0.2,0c0.3,0,0.7,0,1,0c0.3,0,0.6,0.1,0.8-0.1c0.3,0,0.6,0,0.9,0
			l0.1,0c0,0,0.1,0,0.1,0c0.2,0,0.3,0,0.5,0c0.3,0,0.6,0.1,0.8-0.1c1.1,0,2-0.6,3.1-0.9c1-0.3,1.7-0.7,2.2-1.6
			c0.3-0.3,0.7-0.5,0.7-0.9c-0.2-1,0.3-1.9,0-2.9c-0.5-1.3-1.1-2.4-2.2-3.3c-0.4-0.4-0.8-0.8-1.1-1.2c-0.4-0.7-1-1.4-0.3-2.3
			c1.2-1.6,2.4-2.1,4.3-1.1c0.2,0.1,0.3,0.3,0.5,0.2c0.8-0.5,1.6-0.8,2.3-1.4c1.6-1.6,3.3-3.1,5.4-4c1-0.5,2-0.8,3.1-0.2
			c0.5,0.3,0.9,0.7,1.4,1.1c0.2,0.2,0.4,0.4,0.7,0.2c1.2-1.1,2-2.4,1.8-4.1c0-0.4-0.2-0.4-0.4-0.2c-0.3,0.3-0.6,0.6-1,0.8
			c-1.7,0.9-3.5,0.7-5.3,0.6c-0.1,0-0.2,0-0.3,0c-0.1,0-0.3,0-0.4,0c-0.2,0-0.3-0.1-0.4,0.1c-0.7,0-1.3,0-2,0.1
			c-0.6,0-1.3,0-1.9,0.1c-0.5-0.1-1.1-0.1-1.6,0c-0.1,0-0.1,0-0.2,0.1c-0.5,0-1,0-1.4,0.1c-1.8-0.2-3.7-0.2-5.5-0.2
			c-0.2,0-0.4,0-0.6,0c-1.5-0.6-3.2-0.6-4.7-0.8c-0.9-0.1-1.8-0.2-2.5-0.7c-2.8-1.5-5.8-2.7-8.6-4.3c-1.5-0.9-3.2-1.6-4.6-2.7
			c-0.6-0.5-1-1-1.3-1.7c-0.5-1.3,0.5-2.6,1.8-2.6c0.9,0,1.8,0.2,2.7,0.4c2.1,0.5,4.1,1.4,6.2,1.7c1.5,0.2,3,0.6,4.5,0.9
			c1.4,0.3,2.9,0.6,4.4,0.8c1.3,0.2,2.5,0.3,3.8,0.4c1.4,0.4,2.9,0.4,4.3,0.3c0.8,0.2,1.6,0.1,2.4,0.2c1.3,0.1,2.6,0.3,3.9,0.4
			c1.4,0,2.9-0.2,4.3-0.3c0.9,0,1.9-0.2,2.8-0.6c1.7-0.8,2.5-2.3,3.3-3.9c0.4-0.7,0.4-1.4,0.6-2.2c0.1-0.3,0.1-0.7-0.3-0.9
			c-0.1-1-0.8-1.6-1.3-2.3c-0.4-0.5-0.5-0.5-0.9,0c-0.9,1.1-2.5,1.5-3.8,1c0-0.3-0.2-0.6,0.3-0.7c0.8,0,1.5-0.1,2.2-0.3
			c0.2-0.1,0.5-0.2,0.4-0.5c-0.1-0.2-0.3-0.1-0.5-0.1c-0.5,0-1,0-1.4,0c-0.3-0.2-0.7-0.4-0.3-0.9c0.3,0,0.5-0.1,0.8,0
			c0.5,0.1,1,0.1,1.5-0.1c1.8-0.6,2.5-2.1,3-3.9c-0.4,0.2-0.7,0.3-0.9,0.6c-0.3,0.4-0.7,0.8-1.1,1.1c-1.3,0.9-2.7,0.9-4.2,1
			c-1.7,0-3.5-0.3-5.2-0.1c-1.1,0-2.1-0.4-3.2-0.6c-0.4-0.3-0.8-0.6-0.8-1.2c0-0.7,0.4-1.2,0.6-1.8c0.6-0.6,1.1-1.3,1.7-1.9
			c0.1-0.1,0.1-0.2,0.2-0.2c0,0,0.1-0.1,0.1-0.1c0.1-0.1,0.2-0.2,0.3-0.3c1.1-1.3,2.3-2.6,4-2.9c1.8-0.3,3.7-0.3,5.5,0.1
			c1,0.2,1.7,0.7,2.1,1.7c0.2,0.4,0.4,0.6,0.7,1c0.1-0.6,0.1-1.2,0-1.8c0-0.6-0.4-0.9-1-1.2c-0.6-0.3-1.1-0.4-1.8-0.4
			c-0.8-0.1-1.7,0-2.5-0.3c-0.4-0.2-0.9-0.2-1.3,0c-0.1,0-0.3,0-0.4,0c-0.2-0.1-0.5-0.1-0.7,0c-0.1,0-0.3,0.1-0.4,0.1
			c-2.1,0.1-3.6,1.1-5,2.6c-0.2-0.1-0.6,0.2-0.7-0.2c-0.1-0.3,0.2-0.5,0.4-0.6c0.5-0.4,1-0.9,1.5-1.3c3.9-2.3,7.9-1.7,11.9-0.5
			c0,0,0-0.1-0.1-0.1c-0.1-0.1-0.3-0.2-0.4-0.3c-1.4-1.2-3.2-1.2-4.8-1.3c-2,0-4,0-5.9,0.8c0-0.2,0-0.4,0-0.6c0.7-0.6,1.5-0.8,2.4-1
			c0.3-0.1,0.7-0.1,1-0.1c1.3-0.1,2.6-0.3,3.9,0c0.2,0.1,0.5,0.2,0.6-0.1c0.1-0.2-0.1-0.4-0.2-0.6c-1.2-1.6-2.8-2.6-4.5-3.7
			c-2.2-1.5-4.8-1.9-7.3-2.1c-2.1-0.2-4.2,0.4-6.2,1.1c0.3,0.5,0.9,0.8,1.3,1.3c0.8,1.1,1.5,2.2,2.1,3.4c0.4,0.7,1,1.5,0.5,2.5
			c-0.1,0.1,0,0.3,0.1,0.4c0.3,0.3,0.4,0.7,0.8,0.9c0.7,0.5,1.1,1.2,1.1,2.1c0.3,0.8,0,1.6,0.1,2.5c-0.6,0.1-0.7,0.5-0.4,1
			c0.2,0.5,0.2,1,0,1.5c-0.1,0-0.3,0-0.4,0c0-0.1-0.1-0.2-0.1-0.3c-0.1-1.8-1.1-3.1-2.5-4.2c-0.5-0.4-1.2-0.8-1.6-1.4
			c-1.1-1.4-2.4-2.6-4.3-3.1c-1.6-0.5-3.1-1.1-4.8-0.9c-0.4,0-0.9,0.1-1.3,0.1c-1.4,0-2.8,0-4.2,0c-1,0-2,0.3-2.9,0.7
			c-1.2,0.5-1.9,1.5-2.8,2.4c-0.4,0.4-0.8,0.8-1.1,1.3c-0.1,0.2-0.2,0.4-0.1,0.6c0.1,0.2,0.4,0.2,0.6,0.2c0.3,0,0.5-0.2,0.6-0.4
			c1.5-2.2,3.7-3.2,6.2-3.6c1.3-0.2,2.6-0.3,3.9-0.4c1.6-0.1,3.1,0,4.6,0.8c1.3,0.7,2.5,1.7,3.9,2.3c0.9,0.4,1.8,0.8,2.6,1.5
			c1.2,1.2,1.5,2.7,2.1,4.2c0.2,0.5,0.5,0.9,1,1.2c0.5,0.7,0.5,1.4-0.1,2.1c-1.5,1-3.1,2-4.3,3.5c-1.1,1.3-2.5,2.3-4.3,2.8
			c-0.6,0.2-1.2,0.3-1.7,0.6c-0.7,0.4-1.5,0.6-2.3,0.9c-0.4,0.2-0.8,0.1-1.1-0.2c0-0.2,0.1-0.4,0.1-0.6c0.1-0.2,0.3-0.1,0.5-0.1
			c0.6-0.1,1.2-0.1,1.7-0.3c1.1-0.5,2.2-0.8,3.3-1.2c1.6-0.6,3-1.6,4-3c0.1-0.2,0.3-0.4-0.1-0.4c-0.2,0-0.4,0-0.6,0
			c-0.2-0.2-0.5-0.1-0.8-0.1c-0.8,0-1.7,0.1-2.5-0.1c-2.3-0.1-4.6-0.3-6.9-0.7c-0.9-0.1-1.9-0.4-2.6-1c-1.2-1-2.4-2.1-3.6-3.1
			c-0.1-0.2-0.2-0.4,0.1-0.5c0.5,0,0.9,0.2,1.2,0.5c0.3,0.2,0.5,0.6,0.9,0.7C56.6,53.1,56.7,53.2,56.8,53.2z M79.9,83.8
			c0,0.1,0,0.2,0,0.3c-0.3,0.4-0.6,0.8-1,1.1c-0.2,0.2-0.4,0.3-0.6,0.1c-0.3-0.2,0-0.4,0.1-0.5c0.1-0.2,0.3-0.4,0.5-0.6
			c0.2-0.2,0.3-0.4,0.2-0.6c-0.4-0.5-0.8-1-1.4-1.1c-0.4-0.1-1.3,0.6-1.6,1.1c-0.2,0.4-0.2,0.8,0.1,1.2c0.7,1,2.3,1.3,3.5,0.7
			c1.1-0.6,2-1.3,3-2.1c0.8-0.7,1.7-1.4,2.9-0.9c0.3,0.1,0.6,0.1,0.8,0.2c0.5,0.3,1.2,0.4,1.4,1.1c0,0.3-0.4,0.5-0.5,0.8
			c-0.1,0.2-0.2,0.4-0.1,0.6c0.2,0.1,0.4,0,0.5-0.1c0.5-0.5,1.1-0.8,1.5-1.3c0.4,0,0.8-0.7,1.1,0c-0.1,0.1-0.2,0.2-0.3,0.3
			c-1.6,1.3-3.2,2.7-5.1,3.6c-1.3,0.6-2.1,1.5-2.7,2.7c-0.3,0.5-0.3,1,0.1,1.5c0.6,0.8,1.3,1.5,2.3,1.9c1.1,0.5,1.6,0.3,2-0.6
			c0.4-0.9,0.9-1.6,1.4-2.3c0.6-0.8,1.3-1.5,2.2-2c0.2,0,0.5-0.1,0.6,0.3c0,0.3-0.2,0.5-0.5,0.6c-1.5,0.8-2.1,2.3-3.1,3.6
			c-0.1,0.2-0.1,0.4-0.1,0.6c-0.5,0.4-0.4,0.7,0,1.1c0,0.1,0,0.2,0,0.2c0.4,0.5,2.8,0.7,3.3,0.4c0,0,0.1-0.1,0.1-0.1
			c0.6-1.1,1.7-1.8,2.5-2.8c0.5-0.5,0.8-1.2,1.5-1.5c0.7,0,0.3,0.4,0.3,0.7c-1.2,0.9-1.8,2.3-3,3.1c-0.3,0.2-0.7,0.5-0.4,1
			c0.2,0.5,0.5,1,1.2,1c1.5,0.1,2.1-1,2.9-1.9c0.5-0.6,1-1.2,1.4-1.8c0.2-0.3,0.5-0.6,0.8-0.4c0.3,0.2,0,0.5,0,0.8
			c-1.1,1.1-1.9,2.4-3.1,3.4c-1.2,1.1-2.8,0.9-3.6-0.4c-0.2-0.3-0.5-0.4-0.7-0.3c-0.6,0.2-1.2,0.1-1.8,0.1c-1.1-0.1-2-0.4-2.4-1.6
			c-0.1-0.3-0.4-0.3-0.6-0.3c-0.8,0-1.5-0.2-2.1-0.6c-0.7-0.5-1.2-1.1-1.8-1.6c-1-0.8-2.1-1.6-2.7-2.8c-0.1-0.6-0.2-1.2-0.3-1.9
			c-0.1-0.9-0.5-1.3-1.4-1.3c-0.8,0-1.7-1-1.8-1.8c-0.2-1.3-0.7-1.8-2-1.6c-1.5,0.2-2.1,1.1-1.4,2.5c0.2,0.3,0.4,0.6,0.7,0.9
			c1,1.1,1.9,2.2,2.6,3.5c0,0.6,0,1.3,0,1.9c0,0.9-0.1,1.8,0.4,2.7c0.2,0.6,0.6,1.1,1.2,1.4c0.8,0.4,1.5,0.9,2.3,1.4
			c1.4,1,2.8,1.9,4.5,2c0.8,0.2,1.5,0.2,2.3,0.3c1.4,0.1,2.8,0,4.1,0.1c3.5,0.2,6.8-0.5,9.8-2.3c1.2-0.8,1.3-0.9,1-2.3
			c-0.2-1-0.6-2-1.2-2.9c-1.1-1.8-2.1-3.7-3.4-5.5c-1.9-2.4-4.1-4.3-6.9-5.6c-0.3-0.3-0.7-0.7-1-1c-0.3-0.8-1-1.3-1.7-1.9
			c-1-0.9-1.9-0.7-3-0.4c-1.4,0.5-2.5,1.2-3.5,2.3c-0.1,0-0.1,0-0.1,0.1l0,0c-0.4,0.1-0.7,0.4-0.9,0.7c-0.3,0.3-0.9,0.4-0.8,0.9
			c0.1,0.4,0.6,0.6,1,0.8C79.7,83.2,80,83.4,79.9,83.8z M78.8,35.1c0.5,0.2,1.1,0.1,1.6,0.3c1,0.3,2,0.5,2.9,1
			c0.1,0.1,0.2,0.1,0.3,0c0.2-0.1,0-0.2,0-0.4c0-0.2-0.1-0.3-0.2-0.4c-0.7-1-1.3-2.1-2-3.1c-0.6-0.9-1.1-1.8-1.9-2.5
			c-1.1-1-2.5-1.5-3.8-2c-1.1-0.1-2.2-0.2-3.3-0.2c-0.7,0-1.4,0-2.1,0.2c-0.7,0.2-1.3,0.5-1.8,1c-0.6,0.7-1.4,1.1-2.2,1.6
			c-0.3,0.2-0.5,0.4-0.2,0.7c0.5,0.6,0.7,1.3,0.8,2.1c0.1,0.5,0.3,0.8,0.7,1c0.7,0.4,1.4,0.9,2.1,1.4c0.2,0.2,0.4,0.3,0.8,0.2
			c1.9-0.8,4-1,6-1.2C77.2,35.2,78,35,78.8,35.1z M73.1,46.9c0.7,0.9,1.8,1.6,2.4,2.7c0,0.1,0.1,0.1,0.2,0.1c0.1,0,0.1-0.1,0.1-0.2
			c0-1.2-0.1-2.5-1-3.5c-0.8-0.9-1.6-1.7-2.5-2.5c-0.5-0.5-1-0.8-1.7-0.8c-1.1,0-2.2-0.1-3.3,0.2c0.2,0.3,0.5,0.4,0.8,0.4
			c1.1,0.1,1.8,0.8,2.5,1.5c0.5,0.5,1,1.1,1.6,1.5C72.6,46.5,72.8,46.8,73.1,46.9z M66,69.7c-2.8,0.2-4.7-0.1-6.5-0.7
			c-2.1-0.7-4.1-1.5-6.2-2.1c-0.8-0.3-1.5-0.8-2.1-1.4c-0.2-0.2-0.4-0.4-0.2-0.7c0.2-0.3,0.5,0,0.7,0.1c0.7,0.5,1.4,1.1,2.3,1.4
			c1.8,0.4,3.5,1,5.2,1.7c1.5,0.6,3.1,0.9,4.7,0.9c2.1,0,4.2,0.2,6.3,0.8c0.8,0.2,1.7,0.4,2.6,0.5c1.8,0.1,3.6,0.4,5.4,0.2
			c0.9-0.1,1.8,0,2.7,0.1c2.2,0.2,4.4-0.2,6.7-0.1c0.3,0,0.6-0.1,0.9-0.3c1.1-0.6,2.1-1.4,2.9-2.3c0.7-0.8,1.4-1.7,2.1-2.5
			c1-1,1-2.2,0.2-3.4c-0.1-0.1-0.2-0.3-0.4-0.3c-0.1,0-0.2,0.1-0.2,0.2c-0.2,1.8-1.3,3.1-2.3,4.5c-0.4,0.5-0.8,0.9-1.4,1.1
			c-1.6,0.8-3.3,1.1-5,1.2c-2,0-4,0-6-0.2c-2.5-0.3-5.1-0.3-7.6-0.5c-2.1-0.2-4.1-0.4-6.2-0.9c-1.6-0.4-3.1-0.8-4.7-1
			c-1.7-0.3-3.5-0.7-5.1-1.2c-1.4-0.4-2.7-0.8-4.1-1.1c-0.5-0.1-0.9-0.2-1.4-0.2c-0.6,0.1-1.3,1.1-0.9,1.6c0.3,0.5,0.7,1,1.2,1.4
			c2,1.6,4.4,2.4,6.5,3.7c1.2,0.7,2.5,1.2,3.8,1.8c1.3,0.7,2.6,1.4,4.1,1.7c1.5,0.3,3.1,0.3,4.7,0.7c1,0.3,1.9,0.3,2.9,0.3
			c0.7,0,1.5-0.1,2.2,0.1c2.4,0.5,4.7,0.2,7.1,0c1.5-0.1,2.9-0.2,4.3-0.1c1.5,0.2,2.8-0.1,4.1-0.9c1.1-0.7,1.7-1.9,2.5-2.9
			c0.4-0.6,0.5-1.2,0.3-1.9c-0.1-0.5-0.4-0.4-0.6-0.2c-0.5,0.4-1,0.9-1.5,1.3c-0.5,0.5-1.1,0.9-1.9,1c-0.7,0.1-1.3,0.1-2,0.2
			c-1.8,0.2-3.5,0.2-5.3,0.1c-2-0.2-4.1,0.1-6.1-0.2c-1.4-0.2-2.8-0.1-4.2-0.5C68.7,70,67,69.5,66,69.7z M69.2,48.2
			c-0.5,0-1.1,0-1.6,0c-0.5,0-0.7,0.1-0.3,0.6c0.3,0.4,0.5,0.9,0.5,1.4c0.1,1.3-0.1,2.6-0.9,3.6c-0.2,0.3-0.3,0.5,0.2,0.5
			c1.2,0.2,2.3,0.1,3.5,0c1-0.1,1.9-0.8,2.9-0.8c0.6,0,0.5-0.5,0.4-0.9c-0.2-0.6-0.5-1.3-0.8-1.9c-0.8-1.6-1-2.8-3.7-2.6
			C69.4,48.2,69.3,48.2,69.2,48.2z M69.2,47.2c-0.8-0.5-1.6-0.8-2.3-1.3c-1.5-1.1-3.1-1.7-5-1.5c-2.3,0.2-4.5,0.3-6.7,1.1
			c-1.3,0.4-2.2,1.1-3,2.1c-0.1,0.2-0.3,0.4-0.2,0.6c0.1,0.3,0.4,0.3,0.6,0.3c0.2,0,0.5,0,0.6-0.1c1.4-0.7,2.9-0.6,4.4-0.8
			c2.7-0.3,5.5-0.3,8.2,0c0.1,0,0.2,0,0.3,0C67.1,47.5,68,47.4,69.2,47.2z M86.5,46.3c-0.7,0.1-1.5,0.1-2.3,0.2
			c-0.6,0.1-1.2,0.2-1.6,0.7c-0.1,0.1-0.3,0.2-0.2,0.3c0.1,0.2,0.2,0.2,0.4,0.2c0.6,0,1.2,0,1.7,0c1.9,0,3.8,0.1,5.4,1.3
			c0.5,0.4,1.1,0.6,1.7,0.8c0.1,0.1,0.3,0.3,0.4,0.1c0.1-0.2,0.1-0.4,0-0.5c-0.6-0.8-1.1-1.5-1.7-2.3c-0.1-0.2-0.3-0.3-0.6-0.4
			C88.7,46.5,87.6,46.4,86.5,46.3z M87.1,48.8c1.1,1.6,1.4,3.2,0.2,4.9c-0.3,0.5,0.2,0.4,0.3,0.4c0.8-0.2,1.6-0.3,2.3-0.8
			c0.6-0.5,1.2-1.1,1.8-1.6c0.4-0.4,0.4-0.8-0.2-1c-1.2-0.5-2.4-1.1-3.5-1.7C87.7,48.7,87.4,48.7,87.1,48.8z M79.4,87.4
			c0,0.4,0,0.6,0,0.8c0,0.3,0.1,0.6,0.3,0.7c0.2,0.1,0.4-0.2,0.6-0.3c0.9-0.8,1.7-1.6,2.6-2.4c0.7-0.7,1.4-1.5,2.1-2.3
			c0.1-0.1,0.3-0.3,0.2-0.5c-0.1-0.2-0.4-0.1-0.5-0.1c-0.4,0-0.7,0.2-1,0.5c-1.1,0.8-2.1,1.8-3.4,2.4C79.5,86.6,79.2,86.8,79.4,87.4
			z M86.8,84.1c-0.1-0.1,0-0.4-0.3-0.5c-0.2-0.1-0.5,0-0.6,0.2c-0.6,1.1-1.5,1.9-2.4,2.8c-0.9,0.9-1.8,1.8-2.7,2.6
			c-0.3,0.2-0.8,0.2-0.8,0.6c0,0.3,0.4,0.6,0.6,0.9c0.3,0.3,0.5,0.5,0.7-0.1c0.5-1.2,1.2-2.2,2.3-2.9c1.1-0.7,2.2-1.5,2.9-2.7
			C86.6,84.6,86.7,84.4,86.8,84.1z M54,48.9c0.2,0.3,0.3,0.5,0.5,0.5c1,0.2,2,0.6,2.9,1.2c0.2,0.1,0.4,0.1,0.5-0.1
			c0.1-0.8,0.7-1.4,1.4-2.1C57.3,48.3,55.7,48.6,54,48.9z M66.1,50.8c0-0.7-0.3-1-1.1-1c-0.7,0-1.5,0.7-1.5,1.3c0,0.6,0.5,1.2,1,1.2
			C65.5,52.1,66.2,51.7,66.1,50.8z M80,49.8c-1.3,0.8-1.8,1.9-2.3,3.1c-0.1,0.1,0,0.3,0.1,0.4c0.4,0.4,1,0.4,1.5,0.5
			c0.2,0,0.4-0.2,0.2-0.5c-0.2-0.5-0.2-1,0-1.6C79.7,51.1,79.8,50.6,80,49.8z M86.7,51.3c0-0.6-0.5-1-1.1-1c-0.4,0-1,0.6-1,1
			c0,0.4,0.7,1.1,1.1,1.1C86,52.5,86.7,51.8,86.7,51.3z M60.8,48.9c-0.4,0-0.7,0.1-0.6,0.5c0,0.3,0,0.7,0.5,0.7
			c0.4,0,0.8-0.1,0.8-0.6C61.5,49,61.1,49,60.8,48.9z M61.6,51.5c0-0.3,0-0.6-0.4-0.6c-0.4,0-0.8,0.2-0.8,0.6c0,0.3,0.3,0.6,0.7,0.6
			C61.6,52.1,61.7,51.8,61.6,51.5z M81.8,50.8c0.4-0.2,0.8-0.2,0.8-0.7c0.1-0.6-0.4-0.5-0.7-0.6c-0.2-0.1-0.5,0.1-0.4,0.4
			C81.6,50.2,81.6,50.5,81.8,50.8z M82.2,51.9c-0.3,0-0.6-0.1-0.6,0.4c0,0.3,0,0.6,0.5,0.6c0.4,0,0.5-0.1,0.5-0.5
			C82.7,52,82.6,51.8,82.2,51.9z"/>
		<path class="st1" d="M54,98.4c2.6-0.6,5.2-0.4,7.8-0.5c2.1,0,4.2,0,6.2-0.2c1.9-0.1,3.6-0.9,5.3-1.7c0.5-0.2,0.7-0.7,1-1.1
			c0.2-0.2,0.2-0.5,0.5-0.4c0.3,0.1,0.3,0.3,0.3,0.6c0,0.2,0.1,0.4,0.2,0.5c-0.7-0.1-1.2,0.2-1.7,0.7c-1.1,1-2.6,1.3-4,1.8
			c-1.6,0.5-3.3,0.4-5,0.4c-1.7,0-3.5,0-5.2,0c-1.6,0-3.2,0.2-4.7,0.5c-1.8,0.3-3.6,0.2-5.4,0c-0.8-0.1-1.7,0-2.5-0.2
			c-1.7-0.4-3.4-0.5-5.1-0.8c-2.1-0.4-4.1-0.9-6-1.7c-1.5-0.7-3-1.3-4.3-2.2c-1.4-0.9-2.5-2.1-3.5-3.3c-0.8-1-1.1-2.2-1.6-3.3
			c-0.5-1.1-0.4-2.3-0.9-3.4c-0.2-0.4-0.2-0.8,0.3-0.9c0.3,0.5,0.1,1.1,0.3,1.7c0.6,2.9,1.7,5.5,3.9,7.6c0.7,0.7,1.5,1.1,2.4,1.5
			c2,1,3.9,2.1,6.1,2.7c2.1,0.6,4.3,1,6.5,1.3c3,0.3,6,0.4,9.1,0.4C53.9,98.5,54,98.5,54,98.4z"/>
		<path class="st1" d="M47.3,29.9c-0.7,1.1-1.5,2.2-2.2,3.4c-0.6,1.1-1.5,2-2.3,2.9c-2,2.2-3.8,4.6-5.3,7.1
			c-0.9,1.5-1.7,3.1-2.5,4.7c-1.5,2.9-3,5.7-4.4,8.6c-0.9,1.8-1.4,3.7-2,5.5c-0.7,2.1-0.9,4.3-1.3,6.5c-0.2,1.2-0.2,2.4-0.7,3.6
			c-0.4-0.5-0.5-2.2-0.1-2.7c0.5-0.8,0.4-1.7,0.4-2.5c0-0.6-0.2-1.2,0.4-1.7c0.3-0.2,0.1-0.6,0.2-0.9c0.1-0.6-0.2-1.4,0.5-1.9
			c0.1-0.1,0.1-0.3,0.1-0.4c0-0.2,0-0.4,0-0.5c0.8-0.9,0.4-2.3,1.2-3.2c0.5-0.6,0.5-1.3,0.9-1.9c0.3-0.4,0.4-1,0.6-1.5
			c0.2-0.5,0.6-1,0.8-1.5c0.5-1.1,1.1-2.2,1.6-3.2c0.3-0.5,0.6-1.1,0.8-1.6c0.4-1,1.3-1.8,1.5-2.9c0.1-0.4,0.4-0.8,0.7-1.1
			c0.6-0.9,1-1.9,1.7-2.7c0.6-0.7,1-1.5,1.4-2.3c0.5-1,1.4-1.5,2.1-2.3c0.4-0.4,0.8-0.9,1-1.5c0.2-0.6,0.9-1,1.3-1.4
			c0.7-0.7,1-1.7,1.6-2.4C45.9,31.1,46.3,30.1,47.3,29.9z"/>
		<path class="st1" d="M71.3,27c-0.1,0-0.2,0-0.3,0c-0.2,0-0.4-0.1-0.5,0.1c-0.9,0.2-1.7,0.7-2.3,1.3c-0.7,0.7-1.5,1.2-2.3,1.7
			c-0.3,0.2-0.5,0.1-0.7-0.2c-0.6-0.6-1.2-1.2-1.9-1.8c-1.2-1-2.7-1.4-4.3-1.5c-0.5,0-1-0.1-1.6-0.2C57.1,26,57.6,26,57.9,26
			c0.8,0,1.6-0.1,2.4,0.3c0.8,0.4,1.8,0.5,2.6,1.1c0.7,0.5,1.4,1.1,2,1.7c0.4,0.4,0.7,0.4,1.2,0.1c0.9-0.5,1.6-1.1,2.4-1.7
			c0.6-0.5,1.4-0.7,2.2-0.9C71.2,26.4,71.3,26.7,71.3,27z"/>
		<path class="st1" d="M54.6,26.7c-1.1,0.1-2.2-0.2-3.3,0.4c-0.8,0.4-1.6,0.9-2.5,1.4c-0.3-0.2-0.1-0.5,0.1-0.6
			c1.5-0.8,2.8-1.9,4.7-1.7C54,26.2,54.5,26.1,54.6,26.7z"/>
		<path class="st1" d="M26.4,74.9c0,0.4,0,0.8,0,1.2C26.2,76.1,26,76.3,26,76C26,75.6,25.9,75.2,26.4,74.9z"/>
		<path class="st2" d="M73.7,27.1c-0.3,0-0.6,0-1,0C73.1,27,73.4,27,73.7,27.1z"/>
		<path class="st2" d="M72.4,27.1c-0.3,0-0.7,0.1-1-0.1C71.8,27,72.1,26.9,72.4,27.1z"/>
		<path class="st4" d="M88.6,100.5c0.1,0,0.1,0.1,0.2,0.1C88.7,100.5,88.6,100.5,88.6,100.5z"/>
		<path class="st4" d="M61.9,62.5c0,0.2-0.1,0.4-0.1,0.6c0,0.4,0.1,0.6,0.5,0.7c0.4,0.1,0.8,0.1,1.2-0.1c1.5-0.6,3-1.2,4.6-1.6
			c0.6-0.2,1.1-0.5,1.6-0.8c1.3-0.9,2.3-2.2,3.4-3.2c0.8-0.7,1.7-1.1,2.4-1.8c0.5-0.2,0.8-0.7,1-1.2c0.2-0.6,0.7-0.7,1.2-0.3
			c0.2,0.2,0.2,0.4,0.5,0.5c0.1,0.2,0.2,0.4,0.3,0.6c-0.5,0-0.6,0.2-0.3,0.6c-0.3,0.3-0.1,0.5,0.1,0.6c0.2,0.2,0.5,0.3,0.8,0.5
			c1,0.6,1.9,1.3,2.6,2.2c0.6,0.8,1.3,1.5,2,2.2c0.2,0.2,0.4,0.4,0.6,0c0.2-0.1,0.3-0.3,0.3-0.5c0.7-0.1,0.3-0.6,0.2-0.8
			c-0.4-0.6-0.9-1.1-1.3-1.8c-0.3-0.5-0.1-0.5,0.3-0.5c0.4,0,0.8,0,1.1-0.4c0.4,0,0.6,0.2,0.8,0.5c0.1,0.2,0.2,0.5,0.5,0.5
			c0.3,0.4,0.7,0.5,1.1,0.6c1,0.1,1.8-0.3,2.5-0.9c0.4-0.3,0.8-0.5,1.2,0c0.3,0.5,0.6,1,0.9,1.4c0,0.6,0.2,1.2,0,1.7
			c-0.2,0.4-0.6,0.8-0.6,1.3c-0.2,0.8-0.7,1.5-1.3,2.2c-1,1.1-2.1,1.8-3.6,1.8c-1.3,0-2.6-0.2-3.8,0.2c-0.3,0.1-0.8,0.1-1.1,0
			c-0.6-0.2-1.2-0.2-1.8-0.2c-1.5,0-3,0.2-4.4-0.1c-1.4-0.1-2.8-0.5-4.2-0.4c-1,0.2-2,0.1-3-0.3c-0.4-0.1-0.8-0.3-1.2-0.3
			c-1.2,0.1-2.3-0.1-3.4-0.5c-0.7-0.3-1.6-0.4-2.3-0.5c-1.5-0.1-2.9-0.9-4.5-0.8c-0.1,0-0.2-0.1-0.3-0.1c-1.1-0.4-2.1-0.7-3.2-1.1
			c-0.5-0.2-1-0.4-1-1.1c0.3-0.3,0.1-0.6-0.1-0.8c-0.1-0.7-0.5-1.2-0.7-1.9c0-0.2,0-0.4,0-0.5c0-0.4-0.1-0.6-0.6-0.7
			c-0.7-0.2-1.3,0.2-2,0.3c-0.3,0.1-0.7,0.1-0.9,0.4c-0.2,0.2-0.1,0.3,0.2,0.4c-0.5,0.6-0.4,0.7,0.3,0.9c0,0.4,0.2,0.4,0.5,0.4
			c0.3-0.1,0.5-0.2,0.8-0.2c0,0.2,0,0.4,0,0.6c-1.5,0-2.6,0.9-3.6,1.9c-0.2,0.2-0.2,0.4,0.1,0.6c0,0.3-0.5,0.7,0.1,0.9
			c0,0.1,0,0.3,0.1,0.3c0.8,0.1,0.8,0.7,0.9,1.3c0,0.2,0.2,0.5,0.3,0.7c0.8,1.2,2.1,1.9,3.3,2.7c1.1,0.8,2.5,1.1,3.6,1.9
			c0.7,0.5,1.5,0.9,2.2,1.2c1.5,0.6,3,1.3,4.4,2.1c1.4,0.7,2.8,1.1,4.3,1.3c1.2,0.1,2.4,0.2,3.5,0.5c2,0.6,4.1,0.2,6.1,0.3
			c0.2,0,0.4-0.1,0.4-0.4c0.5,0,1,0,1.4-0.1c0.1,0,0.1,0,0.2-0.1c0.5,0,1.1-0.1,1.6,0c0,0.4,0.2,0.5,0.5,0.5c0.4,0,0.9,0,1.3,0
			c0.9-0.1,1.9,0.2,2.8,0.1c0.2,0,0.4,0.1,0.4,0.3c0,0.2-0.1,0.2-0.3,0.2c-1.6,0.5-2.9,1.6-4.1,2.6c-1.1,0.9-2,2.1-3.4,2.7
			c-0.4,0.1-0.6,0.2-0.9,0c-0.8-0.4-1.6-0.5-2.5-0.2c-0.9,0.3-1.4,1-1.9,1.7c-0.3,0.4-0.7,0.7-0.5,1.3c0.4,1.2,1,2.3,2,3.1
			c0.9,0.8,1.4,1.8,2,2.7c0,0.5,0,1.1,0.1,1.6c0,0.6,0,1.1-0.6,1.6c-0.5,0.4-1.1,0.7-1.2,1.5c-0.2,0-0.5,0.1-0.7,0.2
			c-0.8,0.2-1.6,0.8-2.5,0.9c-1.7,0.1-3.4-0.1-5.1,0.2c-0.4-0.2-0.7-0.3-1,0.1c-0.1,0-0.2,0-0.3,0c0-0.2-0.1-0.3-0.3-0.3
			c-0.9,0-1.8,0-2.8,0c-0.2,0-0.3,0.1-0.3,0.3c-0.4,0-0.7-0.1-1.1,0c-2,0.5-4,0.3-6.1,0.3c-3.4,0-6.8,0.1-10.2-0.5
			C40.5,96,39,95.4,37.4,95c-1.2-0.3-2.4-0.9-3.5-1.4c-1.2-0.5-2.4-1.1-3.4-2c-1.2-1.2-2-2.7-2.5-4.3c-0.3-0.8-0.4-1.7-0.6-2.6
			c0.3-0.3,0.2-0.8,0.1-1.1c-0.5-1-0.2-2-0.2-2.9c0-0.3,0.1-0.6,0.1-0.8c0-0.5,0.3-1.2-0.3-1.6c-0.3-0.3,0-0.6,0-0.9
			c0.2,0,0.3-0.1,0.4-0.2c0.2-0.8,0.6-1.6,0.6-2.4c0-0.4-0.1-0.7,0-1.1c-0.2-1.7,0.7-3.3,0.4-5c0.1-0.1,0.1-0.2,0.1-0.3
			c0-0.1,0-0.2,0-0.3c0.1-0.2,0.2-0.4,0.1-0.6c0.3-0.8,0.5-1.5,0.4-2.4c0-0.9,0.2-1.7,0.4-2.4c0.4-1.2,0.8-2.3,1.3-3.5
			c0.5-1.2,1-2.4,1.5-3.6c0.9-1.8,1.8-3.4,2.7-5.2c0.6-1.3,1.5-2.5,2.1-3.8c1.1-2.3,2.5-4.5,4-6.6c1.2-1.6,2.8-2.9,3.9-4.6
			c0.7-1.1,1.4-2.2,2-3.3c1.4-2.2,3.3-3.7,6-4c0.3,0,0.6,0,0.9-0.1c0.9-0.1,1.8-0.4,2.7-0.2c0.8,0.2,1.6,0.3,2.4,0.2
			c1.1,0,2.1,0.1,3,0.7c1.6,1,2.7,2.3,3.3,4.1c-0.5,0-1,0-1.4,0c-1.8,0-3.6,0.2-5.4,0.1c-1.7-0.1-3.1,0.4-4.6,1
			c-0.9,0.3-1.3,1.2-2,1.6c-0.6,0-1,0.5-1.4,0.9c-0.2,0.2-0.2,0.4,0.1,0.6c-0.5,0.7,0.1,0.6,0.5,0.7c0.2,0.9,0.6,0.2,0.8,0
			c0.6-0.5,1.3-1.1,1.9-1.5c1.4-1,3-1.1,4.6-1.3c0.7-0.1,1.4-0.2,2.1-0.1c1.2,0.2,2.4,0.2,3.6,0.2c1.8,0,3,0.8,4.3,1.7
			c0.5,0.4,0.9,0.8,1.3,1.2c0.9,0.8,1.7,1.7,2,2.9c-0.5,0.1-1.1,0.1-1.6,0c-0.6-0.1-1.2-0.1-1.9,0c-0.7,0.1-1.3,0-2,0
			c-1.8,0-3.7-0.3-5.5,0.2c-0.9,0.2-1.7,0.4-2.7,0.2c-0.7-0.1-1.6-0.2-2.3,0.1c-1.1,0.1-2.2,0.4-3.2,1.1c-0.9,0.6-1.6,1.5-2.4,2.3
			c-0.4,0.4-1,0.7-1,1.4c-0.2,0-0.3,0-0.4,0.2c-0.5,0.7-0.1,2.2,0.7,2.6c0.2,0.6,0.7,0.5,1.1,0.6c0.3,0,0.6-0.1,0.9,0
			c0.9,0.3,1.7,0.8,2.6,1.2c0.2,0.4,0.1,0.7,0.1,1.1c-0.3,0.1-0.3,0.3-0.1,0.5c-0.2,0.2-0.3,0.4,0,0.6c0.7,0.6,1.4,1.1,2.1,1.7
			c0.6,0.5,1.1,1.2,1.9,1.5c1.1,0.5,2.3,0.8,3.5,0.9c1.9,0.3,3.8,0.6,5.7,0.5c0.4,0.2,0.8,0.3,1.2,0.5c0.4,0.2,0.4,0.3,0.2,0.7
			C68.6,59.3,68,59.4,68,60c-1.9,0.6-3.6,1.7-5.7,1.9C61.8,61.9,61.7,62.2,61.9,62.5z"/>
		<path class="st4" d="M90.4,83.7c-0.4-0.7-0.8,0-1.1,0c-0.4-0.3-0.8-0.1-1.2,0c-0.1-0.7-0.4-1.3-1.3-1.3c-1.2-0.5-2.5-0.8-3.7,0.1
			c-0.3,0.2-0.5,0.6-0.9,0.6c-0.6,0-1.2,0.7-1.9,0.3c0-0.1-0.1-0.3-0.1-0.4c0-0.3-0.1-0.5-0.1-0.8c-0.1-0.5-0.2-0.9,0.3-1.2
			c1-1,2.2-1.8,3.5-2.4c0.8-0.4,1.7-0.5,2.6,0c0.8,0.5,1.2,1.3,2,1.8c0.1,0.5,0.3,0.9,0.9,1c0.1,0.2,0.3,0.3,0.5,0.4
			c1.6,0.6,2.9,1.7,4.2,2.8c1.4,1.1,2.1,2.7,3.3,3.9c0.7,0.7,0.9,1.7,1.5,2.5c0.8,1.1,1.4,2.4,1.8,3.6c0.4,1.2,0.2,1.7-0.8,2.3
			c-2.1,1.2-4.3,2.1-6.8,2.2c-0.7,0-1.4,0-2,0c-1.6,0-3.2,0-4.8,0.2c-0.8-0.4-1.7-0.1-2.4-0.7c-0.1-0.1-0.3-0.1-0.4,0.1
			c-0.8,0-1.4-0.2-2.1-0.6c-1.5-0.8-2.8-2-4.3-2.8c-0.2-0.1-0.3-0.3-0.3-0.5c0.1-1.2-0.4-2.4-0.3-3.7c0.1-0.4-0.1-0.8-0.3-1.2
			c-0.8-1-1.3-2.2-2.3-3.1c-0.5-0.5-1-1-1.2-1.7c-0.2-0.7,0.2-1.4,1-1.6c0.6-0.2,1.2,0.3,1.4,1c0.4,1.3,1.2,2.3,2.5,2.7
			c0.4,0.1,0.7,0.3,0.9,0.6c0,0.4,0,0.8,0,1.3c0,0.5,0.1,0.8,0.6,0.9c0.1,0.9,0.8,1.4,1.4,2c0.7,0.6,1.5,1.2,2.2,1.9
			c0.7,0.8,1.6,1.3,2.7,1.3c0.4,0,0.7,0.2,1,0.5c0.2,0.2,0.2,0.5,0.4,0.6c0.9,0.7,1.9,1,3,1c0.7,0,1.3,0.1,1.9,0.6
			c1,0.8,2.1,0.8,3.2,0.1c0.4-0.2,0.6-0.6,0.9-0.9c0.9-0.8,1.7-1.7,2.6-2.6c0.1-0.1,0.1-0.3,0.1-0.5c0.8-0.4-0.1-0.8,0-1.3
			c0-0.3-0.3-0.4-0.5-0.4c-0.1,0-0.2,0.1-0.3,0.2c-0.4,0.3-0.8,0.7-1.2,1c-0.5,0.5-1.2,0.9-1.2,1.7c-0.7,0.1-1,0.7-1.4,1
			c-0.2,0-0.3,0-0.5,0c-0.4,0-0.6-0.1-0.5-0.6c0.1-0.4,0.3-0.7,0.6-1c0.8-0.6,1.4-1.4,2-2.2c0.2-0.3,0.2-0.5-0.1-0.6
			c0.1-0.3,0.4-0.7-0.3-0.7c-0.3-0.5-0.6,0-0.8,0.1c-1.2,1-2.4,2-3.3,3.3c-0.6,0.8-1.4,0.6-2.1,0.7c-0.5,0.1-0.5-0.6-0.8-0.8
			c0-0.3,0.2-0.6,0.1-0.9c0.7-1.3,1.4-2.6,2.7-3.5c0.4-0.3,0.7-0.6,0.4-1.1c-0.1-0.4-0.4-0.3-0.6-0.3c-0.3-0.3-0.5-0.1-0.8,0
			c-1.2,0.6-2,1.7-2.6,2.7c-0.4,0.7-1,1.1-1.4,1.7c-0.1,0.1-0.2,0.2-0.4,0.1c-0.8-0.4-1.8-0.8-2.3-1.6c-0.3-0.4-0.3-0.9-0.1-1.3
			c0.6-1,1.4-1.8,2.5-2.2c0.6-0.2,1.1-0.5,1.6-0.8c1.2-0.7,2.1-1.6,3.2-2.5C90.4,84.5,90.6,84.2,90.4,83.7z"/>
		<path class="st2" d="M66,69.7c1-0.1,2.7,0.3,4.4,0.8c1.4,0.4,2.8,0.3,4.2,0.5c2,0.3,4.1,0,6.1,0.2c1.8,0.2,3.5,0.1,5.3-0.1
			c0.7-0.1,1.3-0.1,2-0.2c0.7-0.1,1.3-0.5,1.9-1c0.5-0.5,1-0.9,1.5-1.3c0.3-0.2,0.5-0.2,0.6,0.2c0.2,0.7,0.2,1.3-0.3,1.9
			c-0.8,1-1.4,2.2-2.5,2.9c-1.3,0.8-2.6,1.1-4.1,0.9c-1.4-0.2-2.9-0.1-4.3,0.1c-2.3,0.2-4.7,0.5-7.1,0c-0.7-0.1-1.5-0.1-2.2-0.1
			c-1,0-1.9,0-2.9-0.3c-1.5-0.5-3.1-0.4-4.7-0.7c-1.5-0.3-2.8-1-4.1-1.7c-1.3-0.6-2.6-1.1-3.8-1.8c-2.2-1.3-4.6-2.1-6.5-3.7
			C49,66,48.7,65.5,48.3,65c-0.3-0.5,0.3-1.6,0.9-1.6c0.5,0,1,0.1,1.4,0.2c1.4,0.3,2.8,0.7,4.1,1.1c1.7,0.5,3.4,0.9,5.1,1.2
			c1.6,0.2,3.1,0.7,4.7,1c2,0.5,4.1,0.7,6.2,0.9c2.5,0.2,5.1,0.2,7.6,0.5c2,0.2,4,0.3,6,0.2c1.7,0,3.5-0.4,5-1.2
			c0.5-0.3,1-0.6,1.4-1.1c1-1.4,2.1-2.7,2.3-4.5c0-0.1,0.1-0.2,0.2-0.2c0.2,0,0.3,0.1,0.4,0.3c0.8,1.2,0.7,2.4-0.2,3.4
			c-0.7,0.8-1.4,1.7-2.1,2.5c-0.8,0.9-1.8,1.7-2.9,2.3c-0.3,0.1-0.6,0.3-0.9,0.3c-2.2,0-4.4,0.3-6.7,0.1c-0.9-0.1-1.8-0.2-2.7-0.1
			c-1.8,0.2-3.6,0-5.4-0.2c-0.9-0.1-1.7-0.3-2.6-0.5c-2.1-0.6-4.2-0.8-6.3-0.8c-1.6,0-3.2-0.3-4.7-0.9c-1.7-0.6-3.4-1.3-5.2-1.7
			c-0.9-0.2-1.6-0.8-2.3-1.4c-0.2-0.2-0.4-0.4-0.7-0.1c-0.2,0.3,0,0.5,0.2,0.7c0.6,0.6,1.3,1.1,2.1,1.4c2.1,0.6,4.1,1.5,6.2,2.1
			C61.4,69.6,63.3,69.9,66,69.7z"/>
		<path class="st4" d="M81.1,43.4c0,0.2,0,0.4,0,0.6c-0.1,0.3-0.5,0.5-0.7,0.7c-0.4,0.2-0.9,0.3-1.2,0.7c-0.5,0.8-1.3,1-2.2,1l0,0
			c-0.2-1.1-0.8-1.8-1.7-2.3c0-0.1,0-0.2,0-0.3c0.1,0,0.2-0.1,0.3-0.2c0.2-0.6-0.5-2.3-1.1-2.7c-0.1,0-0.1,0-0.2,0
			c-0.5-0.9-1-1.8-1.6-2.6c-0.8-1.2-0.8-1.3,0.6-1.5c0.9-0.1,1.8-0.6,2.8-0.6c1.5,0,2.9,0.2,4.3,0.5c1.3,0.3,2.6,0.7,3.8,1.4
			c1.3,0.8,2.5,1.7,3.7,2.7c0.1,0.1,0.3,0.2,0.3,0.4c-0.1,0.3-0.3,0.2-0.5,0.2c-1.2,0-2.4,0-3.6,0.3c-0.9,0.2-1.8,0.4-2.6,0.9
			C81.1,42.9,80.7,43,81.1,43.4z"/>
		<path class="st1" d="M75.6,53.5c-0.5-0.2-0.8-0.7-1-1.2c-0.6-1.4-0.9-3-2.1-4.2c-0.8-0.7-1.7-1.1-2.6-1.5
			c-1.4-0.6-2.6-1.6-3.9-2.3c-1.4-0.8-3-1-4.6-0.8c-1.3,0.1-2.6,0.2-3.9,0.4c-2.5,0.4-4.7,1.4-6.2,3.6C51.1,47.8,51,48,50.7,48
			c-0.2,0-0.5,0-0.6-0.2c-0.1-0.2,0-0.4,0.1-0.6c0.3-0.5,0.7-0.9,1.1-1.3c0.9-0.9,1.6-1.9,2.8-2.4c0.9-0.3,1.9-0.7,2.9-0.7
			c1.4,0,2.8,0,4.2,0c0.4,0,0.9-0.1,1.3-0.1c1.7-0.2,3.2,0.5,4.8,0.9c1.8,0.5,3.1,1.6,4.3,3.1c0.4,0.6,1.1,0.9,1.6,1.4
			c1.4,1.1,2.4,2.4,2.5,4.2c0,0.1,0.1,0.2,0.1,0.3C75.7,52.9,75.9,53.3,75.6,53.5z"/>
		<path class="st5" d="M69.2,48.2c0.1,0,0.1,0,0.2,0c2.7-0.2,2.9,0.9,3.7,2.6c0.3,0.6,0.6,1.3,0.8,1.9c0.2,0.4,0.2,0.9-0.4,0.9
			c-1,0-1.9,0.7-2.9,0.8c-1.2,0.1-2.3,0.2-3.5,0c-0.5-0.1-0.4-0.3-0.2-0.5c0.8-1.1,1-2.3,0.9-3.6c0-0.5-0.2-1-0.5-1.4
			c-0.4-0.5-0.2-0.6,0.3-0.6C68.2,48.2,68.7,48.2,69.2,48.2z"/>
		<path class="st1" d="M75.5,75.7c0,0.3-0.2,0.4-0.4,0.4c-2-0.1-4.1,0.3-6.1-0.3c-1.2-0.3-2.3-0.4-3.5-0.5c-1.5-0.1-2.9-0.6-4.3-1.3
			c-1.5-0.7-2.9-1.5-4.4-2.1c-0.8-0.3-1.5-0.7-2.2-1.2c-1.1-0.8-2.5-1.1-3.6-1.9c-1.2-0.8-2.4-1.5-3.3-2.7c-0.1-0.2-0.3-0.5-0.3-0.7
			c0-0.6,0-1.2-0.9-1.3c0,0,0-0.2-0.1-0.3c0.2,0,0.4-0.2,0.5-0.3c0.9-1.4,2.2-1.7,3.8-1.7c0.6,0,1.2,0.1,1.8-0.1
			c0,0.7,0.5,0.9,1,1.1c1,0.4,2.1,0.7,3.2,1.1c0.1,0,0.2,0.1,0.3,0.1c1.6-0.2,3,0.7,4.5,0.8c0.8,0,1.6,0.2,2.3,0.5
			c1.1,0.4,2.2,0.5,3.4,0.5c0.4,0,0.8,0.1,1.2,0.3c1,0.4,2,0.5,3,0.3c0,0.2,0.2,0.5-0.1,0.7c-1.3-0.1-2.5-0.2-3.8-0.4
			c-1.5-0.2-2.9-0.5-4.4-0.8c-1.5-0.3-3-0.7-4.5-0.9c-2.1-0.3-4.1-1.2-6.2-1.7c-0.9-0.2-1.8-0.4-2.7-0.4c-1.3,0-2.3,1.3-1.8,2.6
			c0.3,0.7,0.7,1.2,1.3,1.7c1.4,1.1,3.1,1.8,4.6,2.7c2.8,1.6,5.8,2.8,8.6,4.3c0.8,0.4,1.7,0.5,2.5,0.7c1.6,0.2,3.2,0.3,4.7,0.8
			c0.2,0.1,0.4,0,0.6,0C71.8,75.5,73.6,75.5,75.5,75.7z"/>
		<path class="st1" d="M27.4,84.7c0.1,0.9,0.3,1.7,0.6,2.6c0.5,1.6,1.3,3.1,2.5,4.3c0.9,0.9,2.2,1.5,3.4,2c1.2,0.5,2.3,1.1,3.5,1.4
			c1.6,0.4,3.1,1,4.8,1.3c3.4,0.6,6.8,0.6,10.2,0.5c2,0,4.1,0.2,6.1-0.3c0.3-0.1,0.7,0,1.1,0c1.2,0,2.3,0,3.5,0c0.1,0,0.2,0,0.3,0
			c0.3,0,0.7,0.1,1-0.1c1.7-0.3,3.4-0.1,5.1-0.2c0.9,0,1.6-0.6,2.5-0.9c0.2-0.1,0.4-0.1,0.7-0.2c0.3,0,0.5-0.1,0.6-0.4
			c0.2-0.3,0.5-0.6,0.9-0.5c-0.5,0.9-1.3,1.4-2.2,1.6c-1,0.3-2,0.8-3.1,0.9c-0.3,0-0.6-0.1-0.8,0.1c-0.2,0-0.3,0-0.5,0
			c0,0-0.1,0-0.1,0c-0.3,0-0.6,0-0.9,0c-0.3,0-0.6-0.1-0.8,0.1c-0.3,0-0.7,0-1,0c-0.1,0-0.1,0-0.2,0c-1.8,0-3.5,0-5.3,0.1
			c-1.6,0-3.1,0.4-4.7,0.3c-0.1,0-0.1,0.1-0.2,0.1c-0.1,0-0.3,0-0.4,0c-1.1-0.2-2.3-0.2-3.4,0c-2.3-0.2-4.5-0.1-6.8-0.5
			c-1.8-0.3-3.6-0.7-5.4-1.2c-1.2-0.4-2.3-0.8-3.4-1.3c-1.5-0.7-3-1.4-4.3-2.5c-1.5-1.3-2.4-3-3-4.9c-0.3-0.8-0.6-1.5-0.6-2.3
			C27,84.7,27.2,84.7,27.4,84.7z"/>
		<path class="st1" d="M74.2,90.5c-0.6-0.9-1.1-1.9-2-2.7c-0.9-0.8-1.6-1.9-2-3.1c-0.2-0.6,0.3-0.9,0.5-1.3c0.5-0.7,1-1.4,1.9-1.7
			c0.9-0.3,1.7-0.1,2.5,0.2c0.3,0.2,0.6,0.1,0.9,0c1.4-0.5,2.3-1.7,3.4-2.7c1.2-1,2.5-2.2,4.1-2.6c0.1,0,0.3-0.1,0.3-0.2
			c0-0.2-0.2-0.3-0.4-0.3c-1,0.2-1.9-0.2-2.8-0.1c0-0.2,0-0.4,0-0.6c0.7,0,1.3,0,2-0.1c0.2,0,0.3,0,0.4-0.1c0.1,0,0.3,0,0.4,0
			c0.1,0.1,0.2,0.1,0.3,0c1.8,0.1,3.6,0.4,5.3-0.6c0.4-0.2,0.7-0.5,1-0.8c0.3-0.2,0.4-0.2,0.4,0.2c0.2,1.7-0.6,3-1.8,4.1
			c-0.3,0.3-0.5,0.1-0.7-0.2c-0.4-0.4-0.8-0.9-1.4-1.1c-1.1-0.6-2.1-0.2-3.1,0.2c-2.1,0.9-3.7,2.5-5.4,4c-0.6,0.6-1.5,1-2.3,1.4
			c-0.2,0.1-0.3-0.1-0.5-0.2c-1.9-1-3.1-0.5-4.3,1.1c-0.6,0.9,0,1.6,0.3,2.3c0.2,0.5,0.7,0.9,1.1,1.2c1.1,0.9,1.7,2.1,2.2,3.3
			C74.4,90.6,74.3,90.5,74.2,90.5z M89.7,75.9c0-0.6,0-0.8-0.6-0.5c-0.8,0.4-1.5,0.9-2.4,0.9c-0.1,0-0.2,0.1-0.2,0.2
			c0,0.2,0.1,0.2,0.2,0.2c0.4,0,0.6,0.2,0.8,0.5c0.6,0.8,0.6,0.8,1.3,0.1C89.2,76.8,89.6,76.4,89.7,75.9z"/>
		<path class="st1" d="M53.2,28.2c-2.7,0.3-4.6,1.8-6,4c-0.7,1.1-1.3,2.2-2,3.3c-1.2,1.7-2.7,2.9-3.9,4.6c-1.5,2.1-2.9,4.3-4,6.6
			c-0.6,1.3-1.4,2.5-2.1,3.8c-0.9,1.8-1.8,3.5-2.7,5.2c-0.6,1.2-1.1,2.4-1.5,3.6c-0.4,1.2-0.8,2.3-1.3,3.5c-0.3,0.7-0.5,1.6-0.4,2.4
			c0,0.8-0.1,1.6-0.4,2.4c-0.2,0-0.3,0-0.5,0c0.3-1.1,0-2.3,0.4-3.4c0.5-1.7,1-3.5,1.7-5.1c0.8-1.9,1.6-3.7,2.6-5.5
			c0.9-1.6,1.7-3.3,2.5-5c0.6-1.1,1.2-2.3,1.8-3.4c1-1.9,2.2-3.6,3.4-5.4c0.3-0.5,0.7-0.9,1.1-1.3c1.6-1.9,3.4-3.7,4.6-6
			c1.1-2.1,2.7-3.7,5-4.6c0.4-0.2,0.9-0.2,1.4-0.3C53.2,27.6,53.1,27.9,53.2,28.2z"/>
		<path class="st1" d="M69.2,47.2c-1.2,0.1-2.1,0.2-3,0.4c-0.1,0-0.2,0-0.3,0c-2.7-0.2-5.5-0.3-8.2,0c-1.5,0.1-3,0.1-4.4,0.8
			c-0.2,0.1-0.4,0.1-0.6,0.1c-0.2,0-0.5,0-0.6-0.3c-0.1-0.2,0.1-0.4,0.2-0.6c0.8-1,1.7-1.7,3-2.1c2.2-0.7,4.4-0.9,6.7-1.1
			c1.9-0.1,3.5,0.4,5,1.5C67.6,46.5,68.4,46.7,69.2,47.2z M62.1,46.7c1.2,0,2.3,0,3.5,0c0.3,0,0.6,0.2,0.8-0.2
			c0.1-0.4-0.3-0.5-0.5-0.7c-2-1.1-4.1-1.1-6.2-0.6c-0.6,0.1-1.3,0.3-1.9,0.3c-1.3,0-2.3,0.6-3.5,1.1c-0.2,0.1-0.6,0.1-0.7,0.5
			c-0.1,0.3,0,0.4,0.2,0.3c0.9-0.3,1.9,0,2.8-0.3c1.1-0.4,2.3-0.5,3.5-0.5C60.7,46.8,61.4,46.7,62.1,46.7z"/>
		<path class="st1" d="M81.1,43.4c-0.4-0.4,0-0.5,0.2-0.7c0.8-0.6,1.7-0.7,2.6-0.9c1.2-0.3,2.4-0.3,3.6-0.3c0.2,0,0.4,0.1,0.5-0.2
			c0-0.2-0.1-0.3-0.3-0.4c-1.2-1-2.4-1.9-3.7-2.7c-1.2-0.7-2.5-1.1-3.8-1.4c-1.4-0.3-2.8-0.5-4.3-0.5c-1,0-1.8,0.4-2.8,0.6
			c-1.4,0.2-1.4,0.3-0.6,1.5c0.6,0.8,1.1,1.7,1.6,2.6c0.4,0.9,1,1.8,1,2.9c0,0.1,0,0.2,0,0.3c0,0.1,0,0.3,0,0.4
			c0.6,0.6,1,1.4,1.7,1.9c0,0,0,0,0,0c0.2,0.5,0.3,1-0.4,1.1c0-0.9-0.4-1.6-1.1-2.1c-0.3-0.3-0.5-0.6-0.8-0.9
			c-0.1-0.1-0.2-0.2-0.1-0.4c0.5-1-0.1-1.7-0.5-2.5c-0.6-1.2-1.3-2.3-2.1-3.4c-0.4-0.5-0.9-0.8-1.3-1.3c2-0.8,4.1-1.3,6.2-1.1
			c2.6,0.2,5.1,0.7,7.3,2.1c1.6,1.1,3.3,2.1,4.5,3.7c0.1,0.2,0.4,0.4,0.2,0.6c-0.2,0.3-0.4,0.1-0.6,0.1c-1.3-0.3-2.6-0.1-3.9,0
			c-0.3,0-0.7,0-1,0.1C82.6,42.6,81.8,42.8,81.1,43.4z"/>
		<path class="st6" d="M54.5,51.9c0-0.4,0.1-0.8-0.1-1.1c0.3-0.1,0.7,0.1,0.9-0.3c0.8,0.2,1.6,0.6,2.2,1.2c1.1,1.2,2.7,1.7,4.2,2.1
			c1,0.3,1.9,0.5,2.8,1c0.1,0.5-0.5,0.7-0.4,1.1c-1.9,0.1-3.8-0.2-5.5-1.1c-0.2-0.1-0.3-0.2-0.5-0.3c-0.2-0.7-0.6-1.1-1.3-1.2
			c0,0,0,0,0,0c-0.1,0-0.1-0.1-0.2-0.1c-0.4-0.1-0.6-0.5-0.9-0.7C55.3,52.1,54.9,51.9,54.5,51.9z"/>
		<path class="st1" d="M86.1,99.3c1.6-0.2,3.2-0.2,4.8-0.2c0.7,0,1.4,0.1,2,0c2.5-0.1,4.7-0.9,6.8-2.2c1-0.6,1.2-1.1,0.8-2.3
			c-0.4-1.3-1-2.5-1.8-3.6c-0.6-0.8-0.8-1.8-1.5-2.5c-1.2-1.2-2-2.8-3.3-3.9c-1.3-1.1-2.6-2.2-4.2-2.8c-0.2-0.1-0.4-0.2-0.5-0.4
			c0.1-0.1,0.2-0.1,0.3-0.2c2.8,1.3,5,3.1,6.9,5.6c1.3,1.7,2.3,3.6,3.4,5.5c0.5,0.9,0.9,1.8,1.2,2.9c0.3,1.4,0.2,1.5-1,2.3
			c-3,1.9-6.3,2.6-9.8,2.3c-1.4-0.1-2.8-0.1-4.1-0.1C86.1,99.5,86.1,99.4,86.1,99.3z"/>
		<path class="st1" d="M72,41c-0.3-1.2-1.2-2-2-2.9c-0.4-0.4-0.8-0.9-1.3-1.2c-1.3-1-2.5-1.8-4.3-1.7c-1.2,0-2.4,0-3.6-0.2
			c-0.7-0.1-1.4,0.1-2.1,0.1c-1.6,0.1-3.2,0.3-4.6,1.3c-0.7,0.5-1.3,1-1.9,1.5c-0.2,0.2-0.6,0.8-0.8,0c0.5-0.3,0.9-0.6,1.3-1
			c1.3-1.4,3-2,4.9-2.3c2.1-0.3,4.2-0.2,6.4,0.1c0.1,0,0.3,0,0.4,0c2.6-0.2,4.3,1.3,6,3c1.3,1.3,2.1,2.9,3,4.4
			c0.2,0.3,0.3,0.5,0.4,0.8c0,0.2,0.3,0.3,0.1,0.5c-0.2,0.2-0.5,0-0.6-0.2c-0.2-0.2-0.4-0.5-0.7-0.6c0-0.3,0-0.6,0-0.9
			C72.4,41.3,72.4,41,72,41z"/>
		<path class="st1" d="M85.2,44.7c0.1,0,0.3,0,0.4,0c0.4,0,0.9,0,1.3,0c0.8,0.2,1.7,0.2,2.5,0.3c0.6,0.1,1.2,0.2,1.8,0.4
			c0.5,0.2,0.9,0.6,1,1.2c0,0.6,0.1,1.2,0,1.8c-0.2-0.3-0.5-0.6-0.7-1c-0.4-0.9-1.1-1.4-2.1-1.7c-1.8-0.4-3.7-0.4-5.5-0.1
			c-1.7,0.3-2.9,1.6-4,2.9c-0.1,0.1-0.2,0.2-0.3,0.3c0-0.5,0.1-1.1-0.5-1.5c1.3-1.5,2.9-2.5,5-2.6c0.1,0,0.3-0.1,0.4-0.1
			C84.8,44.7,85,44.7,85.2,44.7z"/>
		<path class="st6" d="M86.2,58.8c-0.3,0-0.4-0.3-0.5-0.5c-0.2-0.3-0.4-0.5-0.8-0.5c0-0.1,0-0.2,0-0.4c0-0.8-0.2-0.9-1-0.7
			c-1.4,0.3-2.8,0.1-4.1-0.5c0-0.3,0.2-0.6,0.4-0.8c0.2-0.3,0.7-0.1,0.8-0.5c1.7-0.1,3.5,0.1,5.2,0.1c0.1,0.6,0.8,0.7,0.9,1.2
			c-0.4,0.5,0,0.7,0.3,0.9c-0.6,0-0.7,0.4-0.7,0.9c-0.5,0.1-0.2,0.5-0.3,0.7C86.2,58.7,86.2,58.8,86.2,58.8z"/>
		<path class="st6" d="M72,41c0.4,0,0.4,0.4,0.4,0.7c0,0.3,0,0.6,0,0.9c-0.6-0.4-1.3-0.6-2-0.6c-3,0-6-0.1-9,0
			c-1.2,0-2.4,0.1-3.6,0.1c-0.1-0.1-0.2-0.1-0.3,0c-0.1,0-0.2,0-0.3,0c-0.1,0-0.2,0-0.3,0c-0.1,0-0.2,0-0.3,0c-0.1,0-0.2,0-0.3,0
			c0,0-0.1,0-0.1,0c0-0.1-0.1-0.3-0.1-0.4c0.8-0.3,1.6-0.2,2.3-0.1c0.9,0.2,1.8,0,2.7-0.2c1.8-0.5,3.7-0.3,5.5-0.2
			c0.7,0,1.3,0.1,2,0c0.6-0.1,1.3-0.1,1.9,0C71,41.1,71.5,41.1,72,41z"/>
		<path class="st1" d="M86.5,46.3c1.1,0.1,2.2,0.2,3.2,0.5c0.2,0.1,0.4,0.2,0.6,0.4c0.6,0.8,1.2,1.5,1.7,2.3c0.1,0.2,0.2,0.4,0,0.5
			c-0.1,0.2-0.3,0-0.4-0.1c-0.6-0.2-1.2-0.4-1.7-0.8c-1.6-1.2-3.5-1.4-5.4-1.3c-0.6,0-1.2,0-1.7,0c-0.2,0-0.3-0.1-0.4-0.2
			c0-0.2,0.1-0.3,0.2-0.3c0.5-0.4,1-0.6,1.6-0.7C85,46.4,85.8,46.3,86.5,46.3z"/>
		<path class="st5" d="M87.1,48.8c0.4-0.1,0.6-0.1,0.9,0.1c1.2,0.6,2.3,1.2,3.5,1.7c0.5,0.2,0.6,0.6,0.2,1c-0.6,0.6-1.1,1.1-1.8,1.6
			c-0.7,0.5-1.5,0.6-2.3,0.8c-0.2,0-0.7,0.1-0.3-0.4C88.4,52,88.1,50.4,87.1,48.8z"/>
		<path class="st1" d="M64,55.9c-0.1-0.5,0.5-0.7,0.4-1.1c1.8,0.4,3.7,0.7,5.6,0.6c0.6,0,1.1-0.1,1.6-0.3c0.9-0.4,1.8-0.7,2.7-0.9
			c0.3-0.1,0.7-0.2,0.9,0.2c0.1,0.3,0,0.6-0.3,0.9c-1,0.8-2.1,1.4-3.4,1.3c-0.3,0-0.6-0.1-0.8-0.2c-0.2-0.2-0.4-0.2-0.6,0
			c-0.2,0-0.3,0-0.5,0c-0.2-0.1-0.5-0.1-0.7,0c-0.1,0-0.2,0-0.3,0c0-0.1-0.1-0.1-0.1,0C66.9,56.3,65.4,56.1,64,55.9z"/>
		<path class="st1" d="M98.2,93.9c0,0.2,0,0.3-0.1,0.5c-0.8,0.9-1.7,1.8-2.6,2.6c-0.3,0.3-0.5,0.7-0.9,0.9c-1.1,0.7-2.2,0.7-3.2-0.1
			c-0.6-0.5-1.2-0.6-1.9-0.6c-1.1,0.1-2.1-0.3-3-1c-0.2-0.2-0.3-0.4-0.4-0.6c-0.3-0.3-0.6-0.5-1-0.5c-1.1,0-2-0.6-2.7-1.3
			c-0.7-0.7-1.5-1.2-2.2-1.9c-0.6-0.5-1.3-1.1-1.4-2c0.1-0.1,0.2-0.2,0.2-0.3c0.7,1.2,1.7,2,2.7,2.8c0.6,0.5,1.2,1.1,1.8,1.6
			c0.7,0.5,1.3,0.7,2.1,0.6c0.3,0,0.5,0,0.6,0.3c0.4,1.2,1.3,1.5,2.4,1.6c0.6,0,1.2,0.1,1.8-0.1c0.3-0.1,0.5-0.1,0.7,0.3
			c0.8,1.4,2.4,1.5,3.6,0.4c1.2-1,2-2.3,3.1-3.4C97.9,93.9,98.1,93.9,98.2,93.9z"/>
		<path class="st1" d="M90.4,83.7c0.2,0.5-0.1,0.8-0.5,1.2c-1,0.9-2,1.8-3.2,2.5c-0.5,0.3-1,0.6-1.6,0.8c-1.1,0.4-1.9,1.2-2.5,2.2
			c-0.2,0.4-0.2,0.9,0.1,1.3c0.6,0.8,1.5,1.2,2.3,1.6c0.1,0.1,0.3,0,0.4-0.1c0.4-0.6,1-1,1.4-1.7c0.6-1.1,1.4-2.1,2.6-2.7
			c0.2-0.1,0.5-0.3,0.8,0c-0.9,0.5-1.6,1.2-2.2,2c-0.5,0.7-1.1,1.4-1.4,2.3c-0.4,0.9-1,1.1-2,0.6c-1-0.4-1.6-1.1-2.3-1.9
			c-0.4-0.4-0.4-0.9-0.1-1.5c0.7-1.1,1.4-2.1,2.7-2.7c1.9-0.8,3.5-2.2,5.1-3.6C90.3,84,90.3,83.8,90.4,83.7z"/>
		<path class="st1" d="M82.2,83.1c0.4,0,0.6-0.4,0.9-0.6c1.2-0.9,2.4-0.6,3.7-0.1c0,0.2-0.1,0.3-0.3,0.3c-0.3-0.1-0.6-0.1-0.8-0.2
			c-1.2-0.4-2,0.2-2.9,0.9c-0.9,0.8-1.9,1.5-3,2.1c-1.2,0.6-2.9,0.3-3.5-0.7c-0.3-0.4-0.3-0.8-0.1-1.2c0.2-0.4,1.1-1.2,1.6-1.1
			c0.6,0.1,1.1,0.6,1.4,1.1c0.1,0.2,0,0.4-0.2,0.6c-0.2,0.2-0.4,0.4-0.5,0.6c-0.1,0.1-0.4,0.3-0.1,0.5c0.2,0.2,0.5,0.1,0.6-0.1
			c0.3-0.4,0.6-0.8,1-1.1C80.9,84.2,81.7,84,82.2,83.1z M77.6,84.7c0.2,0,0.6,0,0.5-0.4c-0.1-0.3,0-0.8-0.6-0.8
			c-0.4,0-0.5,0.3-0.6,0.6C77,84.6,77.3,84.7,77.6,84.7z"/>
		<path class="st6" d="M79.2,47.4c0.5,0.4,0.5,0.9,0.5,1.5c0,0-0.1,0.1-0.1,0.1c-0.2,0-0.2,0.1-0.2,0.2c-0.6,0.6-1.1,1.3-1.7,1.9
			c-0.4-0.3-0.8-0.6-1-1.2c-0.1-0.8,0.1-1.7-0.1-2.5c0.7-0.2,0.6-0.6,0.4-1.1c0.9,0,1.7-0.2,2.2-1c0.3-0.5,0.8-0.5,1.2-0.7
			c0,0.2,0,0.4,0,0.6c-0.5,0.4-1,0.9-1.5,1.3c-0.2,0.2-0.5,0.3-0.4,0.6C78.6,47.6,78.9,47.4,79.2,47.4z"/>
		<path class="st1" d="M75.3,66.7c1.5,0.3,2.9,0.1,4.4,0.1c0.6,0,1.2,0,1.8,0.2c0.3,0.1,0.8,0.2,1.1,0c1.3-0.4,2.6-0.3,3.8-0.2
			c1.5,0,2.7-0.7,3.6-1.8c0.6-0.6,1-1.3,1.3-2.2c0.1,0,0.2-0.1,0.3-0.1c0.4-0.4,0.2,0,0.3,0.1c-0.7,1.6-1.6,3.1-3.3,3.9
			c-0.9,0.4-1.8,0.6-2.8,0.6c-1.4,0.1-2.9,0.3-4.3,0.3c-1.3,0-2.6-0.3-3.9-0.4c-0.8-0.1-1.6,0-2.4-0.2
			C75.3,67.1,75.3,66.9,75.3,66.7z"/>
		<path class="st1" d="M72.4,46.3c-0.7-0.3-1.1-1-1.6-1.5c-0.7-0.7-1.4-1.4-2.5-1.5c-0.3,0-0.6-0.1-0.8-0.4c1.1-0.3,2.2-0.2,3.3-0.2
			c0.7,0,1.2,0.4,1.7,0.8c0.8,0.8,1.7,1.6,2.5,2.5c0.9,1,0.9,2.2,1,3.5c0,0.1,0,0.2-0.1,0.2c-0.1,0-0.2-0.1-0.2-0.1
			c-0.6-1.1-1.6-1.7-2.4-2.7c0.2-0.4,0.6-0.2,0.9-0.2c0.2,0.3,0.5,0.5,0.7,0.8c0.1,0.1,0.3,0.4,0.5,0.2c0.2-0.2,0-0.4-0.1-0.6
			c-0.8-1.2-2-2.2-3-3.3c-0.2-0.2-0.4-0.3-0.7-0.3c-0.1-0.3-0.4-0.3-0.6-0.4c-0.2-0.1-0.4-0.3-0.6,0c-0.2,0.3,0,0.5,0.2,0.7
			c0.5,0.6,1.2,1.2,1.7,1.8C72.3,45.8,72.6,46,72.4,46.3z"/>
		<path class="st1" d="M76.5,34.9c-2,0.2-4.1,0.4-6,1.2c-0.4,0.1-0.6,0-0.8-0.2c-0.6-0.5-1.3-1-2.1-1.4c-0.5-0.2-0.7-0.6-0.7-1
			c-0.1-0.8-0.3-1.5-0.8-2.1c-0.2-0.3-0.1-0.5,0.2-0.7c0.8-0.5,1.5-1,2.2-1.6c0.5-0.5,1.1-0.8,1.8-1c0.2,0.1,0.2,0.3,0.2,0.5
			c-1.2,0.6-2.2,1.5-3.3,2.3c-0.4,0.3-0.6,0.5-0.2,0.9c0.2,0.2,0.3,0.5,0.3,0.8c0,0.9,0.5,1.4,1.1,1.9c1,0.8,2,1.4,3.4,0.8
			c1.5-0.6,3.1-0.7,4.7-0.8C76.5,34.5,76.5,34.7,76.5,34.9z"/>
		<path class="st1" d="M79.4,87.4c-0.2-0.6,0.1-0.8,0.8-1.1c1.3-0.5,2.3-1.6,3.4-2.4c0.3-0.2,0.6-0.4,1-0.5c0.2,0,0.4-0.1,0.5,0.1
			c0.1,0.2,0,0.4-0.2,0.5c-0.7,0.8-1.4,1.5-2.1,2.3c-0.8,0.8-1.7,1.6-2.6,2.4c-0.2,0.1-0.4,0.4-0.6,0.3c-0.3-0.1-0.3-0.5-0.3-0.7
			C79.3,88,79.4,87.7,79.4,87.4z M81.7,86.2c-0.7,0.2-1.1,0.5-1.6,0.9c-0.1,0.1-0.2,0.2-0.2,0.4c0.1,0.2,0.2,0.2,0.4,0.2
			C80.8,87.6,81.5,87,81.7,86.2z"/>
		<path class="st1" d="M75.5,56.2c-0.7,0.8-1.7,1.2-2.4,1.8c-1.1,1.1-2.1,2.3-3.4,3.2c-0.5,0.4-1,0.7-1.6,0.8
			c-1.6,0.4-3.1,1-4.6,1.6c-0.4,0.2-0.8,0.2-1.2,0.1c-0.4-0.1-0.6-0.3-0.5-0.7c0.3,0.3,0.7,0.3,1.1,0.2c0.8-0.3,1.6-0.5,2.3-0.9
			c0.5-0.3,1.2-0.4,1.7-0.6c1.7-0.5,3.1-1.4,4.3-2.8c1.2-1.4,2.7-2.4,4.3-3.5C75.5,55.8,75.5,56,75.5,56.2z"/>
		<path class="st1" d="M86.8,84.1c-0.1,0.3-0.1,0.6-0.3,0.8c-0.7,1.2-1.7,1.9-2.9,2.7c-1.1,0.7-1.8,1.7-2.3,2.9
			c-0.2,0.6-0.5,0.4-0.7,0.1C80.3,90.3,80,90,80,89.7c0-0.3,0.5-0.4,0.8-0.6c1-0.8,1.8-1.7,2.7-2.6c0.9-0.8,1.8-1.7,2.4-2.8
			c0.1-0.2,0.3-0.3,0.6-0.2C86.8,83.7,86.7,83.9,86.8,84.1z"/>
		<path class="st1" d="M87,56.2c-0.1-0.5-0.8-0.7-0.9-1.2c1.4-0.1,2.9-0.1,4.2-1c0.4-0.3,0.8-0.7,1.1-1.1c0.2-0.3,0.5-0.5,0.9-0.6
			c-0.5,1.8-1.1,3.3-3,3.9c-0.5,0.2-1,0.2-1.5,0.1C87.5,56.1,87.2,56.2,87,56.2z"/>
		<path class="st1" d="M78.2,87.7c-0.2-0.3-0.5-0.5-0.9-0.6c-1.4-0.4-2.1-1.4-2.5-2.7c-0.2-0.7-0.8-1.1-1.4-1
			c-0.8,0.2-1.2,0.9-1,1.6c0.2,0.7,0.7,1.3,1.2,1.7c1,0.9,1.5,2.1,2.3,3.1c-0.2,0-0.4,0-0.6,0c-0.7-1.3-1.6-2.5-2.6-3.5
			c-0.3-0.3-0.5-0.6-0.7-0.9c-0.7-1.3-0.2-2.2,1.4-2.5c1.3-0.2,1.8,0.3,2,1.6c0.1,0.8,1.1,1.8,1.8,1.8c1,0,1.4,0.4,1.4,1.3
			C78.5,87.7,78.3,87.7,78.2,87.7z"/>
		<path class="st1" d="M75.6,28c1.3,0.6,2.7,1.1,3.8,2c0.8,0.7,1.3,1.7,1.9,2.5c0.7,1,1.3,2.1,2,3.1c0.1,0.1,0.2,0.3,0.2,0.4
			c0,0.1,0.2,0.3,0,0.4c-0.1,0-0.2,0-0.3,0c-0.9-0.5-1.9-0.7-2.9-1c-0.5-0.2-1.1-0.1-1.6-0.3c0-0.2,0-0.3,0-0.5c0.3,0,0.6,0,0.9,0.1
			c0.6,0.2,1.2,0.3,1.8,0.5c0.2,0.1,0.6,0.2,0.7-0.1c0.1-0.2,0-0.5-0.2-0.7c-0.4-0.6-0.7-1.2-1.1-1.8c-0.9-1.4-2-2.6-3.6-3.3
			c-0.6-0.3-1.2-0.4-1.8-0.8C75.6,28.4,75.6,28.2,75.6,28z"/>
		<path class="st1" d="M67.4,57.7c-1.9,0-3.8-0.2-5.7-0.5c-1.2-0.2-2.4-0.4-3.5-0.9c-0.8-0.3-1.3-1-1.9-1.5
			c-0.7-0.6-1.4-1.2-2.1-1.7c-0.3-0.2-0.2-0.4,0-0.6c1.2,1,2.4,2.1,3.6,3.1c0.7,0.6,1.7,0.9,2.6,1c2.3,0.4,4.6,0.6,6.9,0.7
			C67.4,57.3,67.4,57.5,67.4,57.7z"/>
		<path class="st1" d="M80.4,45.3c0-0.2,0-0.4,0-0.6c0.2-0.2,0.6-0.4,0.7-0.7c1.9-0.8,3.9-0.9,5.9-0.8c1.7,0,3.4,0.1,4.8,1.3
			c0.1,0.1,0.3,0.2,0.4,0.3c0,0,0.1,0.1,0.1,0.1C88.2,43.6,84.2,43,80.4,45.3z"/>
		<path class="st1" d="M52.2,35.6c0.7-0.4,1.1-1.3,2-1.6c1.5-0.6,2.9-1.1,4.6-1c1.8,0.1,3.6-0.1,5.4-0.1c0.3,0.5-0.1,0.6-0.4,0.7
			c-1.5-0.2-3.1-0.1-4.6-0.1c-1.5-0.1-3,0.4-4.4,0.9c-0.7,0.2-1.2,0.7-1.7,1.1c-0.2,0.2-0.3,0.4-0.6,0.4
			C52.2,35.9,52.2,35.8,52.2,35.6z"/>
		<path class="st5" d="M54,48.9c1.7-0.3,3.4-0.6,5.2-0.4c-0.6,0.7-1.2,1.2-1.4,2.1c0,0.2-0.3,0.3-0.5,0.1c-0.9-0.6-1.8-1-2.9-1.2
			C54.3,49.4,54.1,49.2,54,48.9z"/>
		<path class="st1" d="M61.9,62.5c-0.2-0.3-0.1-0.7,0.4-0.7c2.1-0.2,3.8-1.3,5.7-1.9c0.6-0.3,1.2-0.7,1.8-1.1
			c0.6-0.4,1.1-0.7,0.9-1.5c0.2,0,0.4,0,0.6,0c0,0.2,0,0.3,0.1,0.4c-1,1.4-2.4,2.4-4,3c-1.1,0.4-2.2,0.7-3.3,1.2
			c-0.5,0.3-1.2,0.2-1.7,0.3C62.2,62.4,62,62.4,61.9,62.5z"/>
		<path class="st1" d="M88.4,80.4c-0.7-0.5-1.2-1.3-2-1.8c-0.9-0.6-1.8-0.4-2.6,0c-1.3,0.6-2.4,1.4-3.5,2.4
			c-0.5-0.1-0.1-0.4-0.1-0.6c0,0,0,0,0,0c0,0,0.1-0.1,0.1-0.1c1-1.1,2.1-1.8,3.5-2.3c1.1-0.4,2.1-0.5,3,0.4c0.6,0.6,1.3,1.1,1.7,1.9
			C88.5,80.3,88.5,80.4,88.4,80.4z"/>
		<path class="st1" d="M95,91.9c0.3,0.2,0.3,0.3,0.1,0.6c-0.6,0.8-1.2,1.6-2,2.2c-0.3,0.3-0.5,0.6-0.6,1c-0.1,0.4,0.1,0.6,0.5,0.6
			c0.2,0,0.3,0,0.5,0c0.7,0.2,1,0,1.4-1c0.3,0,0.5-0.2,0.8-0.1c-0.8,0.9-1.4,2-2.9,1.9c-0.7-0.1-0.9-0.6-1.2-1
			c-0.2-0.4,0.1-0.7,0.4-1C93.2,94.2,93.9,92.8,95,91.9z"/>
		<path class="st5" d="M66.1,50.8c0.1,0.9-0.6,1.4-1.5,1.4c-0.6,0-1-0.5-1-1.2c0-0.6,0.8-1.3,1.5-1.3C65.8,49.7,66.1,50.1,66.1,50.8
			z"/>
		<path class="st1" d="M87.7,94.5c0.3,0.2,0.3,0.9,0.8,0.8c0.7-0.1,1.6,0,2.1-0.7c1-1.2,2.2-2.3,3.3-3.3c0.2-0.1,0.4-0.7,0.8-0.1
			c-0.7,0.3-1,1-1.5,1.5c-0.8,0.9-1.9,1.7-2.5,2.8c0,0-0.1,0.1-0.1,0.1c-0.5,0.4-2.9,0.1-3.3-0.4c0,0,0-0.1,0-0.2
			C87.2,94.6,87.4,94.5,87.7,94.5z"/>
		<path class="st1" d="M65.5,32.9c-0.6-1.7-1.8-3.1-3.3-4.1c-0.9-0.5-1.9-0.7-3-0.7c0-0.2,0-0.4,0-0.6c2.3,0,4,1.1,5.4,2.8
			c0.6,0.8,1.1,1.7,1.4,2.7c0.3,0.7,0.1,0.9-0.7,0.7C65.4,33.5,65.6,33.2,65.5,32.9z"/>
		<path class="st1" d="M56,41.5c0,0.1,0.1,0.3,0.1,0.4c-0.1,0-0.1,0-0.2,0c-0.1,0-0.2,0-0.3,0.1C54.4,42.5,53,42.9,52,44
			c-0.8,0.9-1.6,1.7-2.4,2.5c-0.1-0.1-0.1-0.1-0.2-0.2c0.1-0.7,0.6-1,1-1.4c0.8-0.8,1.5-1.7,2.4-2.3C53.8,42,54.9,41.6,56,41.5z"/>
		<path class="st5" d="M80,49.8c-0.2,0.7-0.3,1.3-0.5,1.9c-0.2,0.5-0.2,1.1,0,1.6c0.1,0.3-0.1,0.5-0.2,0.5c-0.5-0.1-1.1-0.1-1.5-0.5
			c-0.1-0.1-0.2-0.2-0.1-0.4C78.1,51.7,78.7,50.6,80,49.8z"/>
		<path class="st6" d="M70.7,57.4c0.2,0.8-0.4,1.1-0.9,1.5c-0.6,0.4-1.2,0.8-1.8,1.1c0-0.6,0.6-0.7,0.8-1.1c0.2-0.4,0.2-0.6-0.2-0.7
			c-0.4-0.1-0.8-0.3-1.2-0.5c0-0.2,0-0.4,0-0.5c0.8,0.2,1.7,0.1,2.5,0.1C70.2,57.2,70.5,57.1,70.7,57.4z"/>
		<path class="st6" d="M75.3,89.9c0.2,0,0.4,0,0.6,0c0.2,0.4,0.3,0.8,0.3,1.2c-0.2,1.2,0.4,2.4,0.3,3.7c-0.2-0.1-0.4-0.3-0.7-0.3
			c-0.5-0.8-0.4-1.8-0.4-2.7C75.3,91.2,75.3,90.5,75.3,89.9z"/>
		<path class="st6" d="M59.2,27.6c0,0.2,0,0.4,0,0.6c-0.8,0.1-1.6-0.1-2.4-0.2c-0.9-0.2-1.8,0.1-2.7,0.2c-0.3,0-0.6,0.1-0.9,0.1
			c0-0.2,0.1-0.5-0.3-0.6c0.6-0.2,1.3-0.3,1.9-0.3C56.3,27.3,57.8,27.2,59.2,27.6z"/>
		<path class="st1" d="M86.2,58.8c0-0.1,0-0.1,0-0.2c1.3,0.5,2.9,0.1,3.8-1c0.4-0.5,0.6-0.5,0.9,0c0.5,0.7,1.2,1.3,1.3,2.3
			c-0.1,0.2-0.2,0.1-0.3,0c-0.3-0.5-0.6-1-0.9-1.4c-0.4-0.6-0.8-0.4-1.2,0c-0.7,0.6-1.5,1-2.5,0.9C86.9,59.4,86.5,59.2,86.2,58.8z"
			/>
		<path class="st1" d="M75.7,94.5c0.3-0.1,0.5,0.2,0.7,0.3c0,0.2,0.1,0.4,0.3,0.5c1.5,0.8,2.8,2,4.3,2.8c0.7,0.3,1.3,0.6,2.1,0.6
			c0,0.4,0.4,0.5,0.6,0.7c-1.8-0.1-3.2-1-4.5-2c-0.7-0.5-1.5-1.1-2.3-1.4C76.4,95.6,76,95.1,75.7,94.5z"/>
		<path class="st6" d="M75.5,56.2c0-0.2,0-0.4,0-0.6c0.6-0.7,0.6-1.4,0.1-2.1c0.3-0.3,0.1-0.6,0.2-0.9c0.1,0,0.3,0,0.4,0
			c0.1,0.6,0.5,0.5,0.8,0.5c0,0.6,0.4,0.9,0.8,1.2c0,0.4,0.5,0.5,0.4,1c-0.3,0-0.3-0.3-0.5-0.5c-0.5-0.5-1-0.3-1.2,0.3
			C76.3,55.5,76,56,75.5,56.2z"/>
		<path class="st5" d="M86.7,51.3c0,0.5-0.6,1.2-1.1,1.2c-0.4,0-1.1-0.7-1.1-1.1c0-0.4,0.6-1,1-1C86.2,50.3,86.7,50.8,86.7,51.3z"/>
		<path class="st1" d="M28.7,68c0,0.1,0,0.2,0,0.3c-0.2,0-0.4,0.1-0.1,0.3c0.2,1.7-0.7,3.3-0.4,5c-0.4,0-0.2,0.9-0.8,0.7
			c0.3-1.3,0.3-2.6,0.6-3.8c0.2-0.8,0.1-1.7,0.4-2.5C28.4,68,28.6,68,28.7,68z"/>
		<path class="st6" d="M27.4,84.7c-0.2,0-0.4,0-0.6,0c-0.5-1.3-0.7-2.7-0.1-4c0.2,0,0.4,0,0.6,0c0,1-0.2,2,0.2,2.9
			C27.6,83.9,27.7,84.4,27.4,84.7z"/>
		<path class="st6" d="M75.3,66.7c0,0.2,0,0.4,0,0.6c-1.5,0.1-2.9,0.1-4.3-0.3c0.4-0.2,0.2-0.4,0.1-0.7
			C72.5,66.3,73.9,66.6,75.3,66.7z"/>
		<path class="st6" d="M74,46.7c-0.3-0.1-0.6-0.2-0.9,0.2c-0.3-0.1-0.5-0.3-0.7-0.6c0.2-0.3-0.1-0.5-0.3-0.7
			c-0.6-0.6-1.2-1.1-1.7-1.8c-0.2-0.2-0.3-0.4-0.2-0.7c0.2-0.3,0.4,0,0.6,0c0.2,0.1,0.5,0.1,0.6,0.4c-0.2,0-0.4,0.2-0.2,0.4
			c0.6,0.6,0.9,1.4,1.8,1.8C73.5,45.9,73.9,46.2,74,46.7z"/>
		<path class="st1" d="M55.2,50.4c-0.2,0.4-0.6,0.2-0.9,0.3c-0.9-0.4-1.7-0.9-2.6-1.2c-0.3-0.1-0.6,0-0.9,0c-0.4,0-0.9,0-1.1-0.6
			c0.1-0.1,0.1-0.1,0.2-0.2c0.2,0.2,0.4,0.2,0.6,0.1c1-0.6,1.7,0.2,2.5,0.5C53.7,49.8,54.4,50.2,55.2,50.4z"/>
		<path class="st6" d="M95.7,95.1c-0.3-0.1-0.5,0.1-0.8,0.1c0-0.9,0.7-1.3,1.2-1.7c0.4-0.3,0.8-0.7,1.2-1c0.1-0.1,0.2-0.2,0.3-0.2
			c0.2,0,0.6,0.1,0.5,0.4c0,0.4,0.8,0.8,0,1.3c-0.1,0-0.3,0-0.3-0.2c0.1-0.3,0.4-0.6,0-0.8c-0.3-0.2-0.6,0.1-0.8,0.4
			C96.6,93.9,96.1,94.5,95.7,95.1z"/>
		<path class="st6" d="M75.6,28c0,0.2,0,0.4,0,0.6c-1.1-0.2-2.2-0.3-3.3-0.3c-0.6,0-1.3,0.2-1.9,0.2c0-0.2,0-0.4-0.2-0.5
			c0.7-0.2,1.4-0.2,2.1-0.2C73.4,27.7,74.5,27.9,75.6,28z"/>
		<path class="st1" d="M90.9,89c0.3,0.5,0,0.8-0.4,1.1c-1.2,0.9-2,2.1-2.7,3.5c-0.2,0.1-0.4,0.1-0.6,0.2c0-0.2,0-0.4,0.1-0.6
			c0.9-1.3,1.5-2.8,3.1-3.6C90.7,89.5,90.9,89.3,90.9,89z"/>
		<path class="st1" d="M78.2,55.2c0.1-0.4-0.4-0.6-0.4-1c1.1,0.2,2.1,0.6,3.2,0.6c-0.1,0.4-0.6,0.2-0.8,0.5
			c-0.2,0.3-0.4,0.5-0.4,0.8c-0.4-0.1-0.8-0.4-1.3-0.4C78.4,55.6,78.3,55.4,78.2,55.2z"/>
		<path class="st1" d="M77,53.1c-0.4,0-0.8,0.1-0.8-0.5c0.3-0.5,0.2-1,0-1.5c-0.2-0.5-0.2-0.9,0.4-1c0.2,0.5,0.6,0.8,1,1.2
			C77.4,51.8,77,52.4,77,53.1z"/>
		<path class="st6" d="M74.2,90.5c0.1,0,0.3,0.1,0.4,0.1c0.4,1-0.1,1.9,0,2.9c0.1,0.4-0.4,0.6-0.7,0.9c-0.4-0.1-0.7,0.2-0.9,0.5
			c-0.2,0.3-0.3,0.4-0.6,0.4c0.1-0.8,0.7-1.1,1.2-1.5c0.6-0.5,0.6-1,0.6-1.6C74.2,91.6,74.2,91,74.2,90.5z"/>
		<path class="st6" d="M80.2,80.4c0.1,0.2-0.4,0.5,0.1,0.6c-0.5,0.3-0.4,0.8-0.3,1.2c0.1,0.2,0.1,0.5,0.1,0.8
			c-0.2-0.1-0.4-0.4-0.7-0.1c-0.4-0.2-0.9-0.4-1-0.8c-0.1-0.5,0.5-0.6,0.8-0.9C79.5,80.8,79.8,80.5,80.2,80.4z"/>
		<path class="st6" d="M27.3,74.4c0.6,0.2,0.4-0.7,0.8-0.7c-0.1,0.4,0,0.7,0,1.1c0,0.8-0.4,1.6-0.6,2.4c-0.1,0.2-0.2,0.3-0.4,0.2
			C26.8,76.3,27.4,75.4,27.3,74.4z"/>
		<path class="st1" d="M86.5,57.9c0-0.5,0.2-0.9,0.7-0.9c0.5,0,1,0,1.4,0c0.2,0,0.4-0.1,0.5,0.1c0.1,0.3-0.2,0.4-0.4,0.5
			C88,57.8,87.3,58,86.5,57.9z"/>
		<path class="st6" d="M78.8,34.6c0,0.2,0,0.3,0,0.5c-0.8-0.1-1.6,0.1-2.3-0.2c0-0.2,0-0.4,0-0.5c0.3-0.3,0.7-0.4,1.1-0.2
			C78,34.3,78.4,34.4,78.8,34.6z"/>
		<path class="st6" d="M83.8,99.4c-0.2-0.2-0.6-0.3-0.6-0.7c0.1-0.2,0.3-0.2,0.4-0.1c0.7,0.6,1.7,0.3,2.4,0.7c0,0.1,0,0.3,0,0.4
			C85.3,99.6,84.5,99.6,83.8,99.4z"/>
		<path class="st1" d="M88.1,83.7c0.4-0.1,0.8-0.3,1.2,0c-0.4,0.6-1,0.9-1.5,1.3c-0.1,0.1-0.3,0.3-0.5,0.1c-0.2-0.2,0-0.4,0.1-0.6
			c0.1-0.3,0.5-0.4,0.5-0.8C88,83.8,88,83.8,88.1,83.7z"/>
		<path class="st6" d="M92,60c0.1,0,0.2,0.1,0.3,0c0.3,0.2,0.3,0.6,0.3,0.9c-0.1,0.7-0.1,1.5-0.6,2.2c-0.1-0.1,0.1-0.6-0.3-0.1
			c-0.1,0.1-0.2,0.1-0.3,0.1c0-0.5,0.4-0.8,0.6-1.3C92.2,61.1,92,60.5,92,60z"/>
		<path class="st6" d="M49.9,48.9c-0.1,0.1-0.1,0.1-0.2,0.2c-0.8-0.4-1.2-1.9-0.7-2.6c0.1-0.2,0.3-0.2,0.4-0.2
			c0.1,0.1,0.1,0.1,0.2,0.2C49.2,47.4,49.1,48.2,49.9,48.9z"/>
		<path class="st6" d="M52.2,35.6c0,0.1,0,0.2,0.2,0.3c-0.3,0.7-0.9,0.9-1.5,1.2c-0.3-0.2-0.3-0.4-0.1-0.6
			C51.1,36.2,51.5,35.7,52.2,35.6z"/>
		<path class="st5" d="M60.8,48.9c0.2,0.1,0.7,0.1,0.7,0.6c0,0.5-0.4,0.6-0.8,0.6c-0.5,0-0.4-0.4-0.5-0.7
			C60.2,49,60.4,48.9,60.8,48.9z"/>
		<path class="st1" d="M27.3,80.7c-0.2,0-0.4,0-0.6,0c0.2-0.8,0.1-1.7,0.4-2.4c0.6,0.5,0.3,1.1,0.3,1.6
			C27.3,80.1,27.3,80.4,27.3,80.7z"/>
		<path class="st6" d="M65.5,32.9c0.1,0.3-0.1,0.6-0.2,0.9c-0.6-0.1-1.1-0.1-1.7-0.2c0.3-0.1,0.7-0.2,0.4-0.7
			C64.6,32.9,65,32.9,65.5,32.9z"/>
		<path class="st5" d="M61.6,51.5c0,0.4-0.1,0.6-0.5,0.6c-0.4,0-0.8-0.3-0.7-0.6c0-0.3,0.4-0.5,0.8-0.6
			C61.6,50.9,61.7,51.1,61.6,51.5z"/>
		<path class="st6" d="M78.2,87.7c0.1,0,0.3,0,0.4,0c0.1,0.6,0.2,1.2,0.3,1.9c0,0.1,0,0.2-0.2,0.3c-0.4-0.1-0.6-0.4-0.6-0.9
			C78.2,88.6,78.2,88.2,78.2,87.7z"/>
		<path class="st5" d="M81.8,50.8c-0.3-0.3-0.3-0.6-0.3-0.9c-0.1-0.3,0.2-0.5,0.4-0.4c0.3,0.1,0.8,0,0.7,0.6
			C82.6,50.5,82.2,50.6,81.8,50.8z"/>
		<path class="st6" d="M82.2,83.1c-0.5,0.9-1.3,1.1-2.3,1c0-0.1,0-0.2,0-0.3c0.3,0,0.4-0.2,0.4-0.4C81.1,83.9,81.6,83.1,82.2,83.1z"
			/>
		<path class="st6" d="M80.5,75.5c0,0.2,0,0.4,0,0.6c-0.4,0-0.9,0-1.3,0c-0.3,0-0.5-0.1-0.5-0.5C79.2,75.5,79.9,75.5,80.5,75.5z"/>
		<path class="st5" d="M82.2,51.9c0.4-0.1,0.5,0.1,0.5,0.5c0,0.4-0.1,0.5-0.5,0.5c-0.5,0-0.4-0.3-0.5-0.6
			C81.6,51.8,81.9,51.9,82.2,51.9z"/>
		<path class="st6" d="M88.1,83.7c-0.1,0-0.2,0.1-0.2,0.1c-0.2-0.7-0.9-0.8-1.4-1.1c0.2,0,0.3-0.1,0.3-0.3
			C87.7,82.4,88,83,88.1,83.7z"/>
		<path class="st6" d="M88.4,80.4c0.1-0.1,0.1-0.1,0.2-0.2c0.3,0.3,0.7,0.7,1,1c-0.1,0-0.3,0-0.3,0.2C88.7,81.3,88.5,80.9,88.4,80.4
			z"/>
		<path class="st6" d="M87.3,93.8c0.2-0.1,0.4-0.1,0.6-0.2c0,0.3-0.1,0.6-0.1,0.9c-0.3,0-0.5,0.1-0.4,0.4
			C86.9,94.6,86.8,94.2,87.3,93.8z"/>
		<path class="st1" d="M80.3,83.4c0,0.3-0.1,0.4-0.4,0.4c0-0.4-0.3-0.7-0.5-1c0.3-0.2,0.5,0,0.7,0.1C80.3,83.1,80.3,83.3,80.3,83.4z
			"/>
		<path class="st1" d="M56.7,53.2c0.7,0.1,1.1,0.6,1.3,1.2C57.5,54.1,57.1,53.7,56.7,53.2z"/>
		<path class="st6" d="M50.3,97.5c1.1-0.2,2.3-0.2,3.4,0C52.6,97.5,51.4,97.6,50.3,97.5z"/>
		<path class="st6" d="M28.7,68c-0.1,0-0.3,0-0.4,0c0-0.2-0.1-0.4,0.1-0.6c0.2,0,0.3,0,0.5,0C28.9,67.7,28.8,67.8,28.7,68z"/>
		<path class="st2" d="M87,44.7c-0.4,0-0.9,0-1.3,0C86.1,44.5,86.5,44.5,87,44.7z"/>
		<path class="st2" d="M67.9,96.9c0.3-0.1,0.5-0.1,0.8-0.1C68.4,97,68.1,97,67.9,96.9z"/>
		<path class="st2" d="M65.5,96.9c0.3-0.2,0.5-0.1,0.8-0.1C66.1,97,65.8,96.9,65.5,96.9z"/>
		<path class="st6" d="M68.8,56.3c0.2-0.2,0.5-0.2,0.7,0C69.3,56.3,69.1,56.3,68.8,56.3z"/>
		<path class="st2" d="M85.2,44.7c-0.2,0-0.5,0-0.7,0C84.8,44.5,85,44.5,85.2,44.7z"/>
		<path class="st6" d="M71.4,57.8c-0.2-0.1-0.1-0.3-0.1-0.4C71.8,57.4,71.5,57.6,71.4,57.8z"/>
		<path class="st6" d="M70,56.3c0.2-0.1,0.4-0.1,0.6,0C70.4,56.3,70.2,56.3,70,56.3z"/>
		<path class="st2" d="M70.5,27.1C70.6,27,70.8,27,71,27C70.8,27.2,70.6,27.1,70.5,27.1z"/>
		<path class="st2" d="M83,75.4c-0.1,0.1-0.3,0.1-0.4,0.1C82.6,75.3,82.8,75.4,83,75.4z"/>
		<path class="st1" d="M79.3,49.3c0-0.1,0.1-0.2,0.2-0.2C79.5,49.1,79.4,49.2,79.3,49.3z"/>
		<path class="st2" d="M83.7,75.4c-0.1,0.1-0.2,0.1-0.3,0C83.5,75.4,83.6,75.4,83.7,75.4z"/>
		<path class="st2" d="M57.5,42.1c0.1-0.1,0.2-0.1,0.3,0C57.7,42.1,57.6,42.1,57.5,42.1z"/>
		<path class="st2" d="M55.8,42.1C55.8,42,55.9,42,56,42C55.9,42.1,55.9,42.1,55.8,42.1z"/>
		<path class="st2" d="M56.9,42c0.1,0,0.2,0,0.3,0C57.1,42.1,57,42.1,56.9,42z"/>
		<path class="st2" d="M56.3,42c0.1,0,0.2,0,0.3,0C56.5,42.1,56.4,42.1,56.3,42z"/>
		<path class="st2" d="M77,75.6c-0.1,0-0.1,0-0.2,0.1C76.9,75.6,77,75.6,77,75.6z"/>
		<path class="st1" d="M56.6,53.1c0.1,0,0.1,0.1,0.2,0.1C56.7,53.2,56.6,53.1,56.6,53.1z"/>
		<path class="st6" d="M80.3,80.3c0,0-0.1,0.1-0.1,0.1C80.2,80.3,80.3,80.3,80.3,80.3z"/>
		<path class="st2" d="M67.3,96.9c0,0,0.1,0,0.1,0C67.4,96.9,67.3,96.9,67.3,96.9L67.3,96.9z"/>
		<path class="st2" d="M64.4,97c0.1,0,0.1,0,0.2,0C64.5,97,64.4,97,64.4,97z"/>
		<path class="st6" d="M68.4,56.3c0-0.1,0.1-0.1,0.1,0C68.5,56.3,68.5,56.4,68.4,56.3L68.4,56.3z"/>
		<path class="st6" d="M54.2,97.5c0.1,0,0.1-0.1,0.2-0.1C54.3,97.4,54.2,97.4,54.2,97.5z"/>
		<path class="st6" d="M54,98.4c0,0.1-0.1,0.1-0.1,0C53.9,98.4,54,98.4,54,98.4z"/>
		<path class="st3" d="M78.5,55.8c0.5,0,0.8,0.3,1.3,0.4c1.3,0.7,2.7,0.8,4.1,0.5c0.9-0.2,1.1-0.1,1,0.7c-1,0.4-2.1,0.1-3.1,0.3
			c1,1.2,2.3,2.2,2.9,3.7c0,0.2-0.1,0.4-0.3,0.5c-0.3,0-0.4-0.3-0.5-0.4c-1.4-1.9-2.8-3.9-5.2-4.8c-0.2-0.1-0.3-0.2-0.5-0.3
			C77.9,56,78,55.8,78.5,55.8z"/>
		<path class="st3" d="M52.3,61.7c-0.6,0.3-1.2,0.1-1.8,0.1c-1.5,0-2.9,0.3-3.8,1.7c-0.1,0.2-0.3,0.3-0.5,0.3
			c-0.6-0.2-0.1-0.6-0.1-0.9c0.5-0.3,0.8-0.8,1.3-1.1c0.8-0.6,1.8-0.7,2.7-0.9c0.7,0,1.3,0,2,0C52.4,61.2,52.6,61.4,52.3,61.7z"/>
		<path class="st1" d="M78.2,56.3c0.2,0.1,0.3,0.3,0.5,0.3c2.4,0.9,3.7,2.9,5.2,4.8c0.1,0.2,0.2,0.4,0.5,0.4c-0.2,0.4-0.4,0.2-0.6,0
			c-0.7-0.7-1.4-1.4-2-2.2c-0.7-0.9-1.6-1.6-2.6-2.2c-0.3-0.2-0.5-0.3-0.8-0.5C78.1,56.8,77.9,56.6,78.2,56.3z"/>
		<path class="st1" d="M84.7,61.4c-0.6-1.5-1.9-2.5-2.9-3.7c1-0.1,2.1,0.1,3.1-0.3c0,0.1,0,0.2,0,0.4c-0.2,0.4-0.7,0.4-1.1,0.4
			c-0.4,0-0.5,0-0.3,0.5c0.4,0.7,0.9,1.2,1.3,1.8C85,60.8,85.4,61.3,84.7,61.4z"/>
		<path class="st3" d="M51.4,58.5c0,0.2,0,0.4,0,0.5c-0.1,0.1-0.2,0.1-0.3,0.2c-0.9,0.2-1.9-0.1-2.7,0.6c-0.7-0.2-0.7-0.3-0.3-0.9
			c0.4-0.3,0.9-0.3,1.4-0.4C50.2,58.4,50.8,58.2,51.4,58.5z"/>
		<path class="st6" d="M51.1,59.3c0.1-0.1,0.2-0.1,0.3-0.2c0.2,0.6,0.6,1.2,0.7,1.9c-0.7,0-1.3,0-2,0c-0.1-0.2-0.2-0.3-0.4-0.4
			c0-0.2,0-0.4,0-0.6C50.3,59.9,51,60.1,51.1,59.3z"/>
		<path class="st1" d="M49.7,60.5c0.2,0.1,0.3,0.2,0.4,0.4c-0.9,0.2-1.9,0.3-2.7,0.9c-0.5,0.3-0.8,0.8-1.3,1.1
			c-0.2-0.2-0.2-0.4-0.1-0.6C47.1,61.5,48.2,60.6,49.7,60.5z"/>
		<path class="st1" d="M51.4,58.5c-0.6-0.3-1.2-0.2-1.9,0c-0.5,0.1-1,0.2-1.4,0.4c-0.3,0-0.3-0.1-0.2-0.4c0.2-0.3,0.6-0.3,0.9-0.4
			c0.6-0.2,1.3-0.5,2-0.3C51.3,57.9,51.4,58.1,51.4,58.5z"/>
		<path class="st1" d="M51.1,59.3c-0.2,0.8-0.9,0.6-1.4,0.7c-0.3,0.1-0.5,0.2-0.8,0.2c-0.3,0.1-0.5,0-0.5-0.4
			C49.2,59.2,50.2,59.5,51.1,59.3z"/>
		<path class="st6" d="M62.9,96.5c-1.2,0-2.3,0-3.5,0c0-0.2,0.1-0.3,0.3-0.3c0.9,0,1.8,0,2.8,0C62.8,96.2,62.9,96.3,62.9,96.5z"/>
		<path class="st6" d="M64.2,96.4c-0.3,0.3-0.7,0.1-1,0.1C63.5,96,63.9,96.2,64.2,96.4z"/>
		<path class="st6" d="M28.6,68.6c-0.2-0.2,0-0.3,0.1-0.3C28.7,68.4,28.7,68.5,28.6,68.6z"/>
		<path class="st6" d="M94.9,95.2c-0.4,1-0.8,1.2-1.4,1C93.9,95.9,94.2,95.3,94.9,95.2z"/>
		<path class="st6" d="M76.9,46.4c-0.7-0.5-1-1.3-1.7-1.9c-0.1-0.1,0-0.3,0-0.4C76.1,44.6,76.7,45.4,76.9,46.4z"/>
		<path class="st6" d="M75.2,43.8c0-1.1-0.6-1.9-1-2.9c0.1,0,0.2,0,0.2,0c0.5,0.3,1.2,2.1,1.1,2.7C75.4,43.8,75.3,43.8,75.2,43.8z"
			/>
		<path class="st6" d="M89.7,75.9c-0.1,0.5-0.5,0.9-0.9,1.3c-0.7,0.7-0.7,0.7-1.3-0.1c-0.2-0.3-0.4-0.5-0.8-0.5
			c-0.1,0-0.3,0-0.2-0.2c0-0.1,0.1-0.2,0.2-0.2c0.9,0,1.7-0.5,2.4-0.9C89.7,75.1,89.7,75.4,89.7,75.9z"/>
		<path class="st4" d="M62.1,46.7c-0.7,0-1.3,0-2,0c-1.2-0.1-2.4,0.1-3.5,0.5c-0.9,0.3-1.9,0-2.8,0.3c-0.3,0.1-0.3-0.1-0.2-0.3
			c0.1-0.3,0.4-0.4,0.7-0.5c1.1-0.5,2.2-1,3.5-1.1c0.6,0,1.3-0.1,1.9-0.3c2.1-0.5,4.3-0.5,6.2,0.6c0.2,0.1,0.7,0.3,0.5,0.7
			c-0.1,0.4-0.5,0.2-0.8,0.2C64.4,46.7,63.3,46.7,62.1,46.7z"/>
		<path class="st4" d="M77.6,84.7c-0.4,0-0.6-0.1-0.6-0.5c0-0.4,0.2-0.6,0.6-0.6c0.5,0,0.5,0.5,0.6,0.8
			C78.2,84.8,77.9,84.7,77.6,84.7z"/>
		<path class="st4" d="M74,46.7c-0.2-0.5-0.5-0.8-1-1c-0.9-0.3-1.2-1.2-1.8-1.8c-0.2-0.2,0-0.4,0.2-0.4c0.3,0,0.5,0.2,0.7,0.3
			c1,1.1,2.2,2,3,3.3c0.1,0.2,0.3,0.4,0.1,0.6c-0.2,0.2-0.4-0.1-0.5-0.2C74.5,47.3,74.3,47,74,46.7z"/>
		<path class="st4" d="M78.8,34.6c-0.4-0.2-0.8-0.3-1.2-0.5c-0.4-0.2-0.8-0.1-1.1,0.2c-1.6,0.2-3.2,0.2-4.7,0.8
			c-1.3,0.5-2.4,0-3.4-0.8c-0.6-0.5-1.1-1.1-1.1-1.9c0-0.3-0.1-0.6-0.3-0.8c-0.4-0.4-0.2-0.6,0.2-0.9c1.1-0.8,2.1-1.7,3.3-2.3
			c0.6,0.1,1.3-0.2,1.9-0.2c1.1,0,2.2,0.1,3.3,0.3c0.5,0.4,1.2,0.5,1.8,0.8c1.6,0.7,2.6,2,3.6,3.3c0.4,0.6,0.7,1.2,1.1,1.8
			c0.1,0.2,0.3,0.5,0.2,0.7c-0.2,0.2-0.5,0.1-0.7,0.1c-0.6-0.1-1.2-0.3-1.8-0.5C79.4,34.6,79.1,34.7,78.8,34.6z"/>
		<path class="st6" d="M81.7,86.2c-0.3,0.8-0.9,1.4-1.4,1.4c-0.2,0-0.4,0-0.4-0.2c0-0.2,0.1-0.3,0.2-0.4
			C80.6,86.7,81.1,86.3,81.7,86.2z"/>
	</g>
</g>
</svg>
