<?xml version="1.0" encoding="utf-8"?>
<!-- Generator: Adobe Illustrator 25.4.1, SVG Export Plug-In . SVG Version: 6.00 Build 0)  -->
<svg version="1.1" id="Layer_1" xmlns="http://www.w3.org/2000/svg" xmlns:xlink="http://www.w3.org/1999/xlink" x="0px" y="0px"
	 width="128px" height="128px" viewBox="0 0 128 128" style="enable-background:new 0 0 128 128;" xml:space="preserve">
<style type="text/css">
	.st0{fill:#FFFFFF;}
</style>
<circle cx="64" cy="64" r="63.5"/>
<g id="BkJ6OL.tif">
	<g>
		<path class="st0" d="M20.7,63.4c0-3.9,0-7.9,0-11.8c0-2.4-0.4-2.9-2.8-3.4c-0.6-0.1-1.1-0.3-1.7-0.5c-0.2-0.1-0.4-0.4-0.4-0.7
			c0-0.1,0.3-0.4,0.5-0.4c0.4-0.1,0.8-0.1,1.1-0.1c4,0,7.9,0,11.9,0c0.4,0,0.8,0,1.1,0.1c0.2,0.1,0.6,0.3,0.6,0.5
			c0,0.2-0.2,0.6-0.4,0.7c-0.8,0.3-1.6,0.5-2.4,0.7c-3.6,0.9-3.4,1.2-3.4,4.2c0,7.5,0,15.1,0,22.6c0,0.4,0,0.7,0,1.1
			c0.1,1.6,0.8,2.5,2.4,2.6c3.1,0.1,6.1,0.2,9.2,0c2.3-0.2,3.9-1.7,5-3.7c0.4-0.7,0.6-1.4,1.1-2.1c0.2-0.3,0.6-0.5,0.9-0.7
			c0.1,0.4,0.4,0.8,0.4,1.2c-0.2,1.1-0.6,2.2-0.8,3.3c-0.2,0.9-0.4,1.9-0.5,2.9c-0.2,1.3-0.2,1.4-1.5,1.4
			c-6.7-0.1-13.4-0.2-20.1-0.2c-1.3,0-2.6,0.1-3.9,0.2c-0.2,0-0.5,0.1-0.7,0c-0.4-0.2-0.8-0.4-1.3-0.6c0.4-0.3,0.7-0.7,1.1-0.8
			c0.6-0.2,1.2-0.3,1.8-0.5c1.9-0.7,2.5-1.6,2.5-3.7C20.7,71.4,20.7,67.4,20.7,63.4z"/>
		<path class="st0" d="M68.7,69.7c-0.1,7-5.1,12-12,11.8c-6.1-0.1-10.5-4.7-10.4-10.8C46.5,64.5,52,59,58,59
			C64,59.1,68.8,63.9,68.7,69.7z M50.6,69.3c0.1,3.4,1,6.5,3.5,9c2.5,2.6,8.7,2.2,9.8-2.6c0.2-1,0.4-2,0.5-3c0.3-3.7-0.3-7.1-2.9-10
			c-1.6-1.8-3.7-2.3-6-1.8c-2.2,0.4-3.5,1.9-4.1,4C51,66.3,50.9,67.8,50.6,69.3z"/>
		<path class="st0" d="M94.7,69.7c-0.1,7-5,12-11.9,11.9c-6-0.1-10.4-4.7-10.4-10.8C72.4,64.6,78,59,83.9,59
			C89.9,59.1,94.8,63.9,94.7,69.7z M76.7,68.9c0,3.9,0.9,7,3.4,9.5c2.5,2.5,8.6,2.1,9.7-2.7c0.2-1,0.4-2,0.5-3.1
			c0.3-3.7-0.4-7.1-2.9-9.9c-1.7-1.9-3.8-2.4-6.2-1.8c-2.3,0.5-3.5,2.2-4,4.4C76.9,66.6,76.8,68,76.7,68.9z"/>
		<path class="st0" d="M112.6,77.7c-0.1,0.4-0.1,0.9-0.4,1.1c-2.1,2.1-4.5,3.2-7.5,2.5c-2.2-0.6-3.6-2.4-3.7-5
			c-0.1-4.1,0-8.1-0.1-12.2c0-1.6,0-1.6-1.6-1.8c-0.4-0.1-0.9-0.4-1-0.7c-0.1-0.3,0.2-0.8,0.4-1c1.5-1.5,3.1-2.9,4.7-4.3
			c0.3-0.2,0.7-0.2,1.1-0.4c0.1,0.3,0.2,0.6,0.2,0.9c0,0.6-0.1,1.2-0.2,1.7c-0.1,0.9,0.4,1.1,1.2,1.1c1.7,0,3.5,0,5.2,0
			c1.1,0,1.4,0.3,1.4,1.3c0,1-0.3,1.3-1.3,1.3c-1.7,0-3.5,0.1-5.2,0.1c-0.8,0-1.2,0.4-1.2,1.2c0,3.8-0.1,7.7,0.1,11.5
			c0.1,2.5,1.7,3.8,4.2,3.5C110.2,78.4,111.3,78,112.6,77.7z"/>
		<path d="M50.6,69.3c0.2-1.5,0.3-3,0.8-4.5c0.6-2,1.9-3.5,4.1-4c2.3-0.5,4.4,0,6,1.8c2.5,2.9,3.2,6.3,2.9,10c-0.1,1-0.2,2-0.5,3
			c-1.1,4.8-7.3,5.2-9.8,2.6C51.6,75.8,50.7,72.7,50.6,69.3z"/>
		<path d="M76.7,68.9c0.1-0.9,0.2-2.3,0.5-3.6c0.5-2.2,1.7-3.8,4-4.4c2.4-0.6,4.5-0.1,6.2,1.8c2.5,2.8,3.2,6.2,2.9,9.9
			c-0.1,1-0.2,2.1-0.5,3.1c-1.1,4.8-7.2,5.2-9.7,2.7C77.6,75.8,76.7,72.8,76.7,68.9z"/>
	</g>
</g>
</svg>
