<svg width="100" height="100" viewBox="0 0 100 100" fill="none" xmlns="http://www.w3.org/2000/svg">
<mask id="mask0_10281_22201" style="mask-type:alpha" maskUnits="userSpaceOnUse" x="0" y="0" width="100" height="100">
<circle cx="50" cy="50" r="50" fill="#C4C4C4"/>
</mask>
<g mask="url(#mask0_10281_22201)">
<circle cx="50" cy="50" r="50" fill="#EEF4F4"/>
<path d="M32.283 37.3464C33.0023 33.0094 34.5062 27.2924 36.2062 24.4667C37.187 22.8896 38.6255 21.5754 40.3256 20.3926C44.3141 17.6326 49.872 17.1727 53.5336 19.4726C57.4568 21.904 57.7184 24.9267 59.353 27.5552C75.242 24.861 81.6498 37.675 82.4999 38.9892C80.7998 40.1063 79.2959 41.1577 78.5767 41.4206C65.0417 46.1519 30.5176 47.9918 32.283 37.3464Z" fill="#ECDDE0"/>
<path d="M36.9908 39.8433C36.9908 39.8433 32.3483 27.8836 40.914 21.4438C57.326 15.5954 55.4298 35.112 55.4298 35.112C55.4298 35.112 66.7416 27.3579 74.3265 33.8635C81.9113 40.369 78.2496 47.0717 78.2496 47.0717C78.2496 47.0717 76.4842 51.2773 72.888 52.4601C75.0457 53.5115 83.0882 62.1198 77.5304 70.8596C66.0224 85.0535 55.1682 70.2682 55.1682 70.2682C55.1682 70.2682 46.4064 86.2363 35.7484 80.9136C22.8019 74.4738 31.3675 61.6599 31.3675 61.6599C31.3675 61.6599 19.4672 60.3456 18.5518 51.7373C16.0017 28.2122 36.9908 39.8433 36.9908 39.8433Z" fill="#825F76"/>
<path d="M72.2998 51.5404C75.9614 50.3575 77.6615 46.1519 77.6615 46.1519C77.6615 46.1519 81.3231 39.4493 73.7383 32.9437C66.1534 26.4382 55.757 33.798 55.757 33.798C55.757 33.798 56.4109 13.69 40.3912 20.5241C33.4602 23.4811 36.468 38.9236 36.468 38.9236C36.468 38.9236 15.2174 27.8839 17.7021 51.4746C18.6175 60.083 30.7794 60.7401 30.7794 60.7401C30.7794 60.7401 22.2137 73.554 35.1603 79.9939C45.8836 85.3166 54.58 69.3484 54.58 69.3484C54.58 69.3484 65.4996 84.068 76.9422 69.9399C82.5001 61.2001 74.5229 52.5918 72.2998 51.5404Z" fill="#DC8898"/>
<path d="M47.3223 60.5428C52.1613 60.5428 56.0841 56.6005 56.0841 51.7374C56.0841 46.8742 52.1613 42.9319 47.3223 42.9319C42.4833 42.9319 38.5605 46.8742 38.5605 51.7374C38.5605 56.6005 42.4833 60.5428 47.3223 60.5428Z" fill="#8D714C"/>
<path d="M37.318 48.7146C36.2718 47.7946 34.8987 47.4004 33.5909 46.9404C32.1524 46.4804 30.6486 46.0204 29.1447 45.8233C26.66 45.5604 23.8484 46.1518 22.1483 48.1232C21.6906 48.6489 22.4752 49.5032 22.933 48.9118C24.4368 47.1375 26.9215 46.6775 29.1447 46.9404C30.4524 47.0718 31.7601 47.4661 33.0679 47.9261C34.2448 48.3203 35.5525 48.6489 36.5333 49.5032C37.0564 49.9632 37.8411 49.1746 37.318 48.7146Z" fill="#C57180"/>
<path d="M46.604 32.9436C46.4079 31.6294 46.081 30.3151 45.6232 29.0666C45.1655 27.818 44.5117 26.6352 44.1847 25.321C44.054 24.5981 42.9424 24.9267 43.0732 25.6495C43.3347 26.8981 43.9886 28.0152 44.4463 29.2637C44.904 30.5123 45.2309 31.8265 45.4271 33.1408C45.8848 35.7692 45.8848 38.4635 45.8848 41.092C45.8848 41.8148 46.9964 41.8148 46.9964 41.092C47.0617 38.332 46.9964 35.6378 46.604 32.9436Z" fill="#C57180"/>
<path d="M69.0301 37.3464C65.8261 37.6092 62.6876 38.5949 59.8106 40.172C57.3259 41.552 54.972 43.5234 54.0566 46.2833C53.8604 47.0061 54.9066 47.269 55.1681 46.6118C56.0182 44.0491 58.2413 42.3405 60.5298 41.092C63.1453 39.6463 66.0223 38.7263 69.0301 38.4635C69.7493 38.4635 69.7493 37.2807 69.0301 37.3464Z" fill="#C57180"/>
<path d="M41.8951 49.7003C40.1296 47.4003 38.8873 45.1004 38.3642 41.4862C38.2988 41.4205 38.2988 41.4862 38.2988 41.5519C38.2988 45.0347 39.8681 47.5975 41.6989 49.9631C41.7643 50.0945 41.8297 50.1602 41.9605 50.226L42.222 50.0288C42.1566 49.8974 42.0259 49.766 41.8951 49.7003Z" fill="#825F76"/>
<path d="M71.8418 65.997C67.3302 61.6599 61.9031 58.3086 56.0183 56.1401C55.3644 55.8772 55.0375 56.9943 55.6914 57.2572C61.38 59.36 66.6109 62.6456 70.9918 66.8512C71.5803 67.3112 72.3649 66.5227 71.8418 65.997Z" fill="#C57180"/>
<path d="M54.2531 46.152C52.6838 43.7863 50.003 42.2092 46.9952 42.2092C42.1566 42.2092 38.2334 46.152 38.2334 51.0147C38.2334 55.8774 42.1566 59.8202 46.9952 59.8202C51.8338 59.8202 55.757 55.8774 55.757 51.0147C55.757 49.4376 55.3647 47.9262 54.58 46.6777C54.4492 46.3491 54.3839 46.3491 54.2531 46.152Z" fill="#FBECB3"/>
<path d="M43.1372 61.003C42.0257 63.2372 40.7179 65.4714 39.214 67.5085C37.9063 69.2827 36.337 70.9913 34.2447 71.7798C33.5908 72.0427 33.8524 73.1598 34.5716 72.8969C36.7948 72.0427 38.4948 70.3341 39.9333 68.4942C41.5026 66.3257 42.8757 63.96 44.118 61.5944C44.445 60.9373 43.4642 60.3458 43.1372 61.003Z" fill="#C57180"/>
<path d="M54.3834 69.1512C52.6179 66.8513 51.3756 64.5513 50.8525 60.9371C50.7871 60.8714 50.7871 60.9371 50.7871 61.0028C50.7871 64.4856 52.3564 67.0484 54.1872 69.414C54.2526 69.5455 54.318 69.6112 54.4488 69.6769L54.6449 69.4798C54.6449 69.3483 54.5141 69.2826 54.3834 69.1512Z" fill="#825F76"/>
</g>
</svg>
