<?xml version="1.0" encoding="utf-8"?>
<!-- Generator: Adobe Illustrator 27.1.1, SVG Export Plug-In . SVG Version: 6.00 Build 0)  -->
<svg version="1.1" id="Layer_1" xmlns="http://www.w3.org/2000/svg" xmlns:xlink="http://www.w3.org/1999/xlink" x="0px" y="0px"
	 viewBox="0 0 128 128" style="enable-background:new 0 0 128 128;" xml:space="preserve">
<style type="text/css">
	.st0{fill-rule:evenodd;clip-rule:evenodd;fill:#F7F7F7;}
	.st1{fill-rule:evenodd;clip-rule:evenodd;fill:url(#SVGID_1_);}
</style>
<g id="楕円形_1_のコピー_8">
	<g>
		<circle class="st0" cx="64" cy="64" r="63.5"/>
	</g>
</g>
<linearGradient id="SVGID_1_" gradientUnits="userSpaceOnUse" x1="110.0154" y1="63.8898" x2="16.0589" y2="63.8898" gradientTransform="matrix(1 0 0 -1 0 127.8898)">
	<stop  offset="0" style="stop-color:#3568DD"/>
	<stop  offset="1" style="stop-color:#3568DD;stop-opacity:0.66"/>
</linearGradient>
<path class="st1" d="M42.4,103.6c-0.5,0.3-1.2,0.2-1.5-0.3l-1.3-1.9c-0.3-0.5-0.2-1.2,0.3-1.6c4.3-3.4,7.8-7.1,10.6-11.2
	c10.3-15.1,10.3-34.1,0-49.2c-2.8-4.1-6.3-7.8-10.6-11.2c-0.5-0.4-0.6-1.1-0.3-1.6l1.3-1.9c0.3-0.5,1-0.6,1.5-0.3l57.8,35.3
	c3.2,2,3.2,6.7,0,8.6L42.4,103.6z"/>
</svg>
