<?xml version="1.0" encoding="UTF-8"?><svg id="Layer_1" xmlns="http://www.w3.org/2000/svg" viewBox="0 0 128 128"><defs><style>.cls-1{fill:#fff;}</style></defs><circle cx="64" cy="64" r="63.5"/><g id="ARKM"><path class="cls-1" d="m37.55,73.03c12.46,9.05,24.78,18,37.27,27.08-1.46,1.11-2.65,2.05-3.86,2.95-1.93,1.43-3.9,2.8-5.79,4.28-.78.61-1.3.49-2.03-.06-7.36-5.42-14.73-10.82-22.12-16.21-2.1-1.53-4.24-3.03-6.39-4.5-.9-.62-1.19-1.23-.79-2.37,1.28-3.62,2.43-7.28,3.7-11.17Z"/><path class="cls-1" d="m66.75,90.54c12.46-9.09,24.73-18.04,37.2-27.14.51,1.49.98,2.83,1.42,4.18.82,2.51,1.67,5.01,2.41,7.54.12.4-.13,1.16-.47,1.41-9.66,7.09-19.35,14.14-29.03,21.2-.63.46-1.08.47-1.73-.01-2.79-2.06-5.63-4.06-8.45-6.08-.39-.28-.76-.61-1.35-1.09Z"/><path class="cls-1" d="m30.95,83.91c-3.79-2.76-7.3-5.31-10.76-7.84,2.26-6.86,4.51-13.59,6.7-20.33,1.57-4.83,3.1-9.67,4.59-14.53.29-.93.69-1.32,1.73-1.3,3.84.07,7.68.03,11.9.03-4.75,14.75-9.43,29.27-14.16,43.96Z"/><path class="cls-1" d="m78.09,24.5c.67,0,1.19,0,1.71,0,3.52,0,7.03,0,10.55,0,.62,0,1.04.04,1.28.8,3.62,11.36,7.28,22.72,10.96,34.06.31.95.17,1.47-.68,2.05-2.56,1.75-5.04,3.61-7.56,5.41-.65.47-1.34.89-2.01,1.34-4.77-14.62-9.48-29.03-14.25-43.66Z"/><path class="cls-1" d="m78.75,36.87h-45.7c.44-1.46.84-2.84,1.28-4.2.76-2.36,1.59-4.69,2.32-7.06.23-.77.57-1.06,1.38-1.06,11.95,0,23.91-.02,35.86,0,.43,0,1.13.34,1.24.68,1.24,3.67,2.4,7.38,3.57,11.07.05.15.03.32.06.56Z"/><path class="cls-1" d="m74.94,80.98c-.86.61-1.46,1.04-2.05,1.47-2.61,1.89-5.22,3.77-7.82,5.68-.59.43-1.06.57-1.75.06-3.48-2.58-7-5.13-10.54-7.63-.8-.56-1.03-1.05-.69-2.03,1.15-3.35,2.17-6.75,3.25-10.13.1-.31.22-.61.46-1.27,6.38,4.62,12.63,9.15,19.14,13.86Z"/><path class="cls-1" d="m66.64,71.36c6.31-4.6,12.54-9.13,18.9-13.75.24.48.44.78.55,1.11,1.14,3.49,2.23,7,3.4,10.48.24.72.14,1.12-.47,1.56-3.68,2.6-7.33,5.25-11.01,7.84-.29.21-.93.33-1.16.16-3.36-2.39-6.68-4.84-10.19-7.4Z"/><path class="cls-1" d="m49.24,77.83c-.52-.35-.89-.59-1.25-.84-2.92-2.1-5.82-4.22-8.77-6.28-.64-.45-.71-.87-.48-1.56,1.41-4.19,2.78-8.38,4.15-12.58.19-.58.33-1.05,1.12-1.04,3.76.05,7.53.04,11.29.07.27,0,.55.09,1.05.17-2.38,7.37-4.72,14.64-7.12,22.06Z"/><path class="cls-1" d="m74.07,62.36c-2.41-7.51-4.77-14.84-7.15-22.28.42-.07.69-.16.95-.16,3.56,0,7.11.03,10.67,0,1.02,0,1.53.35,1.85,1.37,1.23,3.9,2.53,7.77,3.88,11.62.42,1.21.35,1.94-.87,2.74-3.12,2.07-6.1,4.37-9.33,6.71Z"/><path class="cls-1" d="m67.63,52.31h-23.28c1.27-3.96,2.48-7.81,3.77-11.62.11-.34.71-.72,1.09-.73,4.54-.04,9.09-.02,13.63.03.35,0,.89.35,1,.66,1.3,3.86,2.53,7.74,3.79,11.66Z"/></g></svg>