<?xml version="1.0" encoding="UTF-8"?><svg id="Layer_1" xmlns="http://www.w3.org/2000/svg" xmlns:xlink="http://www.w3.org/1999/xlink" viewBox="0 0 128 128"><defs><style>.cls-1{fill:url(#linear-gradient);}.cls-1,.cls-2,.cls-3,.cls-4{stroke-width:0px;}.cls-2{fill:url(#linear-gradient-2);}.cls-3{fill:url(#linear-gradient-3);}.cls-4{fill:#eee;}</style><linearGradient id="linear-gradient" x1="79.54" y1="-3527.8" x2="87.36" y2="-3484.11" gradientTransform="translate(0 -3454.05) scale(1 -1)" gradientUnits="userSpaceOnUse"><stop offset="0" stop-color="#f1b821"/><stop offset="1" stop-color="#a02022"/></linearGradient><linearGradient id="linear-gradient-2" x1="55.48" y1="-3494.75" x2="35.58" y2="-3530.92" xlink:href="#linear-gradient"/><linearGradient id="linear-gradient-3" x1="31.65" y1="-3529.43" x2="89.54" y2="-3551.13" xlink:href="#linear-gradient"/></defs><circle class="cls-4" cx="64" cy="64" r="63.5"/><g id="ATA-Clean_Logo"><path class="cls-1" d="m106.25,72.23c-.03-1.11-.13-2.21-.31-3.3-.24-1.51-.6-3.01-1.09-4.46-.16-.52-2.11-4.96-2.29-5.29-.29-.52-13.46-23.23-15.15-25.71-1-1.52-2.18-2.91-3.51-4.14-2.5-.58-5.07-.76-7.63-.54-2.07.16-4.11.6-6.06,1.3-2.41.86-4.67,2.09-6.7,3.66-1.78,1.48-3.4,3.15-4.82,4.98-.05.05-.08.12-.09.19-.02.07-.01.14,0,.21.65-.39,1.19-.94,1.87-1.29,1.6-.83,3.46-1.02,5.2-.56,1.74.47,3.25,1.57,4.22,3.08,1.52,2.46,18.98,31.32,19.66,32.74.12.16.19.35.21.54.34.5.59,1.05.76,1.63.49,1.19.86,2.42,1.12,3.67.38,1.83.54,3.7.49,5.56-.04,1.4-.19,2.8-.46,4.17-.15.75-.85,3.16-.9,3.33-.27.87-.61,1.71-1.01,2.52-.61,1.12-1.29,2.2-2.04,3.23-.45.75-.97,1.46-1.55,2.12-.76.87-1.59,1.67-2.5,2.37-.19.13-.41.23-.51.46.12-.01.25-.03.37-.05,2.39-.56,4.7-1.44,6.86-2.61,1.26-.62,2.44-1.38,3.53-2.26.13-.11,2.58-2.03,3.5-2.95,1.5-1.54,2.85-3.21,4.04-5,.64-.92,1.19-1.9,1.66-2.91.28-.58.54-1.16.81-1.75.05-.11.57-1.46.61-1.58,1.11-3.04,1.7-6.24,1.74-9.48,0-.15-.02-1.68-.02-1.9Z"/><path class="cls-2" d="m74.17,22.89c-2.64-1.07-5.42-1.75-8.25-2.02-1.95-.21-3.93-.22-5.88-.02-.13.01-1.77.2-2.18.27-.74.13-1.46.31-2.2.47-1.4.34-2.78.78-4.13,1.29-1.76.77-3.47,1.67-5.11,2.67-1.95,1.3-3.74,2.81-5.36,4.5-2.96,3.83-5.62,7.89-7.95,12.14-.25.43-2.79,4.76-2.97,5.07-2.19,3.73-4.39,7.45-6.55,11.2-.93,1.49-1.68,3.09-2.23,4.76.04.06.07.12.09.19.38,1.97.99,3.89,1.81,5.72,1.36,2.95,3.31,5.59,5.74,7.75,1.38,1.36,2.97,2.47,4.73,3.29.86.37,1.66.86,2.53,1.18,1.61.64,3.29,1.1,5,1.37.72.19,1.48.22,2.21.08-1.04-.22-2.01-.67-2.85-1.31-.84-.64-1.54-1.46-2.03-2.39-.5-.94-.78-1.97-.84-3.03-.05-1.06.12-2.12.52-3.1.48-1.34,18.97-32.18,20.19-33.77l.12-.09c-.02-.07-.01-.14,0-.2.02-.07.05-.13.09-.18,1.43-1.82,3.05-3.49,4.82-4.98,2.02-1.57,4.29-2.8,6.7-3.66,1.95-.7,3.99-1.14,6.06-1.3,2.56-.22,5.13-.03,7.63.54-2.77-2.79-6.08-4.98-9.72-6.43Z"/><path class="cls-3" d="m86.16,99.88c.58-.66,1.1-1.37,1.55-2.12.74-1.04,1.42-2.12,2.04-3.23.4-.81.74-1.66,1.01-2.52.05-.17.75-2.59.9-3.33.27-1.38.42-2.77.46-4.17.06-1.87-.1-3.74-.49-5.56-.26-1.26-.63-2.49-1.12-3.67-.17-.58-.43-1.13-.76-1.63-.13.15-.04.3,0,.45.2.96.21,1.95.02,2.91-.19.96-.56,1.88-1.11,2.69-.54.82-1.25,1.51-2.06,2.05-.82.54-1.73.91-2.7,1.09-.75.13-36.44.06-38.82.07-.54.02-1.07-.02-1.6-.11-.73.14-1.49.11-2.21-.08-1.71-.27-3.39-.73-5-1.37-.87-.32-1.68-.81-2.53-1.18-1.75-.82-3.35-1.93-4.73-3.29-2.43-2.16-4.38-4.8-5.74-7.75-.82-1.83-1.43-3.75-1.81-5.72-.02-.07-.05-.13-.09-.19-.28.57-.5,1.18-.66,1.8-.45,1.59-.77,3.21-.98,4.85-.25,1.68-.34,3.37-.26,5.06.06,1.84.33,3.67.8,5.45.03.12,1.17,3.83,1.27,4.1.34.93,1.49,3.2,1.55,3.32.24.47,2.3,3.69,2.4,3.79.4.39,1.89,2.24,2.31,2.7,1.11,1.21,2.33,2.31,3.66,3.29.6.45,2.43,1.64,2.56,1.72.72.4,1.44.79,2.16,1.18.65.36,1.39.53,2.05.86.76.34,1.55.63,2.34.88.06.02,2.9.71,3.04.74,1.07.22,2.15.36,3.23.44,1.97.19,25.13.13,29.83.11,2.18.01,4.35-.25,6.46-.79.1-.23.33-.33.51-.46.91-.71,1.75-1.5,2.5-2.37Z"/></g></svg>