<?xml version="1.0" encoding="utf-8"?>
<!-- Generator: Adobe Illustrator 24.3.0, SVG Export Plug-In . SVG Version: 6.00 Build 0)  -->
<svg version="1.1" id="Layer_1" xmlns="http://www.w3.org/2000/svg" xmlns:xlink="http://www.w3.org/1999/xlink" x="0px" y="0px"
	 viewBox="0 0 128 128" style="enable-background:new 0 0 128 128;" xml:space="preserve">
<style type="text/css">
	.st0{fill:#EFF4F4;}
	.st1{clip-path:url(#SVGID_2_);fill:#240B7D;}
	.st2{clip-path:url(#SVGID_2_);}
	.st3{fill:#801AC7;}
	.st4{clip-path:url(#SVGID_2_);fill:#6711BD;}
	.st5{clip-path:url(#SVGID_2_);fill:#AB21D4;}
	.st6{clip-path:url(#SVGID_2_);fill:#7A19C4;}
	.st7{clip-path:url(#SVGID_2_);fill:#801AC7;}
	.st8{clip-path:url(#SVGID_2_);fill:#290E8B;}
	.st9{clip-path:url(#SVGID_4_);fill:#240B7D;}
	.st10{clip-path:url(#SVGID_4_);fill:#E500DE;}
	.st11{clip-path:url(#SVGID_4_);fill:#D501D4;}
	.st12{clip-path:url(#SVGID_4_);}
	.st13{fill:#891BCB;}
	.st14{clip-path:url(#SVGID_4_);fill:#6711BD;}
	.st15{clip-path:url(#SVGID_4_);fill:#BF26D9;}
	.st16{clip-path:url(#SVGID_4_);fill:#7619C2;}
	.st17{clip-path:url(#SVGID_4_);fill:#801AC7;}
	.st18{clip-path:url(#SVGID_4_);fill:#290E8B;}
	.st19{clip-path:url(#SVGID_4_);fill:url(#SVGID_5_);}
</style>
<circle class="st0" cx="64" cy="64" r="63.5"/>
<g>
	<defs>
		<path id="SVGID_3_" d="M42.6,97H103c2.1,0,3.5-2.3,2.4-4.1l-44-75c-0.9-1.5-3.1-1.5-4,0L26.7,70c-1.3,2.3,0.3,5.1,2.9,5.1L46.3,75
			c0.1,0,0.2-0.1,0.3-0.2l11.5-19.6c0.6-1,2.1-1.1,2.8,0l11,18.4c1,1.7-0.2,3.8-2.2,3.9L49,77.6c-0.1,0-0.2,0.1-0.3,0.2L40,92.2
			C38.7,94.3,40.2,97,42.6,97L42.6,97z"/>
	</defs>
	<clipPath id="SVGID_2_">
		<use xlink:href="#SVGID_3_"  style="overflow:visible;"/>
	</clipPath>
	<path class="st1" d="M42.6,97h61c1.9,0,3-2,2.1-3.7l-44.5-76c-0.8-1.3-2.7-1.3-3.5,0L26.4,70.5c-1.2,2.1,0.3,4.6,2.7,4.6L46.5,75
		l11.6-19.7c0.6-1,2.1-1.1,2.8,0l11.3,18.9c0.9,1.5-0.2,3.3-1.9,3.4l-21.5,0.1l-9.2,15.1C38.5,94.6,39.9,97,42,97H42.6z"/>
	<path style="clip-path:url(#SVGID_2_);fill:#E500DE;" d="M39.2-9c25.1,0,83.6,18.8,83.6,44s-20.4,45.5-45.5,45.5"/>
	<path style="clip-path:url(#SVGID_2_);fill:#D501D4;" d="M31.8,35c0-25.1,20.4-45.5,45.5-45.5"/>
	<g class="st2">
		<path class="st13" d="M102.8,53.9c0.6,2.3,0.9,4.7,0.9,7.2c0,14.3-9.3,26-24.2,26c-8.1,0-15.2-4.2-19.6-10.7h-7.6
			c3.8,10,14.4,17.1,27,17.1c17.6,0,28.5-11.3,28.5-25.3C107.7,62.9,105.9,57.9,102.8,53.9z"/>
	</g>
	<path class="st4" d="M101.8,68.2c0,10.6-9.9,19.1-22.2,19.1c-12.3,0-22.2-8.6-22.2-19.1c0-2.8,0.7-5.5,2-7.9
		c-0.1,0.6-0.1,1.3-0.1,2c0,10.6,9.1,18.6,20.3,18.6s20.2-8.1,20.2-18.6c0-0.8,0-1.6-0.1-2.3C101.1,62.5,101.8,65.3,101.8,68.2z"/>
	<path style="clip-path:url(#SVGID_2_);fill:#BF26D9;" d="M50,30.5c0,0,9.3,13.5,12.3,19.3c2.9,5.6,9.6,25.6,17.4,25.5
		c8.3,1.1,12.8-4.5,12.8-4.5s-3.2-7-3.2-5.4c0.1,3.2-8.7,6.8-11.4,2.9c-9.7-19.8-6-31.1-21.9-47.9C53.9,19,50,30.5,50,30.5z"/>
	<path style="clip-path:url(#SVGID_2_);fill:#7619C2;" d="M44.8,39.2c0,0,9.1,9,11.3,14.9s3.4,29.2,27.1,26.6
		c8.9-1.7,11.6-5.9,11.6-5.9l-2.4-4c0,0-6.7,5.8-14.3,4.3c-9.6-4.4-12-24.5-28.3-44.6C47.9,29.1,44.8,39.2,44.8,39.2z"/>
	<path class="st7" d="M52.7,63.1c2.9,6.2-5.4,10.3-13.4,10.3S24.6,67.8,24.6,61s6.6-13.2,14.6-12.3C47.6,49.5,49.5,56.1,52.7,63.1z"
		/>
	<ellipse class="st8" cx="36.2" cy="75.7" rx="12.9" ry="12.3"/>
	
		<linearGradient id="SVGID_4_" gradientUnits="userSpaceOnUse" x1="95.7438" y1="90.0048" x2="95.7438" y2="5.8358" gradientTransform="matrix(0.8512 -0.5249 0.4405 0.7143 -6.4624 76.31)">
		<stop  offset="0" style="stop-color:#FFFFFF;stop-opacity:0.3"/>
		<stop  offset="0.6566" style="stop-color:#FFFFFF;stop-opacity:0"/>
	</linearGradient>
	<polygon style="clip-path:url(#SVGID_2_);fill:url(#SVGID_4_);" points="127.1,82.7 102.3,98 65.2,37.9 90,22.6 	"/>
</g>
</svg>
