<?xml version="1.0" encoding="utf-8"?>
<!-- Generator: Adobe Illustrator 24.3.0, SVG Export Plug-In . SVG Version: 6.00 Build 0)  -->
<svg version="1.1" id="Layer_1" xmlns="http://www.w3.org/2000/svg" xmlns:xlink="http://www.w3.org/1999/xlink" x="0px" y="0px"
	 width="1080px" height="1080px" viewBox="0 0 1080 1080" style="enable-background:new 0 0 1080 1080;" xml:space="preserve">
<style type="text/css">
	.st0{fill:#EEF4F4;}
	.st1{fill:#00CEAA;}
	.st2{fill:#00B2FA;}
	.st3{fill:#FFFFFF;}
</style>
<g>
	<circle class="st0" cx="540" cy="540" r="540"/>
	<g>
		<path class="st1" d="M555.6,657.7H347.4c-47.3,0-85.6-38.3-85.6-85.6V316.8c0-47.3,38.3-85.6,85.6-85.6H508
			c130.9,0,237,106.1,237,237v0C745.1,572.9,660.2,657.7,555.6,657.7z"/>
		<path class="st2" d="M663,883.2H454.9c-47.3,0-85.6-38.3-85.6-85.6V542.2c0-47.3,38.3-85.6,85.6-85.6h160.6
			c130.9,0,237,106.1,237,237v0C852.5,798.3,767.6,883.2,663,883.2z"/>
		<path class="st3" d="M555.6,657.7c95.9,0,175.1-71.2,187.7-163.7c-36.9-23.7-80.8-37.4-127.9-37.4H454.9
			c-47.3,0-85.6,38.3-85.6,85.6v115.5H555.6z"/>
	</g>
</g>
</svg>
