<?xml version="1.0" encoding="UTF-8"?><svg id="Layer_1" xmlns="http://www.w3.org/2000/svg" viewBox="0 0 128 128"><defs><style>.cls-1{fill:#bdbdbd;}.cls-1,.cls-2,.cls-3{stroke-width:0px;}.cls-2{fill:#8b8b8b;}.cls-3{fill:#eee;}</style></defs><circle class="cls-3" cx="64" cy="64" r="63.5"/><g id="BIGTIME"><path class="cls-2" d="m29.23,57.6c-2.6,0-5.18.01-7.76-.02-.26,0-.51-.28-.91-.51-.07-3.19,1.62-5.99,2.22-9.14-1.62-1.27-2.62-3.14-4.13-4.81-.09-2.87,2.45-4.62,3.08-7.1,2.76-.76,5.08.83,7.74.66,1.78-2.51,4.14-4.59,6.43-6.39.4-1.91-.18-3.42-.54-4.94-.48-2.09-.27-2.61,1.49-3.7,1.6-.99,3.27-1.86,5.08-2.69,2.27,1,3.63,3.3,5.96,4.46,2.33-1.26,5.02-1.64,7.65-2.19,1.02-.21,1.53-.69,1.92-1.63.69-1.66.94-3.48,2.04-5.2,2.58-.86,5.31-.61,8.16,0,.9,2.09,1.7,4.24,2.34,6.53,3.2.65,6.38,1.14,9.29,2.54,2.07-1.47,3.71-3.39,5.9-4.58,2.44,1.37,5.09,2.2,6.82,4.43-.43,2.12-.85,4.17-1.29,6.35,1.88,2.5,4.77,4.19,6.49,6.98,2.71.39,5.17-1.36,8.05-.7,1.07,2.3,2.63,4.49,3.41,7-1.72,1.72-3.09,3.32-4.43,5.16.83,3.14,1.69,6.37,2.56,9.65,2.34.55,4.55,1.21,6.58,2.43v7.86c-1.73.77-3.44,1.48-5.25,1.9-1.05.25-1.77.83-1.93,1.93-.34,2.31-.82,4.57-1.8,6.72-.18.39-.09.9-.13,1.41,1,1.2,2,2.42,3.03,3.61,1.39,1.61,1.38,1.9.29,3.94-.88,1.65-1.44,3.5-2.94,4.6-1.37.4-2.53-.09-3.68-.38-1.19-.3-2.35-.48-3.67-.4-1.84,2.33-4,4.42-6.09,6.45-.6,2.53.74,4.86.29,7.54-1.66,1.58-3.9,2.62-6.16,3.77-2.19-.81-3.45-2.88-5.71-4.1-.66-.11-1.56.03-2.54.36-1.77.6-3.6,1.06-5.43,1.4-1.12.21-1.68.71-2.04,1.79-.59,1.77-1.37,3.48-2.15,5.41-2.28.25-4.61.05-6.95.13-2.69-1.59-2.15-4.86-3.83-7.16-3.13-.17-6.15-1.69-9.29-2.03-1.58,1.24-3.04,2.31-4.24,3.57-1.24.45-2.31.18-3.33-.4-1.11-.64-2.26-1.22-3.31-1.94-1.07-.73-1.55-1.67-1.16-3.11.41-1.5.61-3.07,1.08-4.64-2.3-2.39-5.05-4.3-6.95-7.06-2.57-.17-4.88,1.47-7.68.68-.83-2.32-3.05-4.19-3.21-7.08,1.42-1.65,2.79-3.23,4.23-4.91-.96-2.9-2.08-5.83-2.29-9.2,3.03-.94,6.02-.27,8.83-.46,1.12,1.37,1.12,2.87,1.56,4.2,2.76,8.31,8.02,14.55,15.47,19.06,3.72,2.25,7.74,3.48,12.02,4.16,7.17,1.14,13.93-.05,20.36-3.27,3.17-1.59,5.93-3.74,8.52-6.21,2.49-2.37,4.5-5.03,6.14-7.99,3.18-5.75,4.54-11.93,4.09-18.49-.49-7.18-2.97-13.58-7.45-19.23-3.14-3.96-7.07-6.92-11.5-9.22-3.21-1.67-6.68-2.57-10.25-3.16-3.93-.64-7.74-.35-11.66.33-6.72,1.18-12.29,4.44-17.11,8.98-2.99,2.83-5.47,6.17-6.99,10.15-.8,2.1-1.97,4.05-2.13,6.36-.05.78-.67,1.14-1.21,1.52Zm58.31-26.21c-.28-2.54.97-4.88.27-7.35-.61-.75-1.6-.92-2.45-1.41-1.62,1.65-3.22,3.21-5.21,4.52-3.85-1.95-8.22-2.25-12.29-3.41-1.43-2.18-1.24-5.12-3.53-6.67-.83.09-1.6-.17-2.39.25-1.37,1.95-1.35,4.6-2.75,6.42-4.17.78-8.12,1.49-11.81,3.34-2.25-.77-3.28-3.28-5.73-4.07-.9.45-2.25.37-2.87,1.67-.52,2.34,1.34,4.44.7,6.91-3.53,2.11-5.61,5.88-8.76,8.19-2.46.55-4.63-.88-7.14-.15-.16.73-.89,1.31-1.23,2.04.29,1.31.81,2.4,1.87,3.07,1.07.68,1.66,1.67,2.14,2.83-.37,1.09-.89,2.18-1.1,3.34-.2,1.12-1.03,2.19-.51,3.49h2.4c.86-1.86,1.59-3.84,2.33-5.76,1.12-2.9,2.8-5.42,4.66-7.78,3.2-4.07,7.12-7.41,11.8-9.68,1.13-.55,1.96-1.55,3.26-1.83,1.59-.34,3.13-.86,4.69-1.32,1.87-.55,3.85-.61,5.7-1.03,3.82-.87,7.48.64,11.21.22.12-.01.26.17.4.2,1.98.39,3.75,1.53,5.7,1.88,2.02.37,3.64,1.52,5.26,2.46,2.85,1.63,5.44,3.71,7.76,6.13,1.34,1.4,2.58,2.87,3.81,4.36,1.4,1.68,2.54,3.52,3.3,5.57.35.92.71,1.83,1.27,2.61.38.53.42,1.09.62,1.63,1.3,3.48,1.22,7.18,1.73,10.78.55,3.91-.2,7.81-1.38,11.52-1.07,3.36-2.53,6.58-4.36,9.68-1.69,2.85-3.87,5.26-6.13,7.44-2.87,2.76-6.27,5.07-9.96,6.82-.83.4-1.73.33-2.55.79-3.14,1.75-6.71,1.84-10.16,2.32-3.01.42-6.06,0-9-.52-3.47-.6-6.92-1.56-10.11-3.24-5.06-2.66-9.44-6.05-12.97-10.61-2.75-3.55-5.34-8.71-6.46-12.83-.05-.2-.27-.36-.47-.61-.81.18-1.64-.23-2.47.3-.27,2.6,1.79,4.69,1.76,7.22-1.61,1.6-3.1,3.17-4.24,5.16.92,1.09,1.26,2.66,2.73,2.77,2.07-.58,3.86-1.09,6.06-.7,2.5,3,5.55,5.77,8.49,8.39.77,2.46-.83,4.6-.66,6.97,1.21.46,1.94,1.91,3.44,1.26,1.59-1.57,3.37-2.79,5.2-4,.97.73,2.08,1.03,3.13,1.34,2.49.72,5.02,1.27,7.54,1.88,1.64.4,1.72.58,2.07,2.14.37,1.65.9,3.28,2.03,4.74,1-.14,1.97.14,3.01-.23.82-2.18,1.64-4.37,2.44-6.49,2.42-.5,4.75-.83,7.03-1.63,1.93-.68,3.92-1.47,6.16-1.21,1.45,1.19,2.94,2.43,4.5,3.72,1.08-.56,2.3-.76,3.04-1.78-.5-2.25-1.04-4.42-.84-6.75.24-.26.46-.59.77-.8,1.94-1.34,3.44-3.09,4.99-4.85,1.12-1.27,2.09-2.99,4.08-3.16,2.14.07,4.1,1.88,6.38.59.32-1.06.96-2.07.49-3.23-1.17-1.38-2.17-2.9-3.51-4.1.03-.97-.33-1.99.16-2.74,1.36-2.07,1.38-4.51,2.13-6.74.42-1.25.27-2.72,1.49-3.82,1.89-.47,3.93-.96,5.76-2.28-.08-1.1.29-2.3-.34-3.55-2.32-.29-4.31-1.48-6.38-2.3-.25-1.01-.68-1.9-.56-2.92.15-1.23-.29-2.31-.77-3.46-.84-1.97-1.43-4.06-1.53-6.19,1.2-1.33,1.9-3.01,3.56-3.67.28-1.6.16-2.96-1.05-3.95-2.71-.43-5.28,1.04-8.09.13-1.4-3.61-5.12-5.25-7.58-8.22Z"/><path class="cls-2" d="m52.72,57.64h-17.75c-.58-.38-1-.79-1.21-1.44.04-.19.04-.42.12-.62,1.23-2.98,2.46-5.93,4.21-8.69,1.71-2.69,3.93-4.82,6.28-6.8,3.61-3.04,7.89-4.91,12.52-5.88,4.24-.89,8.48-1,12.76-.11,4.35.91,8.32,2.61,11.82,5.3,4.49,3.46,8.04,7.65,10.22,13,2.02,4.96,2.53,10.06,2.15,15.28-.2,2.69-.97,5.32-2.04,7.79-3.87,8.91-10.34,15.07-19.71,17.88-4.12,1.24-8.33,1.57-12.71.93-3.64-.53-7.05-1.51-10.25-3.2-5.69-3-9.97-7.4-12.92-13.15-.57-1.12-1.09-2.29-1.69-3.41-.67-1.24-.77-2.7.22-4.04h17.91c2.17,3.19,5.06,5.47,9.1,5.87,3.57.36,6.79-.32,9.67-2.78,5.57-4.74,5.69-13.46.94-18.13-2.95-2.9-6.43-4.1-10.48-3.71-4.02.38-6.87,2.72-9.16,5.91Zm-14.3,16.04c-.55,1.63.68,2.51,1.12,3.58,1.4,3.42,4.06,5.96,6.92,8.2,2.42,1.89,5.17,3.21,8.05,4.37,2.88,1.16,5.76,1.48,8.74,1.56,2.18.06,4.28-.32,6.43-.74,2.11-.42,3.96-1.16,5.81-2.1,1.61-.81,3.07-1.82,4.53-2.9,1.24-.91,2.54-1.76,3.52-2.91,1.21-1.41,2.25-2.98,3.23-4.56,2.55-4.12,3.88-8.56,3.99-13.47.07-3.06-.37-6.06-1.14-8.87-.81-2.97-2.68-5.64-4.09-8.44-2.19-1.38-3.52-3.68-5.56-5.21-1.25-.94-2.45-2.32-3.86-2.62-2.42-.51-4.62-1.59-7.01-2.18-3.4-.83-6.64-.85-10-.24-2.17.39-4.32.92-6.36,1.72-3.1,1.21-5.63,3.37-8.19,5.44-2.51,2.03-3.99,4.84-5.73,7.48-.63.95-.72,1.72-.32,2.67h12.6c1.46-2.11,3.3-4.04,5.61-4.74,2.74-.82,5.49-1.81,8.66-1.3,3.26.52,5.86,1.84,8.23,3.86,1.53,1.3,2.88,2.77,3.79,4.67,1.01,2.11,1.71,4.29,1.82,6.56.12,2.45-.56,4.81-1.57,7.08-.42.95-1.06,1.74-1.47,2.63-1.07,2.28-3.27,3.19-5.02,4.65-.17.14-.41.29-.6.28-1.34-.11-2.19.87-3.17,1.41-2.85-.12-5.62.09-8.41-.4-2.04-.35-3.35-1.81-5.13-2.49-.61-1.55-2.41-1.81-3.13-2.99h-12.32Z"/><path class="cls-1" d="m87.54,31.39c2.46,2.97,6.18,4.61,7.58,8.22,2.81.91,5.38-.56,8.09-.13,1.21.99,1.33,2.34,1.05,3.95-1.67.66-2.37,2.34-3.56,3.67.09,2.14.69,4.22,1.53,6.19.49,1.14.92,2.22.77,3.46-.12,1.02.31,1.91.56,2.92,2.07.82,4.06,2.01,6.38,2.3.63,1.25.26,2.45.34,3.55-1.84,1.32-3.87,1.82-5.76,2.28-1.22,1.09-1.06,2.57-1.49,3.82-.75,2.23-.77,4.67-2.13,6.74-.5.75-.13,1.77-.16,2.74,1.33,1.21,2.34,2.72,3.51,4.1.47,1.17-.17,2.17-.49,3.23-2.28,1.29-4.24-.52-6.38-.59-1.99.17-2.97,1.89-4.08,3.16-1.55,1.76-3.05,3.52-4.99,4.85-.3.21-.52.54-.77.8-.21,2.33.34,4.5.84,6.75-.73,1.02-1.96,1.21-3.04,1.78-1.55-1.28-3.05-2.52-4.5-3.72-2.24-.26-4.23.53-6.16,1.21-2.27.8-4.61,1.13-7.03,1.63-.8,2.12-1.62,4.31-2.44,6.49-1.04.37-2.02.09-3.01.23-1.12-1.46-1.65-3.09-2.03-4.74-.35-1.55-.43-1.74-2.07-2.14-2.52-.61-5.06-1.15-7.54-1.88-1.06-.31-2.16-.61-3.13-1.34-1.83,1.21-3.61,2.43-5.2,4-1.5.65-2.23-.79-3.44-1.26-.17-2.37,1.43-4.5.66-6.97-2.94-2.62-5.99-5.39-8.49-8.39-2.2-.39-3.99.12-6.06.7-1.46-.1-1.8-1.67-2.73-2.77,1.14-1.99,2.63-3.56,4.24-5.16.03-2.53-2.03-4.62-1.76-7.22.83-.53,1.66-.11,2.47-.3.2.25.41.41.47.61,1.12,4.12,3.71,9.28,6.46,12.83,3.53,4.56,7.92,7.95,12.97,10.61,3.19,1.68,6.63,2.64,10.11,3.24,2.94.51,5.99.94,9,.52,3.45-.48,7.01-.58,10.16-2.32.82-.46,1.72-.4,2.55-.79,3.69-1.75,7.09-4.05,9.96-6.82,2.26-2.18,4.45-4.59,6.13-7.44,1.83-3.1,3.29-6.32,4.36-9.68,1.18-3.71,1.93-7.61,1.38-11.52-.51-3.6-.42-7.3-1.73-10.78-.2-.54-.25-1.1-.62-1.63-.56-.78-.93-1.69-1.27-2.61-.77-2.04-1.9-3.88-3.3-5.57-1.24-1.48-2.47-2.95-3.81-4.36-2.32-2.42-4.92-4.5-7.76-6.13-1.63-.93-3.24-2.09-5.26-2.46-1.95-.35-3.71-1.49-5.7-1.88-.14-.03-.28-.22-.4-.2-3.74.43-7.4-1.09-11.21-.22-1.85.42-3.83.48-5.7,1.03-1.56.46-3.11.98-4.69,1.32-1.29.28-2.12,1.28-3.26,1.83-4.68,2.27-8.6,5.61-11.8,9.68-1.86,2.36-3.54,4.88-4.66,7.78-.74,1.92-1.47,3.89-2.33,5.76h-2.4c-.52-1.3.31-2.37.51-3.49.21-1.15.73-2.25,1.1-3.34-.48-1.16-1.06-2.15-2.14-2.83-1.06-.67-1.58-1.77-1.87-3.07.35-.73,1.07-1.3,1.23-2.04,2.51-.72,4.68.71,7.14.15,3.15-2.31,5.23-6.08,8.76-8.19.64-2.47-1.22-4.57-.7-6.91.62-1.3,1.97-1.22,2.87-1.67,2.45.79,3.48,3.3,5.73,4.07,3.69-1.85,7.64-2.56,11.81-3.34,1.4-1.82,1.39-4.48,2.75-6.42.8-.42,1.57-.16,2.39-.25,2.28,1.55,2.09,4.49,3.53,6.67,4.08,1.17,8.44,1.46,12.29,3.41,1.98-1.31,3.58-2.88,5.21-4.52.84.49,1.83.65,2.45,1.41.7,2.48-.54,4.82-.27,7.35Z"/><path class="cls-1" d="m38.42,73.68h12.32c.71,1.18,2.52,1.43,3.13,2.99,1.77.68,3.09,2.14,5.13,2.49,2.79.48,5.56.27,8.41.4.99-.54,1.84-1.53,3.17-1.41.19.02.43-.14.6-.28,1.75-1.46,3.95-2.37,5.02-4.65.41-.88,1.05-1.68,1.47-2.63,1.01-2.28,1.69-4.64,1.57-7.08-.11-2.27-.81-4.46-1.82-6.56-.91-1.9-2.26-3.37-3.79-4.67-2.37-2.02-4.97-3.34-8.23-3.86-3.18-.51-5.92.48-8.66,1.3-2.32.7-4.15,2.63-5.61,4.74h-12.6c-.4-.96-.31-1.72.32-2.67,1.73-2.63,3.22-5.45,5.73-7.48,2.56-2.07,5.09-4.23,8.19-5.44,2.04-.79,4.19-1.32,6.36-1.72,3.35-.61,6.59-.58,10,.24,2.39.58,4.59,1.67,7.01,2.18,1.41.3,2.61,1.68,3.86,2.62,2.04,1.53,3.37,3.83,5.56,5.21,1.41,2.8,3.28,5.48,4.09,8.44.77,2.82,1.21,5.81,1.14,8.87-.11,4.91-1.44,9.35-3.99,13.47-.98,1.58-2.03,3.15-3.23,4.56-.98,1.15-2.28,2-3.52,2.91-1.46,1.08-2.92,2.09-4.53,2.9-1.85.94-3.7,1.68-5.81,2.1-2.15.42-4.25.81-6.43.74-2.99-.09-5.87-.4-8.74-1.56-2.89-1.16-5.63-2.48-8.05-4.37-2.86-2.24-5.52-4.78-6.92-8.2-.44-1.06-1.66-1.95-1.12-3.58Z"/></g></svg>