<?xml version="1.0" encoding="utf-8"?>
<!-- Generator: Adobe Illustrator 27.1.1, SVG Export Plug-In . SVG Version: 6.00 Build 0)  -->
<svg version="1.1" id="Layer_1" xmlns="http://www.w3.org/2000/svg" xmlns:xlink="http://www.w3.org/1999/xlink" x="0px" y="0px"
	 viewBox="0 0 128 128" style="enable-background:new 0 0 128 128;" xml:space="preserve">
<style type="text/css">
	.st0{fill-rule:evenodd;clip-rule:evenodd;}
	.st1{fill:#EF8A33;}
</style>
<g id="楕円形_1_のコピー_8">
	<g>
		<circle class="st0" cx="64" cy="64" r="63.5"/>
	</g>
</g>
<g id="nHEApt.tif">
	
		<image style="overflow:visible;" width="708" height="334" id="Layer_0" xlink:href="5FDBDF5E757250C.png"  transform="matrix(0.5 0 0 0.5 -95.1243 334.3105)">
	</image>
</g>
<g>
	<path class="st1" d="M35.4,54.4H15.6v-1.7h18.1C34.4,53.3,34.9,53.9,35.4,54.4z"/>
	<path class="st1" d="M37.7,56.7l-22.1,0v-1.7H36C36.6,55.5,37.2,56.1,37.7,56.7z"/>
	<rect x="15.7" y="57.4" class="st1" width="5.5" height="1.7"/>
	<path class="st1" d="M38.5,59h-6c-0.1-0.8-0.6-1.4-1-1.7H38C38.4,57.9,38.5,58.4,38.5,59z"/>
	<rect x="15.7" y="59.7" class="st1" width="5.5" height="1.7"/>
	<path class="st1" d="M38.5,59.7c0,0.6-0.1,1.2-0.5,1.7h-6.3c0.3-0.3,0.7-0.9,0.8-1.7H38.5z"/>
	<path class="st1" d="M112.4,59h-6c-0.1-0.8-0.6-1.4-1-1.7h6.5C112.2,57.9,112.3,58.4,112.4,59z"/>
	<path class="st1" d="M112.4,59.7c0,0.6-0.1,1.2-0.5,1.7h-6.3c0.3-0.3,0.7-0.9,0.8-1.7H112.4z"/>
	<path class="st1" d="M37.8,62H15.6v1.7h20.7C36.7,63.5,37.8,62.6,37.8,62z"/>
	<path class="st1" d="M35.4,73.6H15.6v1.7h18.1C34.4,74.7,34.9,74.1,35.4,73.6z"/>
	<path class="st1" d="M37.7,71.3H15.6v1.7H36C36.6,72.5,37.2,71.9,37.7,71.3z"/>
	<rect x="15.7" y="69" class="st1" width="5.5" height="1.7"/>
	<path class="st1" d="M38.5,69h-6c-0.1,0.8-0.6,1.4-1,1.7H38C38.4,70.1,38.5,69.6,38.5,69z"/>
	<rect x="15.7" y="66.6" class="st1" width="5.5" height="1.7"/>
	<path class="st1" d="M38.5,68.3c0-0.6-0.1-1.2-0.5-1.7h-6.3c0.3,0.3,0.7,0.9,0.8,1.7H38.5z"/>
	<path class="st1" d="M37.8,66H15.6v-1.7h20.7C36.7,64.5,37.8,65.4,37.8,66z"/>
	<rect x="41.3" y="52.8" class="st1" width="6" height="1.7"/>
	<rect x="63.5" y="52.8" class="st1" width="6" height="1.7"/>
	<rect x="63.5" y="55.1" class="st1" width="6" height="1.7"/>
	<rect x="63.5" y="57.4" class="st1" width="6" height="1.7"/>
	<rect x="63.5" y="59.6" class="st1" width="6" height="1.7"/>
	<rect x="63.5" y="61.9" class="st1" width="6" height="1.7"/>
	<rect x="63.5" y="64.2" class="st1" width="6" height="1.7"/>
	<rect x="63.5" y="66.5" class="st1" width="6" height="1.7"/>
	<polygon class="st1" points="71.2,70.4 63.5,70.4 63.5,68.8 69.8,68.8 	"/>
	
		<rect x="80.5" y="52.8" transform="matrix(-1 -4.491175e-11 4.491175e-11 -1 167.0901 107.2004)" class="st1" width="6" height="1.7"/>
	
		<rect x="80.5" y="55.1" transform="matrix(-1 -4.491175e-11 4.491175e-11 -1 167.0901 111.7763)" class="st1" width="6" height="1.7"/>
	
		<rect x="80.5" y="57.4" transform="matrix(-1 -4.476121e-11 4.476121e-11 -1 167.0901 116.3523)" class="st1" width="6" height="1.7"/>
	
		<rect x="80.5" y="59.6" transform="matrix(-1 -4.476121e-11 4.476121e-11 -1 167.0901 120.9283)" class="st1" width="6" height="1.7"/>
	
		<rect x="80.5" y="61.9" transform="matrix(-1 -4.491175e-11 4.491175e-11 -1 167.0901 125.5043)" class="st1" width="6" height="1.7"/>
	
		<rect x="80.5" y="64.2" transform="matrix(-1 -4.461021e-11 4.461021e-11 -1 167.0901 130.0802)" class="st1" width="6" height="1.7"/>
	
		<rect x="80.5" y="66.5" transform="matrix(-1 -4.461021e-11 4.461021e-11 -1 167.0901 134.6562)" class="st1" width="6" height="1.7"/>
	<polygon class="st1" points="89.4,54.4 109.3,54.4 107.8,52.8 89.4,52.8 	"/>
	<polygon class="st1" points="89.4,56.7 111.6,56.7 109.9,55.1 89.4,55.1 	"/>
	
		<rect x="89.4" y="57.4" transform="matrix(-1 -4.476121e-11 4.476121e-11 -1 184.835 116.3523)" class="st1" width="6" height="1.7"/>
	
		<rect x="89.4" y="59.6" transform="matrix(-1 -4.476121e-11 4.476121e-11 -1 184.835 120.9283)" class="st1" width="6" height="1.7"/>
	<polygon class="st1" points="89.4,63.6 109.9,63.6 111.6,61.9 89.4,61.9 	"/>
	<polygon class="st1" points="89.4,65.9 112.1,65.9 110,64.2 89.4,64.2 	"/>
	
		<rect x="89.4" y="66.5" transform="matrix(-1 -4.461021e-11 4.461021e-11 -1 184.835 134.6562)" class="st1" width="6" height="1.7"/>
	
		<rect x="89.4" y="68.8" transform="matrix(-1 -4.461021e-11 4.461021e-11 -1 184.835 139.2322)" class="st1" width="6" height="1.7"/>
	
		<rect x="89.4" y="71.1" transform="matrix(-1 -4.461021e-11 4.461021e-11 -1 184.835 143.8082)" class="st1" width="6" height="1.7"/>
	
		<rect x="89.4" y="73.4" transform="matrix(-1 -4.461021e-11 4.461021e-11 -1 184.835 148.3841)" class="st1" width="6" height="1.7"/>
	<path class="st1" d="M106.3,68.2h6v-1.7h-6.7C106.1,67.1,106.3,67.6,106.3,68.2z"/>
	
		<rect x="106.3" y="68.8" transform="matrix(-1 -4.461021e-11 4.461021e-11 -1 218.6682 139.2322)" class="st1" width="6" height="1.7"/>
	
		<rect x="106.3" y="71.1" transform="matrix(-1 -4.461021e-11 4.461021e-11 -1 218.6682 143.8082)" class="st1" width="6" height="1.7"/>
	
		<rect x="106.3" y="73.4" transform="matrix(-1 -4.461021e-11 4.461021e-11 -1 218.6682 148.3841)" class="st1" width="6" height="1.7"/>
	<polygon class="st1" points="78.8,70.4 86.6,70.4 86.6,68.8 80.3,68.8 	"/>
	<rect x="41.3" y="55.1" class="st1" width="6" height="1.7"/>
	<rect x="41.3" y="57.4" class="st1" width="6" height="1.7"/>
	<rect x="41.3" y="59.7" class="st1" width="6" height="1.7"/>
	<rect x="41.3" y="62" class="st1" width="6" height="1.7"/>
	<rect x="41.3" y="64.3" class="st1" width="6" height="1.7"/>
	<rect x="41.3" y="66.6" class="st1" width="6" height="1.7"/>
	<polygon class="st1" points="49.3,70.6 41.3,70.6 41.3,69 47.5,69 	"/>
	<polygon class="st1" points="61.6,72.7 43.8,72.7 41.8,71.1 61.6,71.1 	"/>
	<polygon class="st1" points="83.5,72.7 66.2,72.7 64.2,71.1 85.7,71.1 	"/>
	<polygon class="st1" points="81.2,75 68.4,75 66.5,73.4 83.4,73.4 	"/>
	<polygon class="st1" points="61.6,75 46,75 44.1,73.3 61.6,73.3 	"/>
</g>
</svg>
