<?xml version="1.0" encoding="UTF-8"?>
<svg enable-background="new 0 0 32 32" version="1.1" viewBox="0 0 32 32" xml:space="preserve" xmlns="http://www.w3.org/2000/svg">
<style type="text/css">
	.st0{fill-rule:evenodd;clip-rule:evenodd;}
	.st1{fill-rule:evenodd;clip-rule:evenodd;fill:#FFFFFF;}
</style>
	<circle class="st0" cx="16" cy="16" r="16"/>
			<path class="st1" d="m25.1 15.2c0.2-0.5 0.9-0.7 1.3-0.7h0.2v1c-0.2 0-0.5 0-0.7 0.1s-0.3 0.2-0.4 0.3c-0.2 0.3-0.2 0.4-0.2 0.7v0.7 1.8h-1.1v-4.5h1l-0.1 0.6zm-13.8 2.8c-0.8 0.8-1.5 1.2-2.7 1.2-1.9 0-3.2-1.3-3.2-3.2s1.5-3.2 3.3-3.2c1 0 2 0.5 2.7 1.2l-0.8 0.8c-0.6-0.6-1.2-0.9-1.9-0.9-1.2 0-2.1 0.9-2.1 2.1 0 1.3 0.9 2.1 2.1 2.1 0.8 0 1.3-0.3 1.9-0.9l0.7 0.8zm4.9 0.2c-0.5 0.7-1.1 1-2.1 1-1.4 0-2.4-1.1-2.4-2.4 0-1.2 0.9-2.4 2.4-2.4 1.4 0 2.4 1 2.4 2.5v0.3h-3.7c0.1 0.7 0.6 1.1 1.3 1.1 0.5 0 0.8-0.1 1.1-0.4l1 0.3zm-0.9-1.9c-0.2-0.5-0.6-0.9-1.2-0.9s-1 0.3-1.2 0.9h2.4zm1.8-3.5h1.1v6.3h-1.1v-6.3zm6.1 5.4c-0.5 0.7-1.1 1-2.1 1-1.4 0-2.4-1.1-2.4-2.4 0-1.2 0.9-2.4 2.4-2.4 1.4 0 2.4 1 2.4 2.5v0.3h-3.7c0.1 0.7 0.6 1.1 1.3 1.1 0.5 0 0.8-0.1 1.1-0.4l1 0.3zm-0.8-1.9c-0.2-0.5-0.6-0.9-1.2-0.9s-1 0.3-1.2 0.9h2.4z"/>
</svg>
