<svg data-name="Layer 1" xmlns="http://www.w3.org/2000/svg" viewBox="0 0 32 32"><circle cx="16" cy="16" r="16" fill="#cd0124"/><path d="M23.2 6.73a1.34 1.34 0 00-1.3 1.06H10.1a1.33 1.33 0 10-1.3 1.59 1.65 1.65 0 00.31 0l2.64 5.49A1.25 1.25 0 0012.81 17l2.82 5.86a1.3 1.3 0 00-.52 1.14 1.33 1.33 0 002.66 0 1.34 1.34 0 00-.57-1.09l2.43-5.71a.86.86 0 00.23 0 1.26 1.26 0 00.73-2.28L23 9.37h.25a1.33 1.33 0 100-2.66zM10.09 8.34H21.9a1.43 1.43 0 00.09.27l-5.9 4.29L10 8.59a1 1 0 00.09-.25zm-.49.77L9.69 9l5.93 4.21-2.25 1.64a1.27 1.27 0 00-.84-.32 1.36 1.36 0 00-.29 0zm7.09 13.54a1.07 1.07 0 00-.25 0 1.65 1.65 0 00-.32 0l-2.82-5.84a1.25 1.25 0 00.49-1 1.39 1.39 0 00-.1-.5l2.4-1.74 2.61 1.85a1.3 1.3 0 00-.1.49 1.25 1.25 0 00.53 1zm3.4-8h-.23A1.23 1.23 0 0019 15l-2.46-1.74 5.75-4.19.13.1z" fill="#fff"/></svg>