<?xml version="1.0" encoding="utf-8"?>
<!-- Generator: Adobe Illustrator 27.5.0, SVG Export Plug-In . SVG Version: 6.00 Build 0)  -->
<svg version="1.1" id="Layer_1" xmlns="http://www.w3.org/2000/svg" xmlns:xlink="http://www.w3.org/1999/xlink" x="0px" y="0px"
	 viewBox="0 0 128 128" style="enable-background:new 0 0 128 128;" xml:space="preserve">
<style type="text/css">
	.st0{fill:#B7FAFF;}
	.st1{fill:#B3A6D6;}
	.st2{fill:#B297C9;}
	.st3{fill:#B3C1EE;}
	.st4{fill:#B388BD;}
	.st5{fill:#B278AF;}
	.st6{fill:#B2B3E1;}
	.st7{fill:#B4CFFA;}
</style>
<circle cx="64" cy="64" r="63.5"/>
<g>
	<polygon class="st0" points="40.8,25.5 18.4,64.3 33.8,55.5 	"/>
	<polygon class="st0" points="87.3,25.5 40.8,25.5 71,40.5 	"/>
	<polygon class="st1" points="33.8,55.5 18.4,64.3 40.8,102.5 	"/>
	<polygon class="st2" points="75.2,86 40.8,102.5 33.8,55.5 	"/>
	<polygon class="st3" points="71,40.5 75.2,86 109.6,63.7 	"/>
	<polygon class="st4" points="87.3,102.5 75.2,86 109.6,63.7 	"/>
	<polygon class="st5" points="40.8,102.5 75.2,86 87.3,102.5 	"/>
	<polygon class="st6" points="33.8,55.5 71,40.5 75.2,86 	"/>
	<polygon class="st7" points="40.8,25.5 33.8,55.5 71,40.5 	"/>
	<polygon class="st7" points="87.3,25.5 109.6,63.7 71,40.5 	"/>
</g>
</svg>
