<?xml version="1.0" encoding="UTF-8"?><svg id="Layer_1" xmlns="http://www.w3.org/2000/svg" viewBox="0 0 128 128"><defs><style>.cls-1{fill:#fff;fill-rule:evenodd;}.cls-1,.cls-2{stroke-width:0px;}</style></defs><circle class="cls-2" cx="64" cy="64" r="63.5"/><path class="cls-1" d="m78.42,66.82l21.91,22.68c.26.27.47.59.62.94.14.35.22.73.22,1.11,0,.38-.07.76-.21,1.12-.14.35-.34.68-.6.95l-1.61,1.66c-.45.49-1.05.81-1.7.91-.43.06-.86.01-1.27-.13-.41-.14-.78-.38-1.08-.7l-26.76-27.7c-.47-.48-.83-1.05-1.09-1.68-.25-.63-.38-1.3-.38-1.98s.13-1.35.38-1.98c.25-.63.62-1.2,1.09-1.68l26.76-27.7c.26-.27.57-.48.91-.63.34-.15.71-.22,1.08-.22s.73.08,1.08.22c.34.15.65.36.91.63l1.66,1.74c.26.27.47.59.61.94.14.35.21.73.21,1.11s-.07.76-.21,1.11c-.14.35-.35.67-.61.94l-21.91,22.69c-.72.75-1.12,1.76-1.12,2.82s.4,2.07,1.12,2.82Zm-28.85-5.62l-21.91-22.69c-.27-.27-.48-.59-.62-.94-.15-.35-.22-.73-.22-1.12,0-.38.07-.77.21-1.12.14-.36.35-.68.61-.95l1.6-1.66c.46-.49,1.05-.81,1.7-.91.43-.06.86-.01,1.27.13.41.14.78.38,1.08.7l26.75,27.7c.47.48.83,1.05,1.09,1.68.25.63.38,1.3.38,1.98s-.13,1.35-.38,1.98c-.25.63-.62,1.2-1.09,1.68l-26.75,27.7c-.26.27-.57.48-.91.63-.34.15-.71.22-1.08.22s-.74-.08-1.08-.22c-.34-.15-.65-.36-.91-.63l-1.66-1.72c-.26-.27-.47-.59-.61-.94-.14-.35-.21-.73-.21-1.11s.07-.76.21-1.11c.14-.35.35-.67.61-.94l21.91-22.69c.72-.75,1.12-1.76,1.12-2.82s-.4-2.07-1.12-2.82Z"/></svg>