<?xml version="1.0" encoding="utf-8"?>
<!-- Generator: Adobe Illustrator 26.0.2, SVG Export Plug-In . SVG Version: 6.00 Build 0)  -->
<svg version="1.1" id="Layer_1" xmlns="http://www.w3.org/2000/svg" xmlns:xlink="http://www.w3.org/1999/xlink" x="0px" y="0px"
	 width="128px" height="128px" viewBox="0 0 128 128" style="enable-background:new 0 0 128 128;" xml:space="preserve">
<style type="text/css">
	.st0{fill:#FFFFFF;}
	.st1{fill:url(#SVGID_1_);}
	.st2{fill:url(#SVGID_00000008851255125465184630000010677356789038183349_);}
</style>
<g>
	<circle class="st0" cx="64" cy="64" r="63.5"/>
	<g id="aKuJ2Y.tif_00000033341927096539300090000010697611865846882182_">
		<g>
			<linearGradient id="SVGID_1_" gradientUnits="userSpaceOnUse" x1="20.2541" y1="34.602" x2="95.1467" y2="75.0485">
				<stop  offset="0" style="stop-color:#68166E"/>
				<stop  offset="0.9996" style="stop-color:#471151"/>
			</linearGradient>
			<path class="st1" d="M61.9,0.5c1.5,0,3,0,4.4,0c0.2,0,0.4,0.1,0.7,0.1c2.7,0.3,5.5,0.5,8.2,0.9c6.8,1.1,13.2,3.4,19.2,6.7
				c12,6.6,21,16,26.9,28.4c5.3,11,7.1,22.5,5.8,34.6c-0.8,7.1-2.7,13.8-5.8,20.3c-0.6,1.2-1.2,2.3-1.7,3.4
				C105.6,76.3,87.3,66.1,64,66.1C40.7,66,22.4,76.1,8.4,94.5c0,0-0.1-0.1-0.1-0.2c-0.7-1.4-1.4-2.7-2.1-4.1
				C3.3,84,1.6,77.5,0.9,70.7c-0.1-1.4-0.3-2.9-0.4-4.4c0-1.5,0-3,0-4.6c0.1-1.5,0.2-2.9,0.4-4.4c0.5-5.2,1.7-10.2,3.5-15.1
				c3-8.1,7.4-15.3,13.3-21.6c5.6-6,12.2-10.8,19.7-14.3C44.2,3.2,51.5,1.3,59,0.7C60,0.7,60.9,0.6,61.9,0.5z M105.8,68.3
				c1.6-13-3.5-30-19.4-40.3c-15-9.6-34.8-8.6-48.9,2.6C23.5,41.8,20.3,58,21.9,68.5c12.8-8.2,26.7-12.4,41.9-12.4
				C79,56.1,92.9,60.2,105.8,68.3z"/>
			
				<linearGradient id="SVGID_00000081617983269416426340000017703546280705735869_" gradientUnits="userSpaceOnUse" x1="22.989" y1="107.7183" x2="104.7355" y2="107.7183">
				<stop  offset="0" style="stop-color:#330F40"/>
				<stop  offset="1" style="stop-color:#2F0F3D"/>
			</linearGradient>
			<path style="fill:url(#SVGID_00000081617983269416426340000017703546280705735869_);" d="M23,112.5C32,97,45.2,88.2,63.2,88
				c18.7-0.2,32.3,8.7,41.6,24.7C84.2,130.8,48.5,134.1,23,112.5z"/>
		</g>
	</g>
</g>
</svg>
