<?xml version="1.0" encoding="utf-8"?>
<!-- Generator: Adobe Illustrator 28.1.0, SVG Export Plug-In . SVG Version: 6.00 Build 0)  -->
<svg version="1.1" id="Layer_1" xmlns="http://www.w3.org/2000/svg" xmlns:xlink="http://www.w3.org/1999/xlink" x="0px" y="0px"
	 viewBox="0 0 1280 1280" style="enable-background:new 0 0 1280 1280;" xml:space="preserve">
<style type="text/css">
	.st0{fill:#8A518C;}
	.st1{fill:none;stroke:#FFFFFF;stroke-width:16;stroke-linecap:round;stroke-linejoin:round;}
	.st2{fill:#873E7F;}
	.st3{fill:#EB9EEF;}
	.st4{fill:#05104D;}
	.st5{fill:#0163AF;}
	.st6{fill:#009DFF;}
	.st7{fill:#FFFFFF;}
	.st8{fill:#3D98DE;}
</style>
<g id="Layer_2_00000067236909079147175900000017856406026367433106_">
</g>
<g id="Layer_3">
	<g>
		<g>
			<g>
				<path class="st0" d="M473.4,748.1h0.1V748C473.4,748,473.4,748,473.4,748.1 M872.4,748.1L872.4,748.1c0.1-0.1,0.1-0.1,0-0.1
					V748.1z"/>
			</g>
		</g>
		<g>
			<path class="st1" d="M494,493.2c-3.9,5.4-7.6,11-10.9,16.6c-7.9,13.3-14.1,27.3-18.8,41.9c-0.1,0.1-0.1,0.3-0.1,0.5
				c-4.6,19.5-7.2,30.5-7.7,33.1c0,0,0,0.1,0,0.2c0,0.3-0.1,0.5-0.1,0.8c0,0.2,0,0.4,0,0.6c-0.3,4.6-0.6,8.7-0.9,12.4
				c-0.9,12.5-1.3,19.3-1.3,20.2c0,0.2,0,0.4,0,0.5c0,1,0,2.1,0,3.1"/>
		</g>
	</g>
</g>
<g id="Layer_5">
</g>
<g id="Layer_8">
	<g>
		<g>
			<g>
				<path class="st2" d="M642.8,14c-174,0-322.6,61.5-445.7,184.6C74.1,321.7,12.6,470.3,12.6,644.3c0,174,61.5,322.6,184.6,445.6
					c123.1,123.1,271.7,184.6,445.7,184.7c174,0,322.6-61.5,445.6-184.7c123.1-123,184.7-271.6,184.7-445.6
					c0-174-61.6-322.6-184.7-445.7C965.4,75.6,816.8,14.1,642.8,14 M232.4,233.9C345.8,120.7,482.6,64,642.8,64.1
					c160.2,0,297,56.6,410.3,169.9c113.3,113.3,170,250.1,170,410.3c0,160.2-56.7,297-170,410.3c-113.3,113.3-250,170-410.3,170
					c-160.2,0-297-56.7-410.3-170C119.2,941.3,62.5,804.5,62.5,644.3C62.5,484.1,119.2,347.3,232.4,233.9z"/>
				<path class="st3" d="M642.8,64.1c-160.2,0-297,56.6-410.3,169.9C119.2,347.3,62.5,484.1,62.5,644.3
					c0,160.2,56.6,297,169.9,410.3c113.3,113.3,250.1,170,410.3,170c160.2,0,297-56.7,410.3-170c113.3-113.3,170-250,170-410.3
					c0-160.2-56.7-297-170-410.3C939.8,120.7,803,64,642.8,64.1z"/>
			</g>
		</g>
	</g>
	<g>
		<g>
			<g>
				<path class="st4" d="M430.7,174.8c-0.4,0.1-0.8,0.3-1.1,0.4c-7.3,3.4-14.2,6.9-20.9,10.4c-0.5,0.1-0.8,0.4-1.1,0.7
					c-6.8,3.7-13.5,7.4-20.1,11.1c-1,0.6-1.9,1.2-2.6,1.8L370,209.9c-0.7,0.6-1.5,1.1-2.2,1.8l-8,7.2
					c-57.2,48.8-92.4,98.1-105.6,147.8c-13,47-20.7,79.3-23.1,97c0,0.1,0,0.3,0,0.5c-2.2,17.6-3.7,31.5-4.2,41.5v0.2
					c-1,18.3,0.9,34.1,5.8,47.4c-4.4,3.2-9.2,8.1-14.4,14.7c-5.9,7.1-11.3,16.7-16,28.9c-4.8,12-6.4,26-4.9,42.1
					c1.3,15.6,6.7,27.1,16,34.7c9.2,7.5,25.4,11.9,48.5,13.1c1.3,0.1,2.5,0.1,3.8,0.1c22.1,0,46.8-10.1,74.3-30.3h0.2
					c31-19.7,66.7-35.9,107-48.5v-0.2c30.8-10.5,65.1-17.8,102.8-21.8c36.4-4,67.5-5.7,93.1-5.2c0,0,0,0,0,0c0.4,0,0.7,0,1,0
					c0.4,0,0.8,0,1.2,0c0,0,0,0,0,0c25.7-0.6,56.7,1.1,93.1,5.2c37.7,4,71.9,11.3,102.8,21.8v0.2c40.3,12.6,76,28.8,107,48.5h0.2
					c29.1,21.4,55.1,31.5,78,30.2c0.6,0,1.1-0.1,1.7-0.1c22.2-1.3,37.8-5.7,46.8-13c9.3-7.6,14.7-19.1,16-34.7
					c1.5-16-0.1-30.1-4.9-42.1c-4.7-12.2-10.1-21.8-16-28.9c-5.7-7.4-11.1-12.7-15.9-15.8c4.6-13.1,6.4-28.5,5.4-46.3v-0.2
					c-0.6-10.1-2-23.9-4.2-41.5c0-0.2,0-0.3,0-0.5c-2.4-17.7-10.1-50-23.1-97c-13.2-49.8-48.4-99.1-105.6-147.8l-8-7.2
					c-0.8-0.6-1.5-1.2-2.2-1.8l-14.9-10.7c-0.7-0.6-1.6-1.2-2.6-1.8c-6.5-3.7-13.2-7.4-20.1-11.1c-0.3-0.3-0.6-0.5-1.1-0.7
					c-6.7-3.6-13.6-7-20.9-10.4c-0.3-0.2-0.7-0.3-1.1-0.4c-7.3-3.1-14.5-6.2-21.8-9.4c-0.3-0.1-0.6-0.3-0.9-0.4
					c-7.6-3-15.5-5.6-23.8-8c-7.8-3-16-5.6-24.5-7.8c-0.1-0.1-0.4-0.2-0.9-0.2c-12.2-3.1-24.5-6.1-36.9-8.9
					c-0.5-0.2-0.8-0.2-1.1-0.2c-6.7-1.2-13.4-2.3-20.1-3.3v-0.2c-0.1-0.7-0.6-2.3-1.3-4.6c0-0.2,0-0.3,0-0.5
					c-0.6-2.4-1.8-5.2-3.6-8.4c-1.9-3.6-4.3-6.6-7.3-9.1c-5.6-5.3-11-9.3-16.2-11.8c-5-2.4-12.6-4.5-22.7-6.2
					c-8.7-1.6-18.6-2.5-29.6-2.5c-0.6,0-1.2,0-1.8,0c-0.6,0-1.2,0-1.8,0c-11,0-20.9,0.9-29.5,2.5c-10.1,1.8-17.7,3.9-22.7,6.2
					c-5.2,2.5-10.6,6.5-16.2,11.8c-3,2.5-5.4,5.5-7.3,9.1c-1.8,3.3-3,6.1-3.6,8.4c0,0.1,0,0.3,0,0.5c-0.7,2.4-1.2,3.9-1.3,4.6v0.2
					c-6.7,1-13.3,2.1-20,3.3c-0.3,0-0.6,0.1-1.1,0.2c-12.4,2.8-24.7,5.8-36.9,8.9c-0.5,0-0.8,0.1-0.9,0.2
					c-8.5,2.2-16.6,4.8-24.4,7.8c-8.3,2.4-16.2,5-23.8,8c-0.3,0.2-0.6,0.3-0.9,0.4C445.2,168.5,438,171.6,430.7,174.8 M377.1,239
					l8.4-7.6l14.9-10.6c6.7-3.7,13.4-7.5,20.2-11.4c6.7-3.4,13.5-6.8,20.4-10.2c7.3-3.1,14.5-6.2,21.8-9.3
					c7.3-2.8,14.8-5.3,22.7-7.6c7.6-2.8,15.3-5.3,23.1-7.6c12.2-3,24.4-5.9,36.7-8.7c7.9-1.5,15.8-2.8,23.8-4
					c4.9-0.9,9.8-1.7,14.7-2.4h0.5c0.4,0,0.8-0.1,1.2-0.1c-0.2,0-0.4-0.1-0.5-0.1c-0.9-7.4-0.6-12.8,0.9-16.2
					c1.3-3.3,2.4-5.3,3.2-5.9c0-0.1,0.1-0.2,0.1-0.2c1.2-1.9,2.6-3.6,4.2-5.1c8.2-7.4,23.3-11.5,45.4-12.2l0,0h7.3
					c0.4,0,0.7,0,1.1,0c22.1,0.7,37.2,4.8,45.4,12.2c1.6,1.5,3,3.2,4.2,5.1c0,0.1,0,0.2,0,0.2c0.9,0.7,2,2.6,3.3,5.9
					c1.5,3.4,1.8,8.9,0.9,16.2c-0.2,0-0.4,0.1-0.6,0.1c0.4,0,0.8,0.1,1.2,0.1h0.5c4.9,0.8,9.8,1.6,14.7,2.4c8,1.2,15.9,2.5,23.8,4
					c12.3,2.8,24.5,5.7,36.7,8.7c7.8,2.2,15.5,4.8,23.1,7.6c7.9,2.2,15.4,4.7,22.7,7.6c7.3,3.1,14.5,6.2,21.8,9.3
					c7,3.4,13.8,6.8,20.5,10.2c6.8,3.8,13.6,7.6,20.2,11.4l14.9,10.6l8.4,7.6c22.2,19,40.9,38,56.1,57.1
					c20.3,25.8,34.1,51.7,41.3,77.6c12.5,45.4,19.9,76.5,22.2,93.4c2.1,17,3.4,30.4,4,40c0.9,15.7-1,28.9-5.7,39.6
					c-6.3-0.4-13.8-1.4-22.5-2.9c7.5,4.7,13.4,8.6,17.6,11.8c0.6,0.5,1.2,0.9,1.8,1.3c5.9,4.5,12.5,9.5,19.7,15
					c2.4,1.8,4.8,3.6,7.2,5.5c12.6,17.4,18.9,32.1,18.9,44.2c0.1,2.2-0.2,4.2-0.9,6c-0.2,1.9-0.6,3.9-1.3,6
					c-3.7,11.7-9,19.3-15.8,22.7c-4.7,2.3-11.5,3.6-20.5,3.9c-3.8,0.2-8,0.1-12.6-0.1c-15.4-0.9-38.6-11.3-69.4-31.3
					c-30.7-20.2-67.8-37.3-111.5-51.4c-42.7-14.1-93.2-22.6-151.7-25.5c-9.5-0.5-23.2-0.9-41.1-1.3c-0.3,0-0.6,0-0.9-0.1
					c-0.3,0-0.6,0-0.9,0c0,0,0,0-0.1,0.1c-17.9,0.4-31.6,0.8-41,1.3c-58.4,3-108.9,11.5-151.6,25.5c-43.6,14.1-80.8,31.2-111.4,51.4
					c-30.8,20-54,30.4-69.4,31.3c-2.5,0.1-4.8,0.2-7.1,0.2c-11.7,0.1-20.4-1.3-26-4c-6.8-3.4-12.1-11-15.8-22.7
					c-0.7-2.1-1.2-4.1-1.3-6c-0.7-1.8-1-3.8-0.9-6c0-12.1,6.3-26.9,18.9-44.2c2-1.6,4-3.1,5.9-4.5c7.7-5.9,14.7-11.2,21-15.9
					c0.1-0.1,0.3-0.2,0.5-0.3c4.3-3.4,10.6-7.6,18.9-12.8c-9.6,1.7-17.8,2.7-24.4,3c-4.7-10.8-6.6-24-5.8-39.8c0.6-9.6,1.9-23,4-40
					c2.4-16.9,9.8-48,22.2-93.4c7.3-26,21-51.8,41.3-77.6C336.2,277,354.9,258,377.1,239 M802.5,217.4c0.2,2.7,1.5,5.3,4,8
					c3.3,3.7,7.8,6.3,13.6,7.8c0.9,0.3,1.7,0.5,2.6,0.6c4.7,0.9,9.1,0.7,13.1-0.6c4.6-1.3,7.4-3.8,8.4-7.4c0.3-1,0.4-2.1,0.2-3.3
					c-0.3-2.5-1.6-5-3.8-7.6c-3.4-3.4-8-5.9-13.8-7.6c-0.2,0-0.3,0-0.5,0c-5.6-1.5-10.7-1.6-15.1-0.2c-4.7,1.5-7.6,4-8.5,7.6
					C802.7,215.6,802.5,216.6,802.5,217.4 M483.2,214.8c-0.9-3.5-3.7-6.1-8.5-7.6c-4.5-1.3-9.5-1.2-15.1,0.2c-0.1,0-0.3,0-0.5,0
					c-5.8,1.6-10.3,4.2-13.8,7.6c-2.2,2.5-3.5,5.1-3.8,7.6c-0.1,1.2,0,2.3,0.2,3.3c1,3.6,3.8,6,8.4,7.4c4,1.3,8.4,1.6,13.1,0.6
					c0.9-0.1,1.8-0.3,2.6-0.6c5.8-1.5,10.3-4.1,13.6-7.8c2.5-2.7,3.8-5.3,4-8C483.6,216.6,483.5,215.6,483.2,214.8z"/>
				<path class="st5" d="M366,249.7c5.5-4.6,9.2-8.2,11.1-10.7c-22.2,19-40.9,38-56.1,57.1c-20.3,25.8-34.1,51.7-41.3,77.6
					c-12.5,45.4-19.9,76.5-22.2,93.4c-2.1,17-3.4,30.4-4,40c-0.9,15.7,1,29,5.8,39.8c6.6-0.3,14.8-1.4,24.4-3
					c-8.3,5.2-14.6,9.4-18.9,12.8c-0.2,0.1-0.3,0.2-0.5,0.3c-6.3,4.7-13.3,10-21,15.9c-1.9,1.5-3.9,3-5.9,4.5
					c-12.6,17.4-18.9,32.1-18.9,44.2c-0.1,2.2,0.2,4.2,0.9,6c2.7,7.1,11,11.1,24.9,11.8c1.6,0.2,3.4,0.2,5.4,0.2
					c6,0,12.4-1,19.3-2.8c17-4.4,36.7-14.3,59.2-29.5c30.5-21.1,71.2-39.5,121.9-55.4c34.1-10.8,71.6-17.7,112.5-20.7
					c23.5-2.2,50.4-3.5,80.5-4.2c0.1-0.1,0.1-0.2,0.2-0.3v0.2c0.3,0,0.6,0,0.9,0c0.4,0,0.7,0,1,0c30.2,0.6,57.1,2,80.6,4.2
					c40.9,3,78.4,9.9,112.5,20.7c50.7,15.9,91.4,34.3,121.9,55.4c25.4,17.1,47.2,27.4,65.6,30.9c4.5,0.9,8.8,1.3,12.9,1.3
					c1.9,0,3.7-0.1,5.3-0.2c13.9-0.7,22.2-4.7,24.9-11.8c0.7-1.8,1-3.8,0.9-6c0-12.1-6.3-26.9-18.9-44.2c-2.5-1.9-4.9-3.7-7.2-5.5
					c-7.2-5.5-13.8-10.5-19.7-15c-0.5-0.4-1.1-0.9-1.8-1.3c-4.2-3.2-10.1-7.1-17.6-11.8c8.7,1.5,16.2,2.5,22.5,2.9
					c4.7-10.7,6.6-23.9,5.7-39.6c-0.6-9.6-1.9-23-4-40c-2.4-16.9-9.8-48-22.2-93.4c-7.3-26-21-51.8-41.3-77.6
					C950,277,931.3,258,909.1,239c1.9,2.5,5.6,6.1,11.1,10.7c5.5,4.6,11.8,14.8,18.9,30.4c3.4,7.1,7.2,20.9,11.4,41.1
					c4.9,23.9,10.4,57,16.5,99.4c5.1,34.7,6.9,60.3,5.5,76.9c-1,11.9-3.7,19.2-8,21.8c-16.4-9.2-33.8-17.8-52.2-25.8
					c-24.2-10.5-46.9-18.6-68.2-24.2c-20.8-5.8-36.5-9.8-47.3-12c-11-2.2-26.1-4.4-45.4-6.6c-24.1-3.3-59-5.1-104.5-5.5v0
					c-1,0-2,0-3,0c-0.4,0-0.8,0-1.2,0c-0.4,0-0.8,0-1.2,0l0,0c-45.5,0.4-80.4,2.2-104.5,5.5c-19.3,2.2-34.4,4.5-45.4,6.6
					c-10.8,2.2-26.6,6.2-47.4,12c-21.3,5.6-44.1,13.7-68.2,24.2c-18.7,8.1-36.4,16.9-53.1,26.3c-4.9-2-7.9-9.5-9-22.3
					c-1.4-16.6,0.5-42.2,5.5-76.9c6.1-42.4,11.6-75.5,16.5-99.4c4.1-20.3,7.9-34,11.4-41.1C354.2,264.5,360.5,254.3,366,249.7
					 M601.5,147.6c-8.3-2.8-12.4-6.3-12.2-10.5c0,0-0.1,0-0.1,0.1c-0.9,0.7-2,2.6-3.2,5.9c-1.5,3.4-1.8,8.9-0.9,16.2
					c0.2,0,0.4,0.1,0.5,0.1c15.6,3,26.4,5.2,32.6,6.4c5.2,0.9,12.5,1.4,22,1.6c0,0,0,0.1,0,0.1c1,0,1.9,0,2.8-0.1c1,0,2,0,3,0.1
					c0,0,0-0.1,0-0.1c9.5-0.2,16.8-0.8,22-1.6c6.2-1.2,17-3.3,32.5-6.4c0.2,0,0.4-0.1,0.6-0.1c0.9-7.4,0.6-12.8-0.9-16.2
					c-1.3-3.3-2.4-5.3-3.3-5.9c0,0,0,0,0-0.1c0.2,4.2-3.9,7.7-12.2,10.5c-9.7,3-23.5,4.7-41.6,4.8
					C625,152.3,611.2,150.6,601.5,147.6z"/>
				<path class="st6" d="M385.5,231.4l-8.4,7.6c-1.9,2.5-5.6,6.1-11.1,10.7c-5.5,4.6-11.8,14.8-18.9,30.4
					c-3.4,7.1-7.2,20.9-11.4,41.1c-4.9,23.9-10.4,57-16.5,99.4c-5.1,34.7-6.9,60.3-5.5,76.9c1.1,12.8,4.1,20.3,9,22.3
					c16.7-9.4,34.4-18.2,53.1-26.3c24.2-10.5,46.9-18.6,68.2-24.2c20.8-5.8,36.5-9.8,47.4-12c11-2.2,26.1-4.4,45.4-6.6
					c24.1-3.3,59-5.2,104.5-5.5l0,0c0.4,0,0.8,0,1.2,0c0.4,0,0.8,0,1.2,0c1,0,2,0,3,0v0c45.5,0.4,80.4,2.2,104.5,5.5
					c19.3,2.2,34.4,4.5,45.4,6.6c10.8,2.2,26.6,6.2,47.3,12c21.3,5.6,44.1,13.7,68.2,24.2c18.4,8,35.8,16.5,52.2,25.8
					c4.3-2.6,7-9.8,8-21.8c1.4-16.6-0.5-42.2-5.5-76.9c-6.1-42.4-11.5-75.5-16.5-99.4c-4.1-20.3-7.9-34-11.4-41.1
					c-7.1-15.7-13.4-25.8-18.9-30.4c-5.5-4.6-9.2-8.2-11.1-10.7l-8.4-7.6l-14.9-10.6c-6.7-3.7-13.4-7.5-20.2-11.4
					c-6.7-3.4-13.5-6.8-20.5-10.2c-7.3-3.1-14.5-6.2-21.8-9.3c-7.3-2.8-14.8-5.3-22.7-7.6c-7.6-2.8-15.3-5.3-23.1-7.6
					c-12.2-3-24.4-5.9-36.7-8.7c-7.9-1.5-15.8-2.8-23.8-4c-4.9-0.9-9.8-1.7-14.7-2.4h-0.5c-0.4,0-0.8-0.1-1.2-0.1
					c-15.5,3-26.4,5.2-32.5,6.4c-5.2,0.9-12.5,1.4-22,1.6c0,0,0,0.1,0,0.1c-1,0-2,0-3-0.1c-0.9,0-1.9,0-2.8,0.1c0,0,0-0.1,0-0.1
					c-9.5-0.2-16.8-0.8-22-1.6c-6.2-1.2-17-3.3-32.6-6.4c-0.4,0-0.8,0.1-1.2,0.1H584c-4.9,0.8-9.8,1.6-14.7,2.4
					c-8,1.2-15.9,2.5-23.8,4c-12.3,2.8-24.5,5.7-36.7,8.7c-7.8,2.2-15.5,4.8-23.1,7.6c-7.9,2.2-15.4,4.7-22.7,7.6
					c-7.3,3.1-14.5,6.2-21.8,9.3c-7,3.4-13.8,6.8-20.4,10.2c-6.8,3.8-13.6,7.6-20.2,11.4L385.5,231.4 M474.8,207.2
					c4.7,1.5,7.6,4,8.5,7.6c0.3,0.9,0.4,1.8,0.4,2.7c-0.2,2.7-1.5,5.3-4,8c-3.3,3.7-7.8,6.3-13.6,7.8c-0.9,0.3-1.7,0.5-2.6,0.6
					c-4.7,0.9-9.1,0.7-13.1-0.6c-4.6-1.3-7.4-3.8-8.4-7.4c-0.3-1-0.4-2.1-0.2-3.3c0.3-2.5,1.6-5,3.8-7.6c3.4-3.4,8-5.9,13.8-7.6
					c0.2,0,0.3,0,0.5,0C465.2,205.9,470.3,205.9,474.8,207.2 M806.5,225.4c-2.5-2.7-3.8-5.3-4-8c0-0.9,0.2-1.8,0.5-2.7
					c0.9-3.5,3.7-6.1,8.5-7.6c4.5-1.3,9.5-1.2,15.1,0.2c0.1,0,0.3,0,0.5,0c5.8,1.6,10.3,4.2,13.8,7.6c2.2,2.5,3.5,5.1,3.8,7.6
					c0.1,1.2,0,2.3-0.2,3.3c-1,3.6-3.8,6-8.4,7.4c-4,1.3-8.4,1.6-13.1,0.6c-0.9-0.1-1.8-0.3-2.6-0.6
					C814.4,231.8,809.8,229.1,806.5,225.4 M1043.9,639.5c-1.6,0.2-3.4,0.2-5.3,0.2c-4.1,0-8.4-0.5-12.9-1.3
					c-18.4-3.5-40.2-13.8-65.6-30.9c-30.5-21.1-71.2-39.5-121.9-55.4c-34.1-10.8-71.6-17.7-112.5-20.7c-23.5-2.2-50.4-3.5-80.6-4.2
					c-0.3,0-0.6,0-1,0c-0.3,0-0.6,0-0.9,0V527c0,0.1-0.1,0.2-0.2,0.3c-30.2,0.6-57,2-80.5,4.2c-40.9,3-78.4,9.9-112.5,20.7
					c-50.7,15.9-91.4,34.3-121.9,55.4c-22.5,15.2-42.2,25-59.2,29.5c-6.9,1.8-13.3,2.8-19.3,2.8c-1.9,0-3.7-0.1-5.4-0.2
					c-13.9-0.7-22.2-4.7-24.9-11.8c0.2,1.9,0.6,3.9,1.3,6c3.7,11.7,9,19.3,15.8,22.7c5.6,2.7,14.3,4.1,26,4c2.3,0,4.6-0.1,7.1-0.2
					c15.4-0.9,38.6-11.3,69.4-31.3c30.7-20.2,67.9-37.3,111.4-51.4c42.7-14.1,93.2-22.6,151.6-25.5c9.5-0.5,23.2-0.9,41-1.3
					c0,0,0,0,0.1-0.1c0.3,0,0.6,0,0.9,0c0.3,0,0.6,0,0.9,0.1c17.9,0.4,31.6,0.8,41.1,1.3c58.4,3,109,11.5,151.7,25.5
					c43.6,14.1,80.8,31.2,111.5,51.4c30.8,20,54,30.4,69.4,31.3c4.6,0.2,8.7,0.3,12.6,0.1c9-0.3,15.9-1.6,20.5-3.9
					c6.8-3.4,12.1-11,15.8-22.7c0.7-2.1,1.2-4.1,1.3-6C1066.2,634.9,1057.9,638.8,1043.9,639.5 M646.2,119.6h-7.3l0,0
					c-22.1,0.7-37.2,4.8-45.4,12.2c-1.6,1.5-3,3.2-4.2,5.1c0,0.1-0.1,0.2-0.1,0.2c0,0,0.1,0,0.1-0.1c-0.2,4.2,3.9,7.7,12.2,10.5
					c9.7,3,23.5,4.7,41.6,4.8c18.1-0.2,31.9-1.8,41.6-4.8c8.3-2.8,12.4-6.3,12.2-10.5c0,0,0,0,0,0.1c0-0.1,0-0.2,0-0.2
					c-1.2-1.9-2.6-3.6-4.2-5.1c-8.2-7.4-23.3-11.5-45.4-12.2C646.9,119.6,646.6,119.6,646.2,119.6z"/>
				<path class="st2" d="M647.5,640c30.3-0.2,54.6,0,72.8,0.6c39.2,1.4,73.2,8.2,102,20.4c8.7,3.7,19.1,8.9,31.3,15.6
					c6.9,3.8,17.1,9.5,30.8,17c24.9,13.3,46.4,21,64.7,23.3c9,1.1,18,1.1,27,0.1c9-1,17.8-3,26.3-6c4.9-1.8,8.9-3.7,12.2-5.8
					c4.1-2.6,7.3-5.6,9.5-9.1c1.7-2.6,3.1-5.8,4.1-9.6c-0.6,0-1.1,0.1-1.7,0.1c-23,1.2-49-8.9-78-30.2h-0.2
					c-31-19.7-66.7-35.9-107-48.5v-0.2C810.3,597.2,776,590,738.3,586c-36.4-4-67.5-5.7-93.1-5.2c0,0,0,0,0,0c-0.4,0-0.8,0-1.2,0
					c-0.3,0-0.7,0-1,0c0,0,0,0,0,0c-25.6-0.6-56.7,1.1-93.1,5.2c-37.7,4-71.9,11.3-102.8,21.8v0.2c-40.3,12.6-76,28.8-107,48.5h-0.2
					c-27.5,20.2-52.2,30.3-74.3,30.3c1,3.7,2.4,6.8,4.1,9.4c2.3,3.5,5.5,6.5,9.5,9.1c3.3,2.1,7.3,4,12.2,5.8c8.5,3,17.3,5,26.3,6
					c9,1,18,1,27-0.1c18.2-2.3,39.8-10,64.6-23.3c13.6-7.6,23.9-13.3,30.8-17c12.2-6.7,22.6-11.9,31.4-15.6
					c28.8-12.2,62.8-19,101.9-20.4C591.6,639.9,616.3,639.7,647.5,640z"/>
			</g>
		</g>
	</g>
	<g>
		<g>
			<g>
				<path class="st2" d="M323.5,828.2h0.2v-0.2C323.6,827.9,323.5,828,323.5,828.2 M972.7,828.2h0.2c0-0.2-0.1-0.2-0.2-0.2V828.2z"
					/>
			</g>
		</g>
	</g>
	<g>
		<g>
			<g>
				<path class="st2" d="M662,894.2c5.8,19.5,5.4,40.3,22.5,68.4c18.5,36,42,63.3,87.4,87.5c27.2,13.5,51.6,21.3,73.1,23.4
					c21.6,2.1,46.9,1.3,75.9-2.4c29-3.8,56-18.4,81-43.8c25-25.4,40.8-58.5,47.6-99.5c3.9-25.6,5.9-50.2,6.2-73.7l13-11.8
					c3.3-14,3.6-26.9,1.1-38.5c-1-9.2-141.6-14.6-421.8-16c0.2,0,0.4,0,0.8,0c-6.5,0.6-76.9,1.2-211.2,2.1
					c-134.3,0.8-204.4,5.4-210.2,13.9c-2.5,11.6-2.2,24.5,1.1,38.5l13,11.8c0.3,23.5,2.4,48.1,6.2,73.7c6.8,41,22.7,74.1,47.6,99.5
					c25,25.4,52,39.9,81,43.8c29,3.8,54.3,4.6,75.9,2.4s46-9.9,73.2-23.4c41.6-19.7,68.2-43.7,90.6-86.3
					c14.3-34.1,18.2-54.1,21.5-69.5C644.4,888.6,656,888.6,662,894.2z"/>
			</g>
		</g>
	</g>
	<g>
		<g>
			<g>
				<path class="st7" d="M921.2,736.5c-24-1.5-49.1-0.8-75.1,2c-26.3,2.7-46.2,5.7-59.6,8.8c-14.2,3.3-28.2,8.6-42,15.7l-0.2,0.2
					c-7.3,3.8-12.7,5.9-16.3,6.3c1.2-1.2,0.1-3-3.2-5.4l-0.2-0.2c-9.5-6.9-17.8-11.6-24.8-14.1h-0.2c-7-2.4-13.9-4.1-20.9-5.2h-0.2
					c-6.1-0.9-14-1.4-23.9-1.6c0,0-11.3,0-12.7,0c-9.8,0.2-17.8,0.7-23.9,1.6h-0.2c-7,1.1-13.9,2.8-20.9,5.2h-0.2
					c-7,2.4-15.2,7.1-24.8,14.1l-0.2,0.2c-3.3,2.4-4.4,4.2-3.2,5.4c-3.6-0.5-9.1-2.6-16.3-6.3L552,763c-13.8-7.1-27.8-12.3-42-15.7
					c-13.4-3.2-33.3-6.1-59.6-8.8c-26-2.9-51.1-3.5-75.1-2c-14.5,0.9-32.4,3.3-53.5,7c-0.2,0-0.4,0-0.7,0c-0.3,0-0.6,0.1-0.9,0.2
					c-10.1,2.1-21.2,4.8-33.4,8.2l0.2-0.2c-21.8,5.6-33.8,9.5-36.1,11.8c-6.5,2.3-9.8,12-9.8,29c0,2.9,0.1,5.5,0.2,7.8
					c0.4,6,1.3,10.3,2.8,12.8c1.1,4.5,8.8,10.8,23.1,18.8v24.2c0,12.4,0.5,24.2,1.4,35.2c0.5,5.7,1.1,12.7,1.8,20.8v-0.5
					c2.3,32.4,16.6,60.8,42.9,85.4c29,26.6,64.9,39.9,107.5,39.9c32.1,0,57.3-3.4,75.8-10.2c16.8-6.1,35.1-17.8,55.1-35.2
					c22.1-19.1,35.4-46.4,40-82v-0.2c2.4-19.7,4.1-32.6,5-38.8c9.7-3.8,15-14.4,15.9-31.8v-0.2c0.1-2.4-0.3-7.8-1.2-16.1l0.2,0.2
					c0-3.3,1.5-6.4,4.5-9.3c4.4-3.9,10.1-6,17.2-6.1H663c7.1,0.1,12.9,2.2,17.2,6.1c3,2.9,4.5,6,4.5,9.3l0.2-0.2
					c-0.9,8.3-1.3,13.7-1.2,16.1v0.2c0.9,17.4,6.2,28,15.9,31.8c0.9,6.2,2.6,19.1,5,38.8v0.2c4.5,35.6,17.9,62.9,40,82
					c20,17.4,38.3,29.1,55.1,35.2c18.5,6.8,43.7,10.2,75.8,10.2c42.7,0,78.5-13.3,107.6-39.9c26.3-24.5,40.6-53,42.9-85.4v0.5
					c0.7-8.2,1.3-15.1,1.8-20.8c0.9-11,1.3-22.8,1.3-35.2V832c14.4-8,22.1-14.3,23.2-18.8c1.4-2.4,2.3-6.6,2.7-12.5
					c0.2-2.4,0.2-5.2,0.2-8.2c0-17.1-3.2-26.8-9.8-29c-2.3-2.3-14.3-6.2-36.1-11.8l0.2,0.2c-12.1-3.3-23.2-6.1-33.4-8.2
					c-0.3-0.2-0.6-0.2-0.9-0.2c-0.3,0-0.5,0-0.7,0C953.6,739.7,935.7,737.4,921.2,736.5 M847.7,754.2c25.1-2.7,49.2-3.3,72.3-1.8
					c14.4,0.9,32,3.2,52.7,6.8h0.2c10,2.1,20.8,4.8,32.6,7.9c18.5,4.7,28.6,7.7,30.4,9.1c2.3,1.6,3.4,7.1,3.4,16.3
					c0,2.7-0.1,5.1-0.2,7c-0.2,3.3-0.7,5.6-1.3,6.8c-1.1,2.6-7.5,7-19.3,13.4c-2,1.1-3.8,2-5.5,3l0.2,33.1c0,12.1-0.5,23.5-1.4,34.3
					c-0.4,5.7-1,12.6-1.8,20.7c-2.1,28.3-14.7,53.2-37.9,74.7c-26,23.9-58.2,35.8-96.7,35.8c-29.8,0-53.2-3.1-70.3-9.3
					c-15.3-5.6-32-16.3-50.2-32.2c-19-16.8-30.6-40.8-34.7-71.9c-3-26-4.9-40.8-5.7-44.2c-0.5-2.3-2.9-4.5-7.3-6.8
					c-4.7-2.4-7.2-8.7-7.7-18.7c-0.1-1.3,0.2-6,0.9-14c0.6-8.2-2.6-15.5-9.5-22c-3.5-3.4-7.6-5.9-12.4-7.7
					c-4.6-1.7-9.7-2.6-15.3-2.8c-3.3-0.1-6.3-0.2-8.9-0.2c-0.8,0-1.7-0.1-2.7-0.2H650c-0.6,0-1.2,0-1.8,0s-1.1,0-1.6,0h-2.1
					c-0.9,0-1.8,0.1-2.7,0.2c-2.6,0-5.5,0.1-8.9,0.2c-6.2,0.2-11.7,1.2-16.6,3.2c-4.2,1.7-7.9,4.1-11.1,7.2
					c-6.9,6.5-10.1,13.8-9.5,22c0.7,8,1,12.7,0.9,14c-0.5,10-3,16.2-7.7,18.7c-4.4,2.3-6.8,4.5-7.3,6.8c-0.7,3.5-2.6,18.2-5.7,44.2
					c-4.1,31.1-15.7,55.1-34.7,71.9c-18.2,15.9-34.9,26.6-50.2,32.2c-17.1,6.2-40.6,9.3-70.4,9.3c-38.4,0-70.6-12-96.6-35.8
					c-23.2-21.5-35.8-46.4-37.9-74.7c-0.8-8-1.4-14.9-1.8-20.7c-0.9-10.8-1.4-22.2-1.4-34.3l0.2-33.1c-1.7-0.9-3.5-1.9-5.4-3
					c-11.8-6.4-18.2-10.8-19.3-13.4c-0.7-1.2-1.1-3.5-1.4-6.9c-0.1-2-0.2-4.3-0.2-7c0-9.2,1.1-14.7,3.4-16.3
					c1.8-1.4,11.9-4.4,30.4-9.1c11.8-3.2,22.7-5.8,32.6-7.9h0.2c20.7-3.6,38.3-5.9,52.7-6.8c23.1-1.5,47.2-0.9,72.3,1.8
					c25.4,2.7,44.7,5.6,57.7,8.6c13,3,25.8,7.8,38.3,14.3c2.4,1.3,4.7,2.4,6.9,3.5c7.1,3.3,12.8,5,16.9,5c0.2,0,0.8-0.4,2-1.2
					c2.1-1.3,5.6-3.8,10.7-7.5c8-5.9,15-9.9,20.9-12c6-2.1,12.1-3.7,18.1-4.5c5.4-0.8,12.6-1.2,21.6-1.3c1.4,0,2.7,0,4.1,0h8.6
					c8.9,0.1,16.1,0.6,21.6,1.3c6.1,0.9,12.1,2.4,18.1,4.5c5.9,2.1,12.9,6.1,20.9,12c4.5,3.2,7.8,5.6,9.9,7c1.7,1.1,2.6,1.7,2.8,1.7
					c4.6,0,10.9-2,19-6c1.5-0.7,3.1-1.6,4.8-2.5c12.6-6.5,25.3-11.3,38.3-14.3C803,759.8,822.3,756.9,847.7,754.2z"/>
				<path class="st4" d="M920,752.3c-23.1-1.5-47.2-0.9-72.3,1.8c-25.4,2.7-44.7,5.6-57.7,8.6c-13,3-25.8,7.8-38.3,14.3
					c-1.7,0.9-3.3,1.7-4.8,2.5c-8.1,4-14.4,6-19,6c-0.2,0-1.1-0.6-2.8-1.7c-2.1-1.4-5.4-3.8-9.9-7c-8-5.9-15-9.9-20.9-12
					c-6-2.1-12.1-3.7-18.1-4.5c-5.4-0.8-12.6-1.2-21.6-1.3H646c-1.4,0-2.7,0-4.1,0c-8.9,0.1-16.1,0.6-21.6,1.3
					c-6.1,0.9-12.1,2.4-18.1,4.5c-5.9,2.1-12.9,6.1-20.9,12c-5.1,3.7-8.6,6.2-10.7,7.5c-1.2,0.8-1.8,1.2-2,1.2
					c-4.2,0-9.8-1.7-16.9-5c-2.1-1-4.4-2.2-6.9-3.5c-12.6-6.5-25.3-11.3-38.3-14.3c-13-3-32.2-5.9-57.7-8.6
					c-25.1-2.7-49.2-3.3-72.3-1.8c-14.4,0.9-32,3.2-52.7,6.8h-0.2c-10,2.1-20.9,4.8-32.6,7.9c-18.5,4.7-28.6,7.7-30.4,9.1
					c-2.3,1.6-3.4,7.1-3.4,16.3c0,2.7,0.1,5,0.2,7c0.2,3.4,0.7,5.7,1.4,6.9c1.1,2.6,7.5,7,19.3,13.4c2,1.1,3.8,2,5.4,3l-0.2,33.1
					c0,12.1,0.5,23.5,1.4,34.3c0.4,5.7,1,12.6,1.8,20.7c2.1,28.3,14.7,53.2,37.9,74.7c26,23.9,58.2,35.8,96.6,35.8
					c29.8,0,53.2-3.1,70.4-9.3c15.3-5.6,32-16.3,50.2-32.2c19-16.8,30.6-40.8,34.7-71.9c3-26,4.9-40.8,5.7-44.2
					c0.5-2.3,2.9-4.5,7.3-6.8c4.7-2.4,7.2-8.7,7.7-18.7c0.1-1.3-0.2-6-0.9-14c-0.6-8.2,2.6-15.5,9.5-22c3.2-3.1,6.9-5.5,11.1-7.2
					c4.9-2,10.4-3.1,16.6-3.2c3.3-0.1,6.3-0.2,8.9-0.2c0.9-0.2,1.8-0.2,2.7-0.2h2.1c0.5,0,1,0,1.6,0s1.2,0,1.8,0h1.9
					c1,0.2,1.9,0.2,2.7,0.2c2.6,0,5.5,0.1,8.9,0.2c5.7,0.1,10.8,1.1,15.3,2.8c4.7,1.8,8.8,4.3,12.4,7.7c6.9,6.5,10.1,13.8,9.5,22
					c-0.7,8-1,12.7-0.9,14c0.5,10,3,16.2,7.7,18.7c4.4,2.3,6.8,4.5,7.3,6.8c0.7,3.5,2.6,18.2,5.7,44.2c4.1,31.1,15.7,55.1,34.7,71.9
					c18.2,15.9,34.9,26.6,50.2,32.2c17.1,6.2,40.5,9.3,70.3,9.3c38.4,0,70.7-12,96.7-35.8c23.2-21.5,35.8-46.4,37.9-74.7
					c0.8-8,1.4-14.9,1.8-20.7c0.9-10.8,1.4-22.2,1.4-34.3l-0.2-33.1c1.7-0.9,3.5-1.9,5.5-3c11.8-6.4,18.2-10.8,19.3-13.4
					c0.6-1.2,1.1-3.5,1.3-6.8c0.2-2,0.2-4.3,0.2-7c0-9.2-1.1-14.7-3.4-16.3c-1.8-1.4-11.9-4.4-30.4-9.1c-11.8-3.2-22.7-5.8-32.6-7.9
					h-0.2C952,755.5,934.5,753.2,920,752.3 M845.7,803.2c-8.5,3.5-17.9,11.1-28.2,22.9c-33,38.1-59.8,67.8-80.5,89
					c-2.1-8-3.8-22.1-5.2-42.2c29.8-34.3,44.9-53,45.4-56C803.5,806.4,826.3,801.8,845.7,803.2 M804.2,993.8
					c-24.4-11.8-42.6-26.5-54.7-44l140.6-152.9c38-0.2,67.1,4.1,87.4,12.9L804.2,993.8 M973,828.2h-0.2v-0.2
					C972.9,827.9,973,828,973,828.2 M304.2,909.6c-2.9-9.5-4.4-21.6-4.8-36.3c28.4-36.6,46.9-57.3,55.4-62.2
					c8.3-4.8,24.4-7.9,48.1-9.3c-1.5,2.6-14.6,17-39.2,43.2C339.1,871,319.2,892.5,304.2,909.6 M323.8,828.2h-0.2
					c0-0.2,0.1-0.2,0.2-0.2V828.2 M442.7,798.8c31.6-3.8,60.9,2.8,88,19.6L361.9,990.6c-20.4-9.5-37.3-26.2-50.6-49.9L442.7,798.8z"
					/>
				<path class="st5" d="M530.7,818.4c-27.1-16.8-56.4-23.3-88-19.6L311.3,940.7c13.3,23.7,30.2,40.4,50.6,49.9L530.7,818.4
					 M749.5,949.8c12.1,17.5,30.3,32.2,54.7,44l173.3-184c-20.3-8.8-49.4-13.1-87.4-12.9L749.5,949.8z"/>
				<path class="st8" d="M299.5,873.3c0.3,14.7,1.9,26.8,4.8,36.3c15-17.1,34.8-38.6,59.5-64.6c24.7-26.2,37.8-40.6,39.2-43.2
					c-23.7,1.4-39.8,4.5-48.1,9.3C346.4,816,327.9,836.7,299.5,873.3 M817.5,826.1c10.3-11.8,19.7-19.4,28.2-22.9
					c-19.4-1.4-42.2,3.2-68.5,13.6c-0.5,3-15.6,21.7-45.4,56c1.4,20.1,3.1,34.2,5.2,42.2C757.7,893.9,784.5,864.2,817.5,826.1z"/>
			</g>
		</g>
	</g>
</g>
<g id="Layer_6">
</g>
<g id="Layer_9">
</g>
<g id="Layer_10">
</g>
<g id="Layer_7">
</g>
</svg>
