<?xml version="1.0" encoding="utf-8"?>
<!-- Generator: Adobe Illustrator 27.2.0, SVG Export Plug-In . SVG Version: 6.00 Build 0)  -->
<svg version="1.1" id="Layer_1" xmlns="http://www.w3.org/2000/svg" xmlns:xlink="http://www.w3.org/1999/xlink" x="0px" y="0px"
	 viewBox="0 0 128 128" style="enable-background:new 0 0 128 128;" xml:space="preserve">
<style type="text/css">
	.st0{fill:#F2F2F2;}
	.st1{fill:#3F1F92;}
</style>
<circle class="st0" cx="64" cy="64" r="63.5"/>
<g>
	<g>
		<path class="st1" d="M96.2,57.6H43.9c-1,0-1.9-0.8-1.9-1.9s0.8-1.9,1.9-1.9h52.3c1,0,1.9,0.8,1.9,1.9S97.2,57.6,96.2,57.6z"/>
	</g>
	<g>
		<path class="st1" d="M96.2,74.1H43.9c-1,0-1.9-0.8-1.9-1.9s0.8-1.9,1.9-1.9h52.3c1,0,1.9,0.8,1.9,1.9S97.2,74.1,96.2,74.1z"/>
	</g>
	<path class="st1" d="M84.4,64c0,23.5-19,42.5-42.5,42.5c-1.3,0-2.5-0.1-3.7-0.2C59.9,104.4,77,86.2,77,64s-17-40.4-38.8-42.3
		c1.2-0.1,2.5-0.2,3.7-0.2C65.4,21.5,84.4,40.5,84.4,64z"/>
</g>
</svg>
