<?xml version="1.0" encoding="utf-8"?>
<!-- Generator: Adobe Illustrator 26.0.3, SVG Export Plug-In . SVG Version: 6.00 Build 0)  -->
<svg version="1.1" id="Layer_1" xmlns="http://www.w3.org/2000/svg" xmlns:xlink="http://www.w3.org/1999/xlink" x="0px" y="0px"
	 viewBox="0 0 128 128" style="enable-background:new 0 0 128 128;" xml:space="preserve">
<style type="text/css">
	.st0{fill:#4572F6;}
	.st1{fill:#FFFFFF;}
</style>
<g>
	<path class="st0" d="M127.9,60.5c-0.2-4.3-0.9-8.6-2-12.6c-0.6-2.4-1.4-4.8-2.3-7.1c-4.5-11.6-12.3-21.6-22.3-28.8
		c-6.5-4.7-14-8.2-22-10.2C74.4,0.6,69.3,0,64,0S53.6,0.6,48.7,1.8c-8.1,2-15.5,5.5-22,10.2c-10,7.2-17.8,17.1-22.3,28.8
		c-0.9,2.3-1.7,4.7-2.3,7.1c-1.1,4.1-1.7,8.3-2,12.6C0,61.7,0,62.8,0,64c0,1.2,0,2.4,0.1,3.6C0.3,71.8,1,75.9,2,79.9
		c0.6,2.4,1.4,4.8,2.3,7.1c4.5,11.7,12.4,21.8,22.4,29c6.5,4.7,14,8.2,22,10.2c4.9,1.2,10,1.8,15.3,1.8s10.4-0.6,15.3-1.8
		c8.1-2,15.5-5.5,22-10.2c10-7.2,17.9-17.3,22.4-29c0.9-2.3,1.6-4.7,2.3-7.1c1-4,1.6-8.1,1.9-12.3c0.1-1.2,0.1-2.4,0.1-3.6
		C128,62.8,128,61.7,127.9,60.5L127.9,60.5z"/>
	<path class="st1" d="M44.3,60.9l16.6-16.6c1.4-1.4,1.4-3.6,0-5c-1.4-1.4-3.6-1.4-5,0L39.2,55.8c-1.4,1.4-1.4,3.6,0,5
		C40.6,62.2,42.9,62.2,44.3,60.9z M83.5,66.9L66.9,83.5c-1.4,1.4-1.4,3.6,0,5s3.6,1.4,5,0l16.6-16.6c1.4-1.4,1.4-3.6,0-5
		C87.1,65.5,84.9,65.5,83.5,66.9z M85.4,37.6L37.6,85.4c-1.4,1.4-1.4,3.6,0,5c1.4,1.4,3.6,1.4,5,0l47.8-47.8c1.4-1.4,1.4-3.6,0-5
		S86.8,36.2,85.4,37.6z"/>
</g>
</svg>
