<?xml version="1.0" encoding="utf-8"?>
<!-- Generator: Adobe Illustrator 27.1.1, SVG Export Plug-In . SVG Version: 6.00 Build 0)  -->
<svg version="1.1" id="Layer_1" xmlns="http://www.w3.org/2000/svg" xmlns:xlink="http://www.w3.org/1999/xlink" x="0px" y="0px"
	 viewBox="0 0 128 128" style="enable-background:new 0 0 128 128;" xml:space="preserve">
<style type="text/css">
	.st0{fill-rule:evenodd;clip-rule:evenodd;fill:#6633EB;}
	.st1{fill:#FFFFFF;}
</style>
<g id="楕円形_1_のコピー_8">
	<g>
		<circle class="st0" cx="64" cy="64" r="63.5"/>
	</g>
</g>
<g id="TDPucj.tif">
	<g>
		<path class="st1" d="M35,67.7c-3.5,0-6.6-2-7.9-5.2c-1.4-3.5-0.7-6.8,1.9-9.4c8-8,16-16,24-24.1c1.6-1.6,3.6-2.5,6-2.6
			c3.4-0.1,6.7,2,8,5.2c1.3,3.3,0.9,6.5-1.6,9.1c-8.2,8.3-16.4,16.5-24.6,24.6C39.3,67,37.3,67.7,35,67.7z"/>
		<path class="st1" d="M60.3,93c0-2.4,0.8-4.4,2.5-6.1c8.1-8,16.1-16.1,24.2-24.1c2.5-2.5,6.3-3.2,9.5-1.8c3.3,1.5,5.3,4.7,5.1,8.3
			c-0.1,2.2-1,4-2.5,5.6C90.9,82.9,82.9,91,74.8,99c-2.6,2.6-6.3,3.3-9.5,1.8C62.1,99.2,60.4,96.6,60.3,93z"/>
		<path class="st1" d="M60.9,75.6c-3.7-0.3-6.4-2-7.8-5.3c-1.4-3.3-0.9-6.4,1.5-9c2.1-2.3,4.4-4.5,6.7-6.7c3.4-3.1,8.4-3,11.7,0.2
			c3.2,3.1,3.5,8.2,0.5,11.7c-2.2,2.4-4.6,4.7-7,7C65,75,63,75.5,60.9,75.6z"/>
	</g>
</g>
</svg>
