<?xml version="1.0" encoding="utf-8"?>
<!-- Generator: Adobe Illustrator 27.4.0, SVG Export Plug-In . SVG Version: 6.00 Build 0)  -->
<svg version="1.1" id="Layer_1" xmlns="http://www.w3.org/2000/svg" xmlns:xlink="http://www.w3.org/1999/xlink" x="0px" y="0px"
	 viewBox="0 0 128 128" style="enable-background:new 0 0 128 128;" xml:space="preserve">
<style type="text/css">
	.st0{fill:url(#SVGID_1_);}
	.st1{fill:url(#SVGID_00000047022824308224580340000018416100502267326646_);}
	.st2{fill:url(#SVGID_00000173143690145740384400000005748617082688200086_);}
</style>
<circle cx="64" cy="64" r="63.5"/>
<g>
	<linearGradient id="SVGID_1_" gradientUnits="userSpaceOnUse" x1="14.7591" y1="59.0578" x2="60.7448" y2="59.0578">
		<stop  offset="0" style="stop-color:#B0F96C"/>
		<stop  offset="0.7129" style="stop-color:#32DE4E"/>
	</linearGradient>
	<path class="st0" d="M43.3,54.3l5.1-4c-15.1-7.1-22.7,4.6-24.6,9.3c-1.6,3.8,0.3,14.9,7.7,18.7C16,74,14.8,63.7,14.8,63.7
		c0-9.9,8.5-23.8,23.8-23.8c15.3,0,22.2,10.5,22.2,10.5L43.3,54.3z"/>
	
		<linearGradient id="SVGID_00000137129419442564692690000004325249242951076743_" gradientUnits="userSpaceOnUse" x1="15.5093" y1="63.9993" x2="113.2299" y2="63.9993">
		<stop  offset="0" style="stop-color:#98F330"/>
		<stop  offset="0.5035" style="stop-color:#00C3C5"/>
		<stop  offset="0.9994" style="stop-color:#0063A6"/>
	</linearGradient>
	<path style="fill:url(#SVGID_00000137129419442564692690000004325249242951076743_);" d="M113.2,58c-0.3-0.5-7-10.3-20.9-10.3
		c-14.3,0-22.8,15.7-24.8,18.9c-2,3.3-12.7,21.4-28.2,21.4C26.4,88.1,18,78,15.5,69c7.7,12.1,21.6,10.5,21.6,10.5
		C49,79.5,56,68.8,59,64.8c3-4,12-24.9,30.4-24.9C107.6,39.9,113.1,57.5,113.2,58z"/>
	
		<radialGradient id="SVGID_00000023973089423278388320000002748980558409039271_" cx="98.2437" cy="78.3066" r="20.9786" gradientUnits="userSpaceOnUse">
		<stop  offset="0" style="stop-color:#00BBCD"/>
		<stop  offset="5.938673e-02" style="stop-color:#00BCC8"/>
		<stop  offset="0.3489" style="stop-color:#00C2B6"/>
		<stop  offset="0.6544" style="stop-color:#00C5AB"/>
		<stop  offset="1" style="stop-color:#00C6A8"/>
	</radialGradient>
	<path style="fill:url(#SVGID_00000023973089423278388320000002748980558409039271_);" d="M95.8,49.4c0,0,9.3,4.1,9.3,14.6
		S92.7,83.7,80.8,77l4.9-3.9l-17.4,4.1c0,0,6.5,10.9,21.2,10.9s23.8-11,23.8-23.5S95.8,49.4,95.8,49.4z"/>
</g>
</svg>
