<?xml version="1.0" encoding="utf-8"?>
<!-- Generator: Adobe Illustrator 26.2.0, SVG Export Plug-In . SVG Version: 6.00 Build 0)  -->
<svg version="1.1" id="Layer_1" xmlns="http://www.w3.org/2000/svg" xmlns:xlink="http://www.w3.org/1999/xlink" x="0px" y="0px"
	 width="128px" height="128px" viewBox="0 0 128 128" style="enable-background:new 0 0 128 128;" xml:space="preserve">
<style type="text/css">
	.st0{fill:#F5921E;}
	.st1{fill:#FBFCFA;}
	.st2{fill:#FEFEFE;}
	.st3{fill:#F5931E;}
</style>
<g>
	<path class="st0" d="M85.9,6.2c-0.9,1.7,0.2,2.5,2,3.1c1.2,0.4,1.9,0.5,2.5-0.8c0.6-1.3,1.5-1.4,2.7-0.6c2.1,1.3,4.2,2.5,6.3,3.7
		c1.1,0.6,1.4,1.3,0.5,2.3c-1.1,1.3-0.7,2.3,0.7,3c1.2,0.6,2.2,2.8,3.9,0.6c0.8-1.1,1.6-1,2.5,0.1c1.6,1.8,3.3,3.6,5,5.3
		c1,1,1,1.8-0.1,2.5c-1.8,1.2-0.7,2.2,0.1,3.4c0.9,1.4,1.8,1.3,2.9,0.4c1.1-0.9,1.8-0.3,2.3,0.7c1.2,2.1,2.3,4.3,3.6,6.4
		c0.7,1.2,0.7,2.1-0.8,2.6c-1.4,0.5-1.4,1.4-0.9,2.6c0.5,1.3,1.2,1.7,2.5,1.1c1.3-0.6,2.1,0,2.4,1.4c0.6,2.3,1.2,4.6,1.8,6.8
		c0.3,1.3,0.2,2.2-1.4,2.4c-2.2,0.2-1.5,1.9-1.4,3.2c0,1.4,0.5,2.3,2.1,2.1c1.4-0.2,2,0.4,1.9,1.9c-0.1,2.4-0.1,4.9,0,7.3
		c0,1.2-0.4,1.8-1.7,1.7c-1.4-0.2-2.4,0.3-2.3,1.8c0.1,1.5-1.5,3.6,1.4,4.1c1.4,0.2,1.6,1,1.2,2.2c-0.7,2.3-1.4,4.7-1.9,7
		c-0.3,1.5-1.1,1.7-2.2,1.2c-2-0.9-2.3,0.6-2.9,1.9c-0.7,1.4-0.4,2.2,1,2.8c1.1,0.5,1.4,1.1,0.7,2.3c-1.3,2-2.5,4.2-3.7,6.3
		c-0.7,1.3-1.5,1.8-2.8,0.7c-1.8-1.5-2.4,0.3-3.2,1.3c-0.8,1-2,2-0.3,3.3c1.2,0.9,1.1,1.7,0,2.7c-1.8,1.6-3.5,3.2-5.1,4.9
		c-1,1-1.8,1.2-2.7,0c-0.9-1.2-1.7-1.2-2.9-0.2c-1.1,0.9-2.1,1.6-0.9,3.2c0.8,1,0.3,1.8-0.7,2.4c-2.2,1.2-4.4,2.4-6.5,3.7
		c-1.1,0.7-1.9,0.5-2.3-0.7c-0.5-1.1-1-1.8-2.3-1.1c-1.1,0.5-2.3,0.8-1.6,2.5c0.6,1.4-0.1,2.2-1.5,2.5c-2.2,0.5-4.4,1.1-6.6,1.7
		c-1.3,0.4-2.1,0.2-2.3-1.3c-0.2-1.3-0.9-1.8-2.2-1.4c-1.2,0.4-3.3-0.5-3.1,2c0.2,1.7-0.6,1.9-2.1,1.9c-2.4-0.1-4.9-0.1-7.3,0
		c-1.2,0-1.7-0.4-1.5-1.5c0.2-1.6-0.5-2.1-2-2.2c-1.7,0-3.8-1-4.2,2c-0.1,0.6-0.8,0.6-1.4,0.5c-2.7-0.7-5.4-1.5-8-2.2
		c-1.2-0.3-1.1-1.1-0.8-2c0.7-1.8-0.6-2.1-1.7-2.7c-1.2-0.6-2.4-0.9-3,0.8c-0.5,1.2-1.2,1.1-2.1,0.5c-2.1-1.3-4.2-2.5-6.3-3.7
		c-1.3-0.7-1.8-1.5-0.7-2.8c0.6-0.7,0.5-1.4-0.3-1.9c-0.7-0.5-1.5-1.1-2.1-1.7c-0.8-0.8-1.4-0.7-2.1,0.1c-1,1.3-1.9,0.9-2.9-0.2
		c-1.6-1.7-3.2-3.5-4.9-5.1c-0.9-0.9-1.1-1.6,0-2.4c1.2-0.9,0.9-1.9,0.1-2.8c-0.8-0.9-1.3-2.4-2.9-1.1c-1,0.8-1.8,0.3-2.4-0.7
		c-1.2-2.2-2.4-4.4-3.6-6.6c-0.6-1.1-0.5-1.8,0.7-2.3c1.2-0.5,1.1-1.3,0.7-2.4c-0.4-1-0.7-2.1-2.2-1.5c-1.4,0.6-2-0.1-2.3-1.4
		c-0.6-2.3-1.1-4.6-1.8-6.9c-0.3-1.2-0.2-2,1.2-2.3c2-0.4,1.2-1.9,1-3c-0.1-1.1,0-2.6-1.9-2.3C1.4,69.6,0.9,69,1,67.7
		c0.1-2.5,0-5,0-7.5c0-1.1,0.2-1.9,1.5-1.7c1.5,0.2,2-0.6,2.1-1.9c0-0.6,0.1-1.3,0.2-1.9c0.3-1.2-0.1-2-1.3-2.1
		c-1.4-0.2-1.5-1-1.2-2.1c0.7-2.4,1.4-4.8,2-7.2c0.3-1.3,1-1.6,2.1-1.2c2.3,0.8,2.1-1.3,2.8-2.4c0.8-1.2,0.2-1.8-0.8-2.2
		C7,37,7.2,36.2,7.8,35.2c1.3-2.1,2.6-4.3,3.8-6.5c0.6-1.1,1.3-1.4,2.3-0.6c1,0.8,1.7,0.5,2.4-0.4c1-1.5,3.1-2.7,0.7-4.7
		c-0.7-0.5-0.2-1.2,0.3-1.6c2-1.9,4-3.8,6-5.8c0.9-0.9,1.5-0.2,2.1,0.4c0.7,0.8,1.4,1.4,2.4,0.3c0.8-0.9,2.9-1.2,1.5-3.1
		c-0.8-1.2-0.4-1.9,0.8-2.5c2.1-1.1,4.3-2.4,6.4-3.6c1.1-0.6,2-0.6,2.5,0.7c0.4,1.2,1.1,1.4,2.2,0.8c1-0.5,2.3-0.6,1.6-2.3
		c-0.5-1.4,0-2.1,1.5-2.5c2.2-0.5,4.3-1.1,6.4-1.7C52.1,1.9,53,2,53.3,3.6c0.3,1.9,1.7,1.3,2.9,1.2c1.2-0.1,2.6-0.1,2.3-1.9
		C58.3,1.3,59.2,1,60.5,1c2.4,0,4.9,0.1,7.3,0c1.2,0,1.9,0.4,1.7,1.7c-0.3,1.7,0.8,2,2.1,2.1c1.4,0,3.2,1.2,3.7-1.2
		c0.3-1.5,1-1.7,2.4-1.2c2.3,0.8,4.7,1.3,7,2C85.5,4.6,86.2,4.8,85.9,6.2z"/>
	<path class="st1" d="M64,115.7c-28.2,0.2-51.2-22.5-51.8-50.5C11.6,34.7,37,11.7,65.1,12.3c26.4,0.5,51.3,22.5,50.6,53
		C115.1,93.2,92.2,115.8,64,115.7z"/>
	<path class="st0" d="M64,16.1c25.7-0.4,48.6,21.2,47.9,49c-0.6,26.2-22.4,47.5-49.3,46.8c-25.1-0.7-46-21-46.6-46.8
		C15.4,37.5,38.2,15.7,64,16.1z"/>
	<path class="st2" d="M97.2,50.6c0.9,3-0.3,4.4-2.8,5.7C87.5,60,80.8,64,73.9,67.9c-1.2,0.7-1.5,1.4-1.4,2.8
		c0.4,6.7,0.4,13.5-0.8,20.2c-1,6-5.2,9.3-10.7,11.1c-4.9,1.6-9.8,2.2-14.5-0.4c-6.1-3.4-8-11.9-4.3-18.4c2.9-5.1,7.4-8.6,12.2-11.7
		c2-1.3,4.1-2.4,6.3-3.3c0.9-0.3,1.3-0.9,1.3-1.8c0-4.2,0-8.5,0-12.7c0-1.3-0.4-1.3-1.5-0.8c-4.2,1.9-8.3,3.8-12.5,5.6
		c-0.6,0.3-1.5,1.5-2.1,0.3c-0.4-1-0.6-2.4,0.6-3.2c0.3-0.2,0.6-0.4,0.9-0.5c7.7-4.5,15.4-8.9,23.1-13.4c0.6-0.3,1.2-0.9,1.9-0.4
		c0.6,0.4,0.3,1.2,0.2,1.8c-0.1,6-0.2,12-0.4,17.9c-0.1,1.5,0.2,1.5,1.4,0.9c6.2-3,12.4-5.9,18.6-8.9C93.9,52.2,95.5,51.4,97.2,50.6
		z"/>
	<path class="st3" d="M62.3,78.3c-0.2,3.2-0.5,6.6-1.7,9.9c-1.1,2.7-2.7,5-5.6,5.7c-3.9,0.9-7.2-2.4-6-6.3c1.8-6.1,6.4-9.9,12-12.5
		c1-0.5,1.4,0.1,1.3,1.1C62.3,76.8,62.3,77.4,62.3,78.3z"/>
</g>
</svg>
