<?xml version="1.0" encoding="utf-8"?>
<!-- Generator: Adobe Illustrator 27.1.1, SVG Export Plug-In . SVG Version: 6.00 Build 0)  -->
<svg version="1.1" id="Layer_1" xmlns="http://www.w3.org/2000/svg" xmlns:xlink="http://www.w3.org/1999/xlink" x="0px" y="0px"
	 viewBox="0 0 128 128" style="enable-background:new 0 0 128 128;" xml:space="preserve">
<style type="text/css">
	.st0{fill-rule:evenodd;clip-rule:evenodd;fill:#F2F2F2;}
	.st1{fill:#2A111A;}
	.st2{fill:#3C1A25;}
	.st3{fill:#421D2C;}
	.st4{fill:#BF987E;}
	.st5{fill:#886B5C;}
	.st6{clip-path:url(#SVGID_00000109718902995895195930000018386016594073930934_);}
	.st7{fill:#B54861;}
	.st8{fill:#D45C55;}
	.st9{fill:#B13F4D;}
	.st10{fill:#D88D80;}
	.st11{clip-path:url(#SVGID_00000109718902995895195930000018386016594073930934_);fill:#BABABA;}
	.st12{fill:#DB5A54;}
	.st13{fill:#BE967F;}
	.st14{fill:#886B5A;}
	.st15{fill:#D6D6D6;}
	.st16{fill:#FFFAFC;}
	.st17{fill:#EDEDED;}
	.st18{fill:#FFFFFD;}
	.st19{fill:#493137;}
	.st20{fill:#A34742;}
	.st21{fill:#F2726B;}
</style>
<g id="楕円形_1_のコピー_8">
	<g>
		<circle class="st0" cx="64" cy="64" r="63.5"/>
	</g>
</g>
<g>
	<g>
		<polygon class="st1" points="85.9,106.2 80.6,103.4 80.9,92.8 87,93.4 		"/>
		<polygon class="st2" points="100.4,97.9 85.9,106.2 85.9,96.6 100.4,88.3 		"/>
		<polygon class="st3" points="100.4,88.3 94.2,85.5 77.1,93.3 85.9,96.6 		"/>
	</g>
	<g>
		<polygon class="st1" points="69.3,115.4 49.5,104.1 58.2,98.1 70.3,102.6 		"/>
		<polygon class="st2" points="83.8,107.1 69.3,115.4 69.3,105.8 83.8,97.6 		"/>
		<polygon class="st3" points="83.8,97.6 77.5,94.8 60.2,101.7 69.3,105.8 		"/>
	</g>
	<polygon class="st4" points="55.6,101 43.8,107 43.8,98.1 55.6,92.1 	"/>
	<polygon class="st5" points="32.1,91.5 43.8,98.1 43.8,107 32.1,100.4 	"/>
	<g>
		<defs>
			<polygon id="SVGID_1_" points="65.3,91.2 30.4,72.3 30.4,84.5 29.2,85.3 29.2,90.2 47.4,101.1 55.4,97.2 55.3,101.1 64.9,105.8 
				100.6,86 100.6,72.3 			"/>
		</defs>
		<clipPath id="SVGID_00000116199798017953535430000009504519575311815601_">
			<use xlink:href="#SVGID_1_"  style="overflow:visible;"/>
		</clipPath>
		<g style="clip-path:url(#SVGID_00000116199798017953535430000009504519575311815601_);">
			<g>
				<polygon class="st7" points="28,70.9 64.9,90.9 64.9,107.4 26.2,91.7 				"/>
			</g>
			<g>
				<polygon class="st8" points="28.8,83.1 42.8,76.6 43.8,78.3 28,85.8 				"/>
			</g>
			<g>
				<polygon class="st8" points="37.8,89.8 46.1,103.8 60.2,97.2 51.8,83.1 				"/>
			</g>
			<g>
				
					<rect x="25.6" y="80" transform="matrix(0.907 -0.4212 0.4212 0.907 -30.1238 24.2406)" class="st9" width="28.4" height="0.5"/>
			</g>
			<g>
				
					<rect x="29.6" y="86.7" transform="matrix(0.907 -0.4212 0.4212 0.907 -32.543 26.5413)" class="st9" width="28.4" height="0.5"/>
			</g>
			<g>
				
					<rect x="43.5" y="98.1" transform="matrix(0.907 -0.4212 0.4212 0.907 -36.0582 33.4719)" class="st9" width="28.4" height="0.5"/>
			</g>
			<g>
				
					<rect x="57.6" y="78" transform="matrix(0.8644 -0.5028 0.5028 0.8644 -39.1308 41.7656)" class="st9" width="0.6" height="30.9"/>
			</g>
			<g>
				
					<rect x="42" y="69.3" transform="matrix(0.8614 -0.5079 0.5079 0.8614 -38.8132 33.7014)" class="st9" width="0.7" height="37.4"/>
			</g>
			<g>
				
					<rect x="37.9" y="71.7" transform="matrix(0.8614 -0.5079 0.5079 0.8614 -40.6348 31.9441)" class="st9" width="0.7" height="37.4"/>
			</g>
			<g>
				
					<rect x="36.4" y="95" transform="matrix(0.907 -0.4212 0.4212 0.907 -35.4205 30.1839)" class="st9" width="28.4" height="0.5"/>
			</g>
			<g>
				
					<rect x="22.1" y="75.4" transform="matrix(0.907 -0.4212 0.4212 0.907 -28.5023 22.3476)" class="st9" width="28.4" height="0.5"/>
			</g>
			<g>
				
					<rect x="23.5" y="78.7" transform="matrix(0.907 -0.4212 0.4212 0.907 -29.7389 23.232)" class="st9" width="28.4" height="0.5"/>
			</g>
			<g>
				
					<rect x="41.1" y="69.9" transform="matrix(0.8614 -0.5079 0.5079 0.8614 -39.2776 33.284)" class="st10" width="0.5" height="37.4"/>
			</g>
			<g>
				
					<rect x="50.3" y="71.1" transform="matrix(0.8614 -0.5079 0.5079 0.8614 -38.5979 38.1541)" class="st10" width="0.5" height="37.4"/>
			</g>
			<g>
				
					<rect x="15.9" y="77.6" transform="matrix(0.9055 -0.4244 0.4244 0.9055 -29.7758 22.0531)" class="st10" width="37.4" height="0.5"/>
			</g>
			<g>
				
					<rect x="24.5" y="91.4" transform="matrix(0.9055 -0.4244 0.4244 0.9055 -34.8193 26.991)" class="st10" width="37.4" height="0.5"/>
			</g>
			<g>
				
					<rect x="31.1" y="96.9" transform="matrix(0.9055 -0.4244 0.4244 0.9055 -36.5563 30.3207)" class="st10" width="37.4" height="0.5"/>
			</g>
		</g>
		<g style="clip-path:url(#SVGID_00000116199798017953535430000009504519575311815601_);">
			<g>
				<path class="st7" d="M101.7,70.9l-36.9,20v3.3c0,1.5,0,3,0,4.6c0,0.2,0,0.4,0,0.5v8.1l38.7-15.7L101.7,70.9z"/>
			</g>
			<g>
				<polygon class="st8" points="100.9,83.1 86.9,76.6 85.9,78.3 101.7,85.8 				"/>
			</g>
			<g>
				<polygon class="st8" points="91.9,89.8 83.6,103.8 69.5,97.2 77.9,83.1 				"/>
			</g>
			<g>
				
					<rect x="89.6" y="66.1" transform="matrix(0.4212 -0.907 0.907 0.4212 -20.7976 128.0253)" class="st9" width="0.5" height="28.4"/>
			</g>
			<g>
				
					<rect x="85.6" y="72.7" transform="matrix(0.4212 -0.907 0.907 0.4212 -29.1216 128.2343)" class="st9" width="0.5" height="28.4"/>
			</g>
			<g>
				<path class="st9" d="M64.8,94.7c0,0.2,0,0.4,0,0.6l19.9,9.3l0.2-0.5L64.8,94.7z"/>
			</g>
			<g>
				
					<rect x="56.4" y="93.1" transform="matrix(0.5028 -0.8644 0.8644 0.5028 -45.0453 108.5642)" class="st9" width="30.9" height="0.6"/>
			</g>
			<g>
				
					<rect x="68.7" y="87.6" transform="matrix(0.5079 -0.8614 0.8614 0.5079 -32.7842 118.5515)" class="st9" width="37.4" height="0.7"/>
			</g>
			<g>
				
					<rect x="72.8" y="90.1" transform="matrix(0.5079 -0.8614 0.8614 0.5079 -32.8719 123.3213)" class="st9" width="37.4" height="0.7"/>
			</g>
			<g>
				
					<rect x="78.8" y="81.1" transform="matrix(0.4212 -0.907 0.907 0.4212 -40.6202 126.8849)" class="st9" width="0.5" height="28.4"/>
			</g>
			<g>
				
					<rect x="93.1" y="61.5" transform="matrix(0.4212 -0.907 0.907 0.4212 -14.5994 128.5041)" class="st9" width="0.5" height="28.4"/>
			</g>
			<g>
				
					<rect x="91.7" y="64.7" transform="matrix(0.4212 -0.907 0.907 0.4212 -18.3401 129.1253)" class="st9" width="0.5" height="28.4"/>
			</g>
			<g>
				
					<rect x="69.7" y="88.3" transform="matrix(0.5079 -0.8614 0.8614 0.5079 -32.8478 119.727)" class="st10" width="37.4" height="0.5"/>
			</g>
			<g>
				
					<rect x="60.4" y="89.5" transform="matrix(0.5079 -0.8614 0.8614 0.5079 -38.43 112.332)" class="st10" width="37.4" height="0.5"/>
			</g>
			<g>
				
					<rect x="94.8" y="59.2" transform="matrix(0.4244 -0.9055 0.9055 0.4244 -15.7641 130.9294)" class="st10" width="0.5" height="37.4"/>
			</g>
			<g>
				
					<rect x="86.3" y="73" transform="matrix(0.4244 -0.9055 0.9055 0.4244 -33.1786 131.1137)" class="st10" width="0.5" height="37.4"/>
			</g>
			<g>
				<path class="st10" d="M64.6,89.7c0.1,0.2,0.1,0.4,0.2,0.7l32,15l0.2-0.5L64.6,89.7z"/>
			</g>
		</g>
		<polygon style="clip-path:url(#SVGID_00000116199798017953535430000009504519575311815601_);fill:#BABABA;" points="27.9,90.7 
			64.8,113.6 64.8,89.8 27.9,66.9 		"/>
	</g>
	<polygon class="st12" points="99.9,33.4 99.9,47.1 64.7,67.1 64.7,53.4 	"/>
	<polygon class="st13" points="99.9,47.1 99.9,73 64.7,92.8 64.7,67.1 	"/>
	<polygon class="st14" points="64.7,67.1 64.7,92.8 29.9,73 29.9,47.4 64.7,67.1 	"/>
	<polygon class="st15" points="102.6,73.4 95.2,83 94.3,82.5 90.9,87.8 89.1,87 84.7,94 80,92 79.3,94.5 74.9,93.3 74.5,94.8 
		67.1,93.5 64.8,95.3 64.8,88.4 64.9,88.5 99.9,69.4 102.3,68.8 	"/>
	<path class="st15" d="M64.8,88.4v6.9l0,0L41.3,80.7c0-2.9,1.4-9.1,1.8-10.9c0.4-1.8,0.4-12.6,0.4-12.6l5.1,1.1l0.6,11.4L64.8,88.4z
		"/>
	<polygon class="st16" points="49.7,58.3 47.5,59.9 47.5,71.2 64.9,90.9 102.3,68.8 99.8,67.7 64.9,87.6 49.8,69.4 	"/>
	<polygon class="st17" points="43.5,57.2 45.6,55.6 49.7,58.3 47.5,59.9 	"/>
	<path class="st18" d="M82.4,65.5v7.5l-4.3,2.6l-5.1,3V68C79.1,62.8,82.4,65.5,82.4,65.5z"/>
	<polygon class="st19" points="82.4,68.3 82.4,73.1 78.1,75.6 78.1,70.7 	"/>
	<path class="st18" d="M96.4,57.5v7.5l-4.3,2.6l-5.1,3V60C93.1,54.8,96.4,57.5,96.4,57.5z"/>
	<polygon class="st19" points="96.4,60.3 96.4,65.1 92.1,67.7 92.1,62.8 	"/>
	<polygon class="st20" points="72.6,57.2 72.6,62.6 84.3,69.2 84.3,64 	"/>
	<path class="st21" d="M91.4,46.4l11.2,6.8L84.3,64l-11.7-6.8C72.6,57.2,82.3,48,91.4,46.4z"/>
	<path class="st12" d="M102.6,58.3c0,0-11.7,3.8-18.3,10.9V64c0,0,7.6-8.3,18.3-10.8V58.3z"/>
	<polygon class="st21" points="65.1,13.6 29.9,33.6 64.7,53.4 99.9,33.4 	"/>
	<polygon class="st21" points="99.9,47.1 99.9,47.1 99.9,47.1 	"/>
	<polygon class="st20" points="64.7,53.4 64.7,67.1 64.7,67.1 29.9,47.4 29.9,33.6 42,40.5 	"/>
</g>
</svg>
