<?xml version="1.0" encoding="utf-8"?>
<!-- Generator: Adobe Illustrator 25.2.0, SVG Export Plug-In . SVG Version: 6.00 Build 0)  -->
<svg version="1.1" id="Layer_1" xmlns="http://www.w3.org/2000/svg" xmlns:xlink="http://www.w3.org/1999/xlink" x="0px" y="0px"
	 width="128px" height="128px" viewBox="0 0 128 128" style="enable-background:new 0 0 128 128;" xml:space="preserve">
<style type="text/css">
	.st0{fill:#1C2951;}
	.st1{fill:url(#SVGID_1_);}
	.st2{fill:url(#SVGID_2_);}
	.st3{fill:url(#SVGID_3_);}
	.st4{fill:url(#SVGID_4_);}
</style>
<circle class="st0" cx="64" cy="64" r="63.5"/>
<g>
	<linearGradient id="SVGID_1_" gradientUnits="userSpaceOnUse" x1="14.7496" y1="78.4916" x2="49.3301" y2="40.2639">
		<stop  offset="0" style="stop-color:#1AE684"/>
		<stop  offset="0.3248" style="stop-color:#19E482"/>
		<stop  offset="0.4715" style="stop-color:#16DD7C"/>
		<stop  offset="0.582" style="stop-color:#10D071"/>
		<stop  offset="0.6523" style="stop-color:#0AC366"/>
	</linearGradient>
	<path class="st1" d="M18.7,61l6.1-5.8c0.8-0.7,1.8-1.1,2.8-1.1h6.9c0.9,0,1.8-0.4,2.5-1.1l26.7-28.4l6.5,5.7L46.6,56
		c-0.7,0.8-1.7,1.5-2.7,1.4l-6.5-0.5c-0.8-0.1-1.7-0.1-2.3,0.5l-9.9,10.4L18.7,61z"/>
	<linearGradient id="SVGID_2_" gradientUnits="userSpaceOnUse" x1="32.9403" y1="84.9079" x2="68.0781" y2="46.1737">
		<stop  offset="0" style="stop-color:#1AE684"/>
		<stop  offset="0.3248" style="stop-color:#19E482"/>
		<stop  offset="0.4715" style="stop-color:#16DD7C"/>
		<stop  offset="0.582" style="stop-color:#10D071"/>
		<stop  offset="0.6523" style="stop-color:#0AC366"/>
	</linearGradient>
	<path class="st2" d="M38.1,79.9l15.6-17.5l9.3,0.3c0.9,0,1.8-0.3,2.4-1l18.4-20.2l-7.4-5.3l-19.6,22c-0.5,0.6-1.2,0.9-1.9,0.9
		l-9.5,0.1c-0.5,0-1,0.2-1.4,0.6L31.6,73.8L38.1,79.9z"/>
	<linearGradient id="SVGID_3_" gradientUnits="userSpaceOnUse" x1="47.508" y1="89.7628" x2="92.4305" y2="48.8228">
		<stop  offset="0" style="stop-color:#1AE684"/>
		<stop  offset="0.3248" style="stop-color:#19E482"/>
		<stop  offset="0.4715" style="stop-color:#16DD7C"/>
		<stop  offset="0.582" style="stop-color:#10D071"/>
		<stop  offset="0.6523" style="stop-color:#0AC366"/>
	</linearGradient>
	<path class="st3" d="M44.5,84.8l18-18.9c1-1,2.4-1.6,3.8-1.6h6.9c1.1,0,2.2-0.5,2.9-1.3L89.4,48l6.7,6L84,66.8
		c-0.7,0.7-1.6,1.1-2.6,1.1h-6.5c-1.4,0-2.8,0.6-3.8,1.6L51,91L44.5,84.8z"/>
	<linearGradient id="SVGID_4_" gradientUnits="userSpaceOnUse" x1="66.1809" y1="100.098" x2="101.6928" y2="61.9502">
		<stop  offset="0" style="stop-color:#1AE684"/>
		<stop  offset="0.4279" style="stop-color:#19E482"/>
		<stop  offset="0.6211" style="stop-color:#16DD7C"/>
		<stop  offset="0.7667" style="stop-color:#10D071"/>
		<stop  offset="0.8593" style="stop-color:#0AC366"/>
	</linearGradient>
	<path class="st4" d="M57.2,97.6l24.5-25.9c0.7-0.7,1.6-1.1,2.5-1.2l7.2-0.7c1-0.1,1.9-0.5,2.5-1.2l8.1-8.1l7.4,5.6l-6,6.2
		c-0.9,0.9-2.1,1.4-3.3,1.5c-0.4,0-0.8,0-1.2-0.1l-3.2-0.7c-1.9-0.4-3.9,0.2-5.2,1.7L64,103.4L57.2,97.6z"/>
</g>
</svg>
