<svg xmlns="http://www.w3.org/2000/svg" xmlns:xlink="http://www.w3.org/1999/xlink" viewBox="0 0 512 512"><defs><linearGradient id="Degradado_sin_nombre_64" x1="219.03628" y1="-14919.4161" x2="289.42687" y2="-15085.23862" gradientTransform="matrix(1, 0, 0, -1, 0, -14621.83745)" gradientUnits="userSpaceOnUse"><stop offset="0" stop-color="#f7d45c"/><stop offset="1" stop-color="#de3633"/></linearGradient><linearGradient id="Degradado_sin_nombre_64-2" x1="135.68579" y1="-14752.9502" x2="299.94407" y2="-14937.52993" xlink:href="#Degradado_sin_nombre_64"/></defs><g id="CIRCLE_OUTLINE_BLACK" data-name="CIRCLE OUTLINE BLACK"><circle cx="256" cy="256" r="256" fill="#fff"/><g id="b79de8c2-049e-425a-99d6-94a4a70f5dbf"><g id="b2416af4-ebd2-430f-8205-47ebd4138157"><ellipse cx="252.67284" cy="279.3001" rx="179.35654" ry="179.58781" fill="#f2e373"/><path d="M325.55258,260.69249,80.48459,333.7899c11.18088,35.62376,34.0051,68.4863,68.58149,92.77954,85.33922,59.849,191.78879,34.386,258.52041-37.07917,1.42822-1.537,0-4.08062-1.93149-3.21009a65.37128,65.37128,0,0,1-40.23484,5.00555,64.31044,64.31044,0,0,1-51.10286-50.99406,65.28983,65.28983,0,0,1,45.70287-75.31452Z" fill-rule="evenodd" fill="url(#Degradado_sin_nombre_64)"/><path d="M297.24673,246.43756a112.47354,112.47354,0,0,0,14.05091-6.95065A111.04705,111.04705,0,0,1,449.19515,261.631a1.97229,1.97229,0,0,1-1.93151,3.19649c-30.55017-6.43376-63.48072-7.69876-88.56289.50327-30.23734,9.91588-52.42226,31.43433-67.779,58.13515C268.424,362.61263,259.161,373.6847,222.81637,387.858,159.48525,412.58654,100.398,390.184,80.4982,333.88512a181.07045,181.07045,0,0,1,89.33821-214.57228c21.94009-11.61615,48.54568-21.40962,70.82583-27.857,21.47762-6.13452,58.0263-15.04386,67.45253-38.16734a2.13552,2.13552,0,0,1,4.08061.58489c3.76777,27.32651-2.48917,39.77238-18.17233,54.5306-17.00255,16.00961-37.99051,23.3003-56.81573,34.862-28.71391,19.04287-37.81368,53.8233-18.77082,82.53722,11.31689,17.07057,30.591,26.12953,50.84444,26.12953a77.28637,77.28637,0,0,0,18.43077-2.28513A71.49311,71.49311,0,0,0,297.24673,246.43756Z" fill-rule="evenodd" fill="url(#Degradado_sin_nombre_64-2)"/></g></g></g></svg>