<?xml version="1.0" encoding="UTF-8"?><svg id="Layer_1" xmlns="http://www.w3.org/2000/svg" viewBox="0 0 128 128"><defs><style>.cls-1{fill:#f8b939;}.cls-2{fill:#f2f2f2;}.cls-3{fill:#98e3e3;}.cls-4{fill:#34ccca;}.cls-5{fill:#33ccca;}.cls-6{fill:#2bcbc9;}.cls-7{fill:#36ccca;}.cls-8{fill:#32cbc9;}</style></defs><circle class="cls-2" cx="64" cy="64" r="63.5"/><g id="K2m37k"><g><path class="cls-1" d="m101.86,51.12c0,.21,0,.43,0,.64-.18,7.34-1.96,9.57-9.1,11.55-9.71,2.69-18.46.91-26.45-5.26-5.22-4.03-10.85-7.16-17.7-7.66-7.92-.58-15.06,1.18-21.45,5.95-2.81,2.1-2.86,2.03-3.2-1.32-2.1-20.61,11.71-38.91,31.92-42.52,22.01-3.93,42.56,11.06,45.73,33.08.26,1.82.2,3.69.3,5.54-.02,0-.04,0-.06,0Z"/><path class="cls-8" d="m96.19,72.28c-11.74,4.33-22.29,2.01-31.9-5.65-5.33-4.25-11.38-6.63-18.24-6.6-6.77.03-12.79,2.28-18.07,6.5-.66.53-1.36,1.1-2.13,1.38-1.09.41-2.25.48-3.02-.73-.79-1.24-.26-2.29.7-2.98,4.6-3.32,9.2-6.57,14.98-7.75,9.36-1.9,18.01-.61,25.99,4.8,3.05,2.07,5.91,4.48,9.27,6.03,9.17,4.23,17.93,3.32,26.23-2.37.47-.32.91-.69,1.41-.96,1.09-.6,2.08-.39,2.83.58.75.98.75,1.96-.21,2.85-1.58,1.45-3.42,2.53-5.22,3.67-.75.66-1.82.63-2.59,1.23Z"/><path class="cls-5" d="m50.89,90.9c0,7.04,0,14.08,0,21.12,0,.71-.02,1.42-.14,2.12-.24,1.5-1.19,2.27-2.68,2.14-1.38-.12-1.89-1.1-1.87-2.4,0-.28-.01-.57-.01-.85-.09-14.22-.18-28.43-.25-42.65,0-1.06.15-2.12.28-3.17.15-1.15.88-1.73,2.02-1.81,1.23-.08,2.1.47,2.42,1.64.2.74.22,1.54.22,2.32.02,7.18,0,14.36,0,21.54Z"/><path class="cls-5" d="m79.65,92.6c0,3.63,0,7.25,0,10.88,0,1.74-.5,3.15-2.49,3.35-1.41.14-2.59-1.34-2.6-3.29-.04-7.25-.02-14.51-.01-21.76,0-1.78.76-3.09,2.59-3.37,1.42-.22,2.49,1.26,2.51,3.32.03,3.63,0,7.25,0,10.88Z"/><path class="cls-5" d="m36.42,79.67c0-3.48,0-6.96,0-10.44,0-.86.03-1.7.47-2.48.47-.84,1.23-1.19,2.13-1.12.81.06,1.45.48,1.76,1.33.35.95.45,1.92.45,2.93,0,6.68,0,13.36,0,20.04,0,.5.04,1.02-.1,1.48-.36,1.15-.65,2.45-2.3,2.29-1.64-.15-2.37-1.19-2.39-2.72-.04-3.77-.01-7.53-.02-11.3Z"/><path class="cls-4" d="m55.35,79.9c0-2.13-.04-4.27.02-6.4.02-.91.19-1.83.38-2.73.2-.94.91-1.39,1.82-1.58.98-.21,1.69.28,2.18,1.01.35.51.64,1.16.67,1.77.28,5.25.31,10.51-.01,15.76-.09,1.4-.69,2.73-2.42,2.71-1.66-.02-2.45-1.18-2.52-2.65-.12-2.62-.03-5.26-.03-7.89-.02,0-.05,0-.07,0Z"/><path class="cls-5" d="m31.71,81.28c0,2.55.02,5.1,0,7.65-.02,1.64-.53,2.98-2.47,3.07-1.95.09-2.44-1.4-2.46-2.83-.1-5.17-.09-10.35.03-15.52.03-1.41.48-2.91,2.39-2.95,1.41-.03,2.5,1.45,2.52,3.34.02,2.41,0,4.82,0,7.23Z"/><path class="cls-4" d="m88.99,91.89c0,3.12-.05,6.25.02,9.37.04,1.71-.67,2.91-2.32,2.95-1.63.04-2.3-1.36-2.31-2.8-.06-6.39-.05-12.78-.02-19.17,0-1.6.76-2.86,2.52-2.78,1.64.08,2.17,1.25,2.13,2.85-.07,3.19-.02,6.39-.02,9.58Z"/><path class="cls-4" d="m98.82,83.84c0,1.35.02,2.69,0,4.04-.04,1.6-.86,2.6-2.49,2.53-1.48-.06-2.28-.97-2.27-2.53.02-2.69,0-5.39,0-8.08,0-1.57.72-2.7,2.35-2.66,1.52.04,2.44,1,2.42,2.65-.02,1.35,0,2.69,0,4.04Z"/><path class="cls-7" d="m69.82,79.24c0,.78.06,1.56-.02,2.33-.13,1.39-.97,2.27-2.34,2.21-1.24-.05-2.08-.82-2.07-2.21,0-1.48,0-2.97,0-4.45,0-1.46.72-2.24,2.21-2.23,1.46.01,2.21.76,2.22,2.23,0,.71,0,1.41,0,2.12Z"/><path class="cls-3" d="m96.19,72.28c.62-.92,1.64-1,2.59-1.23-.58,1.02-1.64,1.01-2.59,1.23Z"/><path class="cls-6" d="m88.17,101.2v-19.35c.07,0,.14,0,.21,0v19.44c-.07-.03-.14-.06-.21-.09Z"/></g></g></svg>