<svg id="Layer_1" xmlns="http://www.w3.org/2000/svg" viewBox="0 0 32 32"><style>.st1{fill:#fff}</style><circle cx="16" cy="16" r="16" fill="#34a4bd"/><path class="st1" d="M15.8 20.4c-1.8 0-3.6-.7-5-2.1C9.6 17 9 15.4 9 13.7V7.4c0-.1 0-.2.1-.2V7c.1-.1.2-.2.4-.3.2 0 .3 0 .4.1l1.7 1.8.1-.1c2.7-2.6 7-2.4 9.6.3 1.2 1.3 1.8 2.9 1.8 4.6v6.3c0 .2-.1.4-.3.5-.2.1-.4 0-.5-.1l-1.8-1.8c0 .1-.1.1-.1.1-1.3 1.4-3 2-4.6 2zM9.9 8.3v5.3c0 1.5.5 2.8 1.6 4 2.2 2.3 5.7 2.5 8 .4L9.9 8.3zm2.7.8l9.5 9.5v-5.1c0-1.5-.5-2.8-1.6-4-2.1-2.2-5.6-2.4-7.9-.4zM9.4 25c-.3 0-.5-.2-.5-.5v-4c0-.3.2-.5.5-.5s.5.2.5.5v4c0 .3-.2.5-.5.5zM16 27.3c-.3 0-.5-.2-.5-.5v-3.9c0-.3.2-.5.5-.5s.5.2.5.5v3.9c0 .3-.2.5-.5.5zM22.6 25c-.3 0-.5-.2-.5-.5v-2.8c0-.3.2-.5.5-.5s.5.2.5.5v2.8c0 .3-.2.5-.5.5z"/></svg>