<svg xmlns="http://www.w3.org/2000/svg" viewBox="0 0 512 512"><g id="CIRCLE_OUTLINE_BLACK" data-name="CIRCLE OUTLINE BLACK"><circle cx="256" cy="256" r="256"/><path d="M166.18736,153.64161h69.48987v-40.453h-95.6947A14.24975,14.24975,0,0,0,125.732,127.4391v26.20251h.01391l-.00464,81.82455H104.48147v40.453h21.25517l-.00463,83.66618h0v26.20018a14.24826,14.24826,0,0,0,14.25052,14.25053h95.6947V359.58537H166.17808Z" fill="#fff"/><path d="M407.51853,275.91919v-40.453H386.34222l.00463-83.05153h0V126.21445a14.24826,14.24826,0,0,0-14.25052-14.25053H276.40627v40.45071h69.49451l-.01392,205.94376H276.40627v40.453h95.69006a14.24975,14.24975,0,0,0,14.25052-14.25053V358.35839h-.01391l.00464-82.4392Z" fill="#fff"/><path d="M314.94114,254.46918a59.45374,59.45374,0,1,0-59.45141,59.45142A59.52033,59.52033,0,0,0,314.94114,254.46918Zm-59.45141,21.45a21.45,21.45,0,1,1,21.45-21.45A21.47638,21.47638,0,0,1,255.48973,275.91919Z" fill="#fff"/></g></svg>