<?xml version="1.0" encoding="UTF-8"?><svg id="Layer_1" xmlns="http://www.w3.org/2000/svg" viewBox="0 0 128 128"><defs><style>.cls-1{fill:#f0f0f0;}.cls-2{fill:#d9d9d9;}.cls-3{fill:#082a48;}</style></defs><circle class="cls-1" cx="64" cy="64" r="63.5"/><g id="PENDLE"><path class="cls-2" d="m127.5,64c0,32.62-24.59,59.48-56.24,63.07.07-.89.1-1.81.1-2.72,0-18.21-13.82-33.2-31.53-35.06-1.23-.13-2.47-.2-3.74-.2-1.35,0-2.67.08-3.98.23-8.1.9-15.37,4.56-20.86,10.01C4.46,89.24.5,77.09.5,64,.5,40.57,13.2,20.08,32.11,9.09c2.47-1.45,5.05-2.73,7.72-3.82,7.45-3.07,15.61-4.76,24.17-4.76,35.07,0,63.5,28.43,63.5,63.5Z"/><path class="cls-3" d="m71.36,124.36c0,.91-.04,1.83-.1,2.72-2.39.28-4.8.42-7.26.42-21.98,0-41.36-11.17-52.75-28.16,6.38-6.33,15.16-10.24,24.85-10.24,19.47,0,35.27,15.78,35.27,35.26Z"/><path class="cls-3" d="m39.83,5.27v98.84h-7.72V9.09c2.47-1.45,5.05-2.73,7.72-3.82Z"/></g></svg>