<svg id="Layer_1" xmlns="http://www.w3.org/2000/svg" viewBox="0 0 32 32"><style>.st1{fill:#f5bb00}</style><circle cx="16" cy="16" r="16" fill="#231f20"/><path class="st1" d="M27 9.1l-.5 1.3-.2.7c-.1.3-.3.5-.5.6l-6.4 3.5-1.6.9c.2-.4.3-.8.7-1.1l6.4-4.4 1.9-1.3.2-.2zM5 9.1l1.7 1.2 5.4 3.8 1.4 1c.1.1.3.2.3.4l.4.7H14l-8.1-4.5-.2-.2c-.1-.8-.4-1.5-.7-2.2v-.2zM16.9 24.1l-.2-1.6-.4-2.6-.1-.9V18.7c.2-.6.7-.9 1.3-1.2l7.2-3 .2-.1-.3.9-.4.5-4.1 1.6-3.4 1.3c-.2.1-.2.1-.2.3l1 4.2-.1.3-.5.6zM17 17.5l.5-.8.2-.1 6.6-3.5 1.5-.8.2-.1v.2l-.5 1.5-.2.2-4.1 1.8-2.1.9-2.1.7zM13.4 16.9l-1.6-.7-4.9-2.1c-.1-.1-.2-.1-.2-.3l-.6-1.6.2.1 5.2 2.8 2.3 1.3c-.2 0-.2.3-.4.5zM12.9 17.9l-2.1-.8-3.2-1.2c-.1 0-.2-.1-.2-.2l-.4-1c0-.1.1 0 .1 0l6 2.5-.1.2-.1.5zM12.9 17.9l.2-.5.1-.2 2 .8.2.1.1.2c.4.4.4.9.3 1.5l-.6 4.1v.3l-.6-.5c-.1-.1 0-.2 0-.2l.9-4.2c0-.2 0-.3-.2-.4l-2.4-1zM16.4 24.3c0 .2-.3.5-.4.6h-.1c-.2-.2-.4-.3-.4-.7l.2-2 .2-2.1v-.2l.1-.1c.1 0 0 .1 0 .1l.2 2.7.2 1.7zM16 17.1l.5-1.1.4.5v.1l-.9 1.9-.9-1.9v-.1c.1-.1.2-.4.4-.4l.2.4.3.6z"/><path class="st1" d="M13.4 16.9l.4-.6.1.1c.6.1.8.7 1.1 1.2l-1.6-.7zM16 16.2l-.4-.8v-.2l.3-.3s.1-.1.1 0c.4.3.4.3.1.8.1.3 0 .4-.1.5z"/></svg>