<?xml version="1.0" encoding="utf-8"?>
<!-- Generator: Adobe Illustrator 25.4.1, SVG Export Plug-In . SVG Version: 6.00 Build 0)  -->
<svg version="1.1" id="Layer_1" xmlns="http://www.w3.org/2000/svg" xmlns:xlink="http://www.w3.org/1999/xlink" x="0px" y="0px"
	 width="128px" height="128px" viewBox="0 0 128 128" style="enable-background:new 0 0 128 128;" xml:space="preserve">
<style type="text/css">
	.st0{fill:#5164F3;}
	.st1{fill:url(#SVGID_1_);}
</style>
<g>
	<circle class="st0" cx="64" cy="64" r="63.5"/>
	<linearGradient id="SVGID_1_" gradientUnits="userSpaceOnUse" x1="64" y1="104.3981" x2="64" y2="21.4783">
		<stop  offset="0" style="stop-color:#5CB445"/>
		<stop  offset="1" style="stop-color:#7CEE59"/>
	</linearGradient>
	<path class="st1" d="M25.5,52.7c0,0,3.4,1.5,5.3,6c4,9.4,10.5,11.5,18.1,9.5c3.4-0.7,4.5-6.6,5.6-5.4c8.6,10.2,4,29.9,3.3,36.7
		c-0.5,4.3,7.7,10.9,10.8,0c-1.1-12.7-3.6-35.5,5.7-42.3C78.8,57,89.1,58,97.5,43.7c2.6-6.3,2.9-10.5,3-12.3c0.5-6.9,2-7.7,2-7.7
		c-1.3-2.5-18.1-2.7-29.3,19.2c-1.9,4.2-2.2,6.1-2.9,8.8c-6,13.8-4.7,18.5-6.8,19.5c-1.1-0.1-1-1.3-1.8-3.4
		C56.5,57.1,36.2,44.2,25.5,52.7z"/>
</g>
</svg>
