<?xml version="1.0" encoding="utf-8"?>
<!-- Generator: Adobe Illustrator 25.2.0, SVG Export Plug-In . SVG Version: 6.00 Build 0)  -->
<svg version="1.1" id="Layer_1" xmlns="http://www.w3.org/2000/svg" xmlns:xlink="http://www.w3.org/1999/xlink" x="0px" y="0px"
	 width="128px" height="128px" viewBox="0 0 128 128" style="enable-background:new 0 0 128 128;" xml:space="preserve">
<style type="text/css">
	.st0{fill:url(#SVGID_1_);}
	.st1{fill:#FFFFFF;}
</style>
<linearGradient id="SVGID_1_" gradientUnits="userSpaceOnUse" x1="64" y1="127.5" x2="64" y2="0.5">
	<stop  offset="0" style="stop-color:#4F37A3"/>
	<stop  offset="0.1938" style="stop-color:#5338A3"/>
	<stop  offset="0.3722" style="stop-color:#5E3BA1"/>
	<stop  offset="0.5446" style="stop-color:#70409F"/>
	<stop  offset="0.7133" style="stop-color:#8B479B"/>
	<stop  offset="0.8777" style="stop-color:#AC5097"/>
	<stop  offset="0.9986" style="stop-color:#CA5893"/>
</linearGradient>
<circle class="st0" cx="64" cy="64" r="63.5"/>
<path class="st1" d="M63.7,75.8c0.7,4,2.2,7.7,4,11.3c0.2,0.4,0.5,0.8,0.7,1.2c3.8,6.3,8.4,7.9,15.2,5.1c3.9-1.6,7.3-3.8,9.9-7.2
	c0.2-0.2,0.4-0.4,0.6-0.6c1.6-1.6,3.4-1.9,4.7-1c1.4,0.9,1.7,2.6,0.8,4.7c-0.4,0.9-0.7,1.8-1.3,2.4c-5.4,6-11.8,10.5-19.9,12
	c-6,1.2-10.7-1.1-14.6-5.4c-4.4-4.9-7-10.9-9.3-17c-0.6-1.6-1.1-3.2-2-4.8c-0.6,1.6-1.2,3.3-1.8,4.9c-2.3,5.7-4.6,11.5-7.1,17.2
	c-0.7,1.5-1.9,2.8-3,4c-2.3,2.5-5.6,3.1-8.2,1.6c-2.1-1.2-3.3-4.3-2.2-7.4c1-2.8,2.4-5.5,3.8-8.1c5.2-9.5,10.3-19.1,15.6-28.5
	C52,56,55,52.1,57.7,48.1c0.6-0.9,1.5-1.6,2.4-2.3c1.3-1.1,2.8-1.4,4.2-0.6c1.5,0.8,1.9,2.4,1.5,4c-0.6,2.3-1.4,4.7-2.3,6.9
	c-1.4,3.5-3,6.9-4.7,10.6c1,0,1.9,0.1,2.7,0c10.4-1.6,17.3-7.4,20.8-17.2c2.8-7.8-1-14.6-9.1-16.7c-6.8-1.7-13.5-1.1-19.9,1.6
	c-4.3,1.8-7.2,5.1-9.6,9c-1.4,2.3-2.8,4.7-4.3,6.9c-1.4,2-3.3,3.2-5.9,3c-3.7-0.2-5.7-2.4-5.4-6.1c0.4-4.5,2.8-7.9,5.8-11
	c6-6.3,13.4-10,21.8-12c8.3-2,16.4-1.9,24.5,0.8C91,28.8,97.3,39,95.2,49.8c-1.4,7.2-5.8,12.5-11.5,16.8c-5.6,4.3-11.9,7.2-18.8,8.8
	C64.6,75.5,64.2,75.7,63.7,75.8z"/>
</svg>
