<svg id="Layer_1" data-name="Layer 1" xmlns="http://www.w3.org/2000/svg" viewBox="0 0 128 128"><defs><style>.cls-1{fill:#f00037;}.cls-2{fill:#fff;}</style></defs><circle class="cls-1" cx="64" cy="64" r="63.5"/><path class="cls-2" d="M44.31,72.68A20.69,20.69,0,0,1,56.76,46.82a20.56,20.56,0,0,1,11.17-.92A20.68,20.68,0,0,1,81.61,77a20.67,20.67,0,0,1-26.23,8A20.65,20.65,0,0,1,44.91,74.33a9.69,9.69,0,0,1-.38-1.07C44.45,73.07,44.41,72.87,44.31,72.68Z"/><path class="cls-2" d="M47.71,107.79a43.09,43.09,0,0,1-9.92-5.43A44.63,44.63,0,0,1,21.1,53.75a42.33,42.33,0,0,1,6.61-13.48,1.53,1.53,0,0,0,.14-2,7.53,7.53,0,0,1,1.78-9.46,7.34,7.34,0,0,1,7.64-1.39,7.7,7.7,0,1,1-6,14.15c-.35-.16-.5-.1-.72.2a41.42,41.42,0,0,0-7.94,26.56,41.4,41.4,0,0,0,45.68,39.1,39.78,39.78,0,0,0,14-4c.14-.07.28-.12.42-.18s.47-.21.69-.34a46.13,46.13,0,0,0,6.25-4.11,41.8,41.8,0,0,0,11.26-13.7c.2-.34.37-.69.54-1a43.69,43.69,0,0,0,3.14-9.45,42.33,42.33,0,0,0,.76-10.83,41.12,41.12,0,0,0-2.76-12.63,2.86,2.86,0,0,0-.21-.58,42.09,42.09,0,0,0-6.19-10.4,41.61,41.61,0,0,0-10-8.9A40.93,40.93,0,0,0,73.75,26a41.42,41.42,0,0,0-9.27-1.15c-.45,0-.54-.14-.52-.55,0-.74,0-1.48,0-2.21,0-.38.08-.48.46-.48a44.12,44.12,0,0,1,8.73,1,43.46,43.46,0,0,1,14,5.55,44.73,44.73,0,0,1,15.57,16,43.45,43.45,0,0,1,5.65,17.71,44.5,44.5,0,0,1-17.13,39.73A43.7,43.7,0,0,1,76.71,109a44.92,44.92,0,0,1-28.43-1A5.59,5.59,0,0,0,47.71,107.79Z"/><path class="cls-2" d="M101.42,84a1.91,1.91,0,0,1-.54,1A2.72,2.72,0,0,1,101.42,84Z"/><path class="cls-2" d="M83.37,102.88a1,1,0,0,1-.69.34A1.09,1.09,0,0,1,83.37,102.88Z"/><path class="cls-2" d="M102.35,50.54a.56.56,0,0,1,.21.58A.75.75,0,0,1,102.35,50.54Z"/><path class="cls-2" d="M44.31,72.68a.62.62,0,0,1,.22.58A.73.73,0,0,1,44.31,72.68Z"/><path class="cls-2" d="M47.71,107.79a.57.57,0,0,1,.57.22A.76.76,0,0,1,47.71,107.79Z"/><path class="cls-1" d="M39.14,34.67a4.52,4.52,0,1,1-4.5-4.53A4.56,4.56,0,0,1,39.14,34.67Z"/></svg>