<?xml version="1.0" encoding="utf-8"?>
<!-- Generator: Adobe Illustrator 25.2.3, SVG Export Plug-In . SVG Version: 6.00 Build 0)  -->
<svg version="1.1" id="Layer_1" xmlns="http://www.w3.org/2000/svg" xmlns:xlink="http://www.w3.org/1999/xlink" x="0px" y="0px"
	 width="128px" height="128px" viewBox="0 0 128 128" style="enable-background:new 0 0 128 128;" xml:space="preserve">
<style type="text/css">
	.st0{fill:#16181F;}
	.st1{fill:#FFFFFF;}
</style>
<circle class="st0" cx="64" cy="64" r="63.5"/>
<g>
	<path class="st1" d="M22.7,27.8v72.5h67.1v-8.1H30.8V35.9h59.1v-8.1H22.7z"/>
	<path class="st1" d="M96.5,55.6c0-1.7-0.7-3.2-2-4.5c-1.3-1.3-3.2-1.9-5.6-1.9c-2,0-3.6,0.4-4.8,1.3c-1.2,0.9-1.8,2-1.8,3.4
		c0,0.7,0.1,1.4,0.4,2c0.3,0.6,0.8,1.1,1.5,1.6c0.7,0.5,1.6,0.9,2.8,1.3c1.1,0.4,2.6,0.7,4.4,1c4.5,0.8,7.9,2.2,10.3,4.1
		c2.4,1.9,3.6,4.8,3.6,8.6v0.7c0,2-0.4,3.8-1.1,5.5c-0.7,1.6-1.7,3-3.1,4.2c-1.3,1.2-3,2-4.9,2.7c-1.9,0.6-4.1,0.9-6.5,0.9
		c-2.8,0-5.3-0.4-7.4-1.2c-2.1-0.8-3.9-1.9-5.3-3.3c-1.4-1.4-2.5-3.1-3.2-5c-0.7-1.9-1.1-4-1.1-6.3v-0.4h8c0,2.6,0.7,4.6,2.2,6.2
		c1.5,1.5,3.8,2.3,6.9,2.3c2.4,0,4.3-0.5,5.4-1.6c1.2-1.1,1.8-2.4,1.8-3.8c0-0.7-0.1-1.3-0.4-2c-0.3-0.6-0.7-1.2-1.3-1.7
		c-0.6-0.5-1.4-1-2.5-1.4c-1.1-0.4-2.4-0.7-4-1c-2.1-0.4-4.1-0.9-5.9-1.5c-1.8-0.6-3.3-1.4-4.7-2.4c-1.3-1-2.3-2.2-3.1-3.7
		c-0.7-1.5-1.1-3.3-1.1-5.4V54c0-1.8,0.4-3.4,1.1-4.9c0.7-1.5,1.7-2.8,3-3.9c1.3-1.1,2.8-2,4.6-2.6c1.8-0.6,3.8-0.9,6.1-0.9
		c2.5,0,4.7,0.4,6.7,1.1c2,0.7,3.6,1.7,4.9,2.9c1.3,1.2,2.2,2.7,3,4.3c1,1.9,1,5.8,1,5.8L96.5,55.6z"/>
</g>
</svg>
