<?xml version="1.0" encoding="utf-8"?>
<!-- Generator: Adobe Illustrator 27.0.0, SVG Export Plug-In . SVG Version: 6.00 Build 0)  -->
<svg version="1.1" id="Layer_1" xmlns="http://www.w3.org/2000/svg" xmlns:xlink="http://www.w3.org/1999/xlink" x="0px" y="0px"
	 viewBox="0 0 128 128" style="enable-background:new 0 0 128 128;" xml:space="preserve">
<style type="text/css">
	.st0{fill:#EFF4F4;}
	.st1{fill:#4EA3F1;}
	.st2{fill:#86C5F7;}
</style>
<circle class="st0" cx="64" cy="64" r="63.5"/>
<g>
	<path class="st1" d="M78,34.4L65.9,20.3c-1-1.2-2.8-1.2-3.9,0L50,34.4c-0.8,1-0.8,2.4,0,3.3l12.1,14.1c1,1.2,2.8,1.2,3.9,0L78,37.7
		C78.9,36.7,78.9,35.3,78,34.4z"/>
	<path class="st2" d="M78,90.3L65.9,76.2c-1-1.2-2.8-1.2-3.9,0L50,90.3c-0.8,1-0.8,2.4,0,3.3l12.1,14.1c1,1.2,2.8,1.2,3.9,0L78,93.6
		C78.9,92.7,78.9,91.3,78,90.3z"/>
	<path class="st1" d="M95.4,56.6L83.3,42.4c-1-1.2-2.8-1.2-3.9,0L67.3,56.6c-0.8,1-0.8,2.4,0,3.3L79.4,74c1,1.2,2.8,1.2,3.9,0
		l12.1-14.1C96.2,58.9,96.2,57.5,95.4,56.6z"/>
	<path class="st1" d="M60.7,56.6L48.6,42.4c-1-1.2-2.8-1.2-3.9,0L32.6,56.6c-0.8,1-0.8,2.4,0,3.3L44.7,74c1,1.2,2.8,1.2,3.9,0
		l12.1-14.1C61.5,58.9,61.5,57.5,60.7,56.6z"/>
</g>
</svg>
