<?xml version="1.0" encoding="utf-8"?>
<!-- Generator: Adobe Illustrator 26.0.3, SVG Export Plug-In . SVG Version: 6.00 Build 0)  -->
<svg version="1.1" id="Layer_1" xmlns="http://www.w3.org/2000/svg" xmlns:xlink="http://www.w3.org/1999/xlink" x="0px" y="0px"
	 viewBox="0 0 128 128" style="enable-background:new 0 0 128 128;" xml:space="preserve">
<style type="text/css">
	.st0{fill:#666666;}
	.st1{fill:#FFFFFF;}
</style>
<circle cx="64" cy="64" r="64"/>
<g>
	<path class="st0" d="M108,57.1C91.6,49.5,78.5,36.3,70.9,20C90,23,105,38,108,57.1z"/>
	<path class="st0" d="M108,70.9C105,90,90,105,70.9,108C78.4,91.7,91.7,78.4,108,70.9z"/>
	<path class="st0" d="M57.1,108C38,105,23,90,20,70.9C36.3,78.4,49.6,91.7,57.1,108z"/>
	<path class="st0" d="M57.1,20C49.5,36.3,36.3,49.5,20,57.1C23,38,38,23,57.1,20z"/>
	<path class="st1" d="M86,61.1c-0.3-0.1-0.7-0.3-1-0.4c-7.8-3.6-14.1-9.9-17.7-17.7c-0.2-0.3-0.3-0.6-0.4-1c-1.1-2.5-4.7-2.5-5.7,0
		c-0.1,0.3-0.3,0.7-0.4,1c-3.6,7.8-9.9,14.1-17.7,17.7c-0.3,0.2-0.6,0.3-1,0.4c-2.5,1.1-2.5,4.7,0,5.7c0.3,0.1,0.7,0.3,1,0.4
		c7.8,3.6,14.1,9.9,17.7,17.7c0.2,0.3,0.3,0.6,0.4,1c1.1,2.5,4.7,2.5,5.7,0c0.1-0.3,0.3-0.6,0.4-1c3.6-7.8,9.9-14.1,17.7-17.7
		c0.3-0.2,0.6-0.3,1-0.4C88.4,65.8,88.4,62.2,86,61.1z"/>
</g>
</svg>
