<?xml version="1.0" encoding="UTF-8"?><svg id="Layer_1" xmlns="http://www.w3.org/2000/svg" viewBox="0 0 128 128"><defs><style>.cls-1{fill:#fff;}.cls-2{fill:#fd2e53;}</style></defs><circle class="cls-2" cx="64" cy="64" r="63.5"/><g id="STMX"><path class="cls-1" d="m24.26,28.7c2.57,0,4.81,0,7.05,0,4.24,0,8.48-.03,12.72.04.6,0,1.37.36,1.76.81,7.31,8.51,14.57,17.07,21.84,25.61,4.55,5.34,4.57,12.26.01,17.64-7.28,8.59-14.59,17.17-21.91,25.73-.28.33-.76.71-1.15.71-6.67.04-13.33.03-20.32.03.56-.68.96-1.17,1.36-1.65,7.85-9.22,15.7-18.43,23.54-27.65,3.15-3.71,3.18-8.21.02-11.93-7.71-9.1-15.45-18.17-23.18-27.26-.51-.6-1.02-1.21-1.75-2.09Z"/><path class="cls-1" d="m66.05,84.88c4.45-1.04,8.62-2.13,12.85-2.97,2.07-.41,4.06.36,5.69,1.67,6.26,5.04,12.46,10.14,18.68,15.22.09.07.14.2.29.42-.48.02-.85.06-1.23.06-7.77,0-15.54,0-23.31.02-.87,0-1.44-.24-2-.94-3.29-4.09-6.63-8.14-9.96-12.21-.28-.34-.54-.69-1-1.28Z"/><path class="cls-1" d="m103.74,28.81c-4.84,3.96-9.45,7.73-14.06,11.5-1.54,1.26-3.07,2.52-4.62,3.76-2.23,1.8-4.78,2.47-7.57,1.83-3.61-.83-7.18-1.79-10.77-2.7-.16-.04-.31-.15-.56-.28,2.13-2.6,4.21-5.16,6.3-7.72,1.56-1.91,3.11-3.85,4.72-5.72.32-.38.92-.74,1.39-.75,8.12-.05,16.24-.03,24.37-.03.16,0,.33.04.8.1Z"/></g></svg>