<?xml version="1.0" encoding="utf-8"?>
<!-- Generator: Adobe Illustrator 25.2.0, SVG Export Plug-In . SVG Version: 6.00 Build 0)  -->
<svg version="1.1" id="Layer_1" xmlns="http://www.w3.org/2000/svg" xmlns:xlink="http://www.w3.org/1999/xlink" x="0px" y="0px"
	 width="128px" height="128px" viewBox="0 0 128 128" style="enable-background:new 0 0 128 128;" xml:space="preserve">
<style type="text/css">
	.st0{fill:#652DF4;}
	.st1{fill:#FEFEFE;}
	.st2{fill:#FDFDFE;}
</style>
<circle class="st0" cx="64" cy="64" r="63"/>
<g>
	<path class="st1" d="M54.1,51c0.8,0.2,1.6,0.5,2.4,0.6c7.3,1.5,14.5,3.5,21,7.2c3.5,2,7.1,4.1,9.6,7.5c4.6,6.1,3.8,14.2-1.8,19.9
		c-3.7,3.8-8.3,5.8-13.3,7.2c-6.6,1.8-13.3,3.5-19.9,5.2c-5.2,1.4-10.1,3.4-13.6,7.7c-0.1,0.1-0.3,0.2-0.5,0.3
		c-3.1-8.1-2.7-16.6,6.2-21.6c6-3.4,12.5-5.2,19.1-6.6c3.2-0.7,6.5-1.2,9.7-1.6c0.4,0,0.8,0,1.2-0.6c-2-0.5-3.9-0.9-5.8-1.3
		c-7.7-1.8-15.2-4.3-21.7-9c-2.9-2-5.7-4.1-7.1-7.5c-2.9-6.7-1.2-13.7,4.7-18.7c3.6-3,7.8-4.7,12.3-6c8.3-2.4,16.8-3.9,25.1-6.6
		c3.5-1.1,6.8-2.6,9.2-5.6c0.2-0.2,0.4-0.5,0.7-0.4c0.5,0.2,0.2,0.6,0.2,0.9c-0.5,9.1-5,15.8-12.6,20.6c-6.3,4-13.4,5.9-20.6,7.1
		c-1.5,0.2-2.9,0.5-4.4,0.7C54.1,50.8,54.1,50.9,54.1,51z"/>
	<path class="st2" d="M69.9,51.3c0.7-0.8,1.8-0.8,2.7-1.2c5.8-2.2,11.1-5.2,15.4-9.9c0.2-0.2,0.4-0.6,0.9-0.5
		c0.3,0.1,0.3,0.5,0.3,0.8c0.3,6-0.6,11.8-4.2,16.9c-0.7,1-1.2,1.2-2.3,0.4c-3.6-2.6-7.6-4.4-11.7-5.9
		C70.6,51.8,70.1,51.7,69.9,51.3z"/>
</g>
</svg>
