<?xml version="1.0" encoding="UTF-8"?><svg id="Layer_1" xmlns="http://www.w3.org/2000/svg" xmlns:xlink="http://www.w3.org/1999/xlink" viewBox="0 0 128 128"><defs><style>.cls-1{clip-path:url(#clippath);}.cls-2{fill:none;}.cls-2,.cls-3,.cls-4{stroke-width:0px;}.cls-3{fill:#fff;fill-rule:evenodd;}.cls-4{fill:#7216ff;}</style><clipPath id="clippath"><rect class="cls-2" x=".53" y="2.53" width="126.94" height="126.94"/></clipPath></defs><circle class="cls-4" cx="64" cy="64" r="63.5"/><g id="TIA"><g class="cls-1"><g id="Symbols"><g id="Group-3"><path id="Fill-1" class="cls-3" d="m173.44,54.07h15.74c1.39,0,2.51-1.22,2.34-2.64-.14-1.19-1.2-2.07-2.4-2.07h-19.57c-1.3,0-2.36,1.06-2.36,2.36v23.55c0,1.3,1.06,2.36,2.36,2.36h19.63c1.39,0,2.51-1.22,2.34-2.64-.14-1.19-1.2-2.07-2.4-2.07h-15.68c-.85,0-1.53-.69-1.53-1.53v-4c0-.85.69-1.53,1.53-1.53h11.81c1.39,0,2.51-1.22,2.34-2.64-.14-1.19-1.2-2.07-2.4-2.07h-11.75c-.85,0-1.53-.69-1.53-1.53v-4c0-.85.69-1.53,1.53-1.53m-27.08,0c2.63,0,4.83.94,6.63,2.79.43.43,1.02.67,1.69.67,1.3,0,2.36-1.06,2.36-2.36,0-.67-.31-1.3-.98-1.88-2.79-2.63-6.05-3.93-9.7-3.93-3.89,0-7.22,1.37-10.01,4.16-2.75,2.75-4.12,6.08-4.12,9.97s1.37,7.22,4.12,10.01c2.79,2.75,6.12,4.12,10.01,4.12s7.22-1.37,9.97-4.12c.94-.94.94-2.43,0-3.34-.9-.94-2.39-.94-3.34,0-1.84,1.85-4.04,2.75-6.63,2.75s-4.83-.9-6.67-2.75c-1.85-1.84-2.75-4.08-2.75-6.67s.9-4.79,2.75-6.63c1.85-1.84,4.08-2.79,6.67-2.79m76.75,18.84h-15.67c-.85,0-1.54-.69-1.54-1.54v-19.6c0-1.2-.88-2.26-2.07-2.4-1.42-.17-2.64.95-2.64,2.34v23.55c0,1.3,1.06,2.36,2.36,2.36h19.63c1.39,0,2.51-1.22,2.34-2.64-.14-1.19-1.2-2.07-2.4-2.07m99.11-23.55h-23.49c-1.39,0-2.51,1.22-2.34,2.64.14,1.19,1.2,2.07,2.4,2.07h7.83c.85,0,1.53.69,1.53,1.53v19.66c0,1.39,1.22,2.51,2.64,2.34,1.19-.14,2.07-1.2,2.07-2.4v-19.6c0-.85.69-1.53,1.53-1.53h7.89c1.39,0,2.51-1.22,2.34-2.64-.14-1.19-1.2-2.07-2.4-2.07m12.45,0c-1.3,0-2.36,1.06-2.36,2.36v23.55c0,1.3,1.06,2.36,2.36,2.36s2.36-1.06,2.36-2.36v-23.55c0-1.3-1.06-2.36-2.36-2.36m-47.13,13.86c-2.16-1.37-5.06-2.08-8.71-2.08-4.83,0-7.26-1.18-7.26-3.53s2.43-3.53,7.26-3.53c2.67,0,5.22.51,7.66,1.49,1.41.43,2.39-.08,2.94-1.45.47-1.22-.16-2.39-1.45-2.98-2.71-1.18-5.73-1.77-9.15-1.77s-6.44.75-8.68,2.2c-2.2,1.45-3.3,3.49-3.3,6.05,0,2.71,1.1,4.79,3.26,6.16,2.16,1.37,5.06,2.08,8.71,2.08,4.83,0,7.26,1.18,7.26,3.53s-2.43,3.53-7.26,3.53h-1.18c-2.43,0-4.99-.51-7.62-1.49-1.22-.43-2.47.12-2.98,1.41-.47,1.22.24,2.63,1.45,3.06,2.71,1.14,5.73,1.73,9.15,1.73h1.18c3.57,0,6.44-.75,8.64-2.2,2.24-1.45,3.34-3.49,3.34-6.05,0-2.71-1.1-4.79-3.26-6.16m-48.12-9.15h15.74c1.39,0,2.51-1.22,2.34-2.64-.14-1.19-1.2-2.07-2.4-2.07h-19.57c-1.3,0-2.36,1.06-2.36,2.36v23.55c0,1.3,1.06,2.36,2.36,2.36h19.63c1.39,0,2.51-1.22,2.34-2.64-.14-1.19-1.2-2.07-2.4-2.07h-15.68c-.85,0-1.53-.69-1.53-1.53v-4.01c0-.85.69-1.53,1.53-1.53h11.82c1.39,0,2.51-1.22,2.34-2.64-.14-1.19-1.2-2.07-2.4-2.07h-11.75c-.85,0-1.53-.68-1.53-1.53v-4.01c0-.85.69-1.53,1.53-1.53m-132.88,9.9c0,.28-.39.36-.51.1-.05-.11-.1-.23-.15-.34-.09-.21-.07-.45.07-.63.03-.04.08-.11.15-.2.18-.24.45-.2.45.06,0,.35,0,.65-.02,1.01m-2.03-5.53c-.31.56-1.11.59-1.46.05-.05-.08-.11-.17-.16-.25-1.25-1.92-2.69-3.8-4.29-5.63-.39-.45-.07-1.15.53-1.15h.01c3.75,0,5.72.93,6.32,2.06.5.95.35,2.6-.95,4.93m-.84,19.62c-.2.51-.41,1.02-.63,1.52-.03.07-.07.14-.1.21-1.38,2.66-3.7,4.75-6.79,6.21-.69.33-1.45-.31-1.25-1.05,1.03-3.68,1.81-7.67,2.31-11.85.09-.78.48-1.5,1.07-2.01,1.27-1.1,2.46-2.2,3.56-3.29h.01c.54-.55,1.46-.32,1.68.41,1.08,3.59,1.14,6.94.15,9.86m-8.42,13.29c-.31.34-.64.67-.96,1-.57.57-1.16,1.12-1.75,1.65-.38.34-.95-.08-.73-.54.06-.13.12-.26.18-.39.25-.55.49-1.12.73-1.7.06-.14.17-.24.32-.27.59-.15,1.17-.32,1.74-.5.46-.15.82.41.49.76m-6.18-3.32c-1.25.18-2.56.3-3.94.35-3.36.12-6.9-.17-10.55-.84-.44-.08-.53-.68-.13-.89.79-.4,1.59-.81,2.39-1.24,5.58-2.96,10.78-6.19,15.33-9.5.34-.25.81.04.74.46-.63,3.8-1.51,7.37-2.6,10.61-.19.55-.67.96-1.24,1.04m-1.29,5.06c-2.99,5.88-6.67,9.18-10.24,9.11-3.88-.07-7.75-4.11-10.61-11.08h0c-.18-.45.03-.96.47-1.15.03-.01.06-.03.09-.04.19-.08.4-.1.6-.04,5.36,1.5,10.64,2.29,15.58,2.29.54,0,1.07,0,1.6-.03.62-.02,1.23-.06,1.83-.1.56-.04.94.54.69,1.04m-17.7,11.18c-1.78.23-3.58.35-5.4.35-8.14,0-15.93-2.31-22.61-6.61-.46-.3-.26-1.01.28-1.04.11,0,.22-.01.31-.02,1.7-.11,3.56-.36,5.58-.75,4.29-.83,9.06-2.24,14.06-4.15.45-.17.95.05,1.13.49,0,0,0,0,0,0,1.94,4.71,4.32,8.28,7,10.54.44.37.22,1.1-.35,1.17m-24.22-29.34c3.69-3,8.01-6,12.76-8.84.1,6.07.77,11.89,1.94,17.15-1.76-.75-3.51-1.58-5.25-2.48-3.37-1.75-6.54-3.71-9.45-5.83m-11.48,16.25c-.88-1.66.26-5.51,6.04-11.36h0c.6-.61.55-1.61-.13-2.14-.23-.18-.46-.37-.69-.55-.58-.47-1.41-.42-1.93.1-.11.11-.2.2-.23.23-2.89,2.97-4.91,5.71-6.04,8.18-.32.7-1.29.78-1.72.13-4.48-6.78-6.89-14.72-6.89-23.04,0-2.97.31-5.9.91-8.74.09-.43.7-.46.82-.04.87,2.87,2.28,5.84,4.24,8.84,2.63,4.04,6.1,7.92,10.21,11.48,1.4,1.22,2.88,2.39,4.43,3.53,3.13,2.3,6.54,4.42,10.16,6.3,1.61.83,3.17,1.63,4.77,2.35.89.4,1.91.43,2.82.08.76-.3,1.52-.6,2.28-.92.83-.35,1.28-1.25,1.06-2.13-.03-.11-.05-.2-.06-.25-1.26-5.31-1.96-11.28-2.04-17.54h0c0-.07,0-.15,0-.22,0-.34,0-.69,0-1.03,0-.11,0-.29,0-.4,0-.04,0-.09,0-.13,0,0,0,0,0,0,0-.39,0-.78.01-1.18.02-1.07.06-2.14.11-3.2,0,0,0,0,0,0,.39-7.55,1.67-14.65,3.71-20.61.19-.55-.11-1.15-.66-1.34-.54-.18-1.08-.36-1.61-.53-.54-.17-1.12.12-1.31.66-2.21,6.48-3.57,14.17-3.93,22.31-.05,1.03-.61,1.97-1.5,2.5-4.82,2.86-9.25,5.88-13.07,8.94-.8.64-1.93.61-2.7-.06-3.83-3.32-7.06-6.93-9.5-10.68-4.79-7.36-5.93-14.29-3.21-19.51,0-.01.01-.03.02-.04.35-.58.71-1.15,1.08-1.71,3.13-4.14,8.96-6.55,16.69-6.82.49-.02.98-.03,1.48-.03,4.74,0,9.83.78,15,2.28h0c.11.03.23.07.34.1.09.03.17.05.26.08t0,0c1.2.36,2.4.75,3.6,1.18t0,0s.06.02.08.03c.31.11.63.23.94.35.1.04.2.07.29.11.09.04.19.07.28.11h0c2.53.98,5.05,2.12,7.54,3.41,4.83,2.51,9.24,5.45,13.09,8.67-7.34,1.68-15.86,4.92-24.44,9.29-.4.2-.66.6-.68,1.04-.03.53-.07,1.6-.1,2.45-.02.53.55.89,1.02.64h0c8.49-4.46,16.96-7.79,24.24-9.55,1.36-.33,2.24-1.64,2.05-3.02-.13-.97-.28-1.92-.45-2.86-.21-1.18-.85-2.23-1.8-2.95-3.41-2.6-7.16-4.98-11.18-7.07-2.71-1.41-5.46-2.64-8.21-3.69-.59-.23-.84-.92-.53-1.47,2.84-5.08,6.21-7.92,9.5-7.92.03,0,.07,0,.1,0,3.88.07,7.75,4.11,10.61,11.08,1.45,3.53,2.57,7.6,3.34,12.02,0,0,0,0-.01-.01.33,1.89.59,3.84.79,5.84-.02.01-.03.02-.05.03.02.02.05.05.07.07.32,3.36.46,6.86.4,10.43-.04,2.26-.16,4.48-.36,6.66-5.19,4.19-11.61,8.37-18.66,12.11-2.32,1.23-4.64,2.37-6.93,3.42-.04.02-.07.03-.11.05-.18.08-.35.16-.53.24,0,0,0,0,0,0-1.9.86-3.78,1.66-5.64,2.38,0,0,0,0,0,0-.1.04-.21.08-.31.12-.13.05-.26.1-.39.15-.31.12-.62.24-.93.35-.08.03-.17.06-.26.1-.37.14-.75.27-1.12.41-.05.02-.09.03-.14.05,0,0,0,0,0,0-3.97,1.41-7.75,2.48-11.2,3.14-8.33,1.6-12.25.37-13.14-1.31m5.98-62.55c7.05-5.05,15.47-7.77,24.31-7.77,2.33,0,4.64.19,6.89.56.6.1.81.87.33,1.25-2.19,1.71-4.22,4.25-6.02,7.54-.44.8-1.37,1.2-2.25.95-5.96-1.68-11.82-2.47-17.24-2.28-2,.07-3.89.27-5.67.6-.5.09-.77-.56-.36-.86m57.48,30.52c-.01-.48.6-.68.88-.29.34.48.67.96.99,1.45.42.64.81,1.29,1.17,1.92.23.4.17.9-.14,1.23-.49.54-1.02,1.09-1.6,1.67-.21.21-.42.42-.64.63-.27.26-.73.06-.71-.31.03-.69.05-1.38.06-2.07.03-1.42.02-2.83-.02-4.22m-4.34-26.79c.26.25.52.5.78.76,4.04,4.04,7.14,8.75,9.22,13.89.21.52-.23,1.06-.78.96-1.2-.22-2.56-.31-4.05-.29-1.04.02-1.94-.71-2.12-1.73-.81-4.57-1.99-8.78-3.5-12.46-.09-.21-.17-.42-.26-.62-.19-.45.37-.84.72-.5m15.84,20.88c-1.8-8.57-6.05-16.45-12.39-22.79-8.62-8.62-20.09-13.37-32.28-13.37s-23.66,4.75-32.28,13.37c-2.1,2.1-3.96,4.36-5.59,6.77-.48.64-.92,1.32-1.3,2.04-4.22,7.02-6.48,15.08-6.48,23.48,0,12.2,4.75,23.66,13.37,32.28,8.62,8.62,20.09,13.37,32.28,13.37s23.66-4.75,32.28-13.37c4.07-4.07,7.28-8.77,9.53-13.89.28-.57.52-1.15.72-1.74,2.05-5.24,3.12-10.87,3.12-16.66,0-3.19-.33-6.33-.96-9.38,0-.04-.02-.08-.03-.12m255.74,13.79h-8.64c-.81,0-1.32-.88-.91-1.58l4.33-7.48c.41-.7,1.42-.7,1.83,0l4.3,7.48c.4.7-.1,1.58-.91,1.58m11.36,7.11l-13.62-23.63c-.98-1.53-3.1-1.53-4.08,0l-13.62,23.63c-.16.3-.25.59-.27.93-.09,1.33.95,2.53,2.29,2.56.93.02,1.66-.45,2.22-1.45l2.11-3.66c.28-.48.79-.77,1.34-.77h15.92c.55,0,1.06.3,1.34.77l2.11,3.66c.53.95,1.25,1.42,2.11,1.45,1.32.04,2.44-1.03,2.44-2.35,0-.35-.08-.71-.28-1.14"/></g></g></g></g></svg>