<?xml version="1.0" encoding="utf-8"?>
<!-- Generator: Adobe Illustrator 25.4.1, SVG Export Plug-In . SVG Version: 6.00 Build 0)  -->
<svg version="1.1" id="Layer_1" xmlns="http://www.w3.org/2000/svg" xmlns:xlink="http://www.w3.org/1999/xlink" x="0px" y="0px"
	 width="128px" height="128px" viewBox="0 0 128 128" style="enable-background:new 0 0 128 128;" xml:space="preserve">
<style type="text/css">
	.st0{fill:#EEF4F4;}
	.st1{fill:#275FF5;}
</style>
<g>
	<circle class="st0" cx="64" cy="64" r="63.5"/>
	<g>
		<path class="st1" d="M17.7,33.1c1.9,0,3.9-0.1,5.8-0.1c4.1,0,8.3,0.1,12.4,0c1.1,0,1.3,0.3,1.2,1.4c-0.7,6.7-4,11.9-9.7,15.3
			c-2.6,1.6-5.5,2.4-8.6,2.5c-0.8,0-1.2-0.2-1.2-1.1C17.6,45.1,17.6,39.1,17.7,33.1z"/>
		<path class="st1" d="M111.5,33.1c-7.2,0-14.3,0-21.5-0.1c-3.5,0-5.9,1.6-7.7,4.2c-2,3-3.7,6.2-5.5,9.4c-2.6,4.5-5.2,8.9-7.7,13.4
			c-2.8,4.9-5.5,9.7-8.3,14.6c-0.3,0.5-0.6,1.2-1.4,1.2c-4.9,0-9.8,0-14.6,0c-0.9,0-1-0.6-0.6-1.2c1.1-1.7,2.1-3.5,3.1-5.2
			c3-5.3,6.1-10.6,9.2-16c0.5-0.8,1-1.2,1.9-1.2c4.1,0,8.2,0,12.3,0c2.5,0,2.5,0,2.6-2.6c0-0.2,0-0.3,0-0.5c0-4.5,0-8.9,0-13.4
			c0-2.9,0-2.9-2.9-2.7c-5.7,0-11.3,0-17,0c-0.6,0-1.2,0-1.8,0c-3.3-0.2-5.8,1.3-7.7,3.8c-1.2,1.5-2,3.3-2.9,5c-2.9,5-5.8,10-8.7,15
			c-2.3,4-4.6,8-6.9,12c-2.4,4.1-4.7,8.3-7.2,12.4c-0.7,1.1-1,2.5-2.2,3.3c-0.1,0.7,0.5,1,1,1.3c2.2,1.3,4.4,2.5,6.5,3.8
			c2.8,1.7,5.7,3.1,8.3,5c0.4,0.3,0.8,0.2,1.1-0.3c1.1-2,2.3-3.9,3.4-5.9c1.6-2.8,3.2-5.7,4.9-8.5c0.8-1.4,1.6-2.8,2.5-4.2
			c0.5,0.7,0.4,1.3,0.4,1.9c0,5.4,0,10.7,0,16.1c0,0.6-0.1,1.2,0.9,1.2c7.5,0,15,0,22.5-0.1c0.6,0,1.1-0.1,1.7-0.3
			c1.3-0.5,2.4-1.3,3.5-2.1c1.3-1.4,2.1-3.1,3.1-4.7c3.2-5.5,6.3-11.1,9.5-16.6c1.8-3.1,3.6-6.1,5.3-9.2c1.6-2.9,3.3-5.8,5-8.7
			c0.5-0.8,1-1,1.9-1c4.5,0,8.9,0,13.4,0c1,0,1.4-0.3,1.4-1.3c0-5.7,0-11.4,0-17.1C112,33.7,112.2,33.1,111.5,33.1z"/>
		<path class="st1" d="M92.3,73.6c-0.5-5.2,4.8-9.9,9.9-9.9c5,0,9.9,4.8,9.9,10c0,5.1-4.6,9.9-10,9.9C96.5,83.6,91.8,78.3,92.3,73.6
			z"/>
		<path class="st1" d="M111.6,73.8c0.1,5.3-4.3,9.3-9.2,9.3c-5.2,0.1-9.6-4-9.6-9.5c0-5.2,4.3-9.4,9.5-9.4
			C107.3,64.3,111.7,68.4,111.6,73.8z"/>
	</g>
</g>
</svg>
