<?xml version="1.0" encoding="UTF-8"?><svg id="Layer_1" xmlns="http://www.w3.org/2000/svg" xmlns:xlink="http://www.w3.org/1999/xlink" viewBox="0 0 128 128"><defs><style>.cls-1{fill:#00183b;}.cls-2{fill:#f0f0f0;}.cls-3{fill:url(#radial-gradient-2);}.cls-4{fill:url(#radial-gradient);}</style><radialGradient id="radial-gradient" cx="115.56" cy="-1123.89" fx="115.56" fy="-1123.89" r="106.66" gradientTransform="translate(0 -1096.88) scale(1 -1)" gradientUnits="userSpaceOnUse"><stop offset=".1" stop-color="#00d586"/><stop offset=".26" stop-color="#00cb92"/><stop offset=".56" stop-color="#00b2b1"/><stop offset=".89" stop-color="#0092dc"/></radialGradient><radialGradient id="radial-gradient-2" cx="115.56" cy="-1123.89" fx="115.56" fy="-1123.89" r="106.66" xlink:href="#radial-gradient"/></defs><circle class="cls-2" cx="64" cy="64" r="63.5"/><g id="ZEN"><path class="cls-4" d="m115.51,27.08h0l-10.33,16.07c11.51,22.73,2.41,50.49-20.33,61.99-13.09,6.62-28.55,6.63-41.64.01l-16.06,10.42c28.39,20.44,67.97,13.99,88.41-14.4,15.93-22.13,15.91-51.98-.06-74.09Z"/><path class="cls-3" d="m64.02,95.72c15.35,0,28.51-10.96,31.3-26.05-20.07-4.32-41.03.04-57.72,12,5.92,8.79,15.82,14.06,26.42,14.05Z"/><path class="cls-1" d="m79.71,62.26c5.43,0,10.84.58,16.15,1.73h0c-.31-17.59-14.81-31.59-32.4-31.28-17.15.3-30.98,14.13-31.28,31.28,0,1.42.1,2.85.3,4.26h0c-4.4,3.21-8.41,6.93-11.95,11.07-8.46-24.03,4.16-50.36,28.18-58.82,11.83-4.17,24.85-3.33,36.06,2.3l16.07-10.39C72.44-8.01,32.85-1.56,12.42,26.84c-16.11,22.4-15.88,52.65.59,74.79,3-5.4,6.64-10.42,10.85-14.95,0,0,6.25-6.53,11.04-9.8,13-9.51,28.7-14.63,44.81-14.62Z"/></g></svg>