<svg width="20" height="20" viewBox="0 0 20 20" fill="none" xmlns="http://www.w3.org/2000/svg">
<path fill-rule="evenodd" clip-rule="evenodd" d="M7.07782 2.83871H12.9221V1.72581C12.9221 1.32522 13.2441 1 13.6406 1C14.0372 1 14.3592 1.32522 14.3592 1.72581V2.83871H14.5508C16.4556 2.83871 17.9999 4.39862 17.9999 6.32258V15.5161C17.9999 17.4401 16.4556 19 14.5508 19H5.44908C3.54433 19 2 17.4401 2 15.5161V6.32258C2 4.39862 3.54433 2.83871 5.44908 2.83871H5.6407V1.72581C5.6407 1.32522 5.96267 1 6.35926 1C6.75585 1 7.07782 1.32522 7.07782 1.72581V2.83871ZM16.5628 15.5161V9.80646H3.43712V15.5161C3.43712 16.6379 4.33745 17.5484 5.44908 17.5484H14.5508C15.6615 17.5484 16.5628 16.638 16.5628 15.5161ZM14.5508 4.29033H14.3592V5.40323C14.3592 5.80382 14.0372 6.12904 13.6406 6.12904C13.2441 6.12904 12.9221 5.80382 12.9221 5.40323V4.29033H7.07782V5.40323C7.07782 5.80382 6.75585 6.12904 6.35926 6.12904C5.96267 6.12904 5.6407 5.80382 5.6407 5.40323V4.29033H5.44908C4.33751 4.29033 3.43712 5.1998 3.43712 6.32258V8.35484H16.5628V6.32258C16.5628 5.19974 15.6614 4.29033 14.5508 4.29033Z" fill="#F1F1F1"/>
</svg>
