<svg width="222" height="58" viewBox="0 0 222 58" fill="none" xmlns="http://www.w3.org/2000/svg">
<path d="M2.02765 15.2921H1.02765V16.2921V42.2374V43.2374H2.02765H18.0767H18.4909L18.7838 42.9445L22.5273 39.201L22.8202 38.9081V38.4938V31.5627V31.1524L22.5319 30.8603L20.4053 28.7056L21.386 27.7031L21.6712 27.4116V27.0038V19.8132V19.399L21.3783 19.1061L17.8572 15.585L17.5643 15.2921H17.1501H2.02765ZM33.3583 15.2921H32.6546L32.417 15.9546L23.1138 41.8999L22.6342 43.2374H24.0551H27.7245H28.4351L28.6689 42.5663L30.7331 36.6399H39.5788L41.6431 42.5663L41.8769 43.2374H42.5875H46.2569H47.6797L47.1978 41.8987L37.8574 15.9534L37.6194 15.2921H36.9166H33.3583ZM47.4903 38.6421V39.0563L47.7832 39.3492L51.3785 42.9445L51.6714 43.2374H52.0856H63.5756H63.9899L64.2828 42.9445L67.9522 39.2751L68.2451 38.9822V38.568V31.0068V30.5926L67.9522 30.2997L64.3569 26.7044L64.064 26.4115H63.6498H54.1306L53.0856 25.3664V21.4506L54.1306 20.4055H61.4194L62.4645 21.4506V22.7413V23.7413H63.4645H66.9485H67.9485V22.7413V19.8874V19.4731L67.6556 19.1803L64.0604 15.585L63.7675 15.2921H63.3533H52.1597H51.7455L51.4526 15.585L47.8573 19.1803L47.5644 19.4731V19.8874V26.8926V27.3038L47.8537 27.5961L51.449 31.2284L51.7425 31.5249H52.1597H61.6856L62.7239 32.5397V37.0484L61.6722 38.124H54.0262L53.0115 37.0856V35.8252V34.8252H52.0115H48.4903H47.4903V35.8252V38.6421ZM72.0669 15.2921H71.0669V16.2921V42.2374V43.2374H72.0669H89.4874H90.4874V42.2374V39.124V38.124H89.4874H76.6252V31.7473H88.4125H89.4125V30.7473V27.671V26.671H88.4125H76.6252V20.4055H89.4874H90.4874V19.4055V16.2921V15.2921H89.4874H72.0669ZM93.9293 15.2921H92.9293V16.2921V42.2374V43.2374H93.9293H109.459H109.874L110.167 42.9445L114.355 38.7562L114.648 38.4633V38.0491V20.4804V20.0662L114.355 19.7733L110.167 15.585L109.874 15.2921H109.459H93.9293ZM16.1871 21.3831V25.6259L15.105 26.708H6.51173V20.3314H15.1116L16.1871 21.3831ZM17.3361 36.8509L15.9631 38.1981H6.51173V31.6361H15.9575L17.3361 33.0148V36.8509ZM32.3817 31.6376L35.1456 23.4954L37.9592 31.6376H32.3817ZM107.377 38.124H98.4875V20.4055H107.377L109.09 22.1177V36.4117L107.377 38.124Z" fill="#FB5FCF" stroke="#123378" stroke-width="2"/>
<path d="M143.164 15.2921H142.164V16.2921V42.2374V43.2374H143.164H158.694H159.108L159.401 42.9445L163.589 38.7562L163.882 38.4633V38.0491V20.4804V20.0662L163.589 19.7733L159.401 15.585L159.108 15.2921H158.694H143.164ZM168.252 15.2921H167.252V16.2921V42.2374V43.2374H168.252H171.81H172.81V42.2374V16.2921V15.2921H171.81H168.252ZM177.55 15.2921H176.55V16.2921V42.2374V43.2374H177.55H193.599H194.013L194.306 42.9445L198.05 39.201L198.342 38.9081V38.4938V31.5627V31.1524L198.054 30.8603L195.928 28.7056L196.908 27.7031L197.193 27.4116V27.0038V19.8132V19.399L196.901 19.1061L193.379 15.585L193.087 15.2921H192.672H177.55ZM200.245 38.6421V39.0563L200.538 39.3492L204.133 42.9445L204.426 43.2374H204.841H216.331H216.745L217.038 42.9445L220.707 39.2751L221 38.9822V38.568V31.0068V30.5926L220.707 30.2997L217.112 26.7044L216.819 26.4115H216.405H206.886L205.841 25.3664V21.4506L206.886 20.4055H214.174L215.219 21.4506V22.7413V23.7413H216.219H219.704H220.704V22.7413V19.8874V19.4731L220.411 19.1803L216.815 15.585L216.522 15.2921H216.108H204.915H204.5L204.208 15.585L200.612 19.1803L200.319 19.4731V19.8874V26.8926V27.3038L200.609 27.5961L204.204 31.2284L204.497 31.5249H204.915H214.441L215.479 32.5397V37.0484L214.427 38.124H206.781L205.766 37.0856V35.8252V34.8252H204.766H201.245H200.245V35.8252V38.6421ZM147.722 38.124V20.4055H156.612L158.324 22.1177V36.4117L156.612 38.124H147.722ZM191.709 21.383V25.6259L190.627 26.708H182.034V20.3314H190.634L191.709 21.383ZM192.858 36.8509L191.485 38.1981H182.034V31.6361H191.48L192.858 33.0148V36.8509Z" fill="#FB5FCF" stroke="#123378" stroke-width="2"/>
<path d="M141.884 56.0496L142.183 56.4748H142.702H153.621H155.562L154.435 54.8942L135.817 28.784L153.919 3.10131L155.029 1.52521H153.101H142.183H141.661L141.363 1.95252L129.181 19.3905L116.899 1.94945L116.6 1.52521H116.082H105.163H103.219L104.349 3.10659L122.549 28.576L103.828 54.8952L102.704 56.4748H104.643H115.562H116.079L116.378 56.0526L129.181 37.9653L141.884 56.0496Z" fill="url(#paint0_linear_925_1525)" stroke="#123378" stroke-width="2"/>
<defs>
<linearGradient id="paint0_linear_925_1525" x1="129.132" y1="2.52521" x2="129.132" y2="55.4748" gradientUnits="userSpaceOnUse">
<stop stop-color="#EE9EF0"/>
<stop offset="1" stop-color="#95ADEA"/>
</linearGradient>
</defs>
</svg>
