<svg width="702" height="138" viewBox="0 0 702 138" fill="none" xmlns="http://www.w3.org/2000/svg">
<path d="M11.7693 85.1345L23.6867 114.643C26.2263 120.931 30.8496 126.203 36.938 129.753C43.0264 133.304 50.2897 134.964 57.7561 134.512C58.0513 134.494 58.3383 134.56 58.5786 134.701C58.819 134.842 59.0011 135.051 59.1006 135.3L60.9095 139.779C61.6905 141.721 63.0975 143.361 64.9523 144.49C66.8072 145.619 69.0264 146.188 71.329 146.123C73.6317 146.058 75.9142 145.363 77.8876 144.126C79.861 142.889 81.4365 141.166 82.4146 139.174C82.5797 138.838 82.7271 138.494 82.856 138.147C83.4328 138.726 84.201 139.116 85.0584 139.263C85.9158 139.411 86.8217 139.31 87.6556 138.973C88.4895 138.636 89.2117 138.08 89.7262 137.378C90.2406 136.677 90.5229 135.863 90.5354 135.045C92.5992 136.036 94.9944 136.387 97.3922 136.05C99.7899 135.712 102.073 134.704 103.927 133.163C105.781 131.622 107.116 129.623 107.749 127.442C108.382 125.26 108.281 123.003 107.46 120.979L105.651 116.5C105.55 116.252 105.536 115.975 105.611 115.707C105.686 115.438 105.847 115.191 106.071 114.999C111.758 110.14 115.831 103.901 117.746 97.1182C119.662 90.3352 119.327 83.3314 116.788 77.0435L104.871 47.5347C101.881 40.1333 95.7314 34.3611 87.7733 31.4879C79.8151 28.6148 70.7009 28.8759 62.4355 32.214L31.6634 44.6416C23.3981 47.9796 16.6586 54.1211 12.9278 61.715C9.19689 69.3089 8.78017 77.7332 11.7693 85.1345Z" fill="#123378"/>
<path fill-rule="evenodd" clip-rule="evenodd" d="M14.3442 84.3639L15.3948 86.9652L26.8262 59.8817L28.2581 63.4274L16.8266 90.5106L17.9113 93.1964L29.3427 66.1127L30.7747 69.6583L19.3431 96.7418L21.6859 102.543L33.1174 75.459L34.5494 79.0047L23.1178 106.088L25.4605 111.889L36.8919 84.8055L38.3239 88.3512L26.9712 115.248C29.5623 120.155 33.6172 124.253 38.7563 127.117C44.7602 130.464 51.9577 131.968 59.386 131.43C59.6796 131.409 59.9641 131.469 60.201 131.601C60.438 131.734 60.6162 131.933 60.7117 132.173L62.4489 136.474C63.1989 138.339 64.5752 139.904 66.4037 140.969C68.2321 142.035 70.4304 142.554 72.7203 142.46C75.0101 142.366 77.2886 141.664 79.267 140.442C81.2455 139.221 82.8351 137.535 83.8346 135.598C84.0032 135.271 84.1545 134.936 84.2873 134.599C84.8527 135.151 85.6111 135.517 86.4614 135.648C87.3117 135.778 88.2136 135.668 89.0471 135.332C89.8806 134.995 90.6062 134.448 91.1271 133.763C91.648 133.079 91.9397 132.289 91.9633 131.499C94.0014 132.428 96.3776 132.734 98.7657 132.376C101.154 132.017 103.437 131.012 105.301 129.499C107.165 127.985 108.52 126.036 109.178 123.921C109.837 121.805 109.767 119.626 108.979 117.682L107.242 113.381C107.144 113.143 107.134 112.875 107.212 112.615C107.291 112.355 107.454 112.115 107.68 111.926C113.399 107.155 117.533 101.074 119.529 94.4964C121.525 87.9189 121.288 81.1587 118.849 75.12L107.404 46.7808C104.533 39.6728 98.4985 34.1814 90.6268 31.5146C82.755 28.8478 73.6913 29.224 65.4297 32.5606L34.6712 44.9827C26.4095 48.3192 19.6266 54.3428 15.8145 61.7282C12.0025 69.1136 11.4736 77.2559 14.3442 84.3639Z" fill="#2761A6"/>
<path d="M64.293 124.507L64.2934 124.507C64.646 124.488 64.9972 124.571 65.2982 124.752C65.5996 124.934 65.8344 125.204 65.9651 125.531M64.293 124.507L65.5013 125.717M64.293 124.507C57.8606 124.849 51.5956 123.34 46.3341 120.189C41.0734 117.039 37.0653 112.397 34.8398 106.887L24.1991 80.5393C21.5854 74.0673 21.8774 66.7197 25.0272 60.1094C28.1778 53.4974 33.9295 48.1676 41.023 45.3029L67.8442 34.4709C74.9377 31.6061 82.7775 31.4468 89.6362 34.0165C96.4932 36.5854 101.806 41.6695 104.42 48.1415L115.06 74.4889C117.285 79.9991 117.625 86.1225 116.028 92.0428C114.43 97.9638 110.97 103.401 106.104 107.621L106.104 107.621C105.837 107.853 105.642 108.156 105.551 108.496C105.46 108.836 105.479 109.194 105.612 109.52M64.293 124.507L106.432 107.999C106.237 108.168 106.098 108.387 106.034 108.625C105.97 108.863 105.985 109.11 106.075 109.331M65.9651 125.531C65.9653 125.531 65.9654 125.531 65.9656 125.532L65.5013 125.717M65.9651 125.531L65.9649 125.53L65.5013 125.717M65.9651 125.531L67.58 129.529L67.5805 129.531C68.236 131.166 69.4076 132.556 70.9524 133.522C72.4978 134.489 74.3487 134.988 76.2721 134.949C78.1957 134.91 80.1001 134.334 81.7414 133.293C83.3828 132.253 84.6822 130.798 85.4789 129.119L85.4793 129.118C85.6137 128.836 85.7337 128.546 85.8384 128.253L86.1078 127.501L86.6666 128.072C87.0993 128.515 87.679 128.82 88.3337 128.94C88.9888 129.06 89.6843 128.988 90.3257 128.729C90.967 128.47 91.5176 128.039 91.9056 127.498C92.2933 126.957 92.4984 126.334 92.5025 125.715L92.5079 124.918L93.2234 125.27C94.9419 126.117 96.9363 126.43 98.9341 126.159C100.932 125.888 102.829 125.046 104.365 123.751C105.9 122.457 106.993 120.776 107.503 118.943C108.012 117.112 107.913 115.218 107.227 113.518L105.612 109.52M65.5013 125.717L67.1164 129.717C67.8125 131.454 69.0554 132.926 70.6873 133.946C72.3192 134.967 74.2666 135.49 76.2823 135.449C78.2981 135.408 80.2913 134.805 82.0091 133.716C83.7269 132.627 85.0918 131.101 85.9307 129.333C85.9945 129.199 86.0552 129.064 86.1127 128.927C86.0576 128.877 86.0039 128.825 85.9517 128.772L86.3092 128.422L86.7799 128.591C86.758 128.652 86.7355 128.713 86.7123 128.774C87.1536 129.102 87.6769 129.328 88.2435 129.432C88.9945 129.57 89.7861 129.486 90.5129 129.193C91.2397 128.899 91.8673 128.409 92.312 127.789C92.6477 127.32 92.8672 126.794 92.9568 126.252C92.8981 126.224 92.8397 126.196 92.7816 126.167L93.0025 125.719L93.5025 125.722C93.502 125.796 93.4994 125.87 93.4946 125.944C95.1887 126.665 97.0965 126.912 99.0013 126.654C101.093 126.37 103.079 125.49 104.687 124.134C106.295 122.777 107.447 121.011 107.984 119.077C108.522 117.143 108.419 115.136 107.69 113.33L106.075 109.331M105.612 109.52L106.075 109.331M105.612 109.52L105.612 109.518L106.075 109.331" fill="url(#paint0_linear_925_1509)" stroke="#0A2357"/>
<path d="M44.4516 71.5744C42.0866 65.7184 44.9607 59.0361 50.8712 56.6491C56.7817 54.2621 63.4903 57.0743 65.8554 62.9303L73.9441 82.9588C76.3091 88.8148 73.4349 95.4971 67.5244 97.8842C61.6139 100.271 54.9053 97.459 52.5403 91.6029L44.4516 71.5744Z" fill="#2761A6"/>
<path d="M71.8015 60.5289C69.4365 54.6728 72.3107 47.9905 78.2212 45.6035C84.1317 43.2165 90.8403 46.0287 93.2053 51.8847L101.294 71.9132C103.659 77.7693 100.785 84.4516 94.8744 86.8386C88.9639 89.2256 82.2552 86.4134 79.8902 80.5573L71.8015 60.5289Z" fill="#2761A6"/>
<path d="M51.2458 57.5762C45.8393 59.7597 43.224 65.864 45.3789 71.1999L53.4676 91.2284C55.6226 96.5642 61.7436 99.1403 67.1501 96.9569C72.5566 94.7734 75.1719 88.6691 73.0169 83.3332L64.9283 63.3047C62.7733 57.9688 56.6523 55.3928 51.2458 57.5762Z" fill="url(#paint1_linear_925_1509)" stroke="#0A2357" stroke-width="2"/>
<path d="M78.5958 46.5307C73.1893 48.7141 70.574 54.8185 72.7289 60.1543L80.8176 80.1828C82.9725 85.5187 89.0935 88.0948 94.5 85.9113C99.9065 83.7278 102.522 77.6235 100.367 72.2876L92.2782 52.2592C90.1233 46.9233 84.0023 44.3472 78.5958 46.5307Z" fill="url(#paint2_linear_925_1509)" stroke="#0A2357" stroke-width="2"/>
<path d="M83.9353 93.5202L83.9352 93.5201C83.0642 92.7427 81.8408 92.6432 80.78 93.0716C79.7192 93.5 78.908 94.4212 78.8212 95.5854L78.8212 95.5856L78.2896 102.682C78.2895 102.683 78.2895 102.683 78.2895 102.684C78.1631 104.551 80.1558 105.947 82.2564 105.098L88.0829 102.745C90.1757 101.9 90.6452 99.5082 89.2482 98.2593C89.2482 98.2592 89.2481 98.2592 89.2481 98.2591L83.9353 93.5202Z" fill="#2761A6" stroke="#0A2357"/>
<path fill-rule="evenodd" clip-rule="evenodd" d="M495.535 -178.855C496.326 -177.526 495.889 -175.807 494.56 -175.017L92.8178 64.0368C91.4889 64.8275 89.7706 64.3913 88.9798 63.0624C88.1891 61.7335 88.6253 60.0151 89.9543 59.2244L491.697 -179.829C493.026 -180.62 494.744 -180.184 495.535 -178.855Z" fill="url(#paint3_linear_925_1509)"/>
<path fill-rule="evenodd" clip-rule="evenodd" d="M700.356 -184.749C701.937 -183.228 701.446 -180.586 699.424 -179.734L65.3298 87.3881C64.2047 87.862 62.9055 87.6205 62.0259 86.7738C60.4454 85.2523 60.9366 82.6104 62.9584 81.7587L697.052 -185.364C698.177 -185.837 699.477 -185.596 700.356 -184.749Z" fill="url(#paint4_linear_925_1509)"/>
<defs>
<linearGradient id="paint0_linear_925_1509" x1="54.2463" y1="39.4232" x2="90.9488" y2="130.302" gradientUnits="userSpaceOnUse">
<stop stop-color="#FFA5F9"/>
<stop offset="1" stop-color="#9773A4"/>
</linearGradient>
<linearGradient id="paint1_linear_925_1509" x1="50.8713" y1="56.649" x2="67.5245" y2="97.8841" gradientUnits="userSpaceOnUse">
<stop stop-color="#FC70FF"/>
<stop offset="1" stop-color="#FFEFFF" stop-opacity="0"/>
</linearGradient>
<linearGradient id="paint2_linear_925_1509" x1="78.2213" y1="45.6034" x2="94.8745" y2="86.8385" gradientUnits="userSpaceOnUse">
<stop stop-color="#FC70FF"/>
<stop offset="1" stop-color="#FFEFFF" stop-opacity="0"/>
</linearGradient>
<linearGradient id="paint3_linear_925_1509" x1="61.0807" y1="85.8639" x2="521.715" y2="-398.761" gradientUnits="userSpaceOnUse">
<stop stop-color="#FB5FCF"/>
<stop offset="0.302558" stop-color="#FB5FCF"/>
<stop offset="1" stop-color="#FB5FCF" stop-opacity="0"/>
</linearGradient>
<linearGradient id="paint4_linear_925_1509" x1="61.0807" y1="85.8639" x2="521.715" y2="-398.761" gradientUnits="userSpaceOnUse">
<stop stop-color="#FB5FCF"/>
<stop offset="0.302558" stop-color="#FB5FCF"/>
<stop offset="1" stop-color="#FB5FCF" stop-opacity="0"/>
</linearGradient>
</defs>
</svg>
