<svg width="1200" height="138" viewBox="0 0 1200 138" fill="none" xmlns="http://www.w3.org/2000/svg">
<g opacity="0.3">
<path fill-rule="evenodd" clip-rule="evenodd" d="M-26.5 -0.5H67.1667V93.1667H-26.5V-0.5ZM-25.5 0.5V92.1667H66.1667V0.5H-25.5Z" fill="#FAE1F4"/>
<path fill-rule="evenodd" clip-rule="evenodd" d="M-26.5 45.8333H67.1667V139.5H-26.5V45.8333ZM-25.5 46.8333V138.5H66.1667V46.8333H-25.5Z" fill="#FAE1F4"/>
<path fill-rule="evenodd" clip-rule="evenodd" d="M19.8333 -0.5H113.5V93.1667H19.8333V-0.5ZM20.8333 0.5V92.1667H112.5V0.5H20.8333Z" fill="#FAE1F4"/>
<path fill-rule="evenodd" clip-rule="evenodd" d="M19.8333 45.8333H113.5V139.5H19.8333V45.8333ZM20.8333 46.8333V138.5H112.5V46.8333H20.8333Z" fill="#FAE1F4"/>
<path fill-rule="evenodd" clip-rule="evenodd" d="M112.5 -0.5H206.167V93.1667H112.5V-0.5ZM113.5 0.5V92.1667H205.167V0.5H113.5Z" fill="#FAE1F4"/>
<path fill-rule="evenodd" clip-rule="evenodd" d="M112.5 45.8333H206.167V139.5H112.5V45.8333ZM113.5 46.8333V138.5H205.167V46.8333H113.5Z" fill="#FAE1F4"/>
<path fill-rule="evenodd" clip-rule="evenodd" d="M158.833 -0.5H252.5V93.1667H158.833V-0.5ZM159.833 0.5V92.1667H251.5V0.5H159.833Z" fill="#FAE1F4"/>
<path fill-rule="evenodd" clip-rule="evenodd" d="M158.833 45.8333H252.5V139.5H158.833V45.8333ZM159.833 46.8333V138.5H251.5V46.8333H159.833Z" fill="#FAE1F4"/>
<path fill-rule="evenodd" clip-rule="evenodd" d="M251.5 -0.5H345.167V93.1667H251.5V-0.5ZM252.5 0.5V92.1667H344.167V0.5H252.5Z" fill="#FAE1F4"/>
<path fill-rule="evenodd" clip-rule="evenodd" d="M251.5 45.8333H345.167V139.5H251.5V45.8333ZM252.5 46.8333V138.5H344.167V46.8333H252.5Z" fill="#FAE1F4"/>
<path fill-rule="evenodd" clip-rule="evenodd" d="M297.833 -0.5H391.5V93.1667H297.833V-0.5ZM298.833 0.5V92.1667H390.5V0.5H298.833Z" fill="#FAE1F4"/>
<path fill-rule="evenodd" clip-rule="evenodd" d="M297.833 45.8333H391.5V139.5H297.833V45.8333ZM298.833 46.8333V138.5H390.5V46.8333H298.833Z" fill="#FAE1F4"/>
<path fill-rule="evenodd" clip-rule="evenodd" d="M390.5 -0.5H484.167V93.1667H390.5V-0.5ZM391.5 0.5V92.1667H483.167V0.5H391.5Z" fill="#FAE1F4"/>
<path fill-rule="evenodd" clip-rule="evenodd" d="M390.5 45.8333H484.167V139.5H390.5V45.8333ZM391.5 46.8333V138.5H483.167V46.8333H391.5Z" fill="#FAE1F4"/>
<path fill-rule="evenodd" clip-rule="evenodd" d="M436.833 -0.5H530.5V93.1667H436.833V-0.5ZM437.833 0.5V92.1667H529.5V0.5H437.833Z" fill="#FAE1F4"/>
<path fill-rule="evenodd" clip-rule="evenodd" d="M436.833 45.8333H530.5V139.5H436.833V45.8333ZM437.833 46.8333V138.5H529.5V46.8333H437.833Z" fill="#FAE1F4"/>
<path fill-rule="evenodd" clip-rule="evenodd" d="M529.5 -0.5H623.167V93.1667H529.5V-0.5ZM530.5 0.5V92.1667H622.167V0.5H530.5Z" fill="#FAE1F4"/>
<path fill-rule="evenodd" clip-rule="evenodd" d="M529.5 45.8333H623.167V139.5H529.5V45.8333ZM530.5 46.8333V138.5H622.167V46.8333H530.5Z" fill="#FAE1F4"/>
<path fill-rule="evenodd" clip-rule="evenodd" d="M575.833 -0.5H669.5V93.1667H575.833V-0.5ZM576.833 0.5V92.1667H668.5V0.5H576.833Z" fill="#FAE1F4"/>
<path fill-rule="evenodd" clip-rule="evenodd" d="M575.833 45.8333H669.5V139.5H575.833V45.8333ZM576.833 46.8333V138.5H668.5V46.8333H576.833Z" fill="#FAE1F4"/>
<path fill-rule="evenodd" clip-rule="evenodd" d="M668.5 -0.5H762.167V93.1667H668.5V-0.5ZM669.5 0.5V92.1667H761.167V0.5H669.5Z" fill="#FAE1F4"/>
<path fill-rule="evenodd" clip-rule="evenodd" d="M668.5 45.8333H762.167V139.5H668.5V45.8333ZM669.5 46.8333V138.5H761.167V46.8333H669.5Z" fill="#FAE1F4"/>
<path fill-rule="evenodd" clip-rule="evenodd" d="M714.833 -0.5H808.5V93.1667H714.833V-0.5ZM715.833 0.5V92.1667H807.5V0.5H715.833Z" fill="#FAE1F4"/>
<path fill-rule="evenodd" clip-rule="evenodd" d="M714.833 45.8333H808.5V139.5H714.833V45.8333ZM715.833 46.8333V138.5H807.5V46.8333H715.833Z" fill="#FAE1F4"/>
<path fill-rule="evenodd" clip-rule="evenodd" d="M807.5 -0.5H901.167V93.1667H807.5V-0.5ZM808.5 0.5V92.1667H900.167V0.5H808.5Z" fill="#FAE1F4"/>
<path fill-rule="evenodd" clip-rule="evenodd" d="M807.5 45.8333H901.167V139.5H807.5V45.8333ZM808.5 46.8333V138.5H900.167V46.8333H808.5Z" fill="#FAE1F4"/>
<path fill-rule="evenodd" clip-rule="evenodd" d="M853.833 -0.5H947.5V93.1667H853.833V-0.5ZM854.833 0.5V92.1667H946.5V0.5H854.833Z" fill="#FAE1F4"/>
<path fill-rule="evenodd" clip-rule="evenodd" d="M853.833 45.8333H947.5V139.5H853.833V45.8333ZM854.833 46.8333V138.5H946.5V46.8333H854.833Z" fill="#FAE1F4"/>
<path fill-rule="evenodd" clip-rule="evenodd" d="M946.5 -0.5H1040.17V93.1667H946.5V-0.5ZM947.5 0.5V92.1667H1039.17V0.5H947.5Z" fill="#FAE1F4"/>
<path fill-rule="evenodd" clip-rule="evenodd" d="M946.5 45.8333H1040.17V139.5H946.5V45.8333ZM947.5 46.8333V138.5H1039.17V46.8333H947.5Z" fill="#FAE1F4"/>
<path fill-rule="evenodd" clip-rule="evenodd" d="M992.833 -0.5H1086.5V93.1667H992.833V-0.5ZM993.833 0.5V92.1667H1085.5V0.5H993.833Z" fill="#FAE1F4"/>
<path fill-rule="evenodd" clip-rule="evenodd" d="M992.833 45.8333H1086.5V139.5H992.833V45.8333ZM993.833 46.8333V138.5H1085.5V46.8333H993.833Z" fill="#FAE1F4"/>
<path fill-rule="evenodd" clip-rule="evenodd" d="M1085.5 -0.5H1179.17V93.1667H1085.5V-0.5ZM1086.5 0.5V92.1667H1178.17V0.5H1086.5Z" fill="#FAE1F4"/>
<path fill-rule="evenodd" clip-rule="evenodd" d="M1085.5 45.8333H1179.17V139.5H1085.5V45.8333ZM1086.5 46.8333V138.5H1178.17V46.8333H1086.5Z" fill="#FAE1F4"/>
<path fill-rule="evenodd" clip-rule="evenodd" d="M1131.83 -0.5H1225.5V93.1667H1131.83V-0.5ZM1132.83 0.5V92.1667H1224.5V0.5H1132.83Z" fill="#FAE1F4"/>
<path fill-rule="evenodd" clip-rule="evenodd" d="M1131.83 45.8333H1225.5V139.5H1131.83V45.8333ZM1132.83 46.8333V138.5H1224.5V46.8333H1132.83Z" fill="#FAE1F4"/>
</g>
</svg>
