
<svg xmlns="http://www.w3.org/2000/svg" version="1.1" xmlns:xlink="http://www.w3.org/1999/xlink" preserveAspectRatio="none" x="0px" y="0px" width="400px" height="400px" viewBox="0 0 400 400">
<defs/>

<g id="Layer_1">
<g transform="matrix( 0.4510345458984375, 0, 0, 0.4510345458984375, -74.25,36.9) ">
<g>
<g>
<path fill="#C747B3" stroke="none" d="
M 907.2 660.15
Q 1029.2 537.95 1029.2 365.35 1029.2 192.7 907.2 70.65 785.1 -51.4 612.5 -51.4 439.8 -51.4 317.8 70.65
L 317.8 70.6
Q 195.6 192.65 195.6 365.35 195.6 537.95 317.8 660.15 439.8 782.15 612.5 782.15 785.1 782.15 907.2 660.15
M 873.8 104.05
L 873.7 104.05
Q 981.9 212.25 981.9 365.35 981.9 518.45 873.7 626.75
L 873.8 626.75
Q 765.6 734.9 612.5 734.9 459.35 734.9 351.2 626.75 242.9 518.45 242.9 365.35 242.9 212.3 351.2 104.05 459.35 -4.15 612.5 -4.15 765.6 -4.15 873.8 104.05 Z"/>
</g>
</g>

<g transform="matrix( 2.2171173095703125, 0, 0, 2.2171173095703125, 164.6,-81.8) ">
<path stroke="#FFFFFF" stroke-width="15" stroke-linejoin="round" stroke-linecap="round" fill="none" d="
M 334.9285400390625 334.65045547485346
Q 389.9547546386719 279.53403396606444 389.9547546386719 201.68547134399415 389.9547546386719 123.8143569946289 334.9285400390625 68.76559066772461 279.8572219848633 13.716824340820313 202.00865936279297 13.716824340820313 124.11499328613283 13.716824340820313 69.08877868652345 68.76559066772461
L 69.08877868652345 68.74303894042968
Q 13.972357177734366 123.79180526733398 13.972357177734366 201.68547134399415 13.972357177734366 279.53403396606444 69.08877868652345 334.65045547485346 124.11499328613283 389.67667007446283 202.00865936279297 389.67667007446283 279.8572219848633 389.67667007446283 334.9285400390625 334.65045547485346 Z"/>
</g>
</g>

<g transform="matrix( 0.4510040283203125, 0, 0, 0.4510040283203125, -74.25,36.9) ">
<g>
<g>
<path fill="#EB9EEF" stroke="none" d="
M 986.4 365.15
Q 986.4 361.5 986.35 357.9 985.6 312.3 975.2 270.7 968.45 243.7 957.7 218.35 946.6 192.4 931.3 168.2 919.95 150.3 906.3 133.35 892.75 116.55 876.9 100.75 767.45 -8.75 612.5 -8.75 457.55 -8.75 348.05 100.75 332.2 116.55 318.65 133.35 305 150.3 293.65 168.2 278.3 192.4 267.25 218.35 256.45 243.7 249.7 270.7 239.3 312.3 238.55 357.9 238.5 361.5 238.5 365.15 238.5 437.3 262.25 499.6 289.5 571.15 348.05 629.7 457.55 739.15 612.5 739.15 767.45 739.15 876.9 629.7 935.4 571.15 962.7 499.6 986.4 437.3 986.4 365.15 Z"/>
</g>
</g>
</g>

<g transform="matrix( 0.2442779541015625, 0, 0, 0.277130126953125, 25.35,-25.2) ">
<g>
<g>
<path fill="#873E7F" stroke="none" d="
M 726.2 717.65
Q 721.2 717.4 716.1 717.2 448.1 688.65 403.25 760.2 352.95 840.45 367.9 867.95 382.6 894.95 515.7 861.6 619.55 843.7 675.3 842 730.95 840.3 781.65 841.85 832.3 843.35 937.15 861.6 1070.25 894.95 1084.95 867.95 1099.9 840.45 1049.6 760.2 1004.75 688.65 736.75 717.2 731.4 717.4 726.2 717.65 Z"/>
</g>
</g>
</g>

<g transform="matrix( 0.2771453857421875, 0, 0, 0.2771453857421875, 30.45,112.15) ">
<g>
<g>
<path fill="#8A518C" stroke="none" d="
M 873.4 469.95
L 873.4 470.1 873.5 470.1
Q 873.5 469.95 873.4 469.95 Z"/>
</g>
</g>
</g>

<g id="Layer_1" transform="matrix( 0.2770538330078125, 0, 0, 0.2770538330078125, 258.15,252.45) ">
<g>
<g>
<g>
<path fill="#873E7F" stroke="none" d="
M 131.35 -81.4
L 33.9 -81.4 -58.35 -69.15
Q -102.137109375 -44.93984375 -141.1 -69.15
L -176.4 -81.4 -196.95 -81.4 -196.95 38.15
Q -191.7201171875 38.70234375 -187.25 55.6 -182.7845703125 72.50078125 -177.8 80.85 -172.77734375 89.24765625 -166 103.05 -159.155859375 116.85078125 -150 128.75 -140.8 140.6 -126.85 153.95 -113.1470703125 167.2205078125 -103.3 172.9 -93.401953125 178.6349609375 -78.45 185.7 -63.5001953125 192.75390625 -22.05 199.15 19.406640625 205.6078125 59.2 200.1 98.9818359375 194.6302734375 131.05 166.85 163.1779296875 139.0787109375 166.95 32.85 171.49140625 22.07265625 168.25 7.75 156.6376953125 -44.0802734375 131.35 -81.4 Z"/>
</g>
</g>
</g>
</g>

<g id="Layer_1" transform="matrix( -0.2770538330078125, 0, 0, 0.2770538330078125, 149.5,252.45) ">
<g>
<g>
<g>
<path fill="#873E7F" stroke="none" d="
M 131.35 -81.4
L 33.9 -81.4 -58.35 -69.15
Q -102.137109375 -44.93984375 -141.1 -69.15
L -176.4 -81.4 -196.95 -81.4 -196.95 38.15
Q -191.7201171875 38.70234375 -187.25 55.6 -182.7845703125 72.50078125 -177.8 80.85 -172.77734375 89.24765625 -166 103.05 -159.155859375 116.85078125 -150 128.75 -140.8 140.6 -126.85 153.95 -113.1470703125 167.2205078125 -103.3 172.9 -93.401953125 178.6349609375 -78.45 185.7 -63.5001953125 192.75390625 -22.05 199.15 19.406640625 205.6078125 59.2 200.1 98.9818359375 194.6302734375 131.05 166.85 163.1779296875 139.0787109375 166.95 32.85 171.49140625 22.07265625 168.25 7.75 156.6376953125 -44.0802734375 131.35 -81.4 Z"/>
</g>
</g>
</g>
</g>

<g id="Layer_2" transform="matrix( 1.2576446533203125, 0, 0, 1.2576446533203125, 204.3,260.95) "/>

<g id="Layer_1" transform="matrix( 1.2576446533203125, 0, 0, 1.2576446533203125, 204.3,260.95) ">
<g id="Layer_2" transform="matrix( 1, 0, 0, 1, 44.1,0.15) ">
<g>
<g>
<path stroke="#FFFFFF" stroke-width="7" stroke-linejoin="round" stroke-linecap="round" fill="none" d="
M 36.35 -6.9
L 36.3 -14.2
Q 36.86640625 -14.5146484375 37.5 -14.85 41.4 -16.95 41.75 -17.8 42.1 -18.45 42.1 -20.85 42.1 -23.9 41.35 -24.45 40.75 -24.9 34.65 -26.45 30.75 -27.5 27.45 -28.2
L 27.4 -28.2"/>
</g>

<g>
<path stroke="#FFFFFF" stroke-width="7" stroke-linejoin="round" stroke-linecap="butt" fill="none" d="
M 27.4 -28.2
Q 20.5388671875 -29.3966796875 15.775 -29.7 8.1748046875 -30.191015625 -0.175 -29.3 -8.5345703125 -28.407421875 -12.85 -27.4 -17.154296875 -26.39765625 -21.3 -24.25 -24.75 -22.4 -26.55 -22.4 -26.7013671875 -22.39609375 -29.35 -24.325 -31.996484375 -26.2623046875 -33.975 -26.95 -35.9537109375 -27.637890625 -37.975 -27.95 -39.998828125 -28.2541015625 -43.6 -28.25 -44.4849609375 -28.25 -45.5 -28.25"/>
</g>

<g>
<path stroke="#FFFFFF" stroke-width="7" stroke-linejoin="miter" stroke-linecap="butt" stroke-miterlimit="3" fill="none" d="
M -45.5 -21.1
Q -44.3486328125 -21.1869140625 -40.775 -21.075 -36.95 -20.966015625 -34.65 -18.775 -32.35 -16.5841796875 -32.575 -13.925 -32.8 -11.25546875 -32.75 -10.8 -32.6 -7.5 -31.05 -6.7 -29.6 -5.95 -29.45 -5.2 -29.2 -4.05 -28.2 4.55 -26.85 14.85 -20.55 20.4 -14.55 25.65 -9.5 27.5 -3.85 29.55 6 29.55 18.7 29.55 27.3 21.65 34.95 14.55 35.65 5.2 35.9 2.55 36.05 0.65 36.35 -2.9 36.35 -6.9"/>
</g>
</g>
</g>

<g id="Layer_1" transform="matrix( 1, 0, 0, 1, 44.1,0.15) ">
<g>
<g>
<g>
<path fill="#05104D" stroke="none" d="
M 27.4 -28.2
Q 20.5388671875 -29.3966796875 15.75 -29.7 8.1748046875 -30.191015625 -0.2 -29.3 -8.5345703125 -28.407421875 -12.85 -27.4 -17.154296875 -26.39765625 -21.3 -24.25 -24.75 -22.4 -26.55 -22.4 -26.7013671875 -22.39609375 -29.35 -24.35 -31.996484375 -26.2623046875 -34 -26.95 -35.9537109375 -27.637890625 -38 -27.95 -39.998828125 -28.2541015625 -43.6 -28.25 -44.4849609375 -28.25 -45.5 -28.25 -46.7640625 -24.675 -45.5 -21.1 -44.3486328125 -21.1869140625 -40.8 -21.1 -36.95 -20.966015625 -34.65 -18.8 -32.35 -16.5841796875 -32.6 -13.95 -32.8 -11.25546875 -32.75 -10.8 -32.6 -7.5 -31.05 -6.7 -29.6 -5.95 -29.45 -5.2 -29.2 -4.05 -28.2 4.55 -26.85 14.85 -20.55 20.4 -14.55 25.65 -9.5 27.5 -3.85 29.55 6 29.55 18.7 29.55 27.3 21.65 34.95 14.55 35.65 5.2 35.9 2.55 36.05 0.65 36.35 -2.9 36.35 -6.9
L 36.3 -14.2
Q 36.86640625 -14.5146484375 37.5 -14.85 41.4 -16.95 41.75 -17.8 42.1 -18.45 42.1 -20.85 42.1 -23.9 41.35 -24.45 40.75 -24.9 34.65 -26.45 30.75 -27.5 27.45 -28.2
L 27.4 -28.2
M 27.45 -13
L 27.4 -13 27.4 -13.1
Q 27.425 -13.0357421875 27.45 -13 Z"/>
</g>
</g>
</g>
</g>

<g id="Layer_2" transform="matrix( -1, 0, 0, 1, -44.1,0.15) ">
<g>
<g>
<path stroke="#FFFFFF" stroke-width="7" stroke-linejoin="round" stroke-linecap="round" fill="none" d="
M 36.35 -6.9
L 36.3 -14.2
Q 36.86640625 -14.5146484375 37.5 -14.85 41.4 -16.95 41.75 -17.8 42.1 -18.45 42.1 -20.85 42.1 -23.9 41.35 -24.45 40.75 -24.9 34.65 -26.45 30.75 -27.5 27.45 -28.2
L 27.4 -28.2"/>
</g>

<g>
<path stroke="#FFFFFF" stroke-width="7" stroke-linejoin="round" stroke-linecap="butt" fill="none" d="
M 27.4 -28.2
Q 20.5388671875 -29.3966796875 15.775 -29.7 8.1748046875 -30.191015625 -0.175 -29.3 -8.5345703125 -28.407421875 -12.85 -27.4 -17.154296875 -26.39765625 -21.3 -24.25 -24.75 -22.4 -26.55 -22.4 -26.7013671875 -22.39609375 -29.35 -24.325 -31.996484375 -26.2623046875 -33.975 -26.95 -35.9537109375 -27.637890625 -37.975 -27.95 -39.998828125 -28.2541015625 -43.6 -28.25 -44.4849609375 -28.25 -45.5 -28.25"/>
</g>

<g>
<path stroke="#FFFFFF" stroke-width="7" stroke-linejoin="miter" stroke-linecap="butt" stroke-miterlimit="3" fill="none" d="
M -45.5 -21.1
Q -44.3486328125 -21.1869140625 -40.775 -21.075 -36.95 -20.966015625 -34.65 -18.775 -32.35 -16.5841796875 -32.575 -13.925 -32.8 -11.25546875 -32.75 -10.8 -32.6 -7.5 -31.05 -6.7 -29.6 -5.95 -29.45 -5.2 -29.2 -4.05 -28.2 4.55 -26.85 14.85 -20.55 20.4 -14.55 25.65 -9.5 27.5 -3.85 29.55 6 29.55 18.7 29.55 27.3 21.65 34.95 14.55 35.65 5.2 35.9 2.55 36.05 0.65 36.35 -2.9 36.35 -6.9"/>
</g>
</g>
</g>

<g id="Layer_1" transform="matrix( -1, 0, 0, 1, -44.1,0.15) ">
<g>
<g>
<g>
<path fill="#05104D" stroke="none" d="
M 27.4 -28.2
Q 20.5388671875 -29.3966796875 15.75 -29.7 8.1748046875 -30.191015625 -0.2 -29.3 -8.5345703125 -28.407421875 -12.85 -27.4 -17.154296875 -26.39765625 -21.3 -24.25 -24.75 -22.4 -26.55 -22.4 -26.7013671875 -22.39609375 -29.35 -24.35 -31.996484375 -26.2623046875 -34 -26.95 -35.9537109375 -27.637890625 -38 -27.95 -39.998828125 -28.2541015625 -43.6 -28.25 -44.4849609375 -28.25 -45.5 -28.25 -46.7640625 -24.675 -45.5 -21.1 -44.3486328125 -21.1869140625 -40.8 -21.1 -36.95 -20.966015625 -34.65 -18.8 -32.35 -16.5841796875 -32.6 -13.95 -32.8 -11.25546875 -32.75 -10.8 -32.6 -7.5 -31.05 -6.7 -29.6 -5.95 -29.45 -5.2 -29.2 -4.05 -28.2 4.55 -26.85 14.85 -20.55 20.4 -14.55 25.65 -9.5 27.5 -3.85 29.55 6 29.55 18.7 29.55 27.3 21.65 34.95 14.55 35.65 5.2 35.9 2.55 36.05 0.65 36.35 -2.9 36.35 -6.9
L 36.3 -14.2
Q 36.86640625 -14.5146484375 37.5 -14.85 41.4 -16.95 41.75 -17.8 42.1 -18.45 42.1 -20.85 42.1 -23.9 41.35 -24.45 40.75 -24.9 34.65 -26.45 30.75 -27.5 27.45 -28.2
L 27.4 -28.2
M 27.45 -13
L 27.4 -13 27.4 -13.1
Q 27.425 -13.0357421875 27.45 -13 Z"/>
</g>
</g>
</g>
</g>
</g>

<g id="Layer_3" transform="matrix( 1.2576446533203125, 0, 0, 1.2576446533203125, 204.3,260.95) ">
<g>
<g>
<g>
<path fill="#0163AF" stroke="none" d="
M -25.9 -15
Q -34.8640625 -20.5654296875 -45.3 -19.3
L -74.25 11.95
Q -69.8310546875 19.79140625 -63.1 22.95
L -25.9 -15
M 72.55 -16.9
Q 65.86953125 -19.798828125 53.3 -19.75
L 22.3 13.95
Q 26.3 19.77265625 34.35 23.65
L 72.55 -16.9 Z"/>

<path fill="#3D98DE" stroke="none" d="
M -54.05 -18.65
Q -61.8791015625 -18.2171875 -64.7 -16.6 -67.4708984375 -14.9814453125 -76.85 -2.9 -76.750390625 1.96640625 -75.85 5.1 -70.858203125 -0.5408203125 -62.7 -9.2 -54.5375 -17.8109375 -54.05 -18.65
M 28.4 -15.35
Q 28.25 -14.35 18.4 -3 18.85 3.65 19.55 6.3 26.4 -0.7 37.3 -13.3 40.7 -17.2 43.5 -18.35 37.1 -18.8 28.4 -15.35 Z"/>
</g>
</g>
</g>
</g>

<g id="Layer_1" transform="matrix( 1.2315673828125, 0, 0, 1.2315673828125, 201.9,130.8) "/>

<g id="Layer_2" transform="matrix( 1.2315673828125, 0, 0, 1.2315673828125, 201.9,130.8) ">
<g id="Layer_2" transform="matrix( 1, 0, 0, 1, -43.65,0) ">
<g>
<g>
<g>
<path fill="#05104D" stroke="none" d="
M -18.15 -29.85
Q -18.36171875 -29.6708984375 -18.6 -29.5
L -20.5 -27.8 -20.4 -27.9
Q -39.6966796875 -11.405859375 -44.2 5.4 -48.534375 21.255859375 -49.35 27.15 -49.350390625 27.2416015625 -49.35 27.25 -50.0865234375 33.24921875 -50.3 36.6
L -50.3 36.65
Q -50.9119140625 47.606640625 -45.35 53.25 -43.7314453125 54.9791015625 -41.4 55.15 -39.073046875 55.3673828125 -37.25 53.9
L -28.75 47.3
Q -26.21875 45.9806640625 -23.7 44.75 -20.7330078125 43.3724609375 -17.7 42.15 -17.6630859375 42.1359375 -17.65 42.1 -14.1990234375 40.80703125 -10.75 39.7 -10.6416015625 39.696484375 -10.55 39.65 -6.66328125 38.34140625 -2.8 37.2 1.234375 36.140234375 5.15 35.15 8.5609375 34.4501953125 11.9 33.65 14.639453125 33.2154296875 17.4 32.8 17.5775390625 32.7916015625 17.75 32.75
L 21.2 32.45
Q 22.65859375 32.3494140625 24.05 32.35 24.236328125 32.3556640625 24.4 32.35 28.28515625 32.105859375 32.05 32.1
L 32.1 32.1
Q 36.75 32.0501953125 41.35 31.95
L 41.45 31.95
Q 42.634375 31.9103515625 43.85 31.85
L 43.85 19.85
Q 42.4287109375 19.9041015625 41.05 19.95 36.5677734375 20.0484375 32 20.1
L 31.95 20.1
Q 27.876171875 20.096484375 23.65 20.35 21.9486328125 20.367578125 20.15 20.5
L 17 20.8 17 20.8
Q 16.5755859375 20.8052734375 16.1 20.85 13.024609375 21.3244140625 9.95 21.8 9.8119140625 21.85859375 9.6 21.9 6.162109375 22.687109375 2.65 23.4 2.5611328125 23.4498046875 2.45 23.45 -1.637109375 24.48671875 -5.85 25.6 -5.8943359375 25.6275390625 -6 25.65 -10.2125 26.8841796875 -14.45 28.3 -18.2494140625 29.5140625 -22 30.95
L -22.1 30.95
Q -25.5029296875 32.3443359375 -28.85 33.9 -31.801171875 35.333984375 -34.75 36.9 -35.1724609375 37.16015625 -35.6 37.45
L -38.3 39.6
Q -38.368359375 38.52578125 -38.3 37.3 -38.1083984375 34.2068359375 -37.45 28.7
L -37.45 28.8
Q -36.665625 23.344140625 -32.65 8.6 -28.603515625 -5.0939453125 -12.6 -18.75 -12.5576171875 -18.7802734375 -12.5 -18.85
L -10.8 -20.35 -8.15 -22.25
Q -6.0779296875 -23.4048828125 -4 -24.6 -1.8943359375 -25.663671875 0.25 -26.75 2.725 -27.775 5.15 -28.85 7.2681640625 -29.632421875 9.5 -30.3 9.7568359375 -30.343359375 10 -30.45 12.316796875 -31.291015625 14.7 -32 18.56015625 -32.9041015625 22.45 -33.8 22.50625 -33.810546875 22.55 -33.85
L 22.7 -33.85
Q 26.547265625 -34.564453125 30.4 -35.15 31.9205078125 -35.230078125 33.15 -36 33.6619140625 -36.2814453125 34.1 -36.7 34.8115234375 -37.3203125 35.25 -38.05 35.934375 -39.170703125 36.05 -40.55 36.1541015625 -41.3658203125 36.15 -42.1 36.1525390625 -42.3 36.15 -42.5 36.1888671875 -42.605859375 36.2 -42.7
L 36.2 -42.75
Q 36.8224609375 -42.8337890625 37.4 -42.95 37.8876953125 -43.0015625 38.4 -43.05 38.636328125 -43.0765625 38.85 -43.1 39.8236328125 -43.1037109375 40.75 -43.15 41.1681640625 -43.1462890625 41.5 -43.15 41.98515625 -43.086328125 42.45 -43.15 43.218359375 -43.1888671875 43.85 -43.2
L 44.1 -56.1
Q 39.6509765625 -56.1892578125 36.25 -55.6 32.8529296875 -54.97265625 31.1 -54.15 29.394921875 -53.319140625 27.5 -51.55 26.4859375 -50.637109375 25.85 -49.5 25.2583984375 -48.3541015625 25.05 -47.55 25.0349609375 -47.51484375 25 -47.5 24.8078125 -46.659375 24.7 -46.4
L 24.7 -46.4
Q 22.4787109375 -46.0115234375 20.25 -45.6 20.1412109375 -45.5771484375 20 -45.55 15.8123046875 -44.5876953125 11.65 -43.6 11.574609375 -43.547265625 11.45 -43.55 8.674609375 -42.734765625 5.95 -41.75 3.2009765625 -40.944921875 0.6 -39.95 0.53828125 -39.9130859375 0.4 -39.9 -2.025 -38.825 -4.5 -37.8 -4.591796875 -37.7125 -4.75 -37.65 -7.1259765625 -36.4751953125 -9.45 -35.3 -9.537109375 -35.2314453125 -9.65 -35.2 -11.9373046875 -33.8876953125 -14.2 -32.65 -14.4841796875 -32.4599609375 -14.8 -32.25
L -18.15 -29.85 Z"/>
</g>
</g>
</g>
</g>

<g id="Layer_1" transform="matrix( 1, 0, 0, 1, -43.65,0) ">
<g>
<g>
<g>
<path fill="#0163AF" stroke="none" d="
M -16.5 -23.3
Q -24.0138671875 -16.89296875 -29.1 -10.45 -35.959375 -1.7578125 -38.4 7 -42.6 22.3 -43.4 28 -44.1 33.75 -44.3 37 -44.75 45 -40.9 49.2
L -26.25 39.35
Q -33.331640625 43.8125 -29.55 17.5 -25.7109375 -8.754296875 -23.3 -14.05 -20.8421875 -19.351171875 -19 -20.9 -17.153515625 -22.44921875 -16.5 -23.3 Z"/>

<path fill="#009DFF" stroke="none" d="
M 44.25 -50.15
L 42.6 -50.15
Q 34.95 -49.95 32.15 -47.4 31.6083984375 -46.8970703125 31.2 -46.25 30.3001953125 -43.2888671875 33.7 -41.35 32.053515625 -41.2857421875 30.1 -41.15
L 30 -41.15
Q 28.3484375 -40.903125 26.7 -40.65 24.0173828125 -40.1962890625 21.35 -39.7 17.2 -38.75 13.1 -37.75 10.45 -37 7.9 -36.05 5.25 -35.3 2.8 -34.35 0.35 -33.3 -2.1 -32.25 -4.45 -31.1 -6.7 -29.95 -9 -28.65 -11.25 -27.4
L -14.6 -25 -16.5 -23.3
Q -17.153515625 -22.44921875 -19 -20.9 -20.8421875 -19.351171875 -23.3 -14.05 -25.7109375 -8.754296875 -29.55 17.5 -33.331640625 43.8125 -26.25 39.35 -23.1 37.85 -19.85 36.55 -16.2 35.15 -12.5 34 -8.4 32.6 -4.3 31.4 -0.15 30.3 3.9 29.3 7.45 28.55 10.95 27.75 13.95 27.25 17 26.8 17.1205078125 26.78671875 17.25 26.75
L 20.7 26.45
Q 22.44375 26.3232421875 24.15 26.25 27.6 26.05 31.4 25.95 35.15 25.8 40.2 25.8 42.103515625 25.8 43.85 25.85
L 43.85 -35.65
Q 43.6767578125 -36.1830078125 43.85 -39.15 43.8669921875 -39.4439453125 43.75 -39.7
L 44.25 -50.15 Z"/>
</g>
</g>
</g>

<g>
<g>
<g>
<path fill="#05104D" stroke="none" d="
M 7.45 -28.15
Q 7.45 -28.45 7.35 -28.75 7.05 -29.95 5.45 -30.45 3.95 -30.9 2.05 -30.4 2 -30.4 1.95 -30.4 0 -29.85 -1.15 -28.7 -1.9 -27.85 -2 -27 -2.05 -26.6 -1.95 -26.25 -1.6 -25.05 -0.05 -24.6 1.3 -24.15 2.9 -24.45 3.2 -24.5 3.5 -24.6 5.45 -25.1 6.55 -26.35 7.4 -27.25 7.45 -28.15 Z"/>
</g>
</g>
</g>

<g>
<g>
<g>
<path fill="#0163AF" stroke="none" d="
M 33.95 -43.85
Q 31.161328125 -44.8060546875 31.2 -46.25 30.8947265625 -46.0021484375 30.4 -44.85 29.959765625 -43.6888671875 30.25 -41.2 35.6013671875 -40.1328125 37.7 -39.8 39.7943359375 -39.4111328125 43.9 -39.4 44.00859375 -39.984375 43.9 -40.6 44.05 -41.6 44.2 -42.75 37.45 -42.75 33.95 -43.85 Z"/>
</g>
</g>
</g>
</g>

<g id="Layer_2" transform="matrix( -1, 0, 0, 1, 42.95,0) ">
<g>
<g>
<g>
<path fill="#05104D" stroke="none" d="
M -18.15 -29.85
Q -18.36171875 -29.6708984375 -18.6 -29.5
L -20.5 -27.8 -20.4 -27.9
Q -39.6966796875 -11.405859375 -44.2 5.4 -48.534375 21.255859375 -49.35 27.15 -49.350390625 27.2416015625 -49.35 27.25 -50.0865234375 33.24921875 -50.3 36.6
L -50.3 36.65
Q -50.9119140625 47.606640625 -45.35 53.25 -43.7314453125 54.9791015625 -41.4 55.15 -39.073046875 55.3673828125 -37.25 53.9
L -28.75 47.3
Q -26.21875 45.9806640625 -23.7 44.75 -20.7330078125 43.3724609375 -17.7 42.15 -17.6630859375 42.1359375 -17.65 42.1 -14.1990234375 40.80703125 -10.75 39.7 -10.6416015625 39.696484375 -10.55 39.65 -6.66328125 38.34140625 -2.8 37.2 1.234375 36.140234375 5.15 35.15 8.5609375 34.4501953125 11.9 33.65 14.639453125 33.2154296875 17.4 32.8 17.5775390625 32.7916015625 17.75 32.75
L 21.2 32.45
Q 22.65859375 32.3494140625 24.05 32.35 24.236328125 32.3556640625 24.4 32.35 28.28515625 32.105859375 32.05 32.1
L 32.1 32.1
Q 36.75 32.0501953125 41.35 31.95
L 41.45 31.95
Q 42.634375 31.9103515625 43.85 31.85
L 43.85 19.85
Q 42.4287109375 19.9041015625 41.05 19.95 36.5677734375 20.0484375 32 20.1
L 31.95 20.1
Q 27.876171875 20.096484375 23.65 20.35 21.9486328125 20.367578125 20.15 20.5
L 17 20.8 17 20.8
Q 16.5755859375 20.8052734375 16.1 20.85 13.024609375 21.3244140625 9.95 21.8 9.8119140625 21.85859375 9.6 21.9 6.162109375 22.687109375 2.65 23.4 2.5611328125 23.4498046875 2.45 23.45 -1.637109375 24.48671875 -5.85 25.6 -5.8943359375 25.6275390625 -6 25.65 -10.2125 26.8841796875 -14.45 28.3 -18.2494140625 29.5140625 -22 30.95
L -22.1 30.95
Q -25.5029296875 32.3443359375 -28.85 33.9 -31.801171875 35.333984375 -34.75 36.9 -35.1724609375 37.16015625 -35.6 37.45
L -38.3 39.6
Q -38.368359375 38.52578125 -38.3 37.3 -38.1083984375 34.2068359375 -37.45 28.7
L -37.45 28.8
Q -36.665625 23.344140625 -32.65 8.6 -28.603515625 -5.0939453125 -12.6 -18.75 -12.5576171875 -18.7802734375 -12.5 -18.85
L -10.8 -20.35 -8.15 -22.25
Q -6.0779296875 -23.4048828125 -4 -24.6 -1.8943359375 -25.663671875 0.25 -26.75 2.725 -27.775 5.15 -28.85 7.2681640625 -29.632421875 9.5 -30.3 9.7568359375 -30.343359375 10 -30.45 12.316796875 -31.291015625 14.7 -32 18.56015625 -32.9041015625 22.45 -33.8 22.50625 -33.810546875 22.55 -33.85
L 22.7 -33.85
Q 26.547265625 -34.564453125 30.4 -35.15 31.9205078125 -35.230078125 33.15 -36 33.6619140625 -36.2814453125 34.1 -36.7 34.8115234375 -37.3203125 35.25 -38.05 35.934375 -39.170703125 36.05 -40.55 36.1541015625 -41.3658203125 36.15 -42.1 36.1525390625 -42.3 36.15 -42.5 36.1888671875 -42.605859375 36.2 -42.7
L 36.2 -42.75
Q 36.8224609375 -42.8337890625 37.4 -42.95 37.8876953125 -43.0015625 38.4 -43.05 38.636328125 -43.0765625 38.85 -43.1 39.8236328125 -43.1037109375 40.75 -43.15 41.1681640625 -43.1462890625 41.5 -43.15 41.98515625 -43.086328125 42.45 -43.15 43.218359375 -43.1888671875 43.85 -43.2
L 44.1 -56.1
Q 39.6509765625 -56.1892578125 36.25 -55.6 32.8529296875 -54.97265625 31.1 -54.15 29.394921875 -53.319140625 27.5 -51.55 26.4859375 -50.637109375 25.85 -49.5 25.2583984375 -48.3541015625 25.05 -47.55 25.0349609375 -47.51484375 25 -47.5 24.8078125 -46.659375 24.7 -46.4
L 24.7 -46.4
Q 22.4787109375 -46.0115234375 20.25 -45.6 20.1412109375 -45.5771484375 20 -45.55 15.8123046875 -44.5876953125 11.65 -43.6 11.574609375 -43.547265625 11.45 -43.55 8.674609375 -42.734765625 5.95 -41.75 3.2009765625 -40.944921875 0.6 -39.95 0.53828125 -39.9130859375 0.4 -39.9 -2.025 -38.825 -4.5 -37.8 -4.591796875 -37.7125 -4.75 -37.65 -7.1259765625 -36.4751953125 -9.45 -35.3 -9.537109375 -35.2314453125 -9.65 -35.2 -11.9373046875 -33.8876953125 -14.2 -32.65 -14.4841796875 -32.4599609375 -14.8 -32.25
L -18.15 -29.85 Z"/>
</g>
</g>
</g>
</g>

<g id="Layer_1" transform="matrix( -1, 0, 0, 1, 42.95,0) ">
<g>
<g>
<g>
<path fill="#0163AF" stroke="none" d="
M -16.5 -23.3
Q -24.0138671875 -16.89296875 -29.1 -10.45 -35.959375 -1.7578125 -38.4 7 -42.6 22.3 -43.4 28 -44.1 33.75 -44.3 37 -44.75 45 -40.9 49.2
L -26.25 39.35
Q -33.331640625 43.8125 -29.55 17.5 -25.7109375 -8.754296875 -23.3 -14.05 -20.8421875 -19.351171875 -19 -20.9 -17.153515625 -22.44921875 -16.5 -23.3 Z"/>

<path fill="#009DFF" stroke="none" d="
M 44.25 -50.15
L 42.6 -50.15
Q 34.95 -49.95 32.15 -47.4 31.6083984375 -46.8970703125 31.2 -46.25 30.3001953125 -43.2888671875 33.7 -41.35 32.053515625 -41.2857421875 30.1 -41.15
L 30 -41.15
Q 28.3484375 -40.903125 26.7 -40.65 24.0173828125 -40.1962890625 21.35 -39.7 17.2 -38.75 13.1 -37.75 10.45 -37 7.9 -36.05 5.25 -35.3 2.8 -34.35 0.35 -33.3 -2.1 -32.25 -4.45 -31.1 -6.7 -29.95 -9 -28.65 -11.25 -27.4
L -14.6 -25 -16.5 -23.3
Q -17.153515625 -22.44921875 -19 -20.9 -20.8421875 -19.351171875 -23.3 -14.05 -25.7109375 -8.754296875 -29.55 17.5 -33.331640625 43.8125 -26.25 39.35 -23.1 37.85 -19.85 36.55 -16.2 35.15 -12.5 34 -8.4 32.6 -4.3 31.4 -0.15 30.3 3.9 29.3 7.45 28.55 10.95 27.75 13.95 27.25 17 26.8 17.1205078125 26.78671875 17.25 26.75
L 20.7 26.45
Q 22.44375 26.3232421875 24.15 26.25 27.6 26.05 31.4 25.95 35.15 25.8 40.2 25.8 42.103515625 25.8 43.85 25.85
L 43.85 -35.65
Q 43.6767578125 -36.1830078125 43.85 -39.15 43.8669921875 -39.4439453125 43.75 -39.7
L 44.25 -50.15 Z"/>
</g>
</g>
</g>

<g>
<g>
<g>
<path fill="#05104D" stroke="none" d="
M 7.45 -28.15
Q 7.45 -28.45 7.35 -28.75 7.05 -29.95 5.45 -30.45 3.95 -30.9 2.05 -30.4 2 -30.4 1.95 -30.4 0 -29.85 -1.15 -28.7 -1.9 -27.85 -2 -27 -2.05 -26.6 -1.95 -26.25 -1.6 -25.05 -0.05 -24.6 1.3 -24.15 2.9 -24.45 3.2 -24.5 3.5 -24.6 5.45 -25.1 6.55 -26.35 7.4 -27.25 7.45 -28.15 Z"/>
</g>
</g>
</g>

<g>
<g>
<g>
<path fill="#0163AF" stroke="none" d="
M 33.95 -43.85
Q 31.161328125 -44.8060546875 31.2 -46.25 30.8947265625 -46.0021484375 30.4 -44.85 29.959765625 -43.6888671875 30.25 -41.2 35.6013671875 -40.1328125 37.7 -39.8 39.7943359375 -39.4111328125 43.9 -39.4 44.00859375 -39.984375 43.9 -40.6 44.05 -41.6 44.2 -42.75 37.45 -42.75 33.95 -43.85 Z"/>
</g>
</g>
</g>
</g>
</g>

<g id="Layer_2" transform="matrix( 1.2315673828125, 0, 0, 1.2315673828125, 201,191.7) ">
<g>
<g>
<g>
<path fill="#FFFFFF" stroke="none" d="
M -9.3 -21.9
Q -8.722265625 -21.886328125 -8.2 -21.9 -6.212890625 -29.019921875 -9.3 -21.9
M -36.1 -19
Q -35.930078125 -19.0328125 -35.8 -19.1 -36.7833984375 -19.6193359375 -37.9 -20.25 -36.9046875 -19.5962890625 -36.1 -19
M -25.25 -20.7
Q -24.010546875 -20.8693359375 -22.75 -21.05 -26.2796875 -22.3259765625 -26.2 -20.55 -25.7734375 -20.6037109375 -25.35 -20.65 -25.35 -20.7 -25.25 -20.7
M -72.4 -6.45
L -69.35 -6.45
Q -68.696484375 -6.8216796875 -68.05 -7.2 -69.4560546875 -7.9705078125 -72.4 -6.45 Z"/>

<path fill="#05104D" stroke="none" d="
M -86.4 -3.65
Q -89.75546875 -3.5728515625 -91.4 -2.5 -93.03828125 -1.3759765625 -95.05 1.05 -97.0220703125 3.515234375 -98.65 7.55 -100.20625 11.6447265625 -99.7 17.05 -99.2255859375 22.29296875 -96.1 24.85 -92.9833984375 27.410546875 -85.25 27.8 -77.4546875 28.194140625 -67.65 21
L -67.6 21
Q -57.15 14.35 -43.55 10.1
L -43.55 10.05
Q -33.1345703125 6.47734375 -20.5 5.1 -7.8052734375 3.772265625 1 4 4.3796875 -5.058203125 -5.8 -4.9 -9 -4.9 -12.3 -4.7 -32.05 -3.7 -46.5 1 -61.25 5.7 -72.65 12.9 -72.7 12.9 -72.7 12.95 -82.25 18.8 -85.4 19.4 -87.55 19.1 -88.7 18.55 -89.1 17.75 -89.55 15.6
L -89.55 15.55
Q -90.2 12.2 -88.55 8.25 -88.3 7.55 -88.2 6.95 -87.65 6.3 -87.3 5.45 -87.35 5.65 -87.25 5.6 -87.2 5.55 -87.1 5.5 -86.3361328125 4.915234375 -85.6 4.35 -83.3033203125 2.596484375 -81.4 1.15
L -81.35 1.1
Q -78.95 -0.75 -72.4 -4.65 -70.907421875 -5.57109375 -69.35 -6.45 -71.2884765625 -6.2734375 -77.2 -5 -83.0474609375 -3.6693359375 -86.4 -3.65 Z"/>
</g>
</g>
</g>
</g>

<g id="Layer_3" transform="matrix( 1.2315673828125, 0, 0, 1.2315673828125, 201,191.7) ">
<g>
<g>
<g>
<path fill="#0163AF" stroke="none" d="
M -89.15 2.95
Q -88.401953125 2.2939453125 -87.45 1.65 -89.4734375 2.1501953125 -89.15 2.95 Z"/>

<path fill="#009DFF" stroke="none" d="
M -2.2 -12.05
Q -9.35 -11.85 -17.35 -11.1 -30.95 -10.1 -42.25 -6.45 -59.1 -1.1 -69.25 6 -79.7 13.2 -84.9 13.3 -89.8826171875 13.2515625 -91.4 8.9 -95.7548828125 11.8912109375 -94.5 15.85 -93.200390625 19.8546875 -90.95 20.95 -88.6490234375 22.098828125 -83.45 21.85 -78.25 21.55 -67.85 14.8 -57.5 8 -42.8 3.25 -28.4 -1.5 -8.7 -2.5 -5.4 -2.65 1 -2.8 2.8685546875 -7.8697265625 -2.2 -12.05 Z"/>
</g>
</g>
</g>
</g>

<g id="Layer_1" transform="matrix( 1.2315673828125, 0, 0, 1.2315673828125, 201,191.7) ">
<g>
<g>
<g>
<path fill="#0163AF" stroke="none" d="
M 0.95 -8.05
Q 2.1978515625 -17.08828125 1.35 -26.5 -14.901171875 -26.3962890625 -23.35 -25.25 -29.85 -24.5 -33.55 -23.75 -37.2 -23 -44.2 -21.05 -51.4 -19.15 -59.55 -15.6 -67.75 -12.05 -74.8 -7.75 -82 -3.4 -84.65 -1.35 -87.3 0.65 -90.7 3.25 -94.92890625 9.1 -95 13.15 -95.0158203125 17.25 -88 17.2 -80.9447265625 17.2 -70.3 10 -60 2.9 -42.9 -2.45 -31.4 -6.1 -17.6 -7.1 -9.47578125 -7.8505859375 0.95 -8.05 Z"/>
</g>
</g>
</g>
</g>

<g id="Layer_4" transform="matrix( 1.2315673828125, 0, 0, 1.2315673828125, 201,191.7) "/>

<g id="Layer_2" transform="matrix( -1.2315673828125, 0, 0, 1.2315673828125, 202.85,191.7) ">
<g>
<g>
<g>
<path fill="#FFFFFF" stroke="none" d="
M -9.3 -21.9
Q -8.722265625 -21.886328125 -8.2 -21.9 -6.212890625 -29.019921875 -9.3 -21.9
M -36.1 -19
Q -35.930078125 -19.0328125 -35.8 -19.1 -36.7833984375 -19.6193359375 -37.9 -20.25 -36.9046875 -19.5962890625 -36.1 -19
M -25.25 -20.7
Q -24.010546875 -20.8693359375 -22.75 -21.05 -26.2796875 -22.3259765625 -26.2 -20.55 -25.7734375 -20.6037109375 -25.35 -20.65 -25.35 -20.7 -25.25 -20.7
M -72.4 -6.45
L -69.35 -6.45
Q -68.696484375 -6.8216796875 -68.05 -7.2 -69.4560546875 -7.9705078125 -72.4 -6.45 Z"/>

<path fill="#05104D" stroke="none" d="
M -86.4 -3.65
Q -89.75546875 -3.5728515625 -91.4 -2.5 -93.03828125 -1.3759765625 -95.05 1.05 -97.0220703125 3.515234375 -98.65 7.55 -100.20625 11.6447265625 -99.7 17.05 -99.2255859375 22.29296875 -96.1 24.85 -92.9833984375 27.410546875 -85.25 27.8 -77.4546875 28.194140625 -67.65 21
L -67.6 21
Q -57.15 14.35 -43.55 10.1
L -43.55 10.05
Q -33.1345703125 6.47734375 -20.5 5.1 -7.8052734375 3.772265625 1 4 4.3796875 -5.058203125 -5.8 -4.9 -9 -4.9 -12.3 -4.7 -32.05 -3.7 -46.5 1 -61.25 5.7 -72.65 12.9 -72.7 12.9 -72.7 12.95 -82.25 18.8 -85.4 19.4 -87.55 19.1 -88.7 18.55 -89.1 17.75 -89.55 15.6
L -89.55 15.55
Q -90.2 12.2 -88.55 8.25 -88.3 7.55 -88.2 6.95 -87.65 6.3 -87.3 5.45 -87.35 5.65 -87.25 5.6 -87.2 5.55 -87.1 5.5 -86.3361328125 4.915234375 -85.6 4.35 -83.3033203125 2.596484375 -81.4 1.15
L -81.35 1.1
Q -78.95 -0.75 -72.4 -4.65 -70.907421875 -5.57109375 -69.35 -6.45 -71.2884765625 -6.2734375 -77.2 -5 -83.0474609375 -3.6693359375 -86.4 -3.65 Z"/>
</g>
</g>
</g>
</g>

<g id="Layer_3" transform="matrix( -1.2315673828125, 0, 0, 1.2315673828125, 202.85,191.7) ">
<g>
<g>
<g>
<path fill="#0163AF" stroke="none" d="
M -89.15 2.95
Q -88.401953125 2.2939453125 -87.45 1.65 -89.4734375 2.1501953125 -89.15 2.95 Z"/>

<path fill="#009DFF" stroke="none" d="
M -2.2 -12.05
Q -9.35 -11.85 -17.35 -11.1 -30.95 -10.1 -42.25 -6.45 -59.1 -1.1 -69.25 6 -79.7 13.2 -84.9 13.3 -89.8826171875 13.2515625 -91.4 8.9 -95.7548828125 11.8912109375 -94.5 15.85 -93.200390625 19.8546875 -90.95 20.95 -88.6490234375 22.098828125 -83.45 21.85 -78.25 21.55 -67.85 14.8 -57.5 8 -42.8 3.25 -28.4 -1.5 -8.7 -2.5 -5.4 -2.65 1 -2.8 2.8685546875 -7.8697265625 -2.2 -12.05 Z"/>
</g>
</g>
</g>
</g>

<g id="Layer_1" transform="matrix( -1.2315673828125, 0, 0, 1.2315673828125, 202.85,191.7) ">
<g>
<g>
<g>
<path fill="#0163AF" stroke="none" d="
M 0.95 -8.05
Q 2.1978515625 -17.08828125 1.35 -26.5 -14.901171875 -26.3962890625 -23.35 -25.25 -29.85 -24.5 -33.55 -23.75 -37.2 -23 -44.2 -21.05 -51.4 -19.15 -59.55 -15.6 -67.75 -12.05 -74.8 -7.75 -82 -3.4 -84.65 -1.35 -87.3 0.65 -90.7 3.25 -94.92890625 9.1 -95 13.15 -95.0158203125 17.25 -88 17.2 -80.9447265625 17.2 -70.3 10 -60 2.9 -42.9 -2.45 -31.4 -6.1 -17.6 -7.1 -9.47578125 -7.8505859375 0.95 -8.05 Z"/>
</g>
</g>
</g>
</g>

<g id="Layer_4" transform="matrix( -1.2315673828125, 0, 0, 1.2315673828125, 202.85,191.7) "/>
</g>
</svg>
