<svg width="18" height="20" viewBox="0 0 18 20" fill="none" xmlns="http://www.w3.org/2000/svg">
<path d="M6.04494 9.48889C4.82337 8.59799 4.02788 7.15617 4.02788 5.53186C4.02788 2.83268 6.22384 0.636719 8.92303 0.636719C11.6222 0.636719 13.8182 2.83268 13.8182 5.53186C13.8182 7.15617 13.0227 8.59799 11.8011 9.48889C14.8378 10.6509 17 13.5952 17 17.0355C17 18.52 15.7922 19.7278 14.3077 19.7278H3.53838C2.05382 19.7278 0.846054 18.52 0.846054 17.0355C0.846054 13.5952 3.00826 10.6509 6.04494 9.48889ZM12.3496 5.53186C12.3496 3.64244 10.8124 2.10528 8.92303 2.10528C7.03361 2.10528 5.49644 3.64244 5.49644 5.53186C5.49644 7.42128 7.03361 8.95848 8.92303 8.95848C10.8124 8.95848 12.3496 7.42128 12.3496 5.53186ZM3.53838 18.2592H14.3077C14.9825 18.2592 15.5314 17.7102 15.5314 17.0354C15.5314 13.3915 12.567 10.427 8.92299 10.427C5.27902 10.427 2.31454 13.3914 2.31454 17.0354C2.31457 17.7102 2.86355 18.2592 3.53838 18.2592Z" fill="#80BBF2" stroke="#22263F" stroke-width="0.4"/>
</svg>
