<svg width="14" height="14" viewBox="0 0 14 14" fill="none" xmlns="http://www.w3.org/2000/svg">
<path d="M0.000727196 12.9913C0.000727196 13.2686 0.096717 13.5086 0.288697 13.7112C0.480676 13.9139 0.715318 14.0099 0.992622 13.9992H7.99988V13.8232C7.40261 13.6206 6.91732 13.2579 6.54403 12.7353C6.17074 12.2126 5.98942 11.6313 6.00009 10.9914C6.00009 10.3194 6.1974 9.72211 6.59203 9.19947C6.98665 8.67684 7.4986 8.32486 8.12786 8.14353C8.25585 7.73822 8.45849 7.37558 8.7358 7.0556C9.0131 6.73562 9.34907 6.48496 9.74369 6.30364C9.91434 5.845 9.99966 5.40769 9.99966 4.99171V3.99977C9.99966 2.8905 9.60504 1.94656 8.81579 1.16793C8.02654 0.389311 7.08797 0 6.00009 0C4.9122 0 3.96831 0.389311 3.16839 1.16793C2.36848 1.94656 1.97918 2.8905 2.00051 3.99977V4.99171C2.00051 5.69567 2.17116 6.3463 2.51246 6.9436C2.85376 7.5409 3.31771 8.02621 3.90431 8.39952C3.40303 8.58084 2.91775 8.8315 2.44847 9.15148C1.97918 9.47146 1.56323 9.82877 1.2006 10.2234C0.837971 10.6181 0.544669 11.0554 0.320693 11.5353C0.0967169 12.0153 -0.00993834 12.5006 0.000727196 12.9913ZM7.99988 10.9914C7.99988 11.2687 8.09587 11.5087 8.28784 11.7113C8.47982 11.914 8.71447 12.01 8.99177 11.9993H9.99966V12.9913C9.99966 13.2792 10.0957 13.5192 10.2876 13.7112C10.4796 13.9032 10.7143 13.9992 10.9916 13.9992C11.2689 13.9992 11.5035 13.9032 11.6955 13.7112C11.8875 13.5192 11.9888 13.2792 11.9994 12.9913V11.9993H12.9913C13.2686 11.9993 13.5033 11.9033 13.6953 11.7113C13.8872 11.5193 13.9886 11.2794 13.9992 10.9914C14.0099 10.7034 13.9086 10.4687 13.6953 10.2874C13.482 10.1061 13.2473 10.0101 12.9913 9.99943H11.9994V8.99149C11.9994 8.71417 11.8981 8.47951 11.6955 8.28753C11.4928 8.09554 11.2582 7.99954 10.9916 7.99954C10.7249 7.99954 10.4903 8.09554 10.2876 8.28753C10.085 8.47951 9.989 8.71417 9.99966 8.99149V9.99943H8.99177C8.71447 9.99943 8.47982 10.0954 8.28784 10.2874C8.09587 10.4794 7.99988 10.7141 7.99988 10.9914Z" fill="#001426"/>
</svg>
