<svg width="13" height="11" viewBox="0 0 13 11" fill="none" xmlns="http://www.w3.org/2000/svg">
<path fill-rule="evenodd" clip-rule="evenodd" d="M12.2675 0H0.423018C0.220392 0 0 0.220392 0 0.423018V3.38414C0 3.85116 0.379024 4.23018 0.846036 4.23018C1.31305 4.23018 1.69207 3.85116 1.69207 3.38414V1.69207H10.9985V3.38414C10.9985 3.85116 11.3775 4.23018 11.8445 4.23018C12.3115 4.23018 12.6905 3.85116 12.6905 3.38414V0.423018C12.6905 0.193742 12.523 0 12.2675 0ZM8.03734 7.61433H7.19131V3.80716C7.19131 3.34015 6.81228 2.96113 6.34527 2.96113C5.87826 2.96113 5.49924 3.34015 5.49924 3.80716V7.61433H4.6532C4.48738 7.61433 4.10539 7.57413 3.93957 7.74123C3.77375 7.90747 3.77375 8.17779 3.93957 8.34446L6.03012 10.8787C6.11853 10.9676 6.23613 11.0057 6.35204 10.9993C6.46795 11.0057 6.58512 10.9676 6.67353 10.8787L8.76409 8.34446C8.92991 8.17779 8.92991 7.90747 8.76409 7.74123C8.59827 7.57413 8.33557 7.61433 8.03734 7.61433Z" fill="#001426"/>
</svg>
