<?xml version="1.0" encoding="UTF-8"?><svg id="Layer_1" xmlns="http://www.w3.org/2000/svg" width="388.8" height="233.4" xmlns:xlink="http://www.w3.org/1999/xlink" viewBox="0 0 388.8 233.4"><defs><style>.cls-1{fill:#1193e3;}.cls-1,.cls-2,.cls-3,.cls-4,.cls-5,.cls-6,.cls-7,.cls-8,.cls-9,.cls-10,.cls-11,.cls-12,.cls-13,.cls-14,.cls-15,.cls-16,.cls-17,.cls-18,.cls-19,.cls-20,.cls-21,.cls-22,.cls-23,.cls-24,.cls-25,.cls-26,.cls-27,.cls-28,.cls-29,.cls-30,.cls-31,.cls-32,.cls-33,.cls-34,.cls-35,.cls-36,.cls-37,.cls-38,.cls-39,.cls-40{stroke-width:0px;}.cls-2{fill:url(#linear-gradient);}.cls-41,.cls-42,.cls-43,.cls-44,.cls-45,.cls-46,.cls-47,.cls-48,.cls-49,.cls-50,.cls-51,.cls-52,.cls-53,.cls-54,.cls-55{fill:none;stroke-linecap:round;stroke-linejoin:round;}.cls-41,.cls-42,.cls-44,.cls-50,.cls-51,.cls-52,.cls-55{stroke:#05104d;}.cls-41,.cls-48,.cls-53{stroke-width:2.2px;}.cls-42{stroke-width:2.75px;}.cls-3{fill:#e89fed;}.cls-43{stroke-width:2px;}.cls-43,.cls-45,.cls-47,.cls-49,.cls-54{stroke:#051051;}.cls-4{fill:#0162ae;}.cls-5{fill:#1463b2;}.cls-6{fill:url(#linear-gradient-6);}.cls-44{stroke-width:7.8px;}.cls-45{stroke-width:1.5px;}.cls-46,.cls-49,.cls-55{stroke-width:2.5px;}.cls-46,.cls-53{stroke:#fff;}.cls-7{fill:#fcfdfd;}.cls-8{fill:#fafafb;}.cls-47{stroke-width:1.35px;}.cls-48{stroke:#5073cc;}.cls-9{fill:#1c94ea;}.cls-10{fill:#075fa6;}.cls-50{stroke-width:1.7px;}.cls-56{opacity:.64;}.cls-51,.cls-54{stroke-width:1.65px;}.cls-11{fill:url(#linear-gradient-5);}.cls-12{fill:#757b9c;}.cls-57{opacity:.58;}.cls-13{fill:#026cb6;}.cls-14{fill:#fff;}.cls-52{stroke-width:1.85px;}.cls-15{fill:rgba(255,255,255,.07);}.cls-16{fill:#89d0fa;}.cls-17{fill:url(#linear-gradient-2);}.cls-18{fill:#f9f9fa;}.cls-19{fill:rgba(255,255,255,.2);}.cls-20{fill:#0163af;}.cls-21{fill:#b74bab;}.cls-22{fill:url(#linear-gradient-7);}.cls-23{fill:url(#linear-gradient-3);}.cls-24{fill:#ea9dee;}.cls-25{fill:#f7f7f9;}.cls-26{fill:#000c4e;}.cls-27{fill:#a1a1a2;}.cls-28{fill:#747a9a;}.cls-29{fill:#f4f5f7;}.cls-30{fill:#1192e1;}.cls-31{fill:#a6aabf;}.cls-32{fill:url(#linear-gradient-8);}.cls-33{fill:#05104d;}.cls-34{fill:#fcfcfd;}.cls-35{fill:#06114e;}.cls-36{fill:#dbdce2;}.cls-37{fill:url(#linear-gradient-4);}.cls-38{fill:#fcfcfc;}.cls-39{fill:#009dff;}.cls-40{fill:#73a7f4;}.cls-58{opacity:.71;}</style><linearGradient id="linear-gradient" x1="-322.68" y1="215.61" x2="-329.25" y2="594.59" gradientTransform="translate(445.5 479.1) scale(1 -1)" gradientUnits="userSpaceOnUse"><stop offset=".19" stop-color="#009dff"/><stop offset=".55" stop-color="#e89fed"/><stop offset=".78" stop-color="#85388a"/><stop offset="1" stop-color="#009dff"/></linearGradient><linearGradient id="linear-gradient-2" x1="-440.26" y1="173.78" x2="-62.48" y2="551.56" gradientTransform="translate(445.5 479.1) scale(1 -1)" gradientUnits="userSpaceOnUse"><stop offset=".05" stop-color="#009dff"/><stop offset=".55" stop-color="#f7efda"/><stop offset="1" stop-color="#009dff"/></linearGradient><linearGradient id="linear-gradient-3" x1="-320.32" y1="340.76" x2="-313.01" y2="340.76" gradientTransform="translate(396.45 448.45) scale(1 -1)" gradientUnits="userSpaceOnUse"><stop offset=".05" stop-color="#fff"/><stop offset=".55" stop-color="#f7efda"/><stop offset="1" stop-color="#009dff"/></linearGradient><linearGradient id="linear-gradient-4" x1="-280.32" x2="-273.01" xlink:href="#linear-gradient-3"/><linearGradient id="linear-gradient-5" x1="-178.96" y1="401.86" x2="-186.91" y2="438.38" gradientTransform="translate(445.5 479.1) scale(1 -1)" gradientUnits="userSpaceOnUse"><stop offset=".41" stop-color="#e57eec"/><stop offset=".85" stop-color="#fffbf1"/></linearGradient><linearGradient id="linear-gradient-6" x1="-211.4" y1="400.65" x2="-211.4" y2="445.05" xlink:href="#linear-gradient-5"/><linearGradient id="linear-gradient-7" x1="-115.15" y1="401.83" x2="-117.2" y2="440.68" gradientTransform="translate(445.5 479.1) scale(1 -1)" gradientUnits="userSpaceOnUse"><stop offset=".46" stop-color="#e57eec"/><stop offset=".73" stop-color="#fff8e5"/></linearGradient><linearGradient id="linear-gradient-8" x1="-151.87" y1="396.93" x2="-155.7" y2="444.71" xlink:href="#linear-gradient-7"/></defs><g id="Layer2_0_MEMBER_0_MEMBER_0_MEMBER_0_MEMBER_0_FILL"><path class="cls-2" d="M192.15,220.15l22.8-198.6H25.75v198.6h166.4Z"/></g><g id="Layer2_0_MEMBER_1_MEMBER_0_MEMBER_0_MEMBER_0_MEMBER_0_FILL"><path class="cls-17" d="M387.7,21c-.8-12.13-7.27-18.77-19.4-19.9H20.5C8.27,1.5,1.8,8.13,1.1,21v191.45c1,12.23,7.47,18.85,19.4,19.85h347.8c11.93-1.57,18.4-8.18,19.4-19.85V21M172.95,31.8l-.45,144.25-142.1,2.35-1.9-146.15,144.45-.45Z"/></g><path id="Layer2_0_MEMBER_1_MEMBER_0_MEMBER_1_MEMBER_0_1_STROKES" class="cls-41" d="M20.5,1.1h347.8c12.13,1.13,18.6,7.77,19.4,19.9v191.45c-1,11.67-7.47,18.28-19.4,19.85H20.5c-11.93-1-18.4-7.62-19.4-19.85V21C1.8,8.13,8.27,1.5,20.5,1.1Z"/><g class="cls-57"><path id="IDcard_svg_Assets_Layer_1_Group_1_0_Layer0_0_MEMBER_0_MEMBER_0_MEMBER_0_1_STROKES" class="cls-48" d="M27.2,7.55h334.5c12.4,0,18.6,6.22,18.6,18.65v179.45c0,12.43-6.2,18.65-18.6,18.65H27.2c-12.43,0-18.65-6.22-18.65-18.65V26.2c0-12.43,6.22-18.65,18.65-18.65Z"/></g><g class="cls-58"><path id="IDcard_svg_Assets_Layer_1_Group_0_Layer0_0_MEMBER_0_MEMBER_0_MEMBER_0_1_STROKES" class="cls-53" d="M27.2,10.2h334.5c12.4,0,18.6,6.22,18.6,18.65v179.45c0,12.43-6.2,18.65-18.6,18.65H27.2c-12.43,0-18.65-6.22-18.65-18.65V28.85c0-12.43,6.22-18.65,18.65-18.65Z"/></g><g class="cls-56"><path id="IDcard_svg_Assets_Layer_1_Group_6_0_Layer0_0_MEMBER_0_MEMBER_0_MEMBER_0_1_STROKES" class="cls-46" d="M34.7,32.8h133.35c2.4,0,3.6,1.23,3.6,3.7v138.85c0,2.47-1.2,3.7-3.6,3.7H34.7c-2.4,0-3.6-1.23-3.6-3.7V36.5c0-2.47,1.2-3.7,3.6-3.7Z"/></g><g id="Layer2_0_MEMBER_3_MEMBER_0_MEMBER_0_MEMBER_0_FILL"><path class="cls-33" d="M216.15,163.5v18.45h58.6v-18.45h-58.6Z"/></g><path id="Layer2_0_MEMBER_3_MEMBER_1_MEMBER_0_1_STROKES" class="cls-51" d="M193.9,132.15h163.4M193.9,111.45h163.4"/><path id="Layer2_0_MEMBER_3_MEMBER_2_MEMBER_0_1_STROKES" class="cls-44" d="M32.3,195.4h26.15M70.3,195.4h62.4"/><path id="Layer2_0_MEMBER_3_MEMBER_3_MEMBER_0_1_STROKES" class="cls-41" d="M144.3,195.4h26.15"/><g id="Layer2_0_MEMBER_4_MEMBER_0_FILL"><path class="cls-40" d="M51.65,139.05c-.93.37-1.92.97-2.95,1.8-3.13,2.53-5.6,6.42-7.4,11.65l-.4.25-.95.75c-1.03.83-1.87,1.73-2.5,2.7-2.13,3.17-2.18,6.42-.15,9.75l-.95.5c-.83.57-1.52,1.13-2.05,1.7-1.53,1.63-2.45,3.63-2.75,6l.8,2.35h6.7c3.37,0,7.85.13,13.45.4,6.73.3,11.22.47,13.45.5.77-2.23.7-4.22-.2-5.95,5.17-30.1.3-40.93-14.6-32.5,1.07-.2,1.53-.27,1.4-.2-.3.07-.6.17-.9.3Z"/></g><g id="Layer2_0_MEMBER_4_MEMBER_1_FILL"><path class="cls-5" d="M47,142.45c-2.13,2.3-3.42,3.7-3.85,4.2-1.43,1.77-2.47,3.55-3.1,5.35-.1.07-.12.32-.05.75.1.4.08.65-.05.75-1.03.83-1.87,1.73-2.5,2.7-2.13,3.17-2.18,6.42-.15,9.75l-.95.5c-.83.57-1.52,1.13-2.05,1.7-1.53,1.63-2.45,3.63-2.75,6-.4,1.07-.5,1.92-.3,2.55.77-.03,2.28-.1,4.55-.2l-.15-.2c-.1-.23-.13-.45-.1-.65l.1-.65c.27-1.03.78-2.03,1.55-3,.77-.93,1.62-1.67,2.55-2.2.83-.47,1.97-.87,3.4-1.2l1.75-.4c.5-.13,1.07-.32,1.7-.55l-1.9-2c-.2-.17-.7-.38-1.5-.65-.7-.27-1.15-.48-1.35-.65-.57-.6-.58-1.37-.05-2.3.37-.73.93-1.38,1.7-1.95.4-.27.68-.63.85-1.1.17-.5.18-.97.05-1.4-.2-.83-.15-1.5.15-2,.37-.43.97-.68,1.8-.75l4.35-.25-4.1-1.6-.35-.3-.05-.3c-.07-.37-.05-.95.05-1.75.03-1.67.12-2.77.25-3.3.03-.3.4-1.32,1.1-3.05.63-1.53,2.05-3.38,4.25-5.55-1.53.6-3.15,1.83-4.85,3.7Z"/></g><g id="Layer2_0_MEMBER_4_MEMBER_2_FILL"><path class="cls-40" d="M163.35,152.55l-.4-.25c-1.8-5.27-4.28-9.15-7.45-11.65-.93-.8-1.92-1.4-2.95-1.8l-.85-.35,1.4.25c-14.9-8.43-19.77,2.4-14.6,32.5-.93,1.83-.97,3.92-.1,6.25,4.07-.07,7.47-.02,10.2.15l.7.05c5.93-.23,9.12-.37,9.55-.4,3.6-.17,6.77-.4,9.5-.7l1.35-.55c.27-.83.78-1.6,1.55-2.3l.2-3.65c-.37-.77-.87-1.48-1.5-2.15-.77-.77-1.45-1.33-2.05-1.7l-.95-.5c2.07-3.4,2.02-6.65-.15-9.75-.67-.97-1.52-1.88-2.55-2.75l-.9-.7Z"/></g><g id="Layer2_0_MEMBER_4_MEMBER_3_FILL"><path class="cls-5" d="M164.55,152.55l-.65-.5c-.63-1.83-1.63-3.67-3-5.5-.73-1.03-1.95-2.48-3.65-4.35-1.67-1.8-3.3-3.02-4.9-3.65,2.23,2.1,3.67,3.93,4.3,5.5.6,1.5.97,2.53,1.1,3.1.07.37.13,1.47.2,3.3.13.6.17,1.17.1,1.7,0,.13-.03.23-.1.3-.03.17-.13.27-.3.3l-.4.2-1.35,1.2,1.95.5c.9.07,1.5.32,1.8.75.37.47.42,1.13.15,2-.1.53-.07,1,.1,1.4.13.4.42.77.85,1.1.73.53,1.3,1.17,1.7,1.9.5,1,.47,1.77-.1,2.3-.17.2-.62.43-1.35.7-.53.13-1.02.33-1.45.6l-1.9,2,3.45,1c1.47.3,2.58.68,3.35,1.15,1,.6,1.85,1.35,2.55,2.25.73.87,1.25,1.87,1.55,3l.15.65-.1.6c-.07.17-.25.33-.55.5l-.25.1.55-.05,1.35-.55c.57.23,1.1.1,1.6-.4.5-.67.87-1.1,1.1-1.3.2-2.43-.12-3.85-.95-4.25-.37-.77-.87-1.48-1.5-2.15-.77-.77-1.45-1.33-2.05-1.7l-.95-.5c2.07-3.4,2.02-6.65-.15-9.75-.1-.17-.33-.6-.7-1.3-.23-.5-.55-.9-.95-1.2-.1-.1-.2-.27-.3-.5-.1-.23-.2-.38-.3-.45Z"/></g><g id="Layer2_0_MEMBER_4_MEMBER_4_MEMBER_0_MEMBER_0_MEMBER_0_MEMBER_0_FILL"><path class="cls-40" d="M131.1,130.4c2.63,2.33,4.9,4.62,6.8,6.85l-.7-1.1-.05-.05-.5-.7-.35-.05-.7-1.1c-1-1.63-2.5-2.92-4.5-3.85Z"/></g><g id="Layer2_0_MEMBER_4_MEMBER_4_MEMBER_0_MEMBER_0_MEMBER_0_MEMBER_1_FILL"><path class="cls-40" d="M145.1,162.3c.07.88.15,1.54.25,2,.03.4.25,1.6.65,3.6.27,1.3.4,2.55.4,3.75,0,1.43-.23,2.95-.7,4.55.9-2.23,1.05-5.3.45-9.2-.13-1.17-.38-2.38-.75-3.65l-.3-1.05Z"/></g><g id="Layer2_0_MEMBER_4_MEMBER_4_MEMBER_0_MEMBER_0_MEMBER_0_MEMBER_2_FILL"><path class="cls-40" d="M142.95,146.65l.05.95c.57,1.47,1.03,3.1,1.4,4.9.57,2.53.8,5.08.7,7.65l-.05,1.5c1.2-3.9.5-8.9-2.1-15Z"/></g><g id="Layer2_0_MEMBER_4_MEMBER_4_MEMBER_0_MEMBER_0_MEMBER_0_MEMBER_3_FILL"><path class="cls-40" d="M102.55,163.4c.13,1.63.03,3.42-.3,5.35l-.75,5.45c.2.1.45.15.75.15h.75c.67.07,1.12.27,1.35.6l.2.6.05,1.4h1.25c4.1,0,7.88-.23,11.35-.7,4.67-.6,8.78-1.55,12.35-2.85,4.27-1.6,7.55-3.63,9.85-6.1,2.63-2.87,3.7-8.63,3.2-17.3l-.1-.3c-1.73,3.9-5.82,7.15-12.25,9.75-10.17,2.37-19.4,3.68-27.7,3.95Z"/></g><g id="Layer2_0_MEMBER_4_MEMBER_4_MEMBER_0_MEMBER_0_MEMBER_0_MEMBER_4_FILL"><path class="cls-40" d="M68.65,135.05l.05-.05c-.03-.23,0-.48.1-.75.03-.33.18-.7.45-1.1.67-1.2,1.47-2.22,2.4-3.05l-.35-.05c-8.4,9.87-10.95,21.27-7.65,34.2-.8,1.6-1.2,3.57-1.2,5.9,0,1.27.07,2.28.2,3.05l-.05-3.55c.07-1.53.22-2.68.45-3.45.2-.67.5-1.13.9-1.4l-.7-2.7c-.43-2.2-.6-4.17-.5-5.9l.35-6.45c0-1.03.03-1.75.1-2.15l1.6-6.2c.33-1,.7-1.9,1.1-2.7.7-1.33,1.62-2.55,2.75-3.65Z"/></g><g id="Layer2_0_MEMBER_4_MEMBER_4_MEMBER_0_MEMBER_0_MEMBER_0_MEMBER_5_FILL"><path class="cls-40" d="M132.55,177.1c2-.03,4-.03,6,0,.87.07,1.72.07,2.55,0,.03-.23.03-.5,0-.8-.03-.43-.18-.83-.45-1.2-.33-.37-.67-.6-1-.7-.43-.1-.92-.05-1.45.15-1.7.93-3.58,1.78-5.65,2.55Z"/></g><g id="Layer2_0_MEMBER_4_MEMBER_4_MEMBER_0_MEMBER_0_MEMBER_0_MEMBER_6_FILL"><path class="cls-40" d="M97.1,129.7l4.65-1.3-7.15,1,2.5.3Z"/></g><g id="Layer2_0_MEMBER_4_MEMBER_4_MEMBER_0_MEMBER_0_MEMBER_0_MEMBER_7_FILL"><path class="cls-40" d="M71.15,156.8c-2.33-1.43-3.97-2.85-4.9-4.25l-.25,3.1c-.1,1.87.02,3.67.35,5.4.37,1.9.9,3.62,1.6,5.15l.1.3.2.15c.8.53,1.55,1.3,2.25,2.3.43.6.93,1.48,1.5,2.65.6,1.13,1.08,1.92,1.45,2.35.57.77,1.27,1.3,2.1,1.6,2.47.9,7.07,1.4,13.8,1.5,1.23.03,4.1.02,8.6-.05h4.45l.05-.45c-.23-.03-.5-.05-.8-.05l-.75-.1-.75-.35c-.23-.17-.4-.35-.5-.55-.1-.13-.18-.37-.25-.7l-.05-.75c.07-1.2.17-2.13.3-2.8l.45-2.75c.17-.93.28-1.87.35-2.8.03-.73,0-1.48-.1-2.25-11.9.07-21.63-2.15-29.2-6.65Z"/></g><g id="Layer2_0_MEMBER_4_MEMBER_4_MEMBER_0_MEMBER_0_MEMBER_0_MEMBER_8_FILL"><path class="cls-5" d="M71.9,129.9l-.25.2c-.93.83-1.73,1.85-2.4,3.05-.27.4-.42.77-.45,1.1-.1.27-.13.52-.1.75l-.05.05c-1.13,1.1-2.05,2.32-2.75,3.65-.4.8-.77,1.7-1.1,2.7l-1.6,6.2c-.07.4-.1,1.12-.1,2.15l-.35,6.45c-.1,1.73.07,3.7.5,5.9l.7,2.7c-.4.27-.7.73-.9,1.4-.23.77-.38,1.92-.45,3.45l.05,3.55c-1.23.8-1.85,2.17-1.85,4.1h3.35c2.23-.03,5.32,0,9.25.1,4.4.13,7.48.2,9.25.2,2.17,0,5.4-.02,9.7-.05,3.9-.03,7.15-.02,9.75.05l2.6.05c2.77-.83,5.7-.8,8.8.1l2-.05c.07,0,2.92-.12,8.55-.35,3.4-.13,6.23-.22,8.5-.25.03,0,1.23.25,3.6.75,1.43.27,2.5.22,3.2-.15l.05-.05c.18-.01.44-.08.8-.2.5-.17.8-.18.9-.05.07.1.02.17-.15.2-.23.03-.35.13-.35.3.03.07.18.03.45-.1.27-.17.4-.2.4-.1.5,0,1.23-.12,2.2-.35.93-.2,1.68-.3,2.25-.3l-.2-.85c.47-1.6.7-3.12.7-4.55,0-1.2-.13-2.45-.4-3.75-.4-2-.62-3.2-.65-3.6-.1-.47-.18-1.15-.25-2.05l-.1-.35.05-.25.05-1.5c.1-2.57-.13-5.12-.7-7.65-.37-1.8-.83-3.43-1.4-4.9l-.05-.95-.85-1.9c-1.17-2.43-2.38-4.65-3.65-6.65l-.55-.85c-1.9-2.23-4.17-4.52-6.8-6.85-5.63-2.73-15.25-3.2-28.85-1.4l-5.15.7-2.5-.3-3.75.55c.27-.27-.77-.5-3.1-.7-.83-.07-1.43-.13-1.8-.2-1.33-.13-2.07-.27-2.2-.4.07-.17.07-.3,0-.4-.07-.4-.18-.68-.35-.85-.2-.2-.43-.35-.7-.45l-.8-.1-3.4.25c-.63,0-1.22.03-1.75.1-.43.1-.92.28-1.45.55l-1.3.75c-1,.57-1.7,1.03-2.1,1.4M66,155.65l.25-3.1c.93,1.4,2.57,2.82,4.9,4.25,7.57,4.5,17.3,6.72,29.2,6.65.1.77.13,1.52.1,2.25-.07.93-.18,1.87-.35,2.8l-.45,2.75c-.13.67-.23,1.6-.3,2.8l.05.75c.07.33.15.57.25.7.1.2.27.38.5.55l.75.35.75.1c.3,0,.57.02.8.05l-.05.45h-4.45c-4.5.07-7.37.08-8.6.05-6.73-.1-11.33-.6-13.8-1.5-.83-.3-1.53-.83-2.1-1.6-.37-.43-.85-1.22-1.45-2.35-.57-1.17-1.07-2.05-1.5-2.65-.7-1-1.45-1.77-2.25-2.3l-.2-.15-.1-.3c-.7-1.53-1.23-3.25-1.6-5.15-.33-1.73-.45-3.53-.35-5.4M102.25,168.75c.33-1.93.43-3.72.3-5.35,8.3-.27,17.53-1.58,27.7-3.95,6.43-2.6,10.52-5.85,12.25-9.75l.1.3c.5,8.67-.57,14.43-3.2,17.3-2.3,2.47-5.58,4.5-9.85,6.1-3.57,1.3-7.68,2.25-12.35,2.85-3.47.47-7.25.7-11.35.7h-1.25l-.05-1.4-.2-.6c-.23-.33-.68-.53-1.35-.6h-.75c-.3,0-.55-.05-.75-.15l.75-5.45Z"/></g><path id="Layer2_0_MEMBER_4_MEMBER_4_MEMBER_0_MEMBER_1_MEMBER_0_1_STROKES" class="cls-47" d="M62.65,173.2c-1.3.8-1.98,1.97-2.05,3.5"/><path id="Layer2_0_MEMBER_4_MEMBER_4_MEMBER_0_MEMBER_1_MEMBER_1_1_STROKES" class="cls-47" d="M145.1,162.25l-.1-.35.05-.25"/><path id="Layer2_0_MEMBER_4_MEMBER_4_MEMBER_0_MEMBER_1_MEMBER_2_1_STROKES" class="cls-47" d="M62.65,173.2c-.13-.77-.2-1.78-.2-3.05,0-2.33.4-4.3,1.2-5.9"/><path id="Layer2_0_MEMBER_4_MEMBER_4_MEMBER_0_MEMBER_1_MEMBER_3_1_STROKES" class="cls-47" d="M145.1,162.3l.3,1.05c.37,1.27.62,2.48.75,3.65.6,3.9.45,6.97-.45,9.2"/><g id="Layer2_0_MEMBER_4_MEMBER_4_MEMBER_1_MEMBER_0_MEMBER_0_MEMBER_0_FILL"><path class="cls-10" d="M103.85,165.9c.07.33.22,1.5.45,3.5.23,2.23.38,4.97.45,8.2,1.33-.37,2.82-.55,4.45-.55-.2-3.43-.63-7.17-1.3-11.2-.1-1.23-.33-2.17-.7-2.8-.77-1.37-1.95-.85-3.55,1.55l.2,1.3Z"/></g><path id="Layer2_0_MEMBER_4_MEMBER_4_MEMBER_2_MEMBER_0_MEMBER_0_1_STROKES" class="cls-54" d="M109.35,176.75c.1-4.23.07-7.12-.1-8.65-.53-4.5-1.88-6.3-4.05-5.4-1.73.7-2.4,2.9-2,6.6.2,2,.65,4.53,1.35,7.6"/><g id="Layer2_0_MEMBER_4_MEMBER_4_MEMBER_3_MEMBER_0_MEMBER_0_MEMBER_0_FILL"><path class="cls-16" d="M110.8,166.3l-.15.15c-.17.17-.33.25-.5.25-.23.07-.48.02-.75-.15l-.7-.3c-.43-.2-.98-.3-1.65-.3-1-.03-2.05.13-3.15.5-.27.13-.47.2-.6.2-.27.07-.47.08-.6.05-.1,0-.25-.07-.45-.2l-.05.45c-.2,2.33-.45,4.5-.75,6.5.8.6,2.55.9,5.25.9l3.8-.25c.77-1.6.87-4.2.3-7.8Z"/></g><g id="Layer2_0_MEMBER_4_MEMBER_4_MEMBER_3_MEMBER_0_MEMBER_0_MEMBER_1_FILL"><path class="cls-9" d="M101.55,158.4l-.05.65.4,3.25c.07,1.07.05,1.95-.05,2.65l-.05.55.1.55.3.45h.05c.2.13.35.2.45.2.13.03.33.02.6-.05.13,0,.33-.07.6-.2,1.1-.37,2.15-.53,3.15-.5.67,0,1.22.1,1.65.3l.7.3c.27.17.52.22.75.15.17,0,.33-.08.5-.25l.15-.15.15-.3c.1-.17.12-.37.05-.6l-.25-.5-.1-.1c.03-.1.02-.27-.05-.5-.03-.17-.12-.32-.25-.45l-.15-.15-.05-1.4-.3-1.6c-.2-.7-.62-1.35-1.25-1.95-.53-.5-1.23-.88-2.1-1.15-.1-.03-.55-.12-1.35-.25l-2.35-.15c-.2,0-.38.05-.55.15-.2.1-.37.23-.5.4l-.2.65Z"/></g><path id="Layer2_0_MEMBER_4_MEMBER_4_MEMBER_4_MEMBER_0_MEMBER_0_1_STROKES" class="cls-47" d="M109.45,160.2l.4,1.6c.17.63.45,1.9.85,3.8.67,4,.6,6.83-.2,8.5l-3.8.25c-2.7,0-4.45-.3-5.25-.9.3-2,.55-4.17.75-6.5.4-4.5.37-7.18-.1-8.05-.23-.5-.02-.87.65-1.1.6-.2,1.42-.25,2.45-.15,1.1.17,2,.43,2.7.8.9.5,1.42,1.08,1.55,1.75Z"/><g id="Layer2_0_MEMBER_4_MEMBER_5_MEMBER_5_FILL"><path class="cls-18" d="M91.95,106.7l-.1-.05c-.07.57-.23,1.38-.5,2.45-.23.67-.58,1.28-1.05,1.85v.1c.33.1.67.02,1-.25l.15-.1c.97-.4,1.7-1.05,2.2-1.95l.2-.55c.1-.33.15-.52.15-.55-.43-.53-1.12-.85-2.05-.95M77.4,107.1c-.57-.2-.98-.12-1.25.25-.03.47.07.77.3.9l.2.1c.63.1.97-.07,1-.5.1-.4.02-.65-.25-.75M82.8,105.25l.05-.15c.23-1.1-.18-1.57-1.25-1.4-.37.03-.63.22-.8.55v.1c-.07,1,.42,1.42,1.45,1.25.17-.03.35-.15.55-.35Z"/><path class="cls-7" d="M81.9,107.85h-1.1c-.67.23-1.15.68-1.45,1.35-.03,1.33.45,2.13,1.45,2.4h1.15c.57-.2,1.03-.55,1.4-1.05.1-.27.12-.62.05-1.05-.1-.93-.6-1.48-1.5-1.65Z"/></g><g id="Layer2_0_MEMBER_4_MEMBER_5_MEMBER_5_MEMBER_0_MEMBER_0_FILL"><path class="cls-3" d="M144.2,136.55c1.87-2.07,3.3-4.13,4.3-6.2l-.6.55c-.6,1.37-1.3,2.48-2.1,3.35-1.4,1.53-1.93,2.3-1.6,2.3M137.4,107.1c-3.73-1.83-3.98-4.13-.75-6.9l-.3-.2c-9.57-5.93-21.02-8.9-34.35-8.9s-24.75,2.97-34.25,8.9c-9.5,5.9-14.25,13.03-14.25,21.4,0,6.9,3.23,12.95,9.7,18.15l.95.2c-1.17-.93-2.35-2-3.55-3.2.3,0-.25-.77-1.65-2.3-.8-.9-1.48-2.02-2.05-3.35l-.65-.5c-1.33-2.8-2-5.8-2-9,0-8.3,4.62-15.37,13.85-21.2,3.27,2.77,3.02,5.07-.75,6.9-3.77,1.87-6.37,4.03-7.8,6.5-1.43,2.43-2.28,4.62-2.55,6.55-.2,1.87.07,4,.8,6.4.77,2.47,3.68,3.67,8.75,3.6,5.13,0,7.87,1.92,8.2,5.75.4,3.83,1.93,6.25,4.6,7.25,2.77,1.1,6.82,2.05,12.15,2.85,5.53.83,12.97.8,22.3-.1,9.5-.9,14.45-3.93,14.85-9.1.47-5.13,3.47-7.4,9-6.8,5.6.57,8.72-1.4,9.35-5.9.23-1.77.25-3.25.05-4.45-.2-1.33-.93-3.28-2.2-5.85-1.27-2.57-3.75-4.8-7.45-6.7M114.5,104.45c1.37.3,2.07.45,2.1.45.8.23,1.43.55,1.9.95.27.2.68.7,1.25,1.5.67,1.1,1.07,1.88,1.2,2.35.27.87.27,1.77,0,2.7-.27.9-.73,1.67-1.4,2.3-.53.53-1.13.9-1.8,1.1-.93.3-2.17.27-3.7-.1-1.87-.5-3.6-1.3-5.2-2.4-.4-.27-.83-.63-1.3-1.1-.63-.73-1.03-1.6-1.2-2.6-.13-1,0-1.93.4-2.8s1.03-1.57,1.9-2.1c.83-.53,1.73-.8,2.7-.8.43,0,.97.07,1.6.2.33.07.85.18,1.55.35M86.2,105.75c.33-.17,1.3-.45,2.9-.85,1.77-.5,3.05-.73,3.85-.7,1.53.1,2.73.78,3.6,2.05.9,1.2,1.18,2.55.85,4.05-.37,1.47-1.2,2.57-2.5,3.3-.37.2-.95.43-1.75.7-1.27.43-2.32.7-3.15.8-1,.17-1.93.13-2.8-.1-.97-.23-1.8-.75-2.5-1.55-.67-.8-1.07-1.7-1.2-2.7-.1-1,.1-1.97.6-2.9s1.2-1.63,2.1-2.1Z"/></g><g id="Layer2_0_MEMBER_4_MEMBER_5_MEMBER_5_MEMBER_1_MEMBER_0_MEMBER_0_FILL"><path class="cls-9" d="M65.3,134.2c-.3,3.17.3,6.27,1.8,9.3,1.9,3.77,5.15,7.35,9.75,10.75,4.03,2.93,9.28,4.9,15.75,5.9,6.13.9,12.37.8,18.7-.3,6.37-1.1,11.77-3.07,16.2-5.9,4.73-3.03,7.55-6.7,8.45-11,1.17-5.63-1.62-10-8.35-13.1-5.4-2.5-13.18-4.15-23.35-4.95-7.1-.53-15.18-.65-24.25-.35-5,.23-8.73.47-11.2.7-.47.57-.98,1.38-1.55,2.45-1.1,2.1-1.75,4.27-1.95,6.5Z"/></g><g id="Layer2_0_MEMBER_4_MEMBER_5_MEMBER_5_MEMBER_2_MEMBER_0_MEMBER_0_FILL"><path class="cls-13" d="M69.25,145.45l.65,1.35c.63,1.1,1.48,2.22,2.55,3.35,3.33,3.43,8.02,5.98,14.05,7.65l.3.35c.1.07.23.1.4.1l.3-.15c5.07,1.23,10.72,1.8,16.95,1.7,6.4-.03,11.93-.95,16.6-2.75,3.8-1.43,6.95-3.43,9.45-6h.25c.17-.07.3-.17.4-.3.13-.13.2-.33.2-.6,1.83-2.07,3.2-4.42,4.1-7.05l.6-2.35.05-.5c-.1.67-.35,1.42-.75,2.25-.9,2.07-2.28,4.02-4.15,5.85-.2-1.73-.52-3.33-.95-4.8-.67-2.2-1.53-4.1-2.6-5.7l1.1,4.15c.77,3.23,1.15,5.72,1.15,7.45-2.27,1.87-5,3.42-8.2,4.65-.07-1.47-.28-2.92-.65-4.35-.6-2.37-1.53-4.52-2.8-6.45l1.2,4.45c.73,3.23,1.03,5.47.9,6.7v.15c-2.77.93-5.93,1.65-9.5,2.15l-.25.05c.07-2.07-.02-3.85-.25-5.35-.37-2.6-1.03-4.8-2-6.6l.85,4.85c.47,3.53.47,5.95,0,7.25-4.2.47-8.18.55-11.95.25-.67-1.7-1.1-4.23-1.3-7.6-.1-1.1-.15-2.2-.15-3.3l-.05-1.3c-.47,2.17-.65,4.47-.55,6.9.07,1.73.27,3.45.6,5.15-2.9-.3-5.77-.83-8.6-1.6-.53-1.03-.97-3.28-1.3-6.75l-.35-4.9c-.53,2-.73,4.05-.6,6.15.03,1.6.27,3.28.7,5.05-2.73-.9-5.2-1.97-7.4-3.2-.73-2.43-1.03-5.02-.9-7.75l.4-3.35c-.13-.03-.28.02-.45.15-.13.17-.23.37-.3.6-.6,2.2-.87,4.15-.8,5.85,0,1.23.2,2.45.6,3.65-1.43-.93-2.53-1.73-3.3-2.4-.73-.6-1.33-1.22-1.8-1.85-.37-.53-.8-2.73-1.3-6.6l-.65-5.8c-.27,2.77-.43,5.5-.5,8.2-.03,1.27-.03,2.25,0,2.95Z"/></g><path id="Layer2_0_MEMBER_4_MEMBER_5_MEMBER_5_MEMBER_3_MEMBER_0_1_STROKES" class="cls-45" d="M68.8,125.25c-.57.67-1.1,1.48-1.6,2.45-1.17,2.07-1.87,4.2-2.1,6.4-.37,3.13.2,6.18,1.7,9.15,1.8,3.73,4.98,7.28,9.55,10.65,4.07,2.97,9.35,4.95,15.85,5.95,6.2.93,12.48.88,18.85-.15,6.6-1.1,12.07-3.03,16.4-5.8,4.77-3.03,7.6-6.68,8.5-10.95,1.17-5.63-1.62-10-8.35-13.1-5.4-2.5-13.18-4.15-23.35-4.95-7.1-.53-15.18-.65-24.25-.35-5,.23-8.73.47-11.2.7Z"/><g id="Layer2_0_MEMBER_4_MEMBER_5_MEMBER_5_MEMBER_4_MEMBER_0_FILL"><path class="cls-21" d="M67.35,107.1c3.7-1.87,3.95-4.17.75-6.9-9.23,5.83-13.85,12.9-13.85,21.2,0,3.2.67,6.18,2,8.95l.65.55c.57,1.33,1.25,2.45,2.05,3.35,1.43,1.53,1.98,2.3,1.65,2.3,1.2,1.2,2.38,2.27,3.55,3.2l-.95-.2c5.93,4.3,12,7.42,18.2,9.35,3.1.93,6.33,1.62,9.7,2.05,3.47.5,7.1.75,10.9.75h.75c3.87-.03,7.52-.28,10.95-.75,3.3-.43,6.53-1.12,9.7-2.05,6.07-1.9,12.13-5,18.2-9.3l-1,.15c.87-.67,2.07-1.73,3.6-3.2-.33,0,.2-.77,1.6-2.3.8-.87,1.5-1.98,2.1-3.35l.6-.5c1.37-2.9,2.05-5.9,2.05-9,0-8.27-4.63-15.33-13.9-21.2-3.23,2.77-2.98,5.07.75,6.9,3.7,1.9,6.18,4.13,7.45,6.7,1.27,2.57,2,4.52,2.2,5.85.2,1.2.18,2.68-.05,4.45-.63,4.5-3.75,6.47-9.35,5.9-5.57-.6-8.55,1.67-8.95,6.8-.47,5.17-5.43,8.2-14.9,9.1-9.33.9-16.77.93-22.3.1-5.57-.87-9.62-1.82-12.15-2.85-2.67-1-4.2-3.42-4.6-7.25-.33-3.83-3.07-5.75-8.2-5.75-5.07.07-7.98-1.13-8.75-3.6-.73-2.37-1-4.5-.8-6.4.27-1.93,1.12-4.12,2.55-6.55,1.47-2.53,4.07-4.7,7.8-6.5Z"/></g><g id="Layer2_0_MEMBER_4_MEMBER_5_MEMBER_5_MEMBER_5_MEMBER_0_FILL"><path class="cls-31" d="M121.7,112c.37.13.73.15,1.1.05v-.05h-1.1Z"/></g><g id="Layer2_0_MEMBER_4_MEMBER_5_MEMBER_5_MEMBER_6_MEMBER_0_FILL"><path class="cls-12" d="M81.85,111.65l.05-.05h-1c.23.13.55.15.95.05M122.8,108.2c-.23-.03-.57-.05-1-.05v.1h1v-.05Z"/></g><g id="Layer2_0_MEMBER_4_MEMBER_5_MEMBER_5_MEMBER_7_MEMBER_0_FILL"><path class="cls-36" d="M127.9,112.4v-.1h-.05c-.03.13-.17.23-.4.3v.1c.07.07.22.05.45-.05v-.05l-.05-.05v-.05l.05-.1Z"/></g><g id="Layer2_0_MEMBER_4_MEMBER_5_MEMBER_5_MEMBER_8_MEMBER_0_FILL"><path class="cls-28" d="M130.35,106.1v1.15c.13-.17.17-.42.1-.75v-.4h-.1Z"/></g><g id="Layer2_0_MEMBER_4_MEMBER_5_MEMBER_5_MEMBER_9_MEMBER_0_FILL"><path class="cls-21" d="M115.7,89.1l-2.5-.4c-1.93-.27-3.68-.45-5.25-.55l-6.6-.2-9.4.65c-1.33.03-2.58.22-3.75.55l-4.45,1.25c.13.13.35.17.65.1.73-.1,1.48-.13,2.25-.1l.65.05c1.73.1,3.35.42,4.85.95,1.4.5,2.63,1.15,3.7,1.95l1.1.9c.97.87,1.78,1.95,2.45,3.25.63,1.23,1.13,2.62,1.5,4.15.43,1.73.43,3.42,0,5.05-.4,1.47-1.18,2.58-2.35,3.35h-.1c-.37.13-.95.27-1.75.4-.27.47-.6.97-1,1.5-.9,1-1.98,1.83-3.25,2.5-1.3.67-2.72,1.15-4.25,1.45l-2.55.4c-1.83.27-3.6.33-5.3.2l-.8-.1c-1.53-.3-3.08-.65-4.65-1.05-.73-.2-1.43-.45-2.1-.75l-.95-.5c-1.2-.63-2.15-1.58-2.85-2.85-1.73-.1-2.88-.75-3.45-1.95-.07-.07-.13-.23-.2-.5-.1-.57-.02-.98.25-1.25v-.2c-.07-.2-.15-.33-.25-.4-.5-.33-.88-.78-1.15-1.35l-.45-.75-2.25,2.25c-.97,1.03-1.8,2.12-2.5,3.25-.3.4-.58.87-.85,1.4-.33.6-.7,1.4-1.1,2.4-.5,1.37-.95,2.82-1.35,4.35,0,2,.08,3.62.25,4.85.2,1.57.58,3.08,1.15,4.55.37.9.72,1.67,1.05,2.3l.85,1.45c.8,1.2,1.63,2.28,2.5,3.25,1,1.03,1.98,1.95,2.95,2.75,1.2.93,2.32,1.73,3.35,2.4,1.43.93,2.63,1.65,3.6,2.15,1.2.7,2.45,1.35,3.75,1.95l2,.85c.73.3,2.12.83,4.15,1.6,1.67.57,3.15,1,4.45,1.3,1.5.4,3.08.7,4.75.9l7.85.8c2.03.1,3.92.13,5.65.1,1.77-.03,3.57-.13,5.4-.3,1.8-.17,3.48-.37,5.05-.6,1.23-.17,2.85-.48,4.85-.95l4.45-1.25c1.47-.47,2.85-.98,4.15-1.55,1.1-.43,2.42-1.03,3.95-1.8.93-.47,2.15-1.15,3.65-2.05,1.23-.8,2.35-1.58,3.35-2.35l3.1-2.65c1.13-1.03,2.07-2.02,2.8-2.95.87-1.07,1.62-2.23,2.25-3.5l.85-1.95c.5-1.43.85-2.98,1.05-4.65.2-1.3.22-2.65.05-4.05-.2-1.7-.55-3.25-1.05-4.65-.6-1.53-1.22-2.82-1.85-3.85s-1.47-2.12-2.5-3.25c-.87-.93-1.83-1.87-2.9-2.8h-.1c-.2.83-.53,1.45-1,1.85l-.4.35c-.23.13-.38.4-.45.8l.15.3c.13.4.13.82,0,1.25-.6,1.3-1.78,2.02-3.55,2.15l-.9,1.3c-.3.3-.78.68-1.45,1.15-.73.5-1.4.88-2,1.15l-.8.3-5.15,1.05c-1.9.17-3.77.17-5.6,0-1.07-.13-1.88-.27-2.45-.4l-2.3-.5-3.75-1.7c-.07-.27-.28-.45-.65-.55-.23-.07-.5-.17-.8-.3-.37-.47-.65-.85-.85-1.15l-.8-1.2c0-.1-.13-.2-.4-.3-.2-.1-.26-.15-.2-.15-.33,0-.6-.03-.8-.1-.27-.07-.47-.15-.6-.25-.53-.37-.98-.8-1.35-1.3-.3-.5-.55-1.13-.75-1.9l-.1-1.4c-.07-.97-.03-1.77.1-2.4.1-.63.3-1.35.6-2.15l.55-2.25c.27-.57.65-1.18,1.15-1.85l1.65-2.05.3-.3c.57-.2,1.3-.5,2.2-.9.93-.5,1.27-.87,1-1.1l1.15-.65c.13-.07.6-.2,1.4-.4,1.73-.37,3.47-.53,5.2-.5l1.1.05c.5.07.83.07,1,0-.63-.13-1.65-.42-3.05-.85-.5-.2-1.25-.38-2.25-.55M139.65,111.3c.93-.17,1.75-.07,2.45.3.97.47,1.75,1.1,2.35,1.9.4.5.68,1.2.85,2.1l.2,1.65v.2l-.1.6c-.07.23-.2.32-.4.25-.33-.03-.55-.15-.65-.35-.13-.3-.3-.55-.5-.75,0-.07-.12-.17-.35-.3l-.4-.3-1.55-.85-1.05-.4-.55-.1c-.23-.03-.52-.05-.85-.05l-2.15.3c-.33,0-.7-.07-1.1-.2l-.15-.1c-.5-.2-.73-.65-.7-1.35.83-1.03,2-1.8,3.5-2.3l1.15-.25M139.55,118.85h.4c.13-.03.25-.03.35,0,.7.33,1.23.67,1.6,1,.43.37.8.87,1.1,1.5l.05.25c.1.83.05,1.67-.15,2.5-.37,1.43-.95,2.75-1.75,3.95l-1.2,1.7c-.9,1.23-1.77,2.27-2.6,3.1-.93,1-1.98,1.85-3.15,2.55-.73.47-1.37.82-1.9,1.05-1.27.63-2.88.9-4.85.8-1.17-.07-2.07-.12-2.7-.15-2.17-.23-3.83-.47-5-.7-1.67-.33-3.23-.68-4.7-1.05-1.57-.37-3.18-.67-4.85-.9h-.1c-1.93-.23-3.72-.37-5.35-.4-2.57-.07-4.43-.07-5.6,0-1.93.07-3.72.22-5.35.45l-4.75.95c-1.07.3-2.65.63-4.75,1l-2.5.4c-1.17.17-2.92.32-5.25.45-.97,0-1.83-.1-2.6-.3-.9-.3-1.6-.58-2.1-.85-1.3-.6-2.45-1.35-3.45-2.25-.33-.27-.83-.73-1.5-1.4l-1.3-1.5-.05-.05-1.65-1.95c-.87-.97-1.58-2.17-2.15-3.6-.4-1.03-.63-2.2-.7-3.5.3-.87.57-1.57.8-2.1.07-.1.27-.1.6,0,.37.17.58.2.65.1l.75-.7c.23-.13.62-.25,1.15-.35l.85-.2c.57,0,.98.07,1.25.2.23.1.52.28.85.55l.3.1.3.05,1.6,1.1c.53.37,1.05.77,1.55,1.2.83.77,2.08,1.48,3.75,2.15l.9.15h1.15c.37.07.75.07,1.15,0l.85-.15c.13-.03.3.02.5.15.13,0,.18-.22.15-.65-.9-.07-1.68-.2-2.35-.4l-1.7-.6c-1.17-.47-2.17-1.05-3-1.75-.27-.1-.5-.33-.7-.7-.2-.4-.25-.73-.15-1,.13-.17.35-.23.65-.2l1.35.3.85.1c.37.03.55.08.55.15l3.4.05,1.15.15c.97.07,1.95.07,2.95,0,3.27-.2,6.18-1.02,8.75-2.45l5.05-2.8,1.6-1.2c.77-.6,1.27-.97,1.5-1.1.4-.23.73-.37,1-.4l1.65-.1c.57.07.97.15,1.2.25.47.2,1.07.63,1.8,1.3l1.65,1.45c.4.2.75.43,1.05.7l1.2.85c.7.47,1.27.8,1.7,1l1.85.9,3.95.95,1.5.2c.87.13,2.07.23,3.6.3l3.4.05c.67,0,1.3-.03,1.9-.1,1.2-.17,2.1-.35,2.7-.55l.8-.3c.3-.03.52-.03.65,0,.4.3.5.68.3,1.15-.17.33-.37.62-.6.85-.7.6-1.5,1.17-2.4,1.7-.67.37-1.38.65-2.15.85-.83.23-1.75.35-2.75.35.03,0,.33.17.9.5.33.23.68.35,1.05.35l.8.05c.2.03.42.02.65-.05l1.35-.2,1.95-.65c.7-.27,1.27-.58,1.7-.95l.75-1c.37-.23.82-.43,1.35-.6.8-.23,1.28-.4,1.45-.5l.65-.55.55-.35c.17-.13.38-.2.65-.2.4-.1.7-.2.9-.3.3-.17.57-.22.8-.15M122.9,142.25l-.25.05c-1.07.6-2.35,1.22-3.85,1.85-.73.3-1.45.55-2.15.75l-.65.2c-.9.33-1.65.53-2.25.6-1.13.2-1.97.32-2.5.35l-4.1.3c-1.7.1-3.53.15-5.5.15-1.87,0-3.7-.05-5.5-.15-1.67-.1-3.42-.28-5.25-.55l-2.35-.55-4.25-1.5-2.85-1.4-.35-.25c-.37-.2-.5-.63-.4-1.3.47-.57,1.12-.9,1.95-1,.67-.07,1.45-.23,2.35-.5l9.25-2.25c1.67-.23,3.42-.38,5.25-.45l6.5.1c1.73.1,3.45.3,5.15.6,1.17.2,2.72.52,4.65.95l4.5,1.2c.4.13,1.07.3,2,.5l.1.05c.57.17.95.47,1.15.9v.2c.07.63-.15,1.02-.65,1.15M62,116.25c-.67.37-1.17.83-1.5,1.4-.2.3-.48.5-.85.6-.2.07-.42-.02-.65-.25l-.25-.3c-.07-.07-.08-.27-.05-.6v-.55l.3-1.15c.37-1.6,1.17-2.7,2.4-3.3l.85-.4c.6-.27,1.07-.4,1.4-.4.47-.03.92,0,1.35.1,1.5.4,2.77,1.02,3.8,1.85.37.27.5.68.4,1.25l-.15.3c-.07.17-.17.27-.3.3l-.35.2c-.3.1-.68.15-1.15.15l-1.05-.1c-.53-.1-1.03-.12-1.5-.05-.6.07-1.1.18-1.5.35l-1.2.6Z"/><path class="cls-3" d="M122.65,142.3l.25-.05c.5-.13.72-.52.65-1.15v-.2c-.2-.43-.58-.73-1.15-.9l-.1-.05c-.93-.2-1.6-.37-2-.5l-4.5-1.2c-1.93-.43-3.48-.75-4.65-.95-1.7-.3-3.42-.5-5.15-.6l-6.5-.1c-1.83.07-3.58.22-5.25.45l-9.25,2.25c-.9.27-1.68.43-2.35.5-.83.1-1.48.43-1.95,1-.1.67.03,1.1.4,1.3l.35.25,2.85,1.4,4.25,1.5,2.35.55c1.83.27,3.58.45,5.25.55,1.8.1,3.63.15,5.5.15,1.97,0,3.8-.05,5.5-.15l4.1-.3c.53-.03,1.37-.15,2.5-.35.6-.07,1.35-.27,2.25-.6l.65-.2c.7-.2,1.42-.45,2.15-.75,1.5-.63,2.78-1.25,3.85-1.85Z"/></g><g id="Layer2_0_MEMBER_4_MEMBER_5_MEMBER_5_MEMBER_10_MEMBER_0_FILL"><path class="cls-4" d="M68.6,122.95c-1.3-.8-2.53-1.2-3.7-1.2-.93-.03-1.72.2-2.35.7-.67.53-.98,1.25-.95,2.15,0,.77.27,1.53.8,2.3l2.75,3.85c.43.57.93,1.13,1.5,1.7.5.5,1.17,1.05,2,1.65,1.2.87,2.3,1.52,3.3,1.95,1.3.57,2.55.82,3.75.75,2-.1,4.33-.38,7-.85,2-.33,4.32-.8,6.95-1.4,2.97-.63,5.87-1.05,8.7-1.25,1.17-.1,2.23-.15,3.2-.15.83-.07,1.38-.13,1.65-.2l.8-.3c.2-.13.3-.27.3-.4,0-.1-.08-.23-.25-.4l-.6-.3c-.47-.17-1.15-.25-2.05-.25l-2.15.05c-2.83.13-4.42.22-4.75.25-.63.03-2.17.2-4.6.5l-10.15,1.5c-.27.03-.43-.13-.5-.5-.07-.37.27-.68,1-.95l.05-.45-.75-.15c-2.37.1-4.03.08-5-.05-1.67-.2-3.18-.82-4.55-1.85l-1.35-1.1c-.57-.57-.92-.95-1.05-1.15,0-.03.2.07.6.3l.8.6c1.27,1,2.4,1.62,3.4,1.85.73.2,2.02.33,3.85.4,2.33.07,4.98-.15,7.95-.65.97-.13,3.6-.6,7.9-1.4l8.95-.8c.7,0,1.33-.08,1.9-.25.8-.23,1.15-.6,1.05-1.1-.1-.47-.55-.8-1.35-1-.43-.1-1.07-.15-1.9-.15l-2.05.1c-1.7.1-3.35.25-4.95.45l-7.9,1.45c-3.03.57-5.7.75-8,.55-2.17-.27-4.2-1.1-6.1-2.5l-3.15-2.3M75.7,133.7c-.17-.07-.3-.17-.4-.3v-.05c-.1-.2-.1-.37,0-.5.07-.17.18-.28.35-.35.17-.1.33-.12.5-.05.13.03.27.15.4.35.1.2.1.38,0,.55-.07.13-.18.23-.35.3-.2.07-.37.08-.5.05M65.9,124.55l.2.2c.07.07.08.15.05.25-.03.03-.12-.03-.25-.2-.07-.17-.07-.25,0-.25Z"/></g><g id="Layer2_0_MEMBER_4_MEMBER_5_MEMBER_5_MEMBER_11_MEMBER_0_FILL"><path class="cls-1" d="M78.2,132.8c.03.37.4.65,1.1.85.9.27,2.18.27,3.85,0l6.2-1.05c2.43-.43,4.32-.73,5.65-.9.77-.1,2.03-.22,3.8-.35l5.15-.05c1-.13,1.13-.5.4-1.1-.17-.17-.3-.35-.4-.55-.1-.23-.28-.4-.55-.5-.3-.1-.8-.18-1.5-.25l-18.7,1.55c-1,.13-1.9.32-2.7.55l-1.05.35c-.33.13-.63.3-.9.5-.27.3-.38.62-.35.95Z"/></g><g id="Layer2_0_MEMBER_4_MEMBER_5_MEMBER_5_MEMBER_12_MEMBER_0_FILL"><path class="cls-1" d="M75.65,133.65c.17.1.37.1.6,0,.33-.2.43-.47.3-.8-.1-.37-.35-.5-.75-.4-.2.03-.37.15-.5.35-.1.17-.1.33,0,.5.07.2.18.32.35.35Z"/></g><g id="Layer2_0_MEMBER_4_MEMBER_5_MEMBER_5_MEMBER_13_MEMBER_0_FILL"><path class="cls-30" d="M65.3,122.2c1.13,0,2.3.35,3.5,1.05l2.5,1.85c1.1.9,2.28,1.57,3.55,2,1.27.4,2.62.65,4.05.75,1.43.03,3.07-.08,4.9-.35l9-1.35c2.07-.3,4.4-.5,7-.6.47-.03,1.87-.03,4.2,0l4.1.15c.53.03.05-.27-1.45-.9l-3.55-1.6c-.43-.23-.98-.38-1.65-.45l-13.05.6c-2.27.2-4.23.5-5.9.9l-1.55.5c-.73.23-1.27.37-1.6.4-.83.2-1.73.25-2.7.15-.83-.03-1.7-.27-2.6-.7-.7-.27-1.62-.8-2.75-1.6l-2.6-1.9c-1.27-.9-2.6-1.32-4-1.25-1.57.07-2.75.77-3.55,2.1v.05c-.13.27-.23.57-.3.9-.07.43-.08.75-.05.95l.05.5c.07.2.13.3.2.3.17.1.37,0,.6-.3l.5-.7c.67-.97,1.72-1.45,3.15-1.45Z"/></g><g id="Layer2_0_MEMBER_4_MEMBER_5_MEMBER_5_MEMBER_14_MEMBER_0_FILL"><path class="cls-4" d="M141.35,122.45c-.67-.5-1.45-.73-2.35-.7-1.17,0-2.4.4-3.7,1.2l-3.15,2.3c-1.9,1.4-3.93,2.23-6.1,2.5-2.3.2-4.97.02-8-.55l-7.95-1.45c-1.53-.2-3.18-.35-4.95-.45l-2-.1c-.8,0-1.43.05-1.9.15-.8.2-1.25.53-1.35,1-.1.5.25.87,1.05,1.1.5.17,1.13.25,1.9.25l1.95.05,6.95.75c4.47.83,7.12,1.3,7.95,1.4,2.97.5,5.62.72,7.95.65,1.83-.07,3.12-.2,3.85-.4,1-.23,2.13-.85,3.4-1.85l.8-.6c.4-.3.6-.4.6-.3-.17.27-.53.65-1.1,1.15-.27.27-.7.63-1.3,1.1-1.37,1.03-2.9,1.65-4.6,1.85-.9.13-2.55.15-4.95.05l-.75.15.05.45c.67.23,1,.55,1,.95-.07.37-.25.53-.55.5l-10.1-1.5c-2.53-.3-4.07-.47-4.6-.5-.37-.03-1.97-.12-4.8-.25l-2.1-.05c-.9,0-1.58.08-2.05.25l-.6.3c-.17.17-.25.3-.25.4,0,.13.52.1,1.55-.1,1-.14,1.38-.05,1.15.25-.2.34-.13.56.2.65.33.09,1.61.21,3.85.35,2.27.14,4.92.52,7.95,1.15,2.57.6,4.87,1.07,6.9,1.4,2.67.47,5,.75,7,.85,1.2.07,2.45-.18,3.75-.75,1-.43,2.1-1.08,3.3-1.95.83-.6,1.5-1.15,2-1.65l1.5-1.7,2.75-3.85c.53-.87.8-1.63.8-2.3.03-.87-.28-1.58-.95-2.15M137.95,124.8c-.07.2-.13.27-.2.2-.03-.07-.03-.15,0-.25l.25-.2c.07,0,.05.08-.05.25M137.3,125.4c.17-.27.25-.37.25-.3l-.1.3-.3.5h-.05s.03-.2.2-.5M128.6,133.4c-.1.13-.23.23-.4.3-.13.03-.3.02-.5-.05-.17-.07-.28-.17-.35-.3-.1-.17-.1-.35,0-.55.07-.17.2-.28.4-.35.17-.07.33-.05.5.05.17.07.28.18.35.35.1.13.1.3,0,.5v.05Z"/></g><g id="Layer2_0_MEMBER_4_MEMBER_5_MEMBER_5_MEMBER_15_MEMBER_0_FILL"><path class="cls-1" d="M124.45,131.35l-1.05-.35c-.8-.23-1.7-.42-2.7-.55l-16.85-1.5c-1,0-1.73.13-2.2.4l-.8.6c-.1.17-.32.22-.65.15-.37,0-.58.03-.65.1-.73.6-.62.97.35,1.1l5.2.05c1.77.13,3.03.25,3.8.35,1.33.17,3.22.47,5.65.9l6.2,1.05c1.67.27,2.95.27,3.85,0,.7-.2,1.07-.48,1.1-.85.07-.33-.05-.65-.35-.95-.2-.17-.5-.33-.9-.5Z"/></g><g id="Layer2_0_MEMBER_4_MEMBER_5_MEMBER_5_MEMBER_16_MEMBER_0_FILL"><path class="cls-1" d="M127.65,133.65c.2.1.4.1.6,0,.17-.03.28-.15.35-.35.1-.17.1-.33,0-.5-.13-.2-.3-.32-.5-.35-.4-.1-.65.03-.75.4-.13.33-.03.6.3.8Z"/></g><g id="Layer2_0_MEMBER_4_MEMBER_5_MEMBER_5_MEMBER_17_MEMBER_0_FILL"><path class="cls-30" d="M142.75,122v-.05c-.8-1.33-1.98-2.03-3.55-2.1-1.4-.03-2.73.38-4,1.25-1,.67-1.87,1.3-2.6,1.9-1.1.8-2.02,1.33-2.75,1.6-.9.43-1.78.67-2.65.7-.9.1-1.78.05-2.65-.15-.33-.03-.87-.17-1.6-.4l-1.55-.5c-1.67-.4-3.63-.7-5.9-.9l-13.05-.6c-.67.07-1,.25-1,.55,0,.3-1.07.78-3.2,1.45-2.07.67-2.92.98-2.55.95l4.2-.15c2.37-.03,3.77-.03,4.2,0,2.6.1,4.93.3,7,.6l9,1.4c1.97.23,3.6.33,4.9.3,1.47-.1,2.8-.35,4-.75,1.3-.4,2.5-1.07,3.6-2l2.5-1.85c1.2-.7,2.37-1.05,3.5-1.05,1.4,0,2.45.48,3.15,1.45l.5.7c.27.3.47.4.6.3.1,0,.17-.1.2-.3l.05-.5-.05-.95c-.03-.33-.13-.63-.3-.9Z"/></g><g id="Layer2_0_MEMBER_4_MEMBER_5_MEMBER_5_MEMBER_18_MEMBER_0_FILL"><path class="cls-24" d="M117.25,95.8v.05l-.95.1c-.93.1-1.72.27-2.35.5-.57.17-1.25.43-2.05.8-1.07.6-1.9,1.28-2.5,2.05-.93,1.07-1.6,2.47-2,4.2-.07.7,0,1.23.2,1.6h.05c1.4-.53,2.9-.98,4.5-1.35,1.5-.33,3.05-.63,4.65-.9v-.15h.85c.73-.07,1.32-.1,1.75-.1h.1v-.1h3.1v-.1l1.15.05v.05h.6c.47,0,.82.02,1.05.05v.05l2.7.2c1.5.27,2.35.42,2.55.45.63.17,1.15.33,1.55.5l2.5.95c1.27-.3,1.7-1.25,1.3-2.85-.43-1.7-1.32-2.87-2.65-3.5l-.85-.35-2.25-.7-4.85-1c-.67-.17-1.5-.28-2.5-.35-1.83-.1-3.72-.15-5.65-.15M83.05,95.85h-.1c-1.23.07-2.17.15-2.8.25l-2.45.45c-1.7.3-3.28.67-4.75,1.1l-2.2.75-.2.1c-1.17.73-1.98,1.95-2.45,3.65-.2,1.6.28,2.45,1.45,2.55h.1c.57-.3,1.28-.57,2.15-.8l.45-.15,3.35-.85,3.3-.3c1.77-.13,3.98-.15,6.65-.05l3.2.45c1.2.2,2.4.47,3.6.8,1.1.27,2.2.57,3.3.9l.1.05.85.35c.2-.57.27-1.18.2-1.85-.1-.7-.27-1.27-.5-1.7l-.1-.2c-.73-1.43-1.65-2.57-2.75-3.4l-.45-.3c-.77-.4-1.47-.73-2.1-1-.57-.27-1.35-.48-2.35-.65-1.7-.2-3.53-.25-5.5-.15Z"/></g><g id="Layer2_0_MEMBER_4_MEMBER_5_MEMBER_5_MEMBER_19_MEMBER_0_FILL"><path class="cls-21" d="M78.45,92.2l-.95.45-1.85,1.1c-1.07.7-2.32,1.37-3.75,2l-.85.4c-.97.63-1.92,1.1-2.85,1.4l-.6.85-.1.2c-.8,1.17-1.37,2.5-1.7,4l-.3,1.15c-.03,1.03.35,1.6,1.15,1.7.3.03.62,0,.95-.1.8-.33,1.48-.7,2.05-1.1h-.1c-1.17-.07-1.6-.78-1.3-2.15.53-1.3,1.52-2.3,2.95-3,1.57-.77,2.82-1.3,3.75-1.6l2.65-.8c.9-.27,1.65-.43,2.25-.5.63-.1,1.77-.18,3.4-.25,1.6,0,3.07.13,4.4.4,1.43.23,2.55.47,3.35.7.77.2,1.32.42,1.65.65l1.55,1.05c.63.43,1.3,1.28,2,2.55l.05.15c.27.5.45,1.02.55,1.55.07.6,0,1.15-.2,1.65v.05c1.23.27,2.12.83,2.65,1.7.17-.67.25-1.35.25-2.05s-.08-1.47-.25-2.2c-.2-.97-.53-2.05-1-3.25-.57-1.4-1.3-2.55-2.2-3.45-.83-.77-1.68-1.35-2.55-1.75-.73-.33-1.62-.67-2.65-1-1.3-.37-2.37-.57-3.2-.6-.13,0-1.25-.05-3.35-.15l-3.55.05c-1,0-1.77.07-2.3.2M115.05,92.35l-1.75.3c-.77.17-1.48.45-2.15.85l-.1.05c-1.37.53-2.48,1.33-3.35,2.4-.53.63-.92,1.22-1.15,1.75-.6,1.23-1.12,2.63-1.55,4.2v.15c-.07.57-.15.98-.25,1.25-.03.73,0,1.5.1,2.3,0,.2.07.47.2.8.53-.9,1.4-1.47,2.6-1.7v-.05l-.05-.05c-.17-.33-.23-.8-.2-1.4.4-1.53,1.07-2.77,2-3.7.63-.73,1.47-1.33,2.5-1.8.7-.33,1.38-.58,2.05-.75.8-.23,1.87-.42,3.2-.55l5.75.1c.93.07,1.77.17,2.5.3l4.85.95,3.2,1.2c1.53,1.02,2.43,2.09,2.7,3.2.3,1.14-.18,1.84-1.45,2.1l2.6,1.4c.4.13.72.13.95,0,.17-.1.37-.38.6-.85.17-.53.23-.93.2-1.2-.07-.3-.18-.6-.35-.9l-.35-.8c-.03-.1-.03-.3,0-.6.03-.23.03-.4,0-.5-.7-1.7-1.43-2.93-2.2-3.7l-1.05-.1c-.4-.03-.68-.13-.85-.3l-.15-.1-4.95-2.6c-1.1-.63-1.82-1.03-2.15-1.2-.77-.43-1.55-.8-2.35-1.1l-.1.1c-.47-.03-1.15,0-2.05.1l-2.05.15c-1.83,0-3.63.1-5.4.3Z"/></g><g id="Layer2_0_MEMBER_4_MEMBER_5_MEMBER_5_MEMBER_20_MEMBER_0_FILL"><path class="cls-29" d="M117,107.85c-.03.37.08.67.35.9h.1c.53.1.9,0,1.1-.3l.05-.15c.03-.6-.18-.92-.65-.95-.53,0-.85.17-.95.5Z"/></g><g id="Layer2_0_MEMBER_4_MEMBER_5_MEMBER_5_MEMBER_21_MEMBER_0_FILL"><path class="cls-34" d="M124.25,109.6c-.2-.7-.68-1.15-1.45-1.35h-1.1c-.67.2-1.15.62-1.45,1.25-.1.7-.02,1.27.25,1.7.3.37.7.63,1.2.8h1.1c.43-.1.78-.28,1.05-.55.3-.3.45-.73.45-1.3.03-.1.02-.28-.05-.55Z"/></g><g id="Layer2_0_MEMBER_4_MEMBER_5_MEMBER_5_MEMBER_22_MEMBER_0_FILL"><path class="cls-27" d="M92.55,105.65c-.4-.03-.6.05-.6.25l-.1.75.1.05c.93.1,1.62.42,2.05.95l-.35,1.1c-.5.83-1.23,1.48-2.2,1.95l-.15.1c-.33.27-.67.35-1,.25l-1.6,1.5c-.9.9-2.17,1.53-3.8,1.9.2.03.62.02,1.25-.05,1.5-.33,3.02-.73,4.55-1.2l1-.4c1.3-.6,2.35-1.45,3.15-2.55l.8-1.15c.23-.37.75-.5,1.55-.4.5-.1.7-.35.6-.75l-.1-.3c-.73-.67-1.68-1.13-2.85-1.4l-2.3-.6M73.85,105.05l-.6.2c-.7.1-1.35.28-1.95.55l-.1.05c-1.5.4-2.68,1.13-3.55,2.2-.07.77.17,1.25.7,1.45.13.07.25.08.35.05.8,0,1.38.05,1.75.15l.95,1.2c.77,1.1,1.87,1.9,3.3,2.4,1.4.5,2.95.85,4.65,1.05.33.03.63,0,.9-.1-1.37-.3-2.48-.82-3.35-1.55h-.05c-.27.07-.57,0-.9-.2l-.3-.1c-1.3-.57-2.37-1.43-3.2-2.6-.4-.57-.65-1.28-.75-2.15.43-.37.83-.63,1.2-.8l.85-.4c.13-.07.17-.02.1.15-.07.27-.03.42.1.45v-1.05c.07-.4.03-.72-.1-.95M114.5,111c-.4.07-.6.08-.6.05-.53-.1-1.07-.28-1.6-.55l-.15-.1c-.53-.37-.98-.78-1.35-1.25-.37-.37-.5-.93-.4-1.7.5-.33,1.05-.57,1.65-.7h.1c.13,0,.22-.05.25-.15l.45-1.1c-.53.1-1.07.18-1.6.25h-.1l-2.05.55c-1.13.3-2.03.82-2.7,1.55.1.8.68,1.12,1.75.95.1-.03.22-.02.35.05l.25.25c.63,1.2,1.52,2.22,2.65,3.05.73.43,1.37.75,1.9.95.5.2,1.25.43,2.25.7l1.9.45c.6.17,1.25.27,1.95.3.03-.21-1.24-.86-3.8-1.95l-1.1-1.6M131.05,105.2l-.75-.45.15,1.35v.3l.25.15.3.1.55.25c.43.13.75.38.95.75.1.2.1.45,0,.75-.3.77-.68,1.4-1.15,1.9-.9,1.03-2.05,1.8-3.45,2.3v.05c-.23.1-.38.12-.45.05h-.1c-.73.63-1.85,1.13-3.35,1.5.43.1.35.15-.25.15l.55.25c2.43-.4,4.07-.75,4.9-1.05.87-.27,1.58-.6,2.15-1,.53-.37.9-.7,1.1-1l.95-1.15c.2-.2.35-.43.45-.7.53-.12,1.02-.14,1.45-.05.44.09.74.04.9-.15.19-.16.44-.36.75-.6.31-.25.06-.76-.75-1.55-.8-.79-1.89-1.32-3.25-1.6l-.25-.1c-.19-.33-.74-.48-1.65-.45Z"/></g><g id="Layer2_0_MEMBER_4_MEMBER_5_MEMBER_5_MEMBER_23_MEMBER_0_FILL"><path class="cls-14" d="M74.45,109.4c-.27-.6-.43-1.38-.5-2.35-.13-.07-.17-.22-.1-.45.07-.17.03-.22-.1-.15l-.85.4c-.37.17-.77.43-1.2.8.1.87.35,1.58.75,2.15.8,1.1,1.87,1.97,3.2,2.6l.3.1c.33.2.63.27.9.2-1-.9-1.8-2-2.4-3.3Z"/></g><g id="Layer2_0_MEMBER_4_MEMBER_5_MEMBER_5_MEMBER_24_MEMBER_0_FILL"><path class="cls-38" d="M132.5,108.45c.1-.33.1-.6,0-.8-.2-.33-.52-.58-.95-.75-.17-.03-.35-.12-.55-.25l-.3-.1-.25-.15v.1c.03.33,0,.58-.1.75,0,.5-.08.97-.25,1.4-.53,1.47-1.27,2.65-2.2,3.55v.2l-.1.1.1.1c1.4-.5,2.55-1.27,3.45-2.3.47-.5.85-1.12,1.15-1.85Z"/></g><g id="Layer2_0_MEMBER_4_MEMBER_5_MEMBER_5_MEMBER_25_MEMBER_0_FILL"><path class="cls-25" d="M123.25,104.15l-.1-.05c-.9-.27-1.47-.05-1.7.65-.03.7.22,1.1.75,1.2.47.1.78.05.95-.15.3-.1.45-.35.45-.75s-.12-.7-.35-.9Z"/></g><g id="Layer2_0_MEMBER_4_MEMBER_5_MEMBER_5_MEMBER_26_MEMBER_0_FILL"><path class="cls-8" d="M112.4,106.6c-.03.1-.12.15-.25.15h-.1c-.6.13-1.15.37-1.65.7-.1.77.03,1.33.4,1.7.37.47.82.88,1.35,1.25l.15.1c.57.3,1.1.48,1.6.55,0,.03.02.03.05,0l-.1-.2c-.83-1.13-1.32-2.55-1.45-4.25Z"/></g><g id="Layer2_0_MEMBER_4_MEMBER_5_MEMBER_5_MEMBER_27_FILL"><path class="cls-35" d="M79.5,90.55c-.73.1-1.4.18-2,.25-1.03.19-1.87.35-2.5.5l-3.4,2.05c-1.1.7-2.38,1.33-3.85,1.9l-.7.55c-.43.4-.88,1-1.35,1.8l-.85,1.95v.05l-.5,1.55-.25,1.45-.2,1.35.05,1.2.25.45c.27.57.63,1.02,1.1,1.35.13.03.23.17.3.4v.2c-.27.27-.35.68-.25,1.25l.15.55c.67,1.17,1.83,1.8,3.5,1.9.67,1.23,1.62,2.2,2.85,2.9l.95.45,2.1.75c1.57.4,3.12.75,4.65,1.05l.8.1c1.67.13,3.43.07,5.3-.2l2.55-.4c1.53-.3,2.95-.78,4.25-1.45,1.2-.6,2.28-1.43,3.25-2.5.4-.53.73-1.03,1-1.5l1.75-.35.1-.05c1.17-.77,1.95-1.88,2.35-3.35.43-1.63.43-3.32,0-5.05-.37-1.53-.87-2.92-1.5-4.15-.63-1.23-1.45-2.32-2.45-3.25l-1.1-.9c-1.07-.8-2.3-1.45-3.7-1.95-1.5-.53-3.12-.85-4.85-.95l-.65-.05c-.77-.03-1.52,0-2.25.1-.3.07-.52.03-.65-.1l.3-.1c-2.1.07-3.62.15-4.55.25M78.5,92.2c.27-.13.68-.2,1.25-.2l6.7.1c1.9.1,3.57.37,5,.8.9.3,1.58.57,2.05.8.87.4,1.72.98,2.55,1.75.9.9,1.63,2.05,2.2,3.45.47,1.2.8,2.28,1,3.25.17.73.25,1.47.25,2.2s-.08,1.38-.25,2.05c-.53-.87-1.4-1.43-2.6-1.7l-.05-.05-.85-.35h-.1c-1.17-.37-2.27-.65-3.3-.85-.87-.2-2.07-.43-3.6-.7l-3.2-.4c-2.67-.1-4.88-.08-6.65.05l-5,.6-4.25,1.25c-.57.4-1.25.77-2.05,1.1-.33.1-.65.13-.95.1-.8-.1-1.18-.67-1.15-1.7l.3-1.15c.12-.52.27-1.04.45-1.55.33-.85.75-1.68,1.25-2.5l.7-1c1.1-.43,2.05-.9,2.85-1.4l.85-.4c1.43-.63,2.68-1.3,3.75-2l2.85-1.55M82.85,105.1l-.05.15c-.2.2-.38.32-.55.35-1.03.17-1.52-.25-1.45-1.25v-.1c.17-.33.43-.52.8-.55,1.07-.17,1.48.3,1.25,1.4M73.25,105.25l.6-.2c.13.23.17.55.1.95v1.05c.07.97.23,1.75.5,2.35.6,1.3,1.4,2.4,2.4,3.3h.05c.87.73,1.98,1.25,3.35,1.55-.27.1-.57.13-.9.1-1.7-.2-3.25-.55-4.65-1.05-1.43-.5-2.53-1.3-3.3-2.4l-.95-1.2c-.37-.1-.95-.15-1.75-.15-.1.03-.22.02-.35-.05-.53-.2-.77-.68-.7-1.45.87-1.07,2.05-1.8,3.55-2.2l.1-.05c.6-.27,1.25-.45,1.95-.55M81.85,107.8l.05.05c.87.17,1.37.72,1.5,1.65.07.43.05.78-.05,1.05-.37.5-.83.85-1.4,1.05h-.05l-.05.05c-.4.1-.72.08-.95-.05h-.1c-1-.27-1.48-1.07-1.45-2.4.23-.63.72-1.08,1.45-1.35h.1v-.1c.43,0,.75.02.95.05M76.45,108.25c-.27-.13-.37-.43-.3-.9.27-.37.68-.45,1.25-.25.23.1.32.35.25.75-.03.43-.37.6-1,.5l-.2-.1M91.95,105.9c0-.2.2-.28.6-.25l2.3.6c1.1.23,2.05.7,2.85,1.4l.1.3c.1.4-.1.65-.6.75-.8-.1-1.32.03-1.55.4l-.8,1.15c-.8,1.1-1.85,1.95-3.15,2.55-.27.17-.6.3-1,.4-1.03.33-2.55.73-4.55,1.2-.47.1-.88.12-1.25.05,1.63-.37,2.9-1,3.8-1.9l1.6-1.5v-.1c.43-.47.78-1.08,1.05-1.85.27-.97.43-1.77.5-2.4l.1-.8M117.7,90.4l-.65.05c-1.73.1-3.35.42-4.85.95-1.37.5-2.6,1.15-3.7,1.95l-1.1.9c-1,.93-1.82,2.02-2.45,3.25-.63,1.23-1.13,2.62-1.5,4.15-.43,1.73-.43,3.42,0,5.05.4,1.47,1.18,2.58,2.35,3.35l.1.05,1.75.35c.27.47.6.97,1,1.5.97,1.07,2.05,1.9,3.25,2.5,1.3.67,2.72,1.15,4.25,1.45l2.55.4c1.87.27,3.63.33,5.3.2l.8-.1,4.65-1.05,2.1-.75.95-.45c1.23-.7,2.18-1.67,2.85-2.9,1.7-.1,2.87-.73,3.5-1.9l.15-.55c.1-.57.02-.98-.25-1.25v-.2c.07-.2.15-.33.25-.4.53-.37.92-.82,1.15-1.35l.25-.45.05-1.2-.1-1.1-.05-.35-.8-2.9v-.05l-.85-1.95-.6-.95c-.2-.37-.45-.65-.75-.85l-.7-.55c-1.47-.57-2.75-1.2-3.85-1.9-.53-.37-1.67-1.05-3.4-2.05-.59-.14-1.36-.29-2.3-.45-.65-.09-1.39-.19-2.2-.3-.93-.1-2.45-.18-4.55-.25l.3.1c-.13.13-.35.17-.65.1-.73-.1-1.48-.13-2.25-.1M124.6,92c.57,0,.98.07,1.25.2l1,.45,1.85,1.1c1.07.7,2.32,1.37,3.75,2l.85.4c.97.63,1.92,1.1,2.85,1.4.1.17.3.45.6.85l.1.15c.54.88.98,1.78,1.3,2.7.16.45.29.9.4,1.35l.3,1.15c.07,1.03-.33,1.6-1.2,1.7-.27.03-.57,0-.9-.1-.8-.33-1.48-.7-2.05-1.1l-4.25-1.25-5-.6c-1.77-.13-3.98-.15-6.65-.05l-6.8,1.1c-1.03.2-2.13.48-3.3.85h-.1l-.85.35-.05.05c-1.2.27-2.07.83-2.6,1.7-.17-.67-.25-1.35-.25-2.05s.08-1.47.25-2.2c.2-.97.53-2.05,1-3.25.57-1.4,1.3-2.55,2.2-3.45.73-.73,1.58-1.32,2.55-1.75.87-.4,1.55-.67,2.05-.8,1.43-.43,3.1-.7,5-.8l6.7-.1M130.5,105.05l.6.2c.73.1,1.37.28,1.9.55l.15.05c1.5.4,2.68,1.13,3.55,2.2.07.77-.17,1.25-.7,1.45-.13.07-.25.08-.35.05-.8,0-1.38.05-1.75.15l-.95,1.2c-.73,1.1-1.83,1.9-3.3,2.4-1.4.5-2.95.85-4.65,1.05-.37.03-.67,0-.9-.1,1.37-.3,2.48-.82,3.35-1.55h.05c1-.9,1.8-2,2.4-3.3.3-.73.47-1.52.5-2.35v-1.05c-.03-.4,0-.72.1-.95M122.85,105.1l-.05.15c-.2.2-.38.32-.55.35-1.03.17-1.52-.25-1.45-1.25v-.1c.17-.33.43-.52.8-.55,1.07-.17,1.48.3,1.25,1.4M120.8,107.85h.1v-.1c.43,0,.75.02.95.05l.05.05c.87.17,1.37.72,1.5,1.65.07.43.05.78-.05,1.05-.37.5-.83.85-1.4,1.05h-.05l-.05.05c-.4.1-.72.08-.95-.05h-.1c-1-.27-1.48-1.07-1.45-2.4.23-.63.72-1.08,1.45-1.35M116.45,108.25c-.27-.13-.37-.43-.3-.9.27-.37.68-.45,1.25-.25.23.1.32.35.25.75-.03.43-.37.6-1,.5l-.2-.1M113,109.1c.27.77.62,1.38,1.05,1.85v.1l1.55,1.5c.93.9,2.22,1.53,3.85,1.9-.37.07-.78.05-1.25-.05-2.1-.5-3.62-.9-4.55-1.2-.4-.1-.73-.23-1-.4-1.3-.6-2.35-1.45-3.15-2.55l-.8-1.15c-.23-.37-.75-.5-1.55-.4-.5-.1-.7-.35-.6-.75l.1-.3c.73-.67,1.68-1.13,2.85-1.4l2.3-.6c.4-.07.6.02.6.25l.1.8c.07.53.23,1.33.5,2.4Z"/><path class="cls-23" d="M76.15,107.35c-.07.47.03.77.3.9l.2.1c.63.1.97-.07,1-.5.07-.4-.02-.65-.25-.75-.57-.2-.98-.12-1.25.25M81.9,107.85l-.05-.05c-.2-.03-.52-.05-.95-.05v.1h-.1c-.73.27-1.22.72-1.45,1.35-.03,1.33.45,2.13,1.45,2.4h.1c.23.13.55.15.95.05l.05-.05h.05c.57-.2,1.03-.55,1.4-1.05.1-.27.12-.62.05-1.05-.13-.93-.63-1.48-1.5-1.65M82.8,105.25l.05-.15c.23-1.1-.18-1.57-1.25-1.4-.37.03-.63.22-.8.55v.1c-.07,1,.42,1.42,1.45,1.25.17-.03.35-.15.55-.35Z"/><path class="cls-37" d="M116.15,107.35c-.07.47.03.77.3.9l.2.1c.63.1.97-.07,1-.5.07-.4-.02-.65-.25-.75-.57-.2-.98-.12-1.25.25M120.9,107.85h-.1c-.73.27-1.22.72-1.45,1.35-.03,1.33.45,2.13,1.45,2.4h.1c.23.13.55.15.95.05l.05-.05h.05c.57-.2,1.03-.55,1.4-1.05.1-.27.12-.62.05-1.05-.13-.93-.63-1.48-1.5-1.65l-.05-.05c-.2-.03-.52-.05-.95-.05v.1M122.8,105.25l.05-.15c.23-1.1-.18-1.57-1.25-1.4-.37.03-.63.22-.8.55v.1c-.07,1,.42,1.42,1.45,1.25.17-.03.35-.15.55-.35Z"/></g><path id="Layer2_0_MEMBER_4_MEMBER_5_MEMBER_5_MEMBER_27_1_STROKES" class="cls-52" d="M77.5,90.83c.38-.66.8-1.27,1.25-1.82,1.43-1.8,3.3-3.23,5.6-4.3,2.1-1,4.67-1.7,7.7-2.1,2.43-.37,5.65-.55,9.65-.55,4.03,0,7.9.42,11.6,1.25,3.27.7,6.1,1.75,8.5,3.15,2.23,1.21,3.98,2.69,5.25,4.43"/><path id="Layer2_0_MEMBER_4_MEMBER_5_MEMBER_5_MEMBER_27_2_STROKES" class="cls-50" d="M142.15,125.75c-1.03,2.3-2.45,4.47-4.25,6.5-2,2.13-4.08,3.58-6.25,4.35-.93.3-1.82.47-2.65.5-.9.07-1.8.05-2.7-.05-2.03-.13-4.55-.5-7.55-1.1l-5.2-1.05c-1.8-.37-3.55-.63-5.25-.8l-7.4-.25-5.35.25c-1.7.17-3.43.43-5.2.8l-5.2,1.05c-3,.6-5.52.97-7.55,1.1-.9.1-1.8.12-2.7.05-.83-.03-1.72-.2-2.65-.5-2.17-.77-4.25-2.22-6.25-4.35-1.8-2.03-3.22-4.2-4.25-6.5M61.65,125.4c-.5-2.57-.02-4.4,1.45-5.5,1-.67,2.15-.88,3.45-.65,1.27.27,2.37.78,3.3,1.55l2.15,1.85c.8.7,1.6,1.15,2.4,1.35.7.27,1.62.45,2.75.55.9.07,1.85.02,2.85-.15,4.23-.73,7.95-1.27,11.15-1.6,3.54-.4,7.01-.62,10.4-.65h.75c3.43.03,6.91.25,10.45.65,3.2.33,6.92.87,11.15,1.6,1,.17,1.95.22,2.85.15,1.13-.1,2.05-.28,2.75-.55.8-.2,1.6-.65,2.4-1.35l2.15-1.85c.93-.77,2.03-1.28,3.3-1.55,1.3-.23,2.45-.02,3.45.65,1.47,1.1,1.95,2.93,1.45,5.5M138,125.1c-1.9,2.8-4.17,4.6-6.8,5.4-2.37.73-5.32.75-8.85.05-6.59-1.25-13.27-1.94-20.05-2.05-.12,0-.25,0-.38,0-.12,0-.25,0-.38,0-6.74.11-13.41.8-20,2.05-3.53.7-6.48.68-8.85-.05-2.67-.8-4.95-2.6-6.85-5.4"/><path id="Layer2_0_MEMBER_4_MEMBER_5_MEMBER_5_MEMBER_27_3_STROKES" class="cls-55" d="M140.35,102.88c6.8,5.35,10.2,11.56,10.2,18.62,0,3.1-.68,6.1-2.05,9-1.03,2.1-2.47,4.15-4.3,6.15-4.3,4.4-9.65,7.9-16.05,10.5-7.63,3.1-16.35,4.65-26.15,4.65-7.63,0-14.5-.93-20.6-2.8-6.17-1.93-12.23-5.03-18.2-9.3-6.47-5.27-9.7-11.33-9.7-18.2,0-7.22,3.54-13.52,10.62-18.9"/><g id="Layer2_0_MEMBER_4_MEMBER_5_MEMBER_5_MEMBER_28_MEMBER_0_FILL"><path class="cls-8" d="M91.8,106.6c.03.1.12.15.25.15h.1c.6.13,1.15.37,1.65.7.1.77-.03,1.33-.4,1.7-.37.47-.82.88-1.35,1.25l-.15.1c-.57.3-1.1.48-1.6.55,0,.03-.02.03-.05,0l.1-.2c.83-1.13,1.32-2.55,1.45-4.25Z"/></g><g id="Layer2_0_MEMBER_4_MEMBER_5_MEMBER_6_MEMBER_0_MEMBER_0_MEMBER_0_MEMBER_0_FILL"><path class="cls-33" d="M88.2,47.65l-.1.05-4.75,1.55-6.5,3.2-2.75,2.15c-5.57,4.77-9.03,9.6-10.4,14.5-1.27,4.7-2.02,7.88-2.25,9.55v.05l-.4,4.1c-.2,3.2.52,5.63,2.15,7.3.5.5,1.08.77,1.75.8.73.07,1.33-.12,1.8-.55l3.75-2.9,4.8-2.25h.05l3-1.05.1-.05,9.85-2.6,2.4-.4,11.6-.4v-5.25l-8.85.2c-.3,0-.82.03-1.55.1l-4.45.55-.15.05-3.05.65h-.1l-3.65.95-.05.05-3.7,1.15c-1.63.53-2.73.92-3.3,1.15h-.05l-5.55,2.6-1.55,1.2v-1l.4-3.75c.2-1.53.9-4.48,2.1-8.85,1.13-3.93,4.05-7.92,8.75-11.95l.05-.05,1.9-1.5,5.85-2.9,1.9-.6.2-.1,5.45-1.45h.1l3.4-.6c.4,0,.8-.12,1.2-.35l.4-.3c.27-.27.43-.47.5-.6.23-.4.35-.77.35-1.1l.05-.85.05-.1.5-.1,2.85-.1.1-5.65c-1.13-.03-2.28.03-3.45.2-1.03.2-1.78.42-2.25.65-.5.27-1.03.65-1.6,1.15-.3.3-.53.6-.7.9l-.35.85-.15.5-5.7,1.2Z"/></g><g id="Layer2_0_MEMBER_4_MEMBER_5_MEMBER_6_MEMBER_1_MEMBER_0_MEMBER_0_MEMBER_0_FILL"><path class="cls-20" d="M72.85,60.6c.77-1.6,1.4-2.6,1.9-3,.5-.4.87-.75,1.1-1.05-2.2,1.87-4.03,3.75-5.5,5.65-2.03,2.57-3.4,5.1-4.1,7.6-1.23,4.53-1.97,7.6-2.2,9.2-.17,1.37-.28,2.68-.35,3.95-.13,2.3.35,4.08,1.45,5.35l6.45-4.3c-2.07,1.27-2.55-1.93-1.45-9.6,1.1-7.63,2-12.23,2.7-13.8Z"/></g><g id="Layer2_0_MEMBER_4_MEMBER_5_MEMBER_6_MEMBER_2_MEMBER_0_MEMBER_0_MEMBER_0_FILL"><path class="cls-39" d="M102.25,49.35l.2-4.55h-.7c-2.2.07-3.73.47-4.6,1.2l-.4.5c-.3.87.07,1.58,1.1,2.15-.27,0-.8.03-1.6.1h-.05l-7.4,1.45-4.5,1.5-6.15,3.05-2.3,1.8c-.23.3-.6.65-1.1,1.05-.5.4-1.13,1.4-1.9,3-.73,1.73-1.63,6.33-2.7,13.8-1.1,7.67-.62,10.87,1.45,9.6l2.8-1.25c1.3-.5,2.37-.87,3.2-1.1l10.3-2.75,2.65-.4.1-.05,11.65-.4v-26.9c-.07-.17-.07-.68,0-1.55l-.05-.25Z"/></g><g id="Layer2_0_MEMBER_4_MEMBER_5_MEMBER_6_MEMBER_3_MEMBER_0_MEMBER_0_MEMBER_0_FILL"><path class="cls-20" d="M96.3,48.7l3.3.65c.6.1,1.5.15,2.7.15.07-.17.07-.33,0-.5l.15-.95c-1.9,0-3.4-.17-4.5-.5-.8-.3-1.2-.65-1.2-1.05-.03.03-.15.23-.35.6-.13.27-.17.8-.1,1.6Z"/></g><g id="Layer2_0_MEMBER_4_MEMBER_5_MEMBER_6_MEMBER_4_MEMBER_0_MEMBER_0_MEMBER_0_FILL"><path class="cls-33" d="M105.15,42.4c-1.17-.17-2.32-.23-3.45-.2l.1,5.65,2.8.1.55.1.05.95c.07.43.18.8.35,1.1l.5.6.45.3c.4.23.8.35,1.2.35l3.35.6h.1l5.45,1.45.25.1,1.9.6,5.8,2.9,1.2.85.75.7c4.67,3.97,7.6,7.95,8.8,11.95,1.17,4.3,1.87,7.25,2.1,8.85l.35,3.75c.07.37.07.7,0,1l-1.15-.95-.4-.25-5.5-2.6h-.05l-7-2.3-.1-.05-3.6-.95h-.1l-3.05-.65-.15-.05-4.45-.55c-.73-.07-1.25-.1-1.55-.1l-8.85-.2v5.25l11.45.4h.15l8.85,1.95,3.35,1.05.1.05,3.05,1.05,4.85,2.25,3.7,2.9c.5.43,1.12.62,1.85.55.7-.07,1.27-.33,1.7-.8,1.63-1.63,2.37-4.07,2.2-7.3-.07-1-.22-2.37-.45-4.1v-.05c-.17-1.37-.92-4.55-2.25-9.55-1.3-4.87-4.75-9.7-10.35-14.5l-1.05-.9-5.85-3.45-7.1-2.55-.1-.05-5.7-1.2-.15-.5-.35-.85c-.2-.33-.45-.63-.75-.9-.5-.5-1.02-.88-1.55-1.15-.47-.23-1.22-.45-2.25-.65Z"/></g><g id="Layer2_0_MEMBER_4_MEMBER_5_MEMBER_6_MEMBER_5_MEMBER_0_MEMBER_0_MEMBER_0_FILL"><path class="cls-20" d="M133.75,62.2c-1.6-2.03-3.43-3.92-5.5-5.65.23.3.6.65,1.1,1.05.57.5,1.18,1.5,1.85,3,.67,1.5,1.58,6.1,2.75,13.8,1.1,7.7.62,10.9-1.45,9.6l6.4,4.3c1.13-1.23,1.63-3.02,1.5-5.35l-.4-3.95c-.17-1.5-.9-4.57-2.2-9.2-.7-2.57-2.05-5.1-4.05-7.6Z"/></g><g id="Layer2_0_MEMBER_4_MEMBER_5_MEMBER_6_MEMBER_6_MEMBER_0_MEMBER_0_MEMBER_0_FILL"><path class="cls-39" d="M101.6,44.8l.25,4.55-.05.25c.07.87.07,1.38,0,1.55v26.9l8.6.2c.3,0,.82.03,1.55.1l1.5.1.1.05,9.35,2,3.55,1.15c.6.17,1.68.53,3.25,1.1l2.8,1.25c2.07,1.3,2.55-1.9,1.45-9.6-1.17-7.7-2.08-12.3-2.75-13.8-.7-1.53-1.33-2.53-1.9-3-.53-.43-.88-.78-1.05-1.05l-2.3-1.8-4.05-2.1-6.65-2.45-7.4-1.45h-.05c-.73-.07-1.25-.1-1.55-.1,1-.53,1.37-1.25,1.1-2.15l-.45-.5c-.8-.73-2.32-1.13-4.55-1.2h-.75Z"/></g><g id="Layer2_0_MEMBER_4_MEMBER_5_MEMBER_6_MEMBER_7_MEMBER_0_MEMBER_0_MEMBER_0_FILL"><path class="cls-20" d="M107.75,48.7c.1-.63.08-1.17-.05-1.6-.2-.37-.32-.57-.35-.6,0,.4-.4.75-1.2,1.05-1.17.33-2.67.5-4.5.5l.15.95c-.07.17-.07.33,0,.5,1.2,0,2.1-.05,2.7-.15l3.25-.65Z"/></g><g id="Layer2_0_MEMBER_4_MEMBER_5_MEMBER_6_MEMBER_8_MEMBER_0_MEMBER_0_MEMBER_0_FILL"><path class="cls-33" d="M102.25,90.25c1-2.63,0-3.93-3-3.9l-2.85.1c-5.9.3-10.88,1.13-14.95,2.5-4.27,1.33-8.08,3.07-11.45,5.2h-.05c-2.6,1.67-4.45,2.62-5.55,2.85-.67-.1-1.15-.23-1.45-.4-.13-.27-.25-.68-.35-1.25v-.05c-.2-.93-.07-2,.4-3.2l.2-.55.35-.6h.05l.05-.05,2.5-1.9h.05c.7-.53,2-1.38,3.9-2.55l1.35-.8c-.33.03-1.48.25-3.45.65-1.7.4-3.05.6-4.05.6-.93,0-1.65.17-2.15.5-.57.4-1.1.92-1.6,1.55-.53.63-1.07,1.58-1.6,2.85-.47,1.2-.62,2.58-.45,4.15.17,1.57.68,2.72,1.55,3.45.93.73,2.52,1.15,4.75,1.25,2.23.13,4.82-.85,7.75-2.95,3.07-1.97,6.58-3.57,10.55-4.8,3-1.03,6.37-1.75,10.1-2.15,3.57-.4,6.7-.57,9.4-.5Z"/></g><g id="Layer2_0_MEMBER_4_MEMBER_5_MEMBER_6_MEMBER_9_MEMBER_0_MEMBER_0_MEMBER_0_FILL"><path class="cls-39" d="M98,87.4l4.25-.15c.57-1.47.1-2.82-1.4-4.05-2.93.13-5.15.28-6.65.45-4.03.3-7.67.97-10.9,2-4.93,1.6-8.87,3.42-11.8,5.45-3.03,2.13-5.33,3.2-6.9,3.2-1.47,0-2.4-.63-2.8-1.9-1.3.83-1.77,1.85-1.4,3.05.4,1.2.93,1.93,1.6,2.2.67.37,1.75.5,3.25.4,1.53-.1,3.82-1.12,6.85-3.05,2.97-1.97,6.62-3.67,10.95-5.1,4.27-1.37,9.25-2.2,14.95-2.5Z"/></g><g id="Layer2_0_MEMBER_4_MEMBER_5_MEMBER_6_MEMBER_10_MEMBER_0_MEMBER_0_MEMBER_0_FILL"><path class="cls-20" d="M94.1,85.4c1.67-.17,4.38-.32,8.15-.45.37-2.6.42-5.28.15-8.05-4.57,0-8.17.18-10.8.55-1.57.17-3.07.38-4.5.65-1.8.4-3.35.8-4.65,1.2-2.33.6-4.57,1.38-6.7,2.35-2.47,1.07-4.7,2.22-6.7,3.45-2.37,1.47-3.8,2.4-4.3,2.8l-2.65,2c-1.27,1.77-1.9,3.22-1.9,4.35,0,1.2,1.02,1.8,3.05,1.8,2.07,0,4.65-1.05,7.75-3.15,2.9-2.03,6.9-3.87,12-5.5,3.27-1.03,6.97-1.7,11.1-2Z"/></g><g id="Layer2_0_MEMBER_4_MEMBER_5_MEMBER_6_MEMBER_11_MEMBER_0_MEMBER_0_MEMBER_0_FILL"><path class="cls-33" d="M102,90.25c2.7-.07,5.83.1,9.4.5,3.73.4,7.1,1.12,10.1,2.15,3.97,1.23,7.48,2.83,10.55,4.8,2.93,2.1,5.52,3.08,7.75,2.95,2.23-.1,3.82-.52,4.75-1.25.87-.73,1.38-1.88,1.55-3.45s.02-2.95-.45-4.15c-.53-1.27-1.07-2.22-1.6-2.85-.7-.8-1.23-1.32-1.6-1.55-.5-.33-1.22-.5-2.15-.5-1,0-2.35-.2-4.05-.6-1.97-.4-3.12-.62-3.45-.65l1.35.8c1.97,1.17,3.27,2.02,3.9,2.55h.05l2.55,1.95h0l.4.6.15.55c.5,1.17.65,2.23.45,3.2v.05c-.1.57-.22.98-.35,1.25-.27.17-.75.3-1.45.4-1.1-.23-2.95-1.18-5.55-2.85h-.05c-3.33-2.1-7.15-3.83-11.45-5.2-4.07-1.37-9.05-2.2-14.95-2.5l-2.85-.1c-3-.03-4,1.27-3,3.9Z"/></g><g id="Layer2_0_MEMBER_4_MEMBER_5_MEMBER_6_MEMBER_12_MEMBER_0_MEMBER_0_MEMBER_0_FILL"><path class="cls-39" d="M106.25,87.4c5.7.3,10.68,1.13,14.95,2.5,4.33,1.43,7.98,3.13,10.95,5.1,3.03,1.93,5.32,2.95,6.85,3.05,1.5.1,2.58-.03,3.25-.4.67-.3,1.18-1.03,1.55-2.2.4-1.17-.05-2.18-1.35-3.05-.47,1.27-1.42,1.9-2.85,1.9-1.53,0-3.82-1.07-6.85-3.2-2.9-2-6.83-3.82-11.8-5.45-3.23-1.03-6.87-1.7-10.9-2-1.5-.17-3.72-.32-6.65-.45-1.5,1.23-1.97,2.58-1.4,4.05l4.25.15Z"/></g><g id="Layer2_0_MEMBER_4_MEMBER_5_MEMBER_6_MEMBER_13_MEMBER_0_MEMBER_0_MEMBER_0_FILL"><path class="cls-20" d="M110.15,85.4c4.13.3,7.83.97,11.1,2,5.03,1.63,9.03,3.47,12,5.5,3.1,2.1,5.67,3.15,7.7,3.15,2.07,0,3.1-.6,3.1-1.8,0-1.13-.63-2.58-1.9-4.35l-2.65-2c-.5-.4-1.93-1.33-4.3-2.8-2-1.23-4.23-2.38-6.7-3.45-2.13-.97-4.37-1.75-6.7-2.35l-4.65-1.2c-1.43-.27-2.93-.48-4.5-.65-2.63-.37-6.23-.55-10.8-.55-.23,2.77-.18,5.45.15,8.05,3.73.13,6.45.28,8.15.45Z"/></g><g id="Layer2_0_MEMBER_4_MEMBER_5_MEMBER_6_MEMBER_14_MEMBER_0_MEMBER_0_MEMBER_0_FILL"><path class="cls-14" d="M104,52.2c7.43,0,12.58.57,15.45,1.7,2.9,1.17,5.97,2.55,9.2,4.15l-1.15-1.35c-2.07-1.73-4.73-3.25-8-4.55-3.3-1.3-8.6-2.03-15.9-2.2-7.3-.2-13.47.68-18.5,2.65-3.6,1.37-6.58,3.17-8.95,5.4,8.83-4.6,18.12-6.53,27.85-5.8Z"/></g><g id="Layer2_0_MEMBER_4_MEMBER_5_MEMBER_6_MEMBER_15_MEMBER_0_MEMBER_0_MEMBER_0_FILL"><path class="cls-33" d="M86.35,54.45l-.05-.3c-.1-.37-.38-.62-.85-.75-.43-.1-.92-.08-1.45.05h-.05c-.57.13-1.03.38-1.4.75-.2.23-.32.48-.35.75v.3c.1.33.38.58.85.75.47.1.9.12,1.3.05l.25-.05c.57-.13,1.02-.4,1.35-.8.2-.2.33-.45.4-.75Z"/></g><g id="Layer2_0_MEMBER_4_MEMBER_5_MEMBER_6_MEMBER_16_MEMBER_0_MEMBER_0_MEMBER_0_FILL"><path class="cls-33" d="M119.75,56.05c.4.1.82.08,1.25-.05.47-.13.75-.38.85-.75l.05-.3c-.03-.2-.17-.45-.4-.75-.33-.33-.78-.58-1.35-.75h-.05c-.5-.13-1-.15-1.5-.05-.43.13-.7.38-.8.75l-.05.3c0,.23.13.48.4.75.27.37.7.63,1.3.8l.3.05Z"/></g><g id="Layer2_0_MEMBER_4_MEMBER_6_MEMBER_0_MEMBER_0_MEMBER_0_FILL"><path class="cls-5" d="M140.1,145.9c.1.5.33.97.7,1.4.4.4.78.6,1.15.6l.1-.05c.73-.67,1.3-1.12,1.7-1.35.07-.07.68-.32,1.85-.75l2.25-.55c.63-.17,1.63-.22,3-.15,2.03.2,3.92.83,5.65,1.9l.15.05,2.75,2.7c-.73-1.73-1.13-3.23-1.2-4.5-.87-1.33-1.65-2.25-2.35-2.75-.23-.6-.8-1.38-1.7-2.35-.93-.93-1.68-1.57-2.25-1.9l-4.2-1.75c-.73-.33-1.28-.62-1.65-.85-1,1.63-2.63,3.32-4.9,5.05-2.4,1.93-3.03,2.62-1.9,2.05l.2,1,.45,1.25c.07.17.13.48.2.95Z"/></g><g id="Layer2_0_MEMBER_4_MEMBER_7_MEMBER_0_MEMBER_0_MEMBER_0_FILL"><path class="cls-5" d="M47.75,147.2v.05l.15-.15c1.73-1.07,3.62-1.7,5.65-1.9,1.2-.03,2.2.02,3,.15l2.3.6c1.13.4,1.75.63,1.85.7.43.27.82.67,1.15,1.2.4.47.85,1.58,1.35,3.35.43,1.77.85,2.32,1.25,1.65.33-.67.4-2.08.2-4.25-.2-2.13-.25-3.3-.15-3.5l.45-1.25c.1-.2.15-.52.15-.95,1.17.43.57-.28-1.8-2.15-2.37-1.83-4.12-3.5-5.25-5-.3.3-.75.58-1.35.85-2.27.93-3.68,1.55-4.25,1.85-.57.23-1.32.87-2.25,1.9-.9.97-1.45,1.72-1.65,2.25-.8.63-1.58,1.55-2.35,2.75-.03,1.2-.42,2.7-1.15,4.5l2.7-2.65Z"/></g><path id="Layer2_0_MEMBER_4_MEMBER_8_1_STROKES" class="cls-49" d="M167.7,164.65c1.17-2.2,1.02-4.88-.45-8.05-.13-.3-1.95-3.2-5.45-8.7-2-3.17-4.05-5.7-6.15-7.6-2.6-2.33-5.43-3.9-8.5-4.7M30.85,175.5c1.4-3.37,2.57-5.67,3.5-6.9.83-.73,1.48-1.33,1.95-1.8.17-.17.32-.32.45-.45.17-.27.27-.48.3-.65-.17-.23-.33-.47-.5-.7-1.33-2.17-1.28-4.75.15-7.75,2.53-3.77,4.3-6.42,5.3-7.95,2.37-3.63,4.47-6.37,6.3-8.2,2.57-2.53,5.5-4.3,8.8-5.3M37.05,165.7c.03-.3-.08-.52-.35-.65-.07-.03-.12-.05-.15-.05M36.75,166.35c.17-.1.35-.23.55-.4-.1-.1-.18-.18-.25-.25M172.75,172.8c-1.33-2.87-2.45-4.65-3.35-5.35-.4-.37-1.22-.93-2.45-1.7"/><path id="Layer2_0_MEMBER_4_MEMBER_8_2_STROKES" class="cls-43" d="M166.95,165.75c.23-.6.48-.97.75-1.1"/><path id="Layer2_0_MEMBER_5_MEMBER_0_MEMBER_0_1_STROKES" class="cls-42" d="M33.25,31.25h136.25c2.43,0,3.65,1.23,3.65,3.7v138.85c0,2.43-1.22,3.65-3.65,3.65H33.25c-2.43,0-3.65-1.22-3.65-3.65V34.95c0-2.47,1.22-3.7,3.65-3.7Z"/><g id="Layer2_0_MEMBER_6_MEMBER_0_MEMBER_0_MEMBER_0_FILL"><path class="cls-33" d="M243.25,188.7h-3.75v20.5h3.75v-20.5M302.85,163.5h-2.6v45.7h2.6v-45.7M298.5,163.5h-3.9v45.7h3.9v-45.7M292.7,163.5h-3.9v45.7h3.9v-45.7M286.6,163.5h-1.7v45.7h1.7v-45.7M323.35,163.5h-1.35v45.7h1.35v-45.7M321.25,163.5h-3.7v45.7h3.7v-45.7M315.45,163.5h-2.45v45.7h2.45v-45.7M312.55,163.5h-1.45v45.7h1.45v-45.7M308.95,163.5h-4.35v45.7h4.35v-45.7M263.65,188.7h-3.95v20.5h3.95v-20.5M270,188.7h-1.75v20.5h1.75v-20.5M267.35,188.7h-2.35v20.5h2.35v-20.5M275.6,188.7h-3.9v20.5h3.9v-20.5M280.85,188.7h-3.9v20.5h3.9v-20.5M257.95,188.7h-1.3v20.5h1.3v-20.5M250,188.7h-1.55v20.5h1.55v-20.5M247.2,188.7h-1.55v20.5h1.55v-20.5M245.3,188.7h-1.3v20.5h1.3v-20.5M254.05,188.7h-3.15v20.5h3.15v-20.5M283.4,163.5h-1.75v45.7h1.75v-45.7M224.85,188.7h-2.65v20.5h2.65v-20.5M234.55,188.7h-1.45v20.5h1.45v-20.5M237.45,188.7h-2.45v20.5h2.45v-20.5M230.9,188.7h-4.35v20.5h4.35v-20.5M220.5,188.7h-4.65v20.5h4.65v-20.5M325.25,209.2v-45.7h-1.6v45.7h1.6M353.65,163.5h-3.9v45.7h3.9v-45.7M348,163.5h-1.75v45.7h1.75v-45.7M345.4,163.5h-2.35v45.7h2.35v-45.7M341.65,163.5h-3.9v45.7h3.9v-45.7M335.95,163.5h-1.3v45.7h1.3v-45.7M332.05,163.5h-3.15v45.7h3.15v-45.7M328,163.5h-1.55v45.7h1.55v-45.7Z"/></g><g id="Layer2_0_MEMBER_7_MEMBER_0_MEMBER_0_MEMBER_0_MEMBER_0_FILL"><path class="cls-26" d="M352.65,43.5c.07-1.03.05-1.78-.05-2.25-.03-.8-.22-1.52-.55-2.15-.8-1.6-2.57-2.8-5.3-3.6-4.93-1.5-10.4-1.93-16.4-1.3l-4.6.65c-3.37.5-5.85,1-7.45,1.5l-.35.1-1.5-1.95c-.83-1.13-2.15-2.2-3.95-3.2-1.83-.97-3.97-1.65-6.4-2.05-2.5-.43-4.57-.68-6.2-.75-1.4-.03-3.6,0-6.6.1-2.2.07-4.12.18-5.75.35-1.03.03-2.25.18-3.65.45-3.6.53-6.6,1.65-9,3.35-.6.4-1.28.98-2.05,1.75l-2.15-.05c-1.23-.1-2.18-.15-2.85-.15h-2.6c-.23-1.13-.72-2.17-1.45-3.1-1.03-1.47-2.35-2.45-3.95-2.95-1.6-.57-3.38-.88-5.35-.95-2.37-.07-3.97-.07-4.8,0-1.33.07-2.88.17-4.65.3-1.97.23-3.37.47-4.2.7-1.03.3-2.17.95-3.4,1.95-1.23.93-2.33,2.85-3.3,5.75-.2.53-.42,1.35-.65,2.45-.1-1.53-.4-2.85-.9-3.95-.5-1.03-1.25-1.98-2.25-2.85-.93-.77-2-1.38-3.2-1.85-2.03-.73-5.37-1-10-.8-4.7.17-7.78.65-9.25,1.45-1.43.77-2.47,1.7-3.1,2.8-.67,1.07-1.1,2.25-1.3,3.55-.27,1.5-.38,2.92-.35,4.25.07,1.67.18,3.12.35,4.35l1.5,8.75c.17.83.73,3.1,1.7,6.8l1.8,6.8c.47,1.6,1.27,3.8,2.4,6.6,1.33,3.33,2.7,5.87,4.1,7.6.97,1.2,2.05,2.18,3.25,2.95,1.27.83,2.6,1.35,4,1.55,1.23.2,3.03.22,5.4.05,1.83-.2,3.8-.95,5.9-2.25,2.13-1.33,4.18-3.15,6.15-5.45l5.25-6.3v.1c-.13.67-.18,1.67-.15,3,.07,1.33.57,2.72,1.5,4.15.97,1.5,2.12,2.52,3.45,3.05,1.43.63,3.47,1.17,6.1,1.6,2.73.5,5.35.53,7.85.1,1-.13,1.95-.38,2.85-.75.73,1.03,1.7,1.72,2.9,2.05,1.2.33,2.58.58,4.15.75l6.15.4c2.47.1,6.28-.13,11.45-.7,4.97-.53,9.3-1.82,13-3.85,2.93-1.63,4.43-2.72,4.5-3.25.43.67.97,1.32,1.6,1.95,1.1,1.1,2.35,1.95,3.75,2.55,2.13.87,4.97,1.28,8.5,1.25,3.2-.03,6.53-.32,10-.85,3.57-.63,6.42-1.47,8.55-2.5,2.6-1.23,4.8-2.93,6.6-5.1,1.13-1.33,1.93-2.65,2.4-3.95.4-1.2.6-2.73.6-4.6-.03-2.07-.38-3.65-1.05-4.75-.67-1.17-1.77-2.15-3.3-2.95l-.25-.1.65-2c.17-.57.28-1.43.35-2.6l1.25-.9c2-1.77,3.28-3.97,3.85-6.6.27-1.03.42-2.53.45-4.5Z"/></g><g id="Layer2_0_MEMBER_7_MEMBER_1_MEMBER_0_MEMBER_0_MEMBER_0_FILL"><path class="cls-11" d="M269.45,41.05c-1.97-.2-4.02-.27-6.15-.2-2,0-3.15.65-3.45,1.95-.93,4.6-2.32,9.83-4.15,15.7-1.8,5.83-2.93,9.72-3.4,11.65-.57,2.07-.07,3.85,1.5,5.35,1.27,1.3,3.73,1.95,7.4,1.95,1.83,0,3.25-.17,4.25-.5,1.1-.23,1.65-.8,1.65-1.7.07-.8-.07-1.42-.4-1.85-.3-.43-.57-.75-.8-.95-.2-.17-.43-.5-.7-1-.23-.43-.03-1.5.6-3.2.8-2.27,2.02-6.1,3.65-11.5,1.8-6.17,2.8-10.65,3-13.45.1-1.3-.9-2.05-3-2.25Z"/></g><g id="Layer2_0_MEMBER_7_MEMBER_1_MEMBER_0_MEMBER_0_MEMBER_1_FILL"><path class="cls-6" d="M249.6,33.25c-2.6.27-4.27.47-5,.6-.77.17-1.5.57-2.2,1.2-.7.63-1.13,1.35-1.3,2.15-.27,1.5-.88,3.55-1.85,6.15-1.17,3.27-2.18,5.78-3.05,7.55-.83,1.93-2.25,4.53-4.25,7.8-1.63,2.63-2.78,4.37-3.45,5.2-1.23-4.77-1.98-9.53-2.25-14.3l.1-8.55c0-2.13-.37-3.52-1.1-4.15-.9-.73-2.77-1.1-5.6-1.1s-4.83.2-6.4.6c-1.73.5-2.65,1.62-2.75,3.35-.1,1.87.63,6.47,2.2,13.8,1.57,7.63,3.05,13.15,4.45,16.55,1.43,3.57,2.63,6.03,3.6,7.4.57.87,1.22,1.42,1.95,1.65.57.2,1.45.3,2.65.3,2.37,0,5.62-2.25,9.75-6.75,5.4-5.77,11.47-14.65,18.2-26.65,1.4-2.87,2.5-5.23,3.3-7.1l.9-2.15c.13-.27.2-.52.2-.75,0-1.87-2.7-2.8-8.1-2.8Z"/></g><g id="Layer2_0_MEMBER_7_MEMBER_1_MEMBER_0_MEMBER_0_MEMBER_2_FILL"><path class="cls-22" d="M345.15,45.35c.33-2.07-.27-3.4-1.8-4l-.65-.15c-.2-.07-.32-.08-.35-.05h-.05c-1.87-.43-3.8-.63-5.8-.6-2.63.13-4.53.27-5.7.4v-.05c-1.47.13-3.78.47-6.95,1-3.4.6-5.05,2.05-4.95,4.35v.05c-.07,1.8-.28,3.27-.65,4.4v.05l-3.1,12.2c-.93,2.17-1.5,4.42-1.7,6.75-.23,2.5.25,4.4,1.45,5.7v.05c1.13,1.33,3.62,2.1,7.45,2.3h.05c2.5-.03,4.5-.13,6-.3,1.6-.23,3.58-.65,5.95-1.25,2.73-.7,4.77-1.62,6.1-2.75h.05c1.33-1.13,2.23-2.15,2.7-3.05v-.05c.53-.97.77-1.85.7-2.65-.07-1.17-.62-1.88-1.65-2.15h-.05c-.67-.17-1.4-.28-2.2-.35-.63-.03-1.88.22-3.75.75-1.7.43-3.02.83-3.95,1.2-3.1,1.07-5.65,1.42-7.65,1.05-.57-.2-.87-.63-.9-1.3-.03-1,.27-2.37.9-4.1,5.03-.67,8.37-1.15,10-1.45,1.6-.23,2.95-.78,4.05-1.65l.1-.05c.5-.5.82-1.08.95-1.75.4-1.4.23-2.47-.5-3.2l-.2-.15c-1.07-.73-3.07-1-6-.8l-6.55.45,1.1-4.5c.63-.2,1.5-.38,2.6-.55,1.37-.27,3.47-.47,6.3-.6-.53,1.3,0,2.15,1.6,2.55,1.67.37,3.17,0,4.5-1.1,1.3-1.03,2.15-2.58,2.55-4.65Z"/></g><g id="Layer2_0_MEMBER_7_MEMBER_1_MEMBER_0_MEMBER_0_MEMBER_3_FILL"><path class="cls-32" d="M313.45,43.5c-.17-1.73-.97-3.17-2.4-4.3-1.03-.9-2.43-1.65-4.2-2.25-4.03-1.43-10.15-1.57-18.35-.4-3.83.5-6.4,1.07-7.7,1.7-1.2.67-2.02,1.72-2.45,3.15-.53,1.77-1.1,4.48-1.7,8.15-.73,4.13-1.8,8.88-3.2,14.25-1.37,5.5-2.22,8.68-2.55,9.55-.27.77-.47,1.78-.6,3.05-.1,1.27.38,1.98,1.45,2.15,6.07.53,11.93.5,17.6-.1,5.57-.67,10.23-2.13,14-4.4,3.77-2.33,5.88-4.93,6.35-7.8.4-2.9.08-5.22-.95-6.95-1.03-1.77-2.53-3.13-4.5-4.1l.3-.2c1.33-.27,3.2-1.5,5.6-3.7.37-.33.67-.65.9-.95,1.8-1.97,2.6-4.25,2.4-6.85M288.7,44.55c1.17-.3,2.95-.62,5.35-.95,2.33-.3,4.5-.3,6.5,0,2.07.27,2.87,1.02,2.4,2.25-.37,1.23-2.27,2.62-5.7,4.15-3.43,1.57-7.5,2.37-12.2,2.4l1.25-6.35.3-.8c.13-.13.83-.37,2.1-.7M282.3,65c.43-1.63.77-2.58,1-2.85.17-.2.92-.43,2.25-.7.87-.17,3.13-.45,6.8-.85,3.3-.3,5.52.22,6.65,1.55,1.1,1.4.8,2.72-.9,3.95-1.67,1.23-4.18,2.05-7.55,2.45-3.43.4-6.47.58-9.1.55.03-1,.32-2.37.85-4.1Z"/></g><g id="Layer2_0_MEMBER_7_MEMBER_2_MEMBER_0_MEMBER_0_MEMBER_0_FILL"><path class="cls-14" d="M219.65,35.8c-2.7,0-4.83.2-6.4.6-1.73.5-2.65,1.62-2.75,3.35-.1,1.87.63,6.47,2.2,13.8,1.57,7.63,3.05,13.15,4.45,16.55,1.43,3.57,2.63,6.03,3.6,7.4.33.53.73.95,1.2,1.25l-.15-.2c-1-1.43-2.2-3.9-3.6-7.4-1.43-3.63-2.92-9.13-4.45-16.5-1.57-7.6-2.28-12.22-2.15-13.85.1-1.73,1-2.83,2.7-3.3,1.6-.4,3.75-.6,6.45-.6,2.33,0,4.02.23,5.05.7l-.55-.7c-.9-.73-2.77-1.1-5.6-1.1M281.55,69.15c.1.3.02.65-.25,1.05,3.47.03,6.92-.15,10.35-.55,3.3-.4,5.82-1.22,7.55-2.45,1.7-1.27,1.98-2.58.85-3.95-.2-.3-.48-.55-.85-.75.87,1.27.5,2.47-1.1,3.6-1.67,1.23-4.18,2.05-7.55,2.45-2.83.37-5.83.57-9,.6M269.45,41.05c-1.97-.2-4.02-.27-6.15-.2-2,0-3.15.65-3.45,1.95-.93,4.6-2.32,9.83-4.15,15.7-1.8,5.83-2.93,9.72-3.4,11.65-.57,2.07-.07,3.85,1.5,5.35l.1.1c-.63-1.2-.75-2.5-.35-3.9.43-1.8,1.57-5.67,3.4-11.6,1.73-5.57,3.1-10.8,4.1-15.7.37-1.33,1.53-2,3.5-2,1.63-.03,3.67.03,6.1.2.77.1,1.37.25,1.8.45-.1-1.13-1.1-1.8-3-2M243.45,36.15c.77-.63,1.52-1.03,2.25-1.2.77-.17,2.43-.37,5-.6,3.3,0,5.58.33,6.85,1-.6-1.4-3.25-2.1-7.95-2.1-2.6.27-4.27.47-5,.6-.77.17-1.5.57-2.2,1.2-.7.6-1.13,1.3-1.3,2.1-.27,1.57-.88,3.63-1.85,6.2-1.17,3.27-2.18,5.78-3.05,7.55-.83,1.93-2.25,4.53-4.25,7.8-1.4,2.23-2.57,3.97-3.5,5.2.27.57.32,1.23.15,2,1.3-1.4,2.77-3.45,4.4-6.15,2.07-3.23,3.48-5.83,4.25-7.8,1-2.03,2.03-4.55,3.1-7.55.97-2.7,1.57-4.75,1.8-6.15.13-.77.57-1.47,1.3-2.1M312.1,40.2c-.2-.27-.55-.62-1.05-1.05-1-.83-2.4-1.57-4.2-2.2-4.03-1.43-10.15-1.57-18.35-.4-3.83.5-6.4,1.07-7.7,1.7-1.2.67-2.02,1.72-2.45,3.15-.53,1.77-1.1,4.48-1.7,8.15-.73,4.13-1.8,8.88-3.2,14.25-1.37,5.5-2.22,8.68-2.55,9.55-.27.77-.47,1.78-.6,3.05-.03,1.17.35,1.87,1.15,2.1-.07-.4-.08-.73-.05-1,.1-1.33.3-2.37.6-3.1l2.55-9.5c1.4-5.63,2.45-10.4,3.15-14.3.63-3.87,1.22-6.57,1.75-8.1.47-1.5,1.28-2.55,2.45-3.15,1.07-.6,3.63-1.18,7.7-1.75,8.07-1.13,14.17-1,18.3.4,1.37.5,2.42.98,3.15,1.45l1.05.75M303.05,45c.07.3.03.58-.1.85-.37,1.23-2.27,2.62-5.7,4.15-3.17,1.4-7.23,2.2-12.2,2.4l-.15,1.15c5.57-.1,10.05-.92,13.45-2.45,3.43-1.6,5.33-3,5.7-4.2.3-.87-.03-1.5-1-1.9M332.3,67.15c-3.07,1.03-5.53,1.4-7.4,1.1.17.57.5.93,1,1.1,1.97.4,4.52.05,7.65-1.05,1.5-.5,2.82-.9,3.95-1.2,1.83-.53,3.1-.78,3.8-.75.57,0,1.28.12,2.15.35h.05l.2.1c-.23-.63-.72-1.05-1.45-1.25h-.05c-.67-.17-1.4-.28-2.2-.35-.63-.03-1.88.22-3.75.75-1.7.43-3.02.83-3.95,1.2M339.25,54.7l-.2-.15c-1.07-.73-3.07-1-6-.8l-6.55.45-.3,1.3,8.1-.6c2.4-.2,4.2-.03,5.4.5-.1-.27-.25-.5-.45-.7M343.5,41.4l-1.1-.4-1.45-.25c-.97-.17-2.45-.23-4.45-.2-2.63.13-4.53.27-5.7.4v-.05c-1.47.13-3.78.47-6.95,1-3.4.6-5.05,2.05-4.95,4.35v.05c-.07,1.8-.28,3.27-.65,4.4v.05l-3.1,12.2c-.93,2.17-1.5,4.42-1.7,6.75-.23,2.5.25,4.4,1.45,5.7v.05c.33.33.68.62,1.05.85-1.03-1.33-1.45-3.15-1.25-5.45.27-2.37.83-4.62,1.7-6.75l3.05-12.2.05-.1c.43-1.17.65-2.62.65-4.35v-.05c-.1-2.3,1.55-3.75,4.95-4.35,3.23-.53,5.57-.85,7-.95,1.93-.2,3.82-.32,5.65-.35,1.93-.1,3.83-.02,5.7.25.63.1,1.08.27,1.35.5-.33-.53-.77-.9-1.3-1.1Z"/></g><g id="Layer0_0_MEMBER_0_MEMBER_0_MEMBER_0_MEMBER_0_FILL"><path class="cls-19" d="M170.05,224.95h66.95L362.7,8.05h-60.95l-131.7,216.9M73.2,9h-17.5L8,91.1v24.15L73.2,9M380.7,121v-42.7l-85.95,148.2h22.8l63.15-105.5Z"/></g><g id="Layer0_0_MEMBER_1_MEMBER_0_MEMBER_0_MEMBER_0_FILL"><path class="cls-15" d="M28.85,220.15c5.63,6.93,26.17,8.3,61.6,4.1L216.15,7.3h-60.95L28.85,220.15M262.5,8.8h-24.7l-126.85,216.9h22.3l42-72.4L262.5,8.8Z"/></g></svg>