<svg width="46" height="49" viewBox="0 0 46 49" fill="none" xmlns="http://www.w3.org/2000/svg">
<path d="M0 13.4362V27.6437C0.000114936 30.6711 1.03259 33.6262 2.95931 36.1139C4.88603 38.6015 7.6151 40.503 10.7815 41.5639C10.9066 41.606 11.0144 41.6813 11.0903 41.7798C11.1663 41.8783 11.2067 41.9952 11.2063 42.1149V44.2714C11.2049 45.206 11.5132 46.1199 12.0922 46.8975C12.6712 47.6751 13.4949 48.2813 14.4589 48.6395C15.4229 48.9976 16.4839 49.0916 17.5076 48.9095C18.5312 48.7273 19.4715 48.2773 20.2094 47.6163C20.3339 47.5048 20.4526 47.3868 20.5639 47.2648C20.7058 47.6011 20.9586 47.8908 21.2889 48.0952C21.6191 48.2996 22.0111 48.4091 22.4126 48.4091C22.8141 48.4091 23.206 48.2996 23.5363 48.0952C23.8665 47.8908 24.1194 47.6011 24.2613 47.2648C24.95 48.0198 25.8829 48.5654 26.9318 48.8267C27.9806 49.0881 29.0941 49.0523 30.1194 48.7243C31.1447 48.3963 32.0315 47.7923 32.658 46.995C33.2846 46.1977 33.6202 45.2463 33.6189 44.2714V42.1149C33.6184 41.9952 33.6589 41.8783 33.7348 41.7798C33.8108 41.6813 33.9185 41.606 34.0437 41.5639C37.2101 40.503 39.9391 38.6015 41.8659 36.1139C43.7926 33.6262 44.8251 30.6711 44.8252 27.6437V13.4362C44.8252 9.8727 43.2443 6.45515 40.4304 3.93537C37.6165 1.4156 33.8 0 29.8205 0H15.0047C11.0252 0 7.20871 1.4156 4.39478 3.93537C1.58085 6.45515 0 9.8727 0 13.4362Z" fill="#123378"/>
<path d="M1.19482 13.5477V27.1921C1.19494 30.0995 2.22696 32.9375 4.15282 35.3265C6.07868 37.7156 8.80654 39.5417 11.9715 40.5606C12.0966 40.601 12.2043 40.6733 12.2802 40.7679C12.3561 40.8625 12.3966 40.9748 12.3961 41.0897V43.1607C12.3947 44.0583 12.7029 44.936 13.2817 45.6828C13.8604 46.4295 14.6837 47.0117 15.6473 47.3557C16.6108 47.6997 17.6714 47.7899 18.6946 47.615C19.7178 47.4401 20.6577 47.0079 21.3953 46.3731C21.5197 46.266 21.6383 46.1527 21.7496 46.0355C21.8914 46.3585 22.1441 46.6367 22.4743 46.833C22.8044 47.0293 23.1961 47.1345 23.5974 47.1345C23.9987 47.1345 24.3905 47.0293 24.7206 46.833C25.0507 46.6367 25.3035 46.3585 25.4453 46.0355C26.1338 46.7606 27.0662 47.2846 28.1146 47.5355C29.163 47.7865 30.276 47.7522 31.3008 47.4372C32.3257 47.1222 33.212 46.5421 33.8383 45.7764C34.4646 45.0107 34.8001 44.097 34.7988 43.1607V41.0897C34.7983 40.9748 34.8388 40.8625 34.9147 40.7679C34.9906 40.6733 35.0983 40.601 35.2234 40.5606C38.3883 39.5417 41.1162 37.7156 43.0421 35.3265C44.9679 32.9375 46 30.0995 46.0001 27.1921V13.5477C46.0001 10.1254 44.4199 6.84334 41.6072 4.42344C38.7946 2.00353 34.9798 0.644043 31.002 0.644043H16.1929C12.2151 0.644043 8.40033 2.00353 5.58765 4.42344C2.77497 6.84334 1.19482 10.1254 1.19482 13.5477Z" fill="#2761A6"/>
<path fill-rule="evenodd" clip-rule="evenodd" d="M0.000150384 16L10.4546 5.5V7.20712L0 17.7071L0.000150384 16Z" fill="#123378"/>
<path fill-rule="evenodd" clip-rule="evenodd" d="M0.000150384 19L10.4546 8.5V10.2071L0 20.7071L0.000150384 19Z" fill="#123378"/>
<path fill-rule="evenodd" clip-rule="evenodd" d="M0.000150384 23.5L10.4546 13V14.7071L0 25.2071L0.000150384 23.5Z" fill="#123378"/>
<path fill-rule="evenodd" clip-rule="evenodd" d="M0.000150384 28L10.4546 17.5V19.2071L0 29.7071L0.000150384 28Z" fill="#123378"/>
<path d="M5.69043 13.612V26.2974C5.69053 29.0005 6.59044 31.6391 8.26978 33.8602C9.94912 36.0813 12.3278 37.7791 15.0876 38.7264C15.1967 38.7639 15.2906 38.8312 15.3568 38.9191C15.423 39.007 15.4583 39.1114 15.4579 39.2183V41.1438C15.4557 41.9792 15.724 42.7964 16.2289 43.4917C16.7339 44.187 17.4526 44.729 18.2938 45.049C19.1351 45.369 20.0611 45.4525 20.9542 45.2889C21.8473 45.1254 22.6673 44.7221 23.3102 44.1304C23.4187 44.0308 23.5221 43.9254 23.6192 43.8165C23.7428 44.1168 23.9632 44.3754 24.2511 44.5579C24.5389 44.7405 24.8806 44.8382 25.2305 44.8382C25.5804 44.8382 25.9221 44.7405 26.2099 44.5579C26.4978 44.3754 26.7182 44.1168 26.8418 43.8165C27.4427 44.4888 28.2554 44.9743 29.1687 45.2065C30.0819 45.4387 31.0512 45.4063 31.9436 45.1137C32.836 44.821 33.608 44.2825 34.1539 43.5719C34.6997 42.8612 34.9928 42.0131 34.9929 41.1438V39.2183C34.9925 39.1114 35.0278 39.007 35.0939 38.9191C35.1601 38.8312 35.2541 38.7639 35.3631 38.7264C38.123 37.7791 40.5017 36.0813 42.181 33.8602C43.8603 31.6391 44.7603 29.0005 44.7604 26.2974V13.612C44.7604 10.4303 43.3825 7.37884 40.9298 5.12901C38.4772 2.87918 35.1507 1.61523 31.6821 1.61523H18.7686C15.3001 1.61523 11.9736 2.87918 9.52095 5.12901C7.06831 7.37884 5.69043 10.4303 5.69043 13.612Z" fill="#FFA5F9"/>
<path d="M15.7959 13.2868C15.7959 10.4673 18.1028 8.18164 20.9485 8.18164C23.7942 8.18164 26.1011 10.4673 26.1011 13.2868V22.9298C26.1011 25.7493 23.7942 28.035 20.9485 28.035C18.1028 28.035 15.7959 25.7493 15.7959 22.9298V13.2868Z" fill="#2761A6"/>
<path d="M28.9641 13.2868C28.9641 10.4673 31.271 8.18164 34.1167 8.18164C36.9624 8.18164 39.2693 10.4673 39.2693 13.2868V22.9298C39.2693 25.7493 36.9624 28.035 34.1167 28.035C31.271 28.035 28.9641 25.7493 28.9641 22.9298V13.2868Z" fill="#2761A6"/>
<path d="M25.8408 33.7074H28.6461C29.7796 33.7074 30.5379 32.6561 30.0786 31.7233L28.6715 28.8733C28.1206 27.7564 26.3598 27.7564 25.8089 28.8733L24.4018 31.7233C23.9489 32.6561 24.7021 33.7074 25.8408 33.7074Z" fill="#2761A6"/>
</svg>
