<svg width="134" height="152" viewBox="0 0 134 152" fill="none" xmlns="http://www.w3.org/2000/svg">
<path d="M115.014 30.7377L18.8552 30.2511C14.7559 30.2337 11.2539 31.7961 8.34916 34.9381V34.9543C5.48994 38.0845 4.0578 41.8633 4.05273 46.2908V119.175C4.05582 123.612 5.48796 127.407 8.34916 130.56C11.2489 133.753 14.7455 135.348 18.8389 135.344L114.998 135.831C119.117 135.858 122.619 134.29 125.504 131.127C128.362 128.009 129.795 124.23 129.8 119.791V46.907C129.797 42.4812 128.37 38.6862 125.52 35.522C122.632 32.341 119.13 30.7462 115.014 30.7377ZM114.998 33.0082H115.014C118.466 33.0233 121.406 34.3694 123.834 37.0465C126.302 39.7856 127.534 43.0725 127.531 46.907V119.791C127.536 123.634 126.304 126.905 123.834 129.603C121.411 132.257 118.472 133.576 115.014 133.56L18.8552 133.073C15.4131 133.067 12.4731 131.721 10.0353 129.035C7.55697 126.306 6.31938 123.019 6.32255 119.175V46.2908C6.31748 42.4605 7.54966 39.1899 10.0191 36.4788C12.4627 33.8386 15.4027 32.5195 18.8389 32.5216L114.998 33.0082Z" fill="#09255B"/>
<path d="M115.015 33.0081H114.999L18.8397 32.5216C15.4034 32.5195 12.4634 33.8385 10.0198 36.4788C7.55037 39.1898 6.31819 42.4605 6.32326 46.2907V119.175C6.32009 123.019 7.55768 126.306 10.036 129.035C12.4738 131.721 15.4138 133.067 18.8559 133.073L115.015 133.56C118.472 133.576 121.412 132.257 123.835 129.603C126.305 126.904 127.537 123.634 127.531 119.791V46.907C127.535 43.0725 126.303 39.7856 123.835 37.0464C121.407 34.3693 118.467 33.0232 115.015 33.0081ZM112.275 41.4253C113.864 41.4361 115.22 42.0524 116.344 43.2742C117.479 44.5067 118.047 45.9826 118.047 47.7017V120.213C118.047 121.921 117.479 123.37 116.344 124.559C115.22 125.77 113.864 126.365 112.275 126.343L19.8449 125.402C18.256 125.402 16.8995 124.791 15.7754 123.57C14.6513 122.348 14.0893 120.877 14.0893 119.158V46.6475C14.0893 44.9392 14.6513 43.485 15.7754 42.2849C16.8995 41.0847 18.256 40.4847 19.8449 40.4847L112.275 41.4253ZM116.344 43.2742C115.22 42.0524 113.864 41.4361 112.275 41.4253L19.8449 40.4847C18.256 40.4847 16.8995 41.0847 15.7754 42.2849C14.6513 43.485 14.0893 44.9392 14.0893 46.6475V119.158C14.0893 120.877 14.6513 122.348 15.7754 123.57C16.8995 124.791 18.256 125.402 19.8449 125.402L112.275 126.343C113.864 126.365 115.22 125.77 116.344 124.559C117.479 123.37 118.047 121.921 118.047 120.213V47.7017C118.047 45.9826 117.479 44.5067 116.344 43.2742Z" fill="#E89FED"/>
<path d="M80.4 125.094C80.144 125.344 80.0143 125.647 80.0109 126.002C80.0077 126.361 80.132 126.669 80.3838 126.927C80.6357 127.183 80.9383 127.312 81.2917 127.316L88.4254 127.381C88.7857 127.384 89.0938 127.259 89.3495 127.008C89.6055 126.758 89.7352 126.455 89.7386 126.1C89.7417 125.741 89.6174 125.433 89.3657 125.175C89.1138 124.919 88.8058 124.79 88.4416 124.786L81.3079 124.721C80.9584 124.718 80.6557 124.843 80.4 125.094ZM67.4296 124.964C67.1736 125.214 67.0439 125.517 67.0405 125.873C67.0374 126.231 67.1617 126.539 67.4134 126.797C67.6653 127.053 67.9679 127.183 68.3213 127.186L75.455 127.251C75.8154 127.254 76.1234 127.13 76.3792 126.878C76.6352 126.628 76.7649 126.325 76.7683 125.97C76.7714 125.612 76.6471 125.303 76.3954 125.045C76.1434 124.79 75.8354 124.66 75.4712 124.656L68.3375 124.591C67.988 124.589 67.6854 124.713 67.4296 124.964ZM54.4593 124.835C54.2033 125.084 54.0736 125.387 54.0702 125.743C54.067 126.101 54.1913 126.409 54.4431 126.667C54.6949 126.923 54.9976 127.053 55.351 127.056L62.4847 127.121C62.845 127.124 63.1531 127 63.4088 126.748C63.6648 126.498 63.7945 126.196 63.7979 125.84C63.801 125.482 63.6767 125.174 63.425 124.916C63.1731 124.66 62.865 124.53 62.5009 124.526L55.3672 124.462C55.0176 124.459 54.715 124.583 54.4593 124.835ZM41.4889 124.705C41.2329 124.955 41.1032 125.257 41.0998 125.613C41.0967 125.971 41.221 126.28 41.4727 126.538C41.7246 126.793 42.0272 126.923 42.3806 126.927L49.5143 126.992C49.8747 126.994 50.1827 126.87 50.4384 126.619C50.6944 126.369 50.8241 126.066 50.8276 125.71C50.8306 125.352 50.7063 125.044 50.4547 124.786C50.2027 124.53 49.8947 124.4 49.5305 124.397L42.3968 124.332C42.0473 124.329 41.7446 124.453 41.4889 124.705ZM28.1294 125.483C28.1263 125.842 28.2506 126.15 28.5023 126.408C28.7542 126.664 29.0569 126.793 29.4103 126.797L36.544 126.862C36.9043 126.865 37.2124 126.74 37.4681 126.489C37.7241 126.239 37.8538 125.936 37.8572 125.581C37.8603 125.222 37.736 124.914 37.4843 124.656C37.2324 124.4 36.9243 124.271 36.5602 124.267L29.4265 124.202C29.0769 124.199 28.7743 124.324 28.5186 124.575C28.2626 124.825 28.1329 125.128 28.1294 125.483ZM15.613 123.618C15.4065 123.908 15.3309 124.227 15.3861 124.575C15.4402 124.932 15.6077 125.213 15.8887 125.418C17.0473 126.268 18.3605 126.695 19.8284 126.7L23.5736 126.732C23.9357 126.735 24.2437 126.61 24.4977 126.359C24.7539 126.106 24.8836 125.798 24.8868 125.435C24.8898 125.084 24.7655 124.781 24.514 124.526C24.2603 124.27 23.9523 124.141 23.5898 124.137L19.8446 124.105C18.9433 124.108 18.138 123.848 17.4289 123.326C17.1405 123.12 16.8162 123.044 16.4561 123.099C16.1101 123.155 15.8291 123.328 15.613 123.618ZM13.1649 111.341C12.9167 111.6 12.7924 111.908 12.792 112.266V119.158C12.792 119.245 12.792 119.331 12.792 119.418C12.7924 119.776 12.9167 120.078 13.1649 120.326C13.4232 120.585 13.7312 120.715 14.089 120.715C14.4468 120.715 14.7495 120.585 14.997 120.326C15.256 120.078 15.3857 119.776 15.3861 119.418C15.3861 119.331 15.3861 119.245 15.3861 119.158V112.266C15.3857 111.908 15.256 111.6 14.997 111.341C14.7495 111.093 14.4468 110.969 14.089 110.968C13.7312 110.969 13.4232 111.093 13.1649 111.341ZM13.1649 98.3668C12.9167 98.6252 12.7924 98.9333 12.792 99.2912V106.427C12.7924 106.785 12.9167 107.088 13.1649 107.335C13.4232 107.594 13.7312 107.724 14.089 107.725C14.4468 107.724 14.7495 107.594 14.997 107.335C15.256 107.088 15.3857 106.785 15.3861 106.427V99.2912C15.3857 98.9333 15.256 98.6252 14.997 98.3668C14.7495 98.1185 14.4468 97.9942 14.089 97.9938C13.7312 97.9942 13.4232 98.1185 13.1649 98.3668ZM13.1649 85.3924C12.9167 85.6508 12.7924 85.9589 12.792 86.3168V93.4527C12.7924 93.8106 12.9167 94.1134 13.1649 94.3609C13.4232 94.62 13.7312 94.7498 14.089 94.7502C14.4468 94.7498 14.7495 94.62 14.997 94.3609C15.256 94.1134 15.3857 93.8106 15.3861 93.4527V86.3168C15.3857 85.9589 15.256 85.6508 14.997 85.3924C14.7495 85.1441 14.4468 85.0197 14.089 85.0193C13.7312 85.0197 13.4232 85.1441 13.1649 85.3924ZM13.1649 72.4179C12.9167 72.6763 12.7924 72.9845 12.792 73.3424V80.4783C12.7924 80.8362 12.9167 81.1389 13.1649 81.3865C13.4232 81.6456 13.7312 81.7754 14.089 81.7757C14.4468 81.7754 14.7495 81.6456 14.997 81.3865C15.256 81.1389 15.3857 80.8362 15.3861 80.4783V73.3424C15.3857 72.9845 15.256 72.6763 14.997 72.4179C14.7495 72.1696 14.4468 72.0453 14.089 72.0449C13.7312 72.0453 13.4232 72.1696 13.1649 72.4179ZM40.8728 39.771C40.6209 39.5152 40.3128 39.3855 39.9487 39.3818L32.815 39.3169C32.4654 39.3141 32.1628 39.4384 31.9071 39.69C31.6511 39.9398 31.5214 40.2426 31.5179 40.5982C31.5148 40.9565 31.6391 41.2647 31.8908 41.5226C32.1427 41.7784 32.4454 41.9081 32.7988 41.9118L39.9325 41.9767C40.2928 41.9795 40.6009 41.8552 40.8566 41.6037C41.1126 41.3538 41.2423 41.051 41.2457 40.6955C41.2488 40.3371 41.1245 40.029 40.8728 39.771ZM13.1649 59.4435C12.9167 59.7019 12.7924 60.01 12.792 60.3679V67.5039C12.7924 67.8618 12.9167 68.1645 13.1649 68.4121C13.4232 68.6712 13.7312 68.8009 14.089 68.8013C14.4468 68.8009 14.7495 68.6712 14.997 68.4121C15.256 68.1645 15.3857 67.8618 15.3861 67.5039V60.3679C15.3857 60.01 15.256 59.7019 14.997 59.4435C14.7495 59.1952 14.4468 59.0709 14.089 59.0705C13.7312 59.0709 13.4232 59.1952 13.1649 59.4435ZM13.1649 46.4691C12.9167 46.7275 12.7924 47.0356 12.792 47.3935V54.5295C12.7924 54.8873 12.9167 55.1901 13.1649 55.4377C13.4232 55.6968 13.7312 55.8265 14.089 55.8269C14.4468 55.8265 14.7495 55.6968 14.997 55.4377C15.256 55.1901 15.3857 54.8873 15.3861 54.5295V47.3935C15.3857 47.0356 15.256 46.7275 14.997 46.4691C14.7495 46.2208 14.4468 46.0965 14.089 46.0961C13.7312 46.0965 13.4232 46.2208 13.1649 46.4691ZM15.9697 43.339C16.3319 43.3446 16.6399 43.2203 16.8939 42.966C17.7211 42.1828 18.6938 41.7882 19.8122 41.7821L26.9621 41.847C27.3225 41.8498 27.6305 41.7254 27.8862 41.4739C28.1422 41.224 28.2719 40.9213 28.2754 40.5657C28.2784 40.2074 28.1541 39.8992 27.9025 39.6413C27.6505 39.3855 27.3425 39.2557 26.9783 39.2521L19.796 39.1872C17.9915 39.1958 16.4242 39.8337 15.0942 41.1009C14.8418 41.3556 14.7121 41.6584 14.7051 42.0091C14.6989 42.3717 14.8178 42.6799 15.0618 42.9336C15.3158 43.1972 15.6184 43.3324 15.9697 43.339ZM92.7542 40.29C92.5023 40.0342 92.1943 39.9045 91.8301 39.9008L84.6964 39.8359C84.3469 39.8331 84.0442 39.9574 83.7885 40.2089C83.5325 40.4588 83.4028 40.7615 83.3994 41.1171C83.3962 41.4755 83.5206 41.7836 83.7723 42.0416C84.0242 42.2973 84.3268 42.4271 84.6802 42.4308L91.8139 42.4957C92.1742 42.4985 92.4823 42.3742 92.738 42.1227C92.994 41.8728 93.1237 41.57 93.1271 41.2144C93.1302 40.8561 93.0059 40.5479 92.7542 40.29ZM53.8432 39.9008C53.5912 39.645 53.2832 39.5152 52.919 39.5116L45.7853 39.4467C45.4358 39.4439 45.1331 39.5682 44.8774 39.8197C44.6214 40.0696 44.4917 40.3723 44.4883 40.7279C44.4852 41.0863 44.6095 41.3944 44.8612 41.6523C45.1131 41.9081 45.4157 42.0379 45.7691 42.0416L52.9028 42.1064C53.2632 42.1093 53.5712 41.9849 53.827 41.7334C54.0829 41.4835 54.2127 41.1808 54.2161 40.8252C54.2192 40.4669 54.0948 40.1587 53.8432 39.9008ZM70.8019 41.9118C71.0538 42.1676 71.3564 42.2973 71.7098 42.3011L78.8435 42.3659C79.2039 42.3688 79.5119 42.2444 79.7677 41.9929C80.0237 41.743 80.1534 41.4403 80.1568 41.0847C80.1599 40.7263 80.0356 40.4182 79.7839 40.1603C79.532 39.9045 79.2239 39.7747 78.8597 39.771L71.7261 39.7062C71.3765 39.7033 71.0739 39.8277 70.8181 40.0792C70.5621 40.329 70.4324 40.6318 70.429 40.9874C70.4259 41.3458 70.5502 41.6539 70.8019 41.9118ZM66.8135 40.0305C66.5616 39.7747 66.2535 39.645 65.8894 39.6413L58.7557 39.5764C58.4061 39.5736 58.1035 39.6979 57.8478 39.9494C57.5918 40.1993 57.4621 40.502 57.4587 40.8577C57.4555 41.216 57.5798 41.5242 57.8316 41.7821C58.0834 42.0379 58.3861 42.1676 58.7395 42.1713L65.8732 42.2362C66.2335 42.239 66.5416 42.1147 66.7973 41.8632C67.0533 41.6133 67.183 41.3105 67.1864 40.955C67.1895 40.5966 67.0652 40.2885 66.8135 40.0305ZM119.343 114.439C119.343 114.081 119.213 113.773 118.954 113.514C118.707 113.266 118.404 113.142 118.046 113.141C117.689 113.142 117.381 113.266 117.122 113.514C116.874 113.773 116.75 114.081 116.749 114.439V120.212C116.75 120.6 116.712 120.968 116.636 121.315C116.572 121.668 116.637 121.992 116.83 122.288C117.033 122.589 117.309 122.773 117.657 122.84C118.007 122.915 118.331 122.85 118.63 122.645C118.93 122.451 119.114 122.175 119.181 121.818C119.289 121.311 119.343 120.776 119.343 120.212V114.439ZM102.709 126.229C102.712 125.871 102.588 125.563 102.336 125.305C102.084 125.049 101.776 124.919 101.412 124.916L94.2783 124.851C93.9287 124.848 93.6261 124.972 93.3703 125.224C93.1143 125.474 92.9846 125.776 92.9812 126.132C92.9781 126.49 93.1024 126.799 93.3541 127.056C93.606 127.312 93.9087 127.442 94.262 127.446L101.396 127.511C101.756 127.513 102.064 127.389 102.32 127.138C102.576 126.888 102.706 126.585 102.709 126.229ZM106.341 125.354C106.085 125.603 105.955 125.906 105.952 126.262C105.948 126.62 106.073 126.928 106.324 127.186C106.575 127.442 106.877 127.572 107.232 127.575L112.258 127.64C113.201 127.652 114.077 127.49 114.885 127.154C115.214 127.014 115.446 126.776 115.582 126.44C115.72 126.116 115.72 125.787 115.582 125.451C115.443 125.124 115.205 124.892 114.869 124.754C114.543 124.616 114.213 124.616 113.88 124.754C113.391 124.958 112.861 125.055 112.291 125.045L107.265 124.981C106.906 124.978 106.598 125.102 106.341 125.354ZM119.343 101.464C119.343 101.107 119.213 100.798 118.954 100.54C118.707 100.292 118.404 100.167 118.046 100.167C117.689 100.167 117.381 100.292 117.122 100.54C116.874 100.798 116.75 101.107 116.749 101.464V108.6C116.75 108.958 116.874 109.261 117.122 109.509C117.381 109.768 117.689 109.897 118.046 109.898C118.404 109.897 118.707 109.768 118.954 109.509C119.213 109.261 119.343 108.958 119.343 108.6V101.464ZM117.122 87.5656C116.874 87.824 116.75 88.1321 116.749 88.49V95.6259C116.75 95.9838 116.874 96.2866 117.122 96.5342C117.381 96.7933 117.689 96.923 118.046 96.9234C118.404 96.923 118.707 96.7933 118.954 96.5342C119.213 96.2866 119.343 95.9838 119.343 95.6259V88.49C119.343 88.1321 119.213 87.824 118.954 87.5656C118.707 87.3173 118.404 87.193 118.046 87.1926C117.689 87.193 117.381 87.3173 117.122 87.5656ZM119.343 75.5156C119.343 75.1577 119.213 74.8495 118.954 74.5912C118.707 74.3429 118.404 74.2185 118.046 74.2181C117.689 74.2185 117.381 74.3429 117.122 74.5912C116.874 74.8495 116.75 75.1577 116.749 75.5156V82.6515C116.75 83.0094 116.874 83.3121 117.122 83.5597C117.381 83.8188 117.689 83.9486 118.046 83.949C118.404 83.9486 118.707 83.8188 118.954 83.5597C119.213 83.3121 119.343 83.0094 119.343 82.6515V75.5156ZM118.954 61.6167C118.707 61.3684 118.404 61.2441 118.046 61.2437C117.689 61.2441 117.381 61.3684 117.122 61.6167C116.874 61.8751 116.75 62.1833 116.749 62.5412V69.6771C116.75 70.035 116.874 70.3377 117.122 70.5853C117.381 70.8444 117.689 70.9742 118.046 70.9745C118.404 70.9742 118.707 70.8444 118.954 70.5853C119.213 70.3377 119.343 70.035 119.343 69.6771V62.5412C119.343 62.1833 119.213 61.8751 118.954 61.6167ZM119.343 49.5667C119.343 49.2088 119.213 48.9007 118.954 48.6423C118.707 48.394 118.404 48.2697 118.046 48.2693C117.689 48.2697 117.381 48.394 117.122 48.6423C116.874 48.9007 116.75 49.2088 116.749 49.5667V56.7027C116.75 57.0606 116.874 57.3633 117.122 57.6109C117.381 57.87 117.689 57.9997 118.046 58.0001C118.404 57.9997 118.707 57.87 118.954 57.6109C119.213 57.3633 119.343 57.0606 119.343 56.7027V49.5667ZM105.725 40.4198C105.473 40.164 105.165 40.0342 104.8 40.0305L97.6668 39.9657C97.3172 39.9628 97.0146 40.0872 96.7588 40.3387C96.5029 40.5885 96.3731 40.8913 96.3697 41.2469C96.3666 41.6052 96.4909 41.9134 96.7426 42.1713C96.9945 42.4271 97.2972 42.5568 97.6506 42.5605L104.784 42.6254C105.145 42.6282 105.453 42.5039 105.708 42.2524C105.964 42.0025 106.094 41.6998 106.097 41.3442C106.101 40.9858 105.976 40.6777 105.725 40.4198ZM118.192 44.2148C118.261 43.865 118.191 43.5406 117.982 43.2417C117.782 42.9509 117.555 42.6698 117.301 42.3984C117.296 42.3928 117.29 42.3873 117.284 42.3821C115.907 40.8917 114.242 40.1402 112.291 40.1278L110.653 40.0954C110.302 40.0894 109.994 40.2083 109.729 40.4522C109.476 40.7063 109.347 41.009 109.34 41.3604C109.334 41.723 109.453 42.0312 109.697 42.2848C109.951 42.5482 110.254 42.6834 110.605 42.6903L112.258 42.7227C113.481 42.736 114.524 43.2118 115.388 44.1499L115.404 44.1661C115.575 44.3441 115.726 44.5279 115.858 44.7175C116.069 45.0165 116.35 45.1949 116.701 45.2527C117.051 45.3222 117.37 45.2519 117.657 45.0419C117.957 44.8419 118.135 44.5662 118.192 44.2148Z" fill="#09255B"/>
<path d="M122.099 40.2577H122.115C119.39 37.2601 116.082 35.7518 112.193 35.7329L21.8057 35.2788C17.9221 35.2615 14.6093 36.7374 11.8672 39.7063C9.16893 42.6382 7.81785 46.1846 7.81396 50.3453V118.445C7.81646 122.612 9.16753 126.18 11.8672 129.149C14.6072 132.125 17.9146 133.623 21.7895 133.641L112.193 134.095C116.077 134.111 119.379 132.641 122.099 129.684C124.808 126.752 126.164 123.2 126.168 119.029V50.9292C126.164 46.7728 124.807 43.2156 122.099 40.2577ZM120.429 41.7822C122.747 44.3168 123.903 47.3658 123.899 50.9292V119.029C123.903 122.599 122.747 125.637 120.429 128.143C118.168 130.601 115.423 131.828 112.193 131.825L21.8057 131.371C18.583 131.346 15.8322 130.097 13.5533 127.624L13.5371 127.608C11.2324 125.07 10.0812 122.015 10.0838 118.445V50.3453C10.0799 46.7863 11.231 43.7535 13.5371 41.247C15.8191 38.7795 18.5699 37.5469 21.7895 37.5493L112.177 38.0034C115.41 38.0276 118.161 39.2872 120.429 41.7822Z" fill="#09255B"/>
<path d="M120.43 41.7821C118.162 39.2871 115.411 38.0275 112.177 38.0033L21.7902 37.5492C18.5707 37.5468 15.8199 38.7794 13.5378 41.2469C11.2317 43.7534 10.0806 46.7862 10.0845 50.3452V118.445C10.0819 122.015 11.2331 125.07 13.5378 127.608L13.5541 127.624C15.8329 130.097 18.5837 131.346 21.8064 131.371L112.194 131.825C115.424 131.828 118.169 130.601 120.43 128.143C122.747 125.637 123.904 122.599 123.899 119.029V50.9291C123.904 47.3657 122.748 44.3167 120.43 41.7821ZM112.145 46.4853C112.592 46.7501 113.009 47.0907 113.393 47.5071C114.453 48.664 114.982 50.0371 114.982 51.6265V119.385C114.982 120.986 114.453 122.337 113.393 123.44C112.334 124.564 111.064 125.127 109.583 125.127L22.6657 124.251C21.1741 124.24 19.9041 123.662 18.8557 122.515C17.7856 121.38 17.2506 120.012 17.2506 118.412V50.6534C17.2506 49.0532 17.7856 47.7017 18.8557 46.5989C19.247 46.1752 19.6685 45.8292 20.1203 45.5609C20.8823 45.1176 21.7308 44.896 22.6657 44.896L109.583 45.7717C110.526 45.7786 111.38 46.0165 112.145 46.4853Z" fill="#873E7F"/>
<path d="M113.393 47.5071C113.008 47.0907 112.592 46.7501 112.145 46.4853L20.1202 45.5609C19.6684 45.8292 19.2468 46.1752 18.8556 46.5989C17.7855 47.7017 17.2505 49.0532 17.2505 50.6534V118.412C17.2505 120.012 17.7855 121.38 18.8556 122.515C19.904 123.662 21.174 124.24 22.6656 124.251L109.583 125.127C111.064 125.127 112.334 124.564 113.393 123.44C114.453 122.337 114.982 120.986 114.982 119.385V51.6265C114.982 50.0371 114.453 48.664 113.393 47.5071Z" fill="#E89FED"/>
<path d="M41.1485 44.8636C40.8966 44.6078 40.5885 44.4781 40.2244 44.4744L33.0907 44.4095C32.7411 44.4067 32.4385 44.531 32.1828 44.7825C31.9268 45.0324 31.7971 45.3351 31.7937 45.6907C31.7905 46.0491 31.9148 46.3572 32.1666 46.6152C32.4184 46.8709 32.7211 47.0007 33.0745 47.0044L40.2082 47.0693C40.5685 47.0721 40.8766 46.9478 41.1323 46.6963C41.3883 46.4464 41.518 46.1436 41.5214 45.7881C41.5245 45.4297 41.4002 45.1215 41.1485 44.8636ZM19.2124 44.6528C18.9564 44.9026 18.8267 45.2054 18.8233 45.561C18.8202 45.9194 18.9445 46.2275 19.1962 46.4854C19.4481 46.7412 19.7507 46.8709 20.1041 46.8747L27.2378 46.9395C27.5982 46.9424 27.9062 46.818 28.162 46.5665C28.4179 46.3166 28.5476 46.0139 28.5511 45.6583C28.5541 45.2999 28.4298 44.9918 28.1782 44.7339C27.9262 44.4781 27.6182 44.3483 27.254 44.3446L20.1203 44.2798C19.7708 44.2769 19.4681 44.4013 19.2124 44.6528ZM93.03 45.3826C92.778 45.1268 92.47 44.997 92.1058 44.9934L84.9721 44.9285C84.6226 44.9257 84.3199 45.05 84.0642 45.3015C83.8082 45.5514 83.6785 45.8541 83.6751 46.2097C83.672 46.5681 83.7963 46.8762 84.048 47.1341C84.2999 47.3899 84.6025 47.5197 84.9559 47.5234L92.0896 47.5883C92.45 47.5911 92.758 47.4667 93.0137 47.2152C93.2697 46.9653 93.3994 46.6626 93.4028 46.307C93.4059 45.9487 93.2816 45.6405 93.03 45.3826ZM54.1189 44.9934C53.8669 44.7376 53.5589 44.6078 53.1947 44.6041L46.061 44.5393C45.7115 44.5364 45.4089 44.6608 45.1531 44.9123C44.8971 45.1621 44.7674 45.4649 44.764 45.8205C44.7609 46.1788 44.8852 46.487 45.1369 46.7449C45.3888 47.0007 45.6914 47.1304 46.0448 47.1341L53.1785 47.199C53.5389 47.2018 53.8469 47.0775 54.1027 46.826C54.3587 46.5761 54.4884 46.2734 54.4918 45.9178C54.4949 45.5594 54.3706 45.2513 54.1189 44.9934ZM71.0938 45.1718C70.8379 45.4216 70.7081 45.7244 70.7047 46.08C70.7016 46.4383 70.8259 46.7465 71.0776 47.0044C71.3295 47.2602 71.6322 47.3899 71.9855 47.3936L79.1192 47.4585C79.4796 47.4613 79.7877 47.337 80.0434 47.0855C80.2994 46.8356 80.4291 46.5329 80.4325 46.1773C80.4356 45.8189 80.3113 45.5108 80.0596 45.2529C79.8077 44.997 79.4996 44.8673 79.1355 44.8636L72.0018 44.7988C71.6522 44.7959 71.3496 44.9203 71.0938 45.1718ZM67.0892 45.1231C66.8373 44.8673 66.5293 44.7376 66.1651 44.7339L59.0314 44.669C58.6819 44.6662 58.3792 44.7905 58.1235 45.042C57.8675 45.2919 57.7378 45.5946 57.7344 45.9502C57.7312 46.3086 57.8555 46.6167 58.1073 46.8747C58.3592 47.1304 58.6618 47.2602 59.0152 47.2639L66.1489 47.3288C66.5092 47.3316 66.8173 47.2073 67.073 46.9557C67.329 46.7058 67.4587 46.4031 67.4621 46.0475C67.4652 45.6892 67.3409 45.381 67.0892 45.1231ZM113.069 45.561C112.822 45.3127 112.519 45.1884 112.161 45.188H110.913C110.555 45.1884 110.247 45.3127 109.989 45.561C109.74 45.8194 109.616 46.1275 109.616 46.4854C109.616 46.8433 109.74 47.1461 109.989 47.3936C110.247 47.6527 110.555 47.7825 110.913 47.7829H112.161C112.519 47.7825 112.822 47.6527 113.069 47.3936C113.328 47.1461 113.458 46.8433 113.458 46.4854C113.458 46.1275 113.328 45.8194 113.069 45.561ZM106 45.5123C105.748 45.2565 105.44 45.1268 105.076 45.1231L97.9425 45.0582C97.5929 45.0554 97.2903 45.1797 97.0346 45.4313C96.7786 45.6811 96.6489 45.9838 96.6454 46.3395C96.6423 46.6978 96.7666 47.006 97.0183 47.2639C97.2702 47.5197 97.5729 47.6494 97.9263 47.6531L105.06 47.718C105.42 47.7208 105.728 47.5965 105.984 47.345C106.24 47.0951 106.37 46.7923 106.373 46.4368C106.376 46.0784 106.252 45.7703 106 45.5123Z" fill="#09255B"/>
<path d="M51.7842 45.8853C51.8166 45.9178 51.8436 45.9448 51.8652 45.9664C53.3028 47.4044 55.0376 48.1234 57.0696 48.1234H74.5472C76.5792 48.1234 78.3194 47.4044 79.7677 45.9664C79.7893 45.9448 79.8164 45.9178 79.8488 45.8853H51.7842Z" fill="#09255B"/>
<path d="M79.8488 45.8853C79.8164 45.9178 79.7893 45.9448 79.7677 45.9664C78.3194 47.4044 76.5792 48.1234 74.5472 48.1234H57.0696C55.0376 48.1234 53.3028 47.4044 51.8652 45.9664C51.8436 45.9448 51.8166 45.9178 51.7842 45.8853" stroke="#09255B" stroke-width="8" stroke-linecap="round" stroke-linejoin="round"/>
<path d="M118.29 40.0306L15.7266 39.5116C11.358 39.4845 7.63984 41.1496 4.57205 44.5068V44.4906C1.52862 47.8119 0.00460211 51.8286 0 56.5405V134.29C0.00287104 139.009 1.52689 143.042 4.57205 146.388C7.63229 149.765 11.345 151.463 15.7103 151.481L118.273 152H118.29C122.649 152.017 126.362 150.352 129.428 147.005C132.47 143.694 133.995 139.678 134 134.955V57.2055C133.997 52.4977 132.478 48.4703 129.444 45.1231C126.372 41.7361 122.654 40.0386 118.29 40.0306ZM118.273 42.3011H118.29C121.991 42.3169 125.147 43.7657 127.758 46.6475C130.409 49.5713 131.733 53.0906 131.73 57.2055V134.955C131.736 139.076 130.412 142.579 127.758 145.464C125.152 148.31 121.996 149.732 118.29 149.729L15.7266 149.21C12.0178 149.185 8.86173 147.737 6.2582 144.864C3.5964 141.94 2.26694 138.415 2.26981 134.29V56.5405C2.26517 52.4299 3.58923 48.9268 6.24198 46.0313C8.84864 43.1824 12.0048 41.766 15.7103 41.7821L118.273 42.3011ZM116.474 140.469C116.11 140.553 115.726 140.591 115.323 140.582L109.648 140.518C109.29 140.515 108.982 140.639 108.724 140.891C108.468 141.14 108.338 141.443 108.335 141.799C108.332 142.157 108.456 142.465 108.708 142.723C108.958 142.979 109.26 143.109 109.616 143.112L115.29 143.177C115.905 143.189 116.494 143.13 117.057 142.999C117.407 142.915 117.677 142.721 117.868 142.415C118.058 142.112 118.112 141.788 118.03 141.442C117.947 141.093 117.753 140.822 117.447 140.631C117.144 140.442 116.819 140.388 116.474 140.469ZM122.748 130.9C122.748 130.542 122.618 130.234 122.359 129.976C122.112 129.727 121.809 129.603 121.451 129.603C121.093 129.603 120.785 129.727 120.527 129.976C120.279 130.234 120.155 130.542 120.154 130.9V135.344C120.158 136.119 120.028 136.833 119.765 137.485C119.631 137.814 119.631 138.144 119.765 138.474C119.91 138.804 120.148 139.036 120.478 139.171C120.808 139.306 121.138 139.301 121.467 139.155C121.797 139.021 122.029 138.789 122.165 138.458C122.55 137.509 122.744 136.471 122.748 135.344V130.9ZM11.4626 132.522C11.2151 132.274 10.9124 132.149 10.5546 132.149C10.1968 132.149 9.8888 132.274 9.63049 132.522C9.38227 132.78 9.25797 133.089 9.25759 133.446V134.225C9.26059 136.392 9.97396 138.252 11.3977 139.804C11.7386 140.171 12.0898 140.49 12.4515 140.761C12.7405 140.975 13.0593 141.056 13.4081 141.004C13.7661 140.955 14.0526 140.787 14.2674 140.501C14.4816 140.213 14.5626 139.888 14.5106 139.528C14.4605 139.181 14.293 138.9 14.008 138.685C13.7672 138.504 13.5349 138.293 13.3108 138.052L13.2946 138.036C12.3296 136.979 11.8487 135.708 11.8517 134.225V133.446C11.8513 133.089 11.7216 132.78 11.4626 132.522ZM26.8973 140.063C26.6453 139.808 26.3373 139.678 25.9731 139.674L18.8394 139.609C18.4899 139.606 18.1873 139.731 17.9315 139.982C17.6755 140.232 17.5458 140.535 17.5424 140.891C17.5393 141.249 17.6636 141.557 17.9153 141.815C18.1672 142.071 18.4698 142.2 18.8232 142.204L25.9569 142.269C26.3173 142.272 26.6253 142.148 26.8811 141.896C27.1371 141.646 27.2668 141.343 27.2702 140.988C27.2733 140.629 27.149 140.321 26.8973 140.063ZM39.8676 140.193C39.6157 139.937 39.3077 139.808 38.9435 139.804L31.8098 139.739C31.4603 139.736 31.1576 139.861 30.9019 140.112C30.6459 140.362 30.5162 140.665 30.5128 141.02C30.5096 141.379 30.6339 141.687 30.8857 141.945C31.1376 142.2 31.4402 142.33 31.7936 142.334L38.9273 142.399C39.2876 142.402 39.5957 142.277 39.8514 142.026C40.1074 141.776 40.2371 141.473 40.2405 141.118C40.2436 140.759 40.1193 140.451 39.8676 140.193ZM52.838 140.323C52.5861 140.067 52.278 139.937 51.9138 139.934L44.7802 139.869C44.4306 139.866 44.128 139.99 43.8722 140.242C43.6162 140.492 43.4865 140.794 43.4831 141.15C43.48 141.508 43.6043 141.817 43.856 142.074C44.1079 142.33 44.4105 142.46 44.7639 142.464L51.8976 142.529C52.258 142.531 52.566 142.407 52.8218 142.156C53.0778 141.906 53.2075 141.603 53.2109 141.247C53.214 140.889 53.0897 140.581 52.838 140.323ZM65.8083 140.453C65.5564 140.197 65.2484 140.067 64.8842 140.063L57.7505 139.999C57.401 139.996 57.0983 140.12 56.8426 140.372C56.5866 140.621 56.4569 140.924 56.4535 141.28C56.4504 141.638 56.5747 141.946 56.8264 142.204C57.0783 142.46 57.3809 142.59 57.7343 142.593L64.868 142.658C65.2284 142.661 65.5364 142.537 65.7921 142.285C66.0481 142.035 66.1778 141.733 66.1812 141.377C66.1843 141.019 66.06 140.711 65.8083 140.453ZM78.7787 140.582C78.5268 140.327 78.2187 140.197 77.8546 140.193L70.7209 140.128C70.3713 140.125 70.0687 140.25 69.8129 140.501C69.557 140.751 69.4273 141.054 69.4238 141.41C69.4207 141.768 69.545 142.076 69.7967 142.334C70.0486 142.59 70.3513 142.719 70.7047 142.723L77.8383 142.788C78.1987 142.791 78.5068 142.667 78.7625 142.415C79.0185 142.165 79.1482 141.862 79.1516 141.507C79.1547 141.148 79.0304 140.84 78.7787 140.582ZM91.7491 140.712C91.4971 140.456 91.1891 140.327 90.8249 140.323L83.6912 140.258C83.3417 140.255 83.039 140.38 82.7833 140.631C82.5273 140.881 82.3976 141.184 82.3942 141.539C82.3911 141.898 82.5154 142.206 82.7671 142.464C83.019 142.719 83.3216 142.849 83.675 142.853L90.8087 142.918C91.1691 142.921 91.4771 142.796 91.7328 142.545C91.9888 142.295 92.1185 141.992 92.122 141.637C92.125 141.278 92.0007 140.97 91.7491 140.712ZM95.7537 140.761C95.4977 141.011 95.368 141.313 95.3645 141.669C95.3614 142.027 95.4857 142.335 95.7374 142.593C95.9893 142.849 96.292 142.979 96.6454 142.983L103.779 143.048C104.139 143.05 104.447 142.926 104.703 142.675C104.959 142.425 105.089 142.122 105.092 141.766C105.095 141.408 104.971 141.1 104.719 140.842C104.467 140.586 104.159 140.456 103.795 140.453L96.6616 140.388C96.312 140.385 96.0094 140.509 95.7537 140.761ZM9.63049 119.548C9.38227 119.806 9.25797 120.114 9.25759 120.472V127.608C9.25797 127.966 9.38227 128.269 9.63049 128.516C9.8888 128.775 10.1968 128.905 10.5546 128.905C10.9124 128.905 11.2151 128.775 11.4626 128.516C11.7216 128.269 11.8513 127.966 11.8517 127.608V120.472C11.8513 120.114 11.7216 119.806 11.4626 119.548C11.2151 119.299 10.9124 119.175 10.5546 119.175C10.1968 119.175 9.8888 119.299 9.63049 119.548ZM11.4626 106.573C11.2151 106.325 10.9124 106.201 10.5546 106.2C10.1968 106.201 9.8888 106.325 9.63049 106.573C9.38227 106.832 9.25797 107.14 9.25759 107.498V114.634C9.25797 114.991 9.38227 115.294 9.63049 115.542C9.8888 115.801 10.1968 115.931 10.5546 115.931C10.9124 115.931 11.2151 115.801 11.4626 115.542C11.7216 115.294 11.8513 114.991 11.8517 114.634V107.498C11.8513 107.14 11.7216 106.832 11.4626 106.573ZM11.4626 93.5988C11.2151 93.3505 10.9124 93.2261 10.5546 93.2257C10.1968 93.2261 9.8888 93.3505 9.63049 93.5988C9.38227 93.8571 9.25797 94.1653 9.25759 94.5232V101.659C9.25797 102.017 9.38227 102.32 9.63049 102.567C9.8888 102.826 10.1968 102.956 10.5546 102.957C10.9124 102.956 11.2151 102.826 11.4626 102.567C11.7216 102.32 11.8513 102.017 11.8517 101.659V94.5232C11.8513 94.1653 11.7216 93.8571 11.4626 93.5988ZM9.63049 80.6243C9.38227 80.8827 9.25797 81.1909 9.25759 81.5488V88.6847C9.25797 89.0426 9.38227 89.3453 9.63049 89.5929C9.8888 89.852 10.1968 89.9817 10.5546 89.9821C10.9124 89.9817 11.2151 89.852 11.4626 89.5929C11.7216 89.3453 11.8513 89.0426 11.8517 88.6847V81.5488C11.8513 81.1909 11.7216 80.8827 11.4626 80.6243C11.2151 80.376 10.9124 80.2517 10.5546 80.2513C10.1968 80.2517 9.8888 80.376 9.63049 80.6243ZM11.4626 67.6499C11.2151 67.4016 10.9124 67.2773 10.5546 67.2769C10.1968 67.2773 9.8888 67.4016 9.63049 67.6499C9.38227 67.9083 9.25797 68.2164 9.25759 68.5743V75.7103C9.25797 76.0682 9.38227 76.3709 9.63049 76.6185C9.8888 76.8776 10.1968 77.0073 10.5546 77.0077C10.9124 77.0073 11.2151 76.8776 11.4626 76.6185C11.7216 76.3709 11.8513 76.0682 11.8517 75.7103V68.5743C11.8513 68.2164 11.7216 67.9083 11.4626 67.6499ZM28.7456 51.3346C28.9974 51.5903 29.3001 51.7201 29.6535 51.7238L36.7872 51.7887C37.1475 51.7915 37.4556 51.6672 37.7113 51.4157C37.9673 51.1657 38.097 50.863 38.1004 50.5074C38.1035 50.1491 37.9792 49.8409 37.7275 49.583C37.4756 49.3272 37.1675 49.1975 36.8034 49.1938L29.6697 49.1289C29.3201 49.1261 29.0175 49.2504 28.7618 49.5019C28.5058 49.7518 28.3761 50.0545 28.3727 50.4101C28.3695 50.7685 28.4938 51.0766 28.7456 51.3346ZM13.5702 52.1941C13.9186 52.3008 14.2482 52.2684 14.5592 52.0968C15.1939 51.7538 15.891 51.5862 16.6507 51.594L23.8168 51.6589C24.1772 51.6618 24.4852 51.5374 24.741 51.2859C24.9969 51.036 25.1266 50.7333 25.1301 50.3777C25.1331 50.0193 25.0088 49.7112 24.7572 49.4533C24.5052 49.1975 24.1972 49.0677 23.833 49.064L16.6507 48.9992C15.4397 48.9991 14.3265 49.2748 13.3108 49.8263C13.0048 49.9983 12.7994 50.2524 12.6947 50.5885C12.5985 50.9348 12.6363 51.2646 12.8082 51.5778C12.9798 51.8926 13.2338 52.0981 13.5702 52.1941ZM9.37108 55.3891C9.29525 55.8558 9.25742 56.3477 9.25759 56.8649V62.7358C9.25797 63.0937 9.38227 63.3965 9.63049 63.644C9.8888 63.9032 10.1968 64.0329 10.5546 64.0333C10.9124 64.0329 11.2151 63.9032 11.4626 63.644C11.7216 63.3965 11.8513 63.0937 11.8517 62.7358V56.8649C11.8518 56.4955 11.8789 56.1441 11.9327 55.8107C11.9906 55.4551 11.9149 55.1308 11.7057 54.8377C11.493 54.5479 11.2066 54.3749 10.8465 54.3187C10.4995 54.2606 10.1807 54.3363 9.8899 54.5457C9.60039 54.7563 9.42745 55.0374 9.37108 55.3891ZM80.627 51.8535C80.8789 52.1093 81.1815 52.2391 81.5349 52.2428L88.6686 52.3076C89.029 52.3105 89.337 52.1861 89.5927 51.9346C89.8487 51.6847 89.9784 51.382 89.9818 51.0264C89.9849 50.6681 89.8606 50.3599 89.609 50.102C89.357 49.8462 89.049 49.7164 88.6848 49.7128L81.5511 49.6479C81.2016 49.6451 80.8989 49.7694 80.6432 50.0209C80.3872 50.2708 80.2575 50.5735 80.2541 50.9291C80.251 51.2875 80.3753 51.5956 80.627 51.8535ZM67.6566 51.7238C67.9085 51.9796 68.2112 52.1093 68.5645 52.113L75.6982 52.1779C76.0586 52.1807 76.3666 52.0564 76.6224 51.8049C76.8784 51.555 77.0081 51.2522 77.0115 50.8967C77.0146 50.5383 76.8903 50.2302 76.6386 49.9722C76.3867 49.7164 76.0786 49.5867 75.7145 49.583L68.5808 49.5181C68.2312 49.5153 67.9286 49.6397 67.6728 49.8912C67.4168 50.141 67.2871 50.4438 67.2837 50.7994C67.2806 51.1577 67.4049 51.4659 67.6566 51.7238ZM54.6863 51.594C54.9382 51.8498 55.2408 51.9796 55.5942 51.9833L62.7279 52.0482C63.0882 52.051 63.3963 51.9266 63.652 51.6751C63.908 51.4252 64.0377 51.1225 64.0411 50.7669C64.0442 50.4086 63.9199 50.1004 63.6682 49.8425C63.4163 49.5867 63.1083 49.4569 62.7441 49.4533L55.6104 49.3884C55.2609 49.3856 54.9582 49.5099 54.7025 49.7614C54.4465 50.0113 54.3168 50.314 54.3134 50.6696C54.3102 51.028 54.4345 51.3361 54.6863 51.594ZM50.6979 49.7128C50.4459 49.4569 50.1379 49.3272 49.7737 49.3235L42.64 49.2587C42.2905 49.2558 41.9879 49.3802 41.7321 49.6317C41.4761 49.8815 41.3464 50.1843 41.343 50.5399C41.3399 50.8982 41.4642 51.2064 41.7159 51.4643C41.9678 51.7201 42.2704 51.8498 42.6238 51.8535L49.7575 51.9184C50.1179 51.9212 50.4259 51.7969 50.6817 51.5454C50.9377 51.2955 51.0674 50.9928 51.0708 50.6372C51.0739 50.2788 50.9496 49.9707 50.6979 49.7128ZM122.748 117.926C122.748 117.568 122.618 117.26 122.359 117.001C122.112 116.753 121.809 116.629 121.451 116.628C121.093 116.629 120.785 116.753 120.527 117.001C120.279 117.26 120.155 117.568 120.154 117.926V125.062C120.155 125.42 120.279 125.722 120.527 125.97C120.785 126.229 121.093 126.359 121.451 126.359C121.809 126.359 122.112 126.229 122.359 125.97C122.618 125.722 122.748 125.42 122.748 125.062V117.926ZM120.527 104.027C120.279 104.285 120.155 104.593 120.154 104.951V112.087C120.155 112.445 120.279 112.748 120.527 112.996C120.785 113.255 121.093 113.384 121.451 113.385C121.809 113.384 122.112 113.255 122.359 112.996C122.618 112.748 122.748 112.445 122.748 112.087V104.951C122.748 104.593 122.618 104.285 122.359 104.027C122.112 103.779 121.809 103.654 121.451 103.654C121.093 103.654 120.785 103.779 120.527 104.027ZM120.527 91.0525C120.279 91.3109 120.155 91.6191 120.154 91.977V99.1129C120.155 99.4708 120.279 99.7735 120.527 100.021C120.785 100.28 121.093 100.41 121.451 100.41C121.809 100.41 122.112 100.28 122.359 100.021C122.618 99.7735 122.748 99.4708 122.748 99.1129V91.977C122.748 91.6191 122.618 91.3109 122.359 91.0525C122.112 90.8042 121.809 90.6799 121.451 90.6795C121.093 90.6799 120.785 90.8042 120.527 91.0525ZM121.451 77.7051C121.093 77.7055 120.785 77.8298 120.527 78.0781C120.279 78.3365 120.155 78.6446 120.154 79.0025V86.1385C120.155 86.4964 120.279 86.7991 120.527 87.0467C120.785 87.3058 121.093 87.4355 121.451 87.4359C121.809 87.4355 122.112 87.3058 122.359 87.0467C122.618 86.7991 122.748 86.4964 122.748 86.1385V79.0025C122.748 78.6446 122.618 78.3365 122.359 78.0781C122.112 77.8298 121.809 77.7055 121.451 77.7051ZM122.748 66.0281C122.748 65.6702 122.618 65.3621 122.359 65.1037C122.112 64.8554 121.809 64.731 121.451 64.7307C121.093 64.731 120.785 64.8554 120.527 65.1037C120.279 65.3621 120.155 65.6702 120.154 66.0281V73.164C120.155 73.5219 120.279 73.8247 120.527 74.0722C120.785 74.3313 121.093 74.4611 121.451 74.4615C121.809 74.4611 122.112 74.3313 122.359 74.0722C122.618 73.8247 122.748 73.5219 122.748 73.164V66.0281ZM120.819 52.6158C120.585 52.3478 120.288 52.1964 119.927 52.1617C119.578 52.1363 119.265 52.239 118.987 52.4698C118.719 52.7028 118.567 52.9948 118.533 53.3456C118.508 53.7056 118.611 54.0191 118.841 54.2862C119.721 55.3315 120.158 56.5641 120.154 57.984V60.1896C120.155 60.5475 120.279 60.8502 120.527 61.0978C120.785 61.3569 121.093 61.4867 121.451 61.487C121.809 61.4867 122.112 61.3569 122.359 61.0978C122.618 60.8502 122.748 60.5475 122.748 60.1896V57.984C122.744 55.9223 122.101 54.1329 120.819 52.6158ZM106.568 52.113C106.82 52.3688 107.122 52.4985 107.476 52.5023L114.609 52.5834C114.97 52.5862 115.278 52.4618 115.533 52.2103C115.789 51.9604 115.919 51.6577 115.923 51.3021C115.926 50.9438 115.801 50.6356 115.55 50.3777C115.298 50.1219 114.99 49.9921 114.626 49.9885L107.492 49.9074C107.142 49.9045 106.84 50.0289 106.584 50.2804C106.328 50.5302 106.198 50.833 106.195 51.1886C106.192 51.547 106.316 51.8551 106.568 52.113ZM102.952 51.1562C102.955 50.7978 102.831 50.4897 102.579 50.2317C102.327 49.9759 102.019 49.8462 101.655 49.8425L94.5215 49.7776C94.1719 49.7748 93.8693 49.8991 93.6135 50.1506C93.3576 50.4005 93.2279 50.7032 93.2244 51.0589C93.2213 51.4172 93.3456 51.7254 93.5973 51.9833C93.8492 52.2391 94.1519 52.3688 94.5053 52.3725L101.639 52.4374C101.999 52.4402 102.307 52.3159 102.563 52.0644C102.819 51.8145 102.949 51.5117 102.952 51.1562Z" fill="#09255B"/>
<path d="M118.29 42.3012H118.274L15.7106 41.7822C12.005 41.766 8.84886 43.1824 6.2422 46.0313C3.58944 48.9269 2.26539 52.4299 2.27003 56.5406V134.29C2.26716 138.415 3.59662 141.94 6.25842 144.864C8.86194 147.737 12.0181 149.186 15.7268 149.21L118.29 149.729C121.996 149.732 125.152 148.31 127.758 145.464C130.412 142.579 131.736 139.076 131.73 134.955V57.2055C131.734 53.0906 130.41 49.5713 127.758 46.6476C125.147 43.7657 121.991 42.3169 118.29 42.3012ZM102.58 50.2318C102.831 50.4897 102.956 50.7978 102.952 51.1562C102.949 51.5118 102.819 51.8145 102.563 52.0644C102.308 52.3159 102 52.4403 101.639 52.4374L94.5055 52.3726C94.1521 52.3688 93.8494 52.2391 93.5976 51.9833C93.3458 51.7254 93.2215 51.4173 93.2247 51.0589C93.2281 50.7033 93.3578 50.4005 93.6138 50.1507C93.8695 49.8992 94.1721 49.7748 94.5217 49.7777L101.655 49.8425C102.02 49.8462 102.328 49.976 102.58 50.2318ZM107.476 52.5023C107.122 52.4986 106.82 52.3688 106.568 52.1131C106.316 51.8551 106.192 51.547 106.195 51.1886C106.198 50.833 106.328 50.5303 106.584 50.2804C106.84 50.0289 107.143 49.9046 107.492 49.9074L114.626 49.9885C114.99 49.9922 115.298 50.1219 115.55 50.3777C115.802 50.6357 115.926 50.9438 115.923 51.3022C115.919 51.6577 115.79 51.9605 115.534 52.2104C115.278 52.4619 114.97 52.5862 114.61 52.5834L107.476 52.5023ZM119.927 52.1617C120.288 52.1965 120.585 52.3478 120.819 52.6158C122.101 54.133 122.744 55.9224 122.748 57.984V60.1896C122.748 60.5475 122.618 60.8503 122.359 61.0979C122.112 61.357 121.809 61.4867 121.451 61.4871C121.094 61.4867 120.786 61.357 120.527 61.0979C120.279 60.8503 120.155 60.5475 120.154 60.1896V57.984C120.159 56.5641 119.721 55.3315 118.841 54.2863C118.611 54.0191 118.508 53.7056 118.533 53.3456C118.568 52.9948 118.719 52.7029 118.987 52.4699C119.265 52.239 119.578 52.1363 119.927 52.1617ZM122.359 65.1037C122.618 65.3621 122.748 65.6702 122.748 66.0281V73.1641C122.748 73.522 122.618 73.8247 122.359 74.0723C122.112 74.3314 121.809 74.4611 121.451 74.4615C121.094 74.4611 120.786 74.3314 120.527 74.0723C120.279 73.8247 120.155 73.522 120.154 73.1641V66.0281C120.155 65.6702 120.279 65.3621 120.527 65.1037C120.786 64.8554 121.094 64.7311 121.451 64.7307C121.809 64.7311 122.112 64.8554 122.359 65.1037ZM120.527 78.0781C120.786 77.8298 121.094 77.7055 121.451 77.7051C121.809 77.7055 122.112 77.8298 122.359 78.0781C122.618 78.3365 122.748 78.6447 122.748 79.0026V86.1385C122.748 86.4964 122.618 86.7991 122.359 87.0467C122.112 87.3058 121.809 87.4356 121.451 87.4359C121.094 87.4356 120.786 87.3058 120.527 87.0467C120.279 86.7991 120.155 86.4964 120.154 86.1385V79.0026C120.155 78.6447 120.279 78.3365 120.527 78.0781ZM120.154 91.977C120.155 91.6191 120.279 91.311 120.527 91.0526C120.786 90.8043 121.094 90.6799 121.451 90.6796C121.809 90.6799 122.112 90.8043 122.359 91.0526C122.618 91.311 122.748 91.6191 122.748 91.977V99.1129C122.748 99.4708 122.618 99.7736 122.359 100.021C122.112 100.28 121.809 100.41 121.451 100.41C121.094 100.41 120.786 100.28 120.527 100.021C120.279 99.7736 120.155 99.4708 120.154 99.1129V91.977ZM120.154 104.951C120.155 104.594 120.279 104.285 120.527 104.027C120.786 103.779 121.094 103.654 121.451 103.654C121.809 103.654 122.112 103.779 122.359 104.027C122.618 104.285 122.748 104.594 122.748 104.951V112.087C122.748 112.445 122.618 112.748 122.359 112.996C122.112 113.255 121.809 113.384 121.451 113.385C121.094 113.384 120.786 113.255 120.527 112.996C120.279 112.748 120.155 112.445 120.154 112.087V104.951ZM122.359 117.001C122.618 117.26 122.748 117.568 122.748 117.926V125.062C122.748 125.42 122.618 125.722 122.359 125.97C122.112 126.229 121.809 126.359 121.451 126.359C121.094 126.359 120.786 126.229 120.527 125.97C120.279 125.722 120.155 125.42 120.154 125.062V117.926C120.155 117.568 120.279 117.26 120.527 117.001C120.786 116.753 121.094 116.629 121.451 116.628C121.809 116.629 122.112 116.753 122.359 117.001ZM49.774 49.3236C50.1381 49.3272 50.4462 49.457 50.6981 49.7128C50.9498 49.9707 51.0741 50.2789 51.071 50.6372C51.0676 50.9928 50.9379 51.2955 50.6819 51.5454C50.4262 51.7969 50.1181 51.9213 49.7578 51.9184L42.6241 51.8536C42.2707 51.8499 41.968 51.7201 41.7161 51.4643C41.4644 51.2064 41.3401 50.8983 41.3432 50.5399C41.3467 50.1843 41.4764 49.8816 41.7323 49.6317C41.9881 49.3802 42.2907 49.2559 42.6403 49.2587L49.774 49.3236ZM55.5944 51.9833C55.241 51.9796 54.9384 51.8499 54.6865 51.5941C54.4348 51.3362 54.3105 51.028 54.3136 50.6697C54.317 50.314 54.4467 50.0113 54.7027 49.7615C54.9584 49.5099 55.2611 49.3856 55.6106 49.3884L62.7443 49.4533C63.1085 49.457 63.4165 49.5867 63.6685 49.8425C63.9201 50.1005 64.0444 50.4086 64.0414 50.767C64.0379 51.1225 63.9082 51.4253 63.6522 51.6752C63.3965 51.9267 63.0885 52.051 62.7281 52.0482L55.5944 51.9833ZM68.5648 52.1131C68.2114 52.1094 67.9087 51.9796 67.6568 51.7238C67.4051 51.4659 67.2808 51.1578 67.284 50.7994C67.2874 50.4438 67.4171 50.1411 67.6731 49.8912C67.9288 49.6397 68.2314 49.5154 68.581 49.5182L75.7147 49.5831C76.0788 49.5867 76.3869 49.7165 76.6388 49.9723C76.8905 50.2302 77.0148 50.5384 77.0117 50.8967C77.0083 51.2523 76.8786 51.555 76.6226 51.8049C76.3669 52.0564 76.0588 52.1808 75.6985 52.1779L68.5648 52.1131ZM81.5351 52.2428C81.1817 52.2391 80.8791 52.1093 80.6272 51.8536C80.3755 51.5957 80.2512 51.2875 80.2543 50.9291C80.2577 50.5735 80.3874 50.2708 80.6434 50.0209C80.8991 49.7694 81.2018 49.6451 81.5513 49.6479L88.685 49.7128C89.0492 49.7165 89.3572 49.8462 89.6092 50.102C89.8609 50.36 89.9852 50.6681 89.9821 51.0265C89.9786 51.382 89.8489 51.6848 89.593 51.9347C89.3372 52.1862 89.0292 52.3105 88.6688 52.3077L81.5351 52.2428ZM9.25781 56.8649C9.25764 56.3478 9.29547 55.8558 9.3713 55.3891C9.42767 55.0374 9.60061 54.7563 9.89012 54.5458C10.1809 54.3363 10.4997 54.2606 10.8467 54.3187C11.2068 54.3749 11.4932 54.5479 11.706 54.8377C11.9151 55.1308 11.9908 55.4552 11.9329 55.8108C11.8791 56.1441 11.8521 56.4955 11.8519 56.8649V62.7359C11.8515 63.0938 11.7218 63.3965 11.4628 63.6441C11.2153 63.9032 10.9126 64.0329 10.5548 64.0333C10.1971 64.0329 9.88902 63.9032 9.63071 63.6441C9.38249 63.3965 9.25819 63.0938 9.25781 62.7359V56.8649ZM14.5594 52.0968C14.2484 52.2684 13.9188 52.3008 13.5705 52.1942C13.234 52.0981 12.98 51.8927 12.8084 51.5779C12.6366 51.2646 12.5987 50.9349 12.695 50.5886C12.7996 50.2524 13.005 49.9983 13.311 49.8263C14.3267 49.2748 15.44 48.9991 16.6509 48.9992L23.8333 49.0641C24.1974 49.0677 24.5055 49.1975 24.7574 49.4533C25.0091 49.7112 25.1334 50.0194 25.1303 50.3777C25.1269 50.7333 24.9972 51.036 24.7412 51.2859C24.4854 51.5375 24.1774 51.6618 23.817 51.659L16.6509 51.5941C15.8912 51.5862 15.1941 51.7538 14.5594 52.0968ZM29.6537 51.7238C29.3003 51.7201 28.9977 51.5904 28.7458 51.3346C28.4941 51.0767 28.3698 50.7685 28.3729 50.4102C28.3763 50.0546 28.506 49.7518 28.762 49.502C29.0177 49.2505 29.3204 49.1261 29.6699 49.129L36.8036 49.1938C37.1678 49.1975 37.4758 49.3272 37.7277 49.5831C37.9794 49.841 38.1037 50.1491 38.1006 50.5075C38.0972 50.8631 37.9675 51.1658 37.7115 51.4157C37.4558 51.6672 37.1478 51.7915 36.7874 51.7887L29.6537 51.7238ZM10.5548 67.2769C10.9126 67.2773 11.2153 67.4016 11.4628 67.6499C11.7218 67.9083 11.8515 68.2165 11.8519 68.5744V75.7103C11.8515 76.0682 11.7218 76.3709 11.4628 76.6185C11.2153 76.8776 10.9126 77.0074 10.5548 77.0077C10.1971 77.0074 9.88902 76.8776 9.63071 76.6185C9.38249 76.3709 9.25819 76.0682 9.25781 75.7103V68.5744C9.25819 68.2165 9.38249 67.9083 9.63071 67.6499C9.88902 67.4016 10.1971 67.2773 10.5548 67.2769ZM9.25781 81.5488C9.25819 81.1909 9.38249 80.8828 9.63071 80.6244C9.88902 80.3761 10.1971 80.2517 10.5548 80.2514C10.9126 80.2517 11.2153 80.3761 11.4628 80.6244C11.7218 80.8828 11.8515 81.1909 11.8519 81.5488V88.6847C11.8515 89.0426 11.7218 89.3454 11.4628 89.5929C11.2153 89.852 10.9126 89.9818 10.5548 89.9822C10.1971 89.9818 9.88902 89.852 9.63071 89.5929C9.38249 89.3454 9.25819 89.0426 9.25781 88.6847V81.5488ZM10.5548 93.2258C10.9126 93.2262 11.2153 93.3505 11.4628 93.5988C11.7218 93.8572 11.8515 94.1653 11.8519 94.5232V101.659C11.8515 102.017 11.7218 102.32 11.4628 102.567C11.2153 102.826 10.9126 102.956 10.5548 102.957C10.1971 102.956 9.88902 102.826 9.63071 102.567C9.38249 102.32 9.25819 102.017 9.25781 101.659V94.5232C9.25819 94.1653 9.38249 93.8572 9.63071 93.5988C9.88902 93.3505 10.1971 93.2262 10.5548 93.2258ZM10.5548 106.2C10.9126 106.201 11.2153 106.325 11.4628 106.573C11.7218 106.832 11.8515 107.14 11.8519 107.498V114.634C11.8515 114.991 11.7218 115.294 11.4628 115.542C11.2153 115.801 10.9126 115.931 10.5548 115.931C10.1971 115.931 9.88902 115.801 9.63071 115.542C9.38249 115.294 9.25819 114.991 9.25781 114.634V107.498C9.25819 107.14 9.38249 106.832 9.63071 106.573C9.88902 106.325 10.1971 106.201 10.5548 106.2ZM9.25781 120.472C9.25819 120.114 9.38249 119.806 9.63071 119.548C9.88902 119.299 10.1971 119.175 10.5548 119.175C10.9126 119.175 11.2153 119.299 11.4628 119.548C11.7218 119.806 11.8515 120.114 11.8519 120.472V127.608C11.8515 127.966 11.7218 128.269 11.4628 128.516C11.2153 128.775 10.9126 128.905 10.5548 128.905C10.1971 128.905 9.88902 128.775 9.63071 128.516C9.38249 128.269 9.25819 127.966 9.25781 127.608V120.472ZM95.3648 141.669C95.3682 141.313 95.4979 141.011 95.7539 140.761C96.0096 140.509 96.3123 140.385 96.6618 140.388L103.796 140.453C104.16 140.456 104.468 140.586 104.72 140.842C104.971 141.1 105.096 141.408 105.093 141.766C105.089 142.122 104.959 142.425 104.703 142.675C104.448 142.926 104.14 143.05 103.779 143.048L96.6456 142.983C96.2922 142.979 95.9896 142.849 95.7377 142.593C95.4859 142.336 95.3616 142.027 95.3648 141.669ZM90.8251 140.323C91.1893 140.327 91.4973 140.456 91.7493 140.712C92.001 140.97 92.1253 141.278 92.1222 141.637C92.1188 141.992 91.9891 142.295 91.7331 142.545C91.4773 142.796 91.1693 142.921 90.8089 142.918L83.6752 142.853C83.3218 142.849 83.0192 142.719 82.7673 142.464C82.5156 142.206 82.3913 141.898 82.3944 141.539C82.3978 141.184 82.5275 140.881 82.7835 140.631C83.0393 140.38 83.3419 140.255 83.6915 140.258L90.8251 140.323ZM77.8548 140.193C78.2189 140.197 78.527 140.327 78.7789 140.582C79.0306 140.84 79.1549 141.148 79.1518 141.507C79.1484 141.862 79.0187 142.165 78.7627 142.415C78.507 142.667 78.1989 142.791 77.8386 142.788L70.7049 142.723C70.3515 142.719 70.0488 142.59 69.797 142.334C69.5452 142.076 69.4209 141.768 69.4241 141.41C69.4275 141.054 69.5572 140.751 69.8132 140.501C70.0689 140.25 70.3715 140.125 70.7211 140.128L77.8548 140.193ZM64.8844 140.063C65.2486 140.067 65.5566 140.197 65.8086 140.453C66.0602 140.711 66.1845 141.019 66.1815 141.377C66.178 141.733 66.0483 142.035 65.7924 142.285C65.5366 142.537 65.2286 142.661 64.8682 142.658L57.7345 142.593C57.3811 142.59 57.0785 142.46 56.8266 142.204C56.5749 141.946 56.4506 141.638 56.4537 141.28C56.4571 140.924 56.5868 140.621 56.8428 140.372C57.0985 140.12 57.4012 139.996 57.7507 139.999L64.8844 140.063ZM51.9141 139.934C52.2782 139.937 52.5863 140.067 52.8382 140.323C53.0899 140.581 53.2142 140.889 53.2111 141.247C53.2077 141.603 53.078 141.906 52.822 142.156C52.5663 142.407 52.2582 142.531 51.8979 142.529L44.7642 142.464C44.4108 142.46 44.1081 142.33 43.8562 142.074C43.6045 141.817 43.4802 141.508 43.4833 141.15C43.4868 140.794 43.6165 140.492 43.8725 140.242C44.1282 139.99 44.4308 139.866 44.7804 139.869L51.9141 139.934ZM38.9437 139.804C39.3079 139.808 39.6159 139.937 39.8679 140.193C40.1195 140.451 40.2438 140.759 40.2408 141.118C40.2373 141.473 40.1076 141.776 39.8516 142.026C39.5959 142.277 39.2879 142.402 38.9275 142.399L31.7938 142.334C31.4404 142.33 31.1378 142.201 30.8859 141.945C30.6342 141.687 30.5099 141.379 30.513 141.02C30.5164 140.665 30.6461 140.362 30.9021 140.112C31.1578 139.861 31.4605 139.736 31.81 139.739L38.9437 139.804ZM25.9734 139.674C26.3375 139.678 26.6456 139.808 26.8975 140.063C27.1492 140.321 27.2735 140.63 27.2704 140.988C27.267 141.343 27.1373 141.646 26.8813 141.896C26.6256 142.148 26.3175 142.272 25.9571 142.269L18.8235 142.204C18.4701 142.201 18.1674 142.071 17.9155 141.815C17.6638 141.557 17.5395 141.249 17.5426 140.891C17.546 140.535 17.6758 140.232 17.9317 139.982C18.1875 139.731 18.4901 139.607 18.8397 139.609L25.9734 139.674ZM10.5548 132.149C10.9126 132.149 11.2153 132.274 11.4628 132.522C11.7218 132.78 11.8515 133.089 11.8519 133.446V134.225C11.8489 135.708 12.3299 136.979 13.2948 138.036L13.311 138.052C13.5351 138.293 13.7675 138.504 14.0082 138.685C14.2932 138.9 14.4607 139.181 14.5108 139.528C14.5629 139.888 14.4818 140.213 14.2676 140.501C14.0528 140.787 13.7664 140.955 13.4083 141.004C13.0595 141.056 12.7407 140.975 12.4518 140.761C12.0901 140.49 11.7388 140.171 11.3979 139.804C9.97418 138.252 9.26081 136.392 9.25781 134.225V133.446C9.25819 133.089 9.38249 132.78 9.63071 132.522C9.88902 132.274 10.1971 132.149 10.5548 132.149ZM122.359 129.976C122.618 130.234 122.748 130.542 122.748 130.9V135.344C122.745 136.471 122.55 137.509 122.165 138.458C122.029 138.789 121.797 139.021 121.468 139.155C121.138 139.301 120.808 139.306 120.479 139.171C120.148 139.036 119.91 138.804 119.765 138.474C119.631 138.144 119.631 137.814 119.765 137.485C120.029 136.833 120.158 136.119 120.154 135.344V130.9C120.155 130.542 120.279 130.234 120.527 129.976C120.786 129.728 121.094 129.603 121.451 129.603C121.809 129.603 122.112 129.728 122.359 129.976ZM115.323 140.582C115.726 140.591 116.11 140.553 116.474 140.469C116.82 140.388 117.144 140.442 117.447 140.631C117.753 140.822 117.947 141.093 118.03 141.442C118.112 141.788 118.058 142.112 117.868 142.415C117.677 142.721 117.407 142.915 117.058 142.999C116.495 143.13 115.906 143.189 115.29 143.177L109.616 143.112C109.261 143.109 108.958 142.979 108.708 142.723C108.456 142.465 108.332 142.157 108.335 141.799C108.339 141.443 108.468 141.14 108.724 140.891C108.982 140.639 109.29 140.515 109.648 140.518L115.323 140.582Z" fill="#E89FED"/>
<path d="M103.001 53.6051L105.287 46.2746C103.903 42.4904 102.303 38.0034 100.488 32.8136H44.6178C41.4617 34.3165 39.8674 35.549 39.835 36.5113L30.3828 53.6051C31.4421 57.0109 34.3982 58.7138 39.2513 58.7138C58.5339 54.2592 76.8167 54.2592 94.0997 58.7138C98.9636 58.7138 101.931 57.0109 103.001 53.6051Z" fill="#1F001F" fill-opacity="0.4"/>
<path d="M106.276 78.1916C106.22 78.1251 106.15 78.0873 106.065 78.0781C104.831 77.9629 103.864 78.4927 103.163 79.6675C102.514 80.7579 102.108 82.4392 101.947 84.7113C101.898 85.2949 101.833 86.0031 101.752 86.8359C101.757 86.8469 101.757 86.8577 101.752 86.8683C101.562 89.2403 100.497 91.3162 98.5584 93.096C98.5528 93.1069 98.5474 93.1124 98.5422 93.1122C96.2495 95.1465 93.4177 96.1412 90.0466 96.0963C87.2775 96.0564 85.0942 95.7482 83.4966 95.1719C82.1458 94.6371 80.6542 93.6532 79.0218 92.2202L79.0056 92.204C77.4429 90.7506 76.4809 88.7179 76.1197 86.106C76.1263 86.1013 76.1263 86.0905 76.1197 86.0736C75.8304 83.4668 75.6305 81.8991 75.5198 81.3704C75.5487 80.6403 75.0353 79.9699 73.9796 79.3593C74.0071 79.2561 74.0179 79.1372 74.012 79.0025C74.0106 78.9867 74.0052 78.9704 73.9958 78.9539C74.0107 78.8148 74.0431 78.4472 74.0931 77.8511C74.099 77.8399 74.099 77.8291 74.0931 77.8186C74.1865 76.9914 74.0514 76.2075 73.6878 75.467C74.243 75.7773 74.6321 75.9017 74.8551 75.84C75.663 75.8836 76.7763 75.5322 78.195 74.7859C78.2058 74.7833 78.2112 74.7779 78.2112 74.7696C78.222 74.7724 78.2274 74.7724 78.2274 74.7696C79.3352 74.2106 80.4593 73.8052 81.5997 73.5533C81.6203 73.5573 81.6365 73.5573 81.6483 73.5533C82.9399 73.2773 84.8368 73.0178 87.3391 72.7748C89.7982 72.5428 92.1544 72.5104 94.4079 72.6775C94.4219 72.6832 94.4327 72.6832 94.4403 72.6775C95.8566 72.7996 97.5806 73.0483 99.6123 73.4235C99.7002 73.4463 99.7812 73.4301 99.8555 73.3749C99.9274 73.3283 99.9706 73.2581 99.9852 73.164L100.374 71.1044L100.65 69.661C100.668 69.5783 100.651 69.4972 100.601 69.4177C100.55 69.351 100.479 69.3077 100.39 69.2879C98.1751 68.876 96.2944 68.6057 94.7484 68.477C94.7456 68.4821 94.7402 68.4821 94.7322 68.477H94.716C92.2344 68.2884 89.6403 68.3209 86.9338 68.5743C84.2126 68.8395 82.1536 69.126 80.7566 69.4339C80.7403 69.4378 80.7241 69.4432 80.708 69.4501C79.2146 69.7659 77.7446 70.2902 76.2981 71.0233H76.2818L76.2656 71.0395C75.8127 71.2792 75.4344 71.4468 75.1307 71.5422C75.0782 71.4176 74.9539 71.2824 74.7578 71.1368C74.7497 71.1315 74.7389 71.1261 74.7254 71.1206C73.7214 70.3628 72.8405 69.8492 72.0827 69.5799C72.0827 69.5769 72.0773 69.5715 72.0665 69.5636C71.3254 69.3006 70.585 69.1114 69.8453 68.996C69.8373 68.9927 69.8265 68.9873 69.8129 68.9798C69.1806 68.875 68.3537 68.8155 67.3323 68.8014C67.0271 68.7905 66.7353 68.7797 66.4568 68.769H66.4406C66.4171 68.7684 66.39 68.7684 66.3595 68.769C66.2923 68.769 66.2275 68.769 66.165 68.769H65.9542C64.918 68.768 64.0804 68.8112 63.4412 68.8987C63.4351 68.9005 63.4243 68.9005 63.4088 68.8987C62.6876 68.9962 61.958 69.1638 61.22 69.4015H61.2038C61.1859 69.4152 61.1642 69.426 61.1389 69.4339H61.1227C60.3857 69.7036 59.5156 70.201 58.5125 70.926C58.5071 70.9315 58.5017 70.9369 58.4962 70.9422C58.3102 71.0744 58.1805 71.1933 58.1071 71.299C57.8201 71.1962 57.4526 71.0178 57.0046 70.7638L56.9884 70.7476C56.9785 70.7438 56.9623 70.7384 56.9398 70.7313C55.4889 69.9655 54.0081 69.3979 52.4974 69.0284C52.4854 69.0294 52.4692 69.0294 52.4488 69.0284C51.0564 68.6806 49.019 68.3455 46.3365 68.0229C43.6267 67.6931 41.0218 67.5904 38.5219 67.7148C37.0011 67.7919 35.1366 68.0027 32.9284 68.3473H32.8636C32.8287 68.3597 32.7909 68.3705 32.7501 68.3797C31.7232 68.5962 30.5991 68.8557 29.3778 69.1582C29.3684 69.1591 29.3522 69.1591 29.3291 69.1582C27.2599 69.6712 26.0061 70.0604 25.5677 70.3259C24.6814 70.5816 24.2382 71.7331 24.2383 73.7803C24.2382 74.8828 24.3408 75.6342 24.5463 76.0346C24.6672 76.6057 25.467 77.3193 26.9458 78.1754C27.0885 82.7745 27.1911 85.4505 27.2539 86.2033C27.2605 86.2145 27.2659 86.2254 27.2701 86.2358C27.5187 89.6326 29.0265 92.6438 31.7935 95.2692L31.8097 95.2854C34.8696 98.1532 38.6581 99.6182 43.175 99.6805C46.5579 99.7299 49.2168 99.4055 51.1518 98.7075C52.9318 98.1 54.8773 96.8837 56.9884 95.0584V95.0746C59.3541 93.0827 60.7862 90.185 61.2849 86.3817C61.2887 86.3709 61.2887 86.3601 61.2849 86.3493C61.4904 84.5831 61.6417 83.3505 61.7388 82.6516C62.7616 82.1774 63.3236 80.988 63.425 79.0836C63.4254 79.0758 63.4254 79.065 63.425 79.0512C63.4368 78.8051 63.3989 78.2375 63.3115 77.3483C63.3432 77.1593 63.4459 76.9809 63.6195 76.8131L63.6357 76.7969C64.0091 76.4932 64.4901 76.3364 65.0787 76.3266H65.1111C65.4221 76.3161 65.7031 76.3107 65.9542 76.3103C66.0299 76.3103 66.1055 76.3103 66.1812 76.3103C66.644 76.3111 66.9791 76.3166 67.1864 76.3266H67.2026C67.4458 76.3379 67.7214 76.3541 68.0294 76.3752C68.0434 76.3754 68.0542 76.3754 68.0619 76.3752H68.1105C68.7072 76.3991 69.1936 76.5775 69.5697 76.9104L69.5535 76.8942H69.5697V76.9104C69.7617 77.0932 69.8698 77.2878 69.8939 77.4943C69.8167 78.3923 69.7843 78.9653 69.7967 79.2134V79.2296C69.8988 81.1235 70.4608 82.3128 71.4828 82.7976C71.5778 83.5033 71.7237 84.7521 71.9206 86.5439C71.9275 86.5637 71.9329 86.58 71.9368 86.5926C72.4362 90.3747 73.8576 93.294 76.2008 95.3503H76.217C78.3167 97.2155 80.2514 98.4751 82.0212 99.1291C82.0434 99.1364 82.065 99.1418 82.0861 99.1453C84.0135 99.8756 86.6454 100.265 89.9818 100.313C94.5147 100.377 98.3139 99.02 101.379 96.2423C101.382 96.2367 101.382 96.2313 101.379 96.2261L101.396 96.2099C104.183 93.6516 105.702 90.6675 105.952 87.2575C105.956 87.2471 105.956 87.2363 105.952 87.2251C106.033 86.3914 106.168 83.4559 106.357 78.4187C106.36 78.3324 106.333 78.2568 106.276 78.1916ZM38.7327 71.9315C41.002 71.818 43.3636 71.9099 45.8177 72.2072C48.3056 72.5044 50.1917 72.8072 51.476 73.1154C51.4876 73.1276 51.4984 73.133 51.5085 73.1316C52.6891 73.4216 53.8456 73.8648 54.978 74.4615C56.423 75.2699 57.5417 75.6592 58.3341 75.6292C58.5735 75.6928 58.9842 75.5631 59.5663 75.24C59.1786 75.9959 59.0273 76.8068 59.1123 77.6727C59.1173 77.6831 59.1173 77.6939 59.1123 77.7051C59.173 78.3012 59.2055 78.6688 59.2096 78.8079C59.211 78.8244 59.211 78.8407 59.2096 78.8566C59.2047 78.9764 59.2101 79.0792 59.2258 79.1647C58.1806 79.7846 57.6726 80.4604 57.7018 81.192C57.5912 81.7167 57.3859 83.2737 57.0857 85.8628C57.0897 85.8766 57.0897 85.8874 57.0857 85.8952C56.7359 88.4885 55.7794 90.4779 54.216 91.8634H54.2322C52.6009 93.2719 51.1039 94.2233 49.7412 94.7178H49.7575C48.1721 95.2529 45.9996 95.5016 43.2399 95.4638C39.8528 95.4186 37.0048 94.3374 34.6956 92.2202L34.6794 92.204C32.7305 90.3538 31.655 88.2346 31.453 85.8465C31.4589 85.8359 31.4589 85.8251 31.453 85.8141C31.3828 84.9814 31.3179 84.2732 31.2585 83.6896C31.3645 80.9441 31.1916 79.1115 30.7397 78.1916C30.7763 78.1508 30.8087 78.1075 30.8369 78.0619C31.1465 77.5678 31.233 77.038 31.0964 76.4725C30.975 75.9058 30.6669 75.4625 30.1722 75.1427C29.9782 75.0295 29.7728 74.9106 29.5561 74.7859C29.5408 74.7794 29.5246 74.7686 29.5075 74.7534C29.0404 74.507 28.6838 74.3502 28.4374 74.2831C28.4486 74.1573 28.454 73.9897 28.4536 73.7803C28.4536 73.7612 28.4536 73.7395 28.4536 73.7155C28.8712 73.622 29.4981 73.4706 30.3344 73.2614C30.352 73.2619 30.3682 73.2565 30.383 73.2451C31.5325 72.9613 32.5972 72.7126 33.5769 72.4991C33.5896 72.5017 33.6005 72.5017 33.6094 72.4991H33.5932C35.6238 72.1931 37.337 72.0039 38.7327 71.9315Z" fill="white"/>
<path d="M102.531 105.146H102.515C102.495 105.144 102.474 105.138 102.45 105.13C101.173 104.699 99.7251 104.785 98.1048 105.389V105.373C98.1048 105.381 98.0994 105.387 98.0886 105.389H98.0724C95.9933 106.145 94.5287 107.432 93.6787 109.249L93.6949 109.233C92.8645 110.619 91.1351 111.36 88.5067 111.455C88.4952 111.454 88.479 111.454 88.4581 111.455C88.4474 111.454 88.4312 111.454 88.4095 111.455C85.2755 111.368 79.1307 111.347 69.9753 111.39H69.9591C69.0875 111.39 68.2066 111.39 67.3164 111.39H67.3002C56.5339 111.314 49.4326 111.325 45.9964 111.422H45.964C45.945 111.422 45.9234 111.422 45.8991 111.422C43.2906 111.324 41.572 110.584 40.7434 109.2V109.217C39.9042 107.399 38.4396 106.113 36.3497 105.357C36.3471 105.359 36.3417 105.359 36.3335 105.357C36.3254 105.354 36.3146 105.348 36.301 105.341C34.696 104.75 33.253 104.668 31.9722 105.097H31.9884C31.9645 105.106 31.9375 105.111 31.9073 105.114H31.8911C27.8472 106.564 25.9557 108.764 26.2166 111.714V111.73C26.2862 114.247 26.8537 116.199 27.9189 117.585C28.8061 118.801 30.1842 120.212 32.0532 121.818L32.0695 121.851C34.0347 123.576 36.9854 124.749 40.9217 125.37C44.5343 125.948 47.5823 126.224 50.0658 126.197H50.082C52.1852 126.165 57.2923 126.148 65.4033 126.148H65.4195C65.4299 126.148 65.4407 126.148 65.4519 126.148C66.0179 126.139 66.6016 126.144 67.2029 126.165C67.2314 126.165 67.253 126.165 67.2678 126.165C67.8406 126.165 68.408 126.17 68.9701 126.181H68.9863C68.9977 126.181 69.0085 126.181 69.0188 126.181C77.1405 126.181 82.253 126.197 84.3562 126.229H84.3724C86.8559 126.256 89.8985 125.98 93.5003 125.402C97.4474 124.781 100.398 123.608 102.353 121.883L102.385 121.851C104.254 120.244 105.627 118.833 106.503 117.618H106.519C107.587 116.228 108.154 114.271 108.222 111.747C108.482 108.796 106.586 106.596 102.531 105.146ZM104.006 111.682C103.962 113.122 103.676 114.257 103.147 115.088C103.137 115.096 103.127 115.101 103.115 115.104C102.364 116.121 101.196 117.31 99.6126 118.672C98.0962 119.911 95.8372 120.771 92.8356 121.25V121.234C89.5128 121.769 86.7026 122.029 84.4049 122.013C82.2913 121.98 77.1735 121.964 69.0512 121.964C68.4756 121.953 67.8973 121.948 67.3164 121.948C67.3082 121.948 67.292 121.948 67.2678 121.948C66.6311 121.926 66.015 121.921 65.4195 121.932H65.3871C57.3009 121.932 52.1776 121.948 50.0172 121.98C47.7264 121.996 44.9161 121.736 41.5865 121.202V121.218C38.5957 120.738 36.3367 119.879 34.8094 118.639C33.2366 117.278 32.0693 116.088 31.3075 115.071C31.3063 115.068 31.3009 115.063 31.2912 115.055C30.7616 114.223 30.4751 113.082 30.432 111.633C30.5659 110.588 31.5117 109.744 33.2692 109.103C33.7474 109.015 34.2824 109.079 34.8743 109.298L34.8905 109.314H34.9067C35.8674 109.665 36.5484 110.249 36.9496 111.066L36.9658 111.098C38.2451 113.988 41.2229 115.501 45.8991 115.639C45.9427 115.64 45.9805 115.64 46.0126 115.639C49.4006 115.542 56.4911 115.531 67.284 115.607H67.3002C68.1973 115.607 69.089 115.607 69.9753 115.607C79.189 115.564 85.3337 115.585 88.4095 115.671C88.4519 115.673 88.4897 115.673 88.5229 115.671C93.21 115.534 96.1878 114.02 97.4563 111.13C97.4647 111.125 97.4701 111.12 97.4725 111.114V111.098C97.8844 110.281 98.5707 109.697 99.5315 109.346H99.5153H99.5478V109.33C100.15 109.112 100.685 109.047 101.153 109.136C102.925 109.778 103.876 110.627 104.006 111.682Z" fill="#09255B"/>
<path d="M104.168 77.6402C104.341 77.5537 104.525 77.4564 104.72 77.3483C105.941 76.7104 106.606 76.2617 106.714 76.0022C106.822 75.7967 106.876 75.321 106.876 74.575C106.876 73.6235 106.757 73.0613 106.519 72.8883C106.335 72.7477 105.292 72.4234 103.39 71.9152C102.317 71.6071 101.312 71.3395 100.375 71.1124" stroke="white" stroke-width="11" stroke-linecap="round" stroke-linejoin="round"/>
<path d="M104.087 34.2894C104.087 34.2786 104.087 34.2678 104.087 34.257C103.87 32.646 103.168 29.6943 101.979 25.4019C100.779 20.8501 97.5743 16.3198 92.3646 11.8112L92.4132 11.8437L91.635 11.1463C91.5702 11.0922 91.5053 11.0382 91.4405 10.9841L90.0786 9.99482C90.0137 9.94075 89.9326 9.88669 89.8354 9.83263C89.2409 9.48665 88.6356 9.14067 88.0195 8.79468C87.9871 8.76225 87.9547 8.74062 87.9222 8.72981C87.3061 8.39464 86.6684 8.07028 86.0091 7.75673C85.9875 7.74591 85.9551 7.7351 85.9118 7.72429C85.2525 7.43237 84.5932 7.13504 83.9339 6.8323C83.9014 6.82149 83.8744 6.81068 83.8528 6.79986C83.161 6.51875 82.4369 6.26467 81.6803 6.03762C80.9669 5.7565 80.2265 5.50783 79.4591 5.29159C79.4483 5.28077 79.4212 5.27537 79.378 5.27537C78.2755 4.98344 77.1568 4.69693 76.0219 4.41581C75.9787 4.405 75.9463 4.39959 75.9247 4.39959C75.3086 4.28066 74.6979 4.16714 74.0926 4.05902V4.0428C74.0818 3.97793 74.044 3.83737 73.9791 3.62113C73.9791 3.5995 73.9791 3.58329 73.9791 3.57247C73.9251 3.35623 73.817 3.10215 73.6549 2.81023C73.4819 2.48587 73.2603 2.20475 72.9901 1.96689C72.4713 1.48035 71.9795 1.11274 71.5147 0.864064C71.05 0.658636 70.3582 0.464019 69.4395 0.280215C68.6943 0.122343 67.8566 0.0358463 66.9265 0.0207264L66.7481 0.00450842C65.6212 -0.0192696 64.6214 0.0510086 63.7487 0.215343C62.83 0.355899 62.1383 0.528891 61.6735 0.73432C61.2087 0.961372 60.7169 1.31817 60.1981 1.80471C59.9279 2.02095 59.7063 2.29125 59.5334 2.61561C59.3712 2.90754 59.2632 3.16162 59.2091 3.37786C59.2091 3.38867 59.2091 3.40489 59.2091 3.42651C59.1443 3.64275 59.1064 3.78331 59.0956 3.84818V3.8644C58.4903 3.9509 57.8797 4.0428 57.2636 4.14011C57.2419 4.14011 57.2095 4.14551 57.1663 4.15632C56.0314 4.39419 54.9127 4.64827 53.8102 4.91857C53.767 4.91857 53.7399 4.92398 53.7291 4.93479C52.9617 5.12941 52.2213 5.35646 51.508 5.61595C50.7514 5.82138 50.0272 6.05383 49.3354 6.31332C49.3138 6.32413 49.2868 6.33495 49.2544 6.34576C48.595 6.62687 47.9357 6.90258 47.2764 7.17288C47.2331 7.18369 47.2007 7.1945 47.1791 7.20531C46.5198 7.51886 45.8821 7.83241 45.266 8.14596C45.2336 8.15677 45.2011 8.1784 45.1687 8.21083C44.5526 8.53519 43.9473 8.85955 43.3529 9.18391C43.2556 9.23797 43.1745 9.29203 43.1097 9.34609L41.7478 10.303C41.6829 10.357 41.6181 10.4111 41.5532 10.4651L40.775 11.1301L40.8236 11.0976C35.6139 15.4549 32.4091 19.8986 31.2094 24.4289C30.0204 28.678 29.3178 31.608 29.1017 33.219C29.1017 33.2298 29.1017 33.2407 29.1017 33.2515C28.9071 34.8625 28.7828 36.1275 28.7288 37.0465V37.0627C28.6382 38.6993 28.8057 40.1211 29.2314 41.3281C28.8546 41.612 28.4546 42.0229 28.0316 42.5606C27.4912 43.1985 27.0048 44.0743 26.5725 45.1879C26.1401 46.2691 25.9942 47.5396 26.1347 48.9992C26.2536 50.4264 26.7346 51.4859 27.5777 52.1779C28.4207 52.8807 29.8907 53.297 31.9876 53.4267C34.0845 53.5673 36.4515 52.6861 39.0888 50.7832H39.1213C41.9423 49.0208 45.1849 47.5936 48.849 46.5016V46.4854C51.6593 45.5664 54.7776 44.9501 58.2039 44.6365C61.4842 44.3136 64.289 44.1893 66.6184 44.2635V44.2797C66.6855 44.2788 66.7504 44.2788 66.813 44.2797C66.8373 44.279 66.8589 44.279 66.8778 44.2797C69.2056 44.2625 72.0104 44.4571 75.2924 44.8636C78.7187 45.2636 81.837 45.9664 84.6472 46.9719V46.9881C88.3113 48.1883 91.5539 49.702 94.375 51.5292H94.4074C97.0447 53.5186 99.4118 54.4755 101.509 54.3998C103.606 54.3133 105.076 53.9295 105.919 53.2483C106.762 52.578 107.243 51.54 107.362 50.1344C107.502 48.6748 107.356 47.3936 106.924 46.2908C106.491 45.1771 106.005 44.2905 105.465 43.631C104.949 42.9536 104.462 42.4724 104.005 42.1876C104.394 41.0314 104.546 39.6691 104.459 38.1007V38.0844C104.405 37.1654 104.281 35.9004 104.087 34.2894ZM103.114 43.9878C103.314 44.1483 103.519 44.3105 103.73 44.4743C104.876 46.0745 105.448 47.426 105.448 48.5289C105.459 48.7343 105.432 48.9181 105.367 49.0803C105.357 49.2533 105.313 49.4371 105.238 49.6317C104.903 50.6804 104.427 51.3562 103.811 51.6589C103.206 51.9617 102.2 52.0644 100.795 51.9671C99.3902 51.8698 97.2879 50.8913 94.4885 49.0316C91.689 47.1611 88.306 45.5555 84.3392 44.2149C80.4589 42.885 75.8598 42.0471 70.542 41.7011C69.6963 41.6495 68.4695 41.59 66.8616 41.5227C66.789 41.5256 66.7134 41.5256 66.6346 41.5227H66.6184C65.0193 41.5459 63.798 41.5729 62.9543 41.6038C57.6365 41.7984 53.0374 42.5066 49.1571 43.7283C45.1903 44.9609 41.8072 46.4692 39.0078 48.2532C36.2083 50.0479 34.1061 50.9724 32.7009 51.0264C31.2958 51.0805 30.2906 50.9562 29.6853 50.6534C29.0692 50.3291 28.5937 49.6317 28.2586 48.5613C28.1829 48.3667 28.1397 48.1829 28.1289 48.0099C28.064 47.8477 28.037 47.6639 28.0478 47.4585C28.0478 46.3556 28.6207 45.0258 29.7664 43.4688C29.9132 43.3583 30.0537 43.2501 30.1879 43.1445C30.9102 42.6065 31.5587 42.12 32.1335 41.6848C32.164 41.6699 32.191 41.6537 32.2146 41.6362C32.6037 41.3335 33.1927 40.9442 33.9818 40.4685C33.0367 40.621 32.2477 40.702 31.6147 40.7118C31.2256 39.7451 31.0689 38.5774 31.1445 37.2087C31.1986 36.3329 31.3228 35.122 31.5174 33.5758C31.7336 32.0405 32.4091 29.2186 33.544 25.11C34.2034 22.753 35.4571 20.4122 37.3054 18.0876C38.6781 16.3685 40.3751 14.6548 42.3963 12.9465L44.5202 11.3247C45.1255 11.0003 45.7416 10.6652 46.3685 10.3192C46.9737 10.0164 47.5952 9.7137 48.233 9.41097C48.8923 9.14067 49.5516 8.87037 50.2109 8.60007C50.8703 8.35139 51.5566 8.12974 52.27 7.93513C52.9617 7.69726 53.6643 7.48102 54.3777 7.2864C55.4801 7.02692 56.5934 6.77283 57.7175 6.52416C58.4309 6.40522 59.1497 6.2971 59.8738 6.1998C60.3278 6.12411 60.7764 6.05383 61.2195 5.98896H61.2519C61.2891 5.98668 61.327 5.98127 61.3654 5.97274C61.3485 5.976 61.3322 5.976 61.3168 5.97274C61.2411 5.29159 61.2682 4.80505 61.3979 4.51312C61.5138 4.20734 61.6111 4.02354 61.6897 3.96171C61.6983 3.95778 61.7037 3.95237 61.7059 3.94549C61.814 3.76169 61.9383 3.60491 62.0788 3.47517C62.8235 2.80474 64.2016 2.45335 66.2131 2.42099H66.8778C66.9104 2.42235 66.9428 2.42235 66.9751 2.42099C68.9866 2.51856 70.3647 2.9132 71.1094 3.60491C71.2499 3.73466 71.3742 3.89143 71.4823 4.07523C71.4844 4.08208 71.4844 4.08748 71.4823 4.09145C71.5716 4.15299 71.6743 4.33679 71.7904 4.64287C71.9201 4.95641 71.9471 5.45377 71.8714 6.13492C71.8598 6.13699 71.849 6.13699 71.839 6.13492C71.8705 6.14231 71.903 6.14772 71.9363 6.15114H71.9687C72.4119 6.21601 72.8604 6.2971 73.3144 6.39441C74.0386 6.51334 74.7573 6.64309 75.4707 6.78364C76.5948 7.05395 77.7081 7.32965 78.8106 7.61076C79.5239 7.82701 80.2265 8.06487 80.9182 8.32436C81.6316 8.5406 82.318 8.78387 82.9773 9.05417C83.6366 9.34609 84.2959 9.63802 84.9553 9.92994C85.593 10.2543 86.2145 10.5679 86.8198 10.8706C87.4467 11.2382 88.0627 11.595 88.668 11.941L90.7919 13.6277C92.8131 15.3792 94.5101 17.1362 95.8828 18.8985C97.7311 21.2663 98.9849 23.6396 99.6442 26.0182C100.779 30.17 101.455 33.0136 101.671 34.5489C101.865 36.095 101.99 37.306 102.044 38.1818C102.119 39.5528 101.962 40.7097 101.574 41.6524C101.001 41.6149 100.315 41.523 99.5145 41.3767C100.223 41.8231 100.769 42.1907 101.152 42.4795C101.199 42.5134 101.242 42.5458 101.282 42.5768C101.831 43.0017 102.442 43.472 103.114 43.9878ZM52.0916 11.1301C52.0916 11.0544 52.0754 10.9733 52.043 10.8868C51.9673 10.5516 51.7133 10.3192 51.281 10.1894C50.8811 10.0597 50.4217 10.0597 49.9029 10.1894C49.8921 10.1894 49.8813 10.1894 49.8705 10.1894C49.3408 10.33 48.9193 10.557 48.6058 10.8706C48.4113 11.0868 48.2978 11.3085 48.2654 11.5355C48.2546 11.6436 48.26 11.7464 48.2816 11.8437C48.3789 12.168 48.6383 12.3951 49.0598 12.5248C49.4165 12.6438 49.811 12.6708 50.2434 12.6059C50.3298 12.5951 50.4109 12.5735 50.4865 12.541C51.0162 12.4221 51.4269 12.1897 51.7187 11.8437C51.9565 11.6166 52.0808 11.3788 52.0916 11.1301ZM81.0966 11.5193C81.1074 11.768 81.2317 12.0167 81.4695 12.2653C81.7613 12.6113 82.172 12.8546 82.7017 12.9952C82.7773 13.0276 82.8584 13.0492 82.9449 13.06C83.3772 13.1465 83.7717 13.1303 84.1284 13.0114C84.5499 12.9032 84.8094 12.687 84.9066 12.3626C84.9283 12.2653 84.9337 12.1626 84.9228 12.0545C84.8904 11.8275 84.7769 11.595 84.5824 11.3571C84.2689 11.0436 83.8474 10.8057 83.3178 10.6435C83.307 10.6435 83.2962 10.6435 83.2853 10.6435C82.7665 10.5138 82.3072 10.503 81.9072 10.6111C81.4749 10.7408 81.2209 10.9625 81.1452 11.276C81.1128 11.3625 81.0966 11.4436 81.0966 11.5193Z" fill="#05104D"/>
<path d="M90.7924 13.6277L88.6685 11.941C88.0632 11.595 87.4472 11.2382 86.8203 10.8706C86.215 10.5679 85.5935 10.2543 84.9558 9.92997C84.2964 9.63804 83.6371 9.34612 82.9778 9.0542C82.3185 8.78389 81.6321 8.54062 80.9187 8.32438C80.227 8.0649 79.5244 7.82703 78.8111 7.61079C77.7086 7.32968 76.5953 7.05397 75.4712 6.78367C74.7578 6.64311 74.0391 6.51337 73.3149 6.39444C72.8609 6.29713 72.4124 6.21604 71.9692 6.15117H71.9368C71.9035 6.14775 71.871 6.14234 71.8395 6.13495C70.4082 6.3952 69.4138 6.5736 68.8563 6.67015C68.3878 6.74224 67.7231 6.78549 66.8621 6.79989C66.8277 6.79921 66.7899 6.79921 66.7486 6.79989C66.6167 6.79989 66.4762 6.79989 66.3271 6.79989V6.78367C65.4665 6.75495 64.8018 6.69549 64.3329 6.60527C63.7769 6.48761 62.7879 6.27677 61.3659 5.97277C61.3275 5.9813 61.2896 5.98671 61.2524 5.98899H61.22C60.7769 6.05386 60.3283 6.12414 59.8743 6.19982C59.1502 6.29713 58.4314 6.40525 57.718 6.52418C56.5939 6.77286 55.4806 7.02694 54.3782 7.28643C53.6648 7.48105 52.9622 7.69729 52.2705 7.93515C51.5571 8.12977 50.8708 8.35141 50.2114 8.60009C49.5521 8.87039 48.8928 9.14069 48.2334 9.41099C47.5957 9.71373 46.9742 10.0165 46.369 10.3192C45.7421 10.6652 45.126 11.0004 44.5207 11.3247L42.3968 12.9465C42.2239 13.1844 41.8888 13.5033 41.3916 13.9034C40.8944 14.3251 40.3215 15.2441 39.673 16.6605C39.3596 17.3092 39.0137 18.5526 38.6354 20.3906C38.1922 22.553 37.695 25.5642 37.1438 29.424C36.679 32.5703 36.5115 34.9003 36.6412 36.414C36.7368 37.5234 36.9854 38.1938 37.387 38.4251C38.9535 37.5537 40.618 36.7482 42.3806 36.0086C44.5747 35.0787 46.6446 34.3759 48.5901 33.9002C50.4708 33.3921 51.9084 33.0407 52.9028 32.8461C53.8972 32.6622 55.2699 32.4838 57.0209 32.3109C59.3015 32.0297 62.6359 31.9054 67.0243 31.9378C71.1418 32.0282 74.2925 32.239 76.4764 32.5703C78.2274 32.7866 79.6001 33.0082 80.5945 33.2353C81.5889 33.4515 83.0264 33.8354 84.9071 34.3868C86.8527 34.9274 88.9225 35.695 91.1167 36.6897C92.8163 37.4361 94.4213 38.247 95.9319 39.1224C96.2586 38.8428 96.464 38.2211 96.548 37.2574C96.6777 35.7437 96.5102 33.4029 96.0454 30.2349C95.4942 26.3751 94.997 23.3531 94.5538 21.1691C94.1755 19.3094 93.8297 18.0552 93.5162 17.4065C92.8677 15.9685 92.2948 15.0386 91.7976 14.617C91.3004 14.1953 90.9654 13.8655 90.7924 13.6277ZM81.47 12.2654C81.2322 12.0167 81.1079 11.768 81.0971 11.5193C81.0971 11.4437 81.1133 11.3626 81.1457 11.2761C81.2214 10.9625 81.4754 10.7409 81.9077 10.6111C82.3077 10.503 82.767 10.5138 83.2858 10.6436C83.2966 10.6436 83.3074 10.6436 83.3183 10.6436C83.8479 10.8057 84.2694 11.0436 84.5829 11.3572C84.7774 11.595 84.8909 11.8275 84.9233 12.0545C84.9342 12.1627 84.9288 12.2654 84.9071 12.3627C84.8099 12.687 84.5504 12.9033 84.1289 13.0114C83.7722 13.1303 83.3777 13.1465 82.9454 13.0601C82.8589 13.0492 82.7778 13.0276 82.7022 12.9952C82.1725 12.8546 81.7618 12.6114 81.47 12.2654ZM52.0435 10.8868C52.0759 10.9733 52.0921 11.0544 52.0921 11.1301C52.0813 11.3788 51.957 11.6166 51.7192 11.8437C51.4274 12.1897 51.0167 12.4221 50.487 12.5411C50.4114 12.5735 50.3303 12.5951 50.2439 12.6059C49.8115 12.6708 49.417 12.6438 49.0603 12.5249C48.6388 12.3951 48.3794 12.1681 48.2821 11.8437C48.2605 11.7464 48.2551 11.6437 48.2659 11.5356C48.2983 11.3085 48.4118 11.0869 48.6063 10.8706C48.9198 10.5571 49.3413 10.33 49.871 10.1895C49.8818 10.1895 49.8926 10.1895 49.9034 10.1895C50.4222 10.0597 50.8816 10.0597 51.2815 10.1895C51.7138 10.3192 51.9678 10.5517 52.0435 10.8868ZM70.3803 5.03212C71.1369 4.78345 71.5044 4.4699 71.4828 4.09148C71.4849 4.08751 71.4849 4.0821 71.4828 4.07526C71.3747 3.89146 71.2504 3.73468 71.1099 3.60494C70.3652 2.91322 68.9871 2.51858 66.9756 2.42102C66.9433 2.42237 66.9109 2.42237 66.8783 2.42102H66.2136C64.2021 2.45337 62.824 2.80476 62.0793 3.47519C61.9388 3.60494 61.8145 3.76171 61.7064 3.94552C61.7042 3.9524 61.6988 3.95781 61.6902 3.96173H61.7064C61.6848 4.34015 62.0523 4.66452 62.8089 4.93482C63.76 5.23755 65.1436 5.39973 66.9594 5.42136C68.4206 5.40404 69.5609 5.2743 70.3803 5.03212ZM103.811 51.659C104.428 51.3562 104.903 50.6805 105.238 49.6317C105.314 49.4371 105.357 49.2533 105.368 49.0803C105.119 49.729 104.363 50.075 103.098 50.1182C102.947 50.1399 102.785 50.1453 102.612 50.1345C100.72 50.0912 98.3423 49.0803 95.478 47.1017C92.7001 45.1447 89.0036 43.4148 84.3883 41.9119C81.2862 40.8848 77.8707 40.209 74.1417 39.8847C72.0197 39.6535 69.5932 39.4913 66.8621 39.3981C66.7901 39.4006 66.7144 39.4006 66.6351 39.3981V39.3819C66.6327 39.3873 66.6273 39.3927 66.6189 39.3981C63.8994 39.4245 61.4783 39.5218 59.3555 39.6901C55.6266 39.9063 52.211 40.4847 49.1089 41.4254C44.4937 42.7985 40.7971 44.4311 38.0193 46.3232C35.155 48.2153 32.7771 49.1614 30.8856 49.1614C30.7127 49.1506 30.5505 49.1344 30.3992 49.1127C29.1346 49.0262 28.378 48.6586 28.1294 48.0099C28.1402 48.1829 28.1834 48.3667 28.2591 48.5613C28.5942 49.6317 29.0697 50.3291 29.6858 50.6534C30.2911 50.9562 31.2963 51.0805 32.7014 51.0265C34.1066 50.9724 36.2088 50.048 39.0083 48.2532C41.8077 46.4692 45.1908 44.9609 49.1576 43.7283C53.0379 42.5066 57.637 41.7984 62.9548 41.6038C63.7985 41.5729 65.0198 41.5459 66.6189 41.5227H66.6351C66.7139 41.5257 66.7895 41.5257 66.8621 41.5227C68.47 41.5901 69.6968 41.6495 70.5425 41.7011C75.8603 42.0471 80.4594 42.885 84.3397 44.2149C88.3064 45.5556 91.6895 47.1612 94.489 49.0316C97.2884 50.8913 99.3907 51.8698 100.796 51.9671C102.201 52.0644 103.206 51.9617 103.811 51.659Z" fill="#009DFF"/>
<path d="M103.73 44.4744C103.519 44.3105 103.314 44.1484 103.114 43.9878C102.442 43.472 101.832 43.0017 101.282 42.5769C101.242 42.5459 101.199 42.5134 101.152 42.4796C100.769 42.1908 100.223 41.8231 99.5149 41.3767C100.315 41.523 101.001 41.6149 101.574 41.6524C101.962 40.7097 102.119 39.5528 102.044 38.1818C101.99 37.306 101.866 36.0951 101.671 34.5489C101.455 33.0136 100.779 30.1701 99.6446 26.0183C98.9853 23.6396 97.7315 21.2664 95.8832 18.8985C94.5105 17.1362 92.8135 15.3792 90.7923 13.6277C90.9653 13.8655 91.3003 14.1953 91.7975 14.617C92.2947 15.0386 92.8676 15.9685 93.5161 17.4065C93.8295 18.0552 94.1754 19.3094 94.5537 21.1691C94.9969 23.3531 95.4941 26.375 96.0453 30.2349C96.5101 33.4029 96.6776 35.7437 96.5479 37.2573C96.4639 38.2211 96.2585 38.8428 95.9318 39.1224C94.4212 38.247 92.8162 37.4361 91.1166 36.6897C88.9224 35.695 86.8526 34.9274 84.907 34.3868C83.0263 33.8353 81.5888 33.4515 80.5944 33.2353C79.6 33.0082 78.2273 32.7866 76.4763 32.5703C74.2924 32.239 71.1416 32.0282 67.0241 31.9378C62.6358 31.9054 59.3014 32.0297 57.0207 32.3108C55.2698 32.4838 53.8971 32.6622 52.9027 32.846C51.9083 33.0407 50.4707 33.3921 48.59 33.9002C46.6445 34.3759 44.5746 35.0787 42.3805 36.0086C40.6179 36.7482 38.9534 37.5537 37.3869 38.425C36.9853 38.1938 36.7367 37.5234 36.6411 36.414C36.5114 34.9003 36.6789 32.5703 37.1437 29.424C37.6949 25.5641 38.1921 22.553 38.6353 20.3906C39.0136 18.5526 39.3594 17.3092 39.6729 16.6604C40.3214 15.2441 40.8943 14.3251 41.3915 13.9034C41.8887 13.5033 42.2237 13.1844 42.3967 12.9465C40.3755 14.6548 38.6785 16.3685 37.3058 18.0876C35.4575 20.4122 34.2037 22.753 33.5444 25.11C32.4095 29.2186 31.734 32.0405 31.5178 33.5759C31.3232 35.122 31.1989 36.3329 31.1449 37.2087C31.0693 38.5774 31.226 39.7451 31.6151 40.7118C32.2481 40.7021 33.0371 40.621 33.9822 40.4685C33.1931 40.9442 32.6041 41.3335 32.2149 41.6362C32.1914 41.6537 32.1644 41.6699 32.1339 41.6849C31.5591 42.12 30.9106 42.6066 30.1883 43.1445C30.0541 43.2502 29.9136 43.3583 29.7668 43.4689C28.6211 45.0258 28.0482 46.3557 28.0482 47.4585C28.0374 47.6639 28.0644 47.8477 28.1293 48.0099C28.3779 48.6586 29.1345 49.0262 30.3991 49.1127C30.5504 49.1343 30.7125 49.1506 30.8855 49.1614C32.777 49.1614 35.1549 48.2153 38.0192 46.3232C40.797 44.4311 44.4935 42.7985 49.1088 41.4254C52.2109 40.4847 55.6264 39.9063 59.3554 39.6901C61.4782 39.5218 63.8993 39.4245 66.6188 39.3981C66.6272 39.3927 66.6326 39.3873 66.635 39.3819V39.3981C66.7143 39.4006 66.7899 39.4006 66.862 39.3981C69.5931 39.4913 72.0196 39.6535 74.1416 39.8847C77.8706 40.209 81.2861 40.8848 84.3882 41.9119C89.0035 43.4148 92.7 45.1447 95.4779 47.1017C98.3421 49.0803 100.72 50.0912 102.612 50.1345C102.784 50.1453 102.947 50.1399 103.098 50.1182C104.363 50.075 105.119 49.729 105.368 49.0803C105.433 48.9181 105.46 48.7343 105.449 48.5289C105.449 47.4261 104.876 46.0746 103.73 44.4744ZM71.4827 4.09148C71.5043 4.4699 71.1368 4.78344 70.3802 5.03212C69.5608 5.27429 68.4205 5.40404 66.9593 5.42135C65.1434 5.39973 63.7599 5.23755 62.8088 4.93481C62.0522 4.66451 61.6847 4.34015 61.7063 3.96173H61.6901C61.6115 4.02356 61.5142 4.20737 61.3982 4.51314C61.2685 4.80507 61.2415 5.29161 61.3172 5.97277C61.3326 5.97602 61.3488 5.97602 61.3658 5.97277C62.7877 6.27677 63.7767 6.4876 64.3328 6.60527C64.8017 6.69548 65.4664 6.75495 66.327 6.78367V6.79989C66.4761 6.79989 66.6166 6.79989 66.7485 6.79989C66.7898 6.79921 66.8276 6.79921 66.862 6.79989C67.7229 6.78548 68.3877 6.74224 68.8562 6.67014C69.4137 6.57359 70.4081 6.3952 71.8394 6.13495C71.8494 6.13702 71.8602 6.13702 71.8718 6.13495C71.9475 5.45379 71.9204 4.95644 71.7907 4.64289C71.6747 4.33682 71.572 4.15301 71.4827 4.09148Z" fill="#0163AF"/>
<path d="M106.52 73.2127C106.336 73.0721 105.293 72.7478 103.391 72.2396C102.18 71.8936 101.061 71.6017 100.035 71.3638H100.002C97.8728 70.9638 96.0677 70.7043 94.587 70.5854C92.2091 70.4016 89.7285 70.434 87.1452 70.6827C84.5295 70.9313 82.5516 71.2016 81.2113 71.4936C79.871 71.7747 78.5524 72.245 77.2553 72.9045C76.1853 73.4668 75.3692 73.7425 74.8072 73.7317C74.7639 73.7317 74.3262 73.4289 73.4939 72.8234C72.6725 72.2072 71.9591 71.7855 71.3538 71.5584C70.7269 71.3314 70.1054 71.1692 69.4893 71.0719C68.9256 70.9779 68.1852 70.9185 67.2682 70.8935C66.9547 70.8935 66.6575 70.8881 66.3764 70.8773C66.3042 70.8766 66.234 70.8766 66.1657 70.8773C66.0954 70.8773 66.0252 70.8773 65.9549 70.8773C65.0385 70.8777 64.2981 70.9155 63.7337 70.9908C63.1176 71.0665 62.4961 71.207 61.8692 71.4125C61.264 71.6395 60.5506 72.0504 59.7291 72.645C58.8969 73.2289 58.4591 73.5208 58.4159 73.5208C57.8538 73.51 57.0378 73.2019 55.9677 72.5964C54.6707 71.9152 53.352 71.4125 52.0118 71.0881C50.6715 70.7529 48.6935 70.4286 46.0778 70.115C43.4946 69.8015 41.014 69.7042 38.6361 69.8231C37.1553 69.8988 35.3503 70.1042 33.221 70.4394H33.1885C32.1617 70.6556 31.043 70.9151 29.8325 71.2179C27.9301 71.6828 26.8871 71.9855 26.7034 72.1261C26.4656 72.2774 26.3467 72.8289 26.3467 73.7803C26.3467 74.5263 26.4007 75.0021 26.5088 75.2075C26.6169 75.4886 27.2816 75.9589 28.503 76.6185C28.6976 76.7266 28.8813 76.8347 29.0542 76.9428C29.0542 77.8402 29.0488 78.6944 29.038 79.5053V80.3486C29.038 80.9757 29.0542 81.5866 29.0867 82.1812C29.0975 82.83 29.1245 83.3976 29.1677 83.8841C29.2218 84.468 29.2866 85.1762 29.3623 86.0087C29.5785 88.9171 30.8755 91.4958 33.2534 93.7447C35.9339 96.2423 39.2522 97.5181 43.2081 97.5722C46.2778 97.6154 48.6935 97.3289 50.4553 96.7126C52.0226 96.1612 53.7412 95.08 55.611 93.469C57.5782 91.7715 58.7726 89.3172 59.1941 86.106C59.4967 83.4354 59.6913 81.9218 59.7778 81.565C59.821 81.3379 60.0696 81.1055 60.5236 80.8676C60.9991 80.6297 61.264 79.9972 61.318 78.9701C61.3288 78.8295 61.2964 78.343 61.2207 77.5105C61.1559 76.6779 61.4801 75.9319 62.1935 75.2724C62.9177 74.5912 63.8688 74.2398 65.047 74.2182C65.3814 74.2117 65.6786 74.2063 65.9387 74.202C66.0261 74.2025 66.1071 74.2025 66.1819 74.202C66.6877 74.2037 67.0498 74.2146 67.2682 74.2344V74.2182C67.5389 74.2313 67.8416 74.2476 68.1761 74.2669C69.3542 74.3101 70.3054 74.6831 71.0296 75.3859C71.7429 76.0671 72.0672 76.8239 72.0023 77.6564C71.9267 78.4889 71.8942 78.9755 71.9051 79.116C71.9591 80.1432 72.2239 80.7865 72.6995 81.046C73.1535 81.2839 73.4021 81.5163 73.4453 81.7434C73.5318 82.1002 73.7263 83.6247 74.0289 86.3168C74.4505 89.528 75.6448 92.0148 77.612 93.7771C79.4819 95.4314 81.2005 96.5558 82.7677 97.1505C84.5295 97.81 86.9453 98.1614 90.0149 98.2047C93.9709 98.2587 97.2891 97.0802 99.9697 94.6691C102.348 92.4851 103.645 89.9389 103.861 87.0304C103.936 86.1979 104.001 85.4897 104.055 84.9059C104.099 84.4193 104.126 83.8517 104.136 83.203C104.169 82.6083 104.185 81.9974 104.185 81.3703V80.527C104.174 79.7161 104.169 78.862 104.169 77.9646C104.342 77.8781 104.525 77.7808 104.72 77.6726C105.941 77.0347 106.606 76.586 106.714 76.3265C106.822 76.1211 106.876 75.6454 106.876 74.8994C106.876 73.9479 106.757 73.3857 106.52 73.2127ZM33.221 77.5267V77.5429H33.1885C33.1885 77.5321 33.1994 77.5267 33.221 77.5267ZM100.002 78.4673V78.4511C100.024 78.4511 100.035 78.4565 100.035 78.4673H100.002Z" fill="#05104D"/>
<path d="M54.5196 76.8542C51.7279 75.082 48.7071 74.3706 45.457 74.7201L31.9331 89.1369C33.3093 91.5986 35.0455 93.3359 37.1418 94.3488L54.5196 76.8542ZM100.51 76.5993C98.4297 75.6676 95.4322 75.1824 91.5176 75.1437L77.0361 90.6922C78.2818 92.5233 80.1582 94.06 82.6652 95.3024L100.51 76.5993Z" fill="#0163AF"/>
<path d="M36.3946 75.857C35.5316 76.3494 33.6397 78.4573 30.7188 82.1808C30.7498 83.6973 30.9055 84.9456 31.1859 85.9256C32.7405 84.1897 34.7882 81.9905 37.3289 79.3279C39.8709 76.6803 41.2179 75.2269 41.3697 74.9676C38.9315 75.0688 37.2731 75.3653 36.3946 75.857ZM79.8859 77.0397C79.8392 77.3506 78.282 79.2529 75.2144 82.7465C75.3546 84.8201 75.5337 86.2712 75.7517 87.0997C77.885 84.9484 80.6489 81.9334 84.0435 78.0549C85.1024 76.8545 86.0678 76.0812 86.9398 75.7349C84.9467 75.5673 82.5954 76.0022 79.8859 77.0397Z" fill="#3D98DE"/>
<path d="M104.816 116.369C105.627 115.255 106.059 113.698 106.113 111.698C106.168 109.698 104.741 108.179 101.833 107.141C100.947 106.87 99.9417 106.946 98.8176 107.368C97.2828 107.919 96.202 108.86 95.5751 110.19C94.5158 112.331 92.1487 113.455 88.4738 113.563C85.3871 113.472 79.2208 113.45 69.9748 113.498C69.0846 113.497 68.1929 113.497 67.2997 113.498C56.4679 113.42 49.3558 113.431 45.9634 113.531C42.2885 113.423 39.9214 112.298 38.8622 110.157C38.2353 108.827 37.1544 107.887 35.6196 107.335C34.4955 106.914 33.4903 106.838 32.604 107.108C29.6964 108.146 28.2697 109.665 28.3237 111.666C28.3778 113.666 28.8101 115.223 29.6208 116.336C30.4422 117.45 31.7177 118.753 33.447 120.245C35.1872 121.726 37.7921 122.743 41.2617 123.294C44.7312 123.845 47.6604 124.11 50.0491 124.089C52.1526 124.06 57.2705 124.039 65.4028 124.024C66.0065 124.027 66.6226 124.032 67.251 124.04C67.845 124.049 68.434 124.054 69.0182 124.056C77.1601 124.071 82.2834 124.093 84.3881 124.121C86.7768 124.143 89.706 123.878 93.1755 123.326C96.6451 122.775 99.25 121.759 100.99 120.277C102.72 118.785 103.995 117.482 104.816 116.369ZM102.303 111.568C102.418 111.865 102.407 112.157 102.271 112.444C100.168 117.192 95.9525 119.76 89.6249 120.148C89.5939 120.149 89.5615 120.149 89.5276 120.148C86.6995 120.061 80.7223 119.996 71.5961 119.953H71.5799C68.4038 119.953 65.4909 119.958 62.8411 119.969C53.7137 119.98 47.7366 120.029 44.9096 120.115C44.8757 120.117 44.8379 120.117 44.7961 120.115C38.4793 119.728 34.2639 117.16 32.15 112.412C32.0245 112.125 32.0137 111.833 32.1176 111.536C32.2328 111.249 32.4328 111.038 32.7175 110.903C33.0033 110.778 33.2898 110.767 33.5767 110.871C33.8739 110.987 34.0847 111.187 34.209 111.471C36.0363 115.386 39.6032 117.51 44.9096 117.845C44.9251 117.844 44.9359 117.844 44.942 117.845C47.8231 117.758 53.784 117.709 62.8249 117.699H62.8411C65.4896 117.688 68.4079 117.682 71.5961 117.682C80.6479 117.725 86.6088 117.79 89.479 117.877C89.4948 117.877 89.5056 117.877 89.5114 117.877C94.8286 117.543 98.3954 115.418 100.212 111.503C100.347 111.219 100.558 111.019 100.844 110.903C101.142 110.799 101.434 110.81 101.72 110.936C102.004 111.071 102.199 111.282 102.303 111.568Z" fill="#1294E4"/>
<path d="M102.27 112.444C102.407 112.157 102.418 111.866 102.303 111.568C102.198 111.282 102.004 111.071 101.719 110.936C101.433 110.81 101.141 110.799 100.844 110.903C100.557 111.019 100.347 111.219 100.211 111.504C98.3948 115.418 94.828 117.543 89.5108 117.877C89.505 117.877 89.4942 117.877 89.4784 117.877C86.6082 117.79 80.6473 117.725 71.5955 117.683C68.4073 117.683 65.489 117.688 62.8405 117.699H62.8243C53.7834 117.709 47.8225 117.758 44.9414 117.845C44.9353 117.844 44.9245 117.844 44.909 117.845C39.6026 117.51 36.0357 115.386 34.2084 111.471C34.0841 111.187 33.8733 110.987 33.5761 110.871C33.2892 110.767 33.0027 110.778 32.7169 110.903C32.4322 111.039 32.2322 111.249 32.117 111.536C32.0131 111.833 32.0239 112.125 32.1494 112.412C34.2633 117.16 38.4787 119.728 44.7955 120.115C44.8373 120.117 44.8751 120.117 44.909 120.115C47.736 120.029 53.7131 119.98 62.8405 119.969C65.4903 119.959 68.4032 119.953 71.5793 119.953H71.5955C80.7217 119.997 86.6989 120.061 89.527 120.148C89.5609 120.149 89.5933 120.149 89.6243 120.148C95.9519 119.76 100.167 117.192 102.27 112.444Z" fill="#09255B"/>
</svg>
