<svg width="13" height="13" viewBox="0 0 13 13" fill="none" xmlns="http://www.w3.org/2000/svg">
<path d="M6.95922 6.95957C6.7054 7.21339 6.29383 7.21339 6.03999 6.95957C5.78615 6.70574 5.78615 6.29417 6.03999 6.04033L9.94 2.14033C10.1938 1.88649 10.6054 1.88649 10.8592 2.14033C11.1131 2.39417 11.1131 2.80573 10.8592 3.05957L6.95922 6.95957Z" fill="#49CA55"/>
<path d="M9.7502 9.74995V7.47495C9.7502 7.11596 10.0412 6.82495 10.4002 6.82495C10.7592 6.82495 11.0502 7.11596 11.0502 7.47495V10.4C11.0502 10.7589 10.7592 11.05 10.4002 11.05H2.6002C2.24121 11.05 1.9502 10.7589 1.9502 10.4V2.59995C1.9502 2.24097 2.24121 1.94995 2.6002 1.94995H5.5252C5.88418 1.94995 6.1752 2.24097 6.1752 2.59995C6.1752 2.95893 5.88418 3.24995 5.5252 3.24995H3.2502V9.74995H9.7502Z" fill="#49CA55"/>
<path d="M11.05 5.19995C11.05 5.55893 10.759 5.84995 10.4 5.84995C10.041 5.84995 9.75 5.55893 9.75 5.19995V2.59995C9.75 2.24097 10.041 1.94995 10.4 1.94995C10.759 1.94995 11.05 2.24097 11.05 2.59995V5.19995Z" fill="#49CA55"/>
<path d="M7.80039 3.24995C7.4414 3.24995 7.15039 2.95893 7.15039 2.59995C7.15039 2.24097 7.4414 1.94995 7.80039 1.94995H10.4004C10.7594 1.94995 11.0504 2.24097 11.0504 2.59995C11.0504 2.95893 10.7594 3.24995 10.4004 3.24995H7.80039Z" fill="#49CA55"/>
</svg>
